<?xml version="1.0" encoding="UTF-8" standalone="no"?>
<svg
   xmlns:dc="http://purl.org/dc/elements/1.1/"
   xmlns:cc="http://creativecommons.org/ns#"
   xmlns:rdf="http://www.w3.org/1999/02/22-rdf-syntax-ns#"
   xmlns:svg="http://www.w3.org/2000/svg"
   xmlns="http://www.w3.org/2000/svg"
   xmlns:xlink="http://www.w3.org/1999/xlink"
   xmlns:sodipodi="http://sodipodi.sourceforge.net/DTD/sodipodi-0.dtd"
   xmlns:inkscape="http://www.inkscape.org/namespaces/inkscape"
   version="1.0"
   width="300.000000pt"
   height="300.000000pt"
   viewBox="0 0 300.000000 300.000000"
   preserveAspectRatio="xMidYMid meet"
   id="svg2"
   inkscape:version="0.92.5 (2060ec1f9f, 2020-04-08)"
   sodipodi:docname="bb.svg">
  <defs
     id="defs12">
    <linearGradient
       inkscape:collect="always"
       id="linearGradient822">
      <stop
         style="stop-color:#fffdf4;stop-opacity:1"
         offset="0"
         id="stop818" />
      <stop
         style="stop-color:#d6d0c2;stop-opacity:1"
         offset="1"
         id="stop820" />
    </linearGradient>
    <linearGradient
       inkscape:collect="always"
       xlink:href="#linearGradient822"
       id="linearGradient824"
       x1="4.7001266"
       y1="152.57434"
       x2="295.08632"
       y2="152.57434"
       gradientUnits="userSpaceOnUse" />
  </defs>
  <sodipodi:namedview
     pagecolor="#ffffff"
     bordercolor="#666666"
     borderopacity="1"
     objecttolerance="10"
     gridtolerance="10"
     guidetolerance="10"
     inkscape:pageopacity="0"
     inkscape:pageshadow="2"
     inkscape:window-width="1306"
     inkscape:window-height="1008"
     id="namedview10"
     showgrid="false"
     inkscape:zoom="1.7742576"
     inkscape:cx="225.81672"
     inkscape:cy="197.14796"
     inkscape:window-x="8"
     inkscape:window-y="0"
     inkscape:window-maximized="0"
     inkscape:current-layer="svg2"
     inkscape:pagecheckerboard="true" />
  <metadata
     id="metadata4">
Created by potrace 1.12, written by Peter Selinger 2001-2015
<rdf:RDF>
  <cc:Work
     rdf:about="">
    <dc:format>image/svg+xml</dc:format>
    <dc:type
       rdf:resource="http://purl.org/dc/dcmitype/StillImage" />
    <dc:title />
  </cc:Work>
</rdf:RDF>
</metadata>
  <path
     sodipodi:nodetypes="csccccsccsssccccccccsscccccsscccccccccccccscccccccccccccccccccccccscccc"
     inkscape:connector-curvature="0"
     id="path831"
     d="m 6.1042331,293.73264 c -1.5204507,-1.23662 -1.7980729,-3.90929 -0.8717967,-11.99624 0.1963326,-1.7141 0.9586304,-5.79486 1.0609707,-6.39457 1.255816,-6.73917 3.3785709,-12.82601 5.5739439,-17.21036 4.663013,-8.0207 14.173609,-11.95984 20.591657,-12.93451 13.809967,-1.69403 32.417098,0.21209 39.627202,2.14885 3.57296,0.56449 12.906599,3.54643 21.766009,6.38368 8.789891,2.81498 11.136461,3.12595 11.122521,1.47399 -0.0145,-1.71483 -2.77216,-4.39491 -5.14391,-4.99918 -5.211054,-1.32766 -9.535723,-8.20335 -11.077101,-17.61129 -1.32541,-8.08975 -1.28807,-6.73341 -0.71624,-26.01253 0.492819,-16.61537 -0.535127,-17.8731 -4.009731,-23.70894 -1.175323,-1.97403 -2.690156,-3.6161 -2.691182,-4.12923 -3.638187,-6.96901 -6.262428,-13.22897 -8.318854,-19.71418 -2.286217,-11.65716 -2.727043,-21.61199 -2.069005,-31.20344 -0.05443,-6.69986 1.803462,-12.01212 3.532851,-19.48533 3.667882,-13.082425 7.421106,-21.278205 12.831972,-30.06371 6.450391,-10.169477 9.503978,-15.143785 17.01412,-23.921597 3.35535,-4.502304 10.29584,-9.664712 9.24303,-13.258844 -0.56148,-2.396879 -2.70149,-5.341496 -4.51922,-7.870739 -3.42465,-6.540626 -1.11724,-15.091828 4.25662,-19.280649 5.64178,-4.3976381 16.78551,-4.1307764 21.38892,0.615028 5.02224,5.177576 7.54696,12.518592 2.68662,20.651174 -3.7877,4.986737 -4.09873,6.671505 2.48313,14.19006 3.33739,3.12817 5.70458,6.933466 8.5779,6.756585 2.0269,-0.08223 3.54951,-0.893909 6.28004,-3.65727 4.73045,-4.787305 9.13825,-11.007534 6.06067,-14.136672 -5.19797,-6.052299 -5.29978,-13.27838 -3.40055,-18.21928 2.28356,-5.940771 8.8291,-8.970854 15.1949,-9.12922 8.95668,-0.222821 15.26882,5.629851 16.58643,13.512391 0.46227,2.593935 0.28466,5.711158 -0.3951,8.317666 -1.61905,3.254575 -2.17176,4.742889 -3.73335,6.724437 -1.80331,1.717099 -1.16839,4.10534 0.74253,6.401368 3.81829,4.894542 7.10769,7.849518 10.02537,12.226912 4.59861,5.23792 7.1124,9.094544 10.24826,13.970632 5.49195,7.798179 6.96074,10.958818 9.27349,15.839461 4.86454,10.626239 6.75715,16.725047 8.99554,25.533447 1.05714,4.46035 1.68455,8.32612 2.3537,12.34955 0.79324,4.8749 1.41535,14.22346 0.53704,22.63177 -0.37324,3.59854 -0.30897,3.91145 -1.10011,8.36006 -2.71413,10.87852 -7.51879,22.49098 -11.46881,31.79224 -0.72723,1.94219 -1.7395,4.42458 -2.94346,7.3808 -1.85211,4.54775 -1.87972,6.16992 -1.7169,10.54048 0.59821,16.05832 0.14779,28.76545 -1.17989,33.2863 -1.8726,6.3763 -3.14056,7.24274 -7.21504,9.50142 -2.40754,1.21519 -3.62425,1.27612 -4.97423,2.30333 -1.41007,1.28942 -1.84305,4.24785 -0.19026,4.24908 1.40031,10e-4 15.14203,-3.95118 15.61435,-4.5456 7.30175,-1.77081 13.56945,-4.02109 20.75512,-5.05313 5.01782,-1.30256 23.8517,-2.32193 34.92939,-1.08476 8.05842,1.045 17.30141,7.06888 20.32991,13.27486 2.7968,5.80148 3.82421,10.0653 5.02172,14.87175 0.43102,2.31369 0.92389,5.16107 1.41011,8.3416 0.86705,5.73973 1.01665,11.0212 -1.06316,12.12195 -2.28036,1.2069 -5.61492,0.11413 -11.3623,-3.7236 -2.29551,-1.98019 -5.39084,-3.46909 -8.9672,-4.28751 -3.2958,-0.77194 -20.96014,-3.17563 -33.41606,-3.11234 -1.58067,0.10332 -8.69338,0.15169 -15.80603,0.10746 -7.11263,-0.0442 -14.71025,-0.0654 -16.88359,-0.0469 -14.16462,0.11994 -28.40931,-1.67642 -35.02131,-4.41645 -2.39927,-0.81904 -3.91666,-1.57798 -5.88722,-2.51817 -4.40358,-2.42132 -8.80782,-5.09351 -12.49921,-7.69509 l -3.95892,-2.47384 -3.1901,2.18039 c -6.22564,4.01629 -11.71078,7.9086 -18.64931,10.46563 -5.85612,2.22748 -20.93885,4.55699 -35.027735,4.38189 -2.173298,-0.027 -9.770932,-0.0216 -16.883631,0.012 -7.112699,0.0336 -14.225331,-0.0254 -15.805848,-0.13107 -11.476897,0.35833 -29.264613,1.89893 -33.393854,3.13152 -3.194704,0.91297 -6.264394,2.55614 -9.000167,4.20499 -4.0129,2.54299 -8.2743456,5.74147 -11.5656519,3.79149 z"
     style="display:inline;fill:url(#linearGradient824);fill-opacity:1;stroke-width:0.72272938" />
  <path
     style="display:inline;fill:#000000;stroke-width:0.72272938"
     d="m 6.1042331,293.73264 c -1.5204507,-1.23662 -1.7980729,-3.90929 -0.8717967,-11.99624 0.1963326,-1.7141 0.9586304,-5.79486 1.0609707,-6.39457 1.255816,-6.73917 3.3785709,-12.82601 5.5739439,-17.21036 4.663013,-8.0207 14.173609,-11.95984 20.591657,-12.93451 13.809967,-1.69403 32.417098,0.21209 39.627202,2.14885 3.57296,0.56449 12.906599,3.54643 21.766009,6.38368 8.789891,2.81498 11.136461,3.12595 11.122521,1.47399 -0.0145,-1.71483 -2.77216,-4.39491 -5.14391,-4.99918 -5.211054,-1.32766 -9.535723,-8.20335 -11.077101,-17.61129 -1.32541,-8.08975 -1.28807,-6.73341 -0.71624,-26.01253 0.492819,-16.61537 -0.535127,-17.8731 -4.009731,-23.70894 -1.175323,-1.97403 -2.690156,-3.6161 -2.691182,-4.12923 -3.638187,-6.96901 -6.262428,-13.22897 -8.318854,-19.71418 -2.286217,-11.65716 -2.727043,-21.61199 -2.069005,-31.20344 -0.05443,-6.69986 1.803462,-12.01212 3.532851,-19.48533 3.667882,-13.082425 7.421106,-21.278205 12.831972,-30.06371 6.450391,-10.169477 9.503978,-15.143785 17.01412,-23.921597 3.35535,-4.502304 10.29584,-9.664712 9.24303,-13.258844 -0.56148,-2.396879 -2.70149,-5.341496 -4.51922,-7.870739 -3.42465,-6.540626 -1.11724,-15.091828 4.25662,-19.280649 5.64178,-4.3976381 16.78551,-4.1307764 21.38892,0.615028 5.02224,5.177576 7.54696,12.518592 2.68662,20.651174 -3.7877,4.986737 -4.09873,6.671505 2.48313,14.19006 3.33739,3.12817 5.70458,6.933466 8.5779,6.756585 2.0269,-0.08223 3.54951,-0.893909 6.28004,-3.65727 4.73045,-4.787305 9.13825,-11.007534 6.06067,-14.136672 -5.19797,-6.052299 -5.29978,-13.27838 -3.40055,-18.21928 2.28356,-5.940771 8.8291,-8.970854 15.1949,-9.12922 8.95668,-0.222821 15.26882,5.629851 16.58643,13.512391 0.46227,2.593935 0.28466,5.711158 -0.3951,8.317666 -1.61905,3.254575 -2.17176,4.742889 -3.73335,6.724437 -1.80331,1.717099 -1.16839,4.10534 0.74253,6.401368 3.81829,4.894542 7.10769,7.849518 10.02537,12.226912 4.59861,5.23792 7.1124,9.094544 10.24826,13.970632 5.49195,7.798179 6.96074,10.958818 9.27349,15.839461 4.86454,10.626239 6.75715,16.725047 8.99554,25.533447 1.05714,4.46035 1.68455,8.32612 2.3537,12.34955 0.79324,4.8749 1.41535,14.22346 0.53704,22.63177 -0.37324,3.59854 -0.30897,3.91145 -1.10011,8.36006 -2.71413,10.87852 -7.51879,22.49098 -11.46881,31.79224 -0.72723,1.94219 -1.7395,4.42458 -2.94346,7.3808 -1.85211,4.54775 -1.87972,6.16992 -1.7169,10.54048 0.59821,16.05832 0.14779,28.76545 -1.17989,33.2863 -1.8726,6.3763 -3.14056,7.24274 -7.21504,9.50142 -2.40754,1.21519 -3.62425,1.27612 -4.97423,2.30333 -1.41007,1.28942 -1.84305,4.24785 -0.19026,4.24908 1.40031,10e-4 15.14203,-3.95118 15.61435,-4.5456 7.30175,-1.77081 13.56945,-4.02109 20.75512,-5.05313 5.01782,-1.30256 23.8517,-2.32193 34.92939,-1.08476 8.05842,1.045 17.30141,7.06888 20.32991,13.27486 2.7968,5.80148 3.82421,10.0653 5.02172,14.87175 0.43102,2.31369 0.92389,5.16107 1.41011,8.3416 0.86705,5.73973 1.01665,11.0212 -1.06316,12.12195 -2.28036,1.2069 -5.61492,0.11413 -11.3623,-3.7236 -2.29551,-1.98019 -5.39084,-3.46909 -8.9672,-4.28751 -3.2958,-0.77194 -20.96014,-3.17563 -33.41606,-3.11234 -1.58067,0.10332 -8.69338,0.15169 -15.80603,0.10746 -7.11263,-0.0442 -14.71025,-0.0654 -16.88359,-0.0469 -14.16462,0.11994 -28.40931,-1.67642 -35.02131,-4.41645 -2.39927,-0.81904 -3.91666,-1.57798 -5.88722,-2.51817 -4.40358,-2.42132 -8.80782,-5.09351 -12.49921,-7.69509 l -3.95892,-2.47384 -3.1901,2.18039 c -6.22564,4.01629 -11.71078,7.9086 -18.64931,10.46563 -5.85612,2.22748 -20.93885,4.55699 -35.027735,4.38189 -2.173298,-0.027 -9.770932,-0.0216 -16.883631,0.012 -7.112699,0.0336 -14.225331,-0.0254 -15.805848,-0.13107 -11.476897,0.35833 -29.264613,1.89893 -33.393854,3.13152 -3.194704,0.91297 -6.264394,2.55614 -9.000167,4.20499 -4.0129,2.54299 -8.2743456,5.74147 -11.5656519,3.79149 z M 119.22621,238.2322 c 6.41927,-1.03394 10.80868,-1.96707 16.37841,-2.32395 9.87409,-0.36825 26.77065,-0.45338 34.05663,0.64866 5.94387,0.74636 15.3603,3.71658 19.53328,4.1824 3.61143,0.40314 4.3171,0.25829 6.04087,-1.2399 3.39488,-2.95062 2.15859,-10.18937 -2.40757,-11.00852 -1.08148,-0.23904 -4.2417,-1.14016 -6.21704,-1.68024 -12.17491,-3.32871 -24.4321,-4.54731 -36.99672,-4.47647 -22.73058,0.12819 -34.22812,2.67133 -36.59481,3.64949 -3.63934,0.74232 -6.75956,1.6294 -8.73958,3.45745 -1.39022,1.56706 -1.92936,4.32392 -1.4181,6.03373 1.16542,3.70898 2.87637,4.66013 5.41177,4.99701 4.04321,0.0259 8.79757,-1.80692 10.95286,-2.23966 z m 77.99069,-22.52927 c 3.85024,-13.56637 -12.52403,-7.77918 -11.33733,-3.77753 1.3305,3.15699 10.08388,7.25185 11.33733,3.77753 z m -85.72935,-1.95944 c 4.59931,-2.91253 3.90057,-5.8058 -3.73817,-7.37234 -8.030176,-1.38034 -7.98154,4.76287 -6.07001,8.97213 0.89713,1.97554 7.33584,0.73386 9.80818,-1.59979 z m 45.32015,-3.4687 c 4.9727,-2.71912 6.10704,-4.9417 -1.83814,-9.02047 -3.86653,-1.98494 -8.01811,-1.64935 -12.43692,0.6903 -2.99682,1.58674 -4.88752,3.15914 -5.01047,4.81882 0.55621,1.8937 4.44998,3.89184 6.32096,4.58687 5.26607,1.87895 6.49489,2.06172 12.96457,-1.07552 z m 37.90365,-14.13003 c 2.05067,-1.83211 1.56756,-3.95959 1.55122,-6.71433 -0.58588,-3.92557 -4.05437,-6.2328 -11.80868,-8.8285 -4.31369,-1.27678 -18.55895,-3.48667 -30.93418,-3.75515 -10.77101,-0.22378 -20.05905,0.40262 -30.84019,1.7349 -7.21873,0.92574 -12.39939,2.19879 -17.65761,4.23113 -4.32272,1.40962 -5.496672,6.23652 -3.55631,10.42184 0.92806,4.66856 4.83573,3.75158 10.42475,1.58486 2.82764,-0.77416 7.89918,-1.3666 12.31313,-2.27352 3.95165,-0.2218 9.29292,-0.99046 12.25665,-1.15982 12.38782,-0.50826 21.2907,-0.18673 26.8656,0.25964 8.7352,0.9918 15.05587,1.50579 21.81168,4.06913 3.72709,1.27871 6.96265,2.04977 9.57394,0.42979 z m 12.2215,-27.73653 c 2.50441,-12.16715 1.86203,-19.38097 0.23065,-28.98926 -0.83446,-2.99963 -1.69906,-6.4355 -1.92132,-7.63527 -0.91589,-4.94367 -6.36127,-19.14617 -9.32907,-24.90392 -6.33387,-11.46359 -11.36592,-18.367618 -19.92709,-27.810495 -2.86955,-2.63848 -8.90495,-8.7239 -13.15768,-11.329398 -5.69872,-3.888033 -10.84494,-5.629322 -14.47317,1.569486 -1.96541,4.552677 0.14823,7.195252 2.7104,9.693733 1.40752,1.337869 3.87776,3.249866 5.13725,4.601066 1.25947,1.351201 3.77305,3.549121 5.32159,5.148398 5.26722,5.002467 12.27814,14.70242 15.39657,19.69247 2.25317,3.60508 6.36439,10.27922 8.83701,16.30134 2.00057,4.19695 5.31876,15.29007 6.25086,20.00727 0.81211,3.94296 2.04769,10.911 2.33626,19.73838 0.10811,3.30717 0.17704,5.69956 4.90211,7.42325 2.65984,0.7232 5.96251,1.41543 7.68563,-3.50705 z"
     id="path816"
     inkscape:connector-curvature="0"
     sodipodi:nodetypes="csccccsccsssccccccccsscccccsscccccccccccccscccccccccccccccccccccccscccccccscccsccccccccccsccssccccccccccccccccccccccccccccccscc" />
</svg>
