<?xml version="1.0" encoding="UTF-8" standalone="no"?>
<svg
   xmlns:dc="http://purl.org/dc/elements/1.1/"
   xmlns:cc="http://creativecommons.org/ns#"
   xmlns:rdf="http://www.w3.org/1999/02/22-rdf-syntax-ns#"
   xmlns:svg="http://www.w3.org/2000/svg"
   xmlns="http://www.w3.org/2000/svg"
   xmlns:xlink="http://www.w3.org/1999/xlink"
   xmlns:sodipodi="http://sodipodi.sourceforge.net/DTD/sodipodi-0.dtd"
   xmlns:inkscape="http://www.inkscape.org/namespaces/inkscape"
   version="1.0"
   width="300.000000pt"
   height="300.000000pt"
   viewBox="0 0 300.000000 300.000000"
   preserveAspectRatio="xMidYMid meet"
   id="svg2"
   inkscape:version="0.92.5 (2060ec1f9f, 2020-04-08)"
   sodipodi:docname="bk.svg">
  <defs
     id="defs12">
    <linearGradient
       inkscape:collect="always"
       id="linearGradient821">
      <stop
         style="stop-color:#fffdf4;stop-opacity:1"
         offset="0"
         id="stop817" />
      <stop
         style="stop-color:#d6d0c2;stop-opacity:1"
         offset="1"
         id="stop819" />
    </linearGradient>
    <linearGradient
       inkscape:collect="always"
       xlink:href="#linearGradient821"
       id="linearGradient823"
       x1="12.273949"
       y1="194.64412"
       x2="390.1493"
       y2="194.64412"
       gradientUnits="userSpaceOnUse" />
  </defs>
  <sodipodi:namedview
     pagecolor="#ffffff"
     bordercolor="#666666"
     borderopacity="1"
     objecttolerance="10"
     gridtolerance="10"
     guidetolerance="10"
     inkscape:pageopacity="0"
     inkscape:pageshadow="2"
     inkscape:window-width="1287"
     inkscape:window-height="946"
     id="namedview10"
     showgrid="false"
     inkscape:zoom="1.4871321"
     inkscape:cx="145.77602"
     inkscape:cy="198.83424"
     inkscape:window-x="9"
     inkscape:window-y="11"
     inkscape:window-maximized="0"
     inkscape:current-layer="svg2"
     inkscape:pagecheckerboard="true" />
  <metadata
     id="metadata4">
Created by potrace 1.12, written by Peter Selinger 2001-2015
<rdf:RDF>
  <cc:Work
     rdf:about="">
    <dc:format>image/svg+xml</dc:format>
    <dc:type
       rdf:resource="http://purl.org/dc/dcmitype/StillImage" />
    <dc:title />
  </cc:Work>
</rdf:RDF>
</metadata>
  <path
     style="display:inline;fill:url(#linearGradient823);fill-opacity:1;stroke-width:0.94834644"
     d="m 157.13281,15.457031 c -8.77394,-0.02285 -11.05784,1.515264 -11.12304,10.341797 0.2643,13.169964 0.10258,29.938276 0.17382,42.105469 -0.0604,8.477384 -0.0638,14.824311 -0.125,18.722656 0.15559,9.635327 -0.0448,19.566347 -1.23242,20.753907 -1.97374,1.97364 -4.53412,1.26168 -9.96875,-3.49219 -3.78477,-3.7759 -7.93093,-7.111068 -15.2168,-12.248045 -2.93457,-3.019307 -8.98749,-5.784166 -14.66406,-7.568359 C 99.947955,82.491727 87.570185,79.496627 83.132812,79.511719 65.454878,79.112469 57.268,82.635317 50.710938,85.855469 39.998839,91.165907 32.290692,97.458511 23.929688,108.43359 c -3.730447,6.38898 -6.592868,10.96883 -8.931641,21.41016 -2.591843,10.25487 -3.183615,23.47661 -2.40625,37.26367 1.962229,13.56008 4.523945,23.34409 10.199219,32.38672 2.970218,4.54704 7.881082,12.41056 12.714843,18.91406 5.155547,6.76696 13.708347,17.30084 22.373047,25.32618 15.796038,13.39235 16.993294,12.98725 18.023438,24.6582 0.168424,1.55645 1.144072,8.77504 2.134765,16.04492 2.451508,18.64563 4.787914,36.16672 6.621094,51.87891 0.452193,3.6645 1.219787,9.4923 2.324219,14.86523 0.861355,4.05159 11.238534,7.3835 22.417968,10.36524 16.58274,3.88718 29.22004,6.98485 40.4082,8.22265 6.56035,0.98312 15.48292,2.42205 23.94727,3.06445 8.89999,0.7021 24.33147,1.24736 34.59375,0.87891 6.84132,-0.1782 18.62389,-0.42749 30.32031,-1.85937 11.20678,-1.16691 24.26092,-4.05482 36.97461,-6.11719 10.15008,-2.2453 22.39596,-5.67942 31.23047,-8.69531 3.41757,-1.41688 7.90381,-3.25304 8.44922,-5.94922 l 1.91992,-10.6836 c 1.35011,-10.82397 2.62323,-21.0043 4.25977,-32.83008 0.75129,-8.90162 2.10513,-17.87738 3.19336,-26.91015 0.0133,0.007 0.0277,0.011 0.041,0.0176 -0.012,-0.0107 -0.0248,-0.0185 -0.0371,-0.0293 0.35435,-0.81892 1.31463,-9.94713 1.81055,-13.43164 0.54039,-3.34784 0.68565,-6.06578 1.93359,-8.64649 0.99943,-2.29317 13.8245,-13.71402 16.94141,-16.78124 4.75016,-4.74406 10.54973,-10.78368 16.23633,-16.91016 8.7343,-12.02692 16.43594,-22.14955 20.62695,-30.32813 3.62873,-6.11557 6.06965,-15.13459 6.89453,-23.66015 0.4718,-0.56844 0.92229,-7.20374 1.00195,-14.74219 0.0729,-11.90557 -1.24645,-24.72007 -6.49609,-38.35742 -4.21035,-9.35507 -14.61706,-20.79104 -21.40234,-24.76758 -5.18886,-4.011009 -20.79631,-13.186581 -37.25,-13.138672 -8.99632,0.09329 -20.50832,1.482962 -30.9668,5.205078 -9.3606,4.180463 -14.35885,7.892424 -19.56641,11.810547 -5.20756,3.918117 -5.95972,4.889427 -8.25,7.025387 -3.76758,3.1677 -5.44081,5.50034 -7.85351,4.33985 -1.21938,-1.46925 -2.23398,-4.39304 -2.10742,-12.17969 -0.13494,-18.449209 -0.13147,-41.010018 0.0723,-67.720703 -0.37778,-8.610215 0.51393,-12.736876 -10.59179,-12.751953 -12.31394,-0.359974 -28.15025,0.207692 -40.91602,0.375 -12.76581,0.167309 -27.04625,-0.381965 -36.88477,-0.208985 -4.31129,-0.142601 -7.87612,-0.322456 -10.80078,-0.330078 z"
     transform="scale(0.75)"
     id="path872"
     inkscape:connector-curvature="0"
     sodipodi:nodetypes="scccccccccccccccccccccccccccccccccccccccccccscccccsccs" />
  <path
     id="path815"
     transform="scale(0.75)"
     d="m 157.13281,15.457031 c -8.77394,-0.02285 -11.05784,1.515264 -11.12304,10.341797 0.2643,13.169964 0.10258,29.938276 0.17382,42.105469 -0.0604,8.477384 -0.0638,14.824311 -0.125,18.722656 0.15559,9.635327 -0.0448,19.566347 -1.23242,20.753907 -1.97374,1.97364 -4.53412,1.26168 -9.96875,-3.49219 -3.78477,-3.7759 -7.93093,-7.111068 -15.2168,-12.248045 -2.93457,-3.019307 -8.98749,-5.784166 -14.66406,-7.568359 C 99.947955,82.491727 87.570185,79.496627 83.132812,79.511719 65.454878,79.112469 57.268,82.635317 50.710938,85.855469 39.998839,91.165907 32.290692,97.458511 23.929688,108.43359 c -3.730447,6.38898 -6.592868,10.96883 -8.931641,21.41016 -2.591843,10.25487 -3.183615,23.47661 -2.40625,37.26367 1.962229,13.56008 4.523945,23.34409 10.199219,32.38672 2.970218,4.54704 7.881082,12.41056 12.714843,18.91406 5.155547,6.76696 13.708347,17.30084 22.373047,25.32618 15.796038,13.39235 16.993294,12.98725 18.023438,24.6582 0.168424,1.55645 1.144072,8.77504 2.134765,16.04492 2.451508,18.64563 4.787914,36.16672 6.621094,51.87891 0.452193,3.6645 1.219787,9.4923 2.324219,14.86523 0.861355,4.05159 11.238534,7.3835 22.417968,10.36524 16.58274,3.88718 29.22004,6.98485 40.4082,8.22265 6.56035,0.98312 15.48292,2.42205 23.94727,3.06445 8.89999,0.7021 24.33147,1.24736 34.59375,0.87891 6.84132,-0.1782 18.62389,-0.42749 30.32031,-1.85937 11.20678,-1.16691 24.26092,-4.05482 36.97461,-6.11719 10.15008,-2.2453 22.39596,-5.67942 31.23047,-8.69531 3.41757,-1.41688 7.90381,-3.25304 8.44922,-5.94922 l 1.91992,-10.6836 c 1.35011,-10.82397 2.62323,-21.0043 4.25977,-32.83008 0.75129,-8.90162 2.10513,-17.87738 3.19336,-26.91015 0.0133,0.007 0.0277,0.011 0.041,0.0176 -0.012,-0.0107 -0.0248,-0.0185 -0.0371,-0.0293 0.35435,-0.81892 1.31463,-9.94713 1.81055,-13.43164 0.54039,-3.34784 0.68565,-6.06578 1.93359,-8.64649 0.99943,-2.29317 13.8245,-13.71402 16.94141,-16.78124 4.75016,-4.74406 10.54973,-10.78368 16.23633,-16.91016 8.7343,-12.02692 16.43594,-22.14955 20.62695,-30.32813 3.62873,-6.11557 6.06965,-15.13459 6.89453,-23.66015 0.4718,-0.56844 0.92229,-7.20374 1.00195,-14.74219 0.0729,-11.90557 -1.24645,-24.72007 -6.49609,-38.35742 -4.21035,-9.35507 -14.61706,-20.79104 -21.40234,-24.76758 -5.18886,-4.011009 -20.79631,-13.186581 -37.25,-13.138672 -8.99632,0.09329 -20.50832,1.482962 -30.9668,5.205078 -9.3606,4.180463 -14.35885,7.892424 -19.56641,11.810547 -5.20756,3.918117 -5.95972,4.889427 -8.25,7.025387 -3.76758,3.1677 -5.44081,5.50034 -7.85351,4.33985 -1.21938,-1.46925 -2.23398,-4.39304 -2.10742,-12.17969 -0.13494,-18.449209 -0.13147,-41.010018 0.0723,-67.720703 -0.37778,-8.610215 0.51393,-12.736876 -10.59179,-12.751953 -12.31394,-0.359974 -28.15025,0.207692 -40.91602,0.375 -12.76581,0.167309 -27.04625,-0.381965 -36.88477,-0.208985 -4.31129,-0.142601 -7.87612,-0.322456 -10.80078,-0.330078 z m 69.57031,21.333985 c 2.11221,0.17904 4.00218,2.42789 6.75391,5.375 3.78456,4.065937 4.13161,4.820357 -1.2793,10.195312 -2.28384,2.195628 -7.7509,7.379926 -10.30859,10.06836 -5.80695,5.636138 -9.80201,7.911611 -2.93164,13.677734 4.42092,4.068791 10.00757,9.505897 14.88477,14.863281 3.74193,3.511312 3.37211,5.225153 -1.7793,10.119137 -4.25853,4.04571 -5.80943,4.04766 -11.5293,-1.99609 -3.51505,-3.384433 -7.20306,-7.202644 -11.64062,-11.095703 -2.29603,-2.488956 -5.57951,-4.748146 -7.43946,-4.648438 -2.87708,0.154248 -7.4831,4.585146 -12.50976,9.800782 -2.81539,2.946141 -5.7486,5.579564 -9.47461,8.716799 -3.73499,3.26584 -4.65174,1.97709 -8.98047,-1.45117 -2.476,-1.960952 -4.11133,-3.822107 -4.11133,-5.367192 0,-2.669971 2.4952,-4.576656 6.53125,-8.322266 5.89612,-6.295566 14.28627,-13.075664 14.01367,-15.949218 -0.54621,-3.38992 -8.51648,-11.015905 -15.86914,-17.783203 -1.7926,-1.83922 -5.14499,-4.718184 -5.17187,-5.6875 -0.48784,-1.969999 7.3898,-10.010697 10.10937,-10.023438 1.62042,-0.204313 3.86462,1.688924 5.71094,3.535156 2.14901,1.938639 3.5342,3.483609 5.79883,5.607422 1.71339,1.803795 5.78435,6.006762 8.18164,8.335938 4.49953,4.371681 6.23761,4.973637 7.79297,3.029297 2.78318,-2.21285 6.33009,-5.75083 10.72656,-10.09375 6.89564,-6.811658 10.5079,-11.076932 12.52148,-10.90625 z m -26.40429,82.480464 c 4.94097,-0.18203 9.43938,1.30318 12.01367,2.93946 5.14857,3.27255 8.95874,8.71319 8.91211,16.86523 -0.64244,8.35068 -4.22994,11.64846 -8.93359,14.9961 -5.23408,3.07202 -11.61884,3.09902 -15.95899,2.14062 -2.63175,-0.58116 -8.75274,-3.49943 -11.29687,-7.74414 -5.31771,-7.97551 -3.33005,-17.04935 0.59765,-22.13086 4.34286,-5.03479 9.72504,-6.88437 14.66602,-7.06641 z m 103.49414,20.40625 c 3.89582,-0.0238 7.89522,0.37767 12.03906,1.09375 6.87928,1.88691 13.06091,8.45895 15.82813,13.35352 3.75857,6.22889 4.25567,14.00188 3.5625,22.17773 -0.63799,12.9005 -12.85113,30.40465 -24.35547,43.81641 -4.41871,5.85961 -13.23217,15.74296 -13.26172,17.95508 0.0541,2.74417 2.1215,1.33348 4.87695,2.45898 5.00748,1.8868 5.22607,4.05377 5.5918,6.94141 0.24893,1.96528 -1.53557,5.41331 -2.2168,7.09766 -2.40269,5.20022 -7.9651,2.79875 -16.52148,0.14843 -12.50342,-4.39461 -30.61417,-8.43108 -39.08008,-9.89648 -12.86565,-2.90684 -32.79765,-4.6098 -47.16406,-4.68945 -15.7545,0.14584 -35.5673,1.18571 -53.04492,5.33593 -11.63282,2.30052 -26.65397,5.65279 -38.58204,10.09961 -5.78857,1.58187 -10.91405,3.50244 -13.876949,0.4375 -1.589382,-1.815 -3.374358,-5.42036 -2.810547,-11.38867 1.084986,-2.9914 5.322326,-4.06674 6.728516,-4.39062 3.9811,-0.91538 3.9095,-1.77674 1.92578,-4.83399 -1.61799,-2.80121 -3.15701,-4.08914 -7.044921,-9.23633 -5.358548,-6.58869 -14.18301,-17.44445 -17.972657,-23.27734 -4.122371,-6.45336 -8.490586,-14.01394 -10.634765,-21.60156 -0.902807,-3.19727 -1.514462,-19.19424 1.191406,-25.00782 3.022492,-6.25692 11.344495,-13.44743 17.734375,-15.14453 3.58002,-0.91481 8.325717,-1.33249 13.320312,-1.23242 2.99676,0.06 6.08208,0.30475 9.06055,0.74219 5.47539,1.43485 12.24602,5.16732 17.19922,8.7168 3.58128,2.38786 13.19302,14.3481 16.81445,19.90625 4.94268,8.504 10.88108,19.00946 15.33594,27.58398 2.77216,5.33345 4.79458,9.12557 7.69531,14.76172 4.06273,8.57468 6.26949,10.96527 7.52344,12.87891 1.08876,1.72941 11.14741,-0.11957 15.47851,-0.34766 6.04466,-0.46465 16.11105,-0.46948 23.90235,-0.0957 14.59353,0.70004 13.98767,3.20836 18.05468,-3.48633 5.3044,-8.82158 10.86577,-20.6996 16.66407,-30.95508 2.6404,-4.87592 6.67656,-12.40846 10.04882,-17.48828 5.29154,-9.28612 14.83094,-20.68836 21.35157,-24.91602 7.99885,-5.35336 16.06786,-7.46515 24.63867,-7.51758 z M 98.478516,157.74219 c -1.923202,0.0611 -3.721213,0.40863 -5.244141,1.04492 -4.972399,2.07749 -7.078451,4.39296 -7.359375,12.26172 -0.199387,5.58485 2.593898,12.8428 4.617188,15.87695 2.83057,5.60944 6.675305,11.85136 11.886722,19.17969 3.32314,4.70361 4.573,6.73152 8.29101,12.31836 3.53918,5.05569 4.76149,6.45464 11.53125,13.87109 3.43186,3.52382 14.48372,-1.09845 19.91602,-2.08789 4.16673,-0.93051 9.09232,-0.81432 10.83398,-3.15234 1.58464,-4.43443 -0.4553,-8.05169 -3.82422,-13.89258 -3.1033,-5.78549 -9.11087,-15.77207 -13.22656,-21.82031 -0.87403,-1.8361 -8.76575,-14.71514 -13.21289,-20.56836 -4.38982,-4.82772 -9.2311,-8.55416 -14.25977,-10.92774 -3.19166,-1.5065 -6.74389,-2.20539 -9.949214,-2.10351 z m 205.410154,0.0332 c -0.3197,-0.008 -0.64714,-0.006 -0.98047,0.006 -2.66662,0.0913 -4.68986,0.38315 -7.85351,1.67383 -6.09147,2.38845 -13.23905,8.24175 -18.03711,15.24609 -3.79918,6.08182 -13.82676,21.63432 -19.73633,31.41797 -2.29879,4.04068 -4.18599,7.60126 -6.86133,12.4082 -1.72914,4.50622 -3.52423,9.8327 4.08203,10.61719 5.50604,0.88391 11.18673,2.35907 16.1875,3.75977 2.41603,0.62364 5.97522,1.16517 8.22657,0.23242 2.22365,-1.2792 8.28508,-7.9102 10.74023,-12.0293 4.269,-5.61713 7.65619,-10.80659 11.71875,-16.80859 2.96771,-4.2746 5.47036,-8.29801 8.17383,-12.76563 3.38706,-5.59732 7.45917,-14.22585 7.22656,-20.84961 -0.36351,-6.52546 -2.20877,-10.08103 -7.44727,-11.9082 -1.3131,-0.45801 -3.20152,-0.94626 -5.43945,-1 z M 201.52344,259.66602 c 2.82736,-0.0236 5.94635,1.37865 7.72656,2.25 4.72067,1.70268 8.62989,3.63602 13.30078,5.51562 12.16225,4.37172 5.58439,6.42331 -0.5,9.41602 -6.42135,3.54297 -15.98827,7.63181 -16.84961,8.07617 -5.33628,1.60088 -9.84951,-1.55215 -15.36719,-3.75586 -3.31266,-2.27419 -15.54591,-6.962 -15.57226,-9.36914 -0.20127,-1.92091 5.97767,-3.84752 9.2793,-5.47266 6.19901,-2.63744 11.25959,-4.87937 16.09179,-6.39062 0.60142,-0.18116 1.23816,-0.26408 1.89063,-0.26953 z m 93.61523,15.6582 c 7.00967,0.0373 6.96592,1.75926 7.35938,3.83594 0.81636,4.30886 -1.44992,17.72507 -3.18164,19.77148 -1.8495,2.28267 -5.65031,0.48076 -17.82227,-9.22266 -10.66151,-8.75738 -13.32952,-11.94747 4.97461,-13.91406 1.51663,-0.0423 7.63488,-0.47267 8.66992,-0.4707 z m -189.05273,0.13086 c 2.09762,0.008 8.25426,0.207 12.0625,0.63281 15.23293,1.70335 14.65331,4.61117 -0.93164,16.60352 -6.44601,4.2783 -10.65947,9.02199 -14.11133,6.24023 -1.50734,-1.40019 -3.686329,-14.66143 -3.339845,-18.04687 0.283555,-2.77055 0.02745,-5.45644 6.320315,-5.42969 z m 95.86914,27.38867 c 10.1154,0.036 19.3178,0.37561 26.26367,0.92383 13.89168,1.0964 31.86848,3.78343 41.31836,6.38476 9.44991,2.60132 19.34329,5.63022 22.25195,6.69141 4.33619,1.58199 5.37509,3.62767 5.21289,11.01172 -0.1577,7.18036 -4.17326,6.54645 -7.43359,5.48047 -10.88083,-3.75606 -26.93634,-8.14977 -35.33203,-9.76367 -5.81344,-1.34944 -16.3827,-2.88503 -24.42774,-3.46875 -12.42501,-0.75911 -22.29539,-1.15944 -36.11523,-0.80079 -8.38259,0.0383 -23.05356,0.68222 -32.53516,2.00391 -12.97996,1.84365 -27.26098,5.213 -40.63476,9.49219 -13.30525,4.81226 -14.66429,4.43377 -14.83399,-3.85938 -0.16969,-8.29314 1.10275,-8.53859 6.62696,-10.78906 3.69121,-1.19616 12.13375,-3.6598 23.44336,-6.73828 11.8068,-2.58129 22.58565,-4.11347 36.81054,-5.48828 8.71054,-0.81164 19.26937,-1.11604 29.38477,-1.08008 z"
     style="display:inline;fill:#000000;fill-opacity:1;stroke-width:0.94834644"
     inkscape:connector-curvature="0" />
</svg>
