<?xml version="1.0" encoding="UTF-8" standalone="no"?>
<svg
   xmlns:dc="http://purl.org/dc/elements/1.1/"
   xmlns:cc="http://creativecommons.org/ns#"
   xmlns:rdf="http://www.w3.org/1999/02/22-rdf-syntax-ns#"
   xmlns:svg="http://www.w3.org/2000/svg"
   xmlns="http://www.w3.org/2000/svg"
   xmlns:xlink="http://www.w3.org/1999/xlink"
   xmlns:sodipodi="http://sodipodi.sourceforge.net/DTD/sodipodi-0.dtd"
   xmlns:inkscape="http://www.inkscape.org/namespaces/inkscape"
   version="1.0"
   width="300.000000pt"
   height="300.000000pt"
   viewBox="0 0 300.000000 300.000000"
   preserveAspectRatio="xMidYMid meet"
   id="svg2"
   inkscape:version="0.92.5 (2060ec1f9f, 2020-04-08)"
   sodipodi:docname="bn.svg">
  <defs
     id="defs12">
    <linearGradient
       inkscape:collect="always"
       id="linearGradient831">
      <stop
         style="stop-color:#fffdf4;stop-opacity:1"
         offset="0"
         id="stop827" />
      <stop
         style="stop-color:#d6d0c2;stop-opacity:1"
         offset="1"
         id="stop829" />
    </linearGradient>
    <linearGradient
       inkscape:collect="always"
       xlink:href="#linearGradient831"
       id="linearGradient833"
       x1="19.316114"
       y1="146.19414"
       x2="280.48575"
       y2="146.19414"
       gradientUnits="userSpaceOnUse"
       gradientTransform="scale(1.3333333)" />
  </defs>
  <sodipodi:namedview
     pagecolor="#ffffff"
     bordercolor="#666666"
     borderopacity="1"
     objecttolerance="10"
     gridtolerance="10"
     guidetolerance="10"
     inkscape:pageopacity="0"
     inkscape:pageshadow="2"
     inkscape:window-width="1274"
     inkscape:window-height="1008"
     id="namedview10"
     showgrid="false"
     inkscape:zoom="4.5566443"
     inkscape:cx="84.628028"
     inkscape:cy="128.02586"
     inkscape:window-x="12"
     inkscape:window-y="0"
     inkscape:window-maximized="0"
     inkscape:current-layer="svg2"
     inkscape:pagecheckerboard="true" />
  <metadata
     id="metadata4">
Created by potrace 1.12, written by Peter Selinger 2001-2015
<rdf:RDF>
  <cc:Work
     rdf:about="">
    <dc:format>image/svg+xml</dc:format>
    <dc:type
       rdf:resource="http://purl.org/dc/dcmitype/StillImage" />
    <dc:title />
  </cc:Work>
</rdf:RDF>
</metadata>
  <path
     style="display:inline;fill:url(#linearGradient833);fill-opacity:1;stroke-width:0.99931985"
     d="m 116.32227,15.882812 c -4.72575,0 -6.1314,1.542915 -4.34571,4.767579 3.58846,6.480197 5.69996,25.042558 3.78906,33.304687 l -0.65234,2.826172 -3.10351,-3.611328 C 105.19789,45.241678 93.612716,35.197266 91.279297,35.197266 c -0.965667,0 -2.253906,1.606938 -2.253906,3.390625 0,1.52662 -0.449155,4.109446 -1.226563,6.167968 -2.045508,5.416387 -2.271588,12.780009 -1.162109,16.392579 0.528836,1.721938 2.363438,4.621723 4.076172,6.443359 4.007385,4.262172 5.436688,9.374816 4.757812,17.015625 -0.391205,4.403127 -0.117759,6.793437 0.976563,8.53125 4.092124,6.498427 4.077984,6.401967 1.623046,11.294918 -1.280318,2.55179 -4.833877,8.04256 -7.896484,12.20118 -3.062604,4.15862 -5.568359,7.75255 -5.568359,7.98632 0,0.23378 -1.159229,2.14026 -2.576172,4.23633 -3.503352,5.18248 -6.467135,12.63743 -8.335938,20.96875 -0.857801,3.82414 -2.223849,8.44019 -3.037109,10.25781 -0.813263,1.81763 -2.164821,6.37183 -3.001953,10.1211 -1.574505,7.05174 -3.270653,10.23887 -8.044922,15.10547 -1.534611,1.56428 -3.220648,3.73675 -3.746094,4.82812 -4.337013,9.00816 -10.522101,19.60736 -12.621093,21.80274 -6.946,7.26494 -12.426301,16.35144 -15.554688,25.43945 -1.781857,5.17633 -2.178122,8.15592 -1.804688,13.58984 0.481591,7.00768 0.796911,8.34001 6.955079,18.9043 6.7311,11.54716 17.648281,19.11963 25.621093,18.44141 0.691114,-0.0588 4.988988,-3.66703 9.550782,-8.01953 3.129466,-5.13642 17.733311,-15.04082 10.730468,1.51953 0.09347,1.11093 -0.101405,2.49817 -0.693359,4.2207 0.05226,0.66393 0.153529,1.81581 0.224609,2.56055 0.0711,0.74473 1.595555,1.83097 3.386719,2.41406 13.681604,4.45388 30.669637,-5.93865 38.226567,-23.38477 2.66634,-6.1556 4.22508,-8.2895 8.46093,-11.58789 2.85568,-2.22368 6.27313,-4.99167 7.59375,-6.15234 3.65323,-3.21071 13.49974,-6.84886 21.57227,-7.9707 10.38776,-1.4436 13.58885,-2.50575 21.68555,-7.18555 5.95488,-3.44189 7.9828,-5.32453 11.6582,-10.83203 2.44699,-3.66676 4.72795,-8.28781 5.07031,-10.26953 0.87279,-5.05211 2.73711,-6.25435 5.58203,-3.59766 2.0803,1.94267 2.2165,2.81824 1.77539,11.41211 -0.40261,7.84508 -1.16468,11.07757 -4.84765,20.57617 -6.96123,17.95337 -13.28698,27.3135 -25.5586,37.82031 -16.14002,13.81891 -16.92083,14.42145 -26.23242,20.2168 -4.82995,3.00607 -10.18846,6.6764 -11.9082,8.15625 -6.77777,5.9746 -14.70841,13.6002 -17.75391,21.71484 -2.78376,10.38724 -4.08527,18.59572 -2.13476,29.89649 0.93586,5.89531 2.12767,11.10359 2.66015,11.64258 0.44345,0.41409 15.20413,1.00307 32.80274,1.30859 64.79329,1.15136 145.75593,1.9331 215.7539,0.0918 0.95138,-0.43563 2.78477,-2.16354 3.09961,-2.92969 1.11515,-2.71373 3.09422,-19.53251 3.41211,-25.88086 1.2772,-24.08419 2.30593,-48.83451 0.17969,-78.05859 -1.23925,-11.90703 -3.70973,-23.06807 -5.87891,-34.76367 -3.12266,-11.96193 -6.89027,-23.37222 -11.53711,-34.90235 C 347.63139,177.9445 339.68415,166.21908 328.55469,149.38281 317.33458,134.61677 310.11747,126.08226 295.25,111.41602 287.37296,104.30555 276.77872,96.330813 257.88672,85.892578 239.56247,75.768045 217.76096,69.171716 206.11719,66.128906 c -3.4319,-0.896844 -15.0002,-3.748237 -19.45899,-4.77539 -5.94332,-1.360219 -14.4445,-2.538418 -20.35742,-4.326172 -5.48711,-1.579523 -6.03394,-2.065367 -15.51172,-13.751953 C 135.8196,24.817223 124.57902,15.882812 116.32227,15.882812 Z"
     transform="scale(0.75)"
     id="path816"
     inkscape:connector-curvature="0"
     sodipodi:nodetypes="sccccsscsccccssscsscccssscccccscccccsccccsscccccccccccccsscccs" />
  <path
     sodipodi:nodetypes="cccccssccscscscssccscscscsscssssssscscssccccssssscccssccssccccccscccssscccccscccccccccssssccccsssssccccsssccccscsss"
     inkscape:connector-curvature="0"
     id="path818"
     d="m 112.7331,279.5821 c -13.198952,-0.22914 -24.27023,-0.67074 -24.602818,-0.98131 -0.399361,-0.40424 -1.292599,-4.3113 -1.994498,-8.73278 -1.462877,-8.47558 -0.486247,-14.63195 1.601575,-22.42238 2.284123,-6.08598 8.231415,-11.80504 13.314741,-16.28599 1.28981,-1.10989 5.30892,-3.86262 8.93138,-6.11717 6.98369,-4.34651 7.56955,-4.798 19.67457,-15.16218 9.20371,-7.88011 13.9477,-14.90014 19.16862,-28.36517 2.76223,-7.12395 3.33347,-9.54883 3.63543,-15.43264 0.33083,-6.4454 0.22873,-7.10165 -1.33149,-8.55865 -2.13369,-1.99252 -3.53145,-1.09191 -4.18604,2.69717 -0.25677,1.48629 -1.96841,4.95239 -3.80365,7.70246 -2.75655,4.13063 -4.2769,5.54348 -8.74306,8.1249 -6.07252,3.50985 -8.47371,4.3053 -16.26453,5.388 -6.0544,0.84138 -13.43918,3.56999 -16.1791,5.97802 -0.99047,0.8705 -3.553207,2.94725 -5.694968,4.61501 -3.176888,2.47379 -4.345582,4.07456 -6.34534,8.69126 -5.667692,13.08459 -18.409256,20.879 -28.670459,17.53859 -1.343373,-0.43732 -2.486122,-1.25213 -2.539444,-1.81068 -0.05331,-0.55855 -0.129015,-1.42295 -0.168212,-1.9209 -0.194226,-2.46747 1.980744,-7.65655 3.915759,-9.34229 1.191466,-1.03797 4.033447,-2.45309 6.31552,-3.14472 5.136431,-1.55668 7.928792,-4.2032 9.607689,-9.10587 1.16141,-3.39153 1.174734,-3.99474 0.129902,-5.88154 -2.603357,-4.70124 -8.843185,-4.52412 -13.898198,0.3945 -3.023092,2.94154 -3.701818,4.34567 -6.194714,12.81557 -1.004959,3.41447 -2.125809,4.9219 -7.404838,9.95873 -3.421345,3.26438 -6.644721,5.97131 -7.163056,6.0154 -5.979609,0.50867 -14.166654,-5.17021 -19.214979,-13.83058 -4.618626,-7.92322 -4.855392,-8.9227 -5.216585,-14.17846 -0.280076,-4.07544 0.0166,-6.31041 1.352993,-10.19266 2.34629,-6.81601 6.45622,-13.63072 11.66572,-19.07943 1.574244,-1.64653 6.21342,-9.59613 9.46618,-16.35225 0.394084,-0.81853 1.658211,-2.44814 2.809169,-3.62135 3.580702,-3.64995 4.853937,-6.04015 6.034816,-11.32896 0.627849,-2.81195 1.64059,-6.22801 2.250537,-7.59123 0.609945,-1.36322 1.635366,-4.82522 2.278717,-7.69332 1.401602,-6.24849 3.624338,-11.83984 6.251852,-15.726697 1.062707,-1.572052 1.932197,-3.001734 1.932197,-3.177065 0,-0.175333 1.879325,-2.870664 4.176278,-5.989629 2.296955,-3.118965 4.961924,-7.236723 5.922163,-9.150559 1.841204,-3.669716 1.851659,-3.596943 -1.217432,-8.470763 -0.820741,-1.30336 -1.025999,-3.096082 -0.732595,-6.398427 0.509157,-5.730607 -0.563424,-9.566251 -3.568963,-12.76288 -1.28455,-1.366227 -2.660061,-3.540693 -3.056688,-4.832147 -0.832109,-2.709427 -0.662015,-8.232196 0.872116,-12.294486 0.583056,-1.543892 0.919116,-3.480202 0.919116,-4.625167 0,-1.337765 0.966724,-2.543165 1.690974,-2.543165 1.750064,0 10.439171,7.532763 15.548078,13.478946 l 2.326759,2.708081 0.489932,-2.118276 c 1.433174,-6.196597 -0.151094,-20.119177 -2.84244,-24.979325 -1.339268,-2.418498 -0.284975,-3.57485 3.259333,-3.57485 6.192563,0 14.623811,6.700415 25.850911,20.544041 7.10833,8.76494 7.51847,9.128518 11.6338,10.31316 4.43469,1.340816 10.81004,2.225535 15.26753,3.245699 3.34409,0.770365 12.02032,2.907696 14.59424,3.580329 8.73283,2.282107 25.08371,7.229377 38.8269,14.822777 14.169,7.828676 22.11465,13.811068 28.02243,19.143915 11.1506,10.999686 16.5643,17.399788 24.97938,28.474318 8.3471,12.6272 14.30675,21.42179 20.08809,35.21244 3.48513,8.6476 6.31094,17.20437 8.65294,26.17581 1.62688,8.7717 3.48025,17.14349 4.40969,26.07376 1.59468,21.91806 0.82338,40.48012 -0.13452,58.54326 -0.23842,4.76126 -1.72339,17.3752 -2.55975,19.4105 -0.23613,0.57461 -1.61124,1.87137 -2.32477,2.19809 -52.49848,1.38098 -113.21992,0.79472 -161.81489,-0.0688 z m 145.98026,-17.11847 c 2.56858,-0.64335 3.33197,0.0368 4.80166,-6.89357 1.04513,-4.9283 1.21788,-10.935 1.30684,-29.52993 0.12059,-25.20612 -2.74423,-40.76078 -5.22477,-48.23472 -6.28041,-27.20935 -19.25357,-47.96332 -28.21947,-59.99522 -4.59228,-6.54636 -13.34442,-16.62135 -24.50233,-26.407694 -9.49527,-7.715192 -27.0198,-18.971659 -39.91549,-23.904302 -8.1873,-2.986829 -16.49341,-4.921298 -20.2349,-2.285812 -1.7973,1.266006 -1.96511,3.243336 -0.97133,4.428178 2.11469,2.521275 6.21801,4.853181 10.13671,6.749354 5.20034,3.058947 12.19829,6.854942 16.35286,9.90637 5.68142,3.384782 11.64241,7.180356 16.60686,11.122981 10.02351,8.677075 15.80534,14.328285 23.96402,23.791995 2.63473,2.924 12.7427,15.24722 16.65192,22.99252 5.22698,8.91751 9.01501,20.10133 11.82493,29.36616 2.38974,7.91222 3.79226,18.38061 5.57823,30.60189 0.76379,16.05435 0.99657,28.22381 0.22798,43.81993 -0.3267,6.75048 -1.70599,12.03617 1.17052,13.76406 1.43336,0.78523 6.24415,1.76016 10.44576,0.70781 z M 44.617019,193.16167 c 0.276932,-0.69712 1.109123,-1.75636 1.849312,-2.35388 7.841738,-6.33032 9.441306,-8.65745 8.214188,-11.95048 -0.818048,-2.19527 -5.532214,-4.70776 -8.83311,-4.70776 -2.405677,0 -3.517412,0.57462 -6.603365,3.41306 -2.812608,2.59718 -4.962939,6.27877 -5.640519,9.5734 -0.880929,4.86916 1.506029,7.15219 7.577187,7.24722 2.11416,0.0331 3.073337,-0.30789 3.436307,-1.22156 z m 45.101688,-59.93345 c 2.588948,-2.66961 4.223636,-2.22122 8.533345,-0.52268 4.487628,2.39735 6.883758,4.0937 8.138158,2.28362 1.28256,-1.85071 -0.93422,-8.49079 -6.800513,-13.56223 -5.714845,-4.94054 -10.315174,-6.48479 -15.502525,-6.5234 -4.637675,-0.0345 -6.642186,0.13076 -9.644499,2.06198 -6.08564,3.91454 -4.138558,4.96007 0.475195,7.97144 3.287452,1.17328 2.90641,1.97879 2.945716,5.45299 0.431153,4.96685 8.228495,6.53439 11.855121,2.83828 z m 28.501473,-42.060236 2.23109,-6.136395 -3.62459,-2.89321 c -4.96688,-3.964668 -6.62218,-6.753049 -7.97936,-13.4415 -0.79533,-3.919558 -1.23108,-6.629463 -2.30205,-7.453548 -2.6195,-2.015645 -4.59517,-0.687514 -5.68936,3.243448 -3.653445,11.393576 -3.307134,16.353603 -1.869335,22.651745 1.142045,5.001802 3.192955,6.785348 6.894935,10.013244 3.18794,2.779675 6.2047,3.307142 8.46516,1.480111 0.90335,-0.730139 2.64642,-4.088885 3.87351,-7.463895 z"
     style="display:inline;opacity:1;fill:#000000;fill-opacity:1;stroke-width:0.7494899" />
</svg>
