<?xml version="1.0" encoding="UTF-8" standalone="no"?>
<svg
   xmlns:dc="http://purl.org/dc/elements/1.1/"
   xmlns:cc="http://creativecommons.org/ns#"
   xmlns:rdf="http://www.w3.org/1999/02/22-rdf-syntax-ns#"
   xmlns:svg="http://www.w3.org/2000/svg"
   xmlns="http://www.w3.org/2000/svg"
   xmlns:xlink="http://www.w3.org/1999/xlink"
   xmlns:sodipodi="http://sodipodi.sourceforge.net/DTD/sodipodi-0.dtd"
   xmlns:inkscape="http://www.inkscape.org/namespaces/inkscape"
   version="1.0"
   width="300.000000pt"
   height="300.000000pt"
   viewBox="0 0 300.000000 300.000000"
   preserveAspectRatio="xMidYMid meet"
   id="svg2"
   inkscape:version="0.92.5 (2060ec1f9f, 2020-04-08)"
   sodipodi:docname="bq.svg">
  <defs
     id="defs12">
    <linearGradient
       inkscape:collect="always"
       id="linearGradient821">
      <stop
         style="stop-color:#fffdf4;stop-opacity:1"
         offset="0"
         id="stop817" />
      <stop
         style="stop-color:#d6d0c2;stop-opacity:1"
         offset="1"
         id="stop819" />
    </linearGradient>
    <linearGradient
       inkscape:collect="always"
       xlink:href="#linearGradient821"
       id="linearGradient823"
       x1="15.251899"
       y1="198.65662"
       x2="383.58525"
       y2="198.65662"
       gradientUnits="userSpaceOnUse" />
  </defs>
  <sodipodi:namedview
     pagecolor="#ffffff"
     bordercolor="#666666"
     borderopacity="1"
     objecttolerance="10"
     gridtolerance="10"
     guidetolerance="10"
     inkscape:pageopacity="0"
     inkscape:pageshadow="2"
     inkscape:window-width="1555"
     inkscape:window-height="966"
     id="namedview10"
     showgrid="false"
     inkscape:zoom="1.6278206"
     inkscape:cx="145.52478"
     inkscape:cy="186.80344"
     inkscape:window-x="73"
     inkscape:window-y="23"
     inkscape:window-maximized="0"
     inkscape:current-layer="svg2"
     inkscape:pagecheckerboard="true" />
  <metadata
     id="metadata4">
Created by potrace 1.12, written by Peter Selinger 2001-2015
<rdf:RDF>
  <cc:Work
     rdf:about="">
    <dc:format>image/svg+xml</dc:format>
    <dc:type
       rdf:resource="http://purl.org/dc/dcmitype/StillImage" />
    <dc:title />
  </cc:Work>
</rdf:RDF>
</metadata>
  <path
     style="display:inline;fill:url(#linearGradient823);fill-opacity:1;stroke-width:0.88713652"
     d="m 139.98828,23.390625 c -3.78819,0.08057 -8.56685,1.32512 -11.71289,2.746094 -6.2279,2.812996 -12.1802,10.222091 -14.125,15.066406 -1.74092,4.336465 -3.17997,11.734723 -1.70508,17.708984 1.50923,5.802798 4.16535,11.210817 10.26172,16.804688 2.53018,2.330968 5.45407,3.49776 6.27149,4.449219 0.93989,1.49946 -0.80994,9.475106 -3.05274,18.839843 -1.64892,6.884931 -3.40089,16.136571 -7.92578,39.082031 -2.73143,13.32988 -5.38328,26.66689 -7.79492,37.63281 -0.88053,5.35463 -2.09152,12.37961 -2.91406,12.76563 -0.99218,0.46561 -7.795565,-4.47997 -17.003911,-11.39453 -3.15336,-2.1125 -10.111523,-7.02245 -12.541015,-8.87696 -4.94516,-3.81653 -12.656789,-7.85365 -16.541016,-11.47656 -2.675947,-2.08656 -3.374809,-2.76956 -1.11914,-8.9668 1.114131,-2.82278 1.010327,-7.41298 0.679687,-9.66796 -0.706013,-4.81498 -3.959749,-10.1631 -7.037109,-13.75977 -6.008067,-5.38692 -10.861446,-5.92601 -15.949219,-5.89258 -6.980173,0 -10.821581,1.61468 -15.050781,5.71289 -4.306,4.24631 -7.491803,11.17876 -7.476563,17.15235 0.0512,5.92494 1.6808,9.49184 3.818359,13.4414 2.524841,4.66511 10.480211,9.09519 13.462891,9.56055 6.205588,0.98327 8.233343,1.41265 10.337891,8.25781 1.673092,4.76114 4.621046,13.60411 5.945312,17.35547 1.324254,3.75136 3.270509,9.48834 5.556641,15.16211 5.399573,15.66704 11.190629,28.67354 15.916015,42.15234 1.655094,6.69486 3.39211,14.25929 4.476563,22.80469 0.7724,7.67392 1.931217,14.54033 3.279297,26.20313 0.973387,9.06832 3.012974,23.39191 4.496094,35.18359 1.177866,7.50065 2.04165,17.05116 3.898437,20.76758 2.604827,4.25668 8.779654,5.26708 14.855467,7.01562 12.117,3.78786 23.95944,6.81894 37.83008,9.17969 18.18731,3.92437 37.55166,5.32151 54.83398,5.51563 4.52158,-0.0137 18.41023,0.186 25.93555,-0.58008 12.88029,-0.61972 24.83547,-2.00794 36.88086,-4.36719 9.14391,-1.50639 17.95903,-3.31804 26.44727,-5.28516 9.57981,-2.47344 26.51706,-7.45777 28.0039,-9.57226 2.5707,-3.1958 3.25218,-8.86375 3.78321,-13.62891 2.45252,-16.52362 2.84345,-22.18809 4.46679,-36.62109 1.61828,-14.04134 3.81818,-39.10908 7.98438,-52.54688 2.31576,-8.3957 11.70708,-29.23947 14.36718,-37.66406 3.60852,-10.19983 5.78709,-15.69787 9.46485,-26.33203 1.01256,-3.75104 3.02689,-8.38589 4.41601,-12.90625 1.56996,-3.04676 0.73536,-8.19424 9.52344,-8.8457 5.54356,-1.23811 12.19698,-5.5884 15.33594,-11.39453 1.23248,-2.15151 4.1108,-9.35525 2.57812,-17.13868 -2.32464,-7.53289 -7.34048,-15.70945 -16.48437,-17.7539 -11.15347,-2.49375 -20.65964,1.27116 -26.52344,11.88476 -1.77652,3.573 -3.23678,7.50071 -2.45898,14.58594 1.98484,7.16003 2.84829,7.16219 1.26562,9.19336 -0.52001,0.98195 -2.57508,2.11033 -6.63281,4.84961 -3.59907,2.42964 -8.50968,6.04018 -12.50391,9.02734 -5.10777,3.84136 -18.61166,13.4508 -22.63476,16.1211 -4.13494,2.89745 -6.00286,4.1976 -6.37695,3.91797 -0.53236,-0.16015 -2.15074,-9.41136 -3.6543,-16.22852 -3.09216,-15.32432 -6.01912,-27.79784 -9.26953,-43.51758 -2.63584,-13.18627 -5.62632,-28.20955 -7.83789,-40.064452 -0.91972,-6.508312 -2.12773,-7.824892 1.68359,-9.484375 3.10705,-1.352819 7.89506,-5.949667 10.97266,-11.119141 2.02464,-3.926338 3.85117,-7.224485 4.15234,-15.582031 -0.0504,-14.17822 -9.89025,-22.974155 -14.53125,-25.394531 -5.24672,-2.551189 -6.71647,-4.02295 -14.38477,-4.009766 -7.77213,0.01365 -11.58364,1.657661 -16.28711,4.646485 -7.31618,4.649057 -12.84418,14.749201 -13.18554,21.964843 -0.35071,7.413018 0.7076,16.157429 7.51953,23.367188 1.74264,2.452863 0.6685,6.99929 0.11914,8.455078 -6.03831,12.711795 -8.91275,20.826632 -15.01758,34.648442 -5.14302,13.06683 -9.16117,23.72275 -13.85156,34.92578 -2.53392,6.24345 -6.71371,17.23731 -7.67383,17.19531 -1.00264,0.15253 -5.7152,-11.53444 -7.26172,-15.875 -5.20072,-13.56588 -10.54197,-27.56678 -14.92187,-37.97852 -4.60006,-10.65191 -7.68519,-18.291893 -11.97071,-29.619137 -1.6161,-3.779847 -2.59629,-5.883974 -3.21484,-7.751953 -0.95128,-2.289933 -0.69733,-3.860654 1.14063,-5.810547 3.97744,-4.219653 6.68945,-11.909383 6.68945,-16.417969 0,-5.331042 0.0287,-10.491433 -3.00195,-16.171875 -2.33392,-4.374506 -7.52494,-10.134668 -13.04102,-12.945312 -3.49809,-1.782404 -9.10996,-2.804703 -13.98047,-2.701172 z"
     transform="scale(0.75)"
     id="path827"
     inkscape:connector-curvature="0"
     sodipodi:nodetypes="ccsccccccccccccccccccccccccccccccccccccccccccccccccccccccccccccccccccccccscsc" />
  <path
     id="path815"
     transform="scale(0.75)"
     d="m 139.98828,23.390625 c -3.78819,0.08057 -8.56685,1.32512 -11.71289,2.746094 -6.2279,2.812996 -12.1802,10.222091 -14.125,15.066406 -1.74092,4.336465 -3.17997,11.734723 -1.70508,17.708984 1.50923,5.802798 4.16535,11.210817 10.26172,16.804688 2.53018,2.330968 5.45407,3.49776 6.27149,4.449219 0.93989,1.49946 -0.80994,9.475106 -3.05274,18.839843 -1.64892,6.884931 -3.40089,16.136571 -7.92578,39.082031 -2.73143,13.32988 -5.38328,26.66689 -7.79492,37.63281 -0.88053,5.35463 -2.09152,12.37961 -2.91406,12.76563 -0.99218,0.46561 -7.795565,-4.47997 -17.003911,-11.39453 -3.15336,-2.1125 -10.111523,-7.02245 -12.541015,-8.87696 -4.94516,-3.81653 -12.656789,-7.85365 -16.541016,-11.47656 -2.675947,-2.08656 -3.374809,-2.76956 -1.11914,-8.9668 1.114131,-2.82278 1.010327,-7.41298 0.679687,-9.66796 -0.706013,-4.81498 -3.959749,-10.1631 -7.037109,-13.75977 -6.008067,-5.38692 -10.861446,-5.92601 -15.949219,-5.89258 -6.980173,0 -10.821581,1.61468 -15.050781,5.71289 -4.306,4.24631 -7.491803,11.17876 -7.476563,17.15235 0.0512,5.92494 1.6808,9.49184 3.818359,13.4414 2.524841,4.66511 10.480211,9.09519 13.462891,9.56055 6.205588,0.98327 8.233343,1.41265 10.337891,8.25781 1.673092,4.76114 4.621046,13.60411 5.945312,17.35547 1.324254,3.75136 3.270509,9.48834 5.556641,15.16211 5.399573,15.66704 11.190629,28.67354 15.916015,42.15234 1.655094,6.69486 3.39211,14.25929 4.476563,22.80469 0.7724,7.67392 1.931217,14.54033 3.279297,26.20313 0.973387,9.06832 3.012974,23.39191 4.496094,35.18359 1.177866,7.50065 2.04165,17.05116 3.898437,20.76758 2.604827,4.25668 8.779654,5.26708 14.855467,7.01562 12.117,3.78786 23.95944,6.81894 37.83008,9.17969 18.18731,3.92437 37.55166,5.32151 54.83398,5.51563 4.52158,-0.0137 18.41023,0.186 25.93555,-0.58008 12.88029,-0.61972 24.83547,-2.00794 36.88086,-4.36719 9.14391,-1.50639 17.95903,-3.31804 26.44727,-5.28516 9.57981,-2.47344 26.51706,-7.45777 28.0039,-9.57226 2.5707,-3.1958 3.25218,-8.86375 3.78321,-13.62891 2.45252,-16.52362 2.84345,-22.18809 4.46679,-36.62109 1.61828,-14.04134 3.81818,-39.10908 7.98438,-52.54688 2.31576,-8.3957 11.70708,-29.23947 14.36718,-37.66406 3.60852,-10.19983 5.78709,-15.69787 9.46485,-26.33203 1.01256,-3.75104 3.02689,-8.38589 4.41601,-12.90625 1.56996,-3.04676 0.73536,-8.19424 9.52344,-8.8457 5.54356,-1.23811 12.19698,-5.5884 15.33594,-11.39453 1.23248,-2.15151 4.1108,-9.35525 2.57812,-17.13868 -2.32464,-7.53289 -7.34048,-15.70945 -16.48437,-17.7539 -11.15347,-2.49375 -20.65964,1.27116 -26.52344,11.88476 -1.77652,3.573 -3.23678,7.50071 -2.45898,14.58594 1.98484,7.16003 2.84829,7.16219 1.26562,9.19336 -0.52001,0.98195 -2.57508,2.11033 -6.63281,4.84961 -3.59907,2.42964 -8.50968,6.04018 -12.50391,9.02734 -5.10777,3.84136 -18.61166,13.4508 -22.63476,16.1211 -4.13494,2.89745 -6.00286,4.1976 -6.37695,3.91797 -0.53236,-0.16015 -2.15074,-9.41136 -3.6543,-16.22852 -3.09216,-15.32432 -6.01912,-27.79784 -9.26953,-43.51758 -2.63584,-13.18627 -5.62632,-28.20955 -7.83789,-40.064452 -0.91972,-6.508312 -2.12773,-7.824892 1.68359,-9.484375 3.10705,-1.352819 7.89506,-5.949667 10.97266,-11.119141 2.02464,-3.926338 3.85117,-7.224485 4.15234,-15.582031 -0.0504,-14.17822 -9.89025,-22.974155 -14.53125,-25.394531 -5.24672,-2.551189 -6.71647,-4.02295 -14.38477,-4.009766 -7.77213,0.01365 -11.58364,1.657661 -16.28711,4.646485 -7.31618,4.649057 -12.84418,14.749201 -13.18554,21.964843 -0.35071,7.413018 0.7076,16.157429 7.51953,23.367188 1.74264,2.452863 0.6685,6.99929 0.11914,8.455078 -6.03831,12.711795 -8.91275,20.826632 -15.01758,34.648442 -5.14302,13.06683 -9.16117,23.72275 -13.85156,34.92578 -2.53392,6.24345 -6.71371,17.23731 -7.67383,17.19531 -1.00264,0.15253 -5.7152,-11.53444 -7.26172,-15.875 -5.20072,-13.56588 -10.54197,-27.56678 -14.92187,-37.97852 -4.60006,-10.65191 -7.68519,-18.291893 -11.97071,-29.619137 -1.6161,-3.779847 -2.59629,-5.883974 -3.21484,-7.751953 -0.95128,-2.289933 -0.69733,-3.860654 1.14063,-5.810547 3.97744,-4.219653 6.68945,-11.909383 6.68945,-16.417969 0,-5.331042 0.0287,-10.491433 -3.00195,-16.171875 -2.33392,-4.374506 -7.52494,-10.134668 -13.04102,-12.945312 -3.49809,-1.782404 -9.10996,-2.804703 -13.98047,-2.701172 z m 65.76758,200.187495 c 10.51987,-0.0919 20.4365,0.91083 30.33398,1.95899 10.74074,1.57889 16.61376,2.25795 27.17969,4.46875 8.06879,1.86991 15.15218,3.94287 25.8125,6.60742 5.33128,1.92643 11.91869,3.67085 15.01953,5.45313 3.39995,3.05748 1.12101,9.46464 0.19922,11.77148 -2.62753,5.9016 -6.47339,3.80919 -17.86523,0.40039 -10.23856,-3.68672 -24.36303,-6.70501 -39.12891,-9.61328 -15.94568,-3.87551 -59.98133,-5.31957 -80.25195,-2.56055 -11.71235,1.71182 -21.55464,3.63444 -32.35547,6.07422 -12.4388,2.73516 -16.71281,4.15786 -25.1836,6.98633 -4.84491,1.11185 -11.899055,5.0181 -14.388667,-0.30859 -1.333491,-3.18588 -3.276727,-6.27342 -1.673828,-10.83008 1.303881,-3.22487 7.691855,-4.38686 15.462895,-6.9961 3.26599,-0.80144 15.08094,-4.33351 18.0957,-4.8457 15.61958,-3.90331 25.07773,-6.04607 48.53125,-8.0332 9.61243,-0.37439 20.1611,-0.55677 30.21289,-0.53321 z m -7.05274,36.09766 c 2.82736,-0.0236 5.94636,1.3767 7.72657,2.24805 4.72066,1.70268 8.62989,3.63602 13.30078,5.51562 12.16225,4.37172 5.58243,6.42527 -0.50195,9.41797 -6.42135,3.54298 -15.98633,7.62986 -16.84766,8.07422 -5.33628,1.60088 -9.84951,-1.5502 -15.36719,-3.75391 -3.31266,-2.27418 -15.54592,-6.96394 -15.57226,-9.37109 -0.20127,-1.92091 5.97767,-3.84557 9.27929,-5.4707 6.19902,-2.63744 11.2596,-4.88133 16.0918,-6.39258 0.60142,-0.18116 1.23816,-0.26212 1.89062,-0.26758 z m -94.15234,15.27539 c 2.56695,0.008 6.1972,0.20925 10.35742,0.40039 19.33956,1.93802 15.02548,5.67656 1.06836,16.51172 -8.58957,5.79909 -10.85374,8.27604 -13.93554,5.60938 -0.60463,-0.44888 -2.198578,-9.39424 -2.894536,-14.30274 -0.08263,-4.32676 0.05009,-7.65883 5.404296,-8.21875 z m 186.66797,0.004 c 5.5851,-0.0471 7.80331,0.72662 8.21484,4.10351 0.75018,4.08439 -1.43387,14.8855 -2.33593,17.42969 -2.44904,3.77256 -2.96642,3.00928 -17.00977,-6.62109 -13.83659,-10.5737 -11.5965,-12.9335 4.36523,-14.65821 2.66764,-0.13235 4.90393,-0.23822 6.76563,-0.2539 z m -91.04492,27.67187 c 10.1154,0.036 19.79047,0.1764 26.73633,0.72461 13.89169,1.0964 31.62629,4.02173 41.07617,6.62305 9.4499,2.60133 16.94483,4.25131 19.85351,5.3125 4.33618,1.58199 7.09384,4.50658 6.93164,11.89062 -0.15772,7.18036 -4.36523,7.89792 -7.96484,6.28907 -10.88083,-3.75606 -25.20842,-8.20829 -33.74805,-9.48633 -5.81345,-1.34944 -20.27573,-3.42295 -26.01757,-3.71875 -12.425,-0.75912 -21.30907,-1.29811 -35.12891,-0.93945 -8.38256,0.0383 -23.05357,1.00838 -32.53516,2.33007 -12.97997,1.84364 -26.33712,4.76237 -39.73437,9.22071 -4.42874,1.47378 -9.00537,3.31971 -10.33789,3.40625 -3.37541,0.21918 -4.97963,-2.07869 -5.14063,-7.60742 -0.16969,-8.29315 2.71212,-9.67141 8.23633,-11.92188 3.69121,-1.19617 10.32905,-2.48208 21.63867,-5.56055 11.8068,-2.58129 22.40597,-4.28922 36.63086,-5.66406 8.71055,-0.81164 19.38851,-0.9344 29.50391,-0.89844 z"
     style="display:inline;fill:#000000;fill-opacity:1;stroke-width:0.88713652"
     inkscape:connector-curvature="0" />
</svg>
