<?xml version="1.0" encoding="UTF-8" standalone="no"?>
<svg
   xmlns:dc="http://purl.org/dc/elements/1.1/"
   xmlns:cc="http://creativecommons.org/ns#"
   xmlns:rdf="http://www.w3.org/1999/02/22-rdf-syntax-ns#"
   xmlns:svg="http://www.w3.org/2000/svg"
   xmlns="http://www.w3.org/2000/svg"
   xmlns:xlink="http://www.w3.org/1999/xlink"
   xmlns:sodipodi="http://sodipodi.sourceforge.net/DTD/sodipodi-0.dtd"
   xmlns:inkscape="http://www.inkscape.org/namespaces/inkscape"
   version="1.0"
   width="300.000000pt"
   height="300.000000pt"
   viewBox="0 0 300.000000 300.000000"
   preserveAspectRatio="xMidYMid meet"
   id="svg2"
   inkscape:version="0.92.5 (2060ec1f9f, 2020-04-08)"
   sodipodi:docname="br.svg">
  <defs
     id="defs12">
    <linearGradient
       inkscape:collect="always"
       id="linearGradient830">
      <stop
         style="stop-color:#fffdf4;stop-opacity:1"
         offset="0"
         id="stop826" />
      <stop
         style="stop-color:#d6d0c2;stop-opacity:1"
         offset="1"
         id="stop828" />
    </linearGradient>
    <linearGradient
       inkscape:collect="always"
       xlink:href="#linearGradient830"
       id="linearGradient832"
       x1="43.67028"
       y1="147.39626"
       x2="259.17848"
       y2="147.39626"
       gradientUnits="userSpaceOnUse" />
  </defs>
  <sodipodi:namedview
     pagecolor="#ffffff"
     bordercolor="#666666"
     borderopacity="1"
     objecttolerance="10"
     gridtolerance="10"
     guidetolerance="10"
     inkscape:pageopacity="0"
     inkscape:pageshadow="2"
     inkscape:window-width="1186"
     inkscape:window-height="921"
     id="namedview10"
     showgrid="false"
     inkscape:zoom="1.549865"
     inkscape:cx="216.96082"
     inkscape:cy="222.04376"
     inkscape:window-x="56"
     inkscape:window-y="62"
     inkscape:window-maximized="0"
     inkscape:current-layer="svg2"
     inkscape:pagecheckerboard="true" />
  <metadata
     id="metadata4">
Created by potrace 1.12, written by Peter Selinger 2001-2015
<rdf:RDF>
  <cc:Work
     rdf:about="">
    <dc:format>image/svg+xml</dc:format>
    <dc:type
       rdf:resource="http://purl.org/dc/dcmitype/StillImage" />
    <dc:title />
  </cc:Work>
</rdf:RDF>
</metadata>
  <path
     sodipodi:nodetypes="scccscccccscscssssscscssccccccscccccccscssscss"
     inkscape:connector-curvature="0"
     id="path849"
     d="m 44.814818,278.90705 c -1.354848,-1.71477 -0.880263,-1.26443 -1.144538,-24.78103 0.242957,-13.98189 -0.391268,-11.3992 3.77883,-14.72453 3.139641,-2.12174 5.005957,-3.62273 8.176561,-5.42316 2.241147,-1.45865 1.811041,-1.12872 1.723654,-10.16599 -0.106281,-10.99126 -1.269212,-8.65626 6.102989,-13.92585 4.351689,-3.06826 11.453051,-8.39348 15.429852,-11.41107 2.041623,-1.23738 1.742339,-2.89839 1.861417,-5.78118 C 80.577557,171.81042 80.588649,111.63011 80.520374,104.25018 79.981962,90.44335 82.394172,95.775964 75.327661,87.003622 72.876159,84.349199 67.492759,79.199429 64.29063,75.640133 L 58.326392,69.010642 58.283112,44.762 C 58.259307,31.424519 57.54815,22.682252 59.0325,20.76156 c 1.786422,-1.859158 33.63,-3.536415 34.451038,-3.144797 2.026891,0.966786 2.103303,3.537308 2.103303,13.393308 0,8.877723 -0.363574,11.49758 1.158185,13.451351 0.708943,0.910205 9.980264,-0.361207 22.393554,-1.00458 7.51517,-0.389506 6.9599,1.109295 6.9781,-14.435569 0.0136,-11.634503 0.3629,-12.683644 2.30867,-13.546431 4.73947,-2.147092 43.33163,-1.639514 46.23899,0.116766 1.48699,0.898263 1.94083,2.234483 2.03677,7.420937 0.0598,3.226343 -0.0255,9.143926 0.0222,12.718802 0.0992,7.425565 0.68545,7.107597 2.73923,7.477451 2.08152,0.374847 13.2655,0.787117 21.32098,1.447091 6.62408,0.33773 6.70834,1.906806 6.56483,-13.576708 -0.0863,-16.72936 -0.18082,-13.366198 9.99321,-13.185377 7.10257,0.3209 18.08008,1.064116 24.07541,2.015165 3.59889,0.71424 3.44453,-0.0869 3.08937,23.23472 0.10678,12.425202 0.12999,24.996809 -0.19422,25.882447 -0.66599,1.819133 -8.01785,8.883393 -16.23456,17.411794 -3.03091,3.145879 -5.02373,5.993359 -5.44697,6.836972 -0.50466,1.005877 -0.36788,12.186568 -0.39641,32.323228 -0.0318,21.21359 0.1342,44.37601 0.0818,64.59239 -0.11354,7.28418 0.24874,7.45373 1.80787,8.50663 4.2068,3.35939 8.0607,5.87306 12.27409,9.15553 0.99532,0.52296 5.08251,3.38391 6.80998,4.94199 3.0628,2.42236 2.1615,2.48492 2.08801,9.61422 0.33469,12.51792 -1.8728,9.31984 6.55437,14.71602 4.02359,2.57643 6.25648,4.16257 6.83334,5.60505 0.5393,1.34853 0.38411,8.47562 0.41317,18.80999 0.0361,12.86183 0.38648,16.33563 -0.70779,17.67343 -2.00786,2.45467 -13.28245,1.17328 -98.42535,1.26767 -54.66471,0.0606 -100.72389,-0.26508 -105.498592,-0.2875 -7.281311,-0.0574 -8.468793,0.2089 -9.650314,-1.2865 z"
     style="display:inline;fill:url(#linearGradient832);fill-opacity:1;stroke-width:0.73670816" />
  <path
     style="display:inline;fill:#000000;fill-opacity:1;stroke-width:0.73670816"
     d="m 44.814818,278.90705 c -1.354848,-1.71477 -0.880263,-1.26443 -1.144538,-24.78103 0.242957,-13.98189 -0.391268,-11.3992 3.77883,-14.72453 3.139641,-2.12174 5.005957,-3.62273 8.176561,-5.42316 2.241147,-1.45865 1.811041,-1.12872 1.723654,-10.16599 -0.106281,-10.99126 -1.269212,-8.65626 6.102989,-13.92585 4.351689,-3.06826 11.453051,-8.39348 15.429852,-11.41107 2.041623,-1.23738 1.742339,-2.89839 1.861417,-5.78118 C 80.577557,171.81042 80.588649,111.63011 80.520374,104.25018 79.981962,90.44335 82.394172,95.775964 75.327661,87.003622 72.876159,84.349199 67.492759,79.199429 64.29063,75.640133 L 58.326392,69.010642 58.283112,44.762 C 58.259307,31.424519 57.54815,22.682252 59.0325,20.76156 c 1.786422,-1.859158 33.63,-3.536415 34.451038,-3.144797 2.026891,0.966786 2.103303,3.537308 2.103303,13.393308 0,8.877723 -0.363574,11.49758 1.158185,13.451351 0.708943,0.910205 9.980264,-0.361207 22.393554,-1.00458 7.51517,-0.389506 6.9599,1.109295 6.9781,-14.435569 0.0136,-11.634503 0.3629,-12.683644 2.30867,-13.546431 4.73947,-2.147092 43.33163,-1.639514 46.23899,0.116766 1.48699,0.898263 1.94083,2.234483 2.03677,7.420937 0.0598,3.226343 -0.0255,9.143926 0.0222,12.718802 0.0992,7.425565 0.68545,7.107597 2.73923,7.477451 2.08152,0.374847 13.2655,0.787117 21.32098,1.447091 6.62408,0.33773 6.70834,1.906806 6.56483,-13.576708 -0.0863,-16.72936 -0.18082,-13.366198 9.99321,-13.185377 7.10257,0.3209 18.08008,1.064116 24.07541,2.015165 3.59889,0.71424 3.44453,-0.0869 3.08937,23.23472 0.10678,12.425202 0.12999,24.996809 -0.19422,25.882447 -0.66599,1.819133 -8.01785,8.883393 -16.23456,17.411794 -3.03091,3.145879 -5.02373,5.993359 -5.44697,6.836972 -0.50466,1.005877 -0.36788,12.186568 -0.39641,32.323228 -0.0318,21.21359 0.1342,44.37601 0.0818,64.59239 -0.11354,7.28418 0.24874,7.45373 1.80787,8.50663 4.2068,3.35939 8.0607,5.87306 12.27409,9.15553 0.99532,0.52296 5.08251,3.38391 6.80998,4.94199 3.0628,2.42236 2.1615,2.48492 2.08801,9.61422 0.33469,12.51792 -1.8728,9.31984 6.55437,14.71602 4.02359,2.57643 6.25648,4.16257 6.83334,5.60505 0.5393,1.34853 0.38411,8.47562 0.41317,18.80999 0.0361,12.86183 0.38648,16.33563 -0.70779,17.67343 -2.00786,2.45467 -13.28245,1.17328 -98.42535,1.26767 -54.66471,0.0606 -100.72389,-0.26508 -105.498592,-0.2875 -7.281311,-0.0574 -8.468793,0.2089 -9.650314,-1.2865 z m 142.959742,-72.1175 c 12.4966,0.0427 21.1244,0.50658 21.98754,-0.43698 0.84593,-0.80258 0.7557,-2.66474 0.7557,-8.65423 -0.004,-9.55687 0.88514,-8.37712 -13.70061,-8.50916 -19.83241,-0.25649 -80.1875,-0.13822 -92.64537,-0.20973 -12.457888,-0.0715 -11.146458,-0.0863 -11.372236,8.62162 0.227891,11.75405 -3.164336,9.1197 18.312646,9.46813 8.92931,-0.0209 16.95703,-0.0306 26.77875,-0.10301 9.82172,-0.0724 35.1023,-0.20654 49.88358,-0.17659 z M 117.38372,98.507991 c 19.20098,-2.033474 49.0485,-2.040288 75.86751,0.58084 10.4769,1.556029 11.83603,3.220129 16.16493,-3.42903 3.43884,-8.975307 0.71654,-9.434744 -2.06085,-10.45221 -2.7774,-1.017466 -8.14595,-2.433858 -18.24849,-3.659057 -10.10254,-1.225198 -31.81923,-1.991968 -38.81112,-1.964844 -6.75676,0.02621 -29.53706,1.064023 -33.76378,1.776705 -10.62146,1.385499 -14.14881,2.04651 -18.274364,3.208976 -2.517469,0.709353 -4.048181,0.55564 -5.176932,2.409177 -1.582243,2.051772 0.191949,6.975298 1.48099,9.547787 1.165941,2.160796 3.945815,3.750545 4.888457,3.882675 1.214209,0.1702 9.993719,-1.060149 17.933649,-1.901019 z"
     id="path816"
     inkscape:connector-curvature="0"
     sodipodi:nodetypes="scccscccccscscssssscscssccccccscccccccscssscssccczcczcscccczsscccssc" />
</svg>
