<?xml version="1.0" encoding="UTF-8" standalone="no"?>
<svg
   xmlns:dc="http://purl.org/dc/elements/1.1/"
   xmlns:cc="http://creativecommons.org/ns#"
   xmlns:rdf="http://www.w3.org/1999/02/22-rdf-syntax-ns#"
   xmlns:svg="http://www.w3.org/2000/svg"
   xmlns="http://www.w3.org/2000/svg"
   xmlns:xlink="http://www.w3.org/1999/xlink"
   xmlns:sodipodi="http://sodipodi.sourceforge.net/DTD/sodipodi-0.dtd"
   xmlns:inkscape="http://www.inkscape.org/namespaces/inkscape"
   version="1.0"
   width="300.000000pt"
   height="300.000000pt"
   viewBox="0 0 300.000000 300.000000"
   preserveAspectRatio="xMidYMid meet"
   id="svg2"
   inkscape:version="0.92.5 (2060ec1f9f, 2020-04-08)"
   sodipodi:docname="wb.svg">
  <defs
     id="defs12">
    <linearGradient
       inkscape:collect="always"
       id="linearGradient823">
      <stop
         style="stop-color:#fffdf4;stop-opacity:1"
         offset="0"
         id="stop819" />
      <stop
         style="stop-color:#d6d0c2;stop-opacity:1"
         offset="1"
         id="stop821" />
    </linearGradient>
    <linearGradient
       inkscape:collect="always"
       xlink:href="#linearGradient823"
       id="linearGradient825"
       x1="4.4420308"
       y1="152.3411"
       x2="294.72294"
       y2="152.3411"
       gradientUnits="userSpaceOnUse" />
  </defs>
  <sodipodi:namedview
     pagecolor="#ffffff"
     bordercolor="#666666"
     borderopacity="1"
     objecttolerance="10"
     gridtolerance="10"
     guidetolerance="10"
     inkscape:pageopacity="0"
     inkscape:pageshadow="2"
     inkscape:window-width="1387"
     inkscape:window-height="1008"
     id="namedview10"
     showgrid="false"
     inkscape:zoom="1.2203427"
     inkscape:cx="57.054324"
     inkscape:cy="166.81687"
     inkscape:window-x="-8"
     inkscape:window-y="0"
     inkscape:window-maximized="0"
     inkscape:current-layer="svg2"
     inkscape:pagecheckerboard="true" />
  <metadata
     id="metadata4">
Created by potrace 1.12, written by Peter Selinger 2001-2015
<rdf:RDF>
  <cc:Work
     rdf:about="">
    <dc:format>image/svg+xml</dc:format>
    <dc:type
       rdf:resource="http://purl.org/dc/dcmitype/StillImage" />
    <dc:title />
  </cc:Work>
</rdf:RDF>
</metadata>
  <path
     style="display:inline;fill:url(#linearGradient825);fill-opacity:1;stroke-width:0.6990611"
     d="m 5.0670255,292.97349 c -0.5742775,-0.6927 -0.7694221,-1.97661 -0.5159889,-3.39485 0.2241656,-1.25445 0.5660939,-3.22506 0.7598399,-4.37914 0.193747,-1.15406 1.1793012,-5.71788 2.1901204,-10.1418 1.0108193,-4.42392 1.989833,-8.83036 2.1755864,-9.79209 2.7675267,-13.43891 7.3195997,-16.24588 13.0209877,-18.95023 3.845281,-2.15318 15.811787,-3.8143 25.272245,-3.08767 8.055469,0.61871 13.246095,1.54769 25.830965,4.623 15.103499,3.69078 19.503275,3.59222 18.655998,-0.51806 -2.200146,-10.67324 -2.998579,-14.42499 -2.953066,-32.66878 0.0262,-10.50355 -0.503639,-19.98016 -1.111265,-23.38845 -0.642411,-3.60339 -4.006916,-9.03154 -6.406315,-12.49187 -2.757742,-5.66702 -7.594257,-14.49624 -8.904271,-23.28375 -1.352984,-10.30618 -2.826237,-22.96607 -1.06059,-33.11905 1.491076,-8.08884 2.426376,-15.8211 5.244328,-21.72937 4.249493,-11.555367 10.283035,-22.178384 18.050916,-33.750068 4.549007,-6.768707 10.328754,-13.713207 15.461894,-18.848772 5.25536,-5.654902 4.25796,-6.655171 1.57433,-9.989813 -2.94687,-3.661738 -4.21092,-6.734801 -4.3467,-11.121248 -0.0957,-3.09317 0.53789,-8.211538 4.65838,-12.032097 6.44164,-5.972735 19.6466,-5.8239961 24.838,2.37074 2.06541,2.855771 3.93874,8.023439 2.82865,11.789335 -0.67365,2.030311 -0.77267,4.040318 -3.19321,7.445654 -2.11133,3.18651 -3.25208,4.981221 1.44636,10.550187 1.73604,2.057695 7.43857,8.711361 9.84291,9.179369 3.26799,0.483588 8.60479,-4.018417 12.5286,-11.175779 2.51239,-3.746971 1.37954,-5.817293 0.47919,-6.664932 -2.55838,-2.812814 -3.43277,-4.979688 -4.12534,-8.061391 -1.03561,-4.608178 -0.186,-9.832538 1.87042,-12.384095 3.62388,-4.49646 7.40066,-6.971307 13.39665,-7.099118 3.73103,-0.07953 7.39658,0.696098 10.56616,2.913779 4.44868,3.032608 6.58135,8.257802 6.96064,13.541258 0.0601,3.156315 -0.34883,6.800759 -3.63531,11.244429 -4.10204,4.329731 -0.85516,6.19468 3.99895,12.427212 10.11452,12.319698 20.40458,25.364694 26.55573,39.084065 3.08052,7.068094 6.00626,15.207645 8.56295,26.763475 1.85609,7.61792 2.38682,15.48586 2.40943,22.26136 0.0105,8.15282 -0.75959,16.02855 -1.9329,21.23034 -3.05788,10.76966 -6.29056,17.77619 -9.31424,25.00643 -2.12756,5.0295 -3.26792,7.68456 -4.17418,9.608 -1.60471,3.40588 -2.08773,4.63457 -2.13267,23.70747 -0.0311,13.1757 -0.64766,20.20183 -1.2346,22.55463 -2.03794,8.1693 -1.99547,9.34341 2.28879,9.36497 2.29912,0.0115 12.47866,-2.10414 18.13315,-3.76877 18.81256,-5.23994 41.04037,-3.8136 49.25748,-0.0494 6.79089,2.98629 8.29336,7.45373 10.07084,12.3313 1.45747,3.47841 2.39626,8.40984 2.92895,10.52564 2.25505,8.95657 3.1297,21.20589 2.75219,22.71157 -0.32262,1.28685 -0.88393,1.62532 -2.69536,1.62532 -2.08405,0 -4.03313,-0.86038 -12.10703,-5.34435 -1.48297,-0.82358 -5.84041,-2.20689 -9.68319,-3.07399 -6.14669,-1.38696 -9.88552,-1.64289 -31.09159,-2.12821 -43.93992,-1.00561 -60.32735,-2.40537 -67.99456,-5.80789 -5.14894,-2.28497 -12.76179,-7.38811 -17.23391,-11.55244 -2.10725,-1.96223 -2.69938,-3.49321 -3.62508,-3.64218 -0.25202,-0.0405 -2.61026,2.43743 -5.05121,4.7792 -3.24305,3.18709 -6.81944,5.59761 -10.94974,7.7525 -4.44234,2.62335 -9.68856,4.30351 -15.66909,5.35054 -7.4131,1.29783 -28.797558,2.44105 -58.340398,3.11887 -21.208616,0.48662 -24.944168,0.74258 -31.091592,2.13044 -7.08724,1.60005 -8.830503,2.3001 -14.595394,5.86121 -3.99519,2.46792 -8.1357617,3.16395 -9.4428353,1.58735 z"
     id="path816"
     inkscape:connector-curvature="0"
     sodipodi:nodetypes="cscsccsssssccccccssscccscccssscccccccccccsccccccscssccsccsscscc" />
  <path
     sodipodi:nodetypes="cscsccsssssccccccssscccscccssscccccccccccsccccccscssccsccsscscccssscscsccccccsscccssccscccccccscccccccsccccccccscccccccczccsszcccsczcccccccczcscccscczccccccccccccsccsccczccc"
     inkscape:connector-curvature="0"
     id="path817"
     d="m 5.0670255,292.97349 c -0.5742775,-0.6927 -0.7694221,-1.97661 -0.5159889,-3.39485 0.2241656,-1.25445 0.5660939,-3.22506 0.7598399,-4.37914 0.193747,-1.15406 1.1793012,-5.71788 2.1901204,-10.1418 1.0108193,-4.42392 1.989833,-8.83036 2.1755864,-9.79209 2.7675267,-13.43891 7.3195997,-16.24588 13.0209877,-18.95023 3.845281,-2.15318 15.811787,-3.8143 25.272245,-3.08767 8.055469,0.61871 13.246095,1.54769 25.830965,4.623 15.103499,3.69078 19.503275,3.59222 18.655998,-0.51806 -2.200146,-10.67324 -2.998579,-14.42499 -2.953066,-32.66878 0.0262,-10.50355 -0.503639,-19.98016 -1.111265,-23.38845 -0.642411,-3.60339 -4.006916,-9.03154 -6.406315,-12.49187 -2.757742,-5.66702 -7.594257,-14.49624 -8.904271,-23.28375 -1.352984,-10.30618 -2.826237,-22.96607 -1.06059,-33.11905 1.491076,-8.08884 2.426376,-15.8211 5.244328,-21.72937 4.249493,-11.555367 10.283035,-22.178384 18.050916,-33.750068 4.549007,-6.768707 10.328754,-13.713207 15.461894,-18.848772 5.25536,-5.654902 4.25796,-6.655171 1.57433,-9.989813 -2.94687,-3.661738 -4.21092,-6.734801 -4.3467,-11.121248 -0.0957,-3.09317 0.53789,-8.211538 4.65838,-12.032097 6.44164,-5.972735 19.6466,-5.8239961 24.838,2.37074 2.06541,2.855771 3.93874,8.023439 2.82865,11.789335 -0.67365,2.030311 -0.77267,4.040318 -3.19321,7.445654 -2.11133,3.18651 -3.25208,4.981221 1.44636,10.550187 1.73604,2.057695 7.43857,8.711361 9.84291,9.179369 3.26799,0.483588 8.60479,-4.018417 12.5286,-11.175779 2.51239,-3.746971 1.37954,-5.817293 0.47919,-6.664932 -2.55838,-2.812814 -3.43277,-4.979688 -4.12534,-8.061391 -1.03561,-4.608178 -0.186,-9.832538 1.87042,-12.384095 3.62388,-4.49646 7.40066,-6.971307 13.39665,-7.099118 3.73103,-0.07953 7.39658,0.696098 10.56616,2.913779 4.44868,3.032608 6.58135,8.257802 6.96064,13.541258 0.0601,3.156315 -0.34883,6.800759 -3.63531,11.244429 -4.10204,4.329731 -0.85516,6.19468 3.99895,12.427212 10.11452,12.319698 20.40458,25.364694 26.55573,39.084065 3.08052,7.068094 6.00626,15.207645 8.56295,26.763475 1.85609,7.61792 2.38682,15.48586 2.40943,22.26136 0.0105,8.15282 -0.75959,16.02855 -1.9329,21.23034 -3.05788,10.76966 -6.29056,17.77619 -9.31424,25.00643 -2.12756,5.0295 -3.26792,7.68456 -4.17418,9.608 -1.60471,3.40588 -2.08773,4.63457 -2.13267,23.70747 -0.0311,13.1757 -0.64766,20.20183 -1.2346,22.55463 -2.03794,8.1693 -1.99547,9.34341 2.28879,9.36497 2.29912,0.0115 12.47866,-2.10414 18.13315,-3.76877 18.81256,-5.23994 41.04037,-3.8136 49.25748,-0.0494 6.79089,2.98629 8.29336,7.45373 10.07084,12.3313 1.45747,3.47841 2.39626,8.40984 2.92895,10.52564 2.25505,8.95657 3.1297,21.20589 2.75219,22.71157 -0.32262,1.28685 -0.88393,1.62532 -2.69536,1.62532 -2.08405,0 -4.03313,-0.86038 -12.10703,-5.34435 -1.48297,-0.82358 -5.84041,-2.20689 -9.68319,-3.07399 -6.14669,-1.38696 -9.88552,-1.64289 -31.09159,-2.12821 -43.93992,-1.00561 -60.32735,-2.40537 -67.99456,-5.80789 -5.14894,-2.28497 -12.76179,-7.38811 -17.23391,-11.55244 -2.10725,-1.96223 -2.69938,-3.49321 -3.62508,-3.64218 -0.25202,-0.0405 -2.61026,2.43743 -5.05121,4.7792 -3.24305,3.18709 -6.81944,5.59761 -10.94974,7.7525 -4.44234,2.62335 -9.68856,4.30351 -15.66909,5.35054 -7.4131,1.29783 -28.797558,2.44105 -58.340398,3.11887 -21.208616,0.48662 -24.944168,0.74258 -31.091592,2.13044 -7.08724,1.60005 -8.830503,2.3001 -14.595394,5.86121 -3.99519,2.46792 -8.1357617,3.16395 -9.4428353,1.58735 z M 28.454427,275.46546 c 4.990353,-1.43547 18.238098,-2.39067 39.427982,-2.8429 16.052436,-0.34258 34.668541,-1.17502 41.571901,-1.85893 13.19014,-1.30673 23.96777,-6.09706 22.47562,-9.98973 -0.56528,-1.47467 -7.5009,-1.46916 -20.03021,0.016 -10.46296,1.24016 -21.004607,0.98832 -32.139624,-0.7678 -23.27359,-3.67053 -30.099191,-4.48264 -37.970934,-4.51778 -14.01135,-0.0625 -18.707931,2.95611 -21.46433,13.79592 -0.956575,3.76183 -0.977167,4.58106 -0.145049,5.77034 1.15562,1.65165 3.514393,1.76423 8.274644,0.39496 z m 250.755693,-0.62074 c 1.11233,-1.69945 1.13069,-1.58845 -1.58508,-9.57911 -2.35801,-6.93797 -8.21295,-9.82134 -19.80718,-9.75437 -8.27992,0.0479 -16.9341,1.07695 -40.41634,4.80624 -10.53352,1.67286 -19.095,1.78475 -30.74224,0.4018 -11.89626,-1.41251 -18.77659,-1.39308 -19.33152,0.0546 -0.89942,2.34636 4.64657,5.95655 8.91058,7.59817 3.61799,1.27037 7.67859,1.98795 9.02356,2.14088 7.52447,1.02803 36.99726,1.88822 64.27925,2.81947 12.29067,0.41953 19.49353,1.18399 22.48934,2.38687 3.04979,1.22456 6.04446,0.85977 7.17963,-0.87457 z M 167.79471,251.94109 c 12.25743,-0.80224 16.30961,-2.24328 20.85659,-3.09319 2.86693,-1.09354 7.47418,-2.23832 6.22027,-5.42586 -1.43826,-2.93177 -10.61487,-5.96902 -15.47647,-6.94369 -8.61248,-2.34529 -21.39767,-2.91773 -29.76626,-2.94542 -17.24815,-0.0264 -26.39337,0.80074 -37.24344,4.88906 -5.56252,2.09598 -7.57791,2.70395 -7.15652,5.47037 0.27521,3.36343 10.63366,6.33493 13.58167,6.63177 19.28824,1.64103 34.24506,2.38163 48.98416,1.41696 z m -43.38363,-27.8366 c 5.95554,-0.73805 12.43003,-1.48558 16.86844,-1.49227 7.95368,-0.27941 11.76642,-0.12429 17.36293,0 10.06087,0.15942 16.03409,1.59699 25.85339,3.59235 0.98642,0.37544 3.77634,1.0987 6.19986,1.60725 3.75376,0.7877 4.71139,1.46225 5.55688,0.61587 1.20784,-1.70143 0.87353,-2.17004 1.00698,-5.02149 0.17617,-4.40282 -0.80666,-5.37041 -3.60683,-6.50978 -3.30918,-1.3465 -8.09922,-3.85556 -6.81896,-6.32894 0.27664,-0.65651 1.56692,-2.48812 5.82411,-3.42697 2.35168,-0.44239 4.99587,-1.00799 4.96589,-2.99799 0.30334,-3.29046 0.30169,-4.61277 -0.48902,-5.73245 -1.02354,-1.3755 -3.76788,-2.16142 -6.88493,-3.35068 -3.72383,-1.14947 -8.95047,-2.40345 -12.95619,-3.25456 -9.25584,-1.35734 -14.93185,-2.12878 -25.21941,-2.18398 -10.3047,-0.0552 -31.55656,1.99785 -37.72913,3.64499 -1.5371,0.41018 -4.79339,1.20022 -7.2362,1.75566 -2.44279,0.55544 -4.74998,1.20078 -5.12707,1.43408 -0.37709,0.2333 -0.39382,3.49574 -0.21926,5.24684 0.27069,2.9772 2.804,3.68737 4.33451,4.19914 1.60726,0.52462 5.96211,1.27846 7.21173,2.36216 2.36632,1.40325 2.25544,3.07146 -0.0775,4.81689 -0.84408,0.62117 -2.66274,1.61252 -4.51951,2.44584 -2.32833,1.0672 -5.05862,1.70063 -6.18492,3.99323 -0.59356,1.75083 -0.24614,7.91198 0.98224,8.67197 1.20944,0.65863 14.94642,-3.34913 20.90198,-4.08716 z m 19.47171,-12.90373 c -8.05526,-3.55334 -6.66894,-5.72833 -1.99797,-8.53766 3.4849,-2.09597 6.69323,-2.76112 8.04506,-2.7448 4.36086,0.0527 11.39209,4.00423 11.46525,6.54601 0.0586,2.03703 -3.72587,4.11208 -7.47053,5.59363 -3.74467,1.48154 -7.98716,0.29319 -10.04181,-0.85721 z m 50.68199,-29.54136 c 1.35936,-2.85367 0.22543,-10.81345 -0.11245,-16.95435 -1.68302,-10.55613 -3.14164,-20.07516 -6.55313,-29.85608 -3.76076,-10.2668 -6.03448,-15.63911 -13.84589,-26.54109 -7.57331,-10.425791 -9.9321,-13.003984 -14.55493,-18.631514 -4.62284,-5.627531 -8.79941,-10.753025 -13.32883,-16.020515 -3.59929,-3.813867 -7.56301,-8.506095 -15.23225,-16.032278 -3.97552,-3.678405 -8.60642,-4.786073 -13.1827,1.160474 -6.10066,7.662088 -8.8555,10.668329 -13.63824,18.469359 -5.383473,9.489803 -10.896463,17.293128 -13.915801,27.907834 -4.698589,12.79078 -6.721331,26.23513 -5.342458,38.42657 3.860501,19.51882 6.588401,23.06282 12.410941,33.88233 0.62482,1.19453 2.457943,6.40946 4.517918,6.25686 2.05997,-0.1526 14.80276,-3.80974 27.58249,-4.70307 12.77972,-1.5254 23.60743,-1.5936 31.07103,-1.09432 8.45737,0.56574 15.2509,1.67251 26.20356,4.2036 6.42462,1.48468 6.59361,2.3122 7.92074,-0.47378 z m 19.91271,-24.56338 c 1.77485,-8.7654 1.74461,-17.66756 1.16916,-26.12191 -0.35483,-4.912 -0.25753,-9.55602 -3.37365,-19.96941 -3.11612,-10.41339 -6.5281,-18.091652 -8.9827,-22.851188 -3.83008,-6.231353 -4.83111,-7.607604 -10.3025,-15.259146 -5.72094,-7.401984 -9.46828,-11.490917 -16.12128,-20.015994 -1.77208,-2.244616 -3.9652,-3.359444 -5.89517,-0.986446 -0.60142,0.602069 -2.25202,2.936524 -4.41566,5.477011 -2.83329,3.17952 -7.2453,6.488024 -8.33664,8.670693 -1.04333,1.897475 -0.053,2.592569 2.18262,5.32377 5.44413,5.612904 8.58777,9.918365 13.19323,15.321778 5.90226,6.870829 12.27306,15.728482 17.24019,23.983422 4.30912,6.89362 7.63019,14.94475 10.11415,21.30672 2.05771,7.18487 4.40022,15.72159 5.42118,23.02345 0.58963,5.49168 0.77401,6.73585 1.16951,11.07551 0.11481,3.24725 1.77384,3.41082 2.71452,2.06637 2.32079,-3.33331 3.2122,-6.83123 4.22304,-11.04463 z M 130.06933,30.50929 c 3.22698,-5.410392 -1.93514,-12.059361 -8.01291,-9.732945 -5.82146,2.22831 -5.71825,9.998732 0.4421,12.273014 2.3711,0.670284 5.81279,0.241274 7.57081,-2.540069 z m 50.16407,-3.024656 c 0.1293,-1.973768 -0.295,-4.342776 -2.72816,-5.919534 -2.43318,-1.576756 -6.3185,-1.680401 -8.85125,0.821555 -3.32962,3.775079 -1.14515,10.787758 4.67899,10.953471 5.07075,0.07155 6.53089,-3.090235 6.90042,-5.855492 z"
     style="display:inline;fill:#000000;stroke-width:0.6990611" />
</svg>
