<?xml version="1.0" encoding="UTF-8" standalone="no"?>
<svg
   xmlns:dc="http://purl.org/dc/elements/1.1/"
   xmlns:cc="http://creativecommons.org/ns#"
   xmlns:rdf="http://www.w3.org/1999/02/22-rdf-syntax-ns#"
   xmlns:svg="http://www.w3.org/2000/svg"
   xmlns="http://www.w3.org/2000/svg"
   xmlns:xlink="http://www.w3.org/1999/xlink"
   xmlns:sodipodi="http://sodipodi.sourceforge.net/DTD/sodipodi-0.dtd"
   xmlns:inkscape="http://www.inkscape.org/namespaces/inkscape"
   version="1.0"
   width="300.000000pt"
   height="300.000000pt"
   viewBox="0 0 300.000000 300.000000"
   preserveAspectRatio="xMidYMid meet"
   id="svg2"
   inkscape:version="0.92.5 (2060ec1f9f, 2020-04-08)"
   sodipodi:docname="wk.svg">
  <defs
     id="defs12">
    <linearGradient
       inkscape:collect="always"
       id="linearGradient820">
      <stop
         style="stop-color:#fffdf4;stop-opacity:1"
         offset="0"
         id="stop816" />
      <stop
         style="stop-color:#d6d0c2;stop-opacity:1"
         offset="1"
         id="stop818" />
    </linearGradient>
    <linearGradient
       inkscape:collect="always"
       xlink:href="#linearGradient820"
       id="linearGradient822"
       x1="8.0271838"
       y1="145.8519"
       x2="292.92318"
       y2="145.8519"
       gradientUnits="userSpaceOnUse" />
  </defs>
  <sodipodi:namedview
     pagecolor="#ffffff"
     bordercolor="#666666"
     borderopacity="1"
     objecttolerance="10"
     gridtolerance="10"
     guidetolerance="10"
     inkscape:pageopacity="0"
     inkscape:pageshadow="2"
     inkscape:window-width="1262"
     inkscape:window-height="1008"
     id="namedview10"
     showgrid="false"
     inkscape:zoom="0.88080763"
     inkscape:cx="57.547894"
     inkscape:cy="158.8206"
     inkscape:window-x="200"
     inkscape:window-y="119"
     inkscape:window-maximized="0"
     inkscape:current-layer="svg2"
     inkscape:pagecheckerboard="true" />
  <metadata
     id="metadata4">
Created by potrace 1.12, written by Peter Selinger 2001-2015
<rdf:RDF>
  <cc:Work
     rdf:about="">
    <dc:format>image/svg+xml</dc:format>
    <dc:type
       rdf:resource="http://purl.org/dc/dcmitype/StillImage" />
    <dc:title />
  </cc:Work>
</rdf:RDF>
</metadata>
  <path
     style="display:inline;fill:url(#linearGradient822);fill-opacity:1;stroke-width:0.6902864"
     d="m 104.72262,276.24301 c -9.282945,-1.895 -20.031729,-4.09878 -28.490492,-6.61907 -4.471645,-1.31141 -11.310665,-3.45284 -11.665436,-6.0304 -0.400655,-2.78732 -2.340458,-11.26446 -2.854884,-16.521 -1.112347,-8.84375 -2.939175,-19.12725 -3.669211,-25.9285 -1.011066,-8.74707 -1.290497,-13.21488 -2.278099,-18.69662 -0.725663,-5.77222 0.498397,-8.77991 -6.967912,-15.86144 -2.254426,-2.65442 -6.791563,-6.35953 -12.798919,-12.6402 C 31.386601,169.12492 20.660986,156.05577 17.924154,151.66031 14.554544,146.19882 11.927598,141.522 10.030474,132.44077 8.6717121,126.08556 8.0195329,116.5725 8.0272515,113.18435 8.6611491,100.56015 10.39823,92.6284 15.720392,83.79371 21.420641,74.75064 32.136794,67.326312 36.55766,65.445907 c 6.268209,-3.490728 14.972769,-5.145511 24.402775,-5.458332 4.818427,-0.117449 13.451711,0.384998 17.544349,1.370527 7.183708,1.957676 14.224711,4.113792 20.614538,8.548001 4.677648,2.863419 9.728938,9.347624 9.556428,1.234983 -0.24727,-3.347214 0.0367,-15.065829 0.0793,-27.880872 0.0885,-26.661487 -0.23826,-30.114198 0.67559,-31.290607 0.96868,-1.054045 5.9752,-0.480874 38.71072,-0.456779 32.73551,0.0241 40.73496,-0.420164 42.06681,0.820289 1.33185,1.240451 1.07462,12.391551 1.03073,22.185045 -0.13586,24.051615 0.0789,28.981215 0.20632,34.670592 0.0441,4.375275 -0.21393,7.78481 3.69358,5.207817 3.07819,-2.398355 5.02035,-3.735199 6.66841,-4.862325 4.09781,-2.802552 5.40927,-3.44382 13.12761,-6.176248 7.60453,-2.86786 14.41809,-3.557241 21.68466,-3.456446 11.08391,0.154906 14.41056,0.652374 21.74832,2.970777 7.34187,2.652572 14.00651,6.476389 21.60193,14.187425 7.19474,8.580382 9.7331,11.778705 12.62874,29.397326 1.08719,8.88558 -0.69454,23.91961 -3.28072,31.45149 -3.13751,10.40789 -11.38616,20.80802 -19.84952,31.25757 -5.50013,5.79126 -9.33424,9.13202 -14.73916,14.42437 -3.54943,2.77496 -6.10234,7.32303 -7.81252,8.80114 -3.12466,10.07834 -4.84987,24.91636 -6.06358,35.44736 -1.21751,10.82476 -1.5116,15.07338 -3.35099,27.4661 -0.39827,3.57388 -0.58007,9.14467 -2.97429,10.46278 -7.05781,2.99049 -13.5474,5.15265 -20.73227,7.00773 -6.36618,1.47535 -13.27259,2.95005 -20.13052,4.07985 -9.10693,1.405 -17.85014,2.71371 -27.50599,3.2616 -5.61946,0.31886 -18.17143,0.30186 -20.97324,0.12684 -12.88807,-0.29294 -26.82254,-1.05761 -40.46302,-4.0009 z"
     id="path814"
     inkscape:connector-curvature="0"
     sodipodi:nodetypes="cccccccscccccccccsczzccccccccccccccccccsccc" />
  <path
     style="display:inline;fill:#000000;fill-opacity:1;stroke-width:0.6665436"
     d="m 141.99812,207.57493 c -2.4845,-1.70563 -11.37955,-5.4163 -11.39931,-7.65318 -0.014,-1.68565 4.27157,-3.61393 7.1349,-4.91632 4.59916,-2.09193 8.41427,-4.11876 11.76674,-5.14913 2.89389,-0.72464 4.69436,0.45207 7.14886,1.4573 3.41104,1.44962 6.87278,3.32073 10.13256,4.85069 8.61237,4.04218 4.45989,5.44291 -0.62123,8.16953 -4.81601,2.65723 -12.04993,5.72346 -12.69593,6.05673 -4.00221,1.20066 -6.44469,-0.75048 -11.46659,-2.81562 z"
     id="path827-6"
     inkscape:connector-curvature="0"
     sodipodi:nodetypes="ccsccsccc" />
  <path
     style="display:inline;fill:#000000;fill-opacity:1;stroke-width:0.6902864"
     d="m 104.72262,276.24301 c -9.28295,-1.895 -20.03173,-4.09878 -28.49049,-6.61907 -4.47165,-1.31142 -11.31067,-3.45285 -11.66544,-6.0304 -0.40065,-2.78732 -2.34046,-11.26446 -2.85488,-16.521 -1.11235,-8.84375 -2.93918,-19.12725 -3.66921,-25.92851 -1.01107,-8.74707 -1.2905,-13.21488 -2.2781,-18.69661 -0.72567,-5.77223 0.54496,-9.15246 -6.921347,-16.23399 -2.254425,-2.65442 -6.744994,-5.98698 -12.75235,-12.26765 -4.611066,-4.82086 -15.103837,-18.02972 -17.840669,-22.42518 -3.36961,-5.46149 -6.229399,-9.95203 -8.126523,-19.03326 C 8.764849,126.13213 8.019533,116.5725 8.027251,113.18435 8.754286,99.069953 10.39823,92.628398 15.720392,83.793709 21.42064,74.75064 32.136793,67.326312 36.557659,65.445907 42.825868,61.955179 51.53043,60.300396 60.96043,59.987575 c 4.81843,-0.117449 13.45171,0.384998 17.54435,1.370527 7.18371,1.957676 14.22471,4.113792 20.61454,8.548001 4.67764,2.863419 9.72894,9.347624 9.55642,1.234982 -0.24727,-3.347213 0.0367,-15.065828 0.0793,-27.880871 0.0885,-26.661486 -0.23826,-30.114197 0.67558,-31.290606 0.96869,-1.054045 5.97521,-0.480874 38.71073,-0.456779 32.7355,0.0241 40.73495,-0.420164 42.0668,0.820289 1.33185,1.240451 1.07462,12.391551 1.03073,22.185044 -0.13586,24.051615 0.0789,28.981215 0.20632,34.670592 0.0441,4.375275 -0.21393,7.78481 3.69358,5.207817 3.07819,-2.398356 5.02035,-3.735199 6.66841,-4.862325 4.09781,-2.802552 5.40927,-3.44382 13.12761,-6.176248 7.60453,-2.86786 14.41809,-3.557241 21.68466,-3.456446 11.08391,0.154906 14.41056,0.652374 21.74832,2.970777 7.34187,2.652572 14.00651,6.476389 21.60193,14.187425 7.19474,8.580382 9.7331,11.778706 12.62874,29.397326 1.08719,8.88558 -0.69454,23.91961 -3.28072,31.45149 -3.13751,10.40789 -11.38616,20.80802 -19.84952,31.25757 -5.50012,5.79126 -9.33424,9.13202 -14.73916,14.42437 -3.54943,2.77496 -6.10234,7.32303 -7.81252,8.80114 -3.12466,10.07834 -4.84987,24.91636 -6.06358,35.44736 -1.21751,10.82475 -1.5116,15.07338 -3.35099,27.4661 -0.39827,3.57388 -0.58007,9.14467 -2.97429,10.46278 -7.05781,2.99049 -13.5474,5.15265 -20.73227,7.00773 -6.36618,1.47534 -13.27259,2.95005 -20.13052,4.07985 -9.10693,1.40499 -17.85014,2.71371 -27.50598,3.2616 -5.61947,0.31886 -18.17144,0.30186 -20.97324,0.12684 -12.88808,-0.29295 -26.82255,-1.05762 -40.46302,-4.0009 z m 52.9928,-8.04119 c 22.89963,-1.40442 31.19603,-2.64658 44.36734,-5.35449 4.10732,-0.94921 21.21317,-3.39045 22.28618,-8.95537 0.35759,-3.03581 -6.37107,-5.34416 -12.38399,-7.41726 -11.75954,-3.80735 -17.83771,-4.88005 -28.10119,-6.58281 -10.18785,-1.35683 -26.2606,-2.89754 -36.50614,-2.54225 -19.92546,0.69099 -35.06199,2.8833 -40.1217,4.24925 -4.6545,1.09155 -11.35121,2.49108 -15.56316,3.98674 -7.36323,2.50899 -13.71903,4.78176 -15.14888,7.24011 -1.00817,3.08999 3.15213,4.5618 9.3524,6.87711 10.17424,2.63456 21.07128,4.49084 30.61986,5.91359 12.27882,1.70485 27.3411,2.92807 41.19927,2.58538 z M 84.03074,235.35401 c 7.05142,-2.04204 15.15358,-3.91222 24.45398,-6.02221 10.16059,-2.28185 21.99468,-4.02062 44.29939,-4.28316 9.23156,0.0207 25.7886,1.78459 29.17977,2.21034 6.10597,0.76657 16.3299,3.03991 23.66265,5.10937 6.6751,1.71254 9.01914,2.50802 13.84403,4.11462 6.97069,2.24565 6.38947,1.67271 7.69927,0.34296 0.78285,-0.79479 1.09981,-2.41234 1.09981,-5.61265 0,-3.79421 0.73304,-5.8184 -0.56777,-6.9711 -2.71221,-1.98662 -6.17463,-4.43391 -9.93925,-6.89657 -4.82161,-3.36264 -8.42151,-6.22528 -7.96231,-7.74436 0.62955,-2.74508 7.22477,-3.54666 11.30382,-4.02947 4.78929,-0.64369 7.54282,-1.18596 9.44703,-1.95466 1.93839,-1.15793 3.94849,-10.90758 1.98991,-12.7885 -3.21429,-2.08562 -17.84439,-5.97759 -26.06229,-7.60332 -10.12285,-3.08119 -20.31394,-3.98347 -30.00197,-5.21473 -17.33522,-2.12413 -41.17701,-1.42838 -56.61866,0.35262 -12.49847,1.50206 -29.0771,4.97564 -43.2485,9.25624 -9.22584,2.70037 -9.92245,3.7284 -9.3944,7.17536 0.2289,3.5898 0.38417,6.11288 1.51762,7.73502 1.28692,2.07987 7.46836,2.19297 13.27955,3.20964 4.03898,0.61817 8.20166,0.71912 8.78206,3.54696 0.23326,2.32209 -5.62098,5.95404 -9.09036,8.56418 -3.24651,2.24907 -4.82663,3.59695 -7.92142,5.80006 -2.77905,1.97702 -1.5936,4.13094 -1.34294,6.80333 0.4422,1.76901 0.0473,6.28968 1.52559,7.35473 2.24969,0.28423 6.98,-1.05133 10.06539,-2.4547 z m 11.9908,-66.18204 c 8.50311,-1.96674 20.46445,-3.61023 29.42648,-4.36284 14.47094,-1.58693 15.42621,-1.74256 16.35719,-2.84421 1.18986,-1.16907 0.22608,-5.83161 -1.00673,-10.59131 -5.43738,-15.88718 -14.07234,-31.40577 -21.58413,-41.45773 -4.64809,-6.7091 -10.8649,-15.615425 -21.95972,-24.341191 C 89.22134,79.40296 82.36727,74.439801 66.54681,73.528968 58.66104,73.506098 50.34548,73.067779 39.583023,80.63673 c -8.522558,5.90946 -11.90118,10.700798 -15.329252,18.45222 -3.784639,14.2432 -3.488791,18.50588 -1.510674,29.16324 1.167459,5.21929 4.575206,13.58689 11.293436,22.12437 7.313105,9.75178 15.679117,16.56663 20.666477,21.77899 2.70597,2.59621 5.83524,5.95267 9.53651,5.0453 7.37012,-1.16219 18.97025,-4.84781 31.78202,-8.02888 z m 154.88424,-1.83157 c 8.10948,-8.16566 16.41831,-16.08811 21.53381,-25.33335 4.93463,-7.83916 8.2477,-21.24644 6.87732,-30.81303 -1.20779,-8.11803 -3.34463,-17.359487 -10.0518,-24.17854 -6.16193,-5.796735 -12.64046,-10.697385 -21.77824,-12.537549 -6.67596,-1.624185 -17.92899,-0.921805 -22.8932,0.223362 -10.13243,2.207568 -14.13833,5.642769 -23.58401,12.940617 -5.75979,4.910483 -10.0279,9.816698 -14.08149,15.05962 -5.37211,6.56889 -8.52921,11.46225 -14.49334,21.74092 -4.71478,7.8927 -7.54797,15.34512 -10.39263,21.40385 -1.74979,3.51722 -4.41591,14.14571 -2.89705,16.11862 1.21831,1.14878 5.08852,1.77044 9.13384,2.05449 15.34371,1.60331 29.53983,3.49581 43.22631,7.00499 8.15461,1.99482 22.34815,6.78636 26.26299,6.42005 3.54814,-0.25749 9.59865,-6.26262 13.13749,-10.10405 z m -97.39043,-33.21025 c 4.64331,-9.94074 12.8305,-23.64509 19.80402,-33.14942 3.05332,-4.161437 2.0314,-6.237745 -3.08021,-6.25825 -1.68166,-0.0067 -12.07162,-0.05842 -23.08879,-0.114795 -17.8557,-0.0914 -19.1723,-0.619522 -20.88522,1.507328 -1.68479,2.69205 3.60336,6.601907 9.54394,17.146777 2.57399,4.25263 7.31868,11.33767 9.71936,17.31563 5.52112,12.53165 4.38141,11.27163 7.9869,3.55273 z m 16.64076,-51.250536 c 3.02507,0.258511 3.22705,-1.852992 1.04215,-3.480519 -4.614,-4.399099 -17.4082,-17.706215 -20.12952,-19.19216 -1.75353,-0.974922 -5.81475,3.915352 -8.87818,6.761712 -1.3943,1.295498 -5.09193,4.970209 -8.20028,7.798121 -5.73495,5.3064 -7.73611,7.512954 -4.04263,7.948557 5.05309,0.187762 37.39948,0.284391 40.20846,0.164289 z M 138.36074,59.117929 c 2.35499,-2.320299 5.14311,-4.665338 5.13428,-5.857107 -0.009,-1.277062 -3.14222,-3.652294 -8.27153,-8.486532 -9.02332,-8.504257 -11.53864,-11.765317 -13.44456,-11.145038 -1.66179,0.533757 -0.9426,5.550223 -1.20235,19.248716 -0.23906,13.886757 -0.60846,20.78123 0.49222,20.864847 1.46052,0.786338 2.05223,-0.378464 7.08387,-4.982976 3.25944,-2.982752 7.85307,-7.321611 10.20807,-9.64191 z m 42.05844,9.389169 c 0.1455,-9.021946 -0.306,-24.979542 -0.36935,-30.573461 -0.0358,-5.069025 -2.11717,-5.217585 -6.58204,-0.922626 -2.06665,1.987998 -9.65824,9.356119 -12.59787,12.085564 -5.56962,5.171415 -4.91769,3.611461 2.29932,11.055286 3.0144,2.664577 8.4668,7.736737 10.8288,9.983815 5.77042,5.234752 6.60888,4.635769 6.42114,-1.628578 z M 153.77081,44.203002 c 6.53283,-6.030124 12.15297,-11.360648 16.63779,-15.889454 5.66794,-5.113877 0.57672,-5.511626 -2.21721,-5.388272 -1.58313,-0.126266 -7.62216,-0.04493 -12.6936,-0.04966 -10.25059,0.107233 -12.32571,0.140549 -22.47703,-0.02216 -4.3061,-0.06903 -9.31428,0.03181 -2.47857,5.907179 5.21635,4.907309 14.04391,13.353182 16.2648,15.535505 3.20149,3.085921 3.34971,3.192679 6.96382,-0.09314 z"
     id="path814-3"
     inkscape:connector-curvature="0"
     sodipodi:nodetypes="cccccccscccccccccsczzccccccccccccccccccscccccccsccccccccccscccsccscccccccccccccccccccccccccccccccccccccccccccccccccccccccscccccccccccccccccccccccscccccc" />
</svg>
