<?xml version="1.0" encoding="UTF-8" standalone="no"?>
<svg
   xmlns:dc="http://purl.org/dc/elements/1.1/"
   xmlns:cc="http://creativecommons.org/ns#"
   xmlns:rdf="http://www.w3.org/1999/02/22-rdf-syntax-ns#"
   xmlns:svg="http://www.w3.org/2000/svg"
   xmlns="http://www.w3.org/2000/svg"
   xmlns:xlink="http://www.w3.org/1999/xlink"
   xmlns:sodipodi="http://sodipodi.sourceforge.net/DTD/sodipodi-0.dtd"
   xmlns:inkscape="http://www.inkscape.org/namespaces/inkscape"
   version="1.0"
   width="300.000000pt"
   height="300.000000pt"
   viewBox="0 0 300.000000 300.000000"
   preserveAspectRatio="xMidYMid meet"
   id="svg2"
   inkscape:version="0.92.5 (2060ec1f9f, 2020-04-08)"
   sodipodi:docname="wn.svg">
  <defs
     id="defs12">
    <linearGradient
       inkscape:collect="always"
       id="linearGradient822">
      <stop
         style="stop-color:#fffdf4;stop-opacity:1"
         offset="0"
         id="stop818" />
      <stop
         style="stop-color:#d6d0c2;stop-opacity:1"
         offset="1"
         id="stop820" />
    </linearGradient>
    <linearGradient
       inkscape:collect="always"
       xlink:href="#linearGradient822"
       id="linearGradient824"
       x1="19.389427"
       y1="146.61004"
       x2="281.2732"
       y2="146.61004"
       gradientUnits="userSpaceOnUse" />
  </defs>
  <sodipodi:namedview
     pagecolor="#ffffff"
     bordercolor="#666666"
     borderopacity="1"
     objecttolerance="10"
     gridtolerance="10"
     guidetolerance="10"
     inkscape:pageopacity="0"
     inkscape:pageshadow="2"
     inkscape:window-width="1365"
     inkscape:window-height="1008"
     id="namedview10"
     showgrid="false"
     inkscape:zoom="0.74604412"
     inkscape:cx="62.498029"
     inkscape:cy="239.23506"
     inkscape:window-x="78"
     inkscape:window-y="26"
     inkscape:window-maximized="0"
     inkscape:current-layer="svg2"
     inkscape:pagecheckerboard="true" />
  <metadata
     id="metadata4">
Created by potrace 1.12, written by Peter Selinger 2001-2015
<rdf:RDF>
  <cc:Work
     rdf:about="">
    <dc:format>image/svg+xml</dc:format>
    <dc:type
       rdf:resource="http://purl.org/dc/dcmitype/StillImage" />
    <dc:title />
  </cc:Work>
</rdf:RDF>
</metadata>
  <path
     sodipodi:nodetypes="ccccccccscccscscscscccssssscccccccsscscccssccsccscccscsscc"
     inkscape:connector-curvature="0"
     id="path817"
     d="m 201.78151,280.36648 c -0.088,-0.0791 -15.75335,-0.1765 -34.81177,-0.21656 -19.05842,-0.0401 -41.71211,-0.29177 -50.34153,-0.55936 -8.62942,-0.26758 -18.632238,-0.4479 -22.228475,-0.40068 -5.009969,0.0657 -6.730324,-0.16307 -7.358654,-0.97884 -0.975474,-1.26647 -2.952671,-15.57694 -2.849404,-20.62321 0.114973,-5.61778 4.390955,-17.07363 8.770237,-23.49647 6.482582,-9.26055 13.183266,-16.18621 22.711346,-22.53843 3.31452,-2.46228 9.23146,-6.21698 12.36251,-8.75802 7.40687,-6.01117 12.00806,-14.20071 13.5841,-20.16445 0.61453,-2.3254 0.68732,-3.06455 -0.52364,-4.21557 -1.52187,-1.44655 -2.82148,-0.33255 -7.26208,1.01327 -3.896,0.7089 -7.10382,1.24259 -12.66246,1.08097 -9.44799,-0.27472 -10.6495,-1.27232 -12.45133,0.78711 -4.50857,4.11563 -4.54136,6.9447 -12.298802,11.25599 -5.961485,3.31316 -7.053209,4.4258 -9.647217,7.65836 -1.807973,2.18216 -3.745082,7.58668 -4.063825,8.33493 -1.637704,3.84452 -6.114518,6.21308 -11.828817,6.27444 -2.143193,0.023 -5.940982,-0.6214 -8.439532,-1.43202 -4.175069,-1.35455 -5.492983,-2.06514 -10.209839,-1.20961 -2.822778,0.51199 -6.740854,1.27652 -8.053318,1.49527 -3.564819,0.59415 -13.955842,-2.95695 -16.346333,-5.65621 -1.020703,-1.15255 -3.016447,-4.68412 -5.358016,-8.46462 -1.811074,-2.92401 -2.972612,-7.64057 -3.052434,-14.32314 -0.04455,-3.73026 -0.131981,-9.64443 0.443929,-11.90107 0.574922,-2.25271 0.971925,-8.16137 1.743063,-10.55137 1.130651,-3.50425 1.371624,-5.30484 4.718955,-9.3306 3.669532,-4.41327 5.011531,-5.39098 8.434248,-7.64506 2.609695,-1.65422 6.792274,-5.59182 8.378044,-7.61308 3.123808,-3.78323 3.787531,-5.57585 5.156154,-8.91026 1.391628,-2.92198 3.202463,-7.07894 4.2769,-9.86454 1.865467,-3.70351 2.904602,-7.53872 4.491448,-10.84904 0.985067,-2.04664 3.231239,-7.16678 4.817418,-10.889727 2.767374,-6.582609 6.637211,-11.725202 8.861576,-18.616501 0.254742,-0.860688 -0.776467,-4.324874 -1.430369,-5.798516 C 66.970443,67.979299 65.26986,59.712731 64.597941,50.336971 63.505232,35.08965 62.561702,33.070044 66.01133,31.563912 c 2.090644,-0.520972 5.134212,2.526605 9.797861,6.958076 6.661257,6.329627 8.534548,7.797881 9.724189,8.418039 2.553075,1.247745 3.460661,1.704516 4.149924,-6.163613 0.68921,-6.705286 2.87478,-15.861666 4.259877,-21.844598 0.971164,-4.685694 1.172515,-5.810391 5.442936,-6.181002 3.080593,-0.267352 10.713683,10.159364 14.352533,17.292611 2.89486,5.674834 4.10713,6.954976 6.56116,6.928627 1.08149,-0.01161 2.92176,0.290862 4.08955,0.672164 2.02109,0.659925 3.87825,0.940129 17.46573,2.6352 3.21455,0.401022 8.64242,1.354802 12.06192,2.11951 26.29633,5.832509 39.59429,14.771513 56.88456,28.054825 8.03943,6.134543 18.30679,15.665768 28.21466,29.639129 4.86123,6.85593 11.30522,16.90723 14.31997,22.33623 6.86498,11.69803 13.69919,23.5771 18.00338,36.33406 2.53456,7.77862 4.57577,15.75109 6.05,23.69556 1.67932,9.07511 2.90559,15.39384 3.79384,37.40533 0.4131,10.23668 -0.61526,26.57524 -2.75647,43.79485 -0.41284,3.32027 -0.91831,7.63451 -1.12321,9.58719 -0.54499,5.19363 -1.07354,5.80997 -5.4555,6.36174 -3.3484,0.42163 -69.64267,1.13942 -70.06673,0.7587 z"
     style="display:inline;fill:url(#linearGradient824);fill-opacity:1;stroke-width:0.71926272" />
  <path
     style="display:inline;fill:#000000;fill-opacity:1;stroke-width:0.71926272"
     d="m 201.78151,280.36648 c -0.088,-0.0791 -15.75335,-0.1765 -34.81177,-0.21656 -19.05842,-0.0401 -41.71211,-0.29177 -50.34153,-0.55936 -8.62942,-0.26758 -18.632238,-0.4479 -22.228475,-0.40068 -5.009969,0.0657 -6.730324,-0.16307 -7.358654,-0.97884 -0.975474,-1.26647 -2.952671,-15.57694 -2.849404,-20.62321 0.114973,-5.61778 4.390955,-17.07363 8.770237,-23.49647 6.482582,-9.26055 13.183266,-16.18621 22.711346,-22.53843 3.31452,-2.46228 9.23146,-6.21698 12.36251,-8.75802 7.40687,-6.01117 12.00806,-14.20071 13.5841,-20.16445 0.61453,-2.3254 0.68732,-3.06455 -0.52364,-4.21557 -1.52187,-1.44655 -2.82148,-0.33255 -7.26208,1.01327 -3.896,0.7089 -7.10382,1.24259 -12.66246,1.08097 -9.44799,-0.27472 -10.6495,-1.27232 -12.45133,0.78711 -4.50857,4.11563 -4.54136,6.9447 -12.298802,11.25599 -5.961485,3.31316 -7.053209,4.4258 -9.647217,7.65836 -1.807973,2.18216 -3.745082,7.58668 -4.063825,8.33493 -1.637704,3.84452 -6.114518,6.21308 -11.828817,6.27444 -2.143193,0.023 -5.940982,-0.6214 -8.439532,-1.43202 -4.175069,-1.35455 -5.492983,-2.06514 -10.209839,-1.20961 -2.822778,0.51199 -6.740854,1.27652 -8.053318,1.49527 -3.564819,0.59415 -13.955842,-2.95695 -16.346333,-5.65621 -1.020703,-1.15255 -3.016447,-4.68412 -5.358016,-8.46462 -1.811074,-2.92401 -2.972612,-7.64057 -3.052434,-14.32314 -0.04455,-3.73026 -0.131981,-9.64443 0.443929,-11.90107 0.574922,-2.25271 0.971925,-8.16137 1.743063,-10.55137 1.130651,-3.50425 1.371624,-5.30484 4.718955,-9.3306 3.669532,-4.41327 5.011531,-5.39098 8.434248,-7.64506 2.609695,-1.65422 6.792274,-5.59182 8.378044,-7.61308 3.123808,-3.78323 3.787531,-5.57585 5.156154,-8.91026 1.391628,-2.92198 3.202463,-7.07894 4.2769,-9.86454 1.865467,-3.70351 2.904602,-7.53872 4.491448,-10.84904 0.985067,-2.04664 3.231239,-7.16678 4.817418,-10.889727 2.767374,-6.582609 6.637211,-11.725202 8.861576,-18.616501 0.254742,-0.860688 -0.776467,-4.324874 -1.430369,-5.798516 C 66.970443,67.979299 65.26986,59.712731 64.597941,50.336971 63.505232,35.08965 62.561702,33.070044 66.01133,31.563912 c 2.090644,-0.520972 5.134212,2.526605 9.797861,6.958076 6.661257,6.329627 8.534548,7.797881 9.724189,8.418039 2.553075,1.247745 3.460661,1.704516 4.149924,-6.163613 0.68921,-6.705286 2.87478,-15.861666 4.259877,-21.844598 0.971164,-4.685694 1.172515,-5.810391 5.442936,-6.181002 3.080593,-0.267352 10.713683,10.159364 14.352533,17.292611 2.89486,5.674834 4.10713,6.954976 6.56116,6.928627 1.08149,-0.01161 2.92176,0.290862 4.08955,0.672164 2.02109,0.659925 3.87825,0.940129 17.46573,2.6352 3.21455,0.401022 8.64242,1.354802 12.06192,2.11951 26.29633,5.832509 39.59429,14.771513 56.88456,28.054825 8.03943,6.134543 18.30679,15.665768 28.21466,29.639129 4.86123,6.85593 11.30522,16.90723 14.31997,22.33623 6.86498,11.69803 13.69919,23.5771 18.00338,36.33406 2.53456,7.77862 4.57577,15.75109 6.05,23.69556 1.67932,9.07511 2.90559,15.39384 3.79384,37.40533 0.4131,10.23668 -0.61526,26.57524 -2.75647,43.79485 -0.41284,3.32027 -0.91831,7.63451 -1.12321,9.58719 -0.54499,5.19363 -1.07354,5.80997 -5.4555,6.36174 -3.3484,0.42163 -69.64267,1.13942 -70.06673,0.7587 z m 61.24302,-15.22202 c 2.32214,-0.59073 2.36333,-2.7469 -1.97617,-7.08306 -5.14164,-4.23171 -3.52397,-9.17975 -0.99385,-11.86204 2.09179,-2.21757 6.91452,-7.5948 6.76699,-10.57301 -0.0221,-2.43937 -2.34,-6.23505 -5.24609,-5.3966 -3.73605,-0.6099 -4.82748,-1.72026 -4.87903,-6.8056 -0.17258,-3.92026 0.90595,-5.47477 4.43842,-10.82343 1.78723,-2.16473 3.7149,-4.96793 4.28374,-6.22933 2.72405,-3.52275 1.73525,-9.83268 0.45465,-10.61887 -2.82074,-1.41709 -5.00438,1.26953 -6.92124,1.45964 -3.86479,0.33653 -5.40784,-2.84216 -6.06055,-7.0492 -0.0955,-7.60916 0.64266,-9.9202 3.66526,-14.57325 5.91866,-9.11126 1.72816,-20.17836 -3.89455,-14.14356 -0.91782,0.9851 -2.30193,1.79788 -3.0758,1.80619 -2.0842,0.0224 -5.91131,-5.29831 -7.06039,-9.80946 -1.14797,-4.73736 -0.59896,-6.32553 0.97327,-9.25253 1.25605,-1.69187 2.60876,-4.35048 2.2698,-7.40712 -0.34028,-3.0687 -0.83396,-4.08581 -2.78893,-5.74593 -1.62056,-1.37615 -3.70464,-0.99109 -4.52397,-0.62036 -0.66052,0.29887 -1.89755,3.52427 -4.56433,3.42187 -2.4217,0.37012 -5.14745,-4.584 -7.26592,-8.96226 -0.93161,-1.92538 -1.25957,-5.74131 0.37361,-9.0133 0,0 2.33229,-2.78166 1.90617,-6.38584 -0.53433,-4.51951 -2.89971,-6.96903 -4.95988,-6.94692 -0.77898,0.008 -1.89996,0.78442 -2.31521,1.56013 -3.76647,4.45058 -6.82689,2.81077 -10.68141,-1.98825 -1.80038,-2.241514 -1.97402,-2.964229 -1.84428,-7.675718 0.16269,-5.908236 -0.64029,-10.936005 -2.32492,-11.950265 -0.98145,-0.638647 -2.89823,-1.900554 -4.20768,2.520468 -0.26287,0.761989 -2.60773,3.741807 -5.95803,1.504129 -4.88167,-2.581778 -5.80588,-4.695463 -8.52113,-14.310163 -1.80208,-6.3812 -4.72992,-8.148842 -5.75971,-3.323865 -0.24075,1.127955 -0.9932,2.550798 -1.6721,3.161871 -1.11728,1.005661 -1.51143,0.986927 -4.15557,-0.197562 -1.60669,-0.719733 -3.45493,-1.72203 -4.10722,-2.227327 -1.51089,-1.170397 -4.77968,-7.272238 -5.46938,-10.209616 -0.648,-2.759885 -1.73411,-4.169063 -3.93524,-4.555611 -1.46619,-0.257482 -2.6344,1.409637 -2.30184,5.105522 -0.27177,3.335584 -0.54888,3.93888 -1.90208,4.1411 -1.58728,0.237198 -6.51545,-2.286432 -8.03631,-4.115244 -0.44564,-0.535893 -1.4124,-2.563742 -2.14833,-4.50633 -1.28648,-6.808726 -7.49324,-8.658869 -7.68283,-4.67432 -0.11994,1.622487 -0.24147,4.523547 -1.37042,5.578354 -1.71429,1.601739 -3.14199,1.249859 -6.07449,0.291891 -2.05116,-0.670061 -3.60707,-1.814837 -4.70989,-3.46537 -3.12433,-4.675976 -3.35897,-4.802514 -7.34867,-3.963053 -1.9804,0.416693 -4.48199,0.552633 -5.55907,0.30209 -3.27093,-0.760853 -6.95063,-4.420212 -8.59493,-8.547405 -0.83839,-2.10434 -1.82658,-4.388465 -2.19599,-5.075836 -0.36941,-0.68737 -1.2329,-2.480146 -1.91888,-3.983945 -1.44,-3.15681 -1.82753,-3.235233 -2.34315,0.799275 -0.39584,2.197518 -0.74194,4.104524 -1.050623,6.239413 -0.285581,1.975108 -0.975861,5.6068 -1.13669,10.410237 -0.208402,5.001554 -1.096563,9.538514 5.011433,16.631643 3.92768,4.561132 12.89031,6.44579 12.9255,9.392695 0.0265,2.217685 -1.82372,5.320307 -4.29665,5.876364 -2.78743,0.562284 -3.81549,0.374454 -7.87844,-2.592158 -4.07423,-2.974842 -8.92972,-6.157794 -10.84778,-5.546162 -2.185014,0.696763 -3.238619,1.932132 -9.31548,10.922525 -3.435448,5.082551 -3.371283,4.972633 -5.48151,9.390576 -0.842808,1.76449 -2.922782,5.816067 -4.622159,9.003507 -1.699377,3.18743 -4.123593,8.3202 -5.387143,11.40615 -4.017014,9.81066 -6.999408,16.86884 -11.14885,24.85611 -3.883235,7.47485 -4.717685,8.00048 -9.661739,12.99457 -6.43373,6.49885 -11.680117,8.25862 -13.57505,12.41234 -1.658895,3.63633 -2.969047,7.33126 -2.954877,18.04278 -0.197743,6.18949 -1.00242,10.05814 2.435424,15.13819 1.331073,1.96691 2.926065,3.75871 3.544428,3.98179 0.618366,0.22308 3.201765,0.3833 5.740886,0.35603 4.259694,-0.0458 4.760553,-0.21981 6.478854,-2.25179 1.02425,-1.21122 1.855971,-2.72962 1.848271,-3.37423 -0.0078,-0.6446 1.03436,-2.70301 2.315688,-4.57427 1.767711,-2.58155 4.342074,-5.82037 6.465229,-6.12299 1.781703,-0.38829 7.475188,0.9826 8.650151,2.65996 1.175041,1.67748 -1.598434,1.91651 -3.811795,6.16794 -2.776678,5.33345 -0.645211,7.32963 3.378321,8.62285 3.225165,0.44012 7.076921,-0.69836 6.755399,-4.75876 -0.234139,-2.95686 8.289472,-11.73752 16.051482,-15.50886 6.287372,-3.05486 9.50439,-2.9373 8.579499,-6.56456 -0.246331,-0.96606 -7.168787,-3.30026 -9.171878,-4.33807 -2.307592,-1.33227 -7.525684,-5.56621 -8.829664,-7.87116 -1.334488,-2.35888 -1.3751,-5.25412 0.786597,-5.80645 1.230818,-0.31449 3.584707,0.49206 8.170002,2.7994 10.272634,5.16925 17.680494,6.97269 30.724854,7.50458 11.41243,0.46534 15.12411,-0.38961 18.36822,-2.23427 1.09727,-0.7566 4.38429,-2.59298 6.15782,-5.50361 7.05608,-11.58006 10.37181,-11.51545 12.70798,-8.84944 2.19561,2.5056 0.005,6.4213 -0.65396,8.67315 -2.77532,9.47932 -4.68889,9.82247 -4.30762,19.6561 0.25231,6.50715 -2.72491,14.47365 -5.67966,18.9709 -3.12439,4.75541 -11.01903,11.32287 -17.60573,16.53851 -7.08694,5.61176 -13.14893,8.96248 -17.03017,12.88564 -7.04161,7.11767 -10.94528,13.43425 -12.88178,17.24173 -1.85338,3.64405 -3.471763,8.39959 -3.56862,13.59923 -0.08021,4.3034 0.721498,6.97359 8.47136,5.43303 5.53063,-0.80981 11.17748,-1.49461 16.77139,-2.39729 12.17125,-1.46066 22.31059,-2.82048 36.10343,-3.96864 15.35505,-1.54496 44.54826,-0.83453 63.35254,0.67518 10.70547,1.58619 19.87497,3.51102 28.73311,5.5783 6.20763,1.05603 9.84312,1.86763 12.58755,0.62031 z M 42.627379,183.68089 c -1.646394,-1.13237 -2.558308,-2.68131 -2.913182,-3.42294 -0.234861,-0.8433 0.28359,-1.92952 2.018135,-2.87777 1.318395,-0.66388 3.559438,-5.43081 4.575457,-7.12269 1.380301,-2.25577 4.923592,-2.00652 7.256687,-1.1728 4.667142,1.53932 4.111731,4.24763 0.196229,6.80029 -1.387948,0.90486 -3.985787,4.43765 -4.831794,6.18149 -0.844015,1.73972 -1.879112,3.14195 -2.378019,3.3343 -0.498906,0.19236 -2.277118,-0.58749 -3.923513,-1.71988 z m 55.817923,-52.21944 c -0.807748,-0.44505 -2.222377,-1.45821 -3.143612,-2.25148 -0.83997,-1.44984 -2.531793,-3.75294 -6.130099,-0.49752 -1.671626,0.8192 -4.605589,0.80176 -5.587144,-0.13122 -1.411191,-1.60377 -0.840044,-4.44778 -0.112872,-7.475 1.359404,-3.84895 1.665042,-5.58127 5.767042,-10.68242 3.269309,-4.47799 5.935396,-4.32483 11.903503,-1.82397 6.93845,3.12868 7.85417,2.0465 12.73715,1.77069 5.8956,-0.333 5.15934,-0.463 7.7298,0.11883 1.81696,0.41126 4.94363,4.04017 5.3493,5.13088 0.63793,1.71525 0.47285,2.23536 -1.22205,3.85032 -2.24417,2.13835 -6.19114,2.55444 -8.49973,0.89607 -3.15075,-2.26334 -5.13173,-0.83389 -7.23736,5.22236 -0.71952,2.0695 -1.83204,4.23421 -2.47227,4.81048 -1.57052,1.41363 -7.24009,2.07661 -9.081658,1.06198 z M 86.097463,66.656563 c 1.729271,-1.3745 0.447388,-4.167895 -3.222893,-8.130283 -2.476139,-2.67321 -3.910834,-4.010993 -4.184489,-6.255552 -0.330849,-2.713671 -0.44981,-4.482671 -2.200113,-3.807834 -1.759104,0.67823 -2.700629,3.671994 -2.644067,8.40735 0.04433,3.711523 0.417273,4.982035 2.27973,7.766422 1.86181,2.783432 3.943936,4.823744 5.912652,4.618358 0.728413,-0.08105 3.174839,-1.981698 4.05918,-2.598461 z"
     id="path816"
     inkscape:connector-curvature="0"
     sodipodi:nodetypes="ccccccccscccscscscscccssssscccccccsscscccssccsccscccscsscccccccccccccsccccccccscccccccccscccccsccccccsssscsccscsccscssccssscccccccccscssscsssscssssssscscccccccccccsccccccccccssccccccccscsscc" />
</svg>
