<?xml version="1.0" encoding="UTF-8" standalone="no"?>
<svg
   xmlns:dc="http://purl.org/dc/elements/1.1/"
   xmlns:cc="http://creativecommons.org/ns#"
   xmlns:rdf="http://www.w3.org/1999/02/22-rdf-syntax-ns#"
   xmlns:svg="http://www.w3.org/2000/svg"
   xmlns="http://www.w3.org/2000/svg"
   xmlns:xlink="http://www.w3.org/1999/xlink"
   xmlns:sodipodi="http://sodipodi.sourceforge.net/DTD/sodipodi-0.dtd"
   xmlns:inkscape="http://www.inkscape.org/namespaces/inkscape"
   version="1.0"
   width="300.000000pt"
   height="300.000000pt"
   viewBox="0 0 300.000000 300.000000"
   preserveAspectRatio="xMidYMid meet"
   id="svg2"
   inkscape:version="0.92.5 (2060ec1f9f, 2020-04-08)"
   sodipodi:docname="wp.svg">
  <defs
     id="defs12">
    <linearGradient
       inkscape:collect="always"
       id="linearGradient822">
      <stop
         style="stop-color:#fffdf4;stop-opacity:1"
         offset="0"
         id="stop818" />
      <stop
         style="stop-color:#d6d0c2;stop-opacity:1"
         offset="1"
         id="stop820" />
    </linearGradient>
    <linearGradient
       inkscape:collect="always"
       xlink:href="#linearGradient822"
       id="linearGradient824"
       x1="57.308587"
       y1="152.14408"
       x2="242.99307"
       y2="152.14408"
       gradientUnits="userSpaceOnUse" />
  </defs>
  <sodipodi:namedview
     pagecolor="#ffffff"
     bordercolor="#666666"
     borderopacity="1"
     objecttolerance="10"
     gridtolerance="10"
     guidetolerance="10"
     inkscape:pageopacity="0"
     inkscape:pageshadow="2"
     inkscape:window-width="1279"
     inkscape:window-height="1008"
     id="namedview10"
     showgrid="false"
     inkscape:zoom="1.2675282"
     inkscape:cx="248.37933"
     inkscape:cy="226.45833"
     inkscape:window-x="10"
     inkscape:window-y="0"
     inkscape:window-maximized="0"
     inkscape:current-layer="svg2"
     inkscape:pagecheckerboard="true" />
  <metadata
     id="metadata4">
Created by potrace 1.12, written by Peter Selinger 2001-2015
<rdf:RDF>
  <cc:Work
     rdf:about="">
    <dc:format>image/svg+xml</dc:format>
    <dc:type
       rdf:resource="http://purl.org/dc/dcmitype/StillImage" />
    <dc:title />
  </cc:Work>
</rdf:RDF>
</metadata>
  <path
     sodipodi:nodetypes="ssccccccccccccccssscssccscccccssccccccccccsccccccccssss"
     inkscape:connector-curvature="0"
     id="path848"
     d="m 150.69617,26.760257 c -2.85545,0.03231 -5.66777,0.355128 -8.16416,0.855175 -5.51017,1.103728 -8.99208,2.191245 -14.33035,6.81372 -5.35819,4.679161 -8.80558,11.965508 -8.77324,20.139698 0.19095,4.544411 1.97548,9.700117 3.68218,14.131934 0.53649,1.20437 0.69336,1.812281 1.17202,2.665502 1.21434,2.164587 1.08704,2.586253 -0.43374,3.065408 -1.8264,0.610084 -3.92281,1.370644 -5.94163,2.076417 -6.97013,1.929407 -21.092674,9.09353 -24.550933,11.238791 -4.165331,2.53597 -8.06385,5.92902 -11.946312,9.551521 -7.065056,6.867627 -8.44448,9.115637 -11.14343,14.165767 -3.430911,6.4197 -4.161906,12.33835 -2.110255,14.00735 0.665084,0.54104 9.822154,0.84756 29.157492,0.97514 l 28.186968,0.18611 0.38759,2.13024 c 0.37953,2.08792 -0.80036,13.03637 -1.81493,16.84205 -0.28252,1.05971 -3.12568,7.13151 -6.31846,13.49363 -7.28027,14.50707 -9.20991,20.20608 -9.96526,29.42512 -0.73223,8.93691 -0.37077,12.61819 1.91953,19.55984 1.72515,5.2287 2.91743,7.36621 7.91807,14.19191 4.3913,5.99398 4.40742,5.97234 -5.32023,6.7645 -7.80158,0.63532 -11.06848,1.40342 -18.310929,4.30819 -6.362291,2.55176 -11.035576,5.40868 -15.405469,8.47485 -5.116954,4.21754 -7.720642,6.28566 -12.19548,11.70944 -1.539107,2.04298 -4.643454,6.93829 -5.494044,8.84246 -1.80885,4.04937 -4.095726,13.5199 -3.494531,14.4734 0.567605,0.90022 184.910233,0.91396 185.477793,0.0139 0.64275,-1.01943 -1.69745,-10.55597 -3.5776,-14.57644 -0.91335,-1.95312 -3.09635,-5.51051 -4.44199,-7.19209 -3.82518,-4.74921 -7.69228,-9.03367 -12.89685,-12.89685 -4.14739,-3.0857 -11.51511,-7.33833 -19.61367,-10.2252 -1.99258,-0.71029 -9.58366,-2.31618 -14.2719,-2.70396 -8.15882,-0.67483 -8.58656,-1.01917 -8.13494,-2.43478 0.5498,-1.72339 4.34564,-6.79843 5.78167,-8.71633 2.98343,-3.98451 6.44256,-13.25217 7.02137,-18.93845 0.58514,-5.74836 -0.74845,-17.47657 -2.63782,-23.18512 -0.96964,-2.92967 -4.37741,-10.5998 -7.57201,-17.04507 -3.19458,-6.44528 -6.0443,-12.501 -6.33229,-13.45671 -0.96672,-3.20799 -2.18621,-14.57571 -1.79495,-16.72823 l 0.38607,-2.13024 28.1885,-0.18611 c 19.33534,-0.12758 28.6093,-0.19723 29.27437,-0.73827 2.10798,-1.71481 1.40326,-7.12409 -2.14407,-14.04734 -2.92712,-5.71278 -4.00285,-7.73769 -10.98655,-14.425707 -3.00071,-2.86445 -8.09458,-6.50277 -12.16473,-9.406936 -3.26399,-2.303705 -17.46161,-9.320913 -24.57245,-11.311083 -1.82932,-0.636568 -4.01368,-1.345617 -6.0893,-1.967214 -1.40293,-0.47139 -1.61885,-1.13615 -0.40451,-3.300734 0.92902,-1.986556 1.59204,-3.562126 2.46556,-6.076978 1.16763,-2.671112 2.30422,-6.835138 2.50708,-10.545117 0.13044,-4.379297 -0.94613,-7.86164 -2.00413,-10.592798 -1.96556,-4.114061 -3.22982,-6.394154 -7.06135,-9.726855 -4.62168,-4.019966 -6.9498,-5.234328 -12.68614,-6.658374 -2.67027,-0.662896 -5.57019,-0.921318 -8.42563,-0.889014 z"
     style="display:inline;fill:url(#linearGradient824);stroke-width:0.71895272;fill-opacity:1" />
  <path
     style="display:inline;fill:#000000;stroke-width:0.71895272"
     d="m 150.69617,26.760257 c -2.85545,0.03231 -5.66777,0.355128 -8.16416,0.855175 -5.51017,1.103728 -8.99208,2.191245 -14.33035,6.81372 -5.35819,4.679161 -8.80558,11.965508 -8.77324,20.139698 0.19095,4.544411 1.97548,9.700117 3.68218,14.131934 0.53649,1.20437 0.69336,1.812281 1.17202,2.665502 1.21434,2.164587 1.08704,2.586253 -0.43374,3.065408 -1.8264,0.610084 -3.92281,1.370644 -5.94163,2.076417 -6.97013,1.929407 -21.092674,9.09353 -24.550933,11.238791 -4.165331,2.53597 -8.06385,5.92902 -11.946312,9.551521 -7.065056,6.867627 -8.44448,9.115637 -11.14343,14.165767 -3.430911,6.4197 -4.161906,12.33835 -2.110255,14.00735 0.665084,0.54104 9.822154,0.84756 29.157492,0.97514 l 28.186968,0.18611 0.38759,2.13024 c 0.37953,2.08792 -0.80036,13.03637 -1.81493,16.84205 -0.28252,1.05971 -3.12568,7.13151 -6.31846,13.49363 -7.28027,14.50707 -9.20991,20.20608 -9.96526,29.42512 -0.73223,8.93691 -0.37077,12.61819 1.91953,19.55984 1.72515,5.2287 2.91743,7.36621 7.91807,14.19191 4.3913,5.99398 4.40742,5.97234 -5.32023,6.7645 -7.80158,0.63532 -11.06848,1.40342 -18.310929,4.30819 -6.362291,2.55176 -11.035576,5.40868 -15.405469,8.47485 -5.116954,4.21754 -7.720642,6.28566 -12.19548,11.70944 -1.539107,2.04298 -4.643454,6.93829 -5.494044,8.84246 -1.80885,4.04937 -4.095726,13.5199 -3.494531,14.4734 0.567605,0.90022 184.910233,0.91396 185.477793,0.0139 0.64275,-1.01943 -1.69745,-10.55597 -3.5776,-14.57644 -0.91335,-1.95312 -3.09635,-5.51051 -4.44199,-7.19209 -3.82518,-4.74921 -7.69228,-9.03367 -12.89685,-12.89685 -4.14739,-3.0857 -11.51511,-7.33833 -19.61367,-10.2252 -1.99258,-0.71029 -9.58366,-2.31618 -14.2719,-2.70396 -8.15882,-0.67483 -8.58656,-1.01917 -8.13494,-2.43478 0.5498,-1.72339 4.34564,-6.79843 5.78167,-8.71633 2.98343,-3.98451 6.44256,-13.25217 7.02137,-18.93845 0.58514,-5.74836 -0.74845,-17.47657 -2.63782,-23.18512 -0.96964,-2.92967 -4.37741,-10.5998 -7.57201,-17.04507 -3.19458,-6.44528 -6.0443,-12.501 -6.33229,-13.45671 -0.96672,-3.20799 -2.18621,-14.57571 -1.79495,-16.72823 l 0.38607,-2.13024 28.1885,-0.18611 c 19.33534,-0.12758 28.6093,-0.19723 29.27437,-0.73827 2.10798,-1.71481 1.40326,-7.12409 -2.14407,-14.04734 -2.92712,-5.71278 -4.00285,-7.73769 -10.98655,-14.425707 -3.00071,-2.86445 -8.09458,-6.50277 -12.16473,-9.406936 -3.26399,-2.303705 -17.46161,-9.320913 -24.57245,-11.311083 -1.82932,-0.636568 -4.01368,-1.345617 -6.0893,-1.967214 -1.40293,-0.47139 -1.61885,-1.13615 -0.40451,-3.300734 0.92902,-1.986556 1.59204,-3.562126 2.46556,-6.076978 1.16763,-2.671112 2.30422,-6.835138 2.50708,-10.545117 0.13044,-4.379297 -0.94613,-7.86164 -2.00413,-10.592798 -1.96556,-4.114061 -3.22982,-6.394154 -7.06135,-9.726855 -4.62168,-4.019966 -6.9498,-5.234328 -12.68614,-6.658374 -2.67027,-0.662896 -5.57019,-0.921318 -8.42563,-0.889014 z m 0.71345,13.031749 c 5.93274,0.0147 9.28446,2.039081 12.85401,6.914148 2.12643,2.90413 2.81131,4.241059 2.84853,7.904225 0.0316,3.106424 -0.42592,5.113473 -2.15178,8.863989 -1.34093,2.452514 -3.69752,4.83663 -5.03026,6.223731 -3.38812,3.526279 -3.282,4.4377 -2.51417,9.362858 1.21614,5.74186 3.05634,6.301237 11.12797,7.630742 14.84904,1.953425 26.77766,9.384716 35.96993,16.476181 2.7346,2.10963 8.89977,8.19522 8.89977,10.06627 0,0.42153 -25.2964,0.11284 -62.87434,0.11284 -40.48167,0 -63.261588,0.0441 -63.261588,-0.44346 -0.09153,-1.90476 5.681803,-8.02164 9.000099,-10.96628 1.866789,-1.65656 6.449849,-4.963309 9.179409,-6.636932 4.26674,-2.616141 15.75663,-7.091767 25.71654,-8.715058 9.53955,-1.554781 10.19265,-1.199945 11.3945,-6.850848 0.93619,-4.420065 1.79996,-5.752396 -1.58816,-9.278672 -1.33275,-1.3871 -3.48537,-4.464051 -4.78346,-6.83833 -3.17472,-5.806833 -3.29934,-11.18443 -0.3599,-15.525439 4.50471,-6.652628 7.41125,-8.320188 15.5729,-8.299965 z m -10.6741,86.693124 h 9.44077 9.44077 l 0.19995,3.20229 c 0.23666,3.7775 3.35773,20.63901 4.91573,26.55968 0.59883,2.27566 2.8822,7.05363 5.07414,10.6174 2.19194,3.56377 4.35005,7.78674 4.79576,9.3854 0.44571,1.59868 1.26552,3.92979 1.82263,5.18027 2.90847,8.40508 3.83872,12.60164 2.35381,19.50282 -1.2469,4.47526 -4.48298,11.04405 -7.90322,15.23639 -5.14535,6.30689 -6.03503,8.51505 -5.63555,13.98736 0.38648,5.29453 1.48037,7.45695 5.12029,10.1206 1.60518,1.17465 3.59977,1.50708 11.57409,1.92261 7.94537,0.41402 10.71662,0.87152 15.80692,2.61168 11.4897,3.9278 19.20804,8.79261 23.09191,14.24801 3.55841,5.99836 2.41916,4.84073 -16.79344,5.15638 -15.85476,0.13988 -32.10636,0.14707 -44.63371,0.002 -15.1775,-0.17539 -31.3786,0.10405 -37.64158,0.15227 -9.19089,-0.16704 -18.63104,0.0112 -25.865989,-0.17226 -17.553486,-0.44096 -19.893895,0.65001 -17.037288,-4.08277 5.18932,-8.59759 24.475567,-17.9656 39.262607,-17.9656 7.64056,0 10.8156,-0.79551 13.72126,-3.43762 2.34473,-2.13206 3.4344,-5.46257 3.4407,-10.50975 0.003,-3.01052 -0.47733,-4.35557 -2.82854,-7.92114 -1.55775,-2.36231 -3.20011,-4.51654 -3.64834,-4.78806 -1.59413,-0.96567 -5.83876,-10.42626 -6.86323,-14.33616 -1.62744,-6.93455 -0.66927,-13.05187 1.99827,-19.76166 0.54751,-1.23065 1.35917,-3.53973 1.80264,-5.13106 0.44345,-1.59133 2.40151,-5.49517 4.35124,-8.67481 4.29569,-7.00548 5.64739,-10.2036 6.59992,-15.61618 0.40011,-2.27352 1.26145,-6.85608 1.91492,-10.18367 0.65346,-3.32758 1.39961,-8.13278 1.65652,-10.67739 z"
     id="path816"
     inkscape:connector-curvature="0"
     sodipodi:nodetypes="ssccccccccccccccssscssccscccccssccccccccccsccccccccssssccscsccssscssscscscccccsssccssscccccccssccccccsccccc" />
</svg>
