<?xml version="1.0" encoding="UTF-8" standalone="no"?>
<svg
   xmlns:dc="http://purl.org/dc/elements/1.1/"
   xmlns:cc="http://creativecommons.org/ns#"
   xmlns:rdf="http://www.w3.org/1999/02/22-rdf-syntax-ns#"
   xmlns:svg="http://www.w3.org/2000/svg"
   xmlns="http://www.w3.org/2000/svg"
   xmlns:xlink="http://www.w3.org/1999/xlink"
   xmlns:sodipodi="http://sodipodi.sourceforge.net/DTD/sodipodi-0.dtd"
   xmlns:inkscape="http://www.inkscape.org/namespaces/inkscape"
   version="1.0"
   width="300.000000pt"
   height="300.000000pt"
   viewBox="0 0 300.000000 300.000000"
   preserveAspectRatio="xMidYMid meet"
   id="svg2"
   inkscape:version="0.92.5 (2060ec1f9f, 2020-04-08)"
   sodipodi:docname="wq.svg">
  <defs
     id="defs12">
    <linearGradient
       inkscape:collect="always"
       id="linearGradient888">
      <stop
         style="stop-color:#fffdf4;stop-opacity:1"
         offset="0"
         id="stop884" />
      <stop
         style="stop-color:#d6d0c2;stop-opacity:0.99607843"
         offset="1"
         id="stop886" />
    </linearGradient>
    <linearGradient
       inkscape:collect="always"
       xlink:href="#linearGradient888"
       id="linearGradient890"
       x1="11.351454"
       y1="149.20627"
       x2="288.27014"
       y2="149.20627"
       gradientUnits="userSpaceOnUse" />
  </defs>
  <sodipodi:namedview
     pagecolor="#ffffff"
     bordercolor="#666666"
     borderopacity="1"
     objecttolerance="10"
     gridtolerance="10"
     guidetolerance="10"
     inkscape:pageopacity="0"
     inkscape:pageshadow="2"
     inkscape:window-width="1281"
     inkscape:window-height="1008"
     id="namedview10"
     showgrid="false"
     inkscape:zoom="1.6484552"
     inkscape:cx="138.38959"
     inkscape:cy="216.2179"
     inkscape:window-x="10"
     inkscape:window-y="0"
     inkscape:window-maximized="0"
     inkscape:current-layer="svg2"
     inkscape:pagecheckerboard="true" />
  <metadata
     id="metadata4">
Created by potrace 1.12, written by Peter Selinger 2001-2015
<rdf:RDF>
  <cc:Work
     rdf:about="">
    <dc:format>image/svg+xml</dc:format>
    <dc:type
       rdf:resource="http://purl.org/dc/dcmitype/StillImage" />
    <dc:title />
  </cc:Work>
</rdf:RDF>
</metadata>
  <path
     sodipodi:nodetypes="cssccccccsccccsccccscccccccccccccccccccccccccscccsccccccsccccsscccccccccssscsc"
     inkscape:connector-curvature="0"
     id="path814"
     d="m 105.236,17.838455 c -2.84114,0.06175 -6.425555,1.01474 -8.785079,2.104301 -4.670938,2.156911 -9.134677,7.83898 -10.593276,11.553451 -1.305691,3.325073 -2.384897,8.997576 -1.278735,13.578457 1.131929,4.449398 3.124792,8.595611 7.697072,12.88482 1.897631,1.787317 4.090525,2.682856 4.703578,3.412408 0.704923,1.149738 -0.608472,6.994116 -2.29058,13.906179 -1.23669,5.08174 -2.550933,11.908687 -5.944597,28.844599 -2.048563,9.83872 -4.036217,19.68426 -5.844947,27.77816 -0.660398,3.9522 -1.569571,9.13684 -2.186485,9.42176 -0.74413,0.34366 -5.846104,-3.30611 -12.752369,-8.4097 -2.365019,-1.55922 -7.583423,-5.18416 -9.405551,-6.55296 -3.708869,-2.81696 -9.493118,-5.82564 -12.406286,-8.52584 -2.006957,-1.55516 -2.530453,-2.06397 -0.838698,-6.68288 0.8356,-2.10387 0.75745,-5.52458 0.509465,-7.20527 -0.529504,-3.58867 -2.969744,-7.574297 -5.277771,-10.254956 -4.50605,-4.014961 -8.146809,-4.416341 -11.96264,-4.391413 -5.235126,0 -8.115295,1.202063 -11.287194,4.256534 -3.229505,3.164834 -5.619166,8.332295 -5.607735,12.784485 0.03845,4.41597 1.260737,7.07475 2.86391,10.01841 1.893628,3.47698 7.859175,6.77693 10.096183,7.12376 4.654192,0.73285 6.175381,1.04467 7.753784,6.09703 1.254822,3.51417 3.465479,10.03959 4.458671,12.80845 0.99319,2.76886 2.45337,7.00395 4.167973,11.19174 4.049684,11.56377 8.393181,21.8097 11.93722,31.91879 1.241321,5.02115 2.544758,10.69498 3.358096,17.10403 0.579308,5.75543 1.448042,10.90441 2.459107,19.65149 0.730037,6.80125 2.258666,17.5444 3.371013,26.38815 0.883392,5.6255 1.532623,12.19141 2.925217,14.97873 1.367146,2.31278 6.505156,4.19519 11.062017,5.5066 8.867129,2.39966 18.710925,4.88332 28.452047,7.2365 13.64048,2.94328 28.12669,4.06415 41.08843,4.20974 3.39119,-0.11967 13.6124,-0.0754 19.33622,-0.40528 6.72784,-0.31817 18.72364,-2.10782 28.12381,-3.51283 7.15117,-1.27641 12.86419,-3.38022 19.23037,-4.85556 7.03824,-2.0017 18.8192,-5.45943 20.81039,-7.27698 1.92802,-2.39685 2.48506,-5.6698 2.88332,-9.24368 1.8394,-12.39272 2.57231,-16.49423 3.78982,-27.31898 1.21371,-10.531 2.86464,-29.33204 5.9893,-39.41038 1.73681,-6.29678 8.78073,-22.43703 10.7758,-28.65516 2.70639,-7.52846 4.33983,-11.58542 7.09814,-19.43444 0.75942,-2.76862 2.27033,-6.19074 3.31217,-9.52719 1.17747,-2.2488 0.55046,-6.04229 7.14153,-6.52823 4.15766,-0.92356 9.14807,-4.16788 11.50229,-8.49886 0.92436,-1.60488 3.0837,-6.97894 1.93418,-12.78485 -1.74347,-5.619051 -5.50626,-11.718587 -12.36418,-13.243608 -8.3651,-1.860172 -15.49397,0.94813 -19.89182,8.865175 -1.33239,2.665213 -2.42753,5.594933 -1.84418,10.880033 1.48864,5.34089 2.13554,5.34273 0.94855,6.85787 -0.39002,0.73246 -1.93082,1.6412 -4.97412,3.66305 -2.6993,1.7933 -6.38218,4.45844 -9.37785,6.66326 -3.83084,2.83529 -13.95846,9.92805 -16.9758,11.89897 -3.1012,2.13859 -4.50177,3.09725 -4.78235,2.89084 -0.39927,-0.11818 -1.61412,-6.94681 -2.74179,-11.97851 -2.31913,-11.31081 -4.51432,-20.51646 -6.95214,-32.119133 -1.97687,-9.732709 -4.21988,-20.822144 -5.87856,-29.57218 -0.68979,-4.803753 -1.59516,-5.869366 1.26333,-7.135299 2.33029,-1.032008 5.92058,-4.537803 8.22878,-8.481349 1.51848,-2.995215 2.88879,-5.512199 3.11467,-11.887779 -0.0378,-10.8159 -7.41807,-17.524967 -10.89881,-19.371354 -3.93504,-1.94618 -5.03691,-3.068989 -10.78813,-3.058931 -5.8291,0.01021 -8.68807,1.264442 -12.21567,3.544472 -5.48714,3.546545 -9.63219,11.25146 -9.88821,16.755926 -0.26303,5.655044 0.52962,12.325899 5.63857,17.825883 1.30699,1.871174 0.50157,5.36809 0.0896,6.52701 -4.52873,10.119601 -6.68489,15.371387 -11.26351,25.573192 -3.85727,9.644559 -6.87059,17.510332 -10.38838,25.779242 -1.90044,4.60826 -5.03514,12.72373 -5.75523,12.69272 -0.75198,0.11258 -4.28556,-8.51354 -5.44544,-11.71729 -3.90055,-10.01289 -7.90771,-20.34814 -11.19264,-28.032986 -3.45004,-7.862123 -5.76364,-13.500626 -8.97778,-21.861215 -1.21207,-2.789881 -1.94626,-4.368088 -2.41017,-5.800393 -0.71346,-1.755853 -0.52298,-2.960116 0.85549,-4.455231 2.98308,-3.235501 5.01641,-9.131512 5.01641,-12.588547 0,-4.087681 0.0209,-8.043904 -2.25212,-12.399489 -1.75043,-3.354234 -5.64232,-7.771563 -9.77938,-9.92668 -2.62357,-1.366689 -6.72438,-2.070804 -10.48631,-2.070804 z"
     style="display:inline;fill:url(#linearGradient890);fill-opacity:1;stroke-width:0.6653524;stroke:none" />
  <path
     style="display:inline;fill:#000000;fill-opacity:1;stroke-width:0.6665436"
     d="m 141.24616,208.32157 c -2.4845,-1.70564 -11.37955,-5.4163 -11.39931,-7.65319 -0.014,-1.68565 4.40744,-3.89861 7.27077,-5.201 4.59916,-2.09193 8.14266,-3.86495 11.66755,-4.79986 2.89389,-0.72464 4.66971,0.40964 7.12421,1.41487 3.41104,1.44962 6.86075,3.29857 10.12053,4.82853 8.61237,4.04218 4.45989,5.44292 -0.62123,8.16954 -4.81601,2.65723 -11.99101,5.72346 -12.63701,6.05673 -4.00221,1.20066 -7.38725,-1.16284 -11.52551,-2.81562 z"
     id="path827"
     inkscape:connector-curvature="0"
     sodipodi:nodetypes="ccsccsccc" />
  <path
     style="display:inline;fill:#000000;fill-opacity:1;stroke-width:0.6653524"
     d="m 105.236,17.838455 c -2.84114,0.06175 -6.425555,1.01474 -8.785079,2.104301 -4.670938,2.156911 -9.134677,7.83898 -10.593276,11.553451 -1.305691,3.325073 -2.384897,8.997576 -1.278735,13.578457 1.131929,4.449398 3.124792,8.595611 7.697072,12.88482 1.897631,1.787317 4.090525,2.682856 4.703578,3.412408 0.704923,1.149738 -0.608472,6.994116 -2.29058,13.906179 -1.23669,5.08174 -2.550933,11.908687 -5.944597,28.844599 -2.048563,9.83872 -4.036217,19.68426 -5.844947,27.77816 -0.660398,3.9522 -1.569571,9.13684 -2.186485,9.42176 -0.74413,0.34366 -5.846104,-3.30611 -12.752369,-8.4097 -2.365019,-1.55922 -7.583423,-5.18416 -9.405551,-6.55296 -3.708869,-2.81696 -9.493118,-5.82564 -12.406286,-8.52584 -2.006957,-1.55516 -2.530453,-2.06397 -0.838698,-6.68288 0.8356,-2.10387 0.75745,-5.52458 0.509465,-7.20527 -0.529504,-3.58867 -2.969744,-7.574297 -5.277771,-10.254956 -4.50605,-4.014961 -8.146809,-4.416341 -11.96264,-4.391413 -5.235126,0 -8.115295,1.202063 -11.287194,4.256534 -3.229505,3.164834 -5.619166,8.332295 -5.607735,12.784485 0.03845,4.41597 1.260737,7.07475 2.86391,10.01841 1.893628,3.47698 7.859175,6.77693 10.096183,7.12376 4.654192,0.73285 6.175381,1.04467 7.753784,6.09703 1.254822,3.51417 3.465479,10.03959 4.458671,12.80845 0.99319,2.76886 2.45337,7.00395 4.167973,11.19174 4.049684,11.56377 8.393181,21.8097 11.93722,31.91879 1.241321,5.02115 2.544758,10.69498 3.358096,17.10403 0.579308,5.75543 1.448042,10.90441 2.459107,19.65149 0.730037,6.80125 2.258666,17.5444 3.371013,26.38815 0.883392,5.6255 1.532623,12.19141 2.925217,14.97873 1.367146,2.31278 6.505156,4.19519 11.062017,5.5066 8.867129,2.39966 18.710925,4.88332 28.452047,7.2365 13.64048,2.94328 28.12669,4.06415 41.08843,4.20974 3.39119,-0.11967 13.6124,-0.0754 19.33622,-0.40528 6.72784,-0.31817 18.72364,-2.10782 28.12381,-3.51283 7.15117,-1.27641 12.86419,-3.38022 19.23037,-4.85556 7.03824,-2.0017 18.8192,-5.45943 20.81039,-7.27698 1.92802,-2.39685 2.48506,-5.6698 2.88332,-9.24368 1.8394,-12.39272 2.57231,-16.49423 3.78982,-27.31898 1.21371,-10.531 2.86464,-29.33204 5.9893,-39.41038 1.73681,-6.29678 8.78073,-22.43703 10.7758,-28.65516 2.70639,-7.52846 4.33983,-11.58542 7.09814,-19.43444 0.75942,-2.76862 2.27033,-6.19074 3.31217,-9.52719 1.17747,-2.2488 0.55046,-6.04229 7.14153,-6.52823 4.15766,-0.92356 9.14807,-4.16788 11.50229,-8.49886 0.92436,-1.60488 3.0837,-6.97894 1.93418,-12.78485 -1.74347,-5.619051 -5.50626,-11.718587 -12.36418,-13.243608 -8.3651,-1.860172 -15.49397,0.94813 -19.89182,8.865175 -1.33239,2.665213 -2.42753,5.594933 -1.84418,10.880033 1.48864,5.34089 2.13554,5.34273 0.94855,6.85787 -0.39002,0.73246 -1.93082,1.6412 -4.97412,3.66305 -2.6993,1.7933 -6.38218,4.45844 -9.37785,6.66326 -3.83084,2.83529 -13.95846,9.92805 -16.9758,11.89897 -3.1012,2.13859 -4.50177,3.09725 -4.78235,2.89084 -0.39927,-0.11818 -1.61412,-6.94681 -2.74179,-11.97851 -2.31913,-11.31081 -4.51432,-20.51646 -6.95214,-32.119133 -1.97687,-9.732709 -4.21988,-20.822144 -5.87856,-29.57218 -0.68979,-4.803753 -1.59516,-5.869366 1.26333,-7.135299 2.33029,-1.032008 5.92058,-4.537803 8.22878,-8.481349 1.51848,-2.995215 2.88879,-5.512199 3.11467,-11.887779 -0.0378,-10.8159 -7.41807,-17.524967 -10.89881,-19.371354 -3.93504,-1.94618 -5.03691,-3.068989 -10.78813,-3.058931 -5.8291,0.01021 -8.68807,1.264442 -12.21567,3.544472 -5.48714,3.546545 -9.63219,11.25146 -9.88821,16.755926 -0.26303,5.655044 0.52962,12.325899 5.63857,17.825883 1.30699,1.871174 0.50157,5.36809 0.0896,6.52701 -4.52873,10.119601 -6.68489,15.371387 -11.26351,25.573192 -3.85727,9.644559 -6.87059,17.510332 -10.38838,25.779242 -1.90044,4.60826 -5.03514,12.72373 -5.75523,12.69272 -0.75198,0.11258 -4.28556,-8.51354 -5.44544,-11.71729 -3.90055,-10.01289 -7.90771,-20.34814 -11.19264,-28.032986 -3.45004,-7.862123 -5.76364,-13.500626 -8.97778,-21.861215 -1.21207,-2.789881 -1.94626,-4.368088 -2.41017,-5.800393 -0.71346,-1.755853 -0.52298,-2.960116 0.85549,-4.455231 2.98308,-3.235501 5.01641,-9.131512 5.01641,-12.588547 0,-4.087681 0.0209,-8.043904 -2.25212,-12.399489 -1.75043,-3.354234 -5.64232,-7.771563 -9.77938,-9.92668 -2.62357,-1.366689 -6.72438,-2.070804 -10.48631,-2.070804 z m -0.37566,11.685982 c 4.44312,-0.15329 6.26013,1.059506 8.33131,3.174447 1.80068,1.838712 2.83788,4.253133 2.83788,7.40598 0,3.958882 -1.88685,7.047375 -5.43364,9.248587 -4.54696,2.198551 -10.07277,0.552954 -12.827292,-2.838347 -2.385936,-3.024671 -3.760565,-8.151931 0.379874,-13.683172 1.560967,-1.652237 4.349918,-3.321387 6.711868,-3.307495 z m 93.30748,1.224497 c 3.66576,1.622598 5.81252,5.751311 5.79553,9.557268 -0.008,1.845948 -0.46417,5.421052 -3.21286,7.773182 -2.66484,2.280377 -7.47203,5.054417 -13.62894,0.563566 -1.33153,-0.971218 -3.72004,-3.905086 -3.65827,-8.303095 -0.0489,-3.28668 1.68895,-7.131614 4.71792,-9.002712 2.92533,-1.807076 6.6813,-2.051271 9.98662,-0.588209 z m -8.96602,37.120568 c 0.8286,0.02515 2.96717,8.623569 3.24427,10.291803 3.79634,17.829616 7.35804,34.410485 9.94832,48.042575 2.76492,12.77459 3.63673,19.54351 5.99737,30.75006 0.569,3.2024 1.30362,7.83522 1.63912,8.04675 0.33237,0.40435 3.21028,-2.21108 9.25992,-6.416 9.65794,-7.02202 17.88345,-14.25262 26.08112,-19.65174 2.00824,-1.59788 6.12542,-4.96965 6.82504,-4.50471 1.27093,0.87838 -1.35748,6.58506 -2.65933,9.5174 -4.05663,10.02467 -6.3466,16.51535 -11.36492,28.11847 -1.97996,3.8448 -2.03852,5.56356 -3.36282,5.91244 -2.2046,0.52129 -3.36053,-0.27914 -13.70697,-3.2141 -7.46565,-2.06416 -15.38041,-3.84084 -22.86865,-5.50842 -18.18118,-4.43252 -37.15858,-5.09866 -54.309,-5.0847 -12.80049,0.55815 -25.62466,1.79188 -38.13189,4.03932 -12.891784,2.75448 -21.889381,4.81926 -34.117469,8.18618 -2.023245,0.71368 -6.356722,2.3561 -7.381603,1.74879 -2.84781,-4.24704 -5.589178,-12.1434 -7.585306,-16.4783 -1.892506,-4.65996 -3.406511,-8.54538 -6.525115,-16.24181 -2.859377,-7.23064 -4.344839,-11.29449 -3.312356,-11.98064 0.82093,-0.54556 10.456614,6.9695 13.347101,9.15007 3.209967,2.49466 7.939425,5.83852 11.53725,8.78231 3.111531,2.40676 4.854245,3.8131 6.86459,5.45496 5.80193,4.34691 9.254519,7.7828 10.581921,7.60558 1.014733,-0.53946 1.031452,-6.28033 2.448574,-10.37851 1.215128,-7.2542 1.989351,-9.33951 2.705433,-15.34672 3.865121,-19.23376 6.74064,-35.0614 10.85122,-53.000724 2.05745,-10.390384 3.3087,-18.429271 4.99498,-18.429271 1.56663,-0.202586 11.27606,22.807913 15.75842,34.042855 5.51204,13.55998 9.1083,22.78666 15.28248,37.36892 1.3641,3.25358 7.75135,17.8617 8.49359,17.94745 0.56022,0.002 1.37103,-2.12771 3.16397,-5.92473 4.85251,-11.96628 8.55766,-20.0646 12.28048,-29.49514 4.63177,-10.88066 11.02645,-25.876152 15.37519,-36.186195 3.68114,-8.499172 7.67944,-17.259194 8.64507,-17.164223 z M 28.599428,99.22932 c 2.25998,-0.0564 3.514709,0.80051 4.852174,2.00895 2.18451,2.09224 3.454067,5.79341 0.394262,9.48632 -0.999168,1.20591 -3.89139,3.15313 -7.221175,2.08757 -2.22819,-0.71305 -3.322838,-1.71816 -4.538904,-3.98589 -1.139408,-2.12477 -0.594786,-5.32965 1.661001,-7.73651 0.99651,-0.85432 2.416534,-1.799658 4.852642,-1.86044 z m 241.949752,0.42593 c 4.63551,0.08602 7.19286,3.94524 7.13292,6.76636 -0.0224,4.33335 -2.99093,6.44071 -5.14852,7.04497 -2.71585,0.54812 -4.60649,0.0337 -6.793,-1.7986 -2.28083,-2.23887 -2.63975,-4.83097 -1.64406,-7.73059 1.04278,-2.134 3.23194,-4.213261 6.45266,-4.28214 z M 151.10421,176.8178 c 8.82666,-0.005 15.96284,0.1726 23.547,1.10191 10.12789,1.08464 21.00749,3.05067 32.20507,5.77361 8.95099,2.17899 20.00532,3.82891 24.83242,7.67397 2.39845,3.24888 0.15548,11.69347 -1.5664,12.58784 -1.90421,0.76869 -3.18067,1.31097 -9.44703,1.95467 -4.2822,0.88912 -10.26179,0.59272 -11.28006,3.88198 -0.61467,1.98552 3.4997,4.74679 8.32131,8.10944 3.76462,2.46266 6.64265,4.27259 9.35487,6.57017 1.3008,1.15271 1.28319,3.92849 0.98995,7.72269 -0.29324,3.34693 -0.46351,4.81769 -1.24635,5.61248 -1.3098,1.32974 -2.99538,0.92149 -8.41935,-0.80334 -5.01506,-1.52949 -7.1376,-2.38298 -14.47255,-4.33387 -7.47165,-1.98724 -17.28999,-4.47669 -23.51077,-5.24327 -9.36121,-1.11459 -19.17869,-2.07396 -28.41025,-2.09465 -22.30472,0.26255 -33.4899,1.83937 -43.6505,4.12121 -9.30041,2.11 -19.277961,4.95282 -26.329386,6.99485 -3.085385,1.40336 -6.326145,2.3972 -8.950118,2.08258 -1.478272,-1.06505 -1.083592,-5.58458 -1.525782,-7.35359 -0.250661,-2.6724 -0.996408,-5.26738 1.782641,-7.24439 3.204731,-2.09317 3.945002,-2.86909 8.113027,-5.87193 2.699787,-2.11804 9.312472,-6.16904 9.079214,-8.49113 -0.360517,-2.93778 -6.466494,-2.96436 -10.285593,-3.83122 -5.811183,-1.01667 -10.791789,-1.10655 -12.078707,-3.18643 -1.133455,-1.62214 -1.398397,-3.4854 -1.627295,-7.0752 -0.528054,-3.44696 3.167456,-6.24859 7.535996,-7.15943 14.830137,-3.87751 33.161663,-8.33114 45.660143,-9.8332 8.68592,-1.00181 20.02992,-1.65942 31.3785,-1.66575 z m 0.43374,60.78054 c 10.12193,0.0106 21.46851,0.92829 30.38288,2.1155 10.03387,1.70276 19.79387,3.2181 30.43628,7.05597 5.45955,1.97187 10.7718,4.43065 10.51421,6.83369 -0.35408,4.17168 -17.44961,7.54005 -21.7834,8.62999 -12.00578,2.59135 -23.58214,4.51152 -43.69602,5.91595 -13.85818,0.3427 -28.92035,-0.88067 -41.19917,-2.58552 -9.54857,-1.42276 -20.616705,-3.70545 -30.790946,-6.33999 -6.200271,-2.31532 -9.530717,-3.58673 -8.588127,-6.64632 0.595712,-2.03368 7.298953,-4.58351 14.66218,-7.0925 4.21196,-1.49567 10.907853,-2.89517 15.562353,-3.98672 5.05972,-1.36596 20.27822,-3.15282 40.20369,-3.84382 1.28069,-0.0444 2.85008,-0.0578 4.29607,-0.0563 z"
     id="path822"
     inkscape:connector-curvature="0"
     sodipodi:nodetypes="cssccccccsccccsccccscccccccccccccccccccccccccscccsccccccsccccsscccccccccssscscssccccscsscsscscccccccccccccccccccccccccccccccccscssscscccccccccccccccscccsccccccccccccccccccccccccccccc" />
</svg>
