<?xml version="1.0" encoding="UTF-8" standalone="no"?>
<svg
   xmlns:dc="http://purl.org/dc/elements/1.1/"
   xmlns:cc="http://creativecommons.org/ns#"
   xmlns:rdf="http://www.w3.org/1999/02/22-rdf-syntax-ns#"
   xmlns:svg="http://www.w3.org/2000/svg"
   xmlns="http://www.w3.org/2000/svg"
   xmlns:xlink="http://www.w3.org/1999/xlink"
   xmlns:sodipodi="http://sodipodi.sourceforge.net/DTD/sodipodi-0.dtd"
   xmlns:inkscape="http://www.inkscape.org/namespaces/inkscape"
   version="1.0"
   width="300.000000pt"
   height="300.000000pt"
   viewBox="0 0 300.000000 300.000000"
   preserveAspectRatio="xMidYMid meet"
   id="svg2"
   inkscape:version="0.92.5 (2060ec1f9f, 2020-04-08)"
   sodipodi:docname="wr.svg">
  <defs
     id="defs12">
    <linearGradient
       inkscape:collect="always"
       id="linearGradient4533">
      <stop
         style="stop-color:#fffdf4;stop-opacity:1"
         offset="0"
         id="stop4529" />
      <stop
         style="stop-color:#d6d0c2;stop-opacity:1"
         offset="1"
         id="stop4531" />
    </linearGradient>
    <linearGradient
       inkscape:collect="always"
       xlink:href="#linearGradient4533"
       id="linearGradient4535"
       x1="42.545516"
       y1="147.00778"
       x2="258.09259"
       y2="147.00778"
       gradientUnits="userSpaceOnUse" />
  </defs>
  <sodipodi:namedview
     pagecolor="#ffffff"
     bordercolor="#666666"
     borderopacity="1"
     objecttolerance="10"
     gridtolerance="10"
     guidetolerance="10"
     inkscape:pageopacity="0"
     inkscape:pageshadow="2"
     inkscape:window-width="1500"
     inkscape:window-height="1008"
     id="namedview10"
     showgrid="false"
     inkscape:zoom="0.73269265"
     inkscape:cx="-176.2331"
     inkscape:cy="231.31035"
     inkscape:window-x="-2"
     inkscape:window-y="0"
     inkscape:window-maximized="0"
     inkscape:current-layer="svg2"
     inkscape:pagecheckerboard="true" />
  <metadata
     id="metadata4">
Created by potrace 1.12, written by Peter Selinger 2001-2015
<rdf:RDF>
  <cc:Work
     rdf:about="">
    <dc:format>image/svg+xml</dc:format>
    <dc:type
       rdf:resource="http://purl.org/dc/dcmitype/StillImage" />
    <dc:title />
  </cc:Work>
</rdf:RDF>
</metadata>
  <path
     sodipodi:nodetypes="ccsscsccccccccccscccccscccccccccccsccccccscccsc"
     inkscape:connector-curvature="0"
     id="path842"
     d="m 154.6254,13.507535 c -18.06575,-0.03946 -28.99065,0.953794 -30.02395,1.869595 -2.0845,2.11106 -1.22046,1.972266 -1.54642,13.60221 -0.43571,15.544864 1.46016,13.241487 -5.07395,13.604188 -12.51184,0.694517 -21.66751,1.956039 -22.546581,1.277601 -0.659106,-0.508687 -0.504851,-4.00836 -0.504851,-12.886084 0,-9.855999 -0.205536,-12.364462 -1.073582,-13.110645 -1.93766,-1.665619 -35.616456,1.521807 -36.270512,2.531689 -0.493529,0.552417 0.01458,10.994228 -0.126757,24.330982 l -0.256861,24.247925 6.152344,6.158494 c 3.384131,3.386723 8.255587,8.637584 10.825051,11.669459 6.59469,7.781524 5.078311,3.870664 5.616725,17.677481 0.06827,7.37994 0.05701,67.56074 0.22302,88.44456 -0.119078,2.88279 -0.218996,4.27792 -2.260621,5.5153 -3.976804,3.01758 -11.078389,8.34281 -15.430078,11.41106 -7.372202,5.2696 -6.209406,2.93458 -6.103125,13.92584 0.08739,9.03725 0.516952,8.70656 -1.724195,10.16521 -3.170604,1.80043 -5.036824,3.30154 -8.176464,5.42329 -4.170099,3.32533 -3.536121,0.7422 -3.779077,14.7241 0.264273,23.51658 -0.210514,23.06687 1.144336,24.78163 1.181521,1.4954 2.370178,1.22841 9.651488,1.28584 4.774703,0.0225 52.17958,0.40602 105.92797,0.34543 85.14289,-0.096 97.21244,0.0936 98.09023,-0.85433 1.09427,-1.33778 0.64948,-5.28162 0.61336,-18.14346 -0.0291,-10.33437 0.12556,-17.46227 -0.41375,-18.8108 -0.57686,-1.44247 -2.81013,-3.02835 -6.83372,-5.60478 -8.42717,-5.39618 -6.2191,-2.19849 -6.55378,-14.7164 0.0735,-7.1293 0.97407,-7.19068 -2.08872,-9.61304 -1.72748,-1.55809 -5.81378,-4.42045 -6.80911,-4.94342 -4.21338,-3.28246 -8.06712,-5.79529 -12.27392,-9.15468 -1.55913,-1.0529 -1.92233,-1.22298 -1.80878,-8.50716 0.0524,-20.21638 -0.11334,-43.37832 -0.0816,-64.59191 0.0286,-20.13666 -0.10782,-31.316988 0.39684,-32.322871 0.42323,-0.843608 2.41545,-3.690909 5.44635,-6.836791 8.21671,-8.528405 15.56851,-15.59354 16.2345,-17.412671 0.32421,-0.885637 0.30212,-13.457708 0.19534,-25.88291 0.0721,-23.321619 0.4381,-22.307767 -1.8161,-23.09278 -5.99533,-0.95105 -19.09627,-2.189404 -26.19884,-2.510304 -10.17403,-0.180821 -9.7254,-2.83562 -9.63909,13.89374 0.14351,15.483515 0.64324,12.614097 -5.16272,12.304965 -8.05548,-0.659974 -18.43101,-1.272674 -20.54307,-1.384223 -2.78961,-0.147334 -1.95294,0.186992 -2.1194,-6.823611 -0.0477,-3.574876 -0.087,-9.578092 -0.14694,-12.804434 -0.096,-5.186454 0.007,-6.026753 -1.97926,-7.629268 -2.41677,-1.550506 -30.56433,-1.554017 -21.15181,-1.554017 z"
     style="display:inline;fill:url(#linearGradient4535);fill-opacity:1;stroke-width:0.73510122" />
  <path
     sodipodi:nodetypes="ccsscsccccccccccscccccscccccccccccsccccccscccsccscsccscsssccccscccccscssccsccccscscscszccccccccsssccccccccccc"
     inkscape:connector-curvature="0"
     id="path842-2"
     d="m 154.6257,14.073722 c -18.06575,-0.03946 -28.99065,0.953794 -30.02395,1.869595 -2.0845,2.11106 -1.22046,1.972266 -1.54642,13.60221 -0.43571,15.544864 1.46016,13.241487 -5.07395,13.604188 -12.51184,0.694517 -21.66751,1.956039 -22.54658,1.277601 -0.65911,-0.508687 -0.50485,-4.00836 -0.50485,-12.886084 0,-9.855999 -0.20554,-12.364462 -1.07358,-13.110645 -1.93766,-1.665619 -35.61646,1.521807 -36.27051,2.531689 -0.49353,0.552417 0.0146,10.994228 -0.12676,24.330982 l -0.25686,24.247924 6.15234,6.158494 c 3.38413,3.386723 8.25559,8.637584 10.82505,11.669459 6.59469,7.781524 5.07831,3.870664 5.61673,17.677485 0.0683,7.37994 0.057,67.56074 0.22302,88.44456 -0.11908,2.88279 -0.219,4.27792 -2.26062,5.5153 -3.97681,3.01758 -11.07839,8.34281 -15.43008,11.41106 -7.3722,5.2696 -6.20941,2.93458 -6.10313,13.92584 0.0874,9.03725 0.51696,8.70656 -1.72419,10.1652 -3.1706,1.80044 -5.03682,3.30155 -8.17646,5.4233 -4.1701,3.32533 -3.53613,0.7422 -3.77908,14.7241 0.26427,23.51658 -0.21052,23.06687 1.14433,24.78162 1.18153,1.49541 2.37018,1.22842 9.65149,1.28585 4.7747,0.0225 52.17958,0.40602 105.92797,0.34543 85.14289,-0.096 97.21243,0.0936 98.09023,-0.85434 1.09427,-1.33777 0.64947,-5.28162 0.61335,-18.14346 -0.0291,-10.33437 0.12557,-17.46226 -0.41374,-18.81079 -0.57686,-1.44248 -2.81013,-3.02835 -6.83372,-5.60478 -8.42717,-5.39618 -6.2191,-2.19849 -6.55378,-14.7164 0.0735,-7.1293 0.97407,-7.19068 -2.08872,-9.61305 -1.72748,-1.55808 -5.81378,-4.42044 -6.80911,-4.94341 -4.21338,-3.28246 -8.06712,-5.79529 -12.27392,-9.15468 -1.55913,-1.0529 -1.92233,-1.22298 -1.80878,-8.50716 0.0524,-20.21638 -0.11334,-43.37832 -0.0816,-64.59191 0.0286,-20.13666 -0.10782,-31.316994 0.39684,-32.322879 0.42323,-0.843607 2.41545,-3.690907 5.44635,-6.836787 8.21671,-8.528405 15.56851,-15.59354 16.2345,-17.412671 0.32421,-0.885637 0.30212,-13.457707 0.19534,-25.882909 0.0721,-23.321619 0.4381,-22.307767 -1.8161,-23.09278 -5.99533,-0.95105 -19.09627,-2.189404 -26.19884,-2.510304 -10.17403,-0.180821 -9.7254,-2.83562 -9.63909,13.89374 0.14351,15.483515 0.64324,12.614097 -5.16272,12.304965 -8.05548,-0.659974 -18.43101,-1.272674 -20.54307,-1.384223 -2.78961,-0.147334 -1.95294,0.186992 -2.1194,-6.823611 -0.0477,-3.574876 -0.087,-9.578092 -0.14694,-12.804434 -0.096,-5.186454 0.007,-6.026753 -1.97926,-7.629268 -2.41677,-1.550506 -30.56433,-1.554017 -21.15181,-1.554017 z m -5.42385,12.028981 c 6.65241,-6.78e-4 15.55408,0.06072 16.26612,0.797679 0.39072,0.404403 0.25582,8.64251 0.31062,15.731538 0.0612,7.911288 -0.25247,10.473987 0.68521,10.855475 1.19809,0.487436 13.38764,0.840191 23.66109,1.433207 15.97535,1.022163 25.95555,2.503939 26.96134,1.36693 0.88401,-0.997954 0.76134,-6.229692 0.74002,-11.354767 0.23061,-7.1931 -0.23487,-13.539901 0.62365,-14.404911 0.84732,-0.853723 11.01657,0.248954 11.55853,0.699546 0.78599,0.65349 0.69781,5.130177 0.73804,16.087176 0.0586,15.965284 0.6095,15.968405 -2.09247,19.020401 -2.75332,3.109985 -9.54685,9.712087 -13.15679,12.899816 -6.70982,5.925071 -5.49609,5.6138 -14.97924,4.139985 -6.64988,-1.033491 -28.90493,-2.676373 -48.13787,-2.625367 -15.3189,0.04063 -30.39405,0.192347 -47.98065,2.174154 -3.97411,0.447858 -9.81669,1.281278 -11.10626,1.430273 -2.20715,0.255016 -4.00372,-1.097476 -9.42454,-6.30319 -3.81642,-3.664969 -8.00282,-8.174937 -10.16957,-10.231543 -4.29318,-4.383092 -3.71271,-3.711968 -3.62686,-8.86031 -0.0839,-1.90577 -0.0202,-16.587503 0.12163,-23.271467 0.40821,-4.528565 -1.53486,-4.95144 8.26532,-5.452263 3.29398,-0.124535 3.76978,0.0088 3.97223,0.652641 0.16167,0.51415 0.27694,8.029725 0.4441,13.304126 0.24248,7.651151 -0.25218,11.107016 0.70671,12.099477 1.3382,1.385038 9.93172,-0.232098 29.73743,-1.507021 16.81442,-1.08237 20.45351,-0.537132 21.12994,-1.331311 0.65035,-0.763545 0.406,-1.764793 0.33718,-12.578211 0.0761,-10.248945 -0.12939,-13.255709 0.62588,-14.021496 0.67448,-0.676207 11.57172,-0.750315 13.78919,-0.750541 z m 28.94771,69.571658 c 11.10466,0.691951 28.23978,3.141848 28.95366,4.148986 0.92211,1.025673 0.83036,22.625753 0.94524,28.566543 0.28588,14.78662 0.28844,35.52922 0.006,46.09489 -0.0786,6.36909 0.71341,18.80614 -0.29672,19.70411 -1.2691,1.12818 -41.10328,0.35586 -56.47557,0.35586 -27.71894,0.18005 -56.91728,0.82773 -58.01367,-0.20706 -1.04184,-0.98331 -1.25502,-6.45778 -1.11858,-9.74432 -0.042,-3.90756 0.10842,-19.52024 0.19071,-36.0652 0.12622,-25.38055 0.27717,-45.156 0.55119,-47.07793 0.73118,-2.688871 4.57119,-3.717571 16.31414,-4.812143 14.8522,-1.384395 32.3391,-2.05827 37.97634,-2.027235 5.63724,0.03105 21.41002,0.367402 30.96696,1.0635 z M 151.07162,208.96405 c 53.69376,7.5e-4 59.84619,-0.5289 63.81917,1.42393 4.43033,2.17761 9.63735,6.56096 14.61953,10.72829 1.90425,1.48187 1.38069,2.59026 1.4738,11.83968 0.23539,10.04005 -0.13128,8.88107 3.45516,11.15311 5.20717,3.49124 7.2327,4.4894 10.90008,7.14231 0.0124,0.30851 0.12101,5.04098 0.15619,8.59131 0.079,3.88052 0.41992,6.2787 -0.1878,6.66999 -1.20336,0.7749 -189.30477,0.9677 -190.04168,0.16841 -0.33212,-0.36023 -0.0804,-4.51602 -0.12484,-8.28026 -0.0387,-3.2805 0.2055,-6.03087 0.59886,-6.76912 0.67132,-1.50677 4.81678,-3.90767 8.73951,-6.46689 3.54428,-2.13707 5.4364,-1.4051 5.13556,-7.10903 -0.0989,-3.28111 0.0537,-9.85716 0.08,-13.42192 -0.0611,-3.69092 0.38127,-3.33062 5.96614,-7.51628 2.78187,-1.92333 7.37545,-4.97734 8.48316,-5.75096 5.26457,-3.67674 8.27259,-2.40362 66.92717,-2.40258 z"
     style="display:inline;fill:#000000;fill-opacity:1;stroke-width:0.73510122" />
</svg>
