<?xml version="1.0" encoding="UTF-8" standalone="no"?>
<svg
   xmlns:dc="http://purl.org/dc/elements/1.1/"
   xmlns:cc="http://creativecommons.org/ns#"
   xmlns:rdf="http://www.w3.org/1999/02/22-rdf-syntax-ns#"
   xmlns:svg="http://www.w3.org/2000/svg"
   xmlns="http://www.w3.org/2000/svg"
   xmlns:sodipodi="http://sodipodi.sourceforge.net/DTD/sodipodi-0.dtd"
   xmlns:inkscape="http://www.inkscape.org/namespaces/inkscape"
   version="1.0"
   width="300.000000pt"
   height="300.000000pt"
   viewBox="0 0 300.000000 300.000000"
   preserveAspectRatio="xMidYMid meet"
   id="svg2"
   inkscape:version="0.92.5 (2060ec1f9f, 2020-04-08)"
   sodipodi:docname="bk.svg">
  <defs
     id="defs12">
    <filter
       style="color-interpolation-filters:sRGB;"
       inkscape:label="Drawing"
       id="filter18775">
      <feGaussianBlur
         in="SourceGraphic"
         stdDeviation="5.99659"
         result="blur1"
         id="feGaussianBlur18721" />
      <feConvolveMatrix
         in="blur1"
         targetX="1"
         targetY="1"
         order="3 3"
         kernelMatrix="0 250 0 250 -1010 250 0 250 0 "
         result="convolve1"
         id="feConvolveMatrix18723" />
      <feComposite
         in="convolve1"
         in2="convolve1"
         k1="1"
         k2="1"
         k4="0.04"
         operator="arithmetic"
         result="composite1"
         id="feComposite18725" />
      <feColorMatrix
         in="composite1"
         values="0 0 0 0 0 0 0 0 0 0 0 0 0 0 0 -0.2125 -0.7154 -0.0721 1 0 "
         result="color1"
         id="feColorMatrix18727" />
      <feGaussianBlur
         stdDeviation="0.61"
         result="blur2"
         id="feGaussianBlur18729" />
      <feColorMatrix
         values="1 0 0 0 0 0 1 0 0 0 0 0 1 0 0 0 0 0 2.7 -1 "
         result="color2"
         id="feColorMatrix18731" />
      <feFlood
         flood-color="rgb(255,255,255)"
         result="flood1"
         id="feFlood18733" />
      <feBlend
         in2="color2"
         mode="multiply"
         result="blend1"
         id="feBlend18735" />
      <feComponentTransfer
         in="blend1"
         result="component1"
         id="feComponentTransfer18743">
        <feFuncR
           type="discrete"
           tableValues="0 1 1 1"
           id="feFuncR18737" />
        <feFuncG
           type="discrete"
           tableValues="0 1 1 1"
           id="feFuncG18739" />
        <feFuncB
           type="discrete"
           tableValues="0 1 1 1"
           id="feFuncB18741" />
      </feComponentTransfer>
      <feGaussianBlur
         stdDeviation="0.61"
         result="blur3"
         id="feGaussianBlur18745" />
      <feColorMatrix
         in="blur3"
         values="0 0 0 0 0 0 0 0 0 0 0 0 0 0 0 -0.2125 -0.7154 -0.0721 1 0 "
         result="color3"
         id="feColorMatrix18747" />
      <feColorMatrix
         values="1 0 0 0 0 0 1 0 0 0 0 0 1 0 0 0 0 0 1.9 -0.5 "
         result="color4"
         id="feColorMatrix18749" />
      <feFlood
         flood-color="rgb(0,0,0)"
         result="flood2"
         id="feFlood18751" />
      <feComposite
         in="flood2"
         in2="color4"
         operator="in"
         result="composite2"
         id="feComposite18753" />
      <feComposite
         in="composite2"
         in2="composite2"
         operator="arithmetic"
         k2="1"
         result="composite3"
         id="feComposite18755" />
      <feOffset
         dx="0"
         dy="0"
         result="offset1"
         id="feOffset18757" />
      <feFlood
         in="color4"
         flood-color="rgb(66,66,66)"
         result="flood3"
         id="feFlood18759" />
      <feComposite
         in="flood3"
         in2="color4"
         operator="out"
         result="composite4"
         id="feComposite18761" />
      <feComposite
         in="composite4"
         in2="composite4"
         operator="arithmetic"
         k2="1"
         result="composite5"
         id="feComposite18763" />
      <feMerge
         result="merge1"
         id="feMerge18769">
        <feMergeNode
           in="composite5"
           id="feMergeNode18765" />
        <feMergeNode
           in="offset1"
           id="feMergeNode18767" />
      </feMerge>
      <feColorMatrix
         values="1 0 0 0 0 0 1 0 0 0 0 0 1 0 0 0 0 0 1.3 0 "
         result="color5"
         flood-opacity="0.56"
         id="feColorMatrix18771" />
      <feComposite
         in="color5"
         in2="SourceGraphic"
         operator="in"
         result="composite8"
         id="feComposite18773" />
    </filter>
  </defs>
  <sodipodi:namedview
     pagecolor="#ffffff"
     bordercolor="#666666"
     borderopacity="1"
     objecttolerance="10"
     gridtolerance="10"
     guidetolerance="10"
     inkscape:pageopacity="0"
     inkscape:pageshadow="2"
     inkscape:window-width="1520"
     inkscape:window-height="1002"
     id="namedview10"
     showgrid="false"
     inkscape:zoom="2.4901261"
     inkscape:cx="171.34737"
     inkscape:cy="145.12407"
     inkscape:window-x="4"
     inkscape:window-y="0"
     inkscape:window-maximized="0"
     inkscape:current-layer="svg2"
     inkscape:pagecheckerboard="true"
     showguides="false">
    <inkscape:grid
       type="xygrid"
       id="grid22745" />
  </sodipodi:namedview>
  <metadata
     id="metadata4">
Created by potrace 1.12, written by Peter Selinger 2001-2015
<rdf:RDF>
  <cc:Work
     rdf:about="">
    <dc:format>image/svg+xml</dc:format>
    <dc:type
       rdf:resource="http://purl.org/dc/dcmitype/StillImage" />
    <dc:title />
  </cc:Work>
</rdf:RDF>
</metadata>
  <path
     style="display:inline;fill:#e9e6de;fill-opacity:1;stroke-width:2.98611474"
     d="M 113.47656,7.7714844 C 113.21811,27.784995 113.37343,47.801993 113.02344,67.814453 89.577279,45.332562 47.834862,43.498973 24.787109,67.544922 4.9772819,87.985885 3.8210341,121.31793 17.397226,145.44335 c 6.456578,11.96672 16.006821,21.9898 26.553946,30.44727 -8.932201,4.23581 -15.063754,14.07906 -13.113281,24.03516 1.540963,11.72616 11.045893,20.11738 21.091797,25.11524 8.175155,5.86362 5.974256,17.56252 6.216297,26.27132 -0.786045,10.75039 1.643244,23.17384 11.562999,29.20524 17.725592,11.3232 39.645386,12.17789 59.992096,14.11269 29.54467,1.61041 59.92557,0.4687 88.19736,-8.9623 10.98261,-3.85968 20.84813,-13.51176 20.89062,-25.77735 0.95099,-11.17554 -3.27749,-24.05133 4.49805,-33.51367 9.00608,-7.0287 21.10613,-13.47927 22.69336,-26.0957 1.85336,-9.78966 -4.42445,-20.35567 -12.95899,-24.09961 18.38206,-15.89597 34.61115,-37.60035 35.41616,-62.81785 2.51599,-26.774012 -15.58367,-54.824753 -42.36147,-60.791524 -21.63148,-5.826859 -46.0546,0.182979 -62.46289,15.449218 0.0352,-20.579412 -0.005,-41.158855 0.0137,-61.7382809 h -70.13867 l -0.008,0.999969 z"
     id="path848"
     inkscape:connector-curvature="0"
     sodipodi:nodetypes="cccccccccccccccccccccc" />
  <path
     style="display:inline;fill:#000000;stroke-width:2.98611474"
     d="m 106.68047,281.98375 c -9.166374,-1.27835 -22.012485,-4.15255 -32.717164,-11.06041 -3.980478,-3.40177 -5.397938,-3.25047 -5.22073,-23.42728 0.111084,-12.64787 -1.281214,-26.15899 -10.565478,-31.08841 -13.217663,-7.01783 -18.85054,-14.56869 -16.744297,-22.60516 1.019705,-3.89071 4.608394,-7.7638 7.97487,-8.60685 12.471268,-6.84465 10.201059,-9.85483 -4.765648,-23.01622 C 26.846676,146.53061 19.476684,130.9247 19.009036,110.5798 18.190564,74.972391 49.642013,54.421128 80.733557,62.367516 96.304779,66.347215 106.26392,72.842889 116.53513,89.311109 l 7.07315,11.580931 0.0115,-41.006163 0.28899,-43.102233 h 24.88542 24.32996 v 41.411588 41.411581 l 9.25542,-13.653746 c 11.13922,-16.432747 27.14564,-24.842917 46.3761,-24.92787 22.68734,-0.100223 35.3787,10.583714 43.16314,23.862617 4.84367,8.262437 6.58659,20.332596 5.46636,31.792606 -2.06317,21.10629 -19.60152,40.56093 -27.59642,47.48812 -11.66842,10.93977 -15.59584,13.2614 -2.40099,21.0271 2.586,1.20086 8.52552,4.4729 8.3872,11.70213 -0.26247,7.19917 -6.96723,13.27673 -15.57649,18.25415 -6.19246,3.58015 -9.51138,8.54512 -11.17593,18.49873 -0.5503,3.29068 -0.89457,8.02143 -1.04436,12.59179 -0.10786,18.80904 4.0358,22.85423 -18.30867,31.29165 -18.36712,6.14291 -46.56936,7.24497 -62.01761,7.23068 -15.44826,-0.0143 -31.80506,-1.50266 -40.97143,-2.78102 z m 41.57771,-19.80632 c 14.24437,0.002 27.55153,0.40207 45.048,2.58642 12.05893,2.31504 17.56901,2.89945 19.12573,-0.97796 1.0257,-2.55471 1.56046,-8.40442 -4.14865,-9.69518 -12.2418,-2.76772 -27.58646,-5.94315 -57.3102,-5.8693 -35.98567,0.0894 -46.8006,1.98851 -59.675485,5.17045 -7.908518,1.95455 -8.757213,8.30088 -5.896347,11.66737 2.745104,3.23028 8.709208,0.76726 21.183022,-0.34518 12.57249,-1.12119 27.42958,-2.53845 41.67393,-2.53662 z m -49.207379,-22.9903 c 0,0 7.557299,-5.04861 7.395389,-6.28745 -0.16193,-1.23882 -6.38848,-3.20858 -6.38848,-3.20858 -11.203605,-3.89158 -20.573534,-4.54336 -20.639311,2.22145 -0.151939,15.62623 5.339018,18.08133 19.632402,7.27458 z m 116.672619,2.26224 c 1.05645,-2.54554 1.56271,-5.47765 1.57445,-8.76706 0.0192,-5.39066 -2.10017,-6.74395 -13.45477,-4.9716 -5.72442,0.81153 -12.64127,4.11931 -13.55039,4.92676 -2.1452,1.90521 17.1684,13.41979 20.2108,13.25241 3.15325,0.16438 4.16344,-1.89495 5.21991,-4.44051 z m -53.54743,-7.37859 10.50328,-5.2247 -8.73937,-4.40875 c -5.189,-2.61769 -12.60063,-6.27704 -14.79802,-6.24353 -4.67687,0.0714 -24.45698,10.76053 -24.45698,10.76053 4.87657,2.99361 21.46964,11.11605 24.14773,10.82992 2.51743,-0.004 6.61933,-2.61039 13.34336,-5.71347 z m -47.95065,-22.56384 c 20.26792,-3.23355 46.94247,-4.35822 74.14139,0.77729 21.75958,4.10849 31.57242,6.60013 33.13404,2.84108 1.93822,-4.39047 0.25328,-6.677 -11.04232,-11.53207 -12.46113,-4.13667 -30.49029,-8.59778 -58.40289,-8.88127 -33.61676,-0.34142 -81.476175,7.98709 -77.169639,19.05236 2.517265,7.42297 16.132045,1.44512 39.339419,-2.25739 z M 81.839554,194.67631 c 2.15661,-3.85897 1.660468,-8.04684 -3.110957,-10.98691 -3.982455,-2.45393 -9.202236,-1.73115 -12.540346,2.81866 -3.644454,4.96735 -0.18515,12.02926 5.305819,13.04577 4.228707,0.78286 8.673167,-1.88513 10.345484,-4.87752 z m 149.965776,-0.70926 c 1.70354,-3.82958 -1.01418,-8.22989 -2.56922,-9.71907 -4.42907,-4.24144 -13.9698,-1.20688 -15.18371,4.82937 -2.07014,10.29408 13.37798,14.72467 17.75293,4.8897 z M 118.94708,183.57949 c 0,-3.05845 -2.66919,-7.36653 -8.01751,-6.95819 -7.74172,1.18268 -9.57477,9.59573 -4.15949,13.55516 3.52717,2.57892 12.177,-0.11341 12.177,-6.59697 z m 60.75061,4.91757 c 2.98938,2.93152 10.59091,4.79788 12.92085,-2.22831 2.32995,-7.02619 -4.50824,-10.00644 -8.77726,-9.73723 -4.26902,0.26922 -9.05886,7.17431 -4.14359,11.96554 z m -21.27017,-7.18959 c 0.9875,-7.23696 -0.89519,-13.98289 -13.63847,-11.70867 -8.62763,1.67779 -8.0917,13.28148 -3.30695,16.66656 4.52439,3.2009 16.33314,1.93809 16.94542,-4.95789 z m -55.01538,-11.33812 c 11.58439,-2.44812 21.36437,-2.96273 23.58193,-3.51054 9.5766,-2.36575 -0.84846,-36.52001 -8.34756,-47.79043 C 108.31685,103.14391 95.033741,92.206453 73.86799,92.927979 61.772903,93.340291 53.173343,100.0953 48.65389,107.13111 c -9.221789,14.3563 -6.130652,26.46358 10.231079,50.8678 9.052097,13.50157 14.424735,19.43361 19.734205,17.3832 2.573573,-0.99388 12.211741,-2.75397 24.792966,-5.41276 z M 78.411628,156.7872 c -4.581276,-3.41974 -11.223167,-9.87177 -14.17609,-15.1751 -10.312904,-18.52154 -4.885966,-36.74625 13.574134,-36.06181 4.005725,0.14851 15.00359,1.66769 22.748498,9.80755 10.68136,11.22607 14.64141,21.27826 16.03003,36.0398 1.1056,11.75295 -6.54964,9.47493 -10.01726,-3.5547 -4.95453,-18.6167 -28.305232,-36.1114 -32.517106,-22.78866 -1.700765,5.37976 -0.304997,13.88754 9.070897,24.11375 10.66977,11.63742 11.422374,19.66361 -4.713103,7.61917 z m 4.009987,-12.02773 c -4.011843,-2.42614 -2.463972,-4.89258 0.713607,-3.28161 3.039921,1.54118 7.805078,-1.08906 7.937941,-4.02387 0.334256,-7.38347 6.818298,-5.10443 7.206367,2.92218 0.69659,14.40787 -7.555283,9.40427 -15.857915,4.3833 z m 150.245755,21.69434 c 14.80687,-20.05225 20.74117,-33.81474 20.54742,-44.48886 -0.17198,-9.47508 -5.61608,-18.41893 -14.02993,-23.825704 -20.59574,-13.234909 -52.80751,-1.334493 -64.67997,27.833624 -11.12935,27.44802 -9.27023,36.37692 -6.94001,39.38975 1.38939,1.7964 15.77883,2.5403 22.2228,3.96317 11.03967,2.43763 21.92923,3.91276 24.44668,5.27792 6.72008,1.96075 7.81129,3.43514 18.43301,-8.1499 z m -27.13107,-6.12528 c 0,-1.4104 6.62835,-9.16061 8.69464,-11.62456 5.66326,-6.75317 5.26836,-6.96691 -4.75051,-1.17197 -2.65895,1.53795 -10.90165,6.93957 -11.16389,-5.79992 -0.18065,-8.77694 6.57608,-11.20257 7.26629,-5.78006 1.46216,11.48721 17.36245,4.24733 17.72556,-4.92034 0.98309,-24.82078 -28.06824,-1.9387 -32.56161,15.8494 -1.644,6.50814 -5.68005,12.24865 -6.99365,12.24865 -5.04896,0 -4.35659,-5.73739 -1.28453,-20.77119 1.83584,-8.98409 10.81238,-20.89565 13.68911,-23.28068 10.85206,-8.9972 25.06105,-13.17149 35.48749,-5.95953 11.75519,8.13106 5.68109,32.83993 -10.27023,45.09529 -12.64698,10.88172 -15.83867,9.35387 -15.83867,6.11491 z m -50.42355,-6.83769 c 1.866,-6.83329 -6.02712,-12.86025 -11.11809,-7.98495 -2.13773,2.04718 -3.13516,6.80738 -0.7527,11.07048 3.96788,7.09998 9.44921,5.78241 11.87079,-3.08553 z m 0.38724,-22.81799 c 6.09685,-8.07105 3.33599,-13.09217 -0.53295,-16.81085 -9.3659,-9.0021 -23.00104,5.54582 -14.52539,15.32573 4.69451,5.41694 9.11226,7.17931 15.05834,1.48512 z M 40.318452,107.99248 c 1.188565,-5.76434 -3.808805,-8.277801 -6.650429,-8.277801 -4.362546,0 -7.233194,2.719241 -6.963827,7.659961 0,7.12148 11.894059,9.05167 13.614256,0.61784 z m 229.631178,1.10238 c 1.18158,-3.86876 -1.60415,-9.143558 -5.44958,-9.293015 -9.19195,-0.396753 -9.82005,8.569465 -6.03062,11.963335 2.96709,2.8414 9.54536,2.68469 11.4802,-2.67032 z M 163.44852,89.318749 c 1.63555,-15.263703 -5.03072,-20.459787 -14.51656,-20.721797 -7.5789,0.0065 -10.73864,1.76707 -13.50738,8.262939 -2.6807,6.01361 0.90515,7.309541 8.29624,2.58922 5.04754,-3.223611 10.00746,-1.066065 11.03685,2.634357 2.18072,7.839234 -5.49327,13.274648 -11.63667,7.423336 -4.90451,-4.671315 -9.67725,-4.385803 -8.28074,2.479853 1.13913,5.600401 7.25993,9.194293 15.28816,8.948313 6.31726,-0.19356 12.49114,-4.669872 13.3201,-11.616221 z M 96.506868,82.410262 c 0.72591,-4.872519 -2.835626,-7.908799 -7.293922,-7.908799 -6.271786,0 -9.049058,6.230195 -5.928032,11.066206 3.200431,4.959049 12.212515,3.618245 13.221954,-3.157407 z m -33.073011,2.111225 c 2.903796,-6.797445 -1.890392,-13.961005 -8.256633,-13.988573 -8.651169,-0.03746 -12.476272,7.988622 -9.020833,14.649928 3.185392,6.140715 14.694568,5.384911 17.277466,-0.661355 z M 214.8584,80.90924 c 0,-3.896248 -3.17447,-6.473623 -7.24305,-6.473623 -4.06859,0 -7.35701,3.101394 -7.35701,6.99764 0,3.896248 3.03999,7.416425 7.10856,7.416425 4.06859,0 7.4915,-4.044196 7.4915,-7.940442 z m 34.46232,5.796625 c 5.08876,-6.861472 2.39261,-13.437717 -3.86508,-15.771045 -6.79425,-2.540737 -15.15207,3.816165 -12.48284,12.742936 1.59004,5.317561 12.06893,8.408794 16.34792,3.028109 z M 154.38418,55.192404 c 11.167,8.851771 13.74031,-0.653832 6.16437,-6.772746 -6.24328,-5.042541 -6.52457,-5.949221 -1.87849,-9.575154 2.61709,-2.264259 5.63348,-6.045707 6.14649,-7.812435 2.61617,-5.619979 -4.37254,-8.137653 -12.82388,1.093048 -2.9436,3.215046 -4.436,3.0681 -6.09538,1.325938 -1.65389,-1.736408 -1.94339,-2.247257 -6.52902,-5.748806 -6.35838,-4.855177 -11.27427,2.452352 -3.10319,9.180606 9.26138,6.753465 3.32421,7.822555 -1.28132,12.117088 -6.98862,7.385458 -2.67984,14.212315 6.67028,6.576831 5.61171,-6.278332 7.25973,-6.279512 12.73007,-0.38437 z"
     id="path872"
     inkscape:connector-curvature="0"
     sodipodi:nodetypes="zcssscsssscccccccsssscccsscczzsccssssssczssccscccccssscccssccscssssssscssccscczzcccscsssssscssssssscssssssscsscsssccsssssscsssccsccsccsccsccccccscssssccsscsssssscsssccscccsccsscccccc" />
</svg>
