<?xml version="1.0" encoding="UTF-8" standalone="no"?>
<svg
   xmlns:dc="http://purl.org/dc/elements/1.1/"
   xmlns:cc="http://creativecommons.org/ns#"
   xmlns:rdf="http://www.w3.org/1999/02/22-rdf-syntax-ns#"
   xmlns:svg="http://www.w3.org/2000/svg"
   xmlns="http://www.w3.org/2000/svg"
   xmlns:sodipodi="http://sodipodi.sourceforge.net/DTD/sodipodi-0.dtd"
   xmlns:inkscape="http://www.inkscape.org/namespaces/inkscape"
   version="1.0"
   width="300.000000pt"
   height="300.000000pt"
   viewBox="0 0 300.000000 300.000000"
   preserveAspectRatio="xMidYMid meet"
   id="svg2"
   inkscape:version="0.92.5 (2060ec1f9f, 2020-04-08)"
   sodipodi:docname="bk.svg">
  <defs
     id="defs12">
    <filter
       style="color-interpolation-filters:sRGB;"
       inkscape:label="Drawing"
       id="filter18775">
      <feGaussianBlur
         in="SourceGraphic"
         stdDeviation="5.99659"
         result="blur1"
         id="feGaussianBlur18721" />
      <feConvolveMatrix
         in="blur1"
         targetX="1"
         targetY="1"
         order="3 3"
         kernelMatrix="0 250 0 250 -1010 250 0 250 0 "
         result="convolve1"
         id="feConvolveMatrix18723" />
      <feComposite
         in="convolve1"
         in2="convolve1"
         k1="1"
         k2="1"
         k4="0.04"
         operator="arithmetic"
         result="composite1"
         id="feComposite18725" />
      <feColorMatrix
         in="composite1"
         values="0 0 0 0 0 0 0 0 0 0 0 0 0 0 0 -0.2125 -0.7154 -0.0721 1 0 "
         result="color1"
         id="feColorMatrix18727" />
      <feGaussianBlur
         stdDeviation="0.61"
         result="blur2"
         id="feGaussianBlur18729" />
      <feColorMatrix
         values="1 0 0 0 0 0 1 0 0 0 0 0 1 0 0 0 0 0 2.7 -1 "
         result="color2"
         id="feColorMatrix18731" />
      <feFlood
         flood-color="rgb(255,255,255)"
         result="flood1"
         id="feFlood18733" />
      <feBlend
         in2="color2"
         mode="multiply"
         result="blend1"
         id="feBlend18735" />
      <feComponentTransfer
         in="blend1"
         result="component1"
         id="feComponentTransfer18743">
        <feFuncR
           type="discrete"
           tableValues="0 1 1 1"
           id="feFuncR18737" />
        <feFuncG
           type="discrete"
           tableValues="0 1 1 1"
           id="feFuncG18739" />
        <feFuncB
           type="discrete"
           tableValues="0 1 1 1"
           id="feFuncB18741" />
      </feComponentTransfer>
      <feGaussianBlur
         stdDeviation="0.61"
         result="blur3"
         id="feGaussianBlur18745" />
      <feColorMatrix
         in="blur3"
         values="0 0 0 0 0 0 0 0 0 0 0 0 0 0 0 -0.2125 -0.7154 -0.0721 1 0 "
         result="color3"
         id="feColorMatrix18747" />
      <feColorMatrix
         values="1 0 0 0 0 0 1 0 0 0 0 0 1 0 0 0 0 0 1.9 -0.5 "
         result="color4"
         id="feColorMatrix18749" />
      <feFlood
         flood-color="rgb(0,0,0)"
         result="flood2"
         id="feFlood18751" />
      <feComposite
         in="flood2"
         in2="color4"
         operator="in"
         result="composite2"
         id="feComposite18753" />
      <feComposite
         in="composite2"
         in2="composite2"
         operator="arithmetic"
         k2="1"
         result="composite3"
         id="feComposite18755" />
      <feOffset
         dx="0"
         dy="0"
         result="offset1"
         id="feOffset18757" />
      <feFlood
         in="color4"
         flood-color="rgb(66,66,66)"
         result="flood3"
         id="feFlood18759" />
      <feComposite
         in="flood3"
         in2="color4"
         operator="out"
         result="composite4"
         id="feComposite18761" />
      <feComposite
         in="composite4"
         in2="composite4"
         operator="arithmetic"
         k2="1"
         result="composite5"
         id="feComposite18763" />
      <feMerge
         result="merge1"
         id="feMerge18769">
        <feMergeNode
           in="composite5"
           id="feMergeNode18765" />
        <feMergeNode
           in="offset1"
           id="feMergeNode18767" />
      </feMerge>
      <feColorMatrix
         values="1 0 0 0 0 0 1 0 0 0 0 0 1 0 0 0 0 0 1.3 0 "
         result="color5"
         flood-opacity="0.56"
         id="feColorMatrix18771" />
      <feComposite
         in="color5"
         in2="SourceGraphic"
         operator="in"
         result="composite8"
         id="feComposite18773" />
    </filter>
  </defs>
  <sodipodi:namedview
     pagecolor="#ffffff"
     bordercolor="#666666"
     borderopacity="1"
     objecttolerance="10"
     gridtolerance="10"
     guidetolerance="10"
     inkscape:pageopacity="0"
     inkscape:pageshadow="2"
     inkscape:window-width="1520"
     inkscape:window-height="1002"
     id="namedview10"
     showgrid="false"
     inkscape:zoom="0.88039253"
     inkscape:cx="177.04895"
     inkscape:cy="204.48345"
     inkscape:window-x="47"
     inkscape:window-y="15"
     inkscape:window-maximized="0"
     inkscape:current-layer="svg2"
     inkscape:pagecheckerboard="true"
     showguides="false">
    <inkscape:grid
       type="xygrid"
       id="grid22745" />
  </sodipodi:namedview>
  <metadata
     id="metadata4">
Created by potrace 1.12, written by Peter Selinger 2001-2015
<rdf:RDF>
  <cc:Work
     rdf:about="">
    <dc:format>image/svg+xml</dc:format>
    <dc:type
       rdf:resource="http://purl.org/dc/dcmitype/StillImage" />
    <dc:title />
  </cc:Work>
</rdf:RDF>
</metadata>
  <path
     style="display:inline;opacity:1;fill:#e3dfd3;fill-opacity:1;stroke-width:2.98611474"
     d="M 113.45703,7.7773438 C 113.24819,27.804756 113.30348,47.833941 113.09375,67.861328 89.284102,44.920137 46.345819,43.538199 23.611328,68.753906 3.9458281,90.461226 4.2219838,124.8956 19.349609,149 c 6.79503,11.5906 17.573679,21.04138 27.333985,29.24805 -12.575297,5.66253 -18.850937,23.45175 -9.791016,34.76953 4.878249,7.33328 13.891138,10.07795 20.878906,14.37109 2.519911,7.46288 -0.265842,15.4935 0.216797,23.1875 -0.720206,11.90929 2.589771,26.00435 14.298828,31.60352 16.369424,9.02107 35.592721,10.26343 53.777571,12.2808 29.73698,1.95497 60.19885,0.70425 88.93678,-7.66474 11.32206,-3.69891 23.0359,-12.39529 23.50831,-25.32114 1.48929,-11.29547 -1.76353,-22.90886 0.14062,-34.02344 3.83604,-3.03229 9.2451,-3.40964 13.01172,-6.78515 10.36044,-6.45813 16.79307,-21.41867 9.20898,-32.26172 -2.46841,-4.16752 -6.99132,-7.36986 -10.18554,-10.30078 19.02005,-16.54962 35.92021,-38.50677 37.67968,-64.52735 1.95801,-23.227085 -10.71987,-47.192951 -31.95312,-57.349608 -23.64998,-11.438014 -53.71762,-5.8531 -72.78906,11.84961 0,-20.597005 0,-41.194011 0,-61.7910158 -23.38607,0 -46.77214,10e-8 -70.15821,0 l -0.005,0.9999863 z"
     id="path872"
     inkscape:connector-curvature="0" />
  <path
     sodipodi:nodetypes="ccccsssccssscsccccscccscsccccccsccscccccsssccsccccsccssccsssssssssssscsscsccsccscccscscccccccccccccscccsccscscscsscssscscsccccscsccccscccccccccccccccczzzzccccccsccccccccsccccccccccccccccscccccccsccccccccccccc"
     inkscape:connector-curvature="0"
     id="path875"
     transform="scale(0.75)"
     d="m 165.21094,22.378906 -0.38477,57.46875 -0.0156,54.675784 -9.42969,-15.44141 C 141.68589,97.124406 128.40616,88.462515 107.64453,83.15625 66.18914,72.561066 24.254407,99.962911 25.345703,147.43945 c 0.623531,27.12654 10.450604,47.93375 34.177735,68.79883 19.955608,17.54852 26.49575,22.76801 10.268979,32.99857 -7.299737,4.33676 -11.783119,12.0096 -12.239156,14.18532 -1.302376,7.8038 3.010909,17.2818 21.121413,24.41802 6.550526,2.58116 11.168124,5.40987 12.154118,8.2967 2.059271,6.0292 0.914563,23.9396 0.827458,33.85725 -0.236279,26.90241 1.653633,26.70064 6.960938,31.23633 14.272902,9.21048 31.401212,13.04358 43.623042,14.74805 12.22183,1.70448 34.03123,3.68796 54.62891,3.70703 20.59767,0.0191 58.19996,-1.45008 82.68945,-9.64063 29.79263,-11.24989 24.2683,-16.64198 24.41211,-41.7207 -0.20187,-4.88905 -0.34512,-13.00387 -0.21376,-19.80096 0.21147,-9.05482 -3.79299,-13.95021 12.89246,-20.44936 14.82017,-5.7726 21.62433,-14.9398 21.77349,-20.92442 0.38523,-6.02468 -5.41515,-13.45461 -11.98676,-17.61144 -17.59313,-10.35426 -8.94324,-16.06105 6.61465,-30.64742 10.65987,-9.23625 34.04598,-35.17468 36.79688,-63.3164 1.49364,-15.28001 -0.83084,-31.37404 -7.28907,-42.39063 C 352.17934,95.478394 335.2576,81.233556 305.00781,81.367188 279.3672,81.480457 258.02417,92.693182 243.17188,114.60352 l -12.33985,18.20507 V 77.59375 22.378906 h -32.43945 z m 50.88867,12.285156 c 3.74783,-0.08243 5.50937,2.732073 3.65625,6.712891 -0.68401,2.355637 -4.70586,7.397004 -8.19531,10.416016 -6.19478,4.834577 -5.82047,6.042237 2.5039,12.765625 10.10126,8.158552 6.67059,20.833611 -8.21875,9.03125 -7.29378,-7.86019 -9.49233,-7.85939 -16.97461,0.511718 -12.46682,10.180646 -18.21073,1.0797 -8.89257,-8.767578 6.1407,-5.726044 14.05749,-7.15163 1.70898,-16.15625 -10.89477,-8.971005 -4.34112,-18.715756 4.13672,-12.242187 6.11417,4.668732 6.49989,5.350805 8.70508,7.666015 2.2125,2.322883 4.20215,2.51915 8.12695,-1.767578 5.28209,-5.769188 10.13645,-8.097189 13.44336,-8.169922 z m -17.52344,57.650722 c 12.64779,0.207364 22.17512,8.839106 20.42034,25.499176 -1.10528,9.2618 -10.83361,15.92377 -19.0376,16.05621 -11.35246,0.18327 -18.36899,-4.53543 -21.09468,-11.00875 -2.81361,-5.92591 -2.0763,-14.0272 0.42394,-19.74203 3.47868,-6.602421 10.46024,-10.440985 19.2876,-10.804606 z m -8.67093,27.594946 c 7.76527,8.36968 22.18578,1.40771 18.35527,-10.53541 -2.86333,-7.77353 -12.53017,-8.30876 -17.27248,-4.15259 -4.46277,4.18141 -4.32936,11.3251 -1.08279,14.688 z M 321.73469,93.024953 c 1.45323,-0.01777 2.91852,0.222633 4.33399,0.751953 8.34358,3.111104 11.93931,11.878714 5.15429,21.027344 -5.70532,7.17425 -19.67682,3.05297 -21.79687,-4.03711 -3.00288,-10.04261 4.46118,-17.646237 12.30859,-17.742187 z M 74.574277,93.1394 c 8.488322,0.03676 14.879541,9.58908 11.007813,18.65234 -3.443864,8.06169 -18.78992,8.6669 -23.037109,0.47928 -4.607252,-8.88174 0.494405,-19.181567 12.029296,-19.13162 z m 201.678103,5.540719 c 5.42478,0 10.22614,4.003791 10.22614,9.198791 0,5.19499 -4.56545,10.58789 -9.99024,10.58789 -5.42476,0 -10.04449,-4.97764 -10.04449,-10.17264 0,-5.19499 4.38381,-9.614041 9.80859,-9.614041 z M 118.2778,98.260982 c 6.94837,-0.200794 11.76745,5.323978 10.79957,11.820668 -1.34592,9.0342 -13.90523,10.69125 -18.17247,4.07918 -4.16138,-6.44801 -0.98599,-15.658293 7.3729,-15.899848 z m 174.73782,25.422608 c 9.22578,-0.10551 18.17504,2.20488 25.89844,7.16797 11.21847,7.20903 18.47577,19.13414 18.70508,31.76758 0.25833,14.23216 -7.65399,32.58203 -27.39648,59.31836 -14.1623,15.44672 -15.61607,13.48152 -24.57618,10.86719 -3.3566,-1.82022 -17.87614,-3.78694 -32.5957,-7.03711 -8.59196,-1.89716 -27.77834,-2.88801 -29.63086,-5.2832 -3.10696,-4.01712 -5.58523,-15.92413 9.25391,-52.52149 11.37777,-27.95278 36.76484,-44.00965 60.34179,-44.2793 z m -191.91015,0.17579 c 26.70895,3.2e-4 43.74737,14.31279 57.08984,34.36523 9.9988,15.02723 23.89966,60.56637 11.13086,63.7207 -2.95674,0.73042 -15.9975,1.41553 -31.44336,4.67969 -16.77496,3.54505 -29.62521,5.89358 -33.05664,7.21875 -7.079289,2.73388 -14.243035,-5.17564 -26.312498,-23.17773 -21.815641,-32.53896 -25.938297,-48.68249 -13.642578,-67.82422 6.025937,-9.38108 17.492358,-18.38775 33.61914,-18.9375 0.881907,-0.0301 1.753656,-0.0449 2.615236,-0.0449 z m -56.427818,6.39608 c 4.99568,2e-5 11.161851,4.48719 9.577097,12.17297 -2.293596,11.24511 -19.856128,10.65884 -20.424057,-1.67611 0.06679,-6.65862 3.823384,-10.28388 10.84696,-10.49686 z m 316.360298,14.19958 c -2.57978,7.14002 -13.05921,7.0479 -17.01533,3.25937 -4.89468,-4.38375 -4.15089,-17.14517 7.12657,-17.3704 10.8459,-0.0986 11.58662,10.00301 9.88876,14.11103 z m -258.55357,-3.85348 c -5.584029,0.0731 -10.957548,1.58319 -15.736333,4.88867 -15.673587,10.84142 -7.775823,38.96827 6.464844,59.52539 11.642009,16.31611 7.864989,17.08941 25.333989,11.36524 1.26521,-0.58885 3.17587,-2.31683 1.71093,-5.48438 -1.31385,-2.8409 -5.73544,-7.1149 -9.2539,-8.19726 -6.17379,-1.89919 -14.750781,-5.73232 -15.771488,-9.7207 -1.24228,-4.85424 3.851083,-5.70522 10.806638,-5.48829 9.18343,0.28642 5.83583,-4.62896 1.68164,-7.18554 -11.204567,-6.90074 -9.085233,-19.41927 -4.4414,-22.58203 5.28757,-3.70887 17.01814,3.95819 16.97851,12.32422 -0.0867,18.30394 4.33492,10.73694 8.68946,5.54882 3.46588,-4.12936 6.5383,-5.59441 8.35156,-4.12109 3.13217,2.54497 2.91212,11.43879 -0.14453,20.57227 -2.06892,6.18204 -2.06919,12.28705 -1.35157,14.89062 1.62852,5.90839 2.8094,6.32578 14.80079,5.23633 8.53908,-0.20079 5.80897,-7.65025 1.71289,-27.69531 -2.44779,-11.97879 -14.41632,-27.86098 -18.25196,-31.04102 -9.49555,-7.87255 -20.91969,-12.97547 -31.58007,-12.83594 z m 190.63867,0 c -10.6604,-0.13953 -22.08453,4.96339 -31.58008,12.83594 -3.83564,3.18004 -15.80417,19.06223 -18.25195,31.04102 -4.09608,20.04506 -6.82619,27.49452 1.71289,27.69531 11.99138,1.08945 13.17226,0.67206 14.80078,-5.23633 0.71762,-2.60357 0.71737,-8.70858 -1.35157,-14.89062 -3.05664,-9.13348 -3.2767,-18.0273 -0.14453,-20.57227 1.81326,-1.47332 4.88569,-0.008 8.35157,4.12109 4.35453,5.18812 8.77612,12.75512 8.68945,-5.54882 -0.0396,-8.36602 11.69095,-16.03309 16.97851,-12.32422 4.64383,3.16276 6.76317,15.68129 -4.4414,22.58203 -4.15419,2.55658 -7.50179,7.47196 1.68164,7.18554 6.95556,-0.21693 12.04892,0.63405 10.80664,5.48829 -1.02071,3.98838 -9.5977,7.82151 -15.77148,9.7207 -3.51847,1.08236 -7.94006,5.35636 -9.25391,8.19726 -1.46493,3.16755 0.44571,4.89553 1.71094,5.48438 17.469,5.72417 13.69197,4.95087 25.33398,-11.36524 14.24067,-20.55713 22.13842,-48.68397 6.46485,-59.52539 -4.7788,-3.30548 -10.15231,-4.81558 -15.73633,-4.88867 z m -95.42849,7.30724 c 2.90831,0.0158 7.10034,0.21208 10.33404,3.03849 4.6566,3.85388 8.73967,14.76495 0.51014,22.81565 -4.66251,4.75261 -16.0174,5.2837 -21.42486,-1.37096 -8.8288,-10.18741 0.19384,-24.53946 10.58068,-24.48318 z m -0.37191,43.33805 c 5.70696,-0.0552 13.76928,5.16861 11.1001,15.0138 -2.6264,9.6152 -16.39311,9.7993 -20.27807,1.939 -3.61748,-7.47336 0.65873,-16.54817 9.17797,-16.9528 z m 12.14099,52.01456 c -3.08809,8.62671 -14.35249,8.57107 -19.39114,4.44519 -5.66976,-4.37146 -4.4837,-16.75288 5.48718,-19.39728 9.3685,-2.24281 16.55727,5.51062 13.90396,14.95209 z m 49.72973,7.02495 c -3.63275,8.24339 -17.47981,5.6142 -19.9973,-0.42064 -2.51749,-6.03485 0.63814,-16.21284 10.09123,-15.72401 9.45308,0.48883 13.53882,7.90126 9.90607,16.14465 z m -101.90282,-5.31213 c 0,8.64474 -9.22431,13.33784 -18.04346,8.49373 -7.22039,-5.27924 -5.07661,-17.60167 5.24568,-19.17858 5.25704,-0.27795 11.65302,0.29749 12.79778,10.68485 z m 139.95174,-0.52316 c 2.62979,0.0464 6.27674,1.43348 8.12219,3.20074 2.07338,1.98558 4.56131,7.56892 2.28992,12.67503 -5.83327,13.11329 -23.87638,5.21816 -21.40016,-6.51953 1.11275,-5.53323 5.2025,-9.45831 10.98805,-9.35624 z m -198.876169,0 c 9.155699,0.37773 13.646949,9.24276 10.050239,16.0209 -2.22976,3.98985 -5.64477,7.64812 -13.290981,6.30312 -7.321292,-1.35535 -10.427543,-10.26942 -6.47184,-17.09335 3.082948,-4.29349 5.986049,-5.21396 9.712582,-5.23067 z m 100.120209,15.15639 c 1.43508,-0.008 2.85321,-0.006 4.2539,0.008 37.2168,0.37799 61.25626,6.32624 77.8711,11.8418 15.0608,6.47343 17.30695,9.52299 14.72265,15.37695 -2.08216,5.01207 -15.16496,1.68893 -44.17773,-3.78906 -36.26523,-6.84734 -71.83158,-5.34655 -98.85547,-1.03515 -30.94316,4.93668 -49.09677,12.90705 -52.453124,3.00976 -5.562609,-14.29264 54.150994,-25.16068 98.638674,-25.41211 z m 0.36914,31.31836 c 2.92985,-0.0447 12.8118,4.83397 19.73047,8.32422 l 11.65234,5.87891 -14.0039,6.96484 c -8.96539,4.13744 -14.43445,7.61381 -17.79102,7.61914 -3.57079,0.38151 -25.69517,-10.44993 -32.19727,-14.44141 0,0 26.37355,-14.2505 32.60938,-14.3457 z m -83.9375,11.45313 c 0.36568,-0.005 0.74011,-3.5e-4 1.12305,0.0117 4.76539,0.15009 10.8337,1.5932 17.36914,3.86329 0,0 8.30167,2.62753 8.51757,4.27929 0.21588,1.65179 -9.85937,8.38282 -9.85937,8.38282 -19.05785,14.409 -26.38032,11.13575 -26.17774,-9.69922 0.0462,-4.75651 3.54211,-6.76457 9.02735,-6.83789 z m 166.06641,0.26367 c 7.18052,-0.15255 8.76529,2.20895 8.74609,7.59961 -0.0157,4.38588 -0.69101,8.2954 -2.09961,11.68945 -1.40863,3.39408 -2.75466,6.14105 -6.95898,5.92188 -4.05654,0.22317 -29.80949,-15.12965 -26.94922,-17.66993 1.21216,-1.0766 10.4358,-5.48632 18.06836,-6.56836 3.78486,-0.59078 6.79985,-0.9218 9.19336,-0.97265 z m -79.6875,28.31836 c 39.63165,-0.0985 60.09166,4.13588 76.41406,7.82617 7.61214,1.72101 6.89885,9.52145 5.53125,12.92773 -2.07563,5.16988 -9.42143,4.38946 -25.5,1.30274 -23.32863,-2.91247 -41.07196,-3.4446 -60.06446,-3.44727 -18.99246,-0.002 -38.80113,1.88594 -55.56445,3.38086 -16.63175,1.48326 -24.584,4.76798 -28.24414,0.46094 -3.81449,-4.48865 -2.68336,-12.95057 7.86133,-15.55664 17.16651,-4.24259 31.58551,-6.77533 79.56641,-6.89453 z"
     style="display:inline;opacity:1;fill:#000000;fill-opacity:1;stroke-width:3.98148632" />
</svg>
