<?xml version="1.0" encoding="UTF-8" standalone="no"?>
<svg
   xmlns:dc="http://purl.org/dc/elements/1.1/"
   xmlns:cc="http://creativecommons.org/ns#"
   xmlns:rdf="http://www.w3.org/1999/02/22-rdf-syntax-ns#"
   xmlns:svg="http://www.w3.org/2000/svg"
   xmlns="http://www.w3.org/2000/svg"
   xmlns:sodipodi="http://sodipodi.sourceforge.net/DTD/sodipodi-0.dtd"
   xmlns:inkscape="http://www.inkscape.org/namespaces/inkscape"
   version="1.0"
   width="300.000000pt"
   height="300.000000pt"
   viewBox="0 0 300.000000 300.000000"
   preserveAspectRatio="xMidYMid meet"
   id="svg2"
   inkscape:version="0.92.5 (2060ec1f9f, 2020-04-08)"
   sodipodi:docname="bn.svg">
  <defs
     id="defs12">
    <filter
       style="color-interpolation-filters:sRGB;"
       inkscape:label="Drawing"
       id="filter18775">
      <feGaussianBlur
         in="SourceGraphic"
         stdDeviation="5.99659"
         result="blur1"
         id="feGaussianBlur18721" />
      <feConvolveMatrix
         in="blur1"
         targetX="1"
         targetY="1"
         order="3 3"
         kernelMatrix="0 250 0 250 -1010 250 0 250 0 "
         result="convolve1"
         id="feConvolveMatrix18723" />
      <feComposite
         in="convolve1"
         in2="convolve1"
         k1="1"
         k2="1"
         k4="0.04"
         operator="arithmetic"
         result="composite1"
         id="feComposite18725" />
      <feColorMatrix
         in="composite1"
         values="0 0 0 0 0 0 0 0 0 0 0 0 0 0 0 -0.2125 -0.7154 -0.0721 1 0 "
         result="color1"
         id="feColorMatrix18727" />
      <feGaussianBlur
         stdDeviation="0.61"
         result="blur2"
         id="feGaussianBlur18729" />
      <feColorMatrix
         values="1 0 0 0 0 0 1 0 0 0 0 0 1 0 0 0 0 0 2.7 -1 "
         result="color2"
         id="feColorMatrix18731" />
      <feFlood
         flood-color="rgb(255,255,255)"
         result="flood1"
         id="feFlood18733" />
      <feBlend
         in2="color2"
         mode="multiply"
         result="blend1"
         id="feBlend18735" />
      <feComponentTransfer
         in="blend1"
         result="component1"
         id="feComponentTransfer18743">
        <feFuncR
           type="discrete"
           tableValues="0 1 1 1"
           id="feFuncR18737" />
        <feFuncG
           type="discrete"
           tableValues="0 1 1 1"
           id="feFuncG18739" />
        <feFuncB
           type="discrete"
           tableValues="0 1 1 1"
           id="feFuncB18741" />
      </feComponentTransfer>
      <feGaussianBlur
         stdDeviation="0.61"
         result="blur3"
         id="feGaussianBlur18745" />
      <feColorMatrix
         in="blur3"
         values="0 0 0 0 0 0 0 0 0 0 0 0 0 0 0 -0.2125 -0.7154 -0.0721 1 0 "
         result="color3"
         id="feColorMatrix18747" />
      <feColorMatrix
         values="1 0 0 0 0 0 1 0 0 0 0 0 1 0 0 0 0 0 1.9 -0.5 "
         result="color4"
         id="feColorMatrix18749" />
      <feFlood
         flood-color="rgb(0,0,0)"
         result="flood2"
         id="feFlood18751" />
      <feComposite
         in="flood2"
         in2="color4"
         operator="in"
         result="composite2"
         id="feComposite18753" />
      <feComposite
         in="composite2"
         in2="composite2"
         operator="arithmetic"
         k2="1"
         result="composite3"
         id="feComposite18755" />
      <feOffset
         dx="0"
         dy="0"
         result="offset1"
         id="feOffset18757" />
      <feFlood
         in="color4"
         flood-color="rgb(66,66,66)"
         result="flood3"
         id="feFlood18759" />
      <feComposite
         in="flood3"
         in2="color4"
         operator="out"
         result="composite4"
         id="feComposite18761" />
      <feComposite
         in="composite4"
         in2="composite4"
         operator="arithmetic"
         k2="1"
         result="composite5"
         id="feComposite18763" />
      <feMerge
         result="merge1"
         id="feMerge18769">
        <feMergeNode
           in="composite5"
           id="feMergeNode18765" />
        <feMergeNode
           in="offset1"
           id="feMergeNode18767" />
      </feMerge>
      <feColorMatrix
         values="1 0 0 0 0 0 1 0 0 0 0 0 1 0 0 0 0 0 1.3 0 "
         result="color5"
         flood-opacity="0.56"
         id="feColorMatrix18771" />
      <feComposite
         in="color5"
         in2="SourceGraphic"
         operator="in"
         result="composite8"
         id="feComposite18773" />
    </filter>
  </defs>
  <sodipodi:namedview
     pagecolor="#ffffff"
     bordercolor="#666666"
     borderopacity="1"
     objecttolerance="10"
     gridtolerance="10"
     guidetolerance="10"
     inkscape:pageopacity="0"
     inkscape:pageshadow="2"
     inkscape:window-width="1720"
     inkscape:window-height="1002"
     id="namedview10"
     showgrid="false"
     inkscape:zoom="1.1618931"
     inkscape:cx="203.71736"
     inkscape:cy="139.81529"
     inkscape:window-x="47"
     inkscape:window-y="16"
     inkscape:window-maximized="0"
     inkscape:current-layer="svg2"
     inkscape:pagecheckerboard="true">
    <inkscape:grid
       type="xygrid"
       id="grid22745" />
  </sodipodi:namedview>
  <metadata
     id="metadata4">
Created by potrace 1.12, written by Peter Selinger 2001-2015
<rdf:RDF>
  <cc:Work
     rdf:about="">
    <dc:format>image/svg+xml</dc:format>
    <dc:type
       rdf:resource="http://purl.org/dc/dcmitype/StillImage" />
    <dc:title />
  </cc:Work>
</rdf:RDF>
</metadata>
  <path
     style="display:inline;fill:#e9e6de;fill-opacity:1;stroke-width:2.70247507"
     d="m 124.07422,8.7285156 c -8.29136,0.2272266 -12.49213,9.7792184 -11.98828,16.8730464 -9.49284,-3.537163 -22.249135,3.232169 -21.789065,14.06836 -0.565231,7.369359 5.267964,13.031393 9.666016,17.785156 -2.344639,3.100452 -6.344874,4.960023 -8.587585,8.390305 -22.425261,24.085697 -37.428087,53.779287 -57.644689,79.572057 -8.768564,12.7531 -17.153952,29.65542 -10.043117,45.02397 4.255253,10.28005 12.436466,20.94958 24.117188,22.45703 2.431691,-0.031 5.125597,-2.88503 6.132812,0.51172 8.766842,11.12149 28.135562,10.67218 37.169922,0.15625 4.875584,-5.72339 5.451315,-13.55924 5.927734,-20.61524 3.470674,-4.24763 10.093444,-4.06436 13.445314,-8.79101 5.11949,-5.04709 12.02317,-8.08029 19.24601,-7.01878 5.17619,-0.3566 10.32619,-1.37482 15.18758,-3.20583 -17.26011,20.44719 -41.64658,36.91415 -52.772154,49.24609 -25.090568,21.33504 -30.703541,36.23735 -31.926264,50.1723 -0.48659,11.97631 2.943946,13.09213 11.001155,13.88757 11.093396,0.82877 19.867737,0.67143 30.727883,0.56217 45.80973,0.5467 91.03588,1.15233 137.82311,-0.55858 18.66615,-1.94577 32.5596,3.98914 39.66385,-14.3701 3.81856,-9.16565 2.2481,-19.93489 -2.61914,-28.35156 1.84084,-7.15682 9.88416,-13.82874 5.79102,-21.74805 -2.08481,-4.69534 -7.65659,-9.84673 -3.08594,-14.89258 2.85526,-7.96796 0.61789,-17.34495 -5.13672,-23.46679 3.63251,-7.40737 3.79702,-16.97759 -2.32617,-23.14063 -4.43929,-4.11045 0.55378,-9.48046 -0.49219,-14.45898 0.0787,-5.84202 -3.87415,-10.52143 -8.5293,-13.50586 -3.05052,-3.04597 0.99649,-6.90904 -0.62304,-10.5586 -0.99821,-6.20285 -5.24568,-11.63898 -10.6836,-14.56836 -2.60676,-7.11951 -3.90074,-16.566221 -12.04297,-19.572262 -6.22229,-6.570997 -8.11751,-18.039684 -18.32071,-20.192599 -5.28877,-0.997575 -8.18617,-5.367673 -11.5328,-8.981229 -4.01589,-3.552202 -9.06684,-5.991791 -14.40235,-6.669922 -5.14757,-5.813276 -12.27408,-10.441311 -20.32988,-9.626281 -6.87123,-0.468851 -13.04809,-4.42961 -16.1086,-10.575587 C 149.98717,21.678557 139.08228,9.9052398 124.07422,8.7285156 Z"
     id="path854"
     inkscape:connector-curvature="0"
     sodipodi:nodetypes="cccccccccccccccccccccccccccccccccccc" />
  <path
     style="display:inline;fill:#000000;stroke-width:2.70247507"
     d="m 71.832282,276.42943 c -1.82275,-11.50059 5.347444,-22.26141 9.897301,-27.69332 9.519436,-11.36491 21.680447,-22.9364 37.517637,-36.15401 23.92878,-19.9708 35.97496,-31.00699 39.80374,-43.03721 4.93353,-15.50142 -0.29674,-22.70796 -10.21328,-9.99536 -2.81105,4.43083 -15.33194,6.88943 -24.36972,7.37611 -13.6878,0.73709 -12.69114,2.24814 -15.89118,5.29563 -2.90657,2.76797 -6.17607,5.81792 -9.792845,7.21814 -3.961422,1.53368 -11.563047,3.89983 -12.728961,14.43354 -1.746446,15.77867 -4.927888,17.10601 -15.094994,17.46676 -14.171543,-3.20593 -8.998039,-8.09414 -6.533113,-15.11287 1.181607,-3.36456 6.678192,-8.26565 9.3166,-12.74552 4.367822,-7.41631 -8.750387,-17.01388 -13.771279,-0.90677 -4.011761,12.8698 -9.61413,20.00232 -13.322456,20.00232 -3.508596,0 -15.555282,-15.74457 -15.776785,-24.38864 -0.145581,-5.68124 5.614018,-20.18077 22.017593,-42.22194 7.065895,-9.49429 14.696477,-19.94007 16.809578,-23.30732 12.572906,-20.035067 25.957489,-37.996607 32.910472,-43.178138 9.74806,-7.264481 11.49171,-13.602501 2.78498,-22.162976 -4.85761,-4.776007 -5.840542,-7.382142 -3.76936,-9.99399 3.66227,-4.618272 9.70994,-2.213863 20.10169,7.991945 l 6.97817,5.63513 1.31825,-5.840216 c -0.87824,-5.483199 0.76497,-4.866496 -2.59895,-12.352235 -6.90674,-9.776905 -5.83344,-15.30014 0.18867,-13.119928 6.50938,2.356619 16.81117,11.140203 23.97001,20.35866 4.71625,6.073125 7.17781,10.797616 18.44181,12.817575 10.20576,1.830185 13.66438,1.142923 15.90748,5.529372 1.64239,3.211757 5.53117,5.529371 9.27788,5.529371 3.9653,0 8.11738,2.662765 10.77752,6.911716 2.37996,3.801444 6.62749,6.561029 9.39581,6.911715 6.10435,0.773286 8.23783,4.167122 10.38459,9.429505 2.26406,5.549937 6.93221,10.078592 8.90763,10.871929 1.97541,0.793338 4.86892,1.974411 5.34517,9.797985 0.99639,4.74777 3.95552,9.08698 6.85327,10.0495 4.54937,2.81727 6.0928,4.1475 4.61931,11.66119 -1.20104,6.12443 1.30235,9.53413 5.22338,12.09689 4.30778,2.81555 5.76159,5.99554 3.41178,11.44068 -2.3498,5.44514 -1.77198,10.63953 3.42733,14.57992 3.41351,2.58701 3.42549,6.03071 1.71983,10.72591 -1.5494,4.26495 -4.31546,7.73652 0.44081,12.21748 3.61544,6.33911 7.26496,5.64363 2.24574,17.48008 -4.7284,11.15057 5.12192,13.63976 5.00128,20.05394 -0.0862,4.58553 -7.05732,8.25932 -7.10429,16.4013 -0.33511,6.24943 5.32798,9.36927 5.52457,17.01808 -0.21496,6.62325 -5.42367,14.23378 -8.86163,15.12646 -13.77201,0.34756 -12.51582,2.51437 -10.83539,-23.00554 1.07323,-16.29852 1.75659,-30.06786 0.81465,-46.85111 -0.29522,-12.87518 -0.913,-24.89671 -2.44535,-35.63508 -1.6208,-11.35827 -10.0467,-44.35886 -31.45227,-71.341632 -10.276,-12.953387 -33.63714,-28.735469 -43.87198,-27.063316 -5.13436,0.838845 -4.33461,1.876026 5.71084,7.406376 24.49833,13.487121 44.36658,40.726802 55.76052,84.627072 6.4769,24.95514 2.99501,107.63913 -0.1655,110.963 -5.85618,2.09818 -161.040474,2.73523 -164.206558,0.68184 z M 198.9354,177.08733 c 7.85757,-3.73081 10.80868,-6.45948 9.01558,-8.33608 -1.79311,-1.8766 -4.05925,-3.14001 -9.87195,0.0776 -3.96347,1.57708 -7.63175,3.40199 -12.97808,4.19857 -7.70777,0.0565 -13.48382,2.85017 -11.23764,6.6538 2.70826,4.58613 11.96748,3.62817 25.07209,-2.59393 z M 51.880246,168.66937 c 5.617219,-10.32877 -1.174836,-9.86764 -8.218784,-3.19609 -4.839893,4.58402 -2.455715,11.77073 1.603261,11.73491 1.089687,-0.009 4.066672,-3.85208 6.615523,-8.53882 z m 143.959334,-8.11369 c 9.38209,-5.63114 12.86591,-10.22668 13.86874,-13.79748 3.10164,-11.04413 -4.57961,-9.84013 -11.59287,0.13287 -5.09569,5.22126 -7.64383,6.60393 -13.81872,9.46912 -10.94202,5.07717 -13.40995,6.96132 -9.8106,10.7283 2.0551,2.89617 8.53433,-0.36797 21.35345,-6.53281 z m -8.87514,-13.99698 c 9.29457,-7.65158 15.26589,-20.97974 11.87242,-29.15815 -2.86587,-6.90689 -8.21316,-5.8278 -9.52745,7.8149 -0.78146,8.11195 -4.96959,13.49141 -10.01816,18.06323 -14.08075,12.03138 -4.09981,12.97194 7.67319,3.28002 z M 129.98172,97.524394 c 0.92291,-6.564254 -2.86076,-8.571426 -10.7648,-4.14432 -6.35623,3.560176 -6.81355,8.902716 -0.73732,10.541936 7.28473,1.96523 10.59399,0.0613 11.50212,-6.397616 z M 112.67464,91.5204 c 2.48804,-3.041154 7.43707,-5.529371 10.99784,-5.529371 7.72827,0 11.10403,-4.264517 5.23999,-6.619553 -6.6974,-2.689723 -16.3476,1.105372 -20.76918,8.167815 -6.80421,10.868143 -3.48728,13.782299 4.53135,3.981109 z"
     id="path22811"
     inkscape:connector-curvature="0"
     sodipodi:nodetypes="cssscsccscssssssssssscccssssscsscccsczsccsscccscssssscccsccccccccccscsccssscssssssssss" />
</svg>
