<?xml version="1.0" encoding="UTF-8" standalone="no"?>
<svg
   xmlns:dc="http://purl.org/dc/elements/1.1/"
   xmlns:cc="http://creativecommons.org/ns#"
   xmlns:rdf="http://www.w3.org/1999/02/22-rdf-syntax-ns#"
   xmlns:svg="http://www.w3.org/2000/svg"
   xmlns="http://www.w3.org/2000/svg"
   xmlns:sodipodi="http://sodipodi.sourceforge.net/DTD/sodipodi-0.dtd"
   xmlns:inkscape="http://www.inkscape.org/namespaces/inkscape"
   version="1.0"
   width="300.000000pt"
   height="300.000000pt"
   viewBox="0 0 300.000000 300.000000"
   preserveAspectRatio="xMidYMid meet"
   id="svg2"
   inkscape:version="0.92.5 (2060ec1f9f, 2020-04-08)"
   sodipodi:docname="bn.svg">
  <defs
     id="defs12">
    <filter
       style="color-interpolation-filters:sRGB;"
       inkscape:label="Drawing"
       id="filter18775">
      <feGaussianBlur
         in="SourceGraphic"
         stdDeviation="5.99659"
         result="blur1"
         id="feGaussianBlur18721" />
      <feConvolveMatrix
         in="blur1"
         targetX="1"
         targetY="1"
         order="3 3"
         kernelMatrix="0 250 0 250 -1010 250 0 250 0 "
         result="convolve1"
         id="feConvolveMatrix18723" />
      <feComposite
         in="convolve1"
         in2="convolve1"
         k1="1"
         k2="1"
         k4="0.04"
         operator="arithmetic"
         result="composite1"
         id="feComposite18725" />
      <feColorMatrix
         in="composite1"
         values="0 0 0 0 0 0 0 0 0 0 0 0 0 0 0 -0.2125 -0.7154 -0.0721 1 0 "
         result="color1"
         id="feColorMatrix18727" />
      <feGaussianBlur
         stdDeviation="0.61"
         result="blur2"
         id="feGaussianBlur18729" />
      <feColorMatrix
         values="1 0 0 0 0 0 1 0 0 0 0 0 1 0 0 0 0 0 2.7 -1 "
         result="color2"
         id="feColorMatrix18731" />
      <feFlood
         flood-color="rgb(255,255,255)"
         result="flood1"
         id="feFlood18733" />
      <feBlend
         in2="color2"
         mode="multiply"
         result="blend1"
         id="feBlend18735" />
      <feComponentTransfer
         in="blend1"
         result="component1"
         id="feComponentTransfer18743">
        <feFuncR
           type="discrete"
           tableValues="0 1 1 1"
           id="feFuncR18737" />
        <feFuncG
           type="discrete"
           tableValues="0 1 1 1"
           id="feFuncG18739" />
        <feFuncB
           type="discrete"
           tableValues="0 1 1 1"
           id="feFuncB18741" />
      </feComponentTransfer>
      <feGaussianBlur
         stdDeviation="0.61"
         result="blur3"
         id="feGaussianBlur18745" />
      <feColorMatrix
         in="blur3"
         values="0 0 0 0 0 0 0 0 0 0 0 0 0 0 0 -0.2125 -0.7154 -0.0721 1 0 "
         result="color3"
         id="feColorMatrix18747" />
      <feColorMatrix
         values="1 0 0 0 0 0 1 0 0 0 0 0 1 0 0 0 0 0 1.9 -0.5 "
         result="color4"
         id="feColorMatrix18749" />
      <feFlood
         flood-color="rgb(0,0,0)"
         result="flood2"
         id="feFlood18751" />
      <feComposite
         in="flood2"
         in2="color4"
         operator="in"
         result="composite2"
         id="feComposite18753" />
      <feComposite
         in="composite2"
         in2="composite2"
         operator="arithmetic"
         k2="1"
         result="composite3"
         id="feComposite18755" />
      <feOffset
         dx="0"
         dy="0"
         result="offset1"
         id="feOffset18757" />
      <feFlood
         in="color4"
         flood-color="rgb(66,66,66)"
         result="flood3"
         id="feFlood18759" />
      <feComposite
         in="flood3"
         in2="color4"
         operator="out"
         result="composite4"
         id="feComposite18761" />
      <feComposite
         in="composite4"
         in2="composite4"
         operator="arithmetic"
         k2="1"
         result="composite5"
         id="feComposite18763" />
      <feMerge
         result="merge1"
         id="feMerge18769">
        <feMergeNode
           in="composite5"
           id="feMergeNode18765" />
        <feMergeNode
           in="offset1"
           id="feMergeNode18767" />
      </feMerge>
      <feColorMatrix
         values="1 0 0 0 0 0 1 0 0 0 0 0 1 0 0 0 0 0 1.3 0 "
         result="color5"
         flood-opacity="0.56"
         id="feColorMatrix18771" />
      <feComposite
         in="color5"
         in2="SourceGraphic"
         operator="in"
         result="composite8"
         id="feComposite18773" />
    </filter>
  </defs>
  <sodipodi:namedview
     pagecolor="#ffffff"
     bordercolor="#666666"
     borderopacity="1"
     objecttolerance="10"
     gridtolerance="10"
     guidetolerance="10"
     inkscape:pageopacity="0"
     inkscape:pageshadow="2"
     inkscape:window-width="1579"
     inkscape:window-height="1002"
     id="namedview10"
     showgrid="false"
     inkscape:zoom="1.643165"
     inkscape:cx="101.02282"
     inkscape:cy="138.02539"
     inkscape:window-x="68"
     inkscape:window-y="8"
     inkscape:window-maximized="0"
     inkscape:current-layer="svg2"
     inkscape:pagecheckerboard="true">
    <inkscape:grid
       type="xygrid"
       id="grid22745" />
  </sodipodi:namedview>
  <metadata
     id="metadata4">
Created by potrace 1.12, written by Peter Selinger 2001-2015
<rdf:RDF>
  <cc:Work
     rdf:about="">
    <dc:format>image/svg+xml</dc:format>
    <dc:type
       rdf:resource="http://purl.org/dc/dcmitype/StillImage" />
    <dc:title />
  </cc:Work>
</rdf:RDF>
</metadata>
  <path
     style="display:inline;opacity:1;fill:#e3dfd3;fill-opacity:1;stroke-width:2.70247507"
     d="m 124.47656,10.183594 c -8.60847,0.265255 -12.54028,10.76285 -10.09765,18.033203 -7.91929,-4.131728 -20.091214,-1.437206 -22.123051,8.224609 -2.067024,7.683329 2.975344,15.012018 8.822261,19.347656 1.97208,4.249347 -4.087779,5.220129 -5.769526,8.136719 -23.248914,23.417602 -37.87084,53.526229 -58.238282,79.230469 -8.168682,11.90078 -17.086897,26.24463 -13.90039,41.2793 3.408022,11.74731 11.311796,23.9875 23.814453,27.06836 2.382277,0.56198 5.310742,-2.18055 6.845703,-1.52735 7.344131,15.35123 33.96905,13.45254 38.925781,-2.98242 2.774649,-6.13129 -0.09088,-15.96883 7.830081,-18.62305 9.34508,-2.49345 14.69703,-14.39592 25.53592,-12.57989 7.56133,-0.33852 15.5293,-1.84176 22.23752,-4.91034 -8.87426,15.47896 -24.6452,24.77736 -37.18608,36.93387 -18.089845,15.5968 -38.414219,31.51178 -47.046406,54.61098 -2.552931,7.36873 -3.254422,18.79854 5.289122,22.37507 8.640311,2.50189 16.849217,1.48901 26.657991,1.50155 58.846873,-0.15056 119.858263,0.23954 173.078333,-1.13436 9.10121,-0.71013 15.75265,-11.64588 10.61328,-19.64258 -1.41926,-2.26187 -3.33651,-3.81711 -0.13867,-5.21094 6.36049,-5.78308 3.9496,-15.62444 -1.36914,-21.20507 -3.89231,-2.83108 0.30976,-2.39227 3.01563,-5.00563 5.54118,-6.95986 0.91791,-16.74674 -3.65651,-22.64012 -1.77068,-1.97737 -2.73717,-2.94659 0.0491,-3.95386 6.87686,-3.90964 8.01017,-14.05831 2.33398,-19.5293 -1.17601,-2.11905 -5.26385,-4.14274 -4.89062,-6.01758 7.44145,-4.83725 6.63698,-16.5156 -0.51172,-21.26758 -1.76527,-1.91226 -6.31077,-3.47469 -2.5,-5.58789 5.21107,-5.87299 3.06167,-15.51804 -3.66407,-19.23437 -2.38188,-1.71721 -5.62128,-2.5641 -7.55859,-4.66407 6.27969,-5.6259 4.5987,-17.12052 -3.5957,-20.00195 -2.54456,-1.67457 -9.27377,-1.2552 -6.2168,-5.26953 2.93802,-7.405967 -2.71112,-15.777069 -10.50977,-16.451172 -2.62391,-0.362459 -7.06157,-0.954198 -4.99609,-4.552734 1.18738,-8.948061 -7.38147,-17.283112 -16.30469,-15.587891 -3.22828,0.417094 -4.64082,-2.239855 -4.58398,-4.902344 -3.32058,-7.92475 -13.0704,-9.098105 -20.38672,-9.287109 -2.5581,-4.172314 -5.59573,-8.612666 -10.94336,-9.134766 -7.67757,-1.925994 -17.90422,-0.14341 -22.30996,-8.284017 -9.30512,-12.06767 -20.44751,-25.459408 -36.55137,-27.553873 z"
     id="path853"
     inkscape:connector-curvature="0"
     sodipodi:nodetypes="cccccccccccccccccccccccccccccccccccccccc" />
  <path
     style="display:inline;opacity:1;fill:#000000;stroke-width:2.70247507"
     d="m 71.83229,276.42942 c -1.82275,-11.50059 5.34745,-22.26141 9.8973,-27.69332 9.51944,-11.36491 21.68045,-22.93639 37.51764,-36.154 23.92877,-19.97079 35.97495,-31.00698 39.80373,-43.03722 4.93353,-15.50142 -0.29672,-22.70795 -10.21328,-9.99534 -2.81105,4.43083 -15.33192,6.88941 -24.36972,7.37611 -13.68779,0.73709 -12.69113,2.24814 -15.89117,5.29563 -2.90657,2.76797 -6.17607,5.81792 -9.79285,7.21814 -3.96142,1.53367 -11.56304,3.89983 -12.72896,14.43354 -1.74644,15.77866 -4.92788,17.10601 -15.09499,17.46676 -14.171542,-3.20593 -8.998039,-8.09415 -6.533113,-15.11287 1.181607,-3.36456 6.678193,-8.26565 9.316603,-12.74552 4.36782,-7.41631 -8.75039,-17.01388 -13.771282,-0.90678 -4.011759,12.86981 -9.614128,20.00232 -13.322454,20.00232 -3.508596,0 -15.555282,-15.74457 -15.776785,-24.38863 -0.145581,-5.68125 5.614018,-20.18078 22.017592,-42.22195 7.065894,-9.49429 14.696479,-19.94007 16.809579,-23.30733 12.5729,-20.035059 25.95748,-37.996599 32.91047,-43.178129 9.74806,-7.264481 11.49171,-13.602501 2.78498,-22.162976 -4.85761,-4.776006 -5.84054,-7.382142 -3.76936,-9.99399 3.66227,-4.61827 9.70994,-2.213861 20.10169,7.991947 l 6.97817,5.635128 1.31824,-5.840216 c -0.87823,-5.483198 0.76497,-4.866494 -2.59894,-12.352233 -6.90674,-9.776905 -5.83344,-15.30014 0.18867,-13.119928 6.50938,2.356619 16.81117,11.140202 23.97001,20.358659 4.71624,6.073124 7.42083,12.034252 18.78414,13.388119 12.48794,1.487858 13.41434,0.0953 16.24979,7.469226 1.04403,2.715109 4.27599,3.247189 8.25091,3.589517 12.02253,1.035401 10.89744,1.107091 11.80449,6.227062 0.90707,5.119968 4.90706,6.537963 8.71116,7.025823 11.25503,0.80082 12.72871,2.47356 9.52184,7.216737 -2.36946,3.332619 0.83166,9.001486 10.58298,11.882491 9.18389,1.962656 9.21941,5.479633 5.75435,8.259193 -3.46506,2.77956 -4.19152,8.58901 5.40327,11.6494 14.08768,4.72035 10.63485,7.67159 6.17195,9.91614 -4.276,2.15056 -4.90248,8.05744 6.13389,14.04248 11.55341,6.3486 7.01441,10.14264 1.35543,9.76821 -4.60431,-0.0321 -2.32844,8.09277 3.87634,13.08503 13.29813,10.69945 6.64681,12.50503 1.20635,11.18236 -3.91552,-0.70486 -3.85903,7.66493 2.05455,13.0277 13.57413,13.11102 3.84196,12.69946 0.97433,11.76316 -5.50551,-1.79757 -6.23614,8.17074 -2.17013,11.85961 15.09487,16.44581 7.60188,17.40724 2.6641,15.12897 -3.72242,-1.71751 -7.14785,3.95819 -2.38834,11.36596 12.35278,15.44937 8.27376,18.07266 3.62405,16.31931 -7.0941,-2.17309 -9.49071,3.74791 0.82139,14.68632 4.20361,4.45891 0.82466,7.75239 -8.44758,7.79778 -13.77201,0.34755 -12.51582,2.51436 -10.83539,-23.00555 1.07323,-16.29852 1.75659,-30.06784 0.81465,-46.8511 -0.29522,-12.87519 -0.913,-24.8967 -2.44535,-35.63508 -1.6208,-11.35827 -10.0467,-44.35886 -31.45227,-71.34163 -10.276,-12.953391 -33.63714,-28.735472 -43.87197,-27.063319 -5.13437,0.838845 -4.33461,1.876026 5.71083,7.406376 24.49833,13.487114 44.36658,40.726803 55.76052,84.627083 6.4769,24.95514 2.99501,107.63911 -0.1655,110.96298 -5.85618,2.09818 -161.04046,2.73523 -164.20655,0.68184 z M 198.9354,177.08733 c 7.85757,-3.7308 10.80868,-6.45948 9.01558,-8.33607 -1.79311,-1.87662 -4.05925,-3.14001 -9.87195,0.0776 -3.96347,1.57708 -7.63175,3.402 -12.97808,4.19857 -7.70777,0.0565 -13.48382,2.85017 -11.23764,6.65379 2.70826,4.58613 11.96748,3.62817 25.07209,-2.59392 z M 51.880258,168.66936 c 5.617217,-10.32876 -1.174836,-9.86763 -8.218785,-3.19607 -4.839892,4.58402 -2.455714,11.77073 1.603261,11.73491 1.089687,-0.009 4.066673,-3.85209 6.615524,-8.53884 z m 143.959322,-8.11368 c 9.38209,-5.63115 12.86591,-10.22667 13.86874,-13.79747 3.10164,-11.04415 -4.57961,-9.84014 -11.59287,0.13286 -5.09569,5.22126 -7.64383,6.60393 -13.81872,9.46911 -10.94202,5.07717 -13.40995,6.96132 -9.8106,10.7283 2.0551,2.89617 8.53433,-0.36795 21.35345,-6.5328 z m -8.87514,-13.99698 c 9.29457,-7.65159 15.26589,-20.97974 11.87242,-29.15815 -2.86587,-6.9069 -8.21316,-5.8278 -9.52745,7.8149 -0.78146,8.11195 -4.96959,13.49141 -10.01816,18.06323 -14.08075,12.03138 -4.09981,12.97194 7.67319,3.28002 z M 129.98172,97.524394 c 0.92292,-6.564253 -2.86075,-8.571433 -10.76479,-4.144323 -6.35623,3.560178 -6.81355,8.902719 -0.73732,10.541929 7.28473,1.96524 10.59398,0.0613 11.50211,-6.397606 z m -17.30707,-6.003993 c 2.48804,-3.04116 7.43707,-5.529375 10.99783,-5.529375 7.72827,0 11.10403,-4.264515 5.24,-6.619551 -6.6974,-2.689724 -16.3476,1.105371 -20.76918,8.167816 -6.80421,10.868138 -3.48728,13.782299 4.53135,3.98111 z"
     id="path22811-5"
     inkscape:connector-curvature="0"
     sodipodi:nodetypes="cssscsccscssssssssssscccssssszccczcsccsccscsccscscssssscccsccccccccccscsccssscssssssssss" />
</svg>
