<?xml version="1.0" encoding="UTF-8" standalone="no"?>
<svg
   xmlns:dc="http://purl.org/dc/elements/1.1/"
   xmlns:cc="http://creativecommons.org/ns#"
   xmlns:rdf="http://www.w3.org/1999/02/22-rdf-syntax-ns#"
   xmlns:svg="http://www.w3.org/2000/svg"
   xmlns="http://www.w3.org/2000/svg"
   xmlns:sodipodi="http://sodipodi.sourceforge.net/DTD/sodipodi-0.dtd"
   xmlns:inkscape="http://www.inkscape.org/namespaces/inkscape"
   version="1.0"
   width="300.000000pt"
   height="300.000000pt"
   viewBox="0 0 300.000000 300.000000"
   preserveAspectRatio="xMidYMid meet"
   id="svg2"
   inkscape:version="0.92.5 (2060ec1f9f, 2020-04-08)"
   sodipodi:docname="bq.svg">
  <defs
     id="defs12">
    <filter
       style="color-interpolation-filters:sRGB;"
       inkscape:label="Drawing"
       id="filter18775">
      <feGaussianBlur
         in="SourceGraphic"
         stdDeviation="5.99659"
         result="blur1"
         id="feGaussianBlur18721" />
      <feConvolveMatrix
         in="blur1"
         targetX="1"
         targetY="1"
         order="3 3"
         kernelMatrix="0 250 0 250 -1010 250 0 250 0 "
         result="convolve1"
         id="feConvolveMatrix18723" />
      <feComposite
         in="convolve1"
         in2="convolve1"
         k1="1"
         k2="1"
         k4="0.04"
         operator="arithmetic"
         result="composite1"
         id="feComposite18725" />
      <feColorMatrix
         in="composite1"
         values="0 0 0 0 0 0 0 0 0 0 0 0 0 0 0 -0.2125 -0.7154 -0.0721 1 0 "
         result="color1"
         id="feColorMatrix18727" />
      <feGaussianBlur
         stdDeviation="0.61"
         result="blur2"
         id="feGaussianBlur18729" />
      <feColorMatrix
         values="1 0 0 0 0 0 1 0 0 0 0 0 1 0 0 0 0 0 2.7 -1 "
         result="color2"
         id="feColorMatrix18731" />
      <feFlood
         flood-color="rgb(255,255,255)"
         result="flood1"
         id="feFlood18733" />
      <feBlend
         in2="color2"
         mode="multiply"
         result="blend1"
         id="feBlend18735" />
      <feComponentTransfer
         in="blend1"
         result="component1"
         id="feComponentTransfer18743">
        <feFuncR
           type="discrete"
           tableValues="0 1 1 1"
           id="feFuncR18737" />
        <feFuncG
           type="discrete"
           tableValues="0 1 1 1"
           id="feFuncG18739" />
        <feFuncB
           type="discrete"
           tableValues="0 1 1 1"
           id="feFuncB18741" />
      </feComponentTransfer>
      <feGaussianBlur
         stdDeviation="0.61"
         result="blur3"
         id="feGaussianBlur18745" />
      <feColorMatrix
         in="blur3"
         values="0 0 0 0 0 0 0 0 0 0 0 0 0 0 0 -0.2125 -0.7154 -0.0721 1 0 "
         result="color3"
         id="feColorMatrix18747" />
      <feColorMatrix
         values="1 0 0 0 0 0 1 0 0 0 0 0 1 0 0 0 0 0 1.9 -0.5 "
         result="color4"
         id="feColorMatrix18749" />
      <feFlood
         flood-color="rgb(0,0,0)"
         result="flood2"
         id="feFlood18751" />
      <feComposite
         in="flood2"
         in2="color4"
         operator="in"
         result="composite2"
         id="feComposite18753" />
      <feComposite
         in="composite2"
         in2="composite2"
         operator="arithmetic"
         k2="1"
         result="composite3"
         id="feComposite18755" />
      <feOffset
         dx="0"
         dy="0"
         result="offset1"
         id="feOffset18757" />
      <feFlood
         in="color4"
         flood-color="rgb(66,66,66)"
         result="flood3"
         id="feFlood18759" />
      <feComposite
         in="flood3"
         in2="color4"
         operator="out"
         result="composite4"
         id="feComposite18761" />
      <feComposite
         in="composite4"
         in2="composite4"
         operator="arithmetic"
         k2="1"
         result="composite5"
         id="feComposite18763" />
      <feMerge
         result="merge1"
         id="feMerge18769">
        <feMergeNode
           in="composite5"
           id="feMergeNode18765" />
        <feMergeNode
           in="offset1"
           id="feMergeNode18767" />
      </feMerge>
      <feColorMatrix
         values="1 0 0 0 0 0 1 0 0 0 0 0 1 0 0 0 0 0 1.3 0 "
         result="color5"
         flood-opacity="0.56"
         id="feColorMatrix18771" />
      <feComposite
         in="color5"
         in2="SourceGraphic"
         operator="in"
         result="composite8"
         id="feComposite18773" />
    </filter>
  </defs>
  <sodipodi:namedview
     pagecolor="#ffffff"
     bordercolor="#666666"
     borderopacity="1"
     objecttolerance="10"
     gridtolerance="10"
     guidetolerance="10"
     inkscape:pageopacity="0"
     inkscape:pageshadow="2"
     inkscape:window-width="1577"
     inkscape:window-height="1002"
     id="namedview10"
     showgrid="false"
     inkscape:zoom="0.90400959"
     inkscape:cx="-577.15793"
     inkscape:cy="-8.8734888"
     inkscape:window-x="-1"
     inkscape:window-y="20"
     inkscape:window-maximized="0"
     inkscape:current-layer="svg2"
     inkscape:pagecheckerboard="true">
    <inkscape:grid
       type="xygrid"
       id="grid22745" />
  </sodipodi:namedview>
  <metadata
     id="metadata4">
Created by potrace 1.12, written by Peter Selinger 2001-2015
<rdf:RDF>
  <cc:Work
     rdf:about="">
    <dc:format>image/svg+xml</dc:format>
    <dc:type
       rdf:resource="http://purl.org/dc/dcmitype/StillImage" />
    <dc:title />
  </cc:Work>
</rdf:RDF>
</metadata>
  <path
     style="display:inline;fill:#e3dfd3;fill-opacity:1;stroke-width:2.81971192"
     d="M 149.0332,5.2890625 C 129.90341,4.4470168 116.89884,30.697242 129.79492,45.091797 c 6.62377,10.344451 1.08037,22.572732 1.60986,33.998984 -1.58067,20.379752 -2.93633,40.752629 -4.81103,61.098669 -9.42474,-21.28531 -15.92888,-43.634415 -21.04102,-66.328122 2.72333,-9.034708 4.90375,-19.85198 -1.35742,-28.083984 -8.318434,-12.705688 -28.6002,-14.045867 -38.531248,-2.515625 -9.864988,10.005335 -8.629754,27.912455 2.558594,36.433593 7.333996,5.56553 7.537493,15.443437 10.560249,23.452978 3.794054,13.94303 6.047511,28.26207 7.105767,42.65835 C 74.552758,132.63802 63.185828,119.22614 54.722656,103.94336 55.761789,94.146255 54.203126,82.37895 44.732422,77.060547 30.097448,67.072561 6.117106,77.008828 5.1054688,95.375 c -1.2341658,11.82091 6.4665552,24.29676 18.0664062,27.57031 13.673778,13.711 20.652675,32.40515 31.0625,48.28516 -1.279629,5.36276 -6.409653,9.3648 -5.923828,15.32812 -1.41658,17.14191 14.216536,29.59911 14.998047,46.35743 0.996302,7.38269 -2.780743,13.9117 -5.314453,20.46093 -3.152113,13.50398 7.331535,28.00186 20.985329,29.76397 30.774,9.25715 63.39583,8.51405 95.18082,7.94595 20.7637,-1.31705 42.21556,-4.22613 60.75182,-14.16695 9.58084,-8.58879 8.03006,-23.68322 2.18555,-33.94726 -4.21215,-16.19256 7.32261,-30.46743 12.83007,-44.68555 2.54203,-8.83784 1.03808,-18.92781 -4.57617,-26.30273 5.82932,-10.28296 12.21315,-20.23996 17.6884,-30.73709 5.16715,-9.56336 12.47703,-18.12801 22.2491,-23.1301 10.07608,-7.50597 13.69713,-23.169936 5.64063,-33.412112 -8.19172,-12.399203 -28.39004,-15.763183 -38.52539,-3.873047 -6.92902,6.846218 -6.75775,17.268886 -8.11133,26.105469 -7.44036,14.57849 -20.35982,25.2488 -29.47764,38.69317 -2.74127,4.57524 -0.76618,-2.71184 -0.91494,-4.44708 2.17394,-19.09921 6.07353,-38.29225 12.51563,-56.363278 C 231.549,78.433704 239.98348,73.598757 240.37109,64.457031 242.90325,50.039075 231.12097,34.346238 215.96875,34.980469 201.68255,34.494359 187.94759,49.171 192.5,63.513672 c 2.10945,7.867663 1.93506,16.278839 -1.48677,23.709814 -4.68361,18.132594 -10.49856,35.786874 -18.14604,52.901514 -3.262,-26.38785 -4.0843,-53.155979 -6.38672,-79.699219 -1.03372,-6.742096 1.41258,-13.085809 5.23047,-18.574219 C 178.90229,28.413221 171.11532,9.6602946 156.10352,6.1191406 153.80209,5.5096044 151.41347,5.2267094 149.0332,5.2890625 Z"
     id="path844"
     inkscape:connector-curvature="0"
     sodipodi:nodetypes="ccccccccccccccccccccccccccccccccccccccccc" />
  <path
     style="display:inline;fill:#000000;fill-opacity:1;stroke-width:2.81971192"
     d="m 102.92981,277.77771 c -32.642476,-4.57624 -40.361322,-11.94789 -31.431715,-30.01785 3.15424,-6.38291 3.283307,-10.62235 0.689109,-22.63491 -1.755631,-8.12955 -5.331507,-17.31587 -8.01581,-20.35333 -8.182858,-15.09006 -6.217243,-20.35924 -0.298339,-27.20331 4.250528,-4.91492 2.776985,-6.42649 -12.706213,-32.57889 C 37.293147,121.5556 32.443604,113.86846 24.59,111.87339 14.803224,109.38724 10.936062,91.296876 23.910056,85.173035 c 11.372785,-5.368058 22.184706,3.1264 20.302194,13.59703 -1.838528,10.225985 1.943565,13.842875 22.468122,40.301635 13.026665,16.79303 25.078542,30.01766 26.781952,29.38807 C 104.05569,167.30336 89.815305,90.37396 79.847388,74.780966 66.459687,69.332095 67.572515,53.057888 75.414162,48.632355 c 15.108646,-8.526756 28.055948,4.736779 19.615354,21.240653 -1.995847,3.90248 2.088767,17.293042 12.347514,49.481592 7.54975,23.68862 16.12352,39.13687 17.59941,40.68131 1.47591,1.54446 3.2637,4.07238 5.48337,3.18104 3.07384,-1.23432 5.93849,-6.90037 7.85799,-34.99124 2.33627,-34.190003 3.2111,-41.125778 4.40285,-58.632681 1.58919,-18.881639 0.27348,-25.023808 -1.89723,-27.059728 -7.30303,-6.849556 -7.0305,-18.432382 -0.79428,-23.236755 5.72092,-4.407397 13.42506,-4.320448 18.97472,-0.173921 6.12529,4.576613 6.16025,17.064293 -0.11861,23.419866 -5.65317,5.722233 -2.69491,21.003332 -1.15233,42.142002 2.39451,27.302227 2.98831,80.339387 13.71472,78.778967 7.43685,-1.08187 32.54562,-74.08366 33.79766,-92.460126 -6.46447,-13.516622 -1.80335,-26.727675 11.78735,-25.04071 16.35383,2.029942 17.98604,21.770248 2.09961,29.516587 -3.29563,5.635784 -6.76719,14.478177 -11.18605,36.946399 -9.31988,47.38823 -5.54273,56.17061 -1.75856,56.72817 4.43062,0.48327 21.5011,-23.69821 30.13527,-33.35641 16.96771,-20.38426 21.31672,-27.76354 19.70556,-34.96528 -1.37127,-13.219361 11.53567,-20.152036 18.98994,-15.90389 17.11548,9.754022 8.44665,23.84757 -0.007,26.91613 -6.98354,2.36806 -8.87915,6.10064 -25.26976,32.39598 -17.15105,28.50342 -17.18929,28.56098 -12.36619,34.15516 6.10176,7.07726 6.23562,13.31225 -2.08788,27.99299 -5.41594,9.55246 -6.55348,13.90655 -8.72911,28.59995 -1.40844,9.51216 4.03853,14.78856 5.18774,19.62399 3.26802,13.7505 -4.31204,17.71561 -32.08823,22.85556 -26.85501,4.96951 -62.67138,5.08421 -96.72769,0.30975 z m 48.44245,-17.70365 c 14.95052,-0.20421 29.35998,0.93277 42.21295,2.26297 17.74545,1.83654 25.83748,1.61621 24.81455,-3.29953 -0.32825,-3.48045 -2.89857,-7.54096 -17.47797,-9.82343 -36.4011,-5.69875 -56.86766,-5.14563 -85.85653,-2.20712 -28.363831,3.13783 -35.411682,7.17975 -32.392803,14.48473 1.016845,2.46053 8.2029,2.58871 23.066693,0.99789 11.62756,-1.24444 34.26284,-2.47828 45.63311,-2.41551 z m 65.6938,-29.69585 c 3.45694,-13.09711 -3.60316,-12.93048 -15.82285,-9.10478 -11.89022,3.58264 -7.78211,5.55448 -0.82788,12.82993 9.94655,7.72533 13.70272,8.20229 16.65073,-3.72515 z m -116.98529,3.72515 c 9.45277,-10.09129 9.42867,-9.53019 -4.144756,-13.80581 -12.332005,-3.88456 -15.286556,0.98078 -12.316121,11.00667 2.614012,8.82287 5.026702,12.05512 16.460877,2.79914 z m 61.09457,-3.70638 11.55793,-7.09462 -11.63298,-7.53723 c -10.60777,-6.87298 -9.92683,-8.02898 -20.51608,-0.9288 -6.30354,4.05433 -12.67457,8.40552 -12.67457,8.40552 5.98832,4.3048 18.61605,11.96714 21.71028,12.20884 3.08668,-0.0965 6.49521,-1.9476 11.55542,-5.05371 z m 19.49074,-28.49793 c 20.51189,2.90395 30.33975,8.68598 35.63056,6.67083 8.81974,-3.35925 10.71982,-10.05429 -1.66075,-13.44548 -13.45967,-3.68676 -31.13055,-10.44616 -64.62836,-9.83494 -37.18457,-0.15477 -55.870134,7.58387 -67.462807,10.72519 -5.156301,1.39723 -7.032979,5.4601 -3.922744,9.38176 2.01316,2.53838 7.946893,3.54011 7.946893,3.54011 4.038423,-0.22997 17.543828,-4.48525 32.823328,-6.93383 15.27951,-2.44858 42.63029,-2.65031 61.27388,-0.10364 z"
     id="path842"
     inkscape:connector-curvature="0"
     sodipodi:nodetypes="cssccsssssccsssccscsssscscscccccsccsssssscsscscscscccccsccssscccscsscscszc" />
</svg>
