<?xml version="1.0" encoding="UTF-8" standalone="no"?>
<svg
   xmlns:dc="http://purl.org/dc/elements/1.1/"
   xmlns:cc="http://creativecommons.org/ns#"
   xmlns:rdf="http://www.w3.org/1999/02/22-rdf-syntax-ns#"
   xmlns:svg="http://www.w3.org/2000/svg"
   xmlns="http://www.w3.org/2000/svg"
   xmlns:sodipodi="http://sodipodi.sourceforge.net/DTD/sodipodi-0.dtd"
   xmlns:inkscape="http://www.inkscape.org/namespaces/inkscape"
   version="1.0"
   width="300.000000pt"
   height="300.000000pt"
   viewBox="0 0 300.000000 300.000000"
   preserveAspectRatio="xMidYMid meet"
   id="svg2"
   inkscape:version="0.92.5 (2060ec1f9f, 2020-04-08)"
   sodipodi:docname="br.svg">
  <defs
     id="defs12">
    <filter
       style="color-interpolation-filters:sRGB;"
       inkscape:label="Drawing"
       id="filter18775">
      <feGaussianBlur
         in="SourceGraphic"
         stdDeviation="5.99659"
         result="blur1"
         id="feGaussianBlur18721" />
      <feConvolveMatrix
         in="blur1"
         targetX="1"
         targetY="1"
         order="3 3"
         kernelMatrix="0 250 0 250 -1010 250 0 250 0 "
         result="convolve1"
         id="feConvolveMatrix18723" />
      <feComposite
         in="convolve1"
         in2="convolve1"
         k1="1"
         k2="1"
         k4="0.04"
         operator="arithmetic"
         result="composite1"
         id="feComposite18725" />
      <feColorMatrix
         in="composite1"
         values="0 0 0 0 0 0 0 0 0 0 0 0 0 0 0 -0.2125 -0.7154 -0.0721 1 0 "
         result="color1"
         id="feColorMatrix18727" />
      <feGaussianBlur
         stdDeviation="0.61"
         result="blur2"
         id="feGaussianBlur18729" />
      <feColorMatrix
         values="1 0 0 0 0 0 1 0 0 0 0 0 1 0 0 0 0 0 2.7 -1 "
         result="color2"
         id="feColorMatrix18731" />
      <feFlood
         flood-color="rgb(255,255,255)"
         result="flood1"
         id="feFlood18733" />
      <feBlend
         in2="color2"
         mode="multiply"
         result="blend1"
         id="feBlend18735" />
      <feComponentTransfer
         in="blend1"
         result="component1"
         id="feComponentTransfer18743">
        <feFuncR
           type="discrete"
           tableValues="0 1 1 1"
           id="feFuncR18737" />
        <feFuncG
           type="discrete"
           tableValues="0 1 1 1"
           id="feFuncG18739" />
        <feFuncB
           type="discrete"
           tableValues="0 1 1 1"
           id="feFuncB18741" />
      </feComponentTransfer>
      <feGaussianBlur
         stdDeviation="0.61"
         result="blur3"
         id="feGaussianBlur18745" />
      <feColorMatrix
         in="blur3"
         values="0 0 0 0 0 0 0 0 0 0 0 0 0 0 0 -0.2125 -0.7154 -0.0721 1 0 "
         result="color3"
         id="feColorMatrix18747" />
      <feColorMatrix
         values="1 0 0 0 0 0 1 0 0 0 0 0 1 0 0 0 0 0 1.9 -0.5 "
         result="color4"
         id="feColorMatrix18749" />
      <feFlood
         flood-color="rgb(0,0,0)"
         result="flood2"
         id="feFlood18751" />
      <feComposite
         in="flood2"
         in2="color4"
         operator="in"
         result="composite2"
         id="feComposite18753" />
      <feComposite
         in="composite2"
         in2="composite2"
         operator="arithmetic"
         k2="1"
         result="composite3"
         id="feComposite18755" />
      <feOffset
         dx="0"
         dy="0"
         result="offset1"
         id="feOffset18757" />
      <feFlood
         in="color4"
         flood-color="rgb(66,66,66)"
         result="flood3"
         id="feFlood18759" />
      <feComposite
         in="flood3"
         in2="color4"
         operator="out"
         result="composite4"
         id="feComposite18761" />
      <feComposite
         in="composite4"
         in2="composite4"
         operator="arithmetic"
         k2="1"
         result="composite5"
         id="feComposite18763" />
      <feMerge
         result="merge1"
         id="feMerge18769">
        <feMergeNode
           in="composite5"
           id="feMergeNode18765" />
        <feMergeNode
           in="offset1"
           id="feMergeNode18767" />
      </feMerge>
      <feColorMatrix
         values="1 0 0 0 0 0 1 0 0 0 0 0 1 0 0 0 0 0 1.3 0 "
         result="color5"
         flood-opacity="0.56"
         id="feColorMatrix18771" />
      <feComposite
         in="color5"
         in2="SourceGraphic"
         operator="in"
         result="composite8"
         id="feComposite18773" />
    </filter>
  </defs>
  <sodipodi:namedview
     pagecolor="#ffffff"
     bordercolor="#666666"
     borderopacity="1"
     objecttolerance="10"
     gridtolerance="10"
     guidetolerance="10"
     inkscape:pageopacity="0"
     inkscape:pageshadow="2"
     inkscape:window-width="1345"
     inkscape:window-height="1002"
     id="namedview10"
     showgrid="false"
     inkscape:zoom="1.4319427"
     inkscape:cx="-195.70509"
     inkscape:cy="176.60007"
     inkscape:window-x="16"
     inkscape:window-y="16"
     inkscape:window-maximized="0"
     inkscape:current-layer="svg2"
     inkscape:pagecheckerboard="true">
    <inkscape:grid
       type="xygrid"
       id="grid842" />
  </sodipodi:namedview>
  <metadata
     id="metadata4">
Created by potrace 1.12, written by Peter Selinger 2001-2015
<rdf:RDF>
  <cc:Work
     rdf:about="">
    <dc:format>image/svg+xml</dc:format>
    <dc:type
       rdf:resource="http://purl.org/dc/dcmitype/StillImage" />
    <dc:title />
  </cc:Work>
</rdf:RDF>
</metadata>
  <path
     style="fill:#e3dfd3;fill-opacity:1;stroke-width:2.58054876"
     d="m 152.46094,10.988281 c -12.05936,0.971391 -27.06256,-2.2716873 -36.17774,7.923828 -4.46313,6.077054 -3.60803,14.0416 -3.18945,21.107422 -2.5352,-0.229388 -8.08299,3.010349 -6.78516,-1.498047 0.63657,-8.238056 -1.22155,-19.661136 -10.705074,-21.83789 -13.10179,-3.102297 -25.970594,3.114131 -39.003907,3.705078 -4.180674,1.868477 -8.7441,1.926304 -12.529297,5.591797 0.806091,22.205722 -1.851869,47.769653 4.03711,53.675781 4.511186,6.946648 13.278252,9.043494 18.558594,15.177734 -0.37108,34.989286 0.860926,69.983726 -0.08594,104.968746 -11.794481,4.11035 -21.287241,16.73923 -18.791016,29.32422 -11.264356,5.17389 -18.805994,16.77122 -19.320312,29.13477 -0.126452,8.98259 1.184658,20.46175 4.263865,27.57243 7.71757,0.99309 14.207543,1.34803 21.375559,1.52939 35.923028,2.19976 71.947828,0.98498 107.913298,1.58325 35.58744,-0.12465 71.17425,-0.796 106.74025,-2.00148 4.03439,-17.57016 5.98547,-38.44676 -5.64649,-53.61914 -2.22323,-2.59441 -8.93938,-2.06442 -7.62304,-6.62695 -0.23432,-11.80465 -11.79898,-23.26559 -22.2523,-27.65387 -0.45445,-33.83428 -0.15845,-69.77199 -1.05239,-105.516053 10.14935,-6.387852 22.76001,-14.516804 23.10547,-27.916016 0.0473,-12.901033 1.04923,-26.328074 -1.99024,-38.861328 -5.95742,-9.479392 -18.75448,-7.244435 -28.11839,-9.756363 -9.51935,-1.904597 -22.33268,-4.184723 -29.20582,4.605972 -3.4731,5.207359 -2.65372,11.916933 -2.56836,17.677735 -2.38346,-0.301614 -7.90194,1.76062 -6.19141,-2.591797 1.03512,-9.538435 -2.36656,-21.470038 -12.69531,-24.236328 -7.11801,-2.392857 -14.73408,-0.97797 -22.0625,-1.462891 z"
     id="use843"
     inkscape:connector-curvature="0"
     sodipodi:nodetypes="cccccccccccccccccccccccccccc" />
  <path
     style="fill:#000000;stroke-width:2.58054876"
     d="m 42.186582,274.81483 c -2.961919,-2.99523 -1.856146,-23.05051 1.496925,-27.14955 1.764233,-2.15674 6.458416,-5.95989 10.431517,-8.45145 5.955174,-3.73453 6.952104,-5.78113 5.676639,-11.65361 -1.692263,-7.79149 3.090894,-13.87856 13.402661,-17.05632 L 78.96818,208.72457 78.811377,148.56522 78.654575,88.405869 67.905206,80.523489 C 53.820521,70.195364 56.723658,74.827519 56.406257,55.630463 56.21032,43.779808 56.184343,37.65828 56.210053,32.603034 c 12.916049,-2.47545 35.621587,-7.16297 37.836516,-4.971713 1.410846,1.395767 0.566413,8.026458 0.566413,14.211258 0,10.655881 -1.283593,10.908435 7.262498,10.117604 4.17716,-0.386544 10.34471,-1.063107 15.13158,-1.620391 9.11162,-1.060767 8.19334,-0.747094 8.01925,-12.663594 0.56581,-15.888962 -2.01143,-14.28388 24.58716,-14.703688 29.11079,-0.296207 24.73643,0.849677 25.34709,13.19078 0.74535,15.063141 -3.18138,12.549444 17.42739,15.254119 13.61729,1.017904 13.33065,3.923409 13.06684,-10.297664 0,-13.582506 -1.1665,-14.538332 4.61185,-13.954754 1.85387,0.187233 9.32791,0.902416 18.53318,2.449956 l 15.46849,2.988087 -0.38007,19.51775 c -0.97911,20.549569 4.30671,18.048061 -10.2902,27.743667 l -11.77425,8.541418 -0.19466,59.233401 c -0.10873,33.08469 -0.46965,60.43411 0.54049,60.79659 1.01015,0.36247 8.30565,2.97276 12.89265,5.80065 6.19733,4.07039 6.28117,8.33042 5.51956,14.05195 -0.84211,6.32623 -0.68227,6.73992 9.02838,13.08884 5.86842,4.93621 9.0876,5.25985 9.99343,16.349 0.65595,8.0301 0.25998,14.89284 -0.43342,17.52706 C 198.75,277.5 79.004862,277.70781 42.186562,274.81483 Z M 244.41044,255.98045 c 0,-10.61629 -3.89887,-13.36952 -93.37063,-13.24476 -89.793561,0.1252 -95.167052,1.82513 -95.167052,13.36674 0,4.6786 30.543409,3.83553 94.947852,3.40146 65.36079,-0.44053 93.58983,1.45299 93.58983,-3.52344 z m -17.93467,-28.4079 c 1.21554,-8.96202 -11.38025,-8.80967 -24.06744,-9.597 -41.26453,-2.56072 -93.01342,-0.33294 -119.280789,1.95693 -8.134506,1.52043 -9.291678,2.43515 -9.291678,5.94524 0,8.47969 11.822627,6.72646 79.095217,6.09097 56.48061,-0.53356 72.7389,1.54481 73.54469,-4.39614 z m -15.36921,-21.93257 c 0.19361,-6.27422 -3.59367,-4.82445 -20.33511,-6.1896 -7.69151,-0.60143 -10.80104,0.29633 -10.64344,-7.81837 0.24569,-12.6509 -1.78523,-13.15015 14.89474,-11.85609 14.32197,1.11113 15.93232,3.02606 15.82608,-2.67012 -0.0395,-2.11643 -0.96278,-4.26164 -4.52839,-4.96134 -3.56561,-0.69968 -4.80023,1.5348 -4.73476,-9.67053 0.05,-8.5499 0.29459,-10.46549 4.23181,-9.98401 4.81679,0.58903 4.59414,-2.72881 4.59414,-4.84251 0,-4.03283 -6.5493,-4.46003 -20.47811,-6.44427 -8.72282,-1.24263 -10.69838,0.29517 -10.39977,-9.21138 0.36767,-11.70532 -3.88308,-14.10913 17.72231,-11.27839 9.63317,1.26215 12.29892,2.78095 12.58618,0.17208 0.69027,-6.26892 -2.19669,-6.25573 -3.68276,-6.75667 -4.58981,-1.76489 -5.2691,1.06324 -5.43983,-9.20701 -0.2425,-7.691124 -0.14383,-11.970971 4.29924,-10.900891 10.07512,2.426517 8.99069,-8.132366 -7.96801,-10.898949 -37.31068,-6.086733 -77.18558,-2.8163 -101.133563,1.287943 -10.012749,1.716001 -8.92162,10.569062 -1.934767,9.326192 3.537376,-0.629253 4.102601,1.728538 4.250902,7.136305 0.342815,12.50077 -1.166966,11.63039 -5.502559,12.55855 -3.602226,0.77116 -3.594947,2.55807 -3.622191,4.66261 -0.04665,3.6038 0.978305,5.08823 13.749628,3.21306 19.21988,-1.91691 19.62402,-4.65386 19.73453,8.39391 0.11041,13.0365 -0.14158,10.78796 -13.53531,12.51039 -15.022823,1.93193 -18.783306,1.86302 -18.783306,7.4683 0,2.07242 0.665446,4.34795 4.636182,3.70012 5.934124,-0.96815 5.095864,1.52334 5.066194,7.80691 -0.057,12.07194 0.91342,10.43847 -5.098099,11.4103 -4.247175,0.68661 -4.590048,2.52763 -4.600145,4.44215 -0.03396,6.43946 5.217323,4.48021 13.765654,3.74801 18.49348,-1.58404 17.17182,-2.40155 17.49036,9.33489 0.28283,10.42082 -1.39533,9.03042 -15.18788,10.21388 -13.094289,1.12354 -15.870524,0.5205 -15.854085,3.47106 0.01954,7.22786 1.352003,4.84749 32.567895,3.94687 22.38388,-0.6458 48.33532,-1.13095 63.367,-0.43609 20.2296,0.93513 24.55141,2.46514 24.67924,-1.67731 z m -80.93933,-14.43715 c -0.33423,-12.98707 -1.75694,-12.86425 19.74774,-13.31119 25.55031,-0.17846 21.08374,0.76567 21.4349,13.43532 0.1314,8.9846 -1.2688,6.60141 -20.79965,7.23076 -16.57347,-0.14197 -19.94066,2.14157 -20.38299,-7.35489 z m -21.72521,-21.66305 c -0.77308,-2.03729 -0.80757,-5.00486 -0.79592,-10.04846 0.21307,-8.1314 -3.2604,-8.83452 17.93969,-10.64809 22.29712,-2.03741 20.52298,-0.74438 20.66058,11.08511 -0.25873,12.57643 0.75532,8.96547 -22.64973,10.58115 -10.871,0.75044 -14.06281,1.9075 -15.15462,-0.96971 z m 59.85509,0.17506 c -14.44876,-0.76924 -13.07921,2.20791 -13.19716,-9.17785 -0.0949,-13.78859 -1.39453,-13.40199 20.87166,-12.28702 17.2053,0.86156 17.56608,-0.0731 17.62674,12.79612 0.0552,11.7094 0.55095,9.77819 -5.28345,9.68371 -1.41139,-0.21079 -12.51404,-0.8785 -20.01779,-1.01496 z M 132.0807,139.49137 c -1.71163,-0.45605 -1.73871,-4.36434 -1.78936,-9.80809 -0.12411,-13.33932 -0.3384,-11.34581 19.94974,-12.42936 20.66071,0.52197 21.31531,-2.13069 20.87918,12.50176 0.12804,13.03906 0.86734,9.104 -21.02249,10.05044 -8.26436,0.0424 -16.29265,0.85762 -18.01707,-0.31475 z m -26.83945,-34.62523 c -0.57726,-15.593409 0.1319,-12.528168 19.1244,-15.267835 10.17021,-0.794774 18.02595,-1.898044 19.81775,-0.690867 1.62131,1.092321 1.67179,4.456312 1.67179,9.367495 0,10.328977 0.65353,9.617997 -7.04264,10.666807 -4.0002,0.54513 -12.86222,1.24199 -19.37554,1.79308 -15.51408,1.31265 -13.13266,1.49233 -14.19576,-5.86868 z m 62.3835,4.4043 c -13.9658,-1.41914 -12.76057,1.04931 -12.82469,-10.638651 -0.38641,-12.114284 -1.56673,-10.896117 19.2396,-10.010582 20.87323,2.031984 19.94772,1.438613 20.01369,13.434053 0.16405,9.5764 -0.30954,9.39266 -6.23873,8.81034 -2.44304,-0.23992 -11.72155,-0.76465 -20.18987,-1.59516 z M 125.3346,71.744889 c 15.58648,-1.249905 31.45307,-1.318728 44.8033,-0.479876 42.84694,2.692265 44.7247,9.33924 51.63125,3.987766 4.23115,-3.278469 1.0576,-5.016502 -5.95544,-6.992195 -8.0911,-2.279402 -21.16634,-4.463956 -31.59606,-5.449706 -45.73791,-4.322854 -86.406323,0.3518 -105.061504,7.164113 -6.380851,2.330097 1.081404,9.915342 11.298331,6.427888 5.158098,-1.309845 19.293643,-3.408086 34.880123,-4.65799 z"
     id="path22710"
     inkscape:connector-curvature="0"
     sodipodi:nodetypes="csssscccsscssssccsccssccccsccscscccssssssscsssscssszsssssssccssssssscsssssssssscssscccccscccssccsscccsccccccssssccccccczcsssccz" />
</svg>
