<?xml version="1.0" encoding="UTF-8" standalone="no"?>
<svg
   xmlns:dc="http://purl.org/dc/elements/1.1/"
   xmlns:cc="http://creativecommons.org/ns#"
   xmlns:rdf="http://www.w3.org/1999/02/22-rdf-syntax-ns#"
   xmlns:svg="http://www.w3.org/2000/svg"
   xmlns="http://www.w3.org/2000/svg"
   xmlns:sodipodi="http://sodipodi.sourceforge.net/DTD/sodipodi-0.dtd"
   xmlns:inkscape="http://www.inkscape.org/namespaces/inkscape"
   version="1.0"
   width="300.000000pt"
   height="300.000000pt"
   viewBox="0 0 300.000000 300.000000"
   preserveAspectRatio="xMidYMid meet"
   id="svg2"
   inkscape:version="0.92.5 (2060ec1f9f, 2020-04-08)"
   sodipodi:docname="wb.svg">
  <defs
     id="defs12">
    <filter
       style="color-interpolation-filters:sRGB;"
       inkscape:label="Drawing"
       id="filter18775">
      <feGaussianBlur
         in="SourceGraphic"
         stdDeviation="5.99659"
         result="blur1"
         id="feGaussianBlur18721" />
      <feConvolveMatrix
         in="blur1"
         targetX="1"
         targetY="1"
         order="3 3"
         kernelMatrix="0 250 0 250 -1010 250 0 250 0 "
         result="convolve1"
         id="feConvolveMatrix18723" />
      <feComposite
         in="convolve1"
         in2="convolve1"
         k1="1"
         k2="1"
         k4="0.04"
         operator="arithmetic"
         result="composite1"
         id="feComposite18725" />
      <feColorMatrix
         in="composite1"
         values="0 0 0 0 0 0 0 0 0 0 0 0 0 0 0 -0.2125 -0.7154 -0.0721 1 0 "
         result="color1"
         id="feColorMatrix18727" />
      <feGaussianBlur
         stdDeviation="0.61"
         result="blur2"
         id="feGaussianBlur18729" />
      <feColorMatrix
         values="1 0 0 0 0 0 1 0 0 0 0 0 1 0 0 0 0 0 2.7 -1 "
         result="color2"
         id="feColorMatrix18731" />
      <feFlood
         flood-color="rgb(255,255,255)"
         result="flood1"
         id="feFlood18733" />
      <feBlend
         in2="color2"
         mode="multiply"
         result="blend1"
         id="feBlend18735" />
      <feComponentTransfer
         in="blend1"
         result="component1"
         id="feComponentTransfer18743">
        <feFuncR
           type="discrete"
           tableValues="0 1 1 1"
           id="feFuncR18737" />
        <feFuncG
           type="discrete"
           tableValues="0 1 1 1"
           id="feFuncG18739" />
        <feFuncB
           type="discrete"
           tableValues="0 1 1 1"
           id="feFuncB18741" />
      </feComponentTransfer>
      <feGaussianBlur
         stdDeviation="0.61"
         result="blur3"
         id="feGaussianBlur18745" />
      <feColorMatrix
         in="blur3"
         values="0 0 0 0 0 0 0 0 0 0 0 0 0 0 0 -0.2125 -0.7154 -0.0721 1 0 "
         result="color3"
         id="feColorMatrix18747" />
      <feColorMatrix
         values="1 0 0 0 0 0 1 0 0 0 0 0 1 0 0 0 0 0 1.9 -0.5 "
         result="color4"
         id="feColorMatrix18749" />
      <feFlood
         flood-color="rgb(0,0,0)"
         result="flood2"
         id="feFlood18751" />
      <feComposite
         in="flood2"
         in2="color4"
         operator="in"
         result="composite2"
         id="feComposite18753" />
      <feComposite
         in="composite2"
         in2="composite2"
         operator="arithmetic"
         k2="1"
         result="composite3"
         id="feComposite18755" />
      <feOffset
         dx="0"
         dy="0"
         result="offset1"
         id="feOffset18757" />
      <feFlood
         in="color4"
         flood-color="rgb(66,66,66)"
         result="flood3"
         id="feFlood18759" />
      <feComposite
         in="flood3"
         in2="color4"
         operator="out"
         result="composite4"
         id="feComposite18761" />
      <feComposite
         in="composite4"
         in2="composite4"
         operator="arithmetic"
         k2="1"
         result="composite5"
         id="feComposite18763" />
      <feMerge
         result="merge1"
         id="feMerge18769">
        <feMergeNode
           in="composite5"
           id="feMergeNode18765" />
        <feMergeNode
           in="offset1"
           id="feMergeNode18767" />
      </feMerge>
      <feColorMatrix
         values="1 0 0 0 0 0 1 0 0 0 0 0 1 0 0 0 0 0 1.3 0 "
         result="color5"
         flood-opacity="0.56"
         id="feColorMatrix18771" />
      <feComposite
         in="color5"
         in2="SourceGraphic"
         operator="in"
         result="composite8"
         id="feComposite18773" />
    </filter>
  </defs>
  <sodipodi:namedview
     pagecolor="#ffffff"
     bordercolor="#666666"
     borderopacity="1"
     objecttolerance="10"
     gridtolerance="10"
     guidetolerance="10"
     inkscape:pageopacity="0"
     inkscape:pageshadow="2"
     inkscape:window-width="1652"
     inkscape:window-height="982"
     id="namedview10"
     showgrid="false"
     inkscape:zoom="0.83500387"
     inkscape:cx="-73.135119"
     inkscape:cy="414.78785"
     inkscape:window-x="-2"
     inkscape:window-y="21"
     inkscape:window-maximized="0"
     inkscape:current-layer="svg2"
     inkscape:pagecheckerboard="true">
    <inkscape:grid
       type="xygrid"
       id="grid842" />
  </sodipodi:namedview>
  <metadata
     id="metadata4">
Created by potrace 1.12, written by Peter Selinger 2001-2015
<rdf:RDF>
  <cc:Work
     rdf:about="">
    <dc:format>image/svg+xml</dc:format>
    <dc:type
       rdf:resource="http://purl.org/dc/dcmitype/StillImage" />
    <dc:title />
  </cc:Work>
</rdf:RDF>
</metadata>
  <path
     style="fill:#e3dfd3;fill-opacity:1;stroke-width:2.6499927"
     d="M 143.69922,-4.0644531 C 126.25423,-4.5023585 112.6881,16.050007 119.73242,31.943359 97.3661,45.192882 78.198803,67.215595 75.498047,93.919922 71.583984,124.50428 85.565935,153.44119 95.63866,181.44395 c 2.143554,5.41056 4.37157,10.78787 6.70704,16.11855 -9.729133,7.63676 -15.844921,23.06161 -7.556638,33.85938 3.783852,6.07748 11.792148,9.96177 17.201168,12.19726 -14.454137,-1.11792 -27.378336,-8.68036 -41.744144,-10.7357 -20.318509,-4.10073 -43.691343,-4.07378 -61.0917891,8.65367 -7.4303551,6.52671 -6.4974833,20.74637 3.3535151,24.35547 0.607372,2.27823 -1.22368,6.5474 -0.02344,9.66015 1.071278,8.23604 7.202625,15.59527 17.789063,11.38672 8.180774,-2.11824 15.859277,-8.32603 24.689453,-5.30078 22.310151,3.82058 44.684283,13.37707 68.007812,10.4375 10.64205,-1.10028 21.22617,-4.45053 29.95899,-10.75195 18.94836,14.1566 44.64955,12.33026 66.34961,6.71289 14.47227,-3.7857 30.939,-11.66761 45.39453,-3.69531 7.53602,4.49002 19.10943,6.60328 24.94726,-1.67383 3.92521,-5.1917 2.10287,-12.35185 1.44336,-17.86133 7.77876,-5.80409 8.11373,-19.92726 -1.30859,-24.24023 -22.44507,-14.49391 -51.74943,-11.89268 -75.38361,-1.827 -6.09329,2.13047 -12.29712,4.26405 -18.78436,4.71176 11.48742,-4.75134 21.37073,-16.74926 18.48828,-29.76758 -1.20111,-6.59449 -4.85893,-12.71348 -10.10156,-16.89062 5.80361,-9.8014 1.1179,-22.09733 7.33203,-31.68359 C 224.66336,142.41966 235.92203,115.9689 231.2168,89.119141 227.38745,69.366314 216.10837,52.065911 204.23047,36.214844 211.6427,24.762691 208.31391,8.0155547 196.51758,0.88085938 186.61606,-5.7632491 171.83246,-5.390838 163.36719,3.3320312 158.22355,-1.754287 150.87109,-4.2793627 143.69922,-4.0644531 Z"
     id="use843"
     inkscape:connector-curvature="0"
     sodipodi:nodetypes="cccccccccccccccccccccccccccccc" />
  <path
     sodipodi:nodetypes="ccccszsscsscsssssscssssczcssssssssssssscscssczzczcsscccssssscsscsccccssccccscsscczsccczsssssscsccssssczscccsssscccccsssssssssssc"
     inkscape:connector-curvature="0"
     id="path843-5"
     d="m 88.81976,277.25914 c -28.77628,-6.91801 -35.60417,-11.09559 -51.57586,-6.0843 -3.22991,0.91163 -11.4908,6.00181 -12.97018,5.17112 -1.63104,-1.06846 -0.67703,-5.66516 2.38959,-10.63526 4.55857,-5.11626 4.32269,-8.2262 -2.4824,-9.07636 -13.94816,-1.74256 -7.63457,-6.57353 -1.6809,-9.13434 5.95367,-2.56082 11.99135,-4.47674 18.94447,-4.86951 12.90573,-0.72902 23.72178,-0.13689 57.11062,10.75266 19.83758,6.4699 36.58761,-1.40751 39.71534,-11.54319 1.99935,-4.11963 -4.6563,-5.05165 -14.00397,-7.19908 -22.79841,-5.23749 -27.97361,-16.368 -13.21181,-28.41519 6.41531,-5.23556 6.51908,-5.77926 2.50482,-13.125 -2.30328,-4.21475 -6.78648,-15.3413 -9.96273,-24.72569 -3.17625,-9.38436 -9.6166,-25.56615 -12.61776,-36.48986 -4.81467,-17.52458 -4.47226,-19.9884 -3.78274,-32.812521 1.1906,-22.14357 14.72829,-39.50612 26.08144,-47.67494 22.20473,-15.97674 22.00538,-15.75111 17.62043,-24.78505 -1.82883,-3.7678 -0.91779,-8.3102 1.53985,-12.48083 4.30917,-7.31265 18.08483,-7.75441 23.12345,-1.86109 5.15448,7.57748 5.16735,14.36821 0.11722,22.29641 -1.81495,2.84929 -8.5513,6.4231 -11.90455,8.41864 -9.59082,5.70757 -25.6448,13.5522 -37.4402,30.6799 -15.168,22.025 -9.76386,53.234451 3.6045,80.863531 l 5.92838,12.60369 c 0,0 22.06782,-1.74519 32.71281,-1.92327 10.64499,-0.17808 31.09964,0.78606 31.09964,0.78606 l 4.52335,-12.59158 c 2.9832,-8.30426 4.63776,-21.26797 6.05654,-38.15731 1.56136,-18.586851 -0.48624,-38.050681 -19.07552,-58.730191 -14.94116,-16.62119 -17.89185,-18.13959 -8.9287,-16.76658 4.42296,0.67753 8.87553,-0.75053 6.19437,-15.26888 -2.11934,-11.47626 6.55944,-15.82899 12.59608,-16.28818 11.27027,-0.85729 21.68315,11.09259 12.61758,22.75809 -4.83742,6.22475 -4.64889,6.79419 4.66641,17.94886 11.73479,14.05192 19.49229,31.31685 21.82533,48.57404 1.93484,14.311651 -3.67251,32.802691 -18.22753,60.107971 -5.59436,10.49502 -7.78688,14.84669 -6.60426,21.03224 1.12153,5.86605 -0.73703,9.99628 -2.62343,13.21936 -3.97069,6.78422 -4.57152,9.4116 3.12923,14.36261 6.61641,4.25384 8.24821,10.26014 5.02599,18.49948 -1.95681,5.00367 -17.59743,11.9294 -26.94054,11.9294 -5.24073,0 -6.3768,1.1656 -5.69253,5.84054 3.78861,12.29309 25.56138,17.29765 46.33365,8.94141 19.45557,-7.82655 37.03503,-12.2617 57.52456,-6.00901 17.10834,5.22087 15.76957,9.3791 5.54745,11.89654 -7.07466,1.89822 -3.3084,5.60938 -0.35856,8.87975 2.9498,3.27037 3.77391,9.35184 2.06338,10.2549 -1.71052,0.90307 -6.47167,-1.59416 -9.87892,-3.39069 -9.98832,-5.63187 -21.18873,-4.36725 -25.32465,-3.85859 -4.13592,0.50867 -16.34383,4.17311 -22.96501,5.84571 -26.23128,6.97269 -41.96688,7.16281 -57.77424,-0.85651 -5.03464,-2.55414 -8.58297,-7.84025 -10.77451,-7.56549 -2.19155,0.27474 -5.40465,4.20612 -10.1965,7.23937 -9.84683,7.14342 -32.46393,8.49701 -53.59848,3.41614 z m 142.98578,-13.95357 c 9.3198,-3.1693 18.3123,-2.4219 17.62246,-7.86546 -0.63022,-4.9731 -5.91835,-3.23448 -11.56372,-2.14788 -8.05758,1.55088 -25.2009,7.04079 -31.76877,8.90814 -18.59708,5.28741 -40.86759,-1.42658 -47.22137,-17.48291 -3.66735,-9.2676 -9.308,-7.64211 -11.75456,-1.0612 -2.51844,7.3272 -7.3108,12.78892 -11.65591,15.33555 -6.60141,3.86902 -16.3965,8.09365 -38.61824,2.52025 -28.20345,-7.07367 -38.33381,-13.29568 -41.71829,-5.72032 -1.41406,4.78011 6.73696,5.4862 10.18447,6.2424 18.85855,4.13655 31.01854,9.50427 48.79303,9.57807 17.67141,0.0732 23.92503,-3.74523 30.18786,-9.34743 7.18447,-7.62147 10.71738,-7.36572 15.19689,-2.29227 2.95598,4.63203 12.60076,8.93248 20.3387,10.53897 10.8462,1.52394 19.27604,3.91456 51.97745,-7.20591 z m -42.12222,-41.96065 c 3.32412,-2.34479 2.47575,-5.55566 -1.92365,-9.18971 -2.90488,-2.9127 -14.77732,-4.79439 -33.0245,-4.36936 -14.18287,0.0197 -30.43123,1.00125 -33.69309,2.91283 -7.47549,2.18144 -9.95688,9.31238 -3.66507,12.09918 21.82005,9.15383 59.94055,7.26969 72.30631,-1.45294 z m -28.44969,-29.78883 c -4.68877,-4.39181 -9.57009,-4.94109 -15.16671,-0.30136 -4.13257,3.42601 -3.50572,5.97529 0.98967,9.76319 3.47514,2.9282 8.7561,2.96093 12.33864,0.29914 5.10378,-4.65275 5.78895,-5.98352 1.8384,-9.76097 z m 21.35505,-8.16744 c 2.05135,-1.51427 2.73016,-6.97742 -5.62631,-7.74789 -20.82196,-1.91982 -35.20532,-1.32767 -55.60449,1.24089 -4.33868,2.19909 -1.16184,9.25707 3.43228,7.97184 14.02396,-2.40873 38.7121,-3.33687 54.16807,-0.37986 0,0 1.57911,0.42928 3.63045,-1.08498 z m 24.94945,-60.75641 c 5.80299,-14.99238 3.7875,-26.994211 -0.76365,-41.832661 -4.44279,-14.48517 -22.53825,-38.89638 -28.05402,-37.84557 -7.14145,1.36052 -3.37708,7.25305 4.69136,17.27034 12.04831,14.95847 17.76819,27.07378 16.42971,54.823121 -1.27641,26.46239 -1.65858,31.75445 7.6966,7.58477 z M 149.25028,26.667619 c 2.68287,-3.17198 0.96006,-7.84412 -2.68896,-9.21809 -5.27088,-1.98466 -9.71953,4.45039 -7.11981,8.57786 2.33089,3.59477 7.11011,4.21792 9.80877,0.64023 z m 38.21752,-1.19589 c 3.29951,-5.12465 -1.11954,-9.34672 -5.30146,-9.34672 -2.19156,0 -5.68077,2.07485 -5.68077,5.93417 0,6.4481 7.88884,8.21706 10.98223,3.41255 z M 135.63616,126.69193 c 0,0 0.0813,-14.92293 -0.78492,-15.80081 -0.86625,-0.87786 -9.75255,-0.3831 -9.75255,-0.3831 -9.68647,0.16152 -8.49729,-1.12758 -8.37394,-12.351761 0.25724,-11.18709 -0.58215,-9.58784 7.89207,-9.96488 13.20369,-0.61761 9.50282,0.89637 10.28079,-11.10846 -0.15369,-13.82058 -3.29363,-16.05652 15.70147,-15.1936 8.20812,0.37288 6.43891,3.18809 6.43891,12.00048 0,13.79661 -1.38197,13.82836 9.36327,13.59508 10.95951,-0.23794 8.96199,-0.89836 9.36327,12.33987 0.29859,9.849691 0.97629,8.203581 -8.69448,8.665201 -12.2894,0.67889 -10.90302,-1.44442 -10.69497,15.90966 -0.7136,18.16504 3.33004,14.57253 -10.54802,15.16347 -11.83683,0.60286 -9.45145,2.43564 -10.1909,-12.87115 z m 12.1554,-7.86657 c -0.41814,-19.302991 -0.58527,-16.33176 13.06542,-17.0976 3.68115,-0.20652 4.53813,0.4008 4.48599,-4.031211 -0.0485,-4.12071 0.59974,-4.87953 -5.88852,-4.76721 -12.70593,0.21996 -11.34066,1.7442 -11.55426,-8.7221 -0.33447,-16.38827 1.49223,-16.88426 -5.20016,-16.50728 -3.92646,0.22118 -2.69363,1.58002 -2.77551,16.74668 -0.0571,10.57712 -0.95187,8.75762 -7.64362,9.11053 -8.47624,0.44701 -9.9213,-0.68804 -9.86115,4.57636 0.0695,6.086301 0.69032,4.330371 9.62346,4.268061 9.63243,-0.0672 7.88988,0.68101 8.28495,13.51608 0.21915,7.11948 -0.39902,15.8535 1.61011,15.73398 6.56249,-0.39039 6.11851,2.34627 5.85329,-12.82629 z"
     style="display:inline;fill:#000000;stroke-width:2.6499927" />
</svg>
