<?xml version="1.0" encoding="UTF-8" standalone="no"?>
<svg
   xmlns:dc="http://purl.org/dc/elements/1.1/"
   xmlns:cc="http://creativecommons.org/ns#"
   xmlns:rdf="http://www.w3.org/1999/02/22-rdf-syntax-ns#"
   xmlns:svg="http://www.w3.org/2000/svg"
   xmlns="http://www.w3.org/2000/svg"
   xmlns:sodipodi="http://sodipodi.sourceforge.net/DTD/sodipodi-0.dtd"
   xmlns:inkscape="http://www.inkscape.org/namespaces/inkscape"
   version="1.0"
   width="300.000000pt"
   height="300.000000pt"
   viewBox="0 0 300.000000 300.000000"
   preserveAspectRatio="xMidYMid meet"
   id="svg2"
   inkscape:version="0.92.5 (2060ec1f9f, 2020-04-08)"
   sodipodi:docname="wk.svg">
  <defs
     id="defs12">
    <filter
       style="color-interpolation-filters:sRGB;"
       inkscape:label="Drawing"
       id="filter18775">
      <feGaussianBlur
         in="SourceGraphic"
         stdDeviation="5.99659"
         result="blur1"
         id="feGaussianBlur18721" />
      <feConvolveMatrix
         in="blur1"
         targetX="1"
         targetY="1"
         order="3 3"
         kernelMatrix="0 250 0 250 -1010 250 0 250 0 "
         result="convolve1"
         id="feConvolveMatrix18723" />
      <feComposite
         in="convolve1"
         in2="convolve1"
         k1="1"
         k2="1"
         k4="0.04"
         operator="arithmetic"
         result="composite1"
         id="feComposite18725" />
      <feColorMatrix
         in="composite1"
         values="0 0 0 0 0 0 0 0 0 0 0 0 0 0 0 -0.2125 -0.7154 -0.0721 1 0 "
         result="color1"
         id="feColorMatrix18727" />
      <feGaussianBlur
         stdDeviation="0.61"
         result="blur2"
         id="feGaussianBlur18729" />
      <feColorMatrix
         values="1 0 0 0 0 0 1 0 0 0 0 0 1 0 0 0 0 0 2.7 -1 "
         result="color2"
         id="feColorMatrix18731" />
      <feFlood
         flood-color="rgb(255,255,255)"
         result="flood1"
         id="feFlood18733" />
      <feBlend
         in2="color2"
         mode="multiply"
         result="blend1"
         id="feBlend18735" />
      <feComponentTransfer
         in="blend1"
         result="component1"
         id="feComponentTransfer18743">
        <feFuncR
           type="discrete"
           tableValues="0 1 1 1"
           id="feFuncR18737" />
        <feFuncG
           type="discrete"
           tableValues="0 1 1 1"
           id="feFuncG18739" />
        <feFuncB
           type="discrete"
           tableValues="0 1 1 1"
           id="feFuncB18741" />
      </feComponentTransfer>
      <feGaussianBlur
         stdDeviation="0.61"
         result="blur3"
         id="feGaussianBlur18745" />
      <feColorMatrix
         in="blur3"
         values="0 0 0 0 0 0 0 0 0 0 0 0 0 0 0 -0.2125 -0.7154 -0.0721 1 0 "
         result="color3"
         id="feColorMatrix18747" />
      <feColorMatrix
         values="1 0 0 0 0 0 1 0 0 0 0 0 1 0 0 0 0 0 1.9 -0.5 "
         result="color4"
         id="feColorMatrix18749" />
      <feFlood
         flood-color="rgb(0,0,0)"
         result="flood2"
         id="feFlood18751" />
      <feComposite
         in="flood2"
         in2="color4"
         operator="in"
         result="composite2"
         id="feComposite18753" />
      <feComposite
         in="composite2"
         in2="composite2"
         operator="arithmetic"
         k2="1"
         result="composite3"
         id="feComposite18755" />
      <feOffset
         dx="0"
         dy="0"
         result="offset1"
         id="feOffset18757" />
      <feFlood
         in="color4"
         flood-color="rgb(66,66,66)"
         result="flood3"
         id="feFlood18759" />
      <feComposite
         in="flood3"
         in2="color4"
         operator="out"
         result="composite4"
         id="feComposite18761" />
      <feComposite
         in="composite4"
         in2="composite4"
         operator="arithmetic"
         k2="1"
         result="composite5"
         id="feComposite18763" />
      <feMerge
         result="merge1"
         id="feMerge18769">
        <feMergeNode
           in="composite5"
           id="feMergeNode18765" />
        <feMergeNode
           in="offset1"
           id="feMergeNode18767" />
      </feMerge>
      <feColorMatrix
         values="1 0 0 0 0 0 1 0 0 0 0 0 1 0 0 0 0 0 1.3 0 "
         result="color5"
         flood-opacity="0.56"
         id="feColorMatrix18771" />
      <feComposite
         in="color5"
         in2="SourceGraphic"
         operator="in"
         result="composite8"
         id="feComposite18773" />
    </filter>
  </defs>
  <sodipodi:namedview
     pagecolor="#ffffff"
     bordercolor="#666666"
     borderopacity="1"
     objecttolerance="10"
     gridtolerance="10"
     guidetolerance="10"
     inkscape:pageopacity="0"
     inkscape:pageshadow="2"
     inkscape:window-width="1588"
     inkscape:window-height="962"
     id="namedview10"
     showgrid="false"
     inkscape:zoom="0.5921946"
     inkscape:cx="-180.53405"
     inkscape:cy="158.85681"
     inkscape:window-x="62"
     inkscape:window-y="42"
     inkscape:window-maximized="0"
     inkscape:current-layer="svg2"
     inkscape:pagecheckerboard="true"
     showguides="false">
    <inkscape:grid
       type="xygrid"
       id="grid842" />
  </sodipodi:namedview>
  <metadata
     id="metadata4">
Created by potrace 1.12, written by Peter Selinger 2001-2015
<rdf:RDF>
  <cc:Work
     rdf:about="">
    <dc:format>image/svg+xml</dc:format>
    <dc:type
       rdf:resource="http://purl.org/dc/dcmitype/StillImage" />
    <dc:title />
  </cc:Work>
</rdf:RDF>
</metadata>
  <path
     style="fill:#e9e6de;fill-opacity:1;stroke-width:2.79716015"
     d="m 115.6543,7.897555 c -0.31977,14.592646 0.0728,29.237266 -0.6875,43.777344 -27.600461,-16.39964 -66.984747,-15.124832 -90.054691,8.654297 -18.045251,19.3684 -19.6064182,49.884774 -8.05664,72.953134 7.896233,20.19182 19.96699,38.50139 32.8125,55.74609 1.374452,9.48925 1.909084,19.82129 8.328125,27.52734 3.997463,8.10809 4.441302,18.65053 -1.867188,25.73633 -5.679101,11.52519 -1.15651,26.0307 8.552159,32.97294 16.041357,13.86121 51.263795,17.69348 75.471035,19.54659 31.55887,1.34439 65.40879,-1.99844 94.77627,-13.99292 13.65872,-7.08431 21.852,-27.46496 15.59886,-42.84889 -2.7357,-5.18669 -8.99595,-8.26918 -5.88465,-14.61031 3.56798,-12.93624 9.4011,-23.70907 12.61523,-36.8096 6.10411,-13.82393 17.77035,-24.40604 23.06603,-38.70818 11.54295,-24.81932 15.78464,-55.776146 1.40663,-80.39729 -12.85908,-21.623306 -40.53459,-30.295127 -64.41772,-25.646242 -11.96076,2.042704 -23.35728,6.701608 -33.82837,12.755617 -0.64186,-16.035227 0.66458,-32.097051 -0.44141,-48.1210938 -22.46224,-0.00934 -44.92448,-0.02393 -67.38672,-0.033203 l -0.001,0.9999992 z"
     id="path18911"
     inkscape:connector-curvature="0"
     sodipodi:nodetypes="ccccccccccccccccccccc" />
  <path
     sodipodi:nodetypes="csscssscssccscccsssscssscscscsscssssssscccccssscccsssscsccsssssscssssssccsscscsccssssssssssssssssssssssssccsccssccscscccccccssssccsssssscscsccssccsssssccscccssccscccccscccccccssscsscccc"
     inkscape:connector-curvature="0"
     id="path843"
     d="M 117.24037,281.46452 C 73.792743,276.99817 54.871875,257.89126 67.829252,243.5695 c 4.043964,-4.46977 4.624948,-8.17264 3.063783,-19.52684 -1.059564,-7.7061 -4.256809,-17.14319 -6.430444,-18.94765 -2.466322,-4.94035 -2.976426,-7.86961 -3.36668,-13.9876 -0.441984,-6.92898 -2.752489,-10.75698 -6.313995,-14.47931 -8.501518,-8.88542 -23.874788,-34.99774 -30.154847,-53.17205 -5.0579,-14.6374 -7.050255,-22.02247 -1.574339,-39.756661 3.294727,-10.670072 9.192077,-15.964488 13.975932,-20.302598 18.557343,-16.828227 55.912563,-15.861097 76.509188,-0.146884 5.18144,3.953181 9.95774,6.650495 10.61403,5.994027 0.65628,-0.656465 1.32012,-8.022263 1.47518,-16.36844 0.15515,-8.346178 0.0919,-18.269704 0.58555,-24.06872 l 0.0213,-12.112439 24.57091,0.02465 h 22.12832 l 0.0427,23.079805 c 0.0635,34.33227 -0.87482,33.799978 15.82921,23.837235 21.11822,-12.59549 44.67516,-16.844835 64.31703,-7.924289 13.18053,5.98607 20.06774,13.465436 25.52111,31.590676 6.71775,22.327598 -8.34346,59.227708 -29.74504,85.397038 -6.54266,7.96879 -3.61383,15.48397 -4.33431,18.33492 -2.20761,8.73551 -4.78061,12.78011 -7.30515,18.7157 -7.61887,17.91319 -7.03592,26.09304 -1.39838,30.77308 5.84223,4.84997 5.23244,14.71168 -1.43384,23.18887 -6.98723,8.88529 -24.89205,16.21397 -55.82654,18.67949 -24.27191,1.9345 -41.32615,1.04193 -61.35956,-0.92699 z m 84.35967,-13.43662 c 15.58431,-8.03562 -7.21318,-14.64388 -51.04102,-14.79512 -27.97499,-0.0966 -37.21431,0.23648 -44.47879,4.77507 -12.938784,8.0837 -9.10484,12.16635 -10.951906,-1.28744 1.415831,-9.7954 20.173336,-14.13044 60.082926,-13.88575 40.21809,0.24659 54.07992,4.27848 54.07992,15.72982 0,8.1541 4.38924,9.06787 13.36154,2.78167 8.33616,-5.84051 8.76112,-11.82931 -2.01963,-18.86459 -24.13819,-15.75206 -96.42818,-15.20028 -121.309656,-6.24173 -9.822334,3.53652 -24.200653,8.41709 -23.880813,16.60271 0.275951,7.06236 25.258769,17.10028 50.240079,18.69804 30.03189,1.92077 69.10037,0.002 75.91735,-3.51268 z M 97.401994,213.24701 c 0.01953,-3.7221 -12.843081,-4.93874 -14.788156,-1.39877 -0.634071,1.15399 -1.772602,2.83086 -0.350304,8.08608 3.374447,12.45008 6.121414,11.45828 9.744805,4.9658 2.956374,-4.48589 5.383523,-9.72979 5.393655,-11.65311 z m 124.212366,-0.25169 c -3.77824,-10.96805 -22.60721,-17.10544 -47.73838,-19.94212 -16.80617,-1.89699 -19.57677,0.54191 -13.98519,3.3332 14.91702,10.37405 14.62787,10.00158 10.77063,13.87474 -3.75654,2.68677 -5.96533,-0.4152 -7.31365,-3.61337 -4.14355,-4.32693 -8.8489,-7.15208 -11.15892,-7.10905 -3.08713,0.0575 -5.74957,2.62624 -9.60733,4.71179 -2.4605,1.33016 -1.81601,4.0731 3.0091,6.75921 3.02609,1.6846 6.1446,3.11437 10.01669,1.14803 10.28809,-5.22454 9.54946,1.79118 3.89348,4.58163 -6.80878,3.5696 3.81913,3.73196 19.96095,4.98624 10.11382,0.75104 22.28399,3.80332 25.63427,4.60587 5.01048,1.20024 2.58933,-2.21145 -2.79676,-6.26259 -10.06102,-9.91206 -9.60362,-13.8177 3.2791,-16.85494 8.24912,-1.94482 12.16566,4.07806 2.56994,6.28659 -4.14072,0.95302 -4.13331,2.95697 0.90734,8.18518 5.1525,5.34423 6.02774,5.02823 5.6496,7.5619 -0.35989,2.4114 0.49514,4.16922 4.82602,-0.16288 3.55432,-3.55532 4.04398,-6.3971 2.08311,-12.08943 z m -75.12058,5.40375 c 0.24602,-2.00689 -3.31543,-2.40072 -7.15917,-4.21021 -10.28053,-4.83972 -14.3517,-8.97105 -3.77949,-14.06693 9.68095,-4.66628 18.67875,-9.80842 -0.16119,-7.2689 -23.84795,3.21457 -49.362124,10.65791 -40.770278,10.72991 10.631438,0.0891 14.377188,5.79979 11.128308,11.87209 -1.5059,2.81458 -9.968294,12.67327 -9.04569,12.39976 31.58456,-9.36342 49.40065,-6.29999 49.78751,-9.45572 z M 93.225273,193.33215 c 7.691107,-2.87372 24.493097,-7.26453 37.216107,-8.45543 17.1538,-1.60563 27.23244,-3.35936 52.50976,0.79984 15.83006,2.60472 31.3552,6.94115 35.77678,9.22827 7.18813,3.71817 10.71762,2.58371 12.48601,-0.28959 1.55075,-3.62148 2.83604,-5.8718 0.3515,-8.14766 -9.43989,-8.64704 -66.00036,-19.72006 -97.26488,-14.79614 -21.45316,3.3787 -54.669084,10.25793 -60.324829,15.73064 -2.728357,2.64007 -0.376329,11.15861 3.080355,11.15638 1.201945,-7.8e-4 8.478081,-2.35262 16.169197,-5.22631 z M 75.046275,170.56338 c 0,-2.90722 -3.750589,-8.41493 -7.279515,-13.12327 -11.218181,-14.96745 -18.67348,-28.29719 -19.584378,-45.78251 -0.440119,-8.44837 0.845998,-15.951177 9.886007,-23.890625 8.616346,-7.567371 20.627051,-8.166531 24.201367,-8.185313 6.101931,-0.03207 20.714754,3.409225 24.733754,4.477613 6.37184,1.693853 9.73031,3.290963 12.85071,5.024498 6.73735,3.742928 5.72414,-0.945788 5.02921,-5.551344 C 123.72057,75.82576 93.319048,64.389344 73.820955,64.323798 44.010578,64.223586 26.078682,92.341262 36.204173,123.30789 48.425576,160.68442 75.046275,193.0713 75.046275,170.56338 Z M 249.04671,157.36769 c 29.98141,-45.26858 22.774,-87.722562 -15.74955,-93.975824 -14.07307,-2.284383 -57.56722,13.233952 -57.56722,20.868639 0,6.290802 2.73735,6.463644 15.8136,0.998506 5.52224,-2.307981 17.67323,-5.891901 27.34709,-5.891901 16.20722,0 20.15796,2.643699 26.52234,9.73768 4.28463,4.775807 8.23423,11.63644 5.98251,32.5224 -1.28139,11.88558 -9.77463,30.15357 -19.4403,38.90334 -6.63571,6.00691 -7.3806,10.23472 -2.63894,14.97773 4.41628,4.41752 5.37255,3.53831 19.73047,-18.14057 z m -144.88906,8.99005 c 7.55102,-2.29133 17.9645,-3.60715 23.07334,-4.16605 6.7688,-0.74051 10.60334,-0.45828 6.54742,-15.38653 l -2.40362,-5.59511 -0.28551,5.59511 c -0.26789,5.24945 -1.03868,6.86352 -4.00087,0.69938 -2.55634,-3.7252 -6.71826,-3.06641 -7.79852,1.23291 0.0501,8.96832 -1.75503,11.51246 -8.6245,-5.5951 -2.87878,-7.16928 -7.42601,-8.61518 -8.77785,-8.61518 -4.292988,0 -5.309502,3.54344 -3.181763,12.40766 0.982727,4.78718 4.264983,16.54385 0.168221,11.49664 -2.219849,-3.05591 -1.760344,-3.08841 -4.36573,-5.31762 -2.82954,-2.42098 -10.136108,-2.07718 -9.771302,8.57828 -0.722139,11.18753 1.159193,10.20698 19.420694,4.66561 z m 113.95103,-5.61673 c 0.41916,-8.08344 -3.78886,-14.19417 -10.53984,-4.89943 -4.74022,7.51455 -4.53802,2.36142 -3.85421,-3.66103 3.35402,-17.26652 -2.39178,-22.54195 -7.49607,-15.8161 -3.40225,6.21497 -4.28607,7.5478 -5.26869,13.11492 -2.21844,8.38017 -4.32773,7.64511 -4.94808,-1.726 -0.47829,-2.7473 -8.27068,-6.42184 -9.89759,2.35058 -0.94263,5.08267 -4.34857,1.21725 -3.98921,-4.65599 0.47552,-7.77151 3.02059,-10.23775 7.89574,-10.29212 8.20014,-0.0915 7.64065,10.95621 10.67177,-1.27943 0.68898,-2.7812 1.25601,-6.67057 3.64775,-10.08606 6.43744,-6.80144 13.13626,-4.37852 15.19823,-0.032 1.70242,3.40488 1.62311,6.16257 1.04398,10.91175 -0.74704,6.12617 -0.22894,11.26855 1.8859,7.74769 2.57059,-4.27962 12.12796,-1.87766 11.24497,7.43565 -1.43628,15.14926 3.92027,4.8641 8.93307,-2.78854 7.88195,-12.03274 12.03265,-31.37103 8.27378,-42.76375 -4.63739,-14.055369 -17.17515,-20.23945 -37.76444,-13.795089 -25.12714,7.864682 -29.54969,4.093923 -30.83628,34.724479 -0.62766,14.94337 -2.76818,26.37839 -3.4975,28.88072 -2.51325,8.62308 1.62481,7.55976 14.53736,10.21058 8.88423,1.82386 18.67025,3.84616 21.74669,4.494 14.35157,2.93379 12.33716,4.95212 13.01267,-8.07479 z M 81.231483,147.39012 c 1.153358,-4.82375 3.308568,-7.61763 5.930348,-6.12938 8.174425,3.75438 3.264921,-2.40027 3.264921,-7.11402 0,-4.61595 0.461258,-9.69809 2.057887,-11.48641 6.480772,-7.25883 16.135131,2.84706 18.937651,10.49212 5.5647,13.61182 5.46176,6.30866 6.7318,4.25313 1.37271,-2.22172 3.57191,-2.35229 7.17069,-0.42574 4.71016,2.52151 7.48889,3.56866 5.19073,-10.21492 C 125.19953,94.881585 122.01222,96.594575 92.197141,89.259981 65.992054,82.813455 52.689312,103.26914 61.195864,125.82351 c 6.058507,17.23648 17.498013,39.96219 18.757297,32.17185 0.497439,-3.0773 0.524006,-7.08032 1.278322,-10.60524 z m 80.580337,3.36725 c 0,0 3.31463,-18.56314 3.60375,-27.27614 l 0.52568,-16.87359 -15.07878,0.17247 -14.82082,-0.0855 1.3564,16.8708 c 2.25127,28.00115 6.58088,38.62627 14.58302,38.62627 4.05051,-0.4243 7.30745,-2.06093 9.83075,-11.43432 z m 4.72804,-60.907873 c 7.24636,-7.799933 4.60571,-14.841821 -0.13992,-19.883254 -10.04001,-10.665811 -20.60446,-10.241684 -28.58121,-2.745818 -8.30702,7.806228 -10.77915,14.149113 -1.15015,24.537134 3.56559,4.287579 6.90958,7.078062 14.67259,7.388039 6.26265,-0.394911 11.79301,-5.23268 15.1987,-9.296101 z m -16.78968,-0.48245 c -4.81866,-3.524475 -4.75036,-3.930398 1.38443,-8.228582 6.85129,-4.800179 11.13511,-4.006945 11.13511,2.061885 0,6.819195 -6.94826,10.241667 -12.51954,6.166697 z m -0.79707,-38.146459 c 0.98412,-2.565272 1.69282,-5.038659 -1.09916,-7.553392 -5.13623,-5.230088 -11.61889,-8.951576 3.63733,-7.365346 17.00006,-1.812617 11.75507,1.789348 5.82995,7.623313 -5.07864,5.000512 -0.3827,12.555779 6.21112,10.024786 3.21493,-1.234028 3.74445,-4.249274 2.30444,-13.122083 -1.02828,-6.335942 -2.83859,-12.555772 -4.0229,-13.821841 -3.63104,-3.881697 -22.59503,-4.504823 -20.87563,3.351471 0.72643,3.319224 -2.28292,8.943051 -4.79307,11.717517 -5.63456,6.227858 -1.30154,13.809701 5.91278,13.809701 2.80821,0 5.91101,-2.098858 6.89513,-4.664126 z"
     style="display:inline;fill:#000000;stroke-width:2.79716015" />
</svg>
