<?xml version="1.0" encoding="UTF-8" standalone="no"?>
<svg
   xmlns:dc="http://purl.org/dc/elements/1.1/"
   xmlns:cc="http://creativecommons.org/ns#"
   xmlns:rdf="http://www.w3.org/1999/02/22-rdf-syntax-ns#"
   xmlns:svg="http://www.w3.org/2000/svg"
   xmlns="http://www.w3.org/2000/svg"
   xmlns:sodipodi="http://sodipodi.sourceforge.net/DTD/sodipodi-0.dtd"
   xmlns:inkscape="http://www.inkscape.org/namespaces/inkscape"
   version="1.0"
   width="300.000000pt"
   height="300.000000pt"
   viewBox="0 0 300.000000 300.000000"
   preserveAspectRatio="xMidYMid meet"
   id="svg2"
   inkscape:version="0.92.5 (2060ec1f9f, 2020-04-08)"
   sodipodi:docname="wk.svg">
  <defs
     id="defs12">
    <filter
       style="color-interpolation-filters:sRGB;"
       inkscape:label="Drawing"
       id="filter18775">
      <feGaussianBlur
         in="SourceGraphic"
         stdDeviation="5.99659"
         result="blur1"
         id="feGaussianBlur18721" />
      <feConvolveMatrix
         in="blur1"
         targetX="1"
         targetY="1"
         order="3 3"
         kernelMatrix="0 250 0 250 -1010 250 0 250 0 "
         result="convolve1"
         id="feConvolveMatrix18723" />
      <feComposite
         in="convolve1"
         in2="convolve1"
         k1="1"
         k2="1"
         k4="0.04"
         operator="arithmetic"
         result="composite1"
         id="feComposite18725" />
      <feColorMatrix
         in="composite1"
         values="0 0 0 0 0 0 0 0 0 0 0 0 0 0 0 -0.2125 -0.7154 -0.0721 1 0 "
         result="color1"
         id="feColorMatrix18727" />
      <feGaussianBlur
         stdDeviation="0.61"
         result="blur2"
         id="feGaussianBlur18729" />
      <feColorMatrix
         values="1 0 0 0 0 0 1 0 0 0 0 0 1 0 0 0 0 0 2.7 -1 "
         result="color2"
         id="feColorMatrix18731" />
      <feFlood
         flood-color="rgb(255,255,255)"
         result="flood1"
         id="feFlood18733" />
      <feBlend
         in2="color2"
         mode="multiply"
         result="blend1"
         id="feBlend18735" />
      <feComponentTransfer
         in="blend1"
         result="component1"
         id="feComponentTransfer18743">
        <feFuncR
           type="discrete"
           tableValues="0 1 1 1"
           id="feFuncR18737" />
        <feFuncG
           type="discrete"
           tableValues="0 1 1 1"
           id="feFuncG18739" />
        <feFuncB
           type="discrete"
           tableValues="0 1 1 1"
           id="feFuncB18741" />
      </feComponentTransfer>
      <feGaussianBlur
         stdDeviation="0.61"
         result="blur3"
         id="feGaussianBlur18745" />
      <feColorMatrix
         in="blur3"
         values="0 0 0 0 0 0 0 0 0 0 0 0 0 0 0 -0.2125 -0.7154 -0.0721 1 0 "
         result="color3"
         id="feColorMatrix18747" />
      <feColorMatrix
         values="1 0 0 0 0 0 1 0 0 0 0 0 1 0 0 0 0 0 1.9 -0.5 "
         result="color4"
         id="feColorMatrix18749" />
      <feFlood
         flood-color="rgb(0,0,0)"
         result="flood2"
         id="feFlood18751" />
      <feComposite
         in="flood2"
         in2="color4"
         operator="in"
         result="composite2"
         id="feComposite18753" />
      <feComposite
         in="composite2"
         in2="composite2"
         operator="arithmetic"
         k2="1"
         result="composite3"
         id="feComposite18755" />
      <feOffset
         dx="0"
         dy="0"
         result="offset1"
         id="feOffset18757" />
      <feFlood
         in="color4"
         flood-color="rgb(66,66,66)"
         result="flood3"
         id="feFlood18759" />
      <feComposite
         in="flood3"
         in2="color4"
         operator="out"
         result="composite4"
         id="feComposite18761" />
      <feComposite
         in="composite4"
         in2="composite4"
         operator="arithmetic"
         k2="1"
         result="composite5"
         id="feComposite18763" />
      <feMerge
         result="merge1"
         id="feMerge18769">
        <feMergeNode
           in="composite5"
           id="feMergeNode18765" />
        <feMergeNode
           in="offset1"
           id="feMergeNode18767" />
      </feMerge>
      <feColorMatrix
         values="1 0 0 0 0 0 1 0 0 0 0 0 1 0 0 0 0 0 1.3 0 "
         result="color5"
         flood-opacity="0.56"
         id="feColorMatrix18771" />
      <feComposite
         in="color5"
         in2="SourceGraphic"
         operator="in"
         result="composite8"
         id="feComposite18773" />
    </filter>
  </defs>
  <sodipodi:namedview
     pagecolor="#ffffff"
     bordercolor="#666666"
     borderopacity="1"
     objecttolerance="10"
     gridtolerance="10"
     guidetolerance="10"
     inkscape:pageopacity="0"
     inkscape:pageshadow="2"
     inkscape:window-width="1478"
     inkscape:window-height="1008"
     id="namedview10"
     showgrid="false"
     inkscape:zoom="1"
     inkscape:cx="145.56588"
     inkscape:cy="401.78648"
     inkscape:window-x="-7"
     inkscape:window-y="0"
     inkscape:window-maximized="0"
     inkscape:current-layer="svg2"
     inkscape:pagecheckerboard="true"
     showguides="true">
    <inkscape:grid
       type="xygrid"
       id="grid842" />
  </sodipodi:namedview>
  <metadata
     id="metadata4">
Created by potrace 1.12, written by Peter Selinger 2001-2015
<rdf:RDF>
  <cc:Work
     rdf:about="">
    <dc:format>image/svg+xml</dc:format>
    <dc:type
       rdf:resource="http://purl.org/dc/dcmitype/StillImage" />
    <dc:title />
  </cc:Work>
</rdf:RDF>
</metadata>
  <path
     style="display:inline;fill:#e3dfd3;fill-opacity:1;stroke-width:2.79716015"
     d="m 130.31055,7.53125 c -12.5418,0.235165 -11.15949,1.083106 -11.26194,14.574203 0.0382,11.191929 0.34875,22.461645 -0.12283,33.603531 C 95.710846,41.403174 64.293243,36.617913 40.076172,51.283203 19.094388,63.836861 11.81535,90.956272 15.868083,113.93019 c 4.046399,25.73665 19.726906,47.45871 33.760823,68.68309 0.385947,9.91175 2.367349,19.83602 7.460938,28.43945 3.547308,7.79844 8.943295,18.72076 1.982422,26.39454 -6.937612,9.96173 -4.207968,23.56384 3.492187,32.24609 13.914324,15.95559 36.454028,18.63891 56.169787,21.4885 29.66522,3.18045 59.84547,1.36507 89.12071,-4.12873 16.43213,-3.60126 34.92912,-12.22048 39.9556,-29.71329 2.42362,-8.75299 -0.0113,-18.74089 -6.59961,-25.03125 -2.231,-8.95261 4.64111,-16.74824 7.16376,-24.93712 3.69461,-8.13956 5.46457,-17.08399 6.096,-25.86952 5.72794,-10.90686 15.14082,-19.50073 19.82902,-31.03401 12.42177,-22.57273 20.37314,-50.867044 9.70614,-75.68669 -8.83809,-20.89188 -31.58457,-33.874296 -53.98828,-32.767578 -16.09022,0.126488 -31.78489,5.505776 -45.56446,13.595703 -0.18323,-10.086932 -0.021,-28.444063 -0.38928,-38.866292 -0.21549,-6.097624 0.16022,-7.5834601 -0.66586,-8.2406716 C 181.15995,6.7218757 148.1598,7.5181455 130.31055,7.53125 Z"
     id="path4582"
     inkscape:connector-curvature="0"
     sodipodi:nodetypes="cccccccccccccccccccssc" />
  <path
     style="display:inline;fill:#000000;stroke-width:1.27876651"
     d="m 171.62695,22.166016 -0.0996,16.154296 c -0.3457,7.794522 0.0506,20.748717 -0.15625,31.876954 -0.20674,11.128236 0.90831,24.979066 -5.30468,21.634765 -6.21299,-3.344301 -7.21779,-3.932885 -14.68164,-8.382812 C 119.50312,64.441478 77.827108,61.206895 53.083984,83.644531 46.70551,89.428678 41.847051,94.368432 37.630859,104.17578 c -7.426221,19.02059 -7.833926,40.85729 -1.259765,60.43164 8.019859,23.87887 23.569707,50.0331 36.849609,66.83008 4.925451,6.37731 5.400919,6.38441 5.740235,20.12305 0.201814,8.17141 3.699851,15.31325 6.988281,21.90039 2.02318,4.53094 8.267165,16.66645 9.8125,26.10156 2.469956,15.08043 0.06969,15.70241 -5.322266,21.66211 -11.542188,12.35249 -0.673493,34.00424 18.746097,42.34766 8.22404,3.53337 27.61563,9.96102 46.44336,11.89648 26.71122,2.62522 50.14136,3.63206 82.5039,1.05273 41.24599,-3.28736 65.11924,-13.05919 74.43555,-24.90625 8.88837,-11.30292 9.70175,-24.45134 1.91211,-30.91796 -7.51672,-6.24006 -8.29326,-17.147 1.86523,-41.03125 3.36606,-7.91412 6.79676,-13.30578 9.74024,-24.95313 0.96064,-3.80127 -1.69621,-14.94721 6.77734,-24.44727 28.53544,-38.51742 46.97443,-75.14799 38.66016,-113.86328 C 366.38933,92.495398 353.94513,81.63963 337.49609,74.283203 311.23881,62.540284 279.88078,68.025066 251.74023,84.847656 231.58951,96.893877 233.96943,98.715813 233.88477,52.939453 l -0.0566,-30.773437 h -29.50585 z m 45.17578,9.179687 c 1.8786,-0.0076 2.96559,-0.15339 3.51368,0.539063 1.09617,1.384935 -4.50585,7.293453 -8.43946,11.412109 -4.96385,5.197355 -7.97226,9.276372 -9.13331,9.238549 -1.34834,-0.09854 -4.00012,-3.343562 -8.09279,-7.809782 -4.42688,-4.830939 -10.73175,-11.410959 -9.60485,-12.919039 0.67793,-0.907241 4.72441,-0.323939 7.33386,-0.342755 8.76687,0.208551 16.11397,-0.05808 24.42287,-0.118145 z m -27.01826,21.934514 c 2.70709,3.170904 6.1196,6.548124 6.11442,7.732422 0.0573,1.809298 -12.92299,15.469468 -13.96755,14.759573 -1.37997,-0.937839 -0.72234,-8.497571 -0.69306,-13.147212 0.0293,-4.649641 -0.24498,-15.906433 0.79175,-16.472808 1.40115,-0.714105 5.74463,4.868405 7.75444,7.128025 z m 32.90889,-7.498966 c 1.66981,-0.84453 1.4093,11.272896 1.40625,15.970707 -0.0172,5.150987 0.4019,14.700974 -1.15039,14.042969 -1.61481,-0.470505 -13.53056,-12.728865 -13.55078,-14.853516 0.0404,-1.348293 3.28954,-4.415133 6.76758,-8.373047 2.27463,-2.228821 4.10038,-4.775588 6.52734,-6.787113 z M 203.7793,83.214844 c 6.88422,0.0119 11.98207,1.714582 19.09375,9.269531 6.3275,6.721908 9.69503,21.049305 0.0332,31.449215 -4.54092,5.41789 -11.14199,8.60822 -19.49219,9.13477 -10.35068,-0.4133 -14.72681,-2.59305 -19.74218,-8.08203 -10.71737,-11.72937 -8.74595,-25.224504 2.33007,-35.632814 4.98547,-4.684916 11.70304,-6.149169 17.77735,-6.138672 z m 97.58398,1.625 c 2.79026,0.04145 11.53232,0.55377 12.70508,0.74414 22.68412,4.358698 33.72713,17.070206 40.5293,35.080076 8.47094,22.42825 1.30695,47.88539 -21.53516,88.72266 -19.58139,29.15517 -17.29408,27.27577 -26.55664,24.25 -9.836,-3.2131 -3.33892,-6.08466 3.47461,-15.88281 13.15272,-18.9142 24.75437,-40.61155 26.83789,-54.95899 4.02526,-27.71856 -3.88872,-37.62054 -9.60156,-43.98828 C 318.73096,109.348 310.87528,105.666 291.76562,106 c -7.3374,0.12824 -26.89091,4.95395 -34.2539,8.03125 -17.43495,7.11009 -19.22824,7.7653 -17.19531,-1.77148 2.65165,-18.558974 57.15735,-27.088822 61.04687,-27.419926 z m -200.10742,0.04102 c 21.93159,0.61773 61.80303,14.970536 63.97852,25.121096 1.81045,6.67106 3.14681,12.11518 -4.80469,8.40235 -14.8098,-5.16125 -29.15828,-10.32907 -44.23633,-12.04493 -4.41056,-0.47763 -22.436401,-1.77043 -33.394532,7.78907 -12.088585,10.54567 -15.680228,24.1839 -15.292969,35.45703 0.83953,24.43876 10.007269,41.22894 23.714844,61.56055 4.3857,6.50504 9.678957,14.0155 12.201177,16.95898 3.44199,4.01689 -11.044458,8.65916 -12.992192,6.48437 C 74.476363,215.28633 61.038915,193.0192 51.453125,163.70312 37.952471,122.41429 61.50869,84.747243 101.25586,84.880859 Z m 112.9707,14.476566 c -2.53483,1.02694 -3.59724,4.77171 -3.71875,7.30859 -0.16128,3.36732 -0.85574,5.35276 -4.24804,6.9004 -2.6423,1.67263 -9.42409,-1.30737 -11.64844,2.64843 -1.50037,2.19576 -0.79702,4.63455 3.20508,6.60546 7.55337,4.05829 22.66404,-3.34327 22.66406,-12.43554 0.27938,-5.50135 -2.3282,-12.29141 -6.25391,-11.02734 z m -100.6582,18.42187 c 3.80672,0.0181 10.7399,0.77909 15.10742,1.85351 7.21989,2.04602 19.9071,5.50724 27.59766,8.29102 9.04304,3.27334 13.64062,8.94726 13.64062,8.94726 0,0 4.3837,20.20129 5.36719,30.51563 0.6488,8.61537 2.14615,21.996 4.43164,31.82226 4.11199,18.22132 2.76266,16.53614 -6.72601,18.07745 -1.91932,0.3097 -0.7326,-9.77913 -0.44586,-13.88799 0.61357,-9.79762 -0.63337,-15.66547 -1.6543,-17.40625 -3.2364,-5.5183 -9.87485,-6.86148 -15.03516,-4.82617 -2.10286,0.8294 -1.99903,0.30968 -3.43359,-3.64844 -6.07167,-14.6885 -32.07504,-11.03506 -32.36133,6.22461 -0.0686,4.13684 -0.57629,3.87638 -5.32226,4.51367 -4.02646,0.59689 -7.68849,4.11942 -8.68555,8.14648 -1.51271,6.10972 2.4337,11.85464 11.63086,23.11524 3.64535,4.46321 7.15181,7.53143 4.86914,8.03906 -4.3877,0.9582 -6.76458,0.85734 -9.19531,-2.42578 -10.65616,-14.39291 -26.378154,-42.07579 -30.13477,-58.36524 -5.908366,-25.61985 3.702562,-49.11294 30.34961,-48.98632 z m 178.27344,0 c 17.47897,0.54819 25.55193,8.31933 29.99609,21.78906 5.01183,15.19029 1.60302,32.09892 -11.65625,56.51758 -11.16815,18.61632 -16.38354,27.87584 -19.74609,30.59765 -2.28728,1.85144 -4.09114,1.93227 -8.20769,0.85892 -1.98435,-0.44675 1.75509,-3.62076 5.35222,-8.02493 9.19714,-11.2606 13.14356,-17.00552 11.63086,-23.11524 -0.99707,-4.02706 -4.65714,-7.54763 -8.6836,-8.14453 -4.74597,-0.63729 -5.25365,-0.37683 -5.32226,-4.51367 -0.2863,-17.25967 -26.29162,-20.91506 -32.36328,-6.22656 -1.43456,3.95812 -1.33073,4.47784 -3.4336,3.64844 -5.1603,-2.03531 -11.79875,-0.69213 -15.03515,4.82617 -1.02094,1.74078 -2.26592,7.61059 -1.65235,17.4082 0.5,9.18898 2.54211,14.50085 -0.56695,14.02396 -9.05666,-1.51128 -9.56618,-2.42796 -7.60297,-12.02982 0.97243,-3.33644 4.18207,-19.9988 5.81445,-40.36523 1.18513,-36.42133 6.8155,-33.42783 40.31836,-43.91407 9.31868,-2.40713 12.13895,-3.07995 21.15821,-3.33593 z m -81.69141,24.37304 c 4.62351,0.0115 9.49404,0.26686 10.48047,1.24024 1.97285,1.94675 0.54297,20.54297 0.54297,20.54297 -0.3855,11.61733 -4.98242,36.27929 -4.98242,36.27929 -2.67506,11.83885 -7.77898,15.37434 -13.53321,14.79102 -10.66952,0 -14.20924,-7.79209 -18.46093,-49.62695 0,0 -1.63707,-19.51839 0.2207,-21.48633 1.85777,-1.96794 16.73242,-1.51953 16.73242,-1.51953 0,0 4.37649,-0.23224 9,-0.22071 z m -73.35547,34.97657 c 1.13752,-0.0232 2.42162,0.19518 3.88672,0.77343 4.56443,1.80154 6.41779,4.10993 8.80469,25.8418 0.38582,3.51289 1.17726,8.88014 1.47461,11.17774 0.74021,5.45737 0.2645,5.42249 -0.94922,6.18945 -5.64048,1.49133 -4.79578,1.58152 -10.76758,-9.94336 -2.18412,-4.21509 -5.49292,-11.48029 -7.31641,-14.92188 -3.13131,-7.18633 -4.40379,-13.22929 -0.8789,-16.74609 1.45135,-1.10275 3.24354,-2.32004 5.74609,-2.37109 z m 131.66992,0.002 c 2.50255,0.0511 4.2967,1.26639 5.74805,2.36914 3.52489,3.5168 2.25045,9.56171 -0.88086,16.74805 -1.82349,3.44158 -5.13228,10.70483 -7.31641,14.91992 -5.97179,11.52488 -5.12709,11.43664 -10.76757,9.94531 -1.21372,-0.76696 -1.68944,-0.73208 -0.94922,-6.18945 0.29734,-2.2976 1.08878,-7.66484 1.47461,-11.17774 2.38689,-21.73186 4.24026,-24.04221 8.80468,-25.84375 1.46511,-0.57825 2.7492,-0.79469 3.88672,-0.77148 z M 159.75977,189.7168 c 4.74545,-0.17678 5.65475,3.88314 5.05078,16.28515 -0.56083,11.51596 -0.58686,12.73651 -4.01367,13.41993 -3.93686,0.46985 -2.89765,-1.36117 -4.21876,-15.93555 -0.86238,-9.51371 -1.24022,-13.60481 3.18165,-13.76953 z m 85.74023,0.002 c 4.42187,0.16472 4.04403,4.25387 3.18164,13.76758 -1.11097,12.25619 -1.1575,15.86415 -2.91797,15.80664 -1.09423,-0.10359 -2.45841,-0.20414 -3.11328,-0.51953 -1.64313,-1.09081 -1.76478,-3.80867 -2.20117,-12.76953 -0.60397,-12.40202 0.30533,-16.46193 5.05078,-16.28516 z m -126.30273,6.33594 c 1.50593,0.0175 3.4351,0.86526 5.05078,3.89843 3.0304,4.66074 8.29255,13.98046 11.61133,19.37696 2.66769,4.3378 1.62881,4.61224 -0.5586,5.26367 -3.95749,1.01876 -3.94834,0.40735 -11.25195,-9.61133 -7.45115,-10.22106 -12.15833,-15.49143 -6.94531,-18.35547 0.43904,-0.29372 1.19019,-0.58279 2.09375,-0.57226 z m 166.86718,0.002 c 0.90356,-0.0105 1.65275,0.27659 2.0918,0.57031 5.21301,2.86404 0.5078,8.13636 -6.94336,18.35743 -7.30361,10.01868 -7.29641,10.63008 -11.25391,9.61132 -2.18741,-0.65142 -3.22628,-0.92587 -0.55859,-5.26367 3.31877,-5.39649 8.58093,-14.71622 11.61133,-19.37695 1.61568,-3.03318 3.5468,-3.88089 5.05273,-3.89844 z m -81.37304,31.22656 c 38.85885,1.65743 93.77449,11.91592 104.0625,21.33985 3.31272,3.03448 1.97386,6.09714 -0.0937,10.92578 -3.23286,5.26856 -4.50177,5.59428 -16.89844,0.63672 -7.27044,-2.9245 -26.71943,-9.14423 -47.82617,-12.61719 -33.7031,-5.5456 -47.14195,-3.20725 -70.01367,-1.06641 -16.96405,1.58787 -39.74129,6.19181 -49.9961,10.02344 -10.25482,3.83159 -19.956,7.34271 -21.55859,7.34375 -4.608926,0.003 -11.245234,-9.85491 -5.607424,-15.375 7.540994,-7.29695 49.079384,-16.09468 78.183594,-19.47461 8.63844,-1.15082 17.97364,-1.65437 25.76562,-1.73242 1.3149,-0.0132 2.64338,-0.0142 3.98243,-0.004 z m -13.71289,28.95899 c 10.13506,0.0588 -0.81144,6.24074 -8.47071,11.47265 -13.38918,9.44615 -9.93589,10.91814 3.27149,17.8711 5.12498,2.41265 9.78506,4.61718 9.45703,6.58594 -0.69671,4.18148 -27.27521,-0.0541 -62.22852,9.86718 -0.33026,0.0937 -5.54707,1.54093 -5.11328,-0.57422 0.63873,-3.11442 9.40479,-7.67309 15.49414,-17.10742 5.48088,-8.36156 -7.8146,-14.50586 -21.01758,-13.29883 16.16557,-8.22773 26.35703,-9.63578 58.1543,-13.92187 4.70999,-0.63488 8.11427,-0.90811 10.45313,-0.89453 z m 27.4414,0.26562 c 3.38099,-0.007 7.81201,0.26416 13.41406,0.89649 21.38495,2.41382 39.33558,6.62511 50.84375,13.15429 -2.01027,-0.4273 -4.87315,-0.39023 -8.57421,0.39258 -17.17696,4.04966 -17.78579,9.25853 -4.3711,22.47461 7.18146,5.40152 10.40916,9.94993 3.72852,8.34961 -4.46704,-1.07007 -20.69264,-5.13924 -34.17774,-6.14062 -21.52242,-1.67238 -35.6936,-1.88898 -26.61523,-6.64844 4.31776,-2.48416 11.28944,-7.01628 14.50586,-9.26367 5.26798,-4.53922 5.65303,-6.66794 -13.98633,-17.875 -5.59158,-2.79129 -4.91055,-5.31786 5.23242,-5.33985 z m -15.50195,9.54297 c 3.08003,-0.0574 9.91666,3.33623 14.56641,8.04297 2.52493,2.24887 -7.77587,7.33278 -10.00782,8.7832 -5.16278,2.62179 -9.57068,0.21489 -13.60547,-2.03125 -8.05848,-4.45648 -7.35489,-5.55067 -3.94921,-8.07422 4.33116,-2.78073 8.87992,-6.64403 12.99609,-6.7207 z m 84.08008,7.20703 c 4.7213,3.25771 6.99399,6.3985 8.48828,10.73633 2.61449,7.58977 1.96175,11.37871 -2.77735,16.11914 -5.7745,5.77613 -6.9154,3.432 -6.43554,0.2168 0.50418,-3.37823 -0.66321,-2.95639 -7.53321,-10.08203 -6.72086,-6.97095 -6.72994,-9.64337 -1.20898,-10.91407 6.6519,-1.53098 10.40361,-3.94377 9.4668,-6.07617 z m -168.94727,0.5 c -0.99389,1.81641 2.944,4.0593 4.38867,4.57617 4.4114,1.5134 9.03614,1.79046 9.02149,4.58204 -0.0135,2.56442 -2.80908,5.40103 -7.28125,9.92382 -0.68377,0.70405 -4.65158,4.48599 -5.3086,5.56055 -0.82121,1.34309 1.02119,4.79038 -0.97851,5.61719 -2.02354,0.83667 -7.28242,-4.16986 -9.3125,-8.95899 -1.55416,-3.66638 0.67872,-10.04444 1.35156,-11.66601 1.21031,-2.91691 3.91778,-7.16886 8.11914,-9.63477 z m 83.55078,32.86914 c 36.05482,-0.0683 74.47253,4.8676 92.57617,16.68164 14.37434,9.38038 13.80824,17.365 2.69336,25.15235 -11.96306,8.3816 -17.8164,7.16315 -17.8164,-3.70899 0,-15.26845 -18.48135,-20.64387 -72.10547,-20.97265 -53.21279,-0.32626 -78.27456,4.26828 -80.29492,17.72656 -0.32827,5.96654 -0.16273,11.81162 -5.43164,12.41016 -5.26892,0.59854 -20.42787,-8.8968 -20.98633,-16.17383 -0.426458,-10.91416 17.59638,-18.57129 31.13476,-23.02149 14.69097,-4.51871 42.18784,-8.04062 70.23047,-8.09375 z m -0.48047,31.51758 c 58.43712,0.20165 88.45877,8.5124 67.67969,19.22656 -9.08931,4.68624 -61.18209,7.51024 -101.22461,4.94922 -13.84293,-0.88537 -35.8215,-3.15512 -37.36523,-10.38476 -1.19803,-4.93824 7.89578,-7.41834 11.85351,-8.42578 19.26429,-4.76123 40.61196,-5.34367 59.05664,-5.36524 z"
     transform="scale(0.75)"
     id="path5121"
     inkscape:connector-curvature="0"
     sodipodi:nodetypes="cccssscscscscscscscccsssccccccscssccccsccccccccccccssccccssssscccccccsssccscccccccccccccccccccscssccsccscccscccccscccccccsccccscccccccscccscccccccscscccsccsccccssscsscscscscccssscccccccccscsccsccscccccccccccccccccsccccccccsccccssssccsccsccscccsccc" />
</svg>
