<?xml version="1.0" encoding="UTF-8" standalone="no"?>
<svg
   xmlns:dc="http://purl.org/dc/elements/1.1/"
   xmlns:cc="http://creativecommons.org/ns#"
   xmlns:rdf="http://www.w3.org/1999/02/22-rdf-syntax-ns#"
   xmlns:svg="http://www.w3.org/2000/svg"
   xmlns="http://www.w3.org/2000/svg"
   xmlns:sodipodi="http://sodipodi.sourceforge.net/DTD/sodipodi-0.dtd"
   xmlns:inkscape="http://www.inkscape.org/namespaces/inkscape"
   version="1.0"
   width="300.000000pt"
   height="300.000000pt"
   viewBox="0 0 300.000000 300.000000"
   preserveAspectRatio="xMidYMid meet"
   id="svg2"
   inkscape:version="0.92.5 (2060ec1f9f, 2020-04-08)"
   sodipodi:docname="wn.svg">
  <defs
     id="defs12">
    <filter
       style="color-interpolation-filters:sRGB;"
       inkscape:label="Drawing"
       id="filter18775">
      <feGaussianBlur
         in="SourceGraphic"
         stdDeviation="5.99659"
         result="blur1"
         id="feGaussianBlur18721" />
      <feConvolveMatrix
         in="blur1"
         targetX="1"
         targetY="1"
         order="3 3"
         kernelMatrix="0 250 0 250 -1010 250 0 250 0 "
         result="convolve1"
         id="feConvolveMatrix18723" />
      <feComposite
         in="convolve1"
         in2="convolve1"
         k1="1"
         k2="1"
         k4="0.04"
         operator="arithmetic"
         result="composite1"
         id="feComposite18725" />
      <feColorMatrix
         in="composite1"
         values="0 0 0 0 0 0 0 0 0 0 0 0 0 0 0 -0.2125 -0.7154 -0.0721 1 0 "
         result="color1"
         id="feColorMatrix18727" />
      <feGaussianBlur
         stdDeviation="0.61"
         result="blur2"
         id="feGaussianBlur18729" />
      <feColorMatrix
         values="1 0 0 0 0 0 1 0 0 0 0 0 1 0 0 0 0 0 2.7 -1 "
         result="color2"
         id="feColorMatrix18731" />
      <feFlood
         flood-color="rgb(255,255,255)"
         result="flood1"
         id="feFlood18733" />
      <feBlend
         in2="color2"
         mode="multiply"
         result="blend1"
         id="feBlend18735" />
      <feComponentTransfer
         in="blend1"
         result="component1"
         id="feComponentTransfer18743">
        <feFuncR
           type="discrete"
           tableValues="0 1 1 1"
           id="feFuncR18737" />
        <feFuncG
           type="discrete"
           tableValues="0 1 1 1"
           id="feFuncG18739" />
        <feFuncB
           type="discrete"
           tableValues="0 1 1 1"
           id="feFuncB18741" />
      </feComponentTransfer>
      <feGaussianBlur
         stdDeviation="0.61"
         result="blur3"
         id="feGaussianBlur18745" />
      <feColorMatrix
         in="blur3"
         values="0 0 0 0 0 0 0 0 0 0 0 0 0 0 0 -0.2125 -0.7154 -0.0721 1 0 "
         result="color3"
         id="feColorMatrix18747" />
      <feColorMatrix
         values="1 0 0 0 0 0 1 0 0 0 0 0 1 0 0 0 0 0 1.9 -0.5 "
         result="color4"
         id="feColorMatrix18749" />
      <feFlood
         flood-color="rgb(0,0,0)"
         result="flood2"
         id="feFlood18751" />
      <feComposite
         in="flood2"
         in2="color4"
         operator="in"
         result="composite2"
         id="feComposite18753" />
      <feComposite
         in="composite2"
         in2="composite2"
         operator="arithmetic"
         k2="1"
         result="composite3"
         id="feComposite18755" />
      <feOffset
         dx="0"
         dy="0"
         result="offset1"
         id="feOffset18757" />
      <feFlood
         in="color4"
         flood-color="rgb(66,66,66)"
         result="flood3"
         id="feFlood18759" />
      <feComposite
         in="flood3"
         in2="color4"
         operator="out"
         result="composite4"
         id="feComposite18761" />
      <feComposite
         in="composite4"
         in2="composite4"
         operator="arithmetic"
         k2="1"
         result="composite5"
         id="feComposite18763" />
      <feMerge
         result="merge1"
         id="feMerge18769">
        <feMergeNode
           in="composite5"
           id="feMergeNode18765" />
        <feMergeNode
           in="offset1"
           id="feMergeNode18767" />
      </feMerge>
      <feColorMatrix
         values="1 0 0 0 0 0 1 0 0 0 0 0 1 0 0 0 0 0 1.3 0 "
         result="color5"
         flood-opacity="0.56"
         id="feColorMatrix18771" />
      <feComposite
         in="color5"
         in2="SourceGraphic"
         operator="in"
         result="composite8"
         id="feComposite18773" />
    </filter>
  </defs>
  <sodipodi:namedview
     pagecolor="#ffffff"
     bordercolor="#666666"
     borderopacity="1"
     objecttolerance="10"
     gridtolerance="10"
     guidetolerance="10"
     inkscape:pageopacity="0"
     inkscape:pageshadow="2"
     inkscape:window-width="1512"
     inkscape:window-height="1002"
     id="namedview10"
     showgrid="false"
     inkscape:zoom="0.14734248"
     inkscape:cx="-819.50525"
     inkscape:cy="-405.4195"
     inkscape:window-x="148"
     inkscape:window-y="60"
     inkscape:window-maximized="0"
     inkscape:current-layer="svg2"
     inkscape:pagecheckerboard="true"
     showguides="false" />
  <metadata
     id="metadata4">
Created by potrace 1.12, written by Peter Selinger 2001-2015
<rdf:RDF>
  <cc:Work
     rdf:about="">
    <dc:format>image/svg+xml</dc:format>
    <dc:type
       rdf:resource="http://purl.org/dc/dcmitype/StillImage" />
    <dc:title />
  </cc:Work>
</rdf:RDF>
</metadata>
  <path
     style="display:inline;fill:#e3dfd3;fill-opacity:1;stroke-width:2.68883371"
     d="m 124.70898,12.763672 c -8.98654,0.172448 -11.9826,12.19691 -7.64843,18.808594 -7.20823,-3.933449 -18.778393,-6.837369 -24.228519,1.30664 -4.894357,7.85846 1.380958,16.469078 4.201172,23.587891 -1.835071,6.406634 -9.093756,8.977213 -12.179687,14.728515 -17.646483,21.757099 -31.032762,46.674028 -49.76169,67.550318 -9.748562,12.53029 -16.953398,29.56622 -10.853545,45.28757 3.247836,10.34745 13.71762,20.83059 25.333985,17.49414 0.432961,10.11425 11.400504,16.02581 20.701172,15.04493 12.322329,0.49897 27.295007,-10.03249 26.645369,-23.2502 -0.838318,-5.10545 0.712655,-6.17334 4.473773,-7.30059 11.73089,-7.25634 25.33694,-12.49211 39.32617,-11.1582 1.5029,0.42676 -3.42598,4.92195 -4.43555,6.71289 -18.13512,22.28832 -44.164593,36.83254 -61.239786,60.03522 -6.964727,10.20824 -12.485765,23.3831 -8.906695,35.789 3.205384,7.65128 12.688879,7.96726 19.698927,7.56659 62.485134,1.99243 125.111524,2.23145 187.558884,0.24591 9.46481,-2.41524 13.26635,-16.29634 5.87305,-22.71484 7.32433,-3.19627 7.2366,-13.55842 3.23633,-19.43555 -0.88406,-2.47813 -4.49386,-5.30064 -3.85743,-7.09766 8.20416,-3.02888 8.55575,-14.11007 3.64649,-20.22851 -1.57137,-2.47074 -3.44366,-4.73967 -5.4375,-6.87891 8.92882,-2.1763 11.26904,-14.58264 4.94726,-20.74804 -1.34173,-1.96431 -4.2006,-3.76418 -4.78906,-5.5254 7.20412,-4.11199 7.19608,-14.95829 0.98242,-19.98046 -1.54943,-2.08237 -5.97645,-3.7528 -5.68164,-5.80274 6.90586,-5.42282 5.29936,-16.93278 -2.29297,-20.93555 -2.36519,-1.66067 -5.37418,-2.4712 -7.39453,-4.4707 6.37907,-5.57385 4.68808,-17.23178 -3.61133,-20.02734 -2.1646,-1.36919 -6.2296,-1.44548 -7.13281,-3.24414 4.22942,-6.80134 0.23069,-16.767172 -7.87109,-18.083988 -2.77184,-0.826768 -9.02909,-0.578566 -6.69922,-4.951171 1.3949,-8.738147 -6.93966,-17.108024 -15.7168,-15.574219 -3.00816,0.380858 -5.27194,-1.626173 -5.01953,-4.570313 -2.99411,-7.793134 -12.42779,-10.007876 -19.9414,-9.160156 -3.19155,-5.080471 -7.58643,-9.950853 -14.01758,-10.392578 -7.11774,-0.775526 -16.53874,0.932363 -20.47756,-6.798972 -9.5723,-11.683894 -22.03429,-23.276557 -37.43065,-25.827981 z"
     id="path848"
     inkscape:connector-curvature="0"
     sodipodi:nodetypes="cccccccccccccccccccccccccccccccccccccc" />
  <path
     style="display:inline;opacity:1;fill:#000000;fill-opacity:1;stroke-width:2.68883371"
     d="m 125.19141,21.741188 c -0.34942,0.0079 -0.63762,0.07694 -0.8379,0.225586 -1.63591,1.214184 2.77589,8.43457 2.77589,8.43457 4.83439,13.171339 2.7,16.485616 -15.20948,8.82568 -12.6444,-5.408045 -15.03677,-3.302307 -8.28076,9.704591 4.70287,9.054115 2.85325,12.243226 -2.69824,18.1333 -18.09663,19.200292 -21.97505,26.38729 -30.23291,39.688465 -9.23895,14.88144 -31.73117,39.70189 -36.37353,49.87498 -4.47459,9.80547 -3.97807,16.81194 -1.5747,23.89748 4.70287,13.86481 13.63423,16.20223 21.70312,7.97167 5.82513,-5.94186 11.67035,-12.24138 11.64843,-11.55927 -0.0219,0.68204 -3.5605,7.64953 -5.55322,13.70673 -3.210241,9.75805 -2.822336,14.65165 7.843964,15.56083 9.36469,0.79823 20.0877,-3.27861 19.26929,-12.65339 -0.22408,-2.56677 -1.657824,-9.35168 1.678246,-11.16182 10.5074,-5.70132 29.30815,-17.03808 40.09277,-16.19826 5.20016,0.40497 15.66987,-0.49587 20.10351,-3.09081 9.76022,-6.2235 8.88482,3.63381 0.44972,15.66504 -7.74519,11.0472 -21.76058,24.68022 -38.792,39.77782 -30.53529,23.91614 -35.13529,37.70373 -36.45263,44.77148 -0.94099,5.04859 -1.05152,10.28556 -0.2461,11.63673 0.82127,1.37775 43.81805,2.58807 97.90282,2.45655 l 84.56397,-0.12219 c 2.62788,0.007 5.06138,-0.0587 7.11767,-0.0463 9.27225,-0.0454 12.86946,-3.78735 8.67188,-8.24853 -10.08471,-10.71798 -7.91039,-16.96977 -0.66981,-14.55716 4.19379,1.28399 8.74941,-0.33376 -3.48926,-16.23958 -5.32599,-7.56101 -1.20465,-13.08003 1.5315,-11.73705 4.79073,2.35141 13.4676,2.11461 -1.65579,-14.44534 -4.96503,-5.91232 -3.30216,-13.97421 1.73307,-12.38123 2.80623,1.10679 12.6,1.17717 -0.97413,-11.76268 -6.18501,-5.40599 -5.61046,-13.8571 -2.05516,-13.02832 5.27908,1.16127 12.37576,-0.33831 -1.03448,-10.8969 -6.37188,-4.76978 -8.17851,-13.66344 -4.04854,-13.36971 5.65897,0.37444 10.19844,-3.42044 -1.35497,-9.76904 -11.03637,-5.98503 -10.47711,-11.79244 -6.08954,-14.12256 4.4018,-2.05381 7.87106,-5.1146 -6.21661,-9.83495 -9.5948,-3.06039 -9.04349,-8.6556 -5.57843,-11.43517 3.46506,-2.77956 4.05284,-6.418376 -5.57827,-8.473878 -9.44508,-2.613116 -12.54867,-8.241671 -10.7751,-11.574279 3.32215,-4.962735 2.38203,-6.553484 -9.32943,-7.525454 -3.80409,-0.48786 -7.80435,-1.905432 -8.71143,-7.025397 -0.90705,-5.119971 0.21735,-5.19165 -11.80518,-6.22705 -3.97491,-0.342329 -7.20597,-0.873759 -8.25,-3.588867 -2.83545,-7.373926 -3.76302,-5.98138 -16.25097,-7.469237 -4.88526,-0.463661 -10.41153,-1.047875 -11.99769,-2.781273 -1.58614,-1.733399 -4.0947,-5.944134 -8.51745,-10.849068 -4.55526,-5.051919 -13.94734,-12.284075 -18.51708,-15.247556 0,0 -5.48919,-2.964557 -7.93506,-2.90918 z m 12.67676,17.501952 c 1.34228,0.04589 3.96246,2.723055 9.08788,8.184081 5.00124,5.328698 11.21429,17.179608 16.09503,17.6454 12.47958,1.190981 32.42461,8.517409 52.14594,29.257657 30.57867,32.547992 38.78235,66.924442 39.89427,132.170182 -0.71384,25.07937 -0.98796,38.00374 -1.71294,38.68399 -0.72497,0.68027 -94.22161,-1.68694 -94.22161,-1.68694 -58.78114,-0.0576 -72.50731,2.26381 -72.13184,-1.47656 0.96434,-9.60672 18.27432,-24.60171 46.53663,-48.56397 14.23014,-13.7589 27.14814,-27.39361 31.43407,-41.14012 4.85963,-15.58656 4.28834,-17.94534 11.37452,-22.60548 9.24238,-6.07813 17.0871,-15.92754 21.64306,-25.31688 5.64083,-11.62514 3.88979,-29.607754 -1.85889,-29.575195 -2.56648,0.0145 -1.00717,10.526975 -3.94189,19.220205 -3.38712,10.03341 -11.74406,24.44631 -31.87647,34.0957 -18.54823,8.89011 -31.4427,8.96136 -34.48827,5.59425 -3.57406,-3.95142 -6.29313,-9.11131 -8.69239,-15.05568 -2.39606,-6.1312 -5.40132,-9.13086 -7.27295,-6.79395 -2.35761,2.94375 -1.25911,4.11938 1.68018,10.94093 6.65808,15.45217 0.36816,15.30183 -10.3667,21.44971 -7.44549,4.26404 -15.99443,7.46384 -19.79883,11.46387 -4.63961,4.87818 -3.03957,11.63985 -2.87036,14.68637 0.43167,7.77199 -6.730039,6.85005 -9.103368,6.50687 -4.556463,-0.65886 -0.878642,-6.0897 6.197848,-22.12195 5.92774,-13.42968 7.08223,-14.68653 1.92188,-14.68653 -0.96397,0 -8.61968,4.50612 -16.86621,11.61182 -8.72647,7.51924 -11.08101,11.84858 -12.85107,11.60009 -3.279,-0.46035 -7.04035,-8.86486 -6.90673,-14.16211 0.0909,-3.60375 0.6684,-5.97343 4.85449,-12.36181 5.81412,-9.35498 17.25176,-22.63145 27.041,-35.18994 6.13452,-7.8699 13.03923,-20.13985 16.95264,-25.656726 3.00365,-4.234359 11.84961,-15.260379 18.36328,-21.77051 10.04709,-10.041631 8.22174,-11.863238 7.54687,-17.043456 -2.70769,-10.197019 -7.95127,-12.512656 9.89795,-3.771972 4.8729,2.386235 10.82503,3.828284 10.86183,-4.366699 0.0291,-6.488332 -0.0901,-9.816664 1.43115,-9.764647 z m -1.18945,44.396477 c -1.78379,-0.0209 -4.06245,0.200109 -6.81593,0.74561 -8.52668,1.68924 -22.38615,4.114738 -21.97119,8.869629 0.064,1.674348 3.33913,3.724428 3.24024,6.563958 1.89243,6.476276 8.45827,6.334026 15.14647,1.270016 9.41748,-7.130495 5.11066,-7.719044 12.51857,-13.063466 4.12737,-2.094018 3.23319,-4.322988 -2.11816,-4.385747 z M 89.85644,105.25484 c -1.45237,0 -2.63917,1.55496 -3.63574,3.19629 -4.12987,6.80181 -7.13098,11.85603 -15.84521,22.03418 -8.71424,10.17816 -15.84374,20.39721 -15.84374,22.70946 0,7.43631 4.66449,1.9131 21.63427,-19.8618 16.59717,-21.2968 19.26112,-28.07813 13.69042,-28.07813 z m 120.85547,3.23586 c -1.85628,-0.0265 -3.29898,4.1122 -4.56006,9.59472 -1.22143,13.07475 -3.87423,21.77796 -15.26074,33.30761 -4.58072,4.38171 -10.99458,6.9945 -11.96484,10.14258 -1.2312,3.99468 0.9216,4.88473 0.60351,8.28222 -0.88491,9.45162 17.72869,2.64528 27.09522,-3.71778 10.161,-6.90276 16.14603,-12.87969 19.09276,-24.58007 0,0 0.92745,-7.51994 -1.26708,-7.95118 -2.19453,-0.43122 -5.85058,6.92873 -5.85058,6.92873 -3.96998,7.61647 -7.22463,11.4263 -16.09131,17.96777 -19.67181,13.18295 -15.07877,5.62328 -6.98438,-0.46729 5.31395,-3.99846 10.21323,-10.84961 12.26513,-15.70313 6.31014,-13.08634 8.16381,-26.89712 5.30566,-31.69188 -0.86715,-1.45475 -1.65693,-2.10195 -2.38329,-2.1123 z"
     id="path853-0-3-1"
     inkscape:connector-curvature="0"
     sodipodi:nodetypes="sccssssssscssssscscsscccsccscccccccccsccccscczscssssscczscsssssscccsssscssscscssscscsssccscssssssssccsssccccsccsc" />
</svg>
