<?xml version="1.0" encoding="UTF-8" standalone="no"?>
<svg
   xmlns:dc="http://purl.org/dc/elements/1.1/"
   xmlns:cc="http://creativecommons.org/ns#"
   xmlns:rdf="http://www.w3.org/1999/02/22-rdf-syntax-ns#"
   xmlns:svg="http://www.w3.org/2000/svg"
   xmlns="http://www.w3.org/2000/svg"
   xmlns:sodipodi="http://sodipodi.sourceforge.net/DTD/sodipodi-0.dtd"
   xmlns:inkscape="http://www.inkscape.org/namespaces/inkscape"
   version="1.0"
   width="300.000000pt"
   height="300.000000pt"
   viewBox="0 0 300.000000 300.000000"
   preserveAspectRatio="xMidYMid meet"
   id="svg2"
   inkscape:version="0.92.5 (2060ec1f9f, 2020-04-08)"
   sodipodi:docname="wn.svg">
  <defs
     id="defs12">
    <filter
       style="color-interpolation-filters:sRGB;"
       inkscape:label="Drawing"
       id="filter18775">
      <feGaussianBlur
         in="SourceGraphic"
         stdDeviation="5.99659"
         result="blur1"
         id="feGaussianBlur18721" />
      <feConvolveMatrix
         in="blur1"
         targetX="1"
         targetY="1"
         order="3 3"
         kernelMatrix="0 250 0 250 -1010 250 0 250 0 "
         result="convolve1"
         id="feConvolveMatrix18723" />
      <feComposite
         in="convolve1"
         in2="convolve1"
         k1="1"
         k2="1"
         k4="0.04"
         operator="arithmetic"
         result="composite1"
         id="feComposite18725" />
      <feColorMatrix
         in="composite1"
         values="0 0 0 0 0 0 0 0 0 0 0 0 0 0 0 -0.2125 -0.7154 -0.0721 1 0 "
         result="color1"
         id="feColorMatrix18727" />
      <feGaussianBlur
         stdDeviation="0.61"
         result="blur2"
         id="feGaussianBlur18729" />
      <feColorMatrix
         values="1 0 0 0 0 0 1 0 0 0 0 0 1 0 0 0 0 0 2.7 -1 "
         result="color2"
         id="feColorMatrix18731" />
      <feFlood
         flood-color="rgb(255,255,255)"
         result="flood1"
         id="feFlood18733" />
      <feBlend
         in2="color2"
         mode="multiply"
         result="blend1"
         id="feBlend18735" />
      <feComponentTransfer
         in="blend1"
         result="component1"
         id="feComponentTransfer18743">
        <feFuncR
           type="discrete"
           tableValues="0 1 1 1"
           id="feFuncR18737" />
        <feFuncG
           type="discrete"
           tableValues="0 1 1 1"
           id="feFuncG18739" />
        <feFuncB
           type="discrete"
           tableValues="0 1 1 1"
           id="feFuncB18741" />
      </feComponentTransfer>
      <feGaussianBlur
         stdDeviation="0.61"
         result="blur3"
         id="feGaussianBlur18745" />
      <feColorMatrix
         in="blur3"
         values="0 0 0 0 0 0 0 0 0 0 0 0 0 0 0 -0.2125 -0.7154 -0.0721 1 0 "
         result="color3"
         id="feColorMatrix18747" />
      <feColorMatrix
         values="1 0 0 0 0 0 1 0 0 0 0 0 1 0 0 0 0 0 1.9 -0.5 "
         result="color4"
         id="feColorMatrix18749" />
      <feFlood
         flood-color="rgb(0,0,0)"
         result="flood2"
         id="feFlood18751" />
      <feComposite
         in="flood2"
         in2="color4"
         operator="in"
         result="composite2"
         id="feComposite18753" />
      <feComposite
         in="composite2"
         in2="composite2"
         operator="arithmetic"
         k2="1"
         result="composite3"
         id="feComposite18755" />
      <feOffset
         dx="0"
         dy="0"
         result="offset1"
         id="feOffset18757" />
      <feFlood
         in="color4"
         flood-color="rgb(66,66,66)"
         result="flood3"
         id="feFlood18759" />
      <feComposite
         in="flood3"
         in2="color4"
         operator="out"
         result="composite4"
         id="feComposite18761" />
      <feComposite
         in="composite4"
         in2="composite4"
         operator="arithmetic"
         k2="1"
         result="composite5"
         id="feComposite18763" />
      <feMerge
         result="merge1"
         id="feMerge18769">
        <feMergeNode
           in="composite5"
           id="feMergeNode18765" />
        <feMergeNode
           in="offset1"
           id="feMergeNode18767" />
      </feMerge>
      <feColorMatrix
         values="1 0 0 0 0 0 1 0 0 0 0 0 1 0 0 0 0 0 1.3 0 "
         result="color5"
         flood-opacity="0.56"
         id="feColorMatrix18771" />
      <feComposite
         in="color5"
         in2="SourceGraphic"
         operator="in"
         result="composite8"
         id="feComposite18773" />
    </filter>
  </defs>
  <sodipodi:namedview
     pagecolor="#ffffff"
     bordercolor="#666666"
     borderopacity="1"
     objecttolerance="10"
     gridtolerance="10"
     guidetolerance="10"
     inkscape:pageopacity="0"
     inkscape:pageshadow="2"
     inkscape:window-width="1416"
     inkscape:window-height="1002"
     id="namedview10"
     showgrid="false"
     inkscape:zoom="1.1787398"
     inkscape:cx="40.379767"
     inkscape:cy="265.07718"
     inkscape:window-x="157"
     inkscape:window-y="18"
     inkscape:window-maximized="0"
     inkscape:current-layer="svg2"
     inkscape:pagecheckerboard="true"
     showguides="false" />
  <metadata
     id="metadata4">
Created by potrace 1.12, written by Peter Selinger 2001-2015
<rdf:RDF>
  <cc:Work
     rdf:about="">
    <dc:format>image/svg+xml</dc:format>
    <dc:type
       rdf:resource="http://purl.org/dc/dcmitype/StillImage" />
    <dc:title />
  </cc:Work>
</rdf:RDF>
</metadata>
  <path
     style="display:inline;fill:#e9e6de;fill-opacity:1;stroke-width:2.68883371"
     d="m 112.38742,13.491535 c -1.67373,3.969984 -0.47347,8.934868 2.26037,15.80961 -7.56308,-3.618749 -17.656096,-5.532422 -23.019042,2.654931 -5.199518,8.41408 -0.245883,15.736028 2.761792,23.454449 -1.807056,6.911957 -14.209843,17.93626 -18.200708,23.01668 -21.10036,34.163075 -49.566402,64.104945 -52.872422,74.737265 -4.18211,12.56652 -4.026406,25.48045 1.539854,37.19005 3.345959,9.03669 13.283999,18.18817 23.314453,14.68164 1.408033,9.39093 11.738943,13.77966 20.361327,13.03391 13.35846,1.31066 28.318702,-9.02809 27.775391,-23.27024 -1.728179,-6.48537 6.389115,-7.24097 9.964845,-10.48242 10.61057,-5.18972 21.77031,-8.9566 33.36328,-9.47852 -18.66772,26.45512 -49.51445,41.66638 -67.589843,68.65039 -6.338373,10.2183 -11.273421,23.37347 -6.919922,35.23047 5.001707,9.22387 17.122644,7.51629 25.810547,8.04492 58.136568,2.34358 116.325148,0.52787 174.484368,0.5879 7.82497,-8.36732 19.29737,-17.52975 17.49805,-30.39844 0.45401,-5.42032 -5.13549,-8.54491 -6.61719,-13.04297 7.22767,-7.01143 10.15294,-21.02498 1.12891,-27.78125 -2.91872,-1.53841 2.22124,-2.77392 2.32617,-5.03711 4.8101,-7.72096 2.1154,-18.67869 -4.5,-23.98828 5.26104,-7.58617 3.35495,-18.66922 -3.17578,-24.89063 2.74139,-6.49268 3.68339,-14.79762 -2.04297,-20.0625 -3.14431,-2.70913 -3.57286,-6.55086 -2.91015,-10.32031 -0.13573,-5.85393 -3.62741,-11.40629 -8.17579,-14.55078 0.2513,-7.03694 -3.27817,-13.64411 -8.68359,-17.951175 -1.92621,-5.160164 -4.08916,-10.736806 -9.4668,-13.224611 -4.25534,-2.010009 -2.73579,-7.983082 -6.67968,-10.607422 -2.11155,-2.813454 -6.49412,-2.609022 -7.28711,-6.429688 -2.03954,-4.41115 -6.51579,-6.61528 -10.98047,-7.392578 -4.03929,-3.35592 -7.28579,-8.113388 -12.91211,-8.939453 -9.41268,-2.393287 -17.22351,-8.43261 -26.83594,-10.300781 C 168.1403,40.29902 160.52681,36.04267 155.70101,29.157248 142.68304,17.114877 139.09246,13.977418 129.91194,10.36508 120.73142,6.7527421 114.06114,9.5215503 112.38742,13.491535 Z"
     id="path4556"
     inkscape:connector-curvature="0"
     sodipodi:nodetypes="zcccccccccccccccccccccccccccccccczz" />
  <path
     style="display:inline;fill:#000000;stroke-width:2.68883371"
     d="m 74.504612,274.95221 c -0.805424,-1.35117 -0.694509,-6.58736 0.246481,-11.63595 1.317336,-7.06776 5.917406,-20.85542 36.452697,-44.77156 17.03142,-15.09761 31.04633,-28.73107 38.79152,-39.77827 8.4351,-12.03123 9.31013,-21.88853 -0.45008,-15.66503 -4.43365,2.59495 -14.90243,3.49535 -20.10259,3.0904 -10.78463,-0.83983 -29.58569,10.49807 -40.093093,16.19939 -3.336072,1.81015 -3.333762,8.91255 -3.109684,11.47932 0.818413,9.37478 -8.154804,14.24671 -17.51949,13.44848 -10.666316,-0.90918 -12.32727,-3.57611 -8.162618,-16.6746 1.932112,-6.0768 5.531567,-11.91069 5.553435,-12.59273 0.02192,-0.68209 -5.823034,4.50437 -11.648177,10.44623 -8.068887,8.23056 -17.000004,5.89252 -21.702872,-7.9723 -2.403369,-7.08552 -2.900163,-14.09233 1.574431,-23.89779 4.642357,-10.1731 27.133788,-34.99251 36.372734,-49.87395 8.257865,-13.301181 12.136311,-20.48921 30.232934,-39.689499 5.5515,-5.890073 7.40171,-9.078721 2.69884,-18.132837 -6.756012,-13.006899 -4.363079,-15.112519 8.28132,-9.704471 17.90947,7.659934 20.04321,4.345569 15.20881,-8.825771 0,0 -4.4111,-7.219937 -2.77519,-8.434121 1.60222,-1.189177 8.77288,2.683623 8.77288,2.683623 4.56974,2.963481 13.9608,10.195894 18.51607,15.247813 7.72179,8.563664 8.03443,8.614576 25.02025,13.374334 11.25589,3.154115 21.02073,11.236217 14.0003,6.89746 -7.58291,-4.686382 4.76714,1.897823 7.49486,2.245132 3.43509,0.437375 7.18797,1.713064 9.04449,6.267989 0.836,2.258742 4.78298,3.385184 7.00712,3.385184 2.22414,0 4.04389,1.848061 4.04389,4.106803 0,2.258742 3.22443,4.593927 5.27549,5.266593 3.14347,1.030924 4.45956,1.760179 4.75052,5.26702 0.41502,5.310957 2.42334,6.368987 5.22156,7.649134 2.85052,1.304073 5.31306,2.343231 5.74092,6.084664 0.22273,6.08489 2.80327,7.21666 5.09309,8.1277 2.53665,1.00923 3.85191,3.83924 3.85191,8.94841 0,5.00069 0.30745,5.75384 3.44551,8.17027 5.16571,2.13357 5.8109,6.41011 4.7515,9.87084 -0.98916,3.23131 -0.28916,7.83794 2.87496,10.51691 4.32332,3.66043 6.08716,6.04474 2.95022,11.62092 -1.64808,5.27036 -2.76422,6.4188 2.57796,12.57951 2.61572,3.87194 5.75866,4.86145 0.12809,12.92037 -3.20788,6.47348 -1.87961,7.04341 4.61319,13.48273 3.49227,5.52608 3.85807,5.43804 -1.63422,11.99704 -4.98018,4.28534 -4.42944,7.19219 0.60432,13.32254 5.36825,4.65524 6.04165,7.37213 0.72462,13.46374 -3.98968,4.5708 -7.18277,8.40091 -1.68856,14.76885 5.89501,6.83248 7.19851,11.64518 1.65985,17.32484 -3.10836,4.49209 -4.68092,4.95714 -8.51105,9.30825 l -88.27597,0.54307 c -54.08393,0.33272 -97.081808,-1.07893 -97.90308,-2.45668 z M 253.8004,228.11437 C 253.62108,163.5494 247.22853,126.71628 215.35886,93.200033 195.63753,72.459784 170.76956,60.730442 158.28999,59.539461 c -4.88075,-0.465792 -6.33314,-6.782899 -11.33438,-12.111599 -10.93425,-11.650187 -10.46353,-10.633239 -10.51826,1.580091 -0.0368,8.194983 -5.9889,6.752398 -10.8618,4.366163 -17.84923,-8.740684 -12.60611,-6.425251 -9.89841,3.771769 0.67487,5.180219 2.50036,7.001869 -7.54673,17.0435 -6.51367,6.510131 -15.359912,17.53733 -18.363564,21.771686 -3.913416,5.516879 -10.818567,17.786629 -16.953089,25.656529 -9.789244,12.55849 -21.22645,25.83441 -27.040576,35.18938 -4.186087,6.38838 -4.763483,8.75867 -4.854386,12.36242 -0.133621,5.29724 3.628495,13.70152 6.907498,14.16186 1.770061,0.2485 4.124538,-4.08087 12.851021,-11.60012 8.246535,-7.10569 15.900973,-11.61229 16.864947,-11.61229 5.160358,0 4.005906,1.25712 -1.921826,14.68679 -7.076492,16.03226 -10.242973,22.7583 -5.639805,22.6791 3.168673,-0.0545 7.228174,-0.88203 6.796503,-8.65402 -0.16921,-3.04652 -0.01998,-8.2186 4.619631,-13.09679 3.804398,-4.00003 12.352961,-7.1988 19.798446,-11.46284 10.73486,-6.14788 17.025,-5.99783 10.36692,-21.45001 -2.93929,-6.82155 -4.03799,-7.99788 -1.68038,-10.94162 1.87162,-2.33692 4.87677,0.66381 7.27283,6.79502 2.39926,5.94436 5.11843,11.10427 8.69249,15.05567 3.04558,3.36711 15.93992,3.29562 34.48816,-5.59449 20.13241,-9.6494 28.49076,-24.06217 31.87789,-34.09558 2.93471,-8.69324 1.37441,-19.205489 3.94089,-19.220025 5.74867,-0.03256 7.50032,17.949555 1.85949,29.574685 -4.55597,9.38935 -12.40118,19.23927 -21.64357,25.31741 -7.08618,4.66014 -6.5145,7.01779 -11.37412,22.60435 -4.28593,13.74652 -17.20419,27.38115 -31.43434,41.14005 -28.2623,23.96226 -45.572186,38.95832 -46.536527,48.56504 -0.375466,3.74038 13.350387,1.41866 72.131517,1.47624 l 94.74655,1.56493 z m -74.2701,-58.29655 c 0.31809,-3.3975 -1.83543,-4.28757 -0.60424,-8.28226 0.97025,-3.14806 7.38438,-5.76061 11.9651,-10.14233 11.38651,-11.52966 14.03921,-20.2337 15.26064,-33.30845 1.75455,-7.62784 3.85954,-12.65356 6.94278,-7.48116 2.85814,4.79477 1.00527,18.60517 -5.30487,31.69151 -2.0519,4.85351 -6.95121,11.70426 -12.26516,15.70272 -8.09438,6.09059 -12.68804,13.64976 6.98377,0.4668 8.86668,-6.54147 12.12193,-10.35099 16.0919,-17.96747 0,0 3.65586,-7.36021 5.85039,-6.92898 2.19453,0.43122 1.26653,7.95111 1.26653,7.95111 -2.94674,11.70038 -8.93109,17.67862 -19.09209,24.58139 -9.36652,6.36305 -27.97966,13.16876 -27.09475,3.71712 z M 54.531916,153.19486 c 0,-2.31225 7.129827,-12.53167 15.844061,-22.70984 8.714234,-10.17817 11.714192,-15.23201 15.844062,-22.03382 0.996563,-1.64134 2.184216,-3.19611 3.636589,-3.19611 5.5707,0 2.907226,6.78132 -13.689947,28.07812 -16.969774,21.7749 -21.634765,27.29795 -21.634765,19.86165 z m 54.799844,-51.91447 c 0.0989,-2.839537 -1.37624,-6.351171 -1.44031,-8.025521 -0.41496,-4.754888 13.44468,-7.181 21.97136,-8.870241 11.0139,-2.18199 14.43728,0.848768 8.93412,3.640785 -7.40791,5.344417 -3.10099,5.933488 -12.51846,13.063987 -6.6882,5.06401 -15.05428,6.66726 -16.94671,0.19099 z"
     id="path853"
     inkscape:connector-curvature="0"
     sodipodi:nodetypes="sscscssssscsssssssssssssscssscsccscsscccccccsccscssssscscssscssssssssssscssssssscscssssccscscczsssssssssccscsc" />
</svg>
