<?xml version="1.0" encoding="UTF-8" standalone="no"?>
<svg
   xmlns:dc="http://purl.org/dc/elements/1.1/"
   xmlns:cc="http://creativecommons.org/ns#"
   xmlns:rdf="http://www.w3.org/1999/02/22-rdf-syntax-ns#"
   xmlns:svg="http://www.w3.org/2000/svg"
   xmlns="http://www.w3.org/2000/svg"
   xmlns:sodipodi="http://sodipodi.sourceforge.net/DTD/sodipodi-0.dtd"
   xmlns:inkscape="http://www.inkscape.org/namespaces/inkscape"
   version="1.0"
   width="300.000000pt"
   height="300.000000pt"
   viewBox="0 0 300.000000 300.000000"
   preserveAspectRatio="xMidYMid meet"
   id="svg2"
   inkscape:version="0.92.5 (2060ec1f9f, 2020-04-08)"
   sodipodi:docname="wq.svg">
  <defs
     id="defs12">
    <filter
       style="color-interpolation-filters:sRGB;"
       inkscape:label="Drawing"
       id="filter18775">
      <feGaussianBlur
         in="SourceGraphic"
         stdDeviation="5.99659"
         result="blur1"
         id="feGaussianBlur18721" />
      <feConvolveMatrix
         in="blur1"
         targetX="1"
         targetY="1"
         order="3 3"
         kernelMatrix="0 250 0 250 -1010 250 0 250 0 "
         result="convolve1"
         id="feConvolveMatrix18723" />
      <feComposite
         in="convolve1"
         in2="convolve1"
         k1="1"
         k2="1"
         k4="0.04"
         operator="arithmetic"
         result="composite1"
         id="feComposite18725" />
      <feColorMatrix
         in="composite1"
         values="0 0 0 0 0 0 0 0 0 0 0 0 0 0 0 -0.2125 -0.7154 -0.0721 1 0 "
         result="color1"
         id="feColorMatrix18727" />
      <feGaussianBlur
         stdDeviation="0.61"
         result="blur2"
         id="feGaussianBlur18729" />
      <feColorMatrix
         values="1 0 0 0 0 0 1 0 0 0 0 0 1 0 0 0 0 0 2.7 -1 "
         result="color2"
         id="feColorMatrix18731" />
      <feFlood
         flood-color="rgb(255,255,255)"
         result="flood1"
         id="feFlood18733" />
      <feBlend
         in2="color2"
         mode="multiply"
         result="blend1"
         id="feBlend18735" />
      <feComponentTransfer
         in="blend1"
         result="component1"
         id="feComponentTransfer18743">
        <feFuncR
           type="discrete"
           tableValues="0 1 1 1"
           id="feFuncR18737" />
        <feFuncG
           type="discrete"
           tableValues="0 1 1 1"
           id="feFuncG18739" />
        <feFuncB
           type="discrete"
           tableValues="0 1 1 1"
           id="feFuncB18741" />
      </feComponentTransfer>
      <feGaussianBlur
         stdDeviation="0.61"
         result="blur3"
         id="feGaussianBlur18745" />
      <feColorMatrix
         in="blur3"
         values="0 0 0 0 0 0 0 0 0 0 0 0 0 0 0 -0.2125 -0.7154 -0.0721 1 0 "
         result="color3"
         id="feColorMatrix18747" />
      <feColorMatrix
         values="1 0 0 0 0 0 1 0 0 0 0 0 1 0 0 0 0 0 1.9 -0.5 "
         result="color4"
         id="feColorMatrix18749" />
      <feFlood
         flood-color="rgb(0,0,0)"
         result="flood2"
         id="feFlood18751" />
      <feComposite
         in="flood2"
         in2="color4"
         operator="in"
         result="composite2"
         id="feComposite18753" />
      <feComposite
         in="composite2"
         in2="composite2"
         operator="arithmetic"
         k2="1"
         result="composite3"
         id="feComposite18755" />
      <feOffset
         dx="0"
         dy="0"
         result="offset1"
         id="feOffset18757" />
      <feFlood
         in="color4"
         flood-color="rgb(66,66,66)"
         result="flood3"
         id="feFlood18759" />
      <feComposite
         in="flood3"
         in2="color4"
         operator="out"
         result="composite4"
         id="feComposite18761" />
      <feComposite
         in="composite4"
         in2="composite4"
         operator="arithmetic"
         k2="1"
         result="composite5"
         id="feComposite18763" />
      <feMerge
         result="merge1"
         id="feMerge18769">
        <feMergeNode
           in="composite5"
           id="feMergeNode18765" />
        <feMergeNode
           in="offset1"
           id="feMergeNode18767" />
      </feMerge>
      <feColorMatrix
         values="1 0 0 0 0 0 1 0 0 0 0 0 1 0 0 0 0 0 1.3 0 "
         result="color5"
         flood-opacity="0.56"
         id="feColorMatrix18771" />
      <feComposite
         in="color5"
         in2="SourceGraphic"
         operator="in"
         result="composite8"
         id="feComposite18773" />
    </filter>
  </defs>
  <sodipodi:namedview
     pagecolor="#ffffff"
     bordercolor="#666666"
     borderopacity="1"
     objecttolerance="10"
     gridtolerance="10"
     guidetolerance="10"
     inkscape:pageopacity="0"
     inkscape:pageshadow="2"
     inkscape:window-width="1379"
     inkscape:window-height="953"
     id="namedview10"
     showgrid="false"
     inkscape:zoom="1.5018171"
     inkscape:cx="-140.25656"
     inkscape:cy="60.167971"
     inkscape:window-x="171"
     inkscape:window-y="26"
     inkscape:window-maximized="0"
     inkscape:current-layer="svg2"
     inkscape:pagecheckerboard="true">
    <inkscape:grid
       type="xygrid"
       id="grid842" />
  </sodipodi:namedview>
  <metadata
     id="metadata4">
Created by potrace 1.12, written by Peter Selinger 2001-2015
<rdf:RDF>
  <cc:Work
     rdf:about="">
    <dc:format>image/svg+xml</dc:format>
    <dc:type
       rdf:resource="http://purl.org/dc/dcmitype/StillImage" />
    <dc:title />
  </cc:Work>
</rdf:RDF>
</metadata>
  <path
     style="display:inline;fill:#e9e6de;fill-opacity:1;stroke-width:2.80216026"
     d="m 148.8125,1.9873091 c -22.01652,-0.00925 -35.30665,31.2218629 -19.56836,46.8417969 5.58437,3.075361 1.01237,8.757224 0.88768,13.18761 -3.04353,16.454323 -4.71219,33.131125 -5.7783,49.820204 -4.9557,-13.169001 -12.28098,-25.936228 -14.8418,-39.623048 2.48285,-9.472997 3.1153,-20.433928 -3.33984,-28.548828 -8.812534,-12.071357 -27.750691,-13.810383 -38.884771,-3.953125 -12.851713,9.945648 -13.204125,31.449853 -0.46875,41.646484 2.831877,2.723873 6.572876,4.483703 9.779297,6.443359 3.435102,10.367735 0.811143,21.554498 3.341797,32.259768 2.078818,7.55301 -1.121148,4.9988 -5.180631,0.72016 C 68.28141,114.53555 60.139754,108.07797 58.664062,98.831058 59.095971,86.972421 53.078157,73.622007 40.787109,70.379887 23.721428,64.329979 1.7609906,78.772547 4.0605469,97.66895 c 0.7134196,13.63703 12.8199501,25.1899 26.2011721,26.37891 4.389005,6.57408 3.186067,15.29802 7.74414,21.88281 4.425806,10.38016 13.135855,19.10486 14.647644,30.45169 -2.060969,11.3049 -1.384059,23.92507 6.242981,33.13815 6.270484,10.587 12.2046,24.37117 5.560547,36.19141 -3.952409,9.66112 -7.612192,23.13077 4.192326,30.41314 15.149811,10.44493 39.316603,14.70538 61.507943,16.31724 29.47744,2.66758 70.125,-0.0564 99.88372,-12.24014 9.65791,-5.54357 11.69458,-22.11324 6.42968,-31.58204 -5.30579,-12.18255 -3.62587,-27.0141 4.97523,-37.28164 6.11259,-9.28837 10.73595,-20.96894 6.88024,-32.03867 -0.78385,-13.67258 11.10401,-23.18225 15.25391,-35.39844 2.98121,-6.24332 3.84211,-13.45561 6.37695,-19.66797 5.49951,-2.99003 12.70829,-2.38436 17.11719,-7.55664 13.04225,-10.954 12.53303,-34.311179 -2.30469,-43.521482 -13.14381,-9.131587 -34.23384,-4.31592 -40.17187,11.154297 -2.92456,6.24302 -1.43054,13.467836 -2.79883,19.849615 -5.25198,8.93724 -14.58678,14.41923 -20.71875,22.69336 0.38837,-4.60521 1.18578,-11.68444 1.68571,-17.10532 1.13049,-6.69641 1.03715,-14.406406 3.91098,-20.403048 9.00047,-6.430615 18.90125,-15.373255 17.92675,-27.53656 0.3888,-18.194614 -19.96558,-34.53858 -37.42969,-27 -15.01796,5.341178 -23.04272,25.340684 -14.47852,39.125 -1.157,8.192 -7.24409,14.63852 -9.17773,22.644531 -2.28135,5.367217 -4.48011,10.767687 -6.64258,16.183597 C 175.4324,92.461483 173.52282,71.998649 168.87305,52.209966 185.76964,38.679198 178.49044,6.514195 156.86523,2.5869185 154.22612,1.9968834 151.50382,1.9608012 148.8125,1.9873091 Z"
     id="path843"
     inkscape:connector-curvature="0"
     sodipodi:nodetypes="cccccccccccccccccccccccccccccccccccccccccc" />
  <path
     sodipodi:nodetypes="zsssssscsssccssssssscscsssscscssccsssssssssccsssczssssscccsccsssczccccccsscczcsscscscssscssscssssccscsszcsssssscssccsscccccc"
     inkscape:connector-curvature="0"
     id="path842"
     d="m 129.30181,282.59877 c -16.93434,-1.16141 -49.85044,-6.86227 -57.186415,-18.58358 -2.015099,-3.21969 1.163255,-7.46658 2.953567,-14.12823 4.150121,-15.44237 4.878954,-21.90584 -7.186304,-45.60635 -4.966824,-9.75663 -7.227668,-9.39825 -4.819626,-24.52031 0.728139,-4.57258 3.724801,-6.90496 -8.544685,-24.87257 C 49.464466,147.48675 45.220285,135.9136 43.401366,130.19175 40.803413,122.01925 42.286847,114.68277 29.16373,113.25896 17.330939,110.59616 15.140169,102.61643 14.732052,97.442566 14.295596,91.909438 16.471745,83.635832 27.106368,80.503101 35.740193,77.959764 49.103999,83.51226 47.793438,97.119166 46.62224,109.27913 50.166823,111.00935 71.09329,132.14092 86.971884,145.1916 94.836808,161.54124 91.877067,141.19477 90.974034,133.384 88.987423,115.90921 88.245517,103.19635 86.783229,78.139415 86.417917,80.159302 78.050918,76.371884 71.383458,73.353783 69.242081,70.422411 68.581087,63.408441 67.093995,47.628606 82.175006,39.20201 94.087448,46.86065 c 4.295742,2.761777 6.884002,10.132891 6.627902,15.987051 -0.47737,10.911662 -7.863929,4.840567 3.65784,29.142851 1.56624,3.303588 7.98782,19.056708 13.80309,34.409438 5.81527,15.35273 9.13027,26.32013 12.80247,25.0268 1.61946,-1.13908 2.63559,-15.26248 3.39878,-28.95526 2.29462,-41.168633 4.70646,-51.382382 6.06435,-56.19539 4.28079,-23.809444 3.48556,-16.222875 -1.67238,-21.863644 -13.52476,-14.790828 -1.40957,-35.9520626 17.47347,-30.709023 5.73563,1.592545 11.48114,8.755648 11.49252,16.009219 0.0142,8.992395 -3.05637,12.386358 -5.55182,14.611358 -4.94388,4.408074 -6.8807,-0.955732 -1.65043,20.734026 1.88133,8.802415 3.41555,13.2997 5.96703,50.183884 1.23988,17.92381 1.50423,34.32323 4.68219,35.39572 1.79292,0.43019 4.85987,-4.96332 7.85199,-13.70646 1.47141,-4.29951 14.14866,-37.744762 22.36302,-54.193134 1.26513,-2.533299 3.21672,-9.835935 1.93587,-11.208026 -4.75546,-7.94553 -4.01726,-13.508082 -2.42244,-17.159779 2.58351,-5.33993 8.50507,-10.239078 15.45544,-10.239078 17.39545,0 22.48368,23.676379 8.81218,31.653494 -11.09415,6.473272 -9.55816,-0.893056 -12.35638,30.062133 -3.6537,40.41887 -4.80911,44.81556 -2.17486,44.81556 1.44927,0 12.16719,-10.63941 22.73725,-21.32813 17.55987,-17.75699 20.77706,-20.50141 19.84966,-29.27239 -1.58653,-15.004746 6.82618,-20.671698 16.35629,-20.532807 10.9146,0.159069 16.63674,7.752567 16.06066,18.542668 -0.38746,7.257279 -5.20544,12.613289 -12.42012,14.303579 -9.07762,2.12675 -12.52083,-0.21858 -17.50358,22.78251 -2.28592,8.41698 -10.80722,21.25437 -13.51424,26.11814 -3.70002,6.64788 -5.70057,13.77085 -4.58559,18.26449 3.06553,12.35486 2.23954,14.13704 -4.45545,25.10091 -10.80636,17.69685 -14.1695,28.68654 -5.35977,52.67736 1.52849,4.16243 2.60298,8.21523 -7.58214,13.70983 -32.88162,14.61846 -73.9941,12.73163 -90.92844,11.57022 z m 50.33341,-10.91959 c 29.76407,-3.94198 37.3185,-9.20214 35.34529,-12.82512 -3.13046,-5.74778 -24.47904,-13.43254 -63.29792,-13.70125 -43.03347,-0.29789 -64.939289,8.45373 -66.691947,14.71444 -2.047814,7.31504 47.518767,18.0533 94.644577,11.81193 z M 123.8197,236.25785 c 18.41264,-1.56212 58.04931,-2.22752 79.78308,4.47624 10.3205,3.50489 10.66599,3.58529 9.43125,-3.40241 -0.11025,-0.94352 -2.03969,-6.1326 -9.12216,-11.44853 -13.26076,-9.9532 -27.96589,-9.96252 -38.84075,-5.98731 -4.21912,1.85537 -8.26047,4.66456 -9.48567,6.89897 -4.25579,9.05324 -7.15057,8.04553 -11.36631,0.20154 -4.76749,-8.87061 -21.56812,-10.20504 -28.19642,-9.07208 -13.719,2.34496 -27.788147,11.75764 -28.570332,19.12953 -0.679717,6.40615 0.501436,6.84399 5.863083,5.14185 3.421135,-1.0861 15.950029,-3.9136 20.369869,-4.55376 4.41983,-0.64016 10.13436,-1.38404 10.13436,-1.38404 z m 15.44998,-32.05799 c 2.25839,-1.99355 4.70782,-4.10009 6.9627,-7.99895 1.50095,-4.85412 4.98091,-8.58245 8.58759,0.72758 6.16888,8.27825 8.3195,14.27702 32.8582,16.45368 11.13431,0.84342 30.13023,1.03965 34.67139,-11.1771 -3.66753,-3.76797 -45.56813,-13.10381 -71.56672,-12.62056 -26.44092,0.0929 -68.656305,8.45211 -72.091281,11.98118 -0.851052,0.87437 1.475742,3.33914 4.23625,6.47302 6.291619,6.1436 37.172911,10.08507 53.860371,-2.07778 0,0 0.22312,0.23252 2.4815,-1.76102 z m -32.92031,-20.28695 c 23.47194,-4.20038 58.11949,-5.31356 84.57198,-0.85595 10.44447,2.10037 24.52357,5.51162 30.52325,7.2534 7.09899,2.46592 6.99631,0.25798 5.53966,-9.24391 -1.14029,-7.43829 -1.27209,-11.46679 8.53843,-27.5516 5.30789,-9.8814 8.6042,-17.06722 7.76165,-17.93285 -0.84256,-0.86564 -7.69211,4.89193 -18.13355,15.24844 -19.16488,19.00898 -24.12062,22.68435 -26.21885,16.16357 -2.55808,-7.94988 2.27932,-42.23689 3.64845,-56.26565 0.73899,-7.572 1.27042,-12.941566 -3.61465,1.29386 -2.24338,6.53735 -6.89075,16.60251 -10.81482,27.38338 -8.71898,23.51567 -14.22104,26.67891 -20.23666,24.5538 -5.64397,-1.99383 -9.9048,-13.53904 -11.39679,-42.58179 -2.00189,-38.967975 -4.54637,-55.220895 -7.96126,-46.078033 -2.15315,8.362324 -2.69887,25.070203 -4.12958,45.692543 -2.84877,41.06263 -6.59191,42.26752 -13.18131,43.58742 -4.40747,0.88284 -10.99036,-5.376 -20.01441,-28.64271 l -13.039458,-33.61963 3.186578,35.83146 c 3.35602,37.73678 1.71358,40.27217 -23.041404,15.61228 -24.345556,-24.25204 -25.970666,-23.04795 -8.240454,6.38701 6.84961,11.37144 5.365117,19.1574 4.044829,24.01129 -1.098035,6.89167 -3.203472,7.69444 10.486714,4.34181 5.915033,-1.62158 12.284542,-2.89933 21.721655,-4.58814 z M 36.681889,94.555486 c -0.920451,-2.464362 -3.578664,-3.665292 -5.907136,-3.665292 -4.462004,0 -6.639663,5.66474 -4.469705,9.208416 2.337821,3.8178 7.379189,2.89779 8.788213,1.67033 1.409023,-1.22748 3.052659,-3.390131 1.588628,-7.213454 z m 238.673501,3.926433 c 0.92213,-4.401421 -1.58958,-7.827394 -5.34021,-7.863516 -4.6242,-0.04453 -9.12516,4.407882 -4.87949,11.052477 2.36865,2.56861 9.09608,2.17414 10.2197,-3.188961 z M 221.0957,64.251904 c 3.14098,-4.216571 0.18026,-9.938977 -5.05352,-9.938977 -3.47156,0 -6.24611,4.463601 -5.67157,7.154149 1.27607,5.975657 7.04742,7.721887 10.72509,2.784828 z M 90.070618,59.54118 c -0.485877,-3.514847 -3.293634,-4.831085 -5.574388,-4.831085 -2.280755,0 -5.054427,2.174387 -5.494238,5.695211 -0.423806,3.392698 2.380291,6.850632 5.638259,6.798016 3.538803,-0.05715 6.110281,-2.743638 5.430367,-7.662142 z M 156.69324,29.639404 c -0.105,-4.47731 -3.73606,-6.427769 -6.38157,-6.427769 -5.77318,0 -8.59204,7.241482 -4.41707,11.531543 4.37891,4.499622 10.33595,0.993475 10.79864,-5.103774 z"
     style="display:inline;fill:#000000;fill-opacity:1;stroke-width:2.80216026" />
</svg>
