<?xml version="1.0" encoding="UTF-8" standalone="no"?>
<svg
   xmlns:dc="http://purl.org/dc/elements/1.1/"
   xmlns:cc="http://creativecommons.org/ns#"
   xmlns:rdf="http://www.w3.org/1999/02/22-rdf-syntax-ns#"
   xmlns:svg="http://www.w3.org/2000/svg"
   xmlns="http://www.w3.org/2000/svg"
   xmlns:sodipodi="http://sodipodi.sourceforge.net/DTD/sodipodi-0.dtd"
   xmlns:inkscape="http://www.inkscape.org/namespaces/inkscape"
   version="1.0"
   width="300.000000pt"
   height="300.000000pt"
   viewBox="0 0 300.000000 300.000000"
   preserveAspectRatio="xMidYMid meet"
   id="svg2"
   inkscape:version="0.92.5 (2060ec1f9f, 2020-04-08)"
   sodipodi:docname="wq.svg">
  <defs
     id="defs12">
    <filter
       style="color-interpolation-filters:sRGB;"
       inkscape:label="Drawing"
       id="filter18775">
      <feGaussianBlur
         in="SourceGraphic"
         stdDeviation="5.99659"
         result="blur1"
         id="feGaussianBlur18721" />
      <feConvolveMatrix
         in="blur1"
         targetX="1"
         targetY="1"
         order="3 3"
         kernelMatrix="0 250 0 250 -1010 250 0 250 0 "
         result="convolve1"
         id="feConvolveMatrix18723" />
      <feComposite
         in="convolve1"
         in2="convolve1"
         k1="1"
         k2="1"
         k4="0.04"
         operator="arithmetic"
         result="composite1"
         id="feComposite18725" />
      <feColorMatrix
         in="composite1"
         values="0 0 0 0 0 0 0 0 0 0 0 0 0 0 0 -0.2125 -0.7154 -0.0721 1 0 "
         result="color1"
         id="feColorMatrix18727" />
      <feGaussianBlur
         stdDeviation="0.61"
         result="blur2"
         id="feGaussianBlur18729" />
      <feColorMatrix
         values="1 0 0 0 0 0 1 0 0 0 0 0 1 0 0 0 0 0 2.7 -1 "
         result="color2"
         id="feColorMatrix18731" />
      <feFlood
         flood-color="rgb(255,255,255)"
         result="flood1"
         id="feFlood18733" />
      <feBlend
         in2="color2"
         mode="multiply"
         result="blend1"
         id="feBlend18735" />
      <feComponentTransfer
         in="blend1"
         result="component1"
         id="feComponentTransfer18743">
        <feFuncR
           type="discrete"
           tableValues="0 1 1 1"
           id="feFuncR18737" />
        <feFuncG
           type="discrete"
           tableValues="0 1 1 1"
           id="feFuncG18739" />
        <feFuncB
           type="discrete"
           tableValues="0 1 1 1"
           id="feFuncB18741" />
      </feComponentTransfer>
      <feGaussianBlur
         stdDeviation="0.61"
         result="blur3"
         id="feGaussianBlur18745" />
      <feColorMatrix
         in="blur3"
         values="0 0 0 0 0 0 0 0 0 0 0 0 0 0 0 -0.2125 -0.7154 -0.0721 1 0 "
         result="color3"
         id="feColorMatrix18747" />
      <feColorMatrix
         values="1 0 0 0 0 0 1 0 0 0 0 0 1 0 0 0 0 0 1.9 -0.5 "
         result="color4"
         id="feColorMatrix18749" />
      <feFlood
         flood-color="rgb(0,0,0)"
         result="flood2"
         id="feFlood18751" />
      <feComposite
         in="flood2"
         in2="color4"
         operator="in"
         result="composite2"
         id="feComposite18753" />
      <feComposite
         in="composite2"
         in2="composite2"
         operator="arithmetic"
         k2="1"
         result="composite3"
         id="feComposite18755" />
      <feOffset
         dx="0"
         dy="0"
         result="offset1"
         id="feOffset18757" />
      <feFlood
         in="color4"
         flood-color="rgb(66,66,66)"
         result="flood3"
         id="feFlood18759" />
      <feComposite
         in="flood3"
         in2="color4"
         operator="out"
         result="composite4"
         id="feComposite18761" />
      <feComposite
         in="composite4"
         in2="composite4"
         operator="arithmetic"
         k2="1"
         result="composite5"
         id="feComposite18763" />
      <feMerge
         result="merge1"
         id="feMerge18769">
        <feMergeNode
           in="composite5"
           id="feMergeNode18765" />
        <feMergeNode
           in="offset1"
           id="feMergeNode18767" />
      </feMerge>
      <feColorMatrix
         values="1 0 0 0 0 0 1 0 0 0 0 0 1 0 0 0 0 0 1.3 0 "
         result="color5"
         flood-opacity="0.56"
         id="feColorMatrix18771" />
      <feComposite
         in="color5"
         in2="SourceGraphic"
         operator="in"
         result="composite8"
         id="feComposite18773" />
    </filter>
  </defs>
  <sodipodi:namedview
     pagecolor="#ffffff"
     bordercolor="#666666"
     borderopacity="1"
     objecttolerance="10"
     gridtolerance="10"
     guidetolerance="10"
     inkscape:pageopacity="0"
     inkscape:pageshadow="2"
     inkscape:window-width="1418"
     inkscape:window-height="894"
     id="namedview10"
     showgrid="false"
     inkscape:zoom="1.061945"
     inkscape:cx="434.8056"
     inkscape:cy="230.84041"
     inkscape:window-x="378"
     inkscape:window-y="79"
     inkscape:window-maximized="0"
     inkscape:current-layer="svg2"
     inkscape:pagecheckerboard="true"
     showguides="false">
    <inkscape:grid
       type="xygrid"
       id="grid842" />
    <sodipodi:guide
       position="46.259456,130.65648"
       orientation="1,0"
       id="guide864"
       inkscape:locked="false" />
  </sodipodi:namedview>
  <metadata
     id="metadata4">
Created by potrace 1.12, written by Peter Selinger 2001-2015
<rdf:RDF>
  <cc:Work
     rdf:about="">
    <dc:format>image/svg+xml</dc:format>
    <dc:type
       rdf:resource="http://purl.org/dc/dcmitype/StillImage" />
    <dc:title />
  </cc:Work>
</rdf:RDF>
</metadata>
  <path
     style="display:inline;fill:#e3dfd3;fill-opacity:1;stroke-width:2.80216026"
     d="m 148.69141,2.3144531 c -22.02012,0.074092 -35.19326,31.4143219 -19.33789,46.9296879 5.45045,3.193373 0.85542,8.605995 0.7549,13.071658 -3.09808,16.639917 -4.63405,33.521165 -5.7842,50.393181 -5.203,-12.949528 -11.23939,-25.43017 -15.19336,-38.808589 3.12986,-9.548276 3.69891,-20.799958 -2.82813,-29.121094 C 98.250658,33.119529 80.235674,29.034119 68.986328,38.544922 54.87351,48.96233 53.273986,74.359537 69.390625,83.683594 c 3.799125,1.609872 9.337475,3.940072 7.543777,9.094984 0.413941,11.537592 1.811987,23.006552 2.95427,34.487042 C 71.980811,119.52152 61.925513,112.11827 58.203331,101.6348 58.585154,90.007656 55.016142,75.972622 43.103516,71.271484 26.464218,63.019317 2.9335736,76.338463 3.9042969,95.578125 3.264323,109.63978 15.113385,123.25281 29.302734,123.69336 c 5.696344,6.21937 3.221163,15.86436 8.271485,22.56445 3.838907,8.40205 9.829204,15.91062 13.460937,24.23047 -6.174735,10.86255 -3.000757,24.27259 3.767578,34.05078 7.181042,11.62722 16.356378,25.37049 11.064454,39.61328 -3.159726,8.40693 -7.767016,19.38084 -0.947266,27.28711 10.251466,12.90612 27.907294,15.28999 42.949218,18.73633 37.12522,6.39132 76.38957,5.33662 111.98828,-7.75976 9.27199,-3.33216 19.5234,-10.19408 19.24805,-21.23633 0.44074,-8.89904 -6.70442,-16.01536 -5.78125,-25.0586 -0.59648,-11.85381 5.7084,-22.24612 12.37109,-31.46289 6.1753,-9.71215 9.9967,-23.03854 3.30274,-33.4414 -0.46653,-3.56502 4.01367,-5.36353 5.04297,-8.62891 7.75037,-11.86091 11.73621,-25.93638 16.82812,-38.7207 6.49291,-2.28213 14.5402,-2.69162 18.64648,-9.16992 12.43053,-13.36949 7.17119,-39.151332 -11.03515,-44.414067 -15.47867,-5.931521 -36.12442,5.695456 -35.73438,23.128906 0.15964,6.146118 0.35525,13.757201 -5.84267,17.219971 -5.22736,5.22687 -10.30827,10.59744 -15.49326,15.86597 1.16971,-12.92723 2.09094,-26.1239 4.23632,-38.771488 10.6929,-4.858955 19.62881,-15.668153 17.95899,-27.982421 -0.96124,-15.958802 -17.42327,-30.388569 -33.5332,-25.539063 -16.59931,3.797678 -26.615,25.311687 -17.35547,39.988281 -1.32877,8.615344 -7.61893,15.423459 -9.6701,23.851947 -2.11684,4.984114 -4.14871,10.003754 -6.16584,15.028914 -1.43248,-20.298366 -3.36841,-40.739075 -8.02148,-60.535158 17.09978,-13.682959 9.4483,-46.319743 -12.60743,-49.7519526 -2.48963,-0.4721244 -5.03431,-0.52813 -7.56054,-0.4726563 z m 2.17578,26.7382809 c 2.31441,3.240843 -3.35663,-0.499582 0,0 z"
     id="path848"
     inkscape:connector-curvature="0"
     sodipodi:nodetypes="ccccccccccccccccccccccccccccccccccccccccccc" />
  <path
     sodipodi:nodetypes="zsssssscsssccssssssscscsssscscssccsssssssssccsssczssssscccsccsssczccccccsscczcsscsscscssscssscssssccsscsszcsssssscssccsscccccc"
     inkscape:connector-curvature="0"
     id="path842"
     d="m 129.30181,282.59877 c -16.93434,-1.16141 -49.85044,-6.86227 -57.186415,-18.58358 -2.015099,-3.21969 1.507013,-7.38358 2.953567,-14.12823 3.151331,-14.69328 6.384252,-25.97762 -7.53943,-44.72354 -6.40584,-8.6244 -14.103457,-19.79844 -6.826079,-30.43884 1.684975,-2.46363 4.391715,-3.50393 -5.655418,-20.18998 -4.194124,-6.9655 -7.837718,-14.46155 -10.852136,-23.98972 -1.985867,-6.27706 -3.409836,-16.83321 -15.208732,-17.72733 -11.832791,-1.33858 -13.846998,-10.20112 -14.255115,-15.374984 -0.436456,-5.533128 1.19204,-14.018633 11.756346,-17.380872 10.487735,-3.33787 22.174194,4.33338 20.863633,17.940286 -1.171198,12.15996 2.285104,13.89018 23.211571,35.02175 15.525468,14.11006 24.273206,28.51751 21.313465,8.17104 C 90.974034,133.384 88.987423,115.90921 88.245517,103.19635 86.783229,78.139415 86.417917,80.159302 78.050918,76.371884 71.383458,73.353783 69.242081,70.422411 68.581087,63.408441 67.093995,47.628606 82.175006,39.20201 94.087448,46.86065 c 4.295742,2.761777 6.884002,10.132891 6.627902,15.987051 -0.47737,10.911662 -7.863929,4.840567 3.65784,29.142851 1.56624,3.303588 7.98782,19.056708 13.80309,34.409438 5.81527,15.35273 9.13027,26.32013 12.80247,25.0268 1.61946,-1.13908 2.63559,-15.26248 3.39878,-28.95526 2.29462,-41.168633 4.70646,-51.382382 6.06435,-56.19539 4.28079,-23.809444 3.48556,-16.222875 -1.67238,-21.863644 -13.52476,-14.790828 -1.40957,-35.9520626 17.47347,-30.709023 5.73563,1.592545 11.48114,8.755648 11.49252,16.009219 0.0142,8.992395 -3.05637,12.386358 -5.55182,14.611358 -4.94388,4.408074 -6.8807,-0.955732 -1.65043,20.734026 1.88133,8.802415 3.41555,13.2997 5.96703,50.183884 1.23988,17.92381 1.50423,34.32323 4.68219,35.39572 1.79292,0.43019 4.85987,-4.96332 7.85199,-13.70646 1.47141,-4.29951 14.14866,-37.744762 22.36302,-54.193134 1.26513,-2.533299 3.21672,-9.835935 1.93587,-11.208026 -4.75546,-7.94553 -4.01726,-13.508082 -2.42244,-17.159779 2.58351,-5.33993 8.50507,-10.239078 15.45544,-10.239078 17.39545,0 22.48368,23.676379 8.81218,31.653494 -11.09415,6.473272 -9.55816,-0.893056 -12.35638,30.062133 -3.6537,40.41887 -4.80911,44.81556 -2.17486,44.81556 1.44927,0 12.16719,-10.63941 22.73725,-21.32813 17.55987,-17.75699 20.77706,-20.50141 19.84966,-29.27239 -1.58653,-15.004746 6.82618,-20.671698 16.35629,-20.532807 10.9146,0.159069 16.63674,7.752567 16.06066,18.542668 -0.38746,7.257279 -5.20544,12.613289 -12.42012,14.303579 -9.07762,2.12675 -12.87396,0.48767 -19.26921,23.13564 -2.28592,8.41698 -9.04159,20.90124 -11.74861,25.76501 -3.70002,6.64788 -6.24541,9.61795 -3.27652,13.31706 7.96776,9.92748 2.6961,20.14385 -5.76452,30.04834 -13.46782,15.76622 -12.42162,29.43563 -5.35977,52.67736 1.28911,4.24268 2.60298,8.21523 -7.58214,13.70983 -32.88162,14.61846 -73.9941,12.73163 -90.92844,11.57022 z m 50.33341,-10.91959 c 29.76407,-3.94198 37.3185,-9.20214 35.34529,-12.82512 -3.13046,-5.74778 -24.47904,-13.43254 -63.29792,-13.70125 -43.03347,-0.29789 -64.939289,8.45373 -66.691947,14.71444 -2.047814,7.31504 47.518767,18.0533 94.644577,11.81193 z M 123.8197,236.25785 c 18.41264,-1.56212 58.04931,-2.22752 79.78308,4.47624 10.3205,3.50489 10.66599,3.58529 9.43125,-3.40241 -0.11025,-0.94352 -2.03969,-6.1326 -9.12216,-11.44853 -13.26076,-9.9532 -27.96589,-9.96252 -38.84075,-5.98731 -4.21912,1.85537 -8.26047,4.66456 -9.48567,6.89897 -4.25579,9.05324 -7.15057,8.04553 -11.36631,0.20154 -4.76749,-8.87061 -21.56812,-10.20504 -28.19642,-9.07208 -13.719,2.34496 -27.788147,11.75764 -28.570332,19.12953 -0.679717,6.40615 0.501436,6.84399 5.863083,5.14185 3.421135,-1.0861 15.950029,-3.9136 20.369869,-4.55376 4.41983,-0.64016 10.13436,-1.38404 10.13436,-1.38404 z m 15.44998,-32.05799 c 2.25839,-1.99355 4.70782,-4.10009 6.9627,-7.99895 1.50095,-4.85412 4.98091,-8.58245 8.58759,0.72758 6.16888,8.27825 8.3195,14.27702 32.8582,16.45368 11.13431,0.84342 30.13023,1.03965 34.67139,-11.1771 -3.66753,-3.76797 -45.56813,-13.10381 -71.56672,-12.62056 -26.44092,0.0929 -68.656305,8.45211 -72.091281,11.98118 -0.851052,0.87437 1.475742,3.33914 4.23625,6.47302 6.291619,6.1436 37.172911,10.08507 53.860371,-2.07778 0,0 0.22312,0.23252 2.4815,-1.76102 z m -32.92031,-20.28695 c 23.47194,-4.20038 58.11949,-5.31356 84.57198,-0.85595 10.44447,2.10037 24.52357,5.51162 30.52325,7.2534 6.10661,1.27 6.86968,2.63628 9.81468,-1.94268 2.49409,-3.87788 1.00716,-6.74019 -1.55344,-10.30647 -4.22622,-5.88608 -3.99367,-8.46155 5.81685,-24.54636 5.30789,-9.8814 8.6042,-17.06722 7.76165,-17.93285 -0.84256,-0.86564 -7.69211,4.89193 -18.13355,15.24844 -19.16488,19.00898 -24.12062,22.68435 -26.21885,16.16357 -2.55808,-7.94988 2.27932,-42.23689 3.64845,-56.26565 0.73899,-7.572 1.27042,-12.941566 -3.61465,1.29386 -2.24338,6.53735 -6.89075,16.60251 -10.81482,27.38338 -8.71898,23.51567 -14.22104,26.67891 -20.23666,24.5538 -5.64397,-1.99383 -9.9048,-13.53904 -11.39679,-42.58179 -2.00189,-38.967975 -4.54637,-55.220895 -7.96126,-46.078033 -2.15315,8.362324 -2.69887,25.070203 -4.12958,45.692543 -2.84877,41.06263 -6.59191,42.26752 -13.18131,43.58742 -4.40747,0.88284 -10.99036,-5.376 -20.01441,-28.64271 l -13.039458,-33.61963 3.186578,35.83146 c 3.35602,37.73678 1.71358,40.27217 -23.041404,15.61228 -24.345556,-24.25204 -28.442545,-26.22608 -9.123268,7.26982 6.84961,11.37144 2.940849,14.90525 0.18339,18.63392 -2.08306,2.81674 -1.830099,6.20782 0.0073,9.20168 2.886391,4.7031 4.083639,2.14302 15.223668,-0.36531 5.915033,-1.62158 12.284542,-2.89933 21.721654,-4.58814 z M 36.681889,94.555486 c -0.920451,-2.464362 -3.578664,-3.665292 -5.907136,-3.665292 -4.462004,0 -6.639663,5.66474 -4.469705,9.208416 2.337821,3.8178 7.379189,2.89779 8.788213,1.67033 1.409023,-1.22748 3.052659,-3.390131 1.588628,-7.213454 z m 238.673501,3.926433 c 0.92213,-4.401421 -1.58958,-7.827394 -5.34021,-7.863516 -4.6242,-0.04453 -9.12516,4.407882 -4.87949,11.052477 2.36865,2.56861 9.09608,2.17414 10.2197,-3.188961 z M 221.0957,64.251904 c 3.14098,-4.216571 0.18026,-9.938977 -5.05352,-9.938977 -3.47156,0 -6.24611,4.463601 -5.67157,7.154149 1.27607,5.975657 7.04742,7.721887 10.72509,2.784828 z M 90.070618,59.54118 c -0.485877,-3.514847 -3.293634,-4.831085 -5.574388,-4.831085 -2.280755,0 -5.054427,2.174387 -5.494238,5.695211 -0.423806,3.392698 2.380291,6.850632 5.638259,6.798016 3.538803,-0.05715 6.110281,-2.743638 5.430367,-7.662142 z M 156.69324,29.639404 c -0.105,-4.47731 -3.73606,-6.427769 -6.38157,-6.427769 -5.77318,0 -8.59204,7.241482 -4.41707,11.531543 4.37891,4.499622 10.33595,0.993475 10.79864,-5.103774 z"
     style="display:inline;fill:#000000;fill-opacity:1;stroke-width:2.80216026" />
</svg>
