<?xml version="1.0" encoding="UTF-8" standalone="no"?>
<svg
   xmlns:dc="http://purl.org/dc/elements/1.1/"
   xmlns:cc="http://creativecommons.org/ns#"
   xmlns:rdf="http://www.w3.org/1999/02/22-rdf-syntax-ns#"
   xmlns:svg="http://www.w3.org/2000/svg"
   xmlns="http://www.w3.org/2000/svg"
   xmlns:xlink="http://www.w3.org/1999/xlink"
   xmlns:sodipodi="http://sodipodi.sourceforge.net/DTD/sodipodi-0.dtd"
   xmlns:inkscape="http://www.inkscape.org/namespaces/inkscape"
   version="1.0"
   width="300.000000pt"
   height="300.000000pt"
   viewBox="0 0 300.000000 300.000000"
   preserveAspectRatio="xMidYMid meet"
   id="svg2"
   inkscape:version="0.92.5 (2060ec1f9f, 2020-04-08)"
   sodipodi:docname="bb.svg">
  <defs
     id="defs12">
    <linearGradient
       inkscape:collect="always"
       id="linearGradient849">
      <stop
         style="stop-color:#fffdf4;stop-opacity:1"
         offset="0"
         id="stop845" />
      <stop
         style="stop-color:#d6d0c2;stop-opacity:1"
         offset="1"
         id="stop847" />
    </linearGradient>
    <filter
       style="color-interpolation-filters:sRGB;"
       inkscape:label="Drawing"
       id="filter18775">
      <feGaussianBlur
         in="SourceGraphic"
         stdDeviation="5.99659"
         result="blur1"
         id="feGaussianBlur18721" />
      <feConvolveMatrix
         in="blur1"
         targetX="1"
         targetY="1"
         order="3 3"
         kernelMatrix="0 250 0 250 -1010 250 0 250 0 "
         result="convolve1"
         id="feConvolveMatrix18723" />
      <feComposite
         in="convolve1"
         in2="convolve1"
         k1="1"
         k2="1"
         k4="0.04"
         operator="arithmetic"
         result="composite1"
         id="feComposite18725" />
      <feColorMatrix
         in="composite1"
         values="0 0 0 0 0 0 0 0 0 0 0 0 0 0 0 -0.2125 -0.7154 -0.0721 1 0 "
         result="color1"
         id="feColorMatrix18727" />
      <feGaussianBlur
         stdDeviation="0.61"
         result="blur2"
         id="feGaussianBlur18729" />
      <feColorMatrix
         values="1 0 0 0 0 0 1 0 0 0 0 0 1 0 0 0 0 0 2.7 -1 "
         result="color2"
         id="feColorMatrix18731" />
      <feFlood
         flood-color="rgb(255,255,255)"
         result="flood1"
         id="feFlood18733" />
      <feBlend
         in2="color2"
         mode="multiply"
         result="blend1"
         id="feBlend18735" />
      <feComponentTransfer
         in="blend1"
         result="component1"
         id="feComponentTransfer18743">
        <feFuncR
           type="discrete"
           tableValues="0 1 1 1"
           id="feFuncR18737" />
        <feFuncG
           type="discrete"
           tableValues="0 1 1 1"
           id="feFuncG18739" />
        <feFuncB
           type="discrete"
           tableValues="0 1 1 1"
           id="feFuncB18741" />
      </feComponentTransfer>
      <feGaussianBlur
         stdDeviation="0.61"
         result="blur3"
         id="feGaussianBlur18745" />
      <feColorMatrix
         in="blur3"
         values="0 0 0 0 0 0 0 0 0 0 0 0 0 0 0 -0.2125 -0.7154 -0.0721 1 0 "
         result="color3"
         id="feColorMatrix18747" />
      <feColorMatrix
         values="1 0 0 0 0 0 1 0 0 0 0 0 1 0 0 0 0 0 1.9 -0.5 "
         result="color4"
         id="feColorMatrix18749" />
      <feFlood
         flood-color="rgb(0,0,0)"
         result="flood2"
         id="feFlood18751" />
      <feComposite
         in="flood2"
         in2="color4"
         operator="in"
         result="composite2"
         id="feComposite18753" />
      <feComposite
         in="composite2"
         in2="composite2"
         operator="arithmetic"
         k2="1"
         result="composite3"
         id="feComposite18755" />
      <feOffset
         dx="0"
         dy="0"
         result="offset1"
         id="feOffset18757" />
      <feFlood
         in="color4"
         flood-color="rgb(66,66,66)"
         result="flood3"
         id="feFlood18759" />
      <feComposite
         in="flood3"
         in2="color4"
         operator="out"
         result="composite4"
         id="feComposite18761" />
      <feComposite
         in="composite4"
         in2="composite4"
         operator="arithmetic"
         k2="1"
         result="composite5"
         id="feComposite18763" />
      <feMerge
         result="merge1"
         id="feMerge18769">
        <feMergeNode
           in="composite5"
           id="feMergeNode18765" />
        <feMergeNode
           in="offset1"
           id="feMergeNode18767" />
      </feMerge>
      <feColorMatrix
         values="1 0 0 0 0 0 1 0 0 0 0 0 1 0 0 0 0 0 1.3 0 "
         result="color5"
         flood-opacity="0.56"
         id="feColorMatrix18771" />
      <feComposite
         in="color5"
         in2="SourceGraphic"
         operator="in"
         result="composite8"
         id="feComposite18773" />
    </filter>
    <linearGradient
       inkscape:collect="always"
       xlink:href="#linearGradient849"
       id="linearGradient851"
       x1="7.5735941"
       y1="152.83206"
       x2="289.2869"
       y2="152.83206"
       gradientUnits="userSpaceOnUse" />
  </defs>
  <sodipodi:namedview
     pagecolor="#ffffff"
     bordercolor="#666666"
     borderopacity="1"
     objecttolerance="10"
     gridtolerance="10"
     guidetolerance="10"
     inkscape:pageopacity="0"
     inkscape:pageshadow="2"
     inkscape:window-width="1333"
     inkscape:window-height="1002"
     id="namedview10"
     showgrid="false"
     inkscape:zoom="1.5400769"
     inkscape:cx="225.21641"
     inkscape:cy="219.50952"
     inkscape:window-x="47"
     inkscape:window-y="16"
     inkscape:window-maximized="0"
     inkscape:current-layer="svg2"
     inkscape:pagecheckerboard="true"
     inkscape:measure-start="0,0"
     inkscape:measure-end="0,0">
    <inkscape:grid
       type="xygrid"
       id="grid22745" />
  </sodipodi:namedview>
  <metadata
     id="metadata4">
Created by potrace 1.12, written by Peter Selinger 2001-2015
<rdf:RDF>
  <cc:Work
     rdf:about="">
    <dc:format>image/svg+xml</dc:format>
    <dc:type
       rdf:resource="http://purl.org/dc/dcmitype/StillImage" />
    <dc:title />
  </cc:Work>
</rdf:RDF>
</metadata>
  <path
     sodipodi:nodetypes="cssscsscsssssssscsssssssscssscscscscsccsscsc"
     inkscape:connector-curvature="0"
     id="path844"
     d="m 11.73845,288.56037 c -5.8454356,-5.6735 -5.8544007,-15.16677 1.998076,-16.47922 3.473114,-0.58051 12.602883,-5.51659 19.986914,-9.21351 15.609506,-7.81516 23.831308,-8.27395 54.929032,-3.0652 20.211878,3.3854 23.760548,3.74012 33.490248,0.1336 7.43794,-2.75702 8.27714,-5.68704 8.45092,-8.35673 0.25177,-3.86748 -5.06789,-4.18332 -12.47113,-5.8091 -15.03532,-3.30179 -24.683375,-9.38998 -26.594892,-16.78207 -0.817415,-3.16103 0.429901,-12.62093 2.108594,-19.41268 3.968001,-16.05397 1.365793,-28.1029 -7.735643,-45.36269 -12.484666,-23.67568 -12.273512,-55.57627 0.531486,-80.295167 4.73621,-9.142831 20.238045,-26.824598 41.323605,-42.337506 7.77488,-5.720081 9.69804,-7.6467 7.5684,-10.305264 -4.23776,-5.290279 -2.84347,-11.299962 1.37064,-15.017709 3.3376,-2.944475 8.61014,-3.184183 12.09335,-1.667028 4.60911,2.007555 7.45391,7.7926 5.83186,12.124924 -2.15774,5.763073 -4.89109,6.281141 2.05662,11.509328 5.44817,4.049943 5.91242,1.272654 9.70004,-2.523582 3.48272,-3.490636 2.18343,-5.436208 0.52165,-9.177756 -2.67546,-6.023823 2.77441,-12.935591 10.4885,-12.867656 8.32801,0.07334 13.65036,8.541631 9.89854,15.635631 -2.54499,4.812115 0.0658,5.487555 3.11533,8.169299 13.14908,11.563195 21.06027,20.674567 27.55491,41.194416 4.00511,12.654162 8.0744,36.32476 -1.90765,56.54119 -10.23077,20.72014 -17.99551,44.69732 -17.99551,55.56938 0,4.5302 1.21962,12.08277 3.37346,18.7146 2.15386,6.63184 3.76878,16.11927 2.92547,19.15201 -2.1009,7.55538 -11.98904,13.96168 -26.41836,17.11585 -7.93219,1.73395 -12.24034,1.94358 -12.17355,6.47545 0.0311,2.1066 3.36715,5.25322 9.15409,7.99687 6.91878,2.98166 10.13797,3.19508 31.76969,-0.3521 32.02792,-5.25192 39.85103,-4.829 55.48757,2.99969 7.38404,3.69692 15.61074,8.40162 19.98692,9.21351 7.82635,1.45197 9.47142,10.80572 3.62598,16.47922 -5.06963,4.92055 -12.5526,4.57658 -22.53347,-1.03573 -21.09537,-11.86208 -23.02432,-12.22932 -43.35402,-8.25343 -10.30742,2.0158 -24.857,4.48503 -34.15496,4.58679 -12.03248,0.13167 -19.28792,-1.60527 -27.68941,-8.06364 l -9.29072,-7.14197 -9.29071,7.14197 c -8.4015,6.45838 -16.7422,8.19531 -27.4181,8.19531 -9.29855,0 -24.118864,-2.70266 -34.426283,-4.71846 -20.329686,-3.97589 -22.258641,-3.60865 -43.354018,8.25343 -9.980867,5.61231 -17.463829,5.95628 -22.533469,1.03573 z"
     style="display:inline;fill:url(#linearGradient851);fill-opacity:1;stroke-width:2.35061598" />
  <path
     style="display:inline;fill:#000000;stroke-width:2.35061598"
     d="m 11.73845,288.56037 c -5.8454356,-5.6735 -5.8544007,-15.16677 1.998076,-16.47922 3.473114,-0.58051 12.602883,-5.51659 19.986914,-9.21351 15.609506,-7.81516 23.831308,-8.27395 54.929032,-3.0652 20.211878,3.3854 23.760548,3.74012 33.490248,0.1336 7.43794,-2.75702 8.27714,-5.68704 8.45092,-8.35673 0.25177,-3.86748 -5.06789,-4.18332 -12.47113,-5.8091 -15.03532,-3.30179 -24.683375,-9.38998 -26.594892,-16.78207 -0.817415,-3.16103 0.429901,-12.62093 2.108594,-19.41268 3.968001,-16.05397 1.365793,-28.1029 -7.735643,-45.36269 -12.484666,-23.67568 -12.273512,-55.57627 0.531486,-80.295167 4.73621,-9.142831 20.238045,-26.824598 41.323605,-42.337506 7.77488,-5.720081 9.69804,-7.6467 7.5684,-10.305264 -4.23776,-5.290279 -2.84347,-11.299962 1.37064,-15.017709 3.3376,-2.944475 8.61014,-3.184183 12.09335,-1.667028 4.60911,2.007555 7.45391,7.7926 5.83186,12.124924 -2.15774,5.763073 -4.89109,6.281141 2.05662,11.509328 5.44817,4.049943 5.91242,1.272654 9.70004,-2.523582 3.48272,-3.490636 2.18343,-5.436208 0.52165,-9.177756 -2.67546,-6.023823 2.77441,-12.935591 10.4885,-12.867656 8.32801,0.07334 13.65036,8.541631 9.89854,15.635631 -2.54499,4.812115 0.0658,5.487555 3.11533,8.169299 13.14908,11.563195 21.06027,20.674567 27.55491,41.194416 4.00511,12.654162 8.0744,36.32476 -1.90765,56.54119 -10.23077,20.72014 -17.99551,44.69732 -17.99551,55.56938 0,4.5302 1.21962,12.08277 3.37346,18.7146 2.15386,6.63184 3.76878,16.11927 2.92547,19.15201 -2.1009,7.55538 -11.98904,13.96168 -26.41836,17.11585 -7.93219,1.73395 -12.24034,1.94358 -12.17355,6.47545 0.0311,2.1066 3.36715,5.25322 9.15409,7.99687 6.91878,2.98166 10.13797,3.19508 31.76969,-0.3521 32.02792,-5.25192 39.85103,-4.829 55.48757,2.99969 7.38404,3.69692 15.61074,8.40162 19.98692,9.21351 7.82635,1.45197 9.47142,10.80572 3.62598,16.47922 -5.06963,4.92055 -12.5526,4.57658 -22.53347,-1.03573 -21.09537,-11.86208 -23.02432,-12.22932 -43.35402,-8.25343 -10.30742,2.0158 -24.857,4.48503 -34.15496,4.58679 -12.03248,0.13167 -19.28792,-1.60527 -27.68941,-8.06364 l -9.29072,-7.14197 -9.29071,7.14197 c -8.4015,6.45838 -16.7422,8.19531 -27.4181,8.19531 -9.29855,0 -24.118864,-2.70266 -34.426283,-4.71846 -20.329686,-3.97589 -22.258641,-3.60865 -43.354018,8.25343 -9.980867,5.61231 -17.463829,5.95628 -22.533469,1.03573 z m 178.40104,-66.35542 c 0.27132,-5.10831 -6.48205,-7.70809 -27.22787,-9.43927 -13.50594,-1.12704 -28.61173,-0.0493 -39.20178,1.48416 -18.82078,2.72537 -19.13776,3.8046 -19.03783,9.26851 0.17767,2.20418 0.0541,3.91704 15.26876,1.62354 7.3313,-1.10515 16.47185,-2.7233 27.18105,-2.80673 11.97473,-0.0933 18.99763,1.11621 26.81058,2.16295 14.9063,1.99702 16.06458,2.36656 16.20709,-2.29316 z m -8.08164,-22.36675 c 0.12536,-4.90792 -3.49572,-7.04709 -7.40644,-6.40589 -5.9404,0.97403 -7.24571,8.50295 -2.80742,11.10862 4.47347,2.62631 10.09378,-6.2e-4 10.21386,-4.70273 z m -53.70782,-0.025 c 0,-5.94694 -7.22588,-8.95668 -11.88264,-4.43688 -4.01023,3.89229 -0.63026,11.3475 5.35244,10.52293 3.51971,-0.4851 6.5302,-2.7038 6.5302,-6.08605 z m 26.31771,-5.90562 c -2.71579,-5.58441 -10.52791,-4.29081 -12.39284,-0.42506 -2.69884,5.30706 1.30503,10.14506 5.97189,10.05194 5.02474,0.45729 8.66942,-5.14987 6.42095,-9.62688 z m -6.61296,-11.89407 c 10.49825,0 24.5416,1.72866 30.41864,2.36551 10.87768,1.58716 11.27676,0.39112 11.89036,-2.62595 1.14794,-5.64459 -3.04706,-6.39597 -29.58907,-8.77571 -8.49697,-0.76182 -20.2665,-0.45096 -29.71319,0.65994 -25.14096,2.95644 -26.98272,4.63127 -26.47551,9.49281 0.41726,3.99956 1.99433,4.50618 14.07259,2.05247 8.79378,-1.78647 18.89794,-3.16907 29.39618,-3.16907 z m 5.16784,-50.3413 0.41807,-20.1315 11.00814,-0.29512 c 10.2328,-0.1558 11.53025,1.24775 11.47433,-7.39385 -0.0537,-8.297372 -0.041,-8.013357 -10.73685,-7.941807 l -11.74562,0.07857 -0.46877,-13.476316 c -0.4646,-13.357393 1.53156,-14.439389 -8.25003,-14.445913 -8.92794,-0.0059 -6.43977,3.649463 -7.00352,14.058177 l -0.0299,13.600706 -12.15264,0.184753 c -11.30638,0.171882 -10.80346,0.08737 -10.73684,7.94181 0.0746,8.79115 1.24152,7.23807 11.47432,7.39385 l 11.27949,0.16344 0.14673,20.26318 c 0.45972,18.90459 -1.40982,20.24557 7.6615,20.26316 9.45708,-0.19502 7.91378,-1.13599 7.66155,-20.26319 z m 59.72108,-26.7584 c 0.44711,-2.96563 -1.3308,-14.547072 -3.20976,-20.18837 -3.31676,-9.958135 -6.81157,-18.180215 -12.2804,-25.319006 -4.15672,-5.426031 -11.84417,-16.461573 -19.79171,-16.313199 -7.13949,4.1963 -5.22873,7.380929 1.64871,12.691817 10.90499,8.421043 22.10197,29.76814 26.00198,43.479852 2.74312,9.644256 5.41109,20.374406 7.63118,5.648906 z"
     id="path843"
     inkscape:connector-curvature="0"
     sodipodi:nodetypes="cssscsscsssssssscsssssssscssscscscscsccsscsccsscssscssssscssccscsccssssssscsscssscsssccccscsscssc"
     sodipodi:insensitive="true" />
</svg>
