<?xml version="1.0" encoding="UTF-8" standalone="no"?>
<svg
   xmlns:dc="http://purl.org/dc/elements/1.1/"
   xmlns:cc="http://creativecommons.org/ns#"
   xmlns:rdf="http://www.w3.org/1999/02/22-rdf-syntax-ns#"
   xmlns:svg="http://www.w3.org/2000/svg"
   xmlns="http://www.w3.org/2000/svg"
   xmlns:xlink="http://www.w3.org/1999/xlink"
   xmlns:sodipodi="http://sodipodi.sourceforge.net/DTD/sodipodi-0.dtd"
   xmlns:inkscape="http://www.inkscape.org/namespaces/inkscape"
   version="1.0"
   width="300.000000pt"
   height="300.000000pt"
   viewBox="0 0 300.000000 300.000000"
   preserveAspectRatio="xMidYMid meet"
   id="svg2"
   inkscape:version="0.92.5 (2060ec1f9f, 2020-04-08)"
   sodipodi:docname="bn.svg">
  <defs
     id="defs12">
    <linearGradient
       inkscape:collect="always"
       id="linearGradient850">
      <stop
         style="stop-color:#fffdf4;stop-opacity:1"
         offset="0"
         id="stop846" />
      <stop
         style="stop-color:#d6d0c2;stop-opacity:1"
         offset="1"
         id="stop848" />
    </linearGradient>
    <filter
       style="color-interpolation-filters:sRGB;"
       inkscape:label="Drawing"
       id="filter18775">
      <feGaussianBlur
         in="SourceGraphic"
         stdDeviation="5.99659"
         result="blur1"
         id="feGaussianBlur18721" />
      <feConvolveMatrix
         in="blur1"
         targetX="1"
         targetY="1"
         order="3 3"
         kernelMatrix="0 250 0 250 -1010 250 0 250 0 "
         result="convolve1"
         id="feConvolveMatrix18723" />
      <feComposite
         in="convolve1"
         in2="convolve1"
         k1="1"
         k2="1"
         k4="0.04"
         operator="arithmetic"
         result="composite1"
         id="feComposite18725" />
      <feColorMatrix
         in="composite1"
         values="0 0 0 0 0 0 0 0 0 0 0 0 0 0 0 -0.2125 -0.7154 -0.0721 1 0 "
         result="color1"
         id="feColorMatrix18727" />
      <feGaussianBlur
         stdDeviation="0.61"
         result="blur2"
         id="feGaussianBlur18729" />
      <feColorMatrix
         values="1 0 0 0 0 0 1 0 0 0 0 0 1 0 0 0 0 0 2.7 -1 "
         result="color2"
         id="feColorMatrix18731" />
      <feFlood
         flood-color="rgb(255,255,255)"
         result="flood1"
         id="feFlood18733" />
      <feBlend
         in2="color2"
         mode="multiply"
         result="blend1"
         id="feBlend18735" />
      <feComponentTransfer
         in="blend1"
         result="component1"
         id="feComponentTransfer18743">
        <feFuncR
           type="discrete"
           tableValues="0 1 1 1"
           id="feFuncR18737" />
        <feFuncG
           type="discrete"
           tableValues="0 1 1 1"
           id="feFuncG18739" />
        <feFuncB
           type="discrete"
           tableValues="0 1 1 1"
           id="feFuncB18741" />
      </feComponentTransfer>
      <feGaussianBlur
         stdDeviation="0.61"
         result="blur3"
         id="feGaussianBlur18745" />
      <feColorMatrix
         in="blur3"
         values="0 0 0 0 0 0 0 0 0 0 0 0 0 0 0 -0.2125 -0.7154 -0.0721 1 0 "
         result="color3"
         id="feColorMatrix18747" />
      <feColorMatrix
         values="1 0 0 0 0 0 1 0 0 0 0 0 1 0 0 0 0 0 1.9 -0.5 "
         result="color4"
         id="feColorMatrix18749" />
      <feFlood
         flood-color="rgb(0,0,0)"
         result="flood2"
         id="feFlood18751" />
      <feComposite
         in="flood2"
         in2="color4"
         operator="in"
         result="composite2"
         id="feComposite18753" />
      <feComposite
         in="composite2"
         in2="composite2"
         operator="arithmetic"
         k2="1"
         result="composite3"
         id="feComposite18755" />
      <feOffset
         dx="0"
         dy="0"
         result="offset1"
         id="feOffset18757" />
      <feFlood
         in="color4"
         flood-color="rgb(66,66,66)"
         result="flood3"
         id="feFlood18759" />
      <feComposite
         in="flood3"
         in2="color4"
         operator="out"
         result="composite4"
         id="feComposite18761" />
      <feComposite
         in="composite4"
         in2="composite4"
         operator="arithmetic"
         k2="1"
         result="composite5"
         id="feComposite18763" />
      <feMerge
         result="merge1"
         id="feMerge18769">
        <feMergeNode
           in="composite5"
           id="feMergeNode18765" />
        <feMergeNode
           in="offset1"
           id="feMergeNode18767" />
      </feMerge>
      <feColorMatrix
         values="1 0 0 0 0 0 1 0 0 0 0 0 1 0 0 0 0 0 1.3 0 "
         result="color5"
         flood-opacity="0.56"
         id="feColorMatrix18771" />
      <feComposite
         in="color5"
         in2="SourceGraphic"
         operator="in"
         result="composite8"
         id="feComposite18773" />
    </filter>
    <linearGradient
       inkscape:collect="always"
       xlink:href="#linearGradient850"
       id="linearGradient852"
       x1="26.671909"
       y1="199.46006"
       x2="373.0162"
       y2="199.46006"
       gradientUnits="userSpaceOnUse" />
  </defs>
  <sodipodi:namedview
     pagecolor="#ffffff"
     bordercolor="#666666"
     borderopacity="1"
     objecttolerance="10"
     gridtolerance="10"
     guidetolerance="10"
     inkscape:pageopacity="0"
     inkscape:pageshadow="2"
     inkscape:window-width="1619"
     inkscape:window-height="1002"
     id="namedview10"
     showgrid="false"
     inkscape:zoom="0.82158249"
     inkscape:cx="277.68704"
     inkscape:cy="147.36486"
     inkscape:window-x="47"
     inkscape:window-y="16"
     inkscape:window-maximized="0"
     inkscape:current-layer="svg2"
     inkscape:pagecheckerboard="true">
    <inkscape:grid
       type="xygrid"
       id="grid22745" />
  </sodipodi:namedview>
  <metadata
     id="metadata4">
Created by potrace 1.12, written by Peter Selinger 2001-2015
<rdf:RDF>
  <cc:Work
     rdf:about="">
    <dc:format>image/svg+xml</dc:format>
    <dc:type
       rdf:resource="http://purl.org/dc/dcmitype/StillImage" />
    <dc:title />
  </cc:Work>
</rdf:RDF>
</metadata>
  <path
     style="display:inline;fill:url(#linearGradient852);fill-opacity:1;stroke-width:2.97464347"
     d="m 119.73047,20.634766 c -4.92255,-0.28458 -6.36754,8.17256 -5.79688,27.105468 0.56785,18.839448 0.0124,20.760481 -8.5957,29.757813 -5.06106,5.289928 -15.976024,17.961196 -24.255859,28.160153 -8.27983,10.19897 -14.66634,17.42514 -20.523437,20.2793 -6.264695,3.05278 -7.1343,14.41223 -1.00586,25.13281 9.539094,16.6869 4.432019,37.073 -19.134765,63.53516 -16.638891,18.68311 -18.74286,26.97026 -3.175781,45.49805 10.764968,12.81236 8.923828,18.47362 8.923828,21.72851 0,7.75224 14.198668,14.99609 29.396484,14.99609 9.677865,10e-6 12.969242,-1.58103 17.996094,-8.64062 3.383514,-4.75169 6.961616,-10.23182 6.193359,-17.10352 -1.39528,-9.54506 4.602197,-13.63778 15.119137,-25.56836 12.56972,-14.25925 12.58346,-16.12085 24.80274,-17.10546 18.05096,-1.45452 16.41682,-4.39568 30.00781,-13.32227 l 20.2832,-13.32227 4.49805,6.41993 c 2.47356,3.53148 5.0302,13.20878 5.68164,21.5039 1.85583,23.6312 -6.87252,39.00391 -44.71094,78.75782 -18.05356,18.96752 -34.6817,38.91653 -36.95117,44.33007 -3.85465,9.19484 -3.67637,10.21735 2.68164,15.51954 6.27031,5.09921 19.57481,8.74639 32.08985,9.91796 3.09846,0.36564 10.95036,-0.63962 16.35937,-1.41992 6.54421,-1.153 17.25462,-2.9277 23.79883,-3.94336 14.96135,-2.32208 29.37113,-6.06115 59.42187,-15.41992 28.26363,-8.80217 60.50837,-9.86809 84.84766,-2.80664 8.99829,2.6106 20.76943,5.58255 26.1582,6.60547 11.01143,2.74689 9.19577,-1.70951 8.85938,-24.88867 -0.46481,-21.80435 -0.8276,-31.66523 -3.22266,-39.44727 -5.04133,-16.38037 1.71484,-35.54112 -9.13867,-55.94336 -9.93585,-18.67724 -1.107,-35.73395 -18.71094,-55.50586 -10.82596,-12.15918 -8.83486,-33.17633 -26.33398,-46.81445 -21.62577,-16.85429 -5.17312,-22.57579 -24.02735,-35.90234 -18.85423,-13.326563 -14.193,-16.222872 -22.40039,-23.673832 -9.27118,-9.547991 -25.37263,-16.718535 -32.28125,-17.22461 -5.80073,-0.42492 -5.74,2.775164 -10.05078,6.166016 -4.31077,3.390853 -8.68215,5.175862 -8.89453,3.830078 -1.44362,-1.345785 -0.0995,-9.679056 -0.0723,-21.615234 -0.19666,-10.481097 1.94317,-19.422404 -2.66797,-21.013672 -4.72306,-1.143551 -11.29237,8.88617 -20.35742,19.951172 -4.02642,4.914743 -7.38556,9.280891 -10.16993,13.265624 -2.78691,-1.988507 -8.53863,-0.483279 -14.64483,-3.851297 -20.16483,13.733016 -16.49142,6.909603 -39.1872,-30.535421 -4.69663,-4.696631 -8.23011,-7.243513 -10.80859,-7.392578 z"
     transform="scale(0.75)"
     id="path844"
     inkscape:connector-curvature="0"
     sodipodi:nodetypes="cssssssssccccscccsscccccccccsscsscsccccscccsc" />
  <path
     style="display:inline;fill:#000000;stroke-width:2.23098254"
     d="m 114.94023,283.6616 c -9.38628,-0.87868 -19.365182,-3.61516 -24.067912,-7.43957 -4.768509,-3.97664 -4.900824,-4.74289 -2.009838,-11.63902 1.702098,-4.06016 14.17307,-19.02126 27.71324,-33.2469 28.37881,-29.81543 34.92437,-41.34578 33.5325,-59.06918 -0.48858,-6.22134 -2.40618,-13.47858 -4.26135,-16.12719 l -3.37301,-4.81566 -15.21309,9.99199 c -10.19324,6.69494 -8.96771,8.9011 -22.50593,9.99199 -9.164455,0.73846 -9.173723,2.13371 -18.601011,12.82815 -7.887705,8.94793 -12.386185,12.01791 -11.339725,19.17671 0.57619,5.15377 -2.107803,9.26437 -4.645439,12.82814 -3.770139,5.29469 -6.238286,6.4796 -13.496685,6.4796 -11.398362,0 -22.047118,-5.43181 -22.047118,-11.24599 0,-2.44117 1.380778,-6.68845 -6.692948,-16.29772 -11.675309,-13.89584 -10.096943,-20.1108 2.382225,-34.12313 17.675088,-19.84662 21.504463,-35.13613 14.350143,-47.6513 -4.59633,-8.04044 -3.943393,-16.559396 0.755128,-18.848979 4.392823,-2.140619 9.182405,-7.560252 15.392278,-15.209474 6.209876,-7.64922 14.39633,-17.153769 18.192125,-21.121215 6.456045,-6.747999 6.872063,-8.18833 6.446175,-22.317916 -0.65219,-21.637609 2.206458,-25.031165 12.45365,-14.783971 6.906532,6.906541 10.129232,17.449485 2.233012,26.615685 -3.27751,3.804628 -3.984687,6.09058 -1.96277,7.153921 2.67044,1.404397 4.13727,-0.60942 7.15818,-3.705896 8.16293,-8.36713 20.15702,-12.042481 23.09228,-10.228398 4.46546,2.75981 2.30991,8.485247 -6.79115,12.477775 -9.73946,4.272583 -14.35752,11.076657 -5.46234,12.355229 4.28293,1.554655 2.99471,6.513752 2.05372,7.738419 -3.37483,3.49738 -1.18897,5.027053 4.1026,5.222887 6.0301,0.223165 7.1503,-5.722632 7.24434,-9.757559 0.2164,-9.285036 4.39427,-17.45674 16.33442,-32.031172 6.79879,-8.298751 11.72626,-15.821644 15.26855,-14.963981 3.45836,1.193451 1.85256,7.899393 2.00005,15.760215 -0.0204,8.952134 -1.02862,15.202176 0.0541,16.211515 0.15928,1.009338 3.4385,-0.329536 6.67158,-2.872676 3.23308,-2.543139 3.18759,-4.942579 7.53814,-4.623889 5.18146,0.379556 17.25703,5.757204 24.21042,12.918197 6.15554,5.58822 2.66028,7.759574 16.80096,17.754493 14.14067,9.994919 1.80057,14.286264 18.0199,26.92698 13.12434,10.22859 11.63067,25.99245 19.75014,35.11184 13.20295,14.82893 6.58134,27.62098 14.03323,41.62891 8.14013,15.30168 3.07305,29.67235 6.85405,41.95763 1.79629,5.83653 2.06885,13.23184 2.41746,29.5851 0.25229,17.38437 1.614,20.72689 -6.64457,18.66672 -4.04158,-0.76719 -12.87003,-2.99688 -19.61875,-4.95483 -18.25447,-5.29609 -42.43775,-4.49579 -63.63547,2.10584 -22.53806,7.01908 -33.34617,9.82382 -44.56718,11.56538 -4.90816,0.76174 -12.9397,2.09254 -17.84786,2.95729 -4.05676,0.58522 -9.9466,1.33924 -12.27045,1.06501 z m 147.24486,-37.66941 c 0,-0.6431 -3.56006,-6.34466 -7.91123,-12.67015 -11.65452,-16.9427 -12.01215,-23.98885 6.23798,-18.53096 9.60938,2.87379 7.92657,-2.90152 -2.71542,-13.29315 -9.82986,-9.59862 -16.69944,-22.11087 -14.82348,-26.99954 0.68903,-1.79559 4.18085,-3.19033 7.98722,-3.19033 9.95634,0 8.19409,-4.17387 -6.90416,-16.3522 -13.8529,-11.17386 -15.08788,-14.46693 -6.82515,-18.1993 9.21681,-4.16335 6.68215,-7.79733 -12.97247,-18.59881 -13.18155,-7.24409 -17.27407,-13.09946 -8.99925,-15.07554 11.221,-2.67963 3.67297,-7.705587 -15.71685,-13.463745 -6.03879,-1.793327 -10.1486,-4.035218 -10.74219,-6.789144 -0.55097,-2.556199 -1.39219,-6.028879 7.77738,-6.859913 1.13474,-0.102844 3.14009,-1.52636 3.14009,-2.666406 0,-1.140045 -5.77266,-3.19239 -12.82814,-4.560766 -7.05548,-1.368376 -14.83604,-3.295182 -17.29011,-4.281791 -5.15177,-2.07115 -10.03942,-0.895879 -10.03942,2.41405 0,1.25497 -3.01183,6.084505 -6.69295,10.7323 -7.77244,9.813493 -8.16789,12.643947 -2.14022,15.869861 7.70207,4.122015 8.95983,2.39415 7.92284,-3.29049 -1.12319,-6.15709 -1.72785,-9.509413 3.64875,-11.545431 6.04188,-2.287949 12.72419,1.277667 19.9445,9.293675 3.08066,3.420155 8.81293,10.441479 12.47723,14.85675 3.49886,4.21592 9.98249,12.15799 13.29422,18.69846 5.19115,8.42314 10.48869,18.6105 12.83141,24.71989 2.20272,7.05549 5.28807,16.34195 6.8563,20.63659 4.81696,13.19123 8.34823,46.23805 6.71353,62.82757 l -1.27691,16.26998 7.52046,-2.21362 c 5.57656,-1.39757 9.58956,-0.40149 11.86042,0.91885 4.36322,2.53685 9.66562,3.27376 9.66562,1.34331 z M 63.627635,189.71894 c 0,-3.85554 -1.109422,-5.3195 -3.827532,-4.61503 -6.577034,1.70457 -11.038919,10.81498 -9.113754,15.83187 1.437399,3.74579 2.411442,3.90168 7.422052,-0.67964 3.073845,-2.81048 5.519234,-7.59351 5.519234,-10.5372 z M 164.01056,125.68522 c -0.74231,-9.27479 -5.65829,-6.27034 -11.86646,5.9999 -7.97549,15.76327 -6.88707,15.78018 3.50027,6.91497 6.25056,-5.33463 8.67351,-9.07495 8.36619,-12.91487 z m -58.41132,-1.70772 c 0.5664,-4.91235 -0.38154,-6.32844 -5.01472,-7.4913 -7.678836,-1.92727 -12.416078,0.19387 -12.416078,5.55937 0,5.17482 5.088047,8.69347 11.439374,7.93122 3.022914,-0.3628 5.518244,-1.8955 5.991424,-5.99929 z m 16.77431,-12.9402 c -2.18561,-3.69997 -6.00715,-9.19994 -8.49231,-12.222185 -4.48324,-5.452153 -4.60106,-5.467214 -15.946663,-1.457404 -13.229398,4.675589 -16.355625,11.201129 -1.281231,8.479929 7.148674,-1.29047 9.369154,-0.67766 16.055904,5.05325 10.49281,8.99291 15.52337,12.14682 9.6643,0.14641 z"
     id="path843"
     inkscape:connector-curvature="0"
     sodipodi:nodetypes="ccsssccsssccsssssssssssssssccsssccccsczsssscccscccssscsssssssssscssssssssccscccssssssssssscscsccssscc" />
</svg>
