<?xml version="1.0" encoding="UTF-8" standalone="no"?>
<svg
   xmlns:dc="http://purl.org/dc/elements/1.1/"
   xmlns:cc="http://creativecommons.org/ns#"
   xmlns:rdf="http://www.w3.org/1999/02/22-rdf-syntax-ns#"
   xmlns:svg="http://www.w3.org/2000/svg"
   xmlns="http://www.w3.org/2000/svg"
   xmlns:xlink="http://www.w3.org/1999/xlink"
   xmlns:sodipodi="http://sodipodi.sourceforge.net/DTD/sodipodi-0.dtd"
   xmlns:inkscape="http://www.inkscape.org/namespaces/inkscape"
   version="1.0"
   width="300.000000pt"
   height="300.000000pt"
   viewBox="0 0 300.000000 300.000000"
   preserveAspectRatio="xMidYMid meet"
   id="svg2"
   inkscape:version="0.92.5 (2060ec1f9f, 2020-04-08)"
   sodipodi:docname="br.svg">
  <defs
     id="defs12">
    <linearGradient
       inkscape:collect="always"
       id="linearGradient851">
      <stop
         style="stop-color:#fffdf4;stop-opacity:1"
         offset="0"
         id="stop847" />
      <stop
         style="stop-color:#d6d0c2;stop-opacity:1"
         offset="1"
         id="stop849" />
    </linearGradient>
    <filter
       style="color-interpolation-filters:sRGB;"
       inkscape:label="Drawing"
       id="filter18775">
      <feGaussianBlur
         in="SourceGraphic"
         stdDeviation="5.99659"
         result="blur1"
         id="feGaussianBlur18721" />
      <feConvolveMatrix
         in="blur1"
         targetX="1"
         targetY="1"
         order="3 3"
         kernelMatrix="0 250 0 250 -1010 250 0 250 0 "
         result="convolve1"
         id="feConvolveMatrix18723" />
      <feComposite
         in="convolve1"
         in2="convolve1"
         k1="1"
         k2="1"
         k4="0.04"
         operator="arithmetic"
         result="composite1"
         id="feComposite18725" />
      <feColorMatrix
         in="composite1"
         values="0 0 0 0 0 0 0 0 0 0 0 0 0 0 0 -0.2125 -0.7154 -0.0721 1 0 "
         result="color1"
         id="feColorMatrix18727" />
      <feGaussianBlur
         stdDeviation="0.61"
         result="blur2"
         id="feGaussianBlur18729" />
      <feColorMatrix
         values="1 0 0 0 0 0 1 0 0 0 0 0 1 0 0 0 0 0 2.7 -1 "
         result="color2"
         id="feColorMatrix18731" />
      <feFlood
         flood-color="rgb(255,255,255)"
         result="flood1"
         id="feFlood18733" />
      <feBlend
         in2="color2"
         mode="multiply"
         result="blend1"
         id="feBlend18735" />
      <feComponentTransfer
         in="blend1"
         result="component1"
         id="feComponentTransfer18743">
        <feFuncR
           type="discrete"
           tableValues="0 1 1 1"
           id="feFuncR18737" />
        <feFuncG
           type="discrete"
           tableValues="0 1 1 1"
           id="feFuncG18739" />
        <feFuncB
           type="discrete"
           tableValues="0 1 1 1"
           id="feFuncB18741" />
      </feComponentTransfer>
      <feGaussianBlur
         stdDeviation="0.61"
         result="blur3"
         id="feGaussianBlur18745" />
      <feColorMatrix
         in="blur3"
         values="0 0 0 0 0 0 0 0 0 0 0 0 0 0 0 -0.2125 -0.7154 -0.0721 1 0 "
         result="color3"
         id="feColorMatrix18747" />
      <feColorMatrix
         values="1 0 0 0 0 0 1 0 0 0 0 0 1 0 0 0 0 0 1.9 -0.5 "
         result="color4"
         id="feColorMatrix18749" />
      <feFlood
         flood-color="rgb(0,0,0)"
         result="flood2"
         id="feFlood18751" />
      <feComposite
         in="flood2"
         in2="color4"
         operator="in"
         result="composite2"
         id="feComposite18753" />
      <feComposite
         in="composite2"
         in2="composite2"
         operator="arithmetic"
         k2="1"
         result="composite3"
         id="feComposite18755" />
      <feOffset
         dx="0"
         dy="0"
         result="offset1"
         id="feOffset18757" />
      <feFlood
         in="color4"
         flood-color="rgb(66,66,66)"
         result="flood3"
         id="feFlood18759" />
      <feComposite
         in="flood3"
         in2="color4"
         operator="out"
         result="composite4"
         id="feComposite18761" />
      <feComposite
         in="composite4"
         in2="composite4"
         operator="arithmetic"
         k2="1"
         result="composite5"
         id="feComposite18763" />
      <feMerge
         result="merge1"
         id="feMerge18769">
        <feMergeNode
           in="composite5"
           id="feMergeNode18765" />
        <feMergeNode
           in="offset1"
           id="feMergeNode18767" />
      </feMerge>
      <feColorMatrix
         values="1 0 0 0 0 0 1 0 0 0 0 0 1 0 0 0 0 0 1.3 0 "
         result="color5"
         flood-opacity="0.56"
         id="feColorMatrix18771" />
      <feComposite
         in="color5"
         in2="SourceGraphic"
         operator="in"
         result="composite8"
         id="feComposite18773" />
    </filter>
    <linearGradient
       inkscape:collect="always"
       xlink:href="#linearGradient851"
       id="linearGradient853"
       x1="86.090241"
       y1="203.48426"
       x2="318.98974"
       y2="203.48426"
       gradientUnits="userSpaceOnUse" />
  </defs>
  <sodipodi:namedview
     pagecolor="#ffffff"
     bordercolor="#666666"
     borderopacity="1"
     objecttolerance="10"
     gridtolerance="10"
     guidetolerance="10"
     inkscape:pageopacity="0"
     inkscape:pageshadow="2"
     inkscape:window-width="1345"
     inkscape:window-height="1002"
     id="namedview10"
     showgrid="false"
     inkscape:zoom="0.71597136"
     inkscape:cx="70.060538"
     inkscape:cy="275.89064"
     inkscape:window-x="79"
     inkscape:window-y="0"
     inkscape:window-maximized="0"
     inkscape:current-layer="svg2"
     inkscape:pagecheckerboard="true">
    <inkscape:grid
       type="xygrid"
       id="grid842" />
  </sodipodi:namedview>
  <metadata
     id="metadata4">
Created by potrace 1.12, written by Peter Selinger 2001-2015
<rdf:RDF>
  <cc:Work
     rdf:about="">
    <dc:format>image/svg+xml</dc:format>
    <dc:type
       rdf:resource="http://purl.org/dc/dcmitype/StillImage" />
    <dc:title />
  </cc:Work>
</rdf:RDF>
</metadata>
  <path
     style="display:inline;opacity:1;fill:url(#linearGradient853);fill-opacity:1;stroke-width:3.18094945"
     d="m 297.69336,36.785156 c -6.5904,-0.04413 -12.93023,0.457282 -15.12109,1.8125 -2.26194,1.53018 -3.70498,2.869303 -3.78711,13.166016 -0.19276,24.19258 4.33843,25.474818 -21.8086,25.265625 -11.65669,-0.09326 -27.71899,2.457215 -27.77539,-4.433594 -0.046,-5.613935 0.13227,-16.255682 -0.30664,-23.238281 0.14659,-13.869043 -1.98301,-11.764137 -26.02734,-11.71875 -26.52094,0.02462 -26.58523,-1.190335 -26.47657,12.341797 0.0731,8.571042 0.36583,17.73831 0.21876,21.816406 -0.25065,6.946343 -12.75891,5.10668 -29.84961,5.660156 -15.1818,0.515079 -19.45961,0.851001 -19.74219,-5.042969 -0.28925,-6.03319 -0.37343,-13.068959 -0.33008,-22.964843 0.037,-8.456206 -1.7229,-10.57796 -4.29883,-11.240235 C 117.73181,37.0117 96.859258,36.827224 91.169922,38.75 c -2.861409,0.967045 -4.217241,11.105387 -3.589844,34.736328 0.741096,27.913452 -0.134307,34.285342 3.800781,40.357422 7.885119,12.93599 19.848881,23.27548 31.478521,30.03906 0.49805,0.28967 3.71725,0.51202 8.57617,0.68555 -0.75316,2.79673 -1.13681,7.11521 -1.36719,13.55273 -3.78019,7.28556 -8.46242,109.82151 -7.41992,116.45508 0.37363,3.89121 1.25353,7.50363 2.57226,10.85352 -18.4357,0.41463 -32.676394,1.18756 -34.624997,2.78125 -4.320305,3.53345 -4.192302,21.03172 -4.480469,29.55859 -0.288161,8.52685 1.92534,43.00833 6.13086,48.08008 4.205518,5.07179 5.084992,4.22851 104.607426,4.22851 99.52242,0 112.08287,1.04065 115.71679,-3.34179 4.77706,-5.76107 6.53006,-34.56898 6.41407,-47.17188 -0.11607,-12.60289 -0.45758,-26.57476 -5.01172,-31.01757 -1.88694,-1.84082 -15.97037,-2.88746 -34.39454,-3.45704 3.25894,-5.50487 5.00111,-11.61223 4.79297,-18.27734 1.63794,-13.26581 -5.32995,-102.79461 -8.27929,-107.67383 -0.52893,-6.83686 -1.05118,-11.44768 -1.89649,-14.45898 4.34854,-0.20552 7.36137,-0.49206 8.18164,-0.90235 3.83946,-1.92042 15.97852,-11.64062 15.97852,-11.64062 7.95559,-7.19394 15.05353,-16.45541 16.75391,-20.93164 0.81577,-2.0211 1.90633,-8.4212 2.16601,-17.820314 0.54537,-19.740054 1.1228,-53.710439 -2.96289,-55.142578 -3.18856,-0.82383 -10.02874,-1.412899 -16.61914,-1.457032 z"
     transform="scale(0.75)"
     id="path843"
     inkscape:connector-curvature="0"
     sodipodi:nodetypes="sccsccccccssssscccccccscsccccccccccscs" />
  <path
     style="display:inline;opacity:1;fill:#000000;fill-opacity:1;stroke-width:2.38571215"
     d="m 69.184336,274.38689 c -3.15414,-3.80381 -4.814675,-29.665 -4.598554,-36.06014 0.216125,-6.39515 0.120467,-19.51836 3.360696,-22.16845 3.240228,-2.65005 51.655162,-2.2898 79.693872,-2.63013 28.03871,-0.3403 84.42406,-0.45055 87.83967,2.88156 3.41561,3.33211 3.67076,13.81175 3.75781,23.26392 0.087,9.45217 -1.22713,31.05762 -4.80992,35.37842 -2.72544,3.28683 -12.14574,2.50581 -86.78756,2.50581 -74.641822,0 -75.301875,0.63285 -78.456014,-3.17099 z m 22.801467,-68.45541 c -3.662574,-3.66577 2.730477,-81.87647 5.565618,-87.34064 1.392049,-2.25435 5.786379,-2.52969 51.094599,-2.72622 54.15536,-0.23487 56.46352,-0.31938 58.42211,3.48923 2.21201,3.65941 7.43798,70.80601 6.20953,80.75537 0,0 0.10067,5.05698 -1.42878,5.74641 -1.52952,0.68947 -62.74082,0.6773 -62.74082,0.6773 -36.81208,0.45211 -56.227856,0.29379 -57.122257,-0.60145 z M 68.535176,85.38261 c -2.951316,-4.55406 -2.2948,-9.332754 -2.850622,-30.26784 -0.470548,-17.723206 0.547163,-25.326273 2.69322,-26.051557 4.267002,-1.442082 19.921209,-1.304989 23.413856,-0.407026 1.931948,0.496706 3.252073,2.088373 3.224288,8.430527 -0.03251,7.421913 0.03057,12.698364 0.247503,17.223257 0.211933,4.420477 3.419419,4.169717 14.805769,3.783408 12.81803,-0.415107 22.20027,0.964515 22.38825,-4.245242 0.11031,-3.058572 -0.10932,-9.934496 -0.16413,-16.362778 -0.0815,-10.149099 -0.0336,-9.237562 19.8571,-9.256026 18.03325,-0.03404 19.63055,-1.612509 19.52061,8.789273 0.32918,5.236949 0.19466,13.217123 0.22916,17.427574 0.0423,5.168107 12.09034,3.255834 20.83286,3.32578 19.61027,0.156895 16.21198,-0.804634 16.35655,-18.949069 0.0616,-7.722535 1.14257,-8.727261 2.83902,-9.874896 3.2863,-2.032827 19.02294,-1.501887 23.80578,-0.266142 3.06427,1.074105 2.631,26.551876 2.22197,41.356916 -0.19476,7.049337 -1.0125,11.849568 -1.62433,13.365388 -1.27528,3.357172 -6.59851,10.302305 -12.5652,15.69776 0,0 -9.10419,7.290393 -11.98378,8.730713 -2.87959,1.44032 -40.33823,0.92864 -60.036,0.9889 -19.69775,0.0603 -57.995042,0.0252 -59.601997,-0.90941 C 83.422826,102.83943 74.449015,95.084599 68.535176,85.38261 Z m 141.799374,7.178607 c 1.95526,-1.065604 7.5648,-7.454528 7.871,-8.459066 0.34653,-1.136804 -28.0404,-0.726677 -66.34694,-0.81375 -36.99975,-0.0841 -66.120588,-0.57993 -66.074293,0.886899 0.0535,1.695192 5.612117,6.265359 6.940684,7.647675 2.382014,2.478382 14.502999,1.660937 59.330119,1.660937 44.30187,0 55.90801,0.369717 58.27943,-0.922695 z"
     id="path844"
     inkscape:connector-curvature="0"
     sodipodi:nodetypes="zzzzzzcszccscszsccssssscscccscsccscszzscsssssss" />
</svg>
