<?xml version="1.0" encoding="UTF-8" standalone="no"?>
<svg
   xmlns:dc="http://purl.org/dc/elements/1.1/"
   xmlns:cc="http://creativecommons.org/ns#"
   xmlns:rdf="http://www.w3.org/1999/02/22-rdf-syntax-ns#"
   xmlns:svg="http://www.w3.org/2000/svg"
   xmlns="http://www.w3.org/2000/svg"
   xmlns:xlink="http://www.w3.org/1999/xlink"
   xmlns:sodipodi="http://sodipodi.sourceforge.net/DTD/sodipodi-0.dtd"
   xmlns:inkscape="http://www.inkscape.org/namespaces/inkscape"
   version="1.0"
   width="300.000000pt"
   height="300.000000pt"
   viewBox="0 0 300.000000 300.000000"
   preserveAspectRatio="xMidYMid meet"
   id="svg2"
   inkscape:version="0.92.5 (2060ec1f9f, 2020-04-08)"
   sodipodi:docname="wb.svg">
  <defs
     id="defs12">
    <linearGradient
       inkscape:collect="always"
       id="linearGradient850">
      <stop
         style="stop-color:#fffdf4;stop-opacity:1"
         offset="0"
         id="stop846" />
      <stop
         style="stop-color:#d6d0c2;stop-opacity:1"
         offset="1"
         id="stop848" />
    </linearGradient>
    <filter
       style="color-interpolation-filters:sRGB;"
       inkscape:label="Drawing"
       id="filter18775">
      <feGaussianBlur
         in="SourceGraphic"
         stdDeviation="5.99659"
         result="blur1"
         id="feGaussianBlur18721" />
      <feConvolveMatrix
         in="blur1"
         targetX="1"
         targetY="1"
         order="3 3"
         kernelMatrix="0 250 0 250 -1010 250 0 250 0 "
         result="convolve1"
         id="feConvolveMatrix18723" />
      <feComposite
         in="convolve1"
         in2="convolve1"
         k1="1"
         k2="1"
         k4="0.04"
         operator="arithmetic"
         result="composite1"
         id="feComposite18725" />
      <feColorMatrix
         in="composite1"
         values="0 0 0 0 0 0 0 0 0 0 0 0 0 0 0 -0.2125 -0.7154 -0.0721 1 0 "
         result="color1"
         id="feColorMatrix18727" />
      <feGaussianBlur
         stdDeviation="0.61"
         result="blur2"
         id="feGaussianBlur18729" />
      <feColorMatrix
         values="1 0 0 0 0 0 1 0 0 0 0 0 1 0 0 0 0 0 2.7 -1 "
         result="color2"
         id="feColorMatrix18731" />
      <feFlood
         flood-color="rgb(255,255,255)"
         result="flood1"
         id="feFlood18733" />
      <feBlend
         in2="color2"
         mode="multiply"
         result="blend1"
         id="feBlend18735" />
      <feComponentTransfer
         in="blend1"
         result="component1"
         id="feComponentTransfer18743">
        <feFuncR
           type="discrete"
           tableValues="0 1 1 1"
           id="feFuncR18737" />
        <feFuncG
           type="discrete"
           tableValues="0 1 1 1"
           id="feFuncG18739" />
        <feFuncB
           type="discrete"
           tableValues="0 1 1 1"
           id="feFuncB18741" />
      </feComponentTransfer>
      <feGaussianBlur
         stdDeviation="0.61"
         result="blur3"
         id="feGaussianBlur18745" />
      <feColorMatrix
         in="blur3"
         values="0 0 0 0 0 0 0 0 0 0 0 0 0 0 0 -0.2125 -0.7154 -0.0721 1 0 "
         result="color3"
         id="feColorMatrix18747" />
      <feColorMatrix
         values="1 0 0 0 0 0 1 0 0 0 0 0 1 0 0 0 0 0 1.9 -0.5 "
         result="color4"
         id="feColorMatrix18749" />
      <feFlood
         flood-color="rgb(0,0,0)"
         result="flood2"
         id="feFlood18751" />
      <feComposite
         in="flood2"
         in2="color4"
         operator="in"
         result="composite2"
         id="feComposite18753" />
      <feComposite
         in="composite2"
         in2="composite2"
         operator="arithmetic"
         k2="1"
         result="composite3"
         id="feComposite18755" />
      <feOffset
         dx="0"
         dy="0"
         result="offset1"
         id="feOffset18757" />
      <feFlood
         in="color4"
         flood-color="rgb(66,66,66)"
         result="flood3"
         id="feFlood18759" />
      <feComposite
         in="flood3"
         in2="color4"
         operator="out"
         result="composite4"
         id="feComposite18761" />
      <feComposite
         in="composite4"
         in2="composite4"
         operator="arithmetic"
         k2="1"
         result="composite5"
         id="feComposite18763" />
      <feMerge
         result="merge1"
         id="feMerge18769">
        <feMergeNode
           in="composite5"
           id="feMergeNode18765" />
        <feMergeNode
           in="offset1"
           id="feMergeNode18767" />
      </feMerge>
      <feColorMatrix
         values="1 0 0 0 0 0 1 0 0 0 0 0 1 0 0 0 0 0 1.3 0 "
         result="color5"
         flood-opacity="0.56"
         id="feColorMatrix18771" />
      <feComposite
         in="color5"
         in2="SourceGraphic"
         operator="in"
         result="composite8"
         id="feComposite18773" />
    </filter>
    <linearGradient
       inkscape:collect="always"
       xlink:href="#linearGradient850"
       id="linearGradient852"
       x1="6.4297403"
       y1="152.41458"
       x2="293.73258"
       y2="152.41458"
       gradientUnits="userSpaceOnUse" />
  </defs>
  <sodipodi:namedview
     pagecolor="#ffffff"
     bordercolor="#666666"
     borderopacity="1"
     objecttolerance="10"
     gridtolerance="10"
     guidetolerance="10"
     inkscape:pageopacity="0"
     inkscape:pageshadow="2"
     inkscape:window-width="1319"
     inkscape:window-height="982"
     id="namedview10"
     showgrid="false"
     inkscape:zoom="1.1808738"
     inkscape:cx="168.60258"
     inkscape:cy="285.66626"
     inkscape:window-x="7"
     inkscape:window-y="11"
     inkscape:window-maximized="0"
     inkscape:current-layer="svg2"
     inkscape:pagecheckerboard="true">
    <inkscape:grid
       type="xygrid"
       id="grid842" />
  </sodipodi:namedview>
  <metadata
     id="metadata4">
Created by potrace 1.12, written by Peter Selinger 2001-2015
<rdf:RDF>
  <cc:Work
     rdf:about="">
    <dc:format>image/svg+xml</dc:format>
    <dc:type
       rdf:resource="http://purl.org/dc/dcmitype/StillImage" />
    <dc:title />
  </cc:Work>
</rdf:RDF>
</metadata>
  <path
     style="display:inline;opacity:1;fill:url(#linearGradient852);fill-opacity:1;stroke-width:2.22980714"
     d="m 148.56055,14.179688 c -9.25225,-0.549938 -17.74113,9.96001 -12.72852,18.482421 1.82856,4.614607 -0.67399,9.656199 -5.17969,11.513672 -22.72357,17.231413 -42.644444,41.012897 -48.699215,69.531249 -4.117744,19.1574 -1.307949,39.40638 6.533525,57.33456 6.212555,15.32966 13.18805,32.67039 7.052412,49.16544 -2.151434,6.91921 1.252287,14.45577 8.117188,16.97461 5.52031,2.85668 14.76585,4.15983 16.21875,11.33398 -1.12018,6.90571 -9.28055,10.26794 -15.45508,10.96485 -10.600985,0.0205 -20.378475,-5.35631 -30.825572,-6.29854 -13.498569,-2.87555 -28.056429,-1.489 -39.539983,6.7541 -6.728294,4.17326 -14.357047,6.59421 -21.47624,9.79053 -7.5380624,6.84757 0.118109,19.56487 8.960937,20.70313 10.476029,0.92847 18.593958,-7.45803 28.695074,-8.8895 10.322975,-2.91204 20.998053,-0.3483 30.60867,3.70646 17.339853,5.90497 36.985054,5.69591 52.092744,-5.38532 5.52413,-3.55171 10.50898,-9.40849 16.80664,-10.97266 9.4587,4.03312 16.24137,12.70297 25.87695,16.35156 15.89955,7.19972 33.87678,3.52324 49.46094,-2.55468 11.52177,-3.82164 24.19454,-2.89098 35.11658,2.34003 7.84654,4.20438 19.0718,9.05554 26.30334,1.02911 5.52483,-4.5437 6.07685,-15.55852 -1.86328,-17.72461 -7.93296,-2.71424 -15.59264,-6.35874 -22.55078,-10.82813 -12.81803,-6.87614 -27.88199,-6.66848 -41.65318,-3.23091 -9.32625,1.7067 -18.8322,6.51301 -28.42104,4.61958 -4.99532,-1.60459 -11.10259,-6.00443 -10.14844,-11.80468 5.6731,-9.19686 20.81932,-5.90304 24.91016,-16.48438 2.50921,-10.13275 -4.33589,-19.75885 -2.70402,-30.02199 1.63042,-18.62311 10.10996,-35.76115 15.71574,-53.34324 5.32012,-13.55693 7.4943,-27.9627 6.53906,-42.52735 -0.10298,-20.650178 -8.29356,-40.737699 -22.3457,-55.681636 -3.45423,-3.832243 -7.75112,-9.423987 -4.2129,-14.583985 5.41882,-6.844149 1.14902,-18.308583 -7.74804,-19.595703 -8.42908,-2.77955 -19.12763,3.022306 -18.15625,12.820313 -0.94956,5.478075 6.7731,8.868596 3.32812,14.251953 -1.94422,4.488336 -8.3086,7.538394 -12.10351,3.417969 -3.82223,-2.60736 -6.13693,-8.294972 -2.77539,-12.179688 3.17239,-7.632204 -0.9091,-18.26802 -9.92774,-18.705078 -1.26003,-0.224477 -2.54302,-0.317805 -3.82226,-0.273437 z"
     id="path843"
     inkscape:connector-curvature="0" />
  <path
     style="display:inline;opacity:1;fill:#000000;fill-opacity:1;stroke-width:2.22980714"
     d="m 19.56107,293.21801 c -6.67253,-2.6884 -14.19796,-9.37094 -13.00582,-17.67832 0.71133,-4.95683 1.95265,-8.82297 12.02286,-11.58941 5.1732,-1.42114 10.38758,-4.78629 16.91046,-8.41086 5.25801,-2.51073 7.16002,-3.91186 14.83243,-5.87181 9.54984,-2.07709 19.34536,-0.27843 31.10425,2.07032 9.11585,1.7082 18.4232,5.43057 23.74925,4.80649 5.73794,-0.67236 11.59147,-5.89713 11.85256,-7.79827 0.41267,-3.00473 -8.19195,-6.07065 -13.17453,-8.26895 -10.62206,-4.68646 -13.9128,-11.26434 -10.89657,-21.78132 3.36857,-11.74555 2.48061,-21.25129 -3.25916,-36.01941 -9.24959,-23.79864 -14.06184,-37.15081 -12.38299,-56.73786 0.70699,-8.24837 2.776,-19.14256 4.58682,-24.21026 5.56557,-15.575553 19.6623,-36.973775 35.61709,-50.638569 6.95978,-5.960838 11.39735,-9.294058 14.15582,-11.415636 4.04193,-3.108706 0.0446,-6.53855 -0.12985,-10.911825 -0.27775,-6.965094 1.90291,-10.74382 5.9332,-14.007356 6.4092,-5.189863 15.71607,-5.06347 23.18793,-0.167714 4.80372,3.147518 5.71947,9.266452 5.46057,14.202304 -0.13817,2.633979 -0.98012,6.73268 -2.02782,7.870232 -0.58065,0.630441 -0.20556,3.093955 2.47002,4.702872 5.08333,3.056782 5.65162,2.454258 6.77452,1.124187 1.78368,-2.112761 2.01371,-4.659791 -0.15171,-7.268973 -3.66045,-4.410577 -3.54868,-15.353952 3.67083,-20.651383 8.23578,-6.043132 24.55866,-3.336299 27.25169,7.234892 1.05846,3.561634 1.36783,8.936069 -0.6249,12.539724 -5.12411,6.127496 -0.035,8.591697 4.86237,14.969161 15.67921,20.418121 21.0523,33.269374 20.96656,62.566564 -0.0607,20.72984 -2.44093,23.49527 -12.22693,51.67324 -11.17635,32.18135 -12.08898,38.48228 -7.8626,54.28427 3.35547,12.54579 0.23798,19.37678 -10.63801,23.30957 -4.19889,1.51834 -15.70917,5.25723 -13.90005,8.17834 2.31834,3.74334 3.74961,5.1909 9.17098,7.03533 3.68865,1.25492 16.27577,-2.8176 20.97116,-3.83877 20.95725,-4.55787 30.19774,-5.44896 44.61165,0.57476 8.20434,3.42868 13.11947,7.88223 22.58488,11.06916 10.85995,2.76652 11.22712,7.96847 11.68888,13.32367 0.4847,6.53365 -10.32994,21.23193 -25.70554,14.23914 -24.13701,-10.97748 -29.80815,-9.84366 -45.43795,-4.9934 -16.06466,4.98519 -20.93282,6.0239 -30.73467,5.38029 -11.34909,-0.74518 -18.20589,-3.95694 -27.64499,-9.93703 -4.58026,-2.9018 -13.30093,-10.39593 -14.80326,-10.39593 -1.50232,0 -8.97467,6.65988 -13.89884,9.94042 -8.39903,5.59553 -16.33532,9.12299 -26.00949,10.15655 -11.24497,1.20136 -20.17864,-0.68178 -35.17227,-5.76735 -9.97155,-3.38217 -17.01702,-4.05407 -27.58356,-0.43602 -14.73196,5.23246 -17.81691,9.38331 -27.16527,7.54494 z M 120.20331,277.1809 c 9.74312,-4.79924 17.36081,-9.40481 20.96378,-13.86953 2.78432,-3.45027 5.75644,-9.17238 1.24714,-11.00109 -6.32032,-2.56315 -8.13813,-3.00324 -20.64168,8.49804 -7.7704,7.14752 -21.06925,7.65453 -34.53663,3.38979 -5.51878,-1.76464 -13.55011,-4.03467 -24.10959,-4.44049 -13.26061,-0.50967 -14.97149,1.29688 -21.78774,5.44648 -6.14075,3.40841 -11.68843,6.92184 -16.97143,8.25251 -6.89064,1.70455 -8.94522,4.34224 -3.55162,8.90653 5.42173,3.83537 9.57369,-2.14553 20.02732,-5.80602 22.86354,-7.43583 26.34363,-3.51765 43.90219,1.21215 7.58465,2.0431 11.92349,3.61563 18.7163,3.68649 6.42493,0.067 10.26436,-1.08413 16.74196,-4.27486 z m 95.71054,0.43649 c 19.52873,-5.4117 25.17299,-7.34612 41.40942,-1.77772 12.60114,4.07346 15.7854,9.43371 20.57544,7.18842 5.07908,-2.38083 7.24215,-7.69928 -1.48082,-9.22032 -4.49124,-1.50174 -12.28739,-5.349 -20.74086,-10.65717 -2.52118,-1.5891 -8.34793,-4.8022 -25.13618,-3.0954 -9.2802,0.94349 -19.57956,4.96269 -25.09833,6.23174 -8.85851,2.03704 -18.63846,0.60442 -24.3423,-3.37976 -4.77483,-3.58069 -12.82776,-11.97133 -16.78323,-11.95131 -14.16333,0.0717 -9.41651,11.19339 1.69644,18.5379 21.09672,12.31453 24.13987,15.26223 49.90042,8.12362 z m -34.30801,-40.98301 c 19.75854,-4.76194 20.811,-11.90514 2.28165,-15.48604 -13.86156,-2.67884 -33.89487,-3.96045 -50.02932,-2.12676 -18.21202,2.06977 -31.54705,7.23402 -27.13293,11.64813 8.20482,8.20482 52.15027,11.44284 74.8806,5.96467 z m -53.40492,-26.26933 c 10.2036,-1.56465 17.39862,-1.80717 26.00362,-1.80204 7.65824,0.004 17.75058,0.40239 31.08659,3.77157 11.95704,3.0208 11.01606,1.47844 10.36518,-6.4797 -0.70362,-8.60313 0.077,-9.76187 -7.79787,-12.79106 -8.40003,-4.01799 -22.60473,-5.4252 -34.31466,-5.67892 -11.01861,-0.23876 -22.37781,0.77995 -30.28905,2.81296 -7.96059,2.0457 -15.13206,4.43081 -15.9366,5.30024 -2.76339,2.98633 -3.99843,22.03914 -1.39045,20.42734 1.33237,-0.82347 12.54613,-4.06881 22.27324,-5.56039 z m -6.75897,-5.80602 c -2.88049,-2.7273 -1.72434,-8.76924 3.45018,-9.54476 3.85785,-0.57817 6.49402,1.91192 6.49402,5.8017 0,5.28635 -7.16526,6.37424 -9.9442,3.74306 z m 48.61374,-2.2296 c -0.8078,-7.23336 5.09083,-9.12369 9.06751,-6.94427 3.05858,2.12411 3.0422,5.23256 2.2998,7.16724 -1.78836,4.66038 -9.55183,4.50809 -11.36731,-0.22297 z m -24.6962,-1.20188 c -2.02865,-5.28663 2.12669,-9.57448 6.54056,-8.72445 2.46844,0.47538 4.56201,2.6684 4.49296,6.14943 -0.11682,5.88911 -8.32281,7.1825 -11.03352,2.57502 z m 27.24464,-22.07494 c 10.20664,1.98147 18.59394,4.27963 20.25364,4.70323 3.66911,1.40412 4.14854,-5.71612 9.18479,-17.36121 14.97693,-34.63053 6.55593,-67.522793 -15.33708,-92.979931 -10.59471,-12.319477 -25.95917,-27.19366 -36.89996,-27.19366 -14.11528,0 -38.55727,24.376743 -51.53789,50.456515 -7.53281,15.134386 -8.09841,21.861956 -8.66096,34.892406 -0.6429,14.89172 3.17008,23.22525 7.30301,35.99391 4.96395,15.33607 8.23321,18.09351 11.20635,16.87167 2.02447,-0.83196 10.90731,-3.61533 22.16255,-5.57951 18.42504,-2.15583 30.599,-2.07382 42.32555,0.19658 z m -37.17054,-25.05693 c -0.12529,-4.76906 -0.0984,-14.36142 -0.16497,-21.41478 -0.0826,-8.75777 -1.06851,-8.19072 -8.38144,-8.23271 -10.17266,-0.0584 -10.6296,0.86287 -10.71131,-5.87167 -0.0356,-2.93146 0.0351,-15.34253 -0.0812,-19.075176 -0.1652,-5.304735 -0.44468,-5.693452 9.70867,-6.022327 9.41517,-0.304965 9.61653,0.05865 9.21773,-11.288188 0.52761,-12.548594 -2.47508,-10.224034 14.13535,-10.64479 20.40096,-0.154202 16.27954,-0.912125 16.72851,11.167733 0.0491,11.774235 0.46117,9.858465 8.97243,10.03413 8.01145,-0.158685 7.72474,-0.891255 8.01487,8.261308 0.23472,5.21282 0.44487,17.034 0.38189,19.53079 -0.0899,3.56311 -3.237,3.15126 -8.27717,3.41691 -10.56415,0.0327 -8.83683,0.0855 -9.07443,5.9241 0.38753,9.82688 0.50436,24.58804 0.50633,26.74787 -0.094,3.87621 0.53917,4.83947 -15.40071,5.05112 -17.68623,-0.0736 -15.38049,0.13179 -15.57462,-7.58432 z m 20.67262,-20.19777 c -0.0917,-9.40004 -0.74914,-17.63561 0.16106,-18.72435 0.65847,-0.78763 4.1575,-0.92392 10.91281,-0.7163 5.72864,-0.10572 6.92516,0.0156 6.57711,-4.99635 0.30182,-6.82103 -1.12732,-6.68797 -9.66628,-6.45647 -3.3263,0.0902 -6.80603,0.57875 -7.8855,-0.58688 -0.83751,-0.90438 -0.58044,-5.220763 -0.59844,-11.002798 -0.0354,-11.379717 -0.38388,-10.312036 -6.13197,-10.241151 -5.73543,0.07073 -5.20455,-0.59707 -4.87416,9.629638 0.15981,4.947023 0.52005,10.886481 -0.46322,11.894271 -1.14724,1.17585 -7.40755,0.66332 -11.70997,0.77416 -6.41211,0.1652 -6.31869,0.95624 -6.24345,5.57452 0.0826,5.07012 0.55164,5.75759 5.39216,5.57451 9.15054,-0.34608 11.56105,-0.14304 12.43829,0.90438 1.06704,1.27403 0.51998,9.88328 0.70887,19.28565 0.35042,17.44313 -1.59745,17.83385 5.25071,17.7167 7.56124,-0.12934 5.72784,0.57159 6.13198,-18.62953 z m 38.74514,-84.395461 c -6.81077,-6.810765 -6.73617,-6.588781 -9.79202,-2.777175 -2.84769,3.551967 -1.74916,5.751053 3.38118,10.675039 3.20405,3.075187 8.78409,9.791485 14.73092,17.510464 3.73792,4.851834 7.28215,10.448904 8.79264,14.741282 l 4.4346,10.931761 -0.0503,-8.035658 c 0.005,-5.346136 -1.05602,-12.457644 -5.93,-20.915948 -4.87395,-8.458306 -9.51539,-15.262409 -15.56705,-22.129765 z M 154.95424,30.253298 c 1.29515,-2.973069 0.59286,-9.521993 -7.08274,-9.26767 -4.05372,0.134317 -7.73428,4.121325 -5.25937,9.820498 1.67447,3.855982 10.03009,4.754505 12.34211,-0.552828 z m 38.02923,1.532924 c 3.81636,-3.720272 2.03967,-10.68113 -4.41528,-11.0722 -5.01049,-0.303558 -8.0226,4.013168 -7.32174,7.560303 1.16438,5.892938 8.22359,6.936865 11.73702,3.511897 z"
     id="path843-50"
     inkscape:connector-curvature="0"
     sodipodi:nodetypes="csscccsscsssssscsssssscscccssscssssccssssssssccsssscsccccsssscsccsccscsscscssssscssccsssssccsccsscccssssssccccssssscccccscccccccccssssssssssssccsssccczcsssssssscs" />
</svg>
