<?xml version="1.0" encoding="UTF-8" standalone="no"?>
<svg
   xmlns:dc="http://purl.org/dc/elements/1.1/"
   xmlns:cc="http://creativecommons.org/ns#"
   xmlns:rdf="http://www.w3.org/1999/02/22-rdf-syntax-ns#"
   xmlns:svg="http://www.w3.org/2000/svg"
   xmlns="http://www.w3.org/2000/svg"
   xmlns:xlink="http://www.w3.org/1999/xlink"
   xmlns:sodipodi="http://sodipodi.sourceforge.net/DTD/sodipodi-0.dtd"
   xmlns:inkscape="http://www.inkscape.org/namespaces/inkscape"
   version="1.0"
   width="300.000000pt"
   height="300.000000pt"
   viewBox="0 0 300.000000 300.000000"
   preserveAspectRatio="xMidYMid meet"
   id="svg2"
   inkscape:version="0.92.5 (2060ec1f9f, 2020-04-08)"
   sodipodi:docname="wn.svg">
  <defs
     id="defs12">
    <linearGradient
       inkscape:collect="always"
       id="linearGradient850">
      <stop
         style="stop-color:#fffdf4;stop-opacity:1"
         offset="0"
         id="stop846" />
      <stop
         style="stop-color:#d6d0c2;stop-opacity:1"
         offset="1"
         id="stop848" />
    </linearGradient>
    <filter
       style="color-interpolation-filters:sRGB;"
       inkscape:label="Drawing"
       id="filter18775">
      <feGaussianBlur
         in="SourceGraphic"
         stdDeviation="5.99659"
         result="blur1"
         id="feGaussianBlur18721" />
      <feConvolveMatrix
         in="blur1"
         targetX="1"
         targetY="1"
         order="3 3"
         kernelMatrix="0 250 0 250 -1010 250 0 250 0 "
         result="convolve1"
         id="feConvolveMatrix18723" />
      <feComposite
         in="convolve1"
         in2="convolve1"
         k1="1"
         k2="1"
         k4="0.04"
         operator="arithmetic"
         result="composite1"
         id="feComposite18725" />
      <feColorMatrix
         in="composite1"
         values="0 0 0 0 0 0 0 0 0 0 0 0 0 0 0 -0.2125 -0.7154 -0.0721 1 0 "
         result="color1"
         id="feColorMatrix18727" />
      <feGaussianBlur
         stdDeviation="0.61"
         result="blur2"
         id="feGaussianBlur18729" />
      <feColorMatrix
         values="1 0 0 0 0 0 1 0 0 0 0 0 1 0 0 0 0 0 2.7 -1 "
         result="color2"
         id="feColorMatrix18731" />
      <feFlood
         flood-color="rgb(255,255,255)"
         result="flood1"
         id="feFlood18733" />
      <feBlend
         in2="color2"
         mode="multiply"
         result="blend1"
         id="feBlend18735" />
      <feComponentTransfer
         in="blend1"
         result="component1"
         id="feComponentTransfer18743">
        <feFuncR
           type="discrete"
           tableValues="0 1 1 1"
           id="feFuncR18737" />
        <feFuncG
           type="discrete"
           tableValues="0 1 1 1"
           id="feFuncG18739" />
        <feFuncB
           type="discrete"
           tableValues="0 1 1 1"
           id="feFuncB18741" />
      </feComponentTransfer>
      <feGaussianBlur
         stdDeviation="0.61"
         result="blur3"
         id="feGaussianBlur18745" />
      <feColorMatrix
         in="blur3"
         values="0 0 0 0 0 0 0 0 0 0 0 0 0 0 0 -0.2125 -0.7154 -0.0721 1 0 "
         result="color3"
         id="feColorMatrix18747" />
      <feColorMatrix
         values="1 0 0 0 0 0 1 0 0 0 0 0 1 0 0 0 0 0 1.9 -0.5 "
         result="color4"
         id="feColorMatrix18749" />
      <feFlood
         flood-color="rgb(0,0,0)"
         result="flood2"
         id="feFlood18751" />
      <feComposite
         in="flood2"
         in2="color4"
         operator="in"
         result="composite2"
         id="feComposite18753" />
      <feComposite
         in="composite2"
         in2="composite2"
         operator="arithmetic"
         k2="1"
         result="composite3"
         id="feComposite18755" />
      <feOffset
         dx="0"
         dy="0"
         result="offset1"
         id="feOffset18757" />
      <feFlood
         in="color4"
         flood-color="rgb(66,66,66)"
         result="flood3"
         id="feFlood18759" />
      <feComposite
         in="flood3"
         in2="color4"
         operator="out"
         result="composite4"
         id="feComposite18761" />
      <feComposite
         in="composite4"
         in2="composite4"
         operator="arithmetic"
         k2="1"
         result="composite5"
         id="feComposite18763" />
      <feMerge
         result="merge1"
         id="feMerge18769">
        <feMergeNode
           in="composite5"
           id="feMergeNode18765" />
        <feMergeNode
           in="offset1"
           id="feMergeNode18767" />
      </feMerge>
      <feColorMatrix
         values="1 0 0 0 0 0 1 0 0 0 0 0 1 0 0 0 0 0 1.3 0 "
         result="color5"
         flood-opacity="0.56"
         id="feColorMatrix18771" />
      <feComposite
         in="color5"
         in2="SourceGraphic"
         operator="in"
         result="composite8"
         id="feComposite18773" />
    </filter>
    <linearGradient
       inkscape:collect="always"
       xlink:href="#linearGradient850"
       id="linearGradient852"
       x1="25.485588"
       y1="198.64465"
       x2="372.4569"
       y2="198.64465"
       gradientUnits="userSpaceOnUse" />
  </defs>
  <sodipodi:namedview
     pagecolor="#ffffff"
     bordercolor="#666666"
     borderopacity="1"
     objecttolerance="10"
     gridtolerance="10"
     guidetolerance="10"
     inkscape:pageopacity="0"
     inkscape:pageshadow="2"
     inkscape:window-width="1410"
     inkscape:window-height="1002"
     id="namedview10"
     showgrid="false"
     inkscape:zoom="1.66699"
     inkscape:cx="175.61734"
     inkscape:cy="165.09666"
     inkscape:window-x="85"
     inkscape:window-y="13"
     inkscape:window-maximized="0"
     inkscape:current-layer="svg2"
     inkscape:pagecheckerboard="true"
     showguides="false" />
  <metadata
     id="metadata4">
Created by potrace 1.12, written by Peter Selinger 2001-2015
<rdf:RDF>
  <cc:Work
     rdf:about="">
    <dc:format>image/svg+xml</dc:format>
    <dc:type
       rdf:resource="http://purl.org/dc/dcmitype/StillImage" />
    <dc:title />
  </cc:Work>
</rdf:RDF>
</metadata>
  <path
     style="display:inline;fill:url(#linearGradient852);fill-opacity:1;stroke-width:3.1181252"
     d="m 117.76953,14.292969 c -0.64935,0.06736 -1.33504,0.424396 -2.14062,1.083984 -3.86467,3.164269 -12.59864,22.557015 -12.68946,34.945313 -0.0256,3.490958 0.82471,8.650613 -3.222653,12.482422 -3.640652,3.446754 -7.483184,9.120227 -13.0625,15.019531 -8.574843,9.066633 -12.516092,11.895007 -15.591797,19.082031 -0.762668,1.782135 -9.447139,8.88171 -13.271484,12.47852 -4.503943,4.23596 -8.164759,14.13889 -6.451172,19.40234 1.32984,4.08473 3.600068,9.55811 5.146484,14.375 2.846713,8.86709 -14.54293,56.80097 -19.927734,68.88477 -6.562892,14.72753 -11.745024,19.34454 -11.001953,29.9707 0.74307,10.62616 6.66035,15.96071 8.314453,19.30859 1.654104,3.34788 0.194526,17.2997 18.65039,25.67188 8.369474,3.79665 13.96691,4.03902 18.962891,1.36523 3.582948,-1.91756 9.382107,-6.33664 13.925781,-3.58008 6.108258,3.70576 8.408204,-1.07194 12.054688,-4.4414 6.408106,-5.9213 5.910306,-7.64935 4.164066,-16.33985 -2.128584,-10.59324 0.007,-15.62753 4.61523,-24.66015 5.45735,-10.6973 5.79908,-16.20183 14.54102,-16.40235 7.54969,-0.17316 15.34185,0.23579 17.56445,-0.89453 9.43533,-4.79841 22.10005,-13.9153 31.86719,-23.14648 4.08534,-3.86116 9.48405,-12.21514 12.71431,-16.61762 2.43256,2.72936 4.64969,6.34984 6.95719,12.41175 1.58791,4.17148 0.53501,19.98761 1.62928,30.64727 2.78909,27.16991 -6.09144,45.55033 -39.00196,76.15821 -29.17173,27.13068 -40.25421,51.29399 -41.79882,61.70898 -1.54462,10.41499 -2.22549,17.25755 1.98437,18.14258 4.20986,0.88505 13.70899,1.39258 13.70899,1.39258 23.43482,1.5037 43.11161,-3.13891 84.07617,-19.83399 61.87124,-25.21562 104.89033,-28.89379 138.34179,-11.82812 15.65524,7.98662 18.07553,10.14137 20.17969,-0.0664 1.46844,-9.56121 -0.23552,-18.22418 -0.24219,-21.62305 -0.0161,-6.8455 4.38163,-6.58212 3.59766,-13.47265 -0.91628,-8.05323 -7.29566,-18.29002 -7.34766,-20.72852 -0.14665,-6.90036 5.3114,-11.22981 4.65235,-20.69726 -0.49777,-7.15046 -4.95304,-16.11573 -6.76563,-19.63086 -2.89149,-5.59154 -4.30894,-13.04218 -3.26953,-17.1836 1.36914,-8.24081 -0.008,-20.58301 -4.67578,-28.41601 -5.20297,-7.82508 -7.71521,-15.8136 -7.91211,-24.78125 -0.77034,-4.95379 -2.61734,-12.37066 -6.03125,-17.7207 -3.02492,-4.74042 -6.5363,-8.44236 -9.23633,-11.81641 -3.37636,-4.2192 -11.68788,-18.56196 -15.64648,-23.92383 -22.76529,-30.83539 -63.7434,-60.721493 -95.5918,-65.341796 -17.25534,-2.503262 -14.68594,-2.5947 -16.43554,-15.359375 -2.44966,-17.872306 -7.33994,-29.896009 -12.13672,-29.845703 -2.18618,0.02293 -13.30594,8.252172 -21.87305,19.744141 -15.6804,21.033851 -15.76072,20.227486 -21.16016,16.855469 -3.32301,-2.075254 -7.38771,-7.631085 -9.03125,-12.345704 -1.6435,-4.714618 -4.24239,-9.428404 -6.52343,-12.419921 -1.81765,-2.180595 -5.25497,-7.153539 -8.45703,-11.246094 -3.58009,-4.575699 -5.2043,-6.969659 -7.15235,-6.767578 z"
     transform="scale(0.75)"
     id="path842"
     inkscape:connector-curvature="0"
     sodipodi:nodetypes="cccssscscsssccsccscsscccssccscccccccccccccscscccccsc" />
  <path
     style="display:inline;fill:#000000;stroke-width:2.33859396"
     d="m 94.80743,287.05632 c 0,0 -7.12346,-0.37998 -10.28085,-1.04377 -3.1574,-0.66377 -2.64792,-5.7956 -1.48946,-13.60684 1.15847,-7.81124 9.47113,-25.93465 31.34993,-46.28266 24.68289,-22.95591 31.34261,-36.74048 29.25079,-57.1179 -0.82071,-7.99476 -3.10305,-16.55994 -4.40229,-19.64516 -2.23458,-5.30636 -0.79579,-9.75263 2.75008,-10.26991 5.05356,-0.73724 8.39117,6.27982 10.48406,14.33274 7.49772,28.84911 1.9167,50.2947 -26.59161,75.98769 -24.2855,21.88723 -32.82028,42.77108 -30.19057,44.96162 1.79973,1.49916 20.01102,2.19939 36.73249,-4.37302 28.60579,-11.24358 57.6018,-22.10904 80.70724,-24.52413 15.03465,-1.57152 15.21068,0.63674 15.13883,-6.27595 0.36504,-3.65 -0.40377,-18.28794 -1.30347,-34.75728 -1.58076,-28.93769 -9.20103,-58.05359 -20.61098,-79.0174 -8.41846,-15.46749 -30.30538,-38.707066 -47.20297,-46.941514 -11.76005,-5.730844 -15.58875,-7.814754 -18.13957,-2.401934 -2.77325,6.113598 -5.45555,7.277159 -11.20206,1.688354 -2.1149,-5.355061 2.5041,-8.943824 6.98776,-16.166588 5.78592,-9.320514 7.29632,-14.485821 6.56087,-18.146055 -0.7706,-3.835066 -1.12736,-13.628671 -5.32094,-9.636358 -2.13565,2.033126 -9.53578,10.751662 -12.6789,15.957564 -2.85048,4.7212 -1.34722,7.488964 -1.73709,12.823399 -0.55569,7.603354 0.90645,12.150804 -6.79551,12.457946 -4.56704,0.182126 -2.55688,-5.021226 -3.23458,-8.674646 -2.16594,-10.043411 -5.68251,-9.685373 -8.02785,-7.281237 -5.32885,5.462453 -4.29567,2.012821 -9.1155,-4.029104 -4.96118,-6.219109 -15.97872,-1.55719 -22.4822,8.51244 -2.89806,4.487179 -8.23348,8.276101 -9.37093,10.686257 -1.75692,3.72275 -4.33793,7.214402 -7.58348,9.401871 -14.16951,9.550117 -6.74668,14.654811 -5.71004,19.969135 2.03993,10.4576 -1.43686,28.16786 -12.94555,56.49039 -3.67482,9.04362 -6.98435,14.34222 -7.52271,18.60882 -1.08955,8.63484 2.71496,11.05935 3.89324,13.87938 1.17828,2.82003 0.70825,8.51476 5.63929,10.2421 4.93104,1.72734 8.70891,-0.45783 11.63125,-0.66835 2.92234,-0.21048 8.88826,2.41573 12.49725,-0.699 3.60898,-3.11472 2.41689,-9.09179 2.47814,-13.1547 0.0613,-4.06293 2.97304,-9.69264 5.08261,-14.4096 2.18917,-4.89494 9.49367,-13.55381 11.7854,-14.61986 3.15961,-1.46977 11.6606,-1.03735 15.11873,-1.23358 6.46175,-0.36669 8.27684,-4.00071 19.63457,-13.9698 6.54794,-5.74737 11.16293,-12.88308 13.88318,-18.21519 5.52783,-12.73998 8.35986,-14.44239 12.63391,-10.34211 3.39167,3.25379 -4.59532,21.47778 -17.44463,33.622 -7.32536,6.92339 -13.32486,12.96533 -20.40136,16.56414 -1.66695,0.84774 -9.58822,1.9203 -15.87795,1.78448 -5.13298,-0.11084 -7.60822,3.96093 -11.70124,11.9839 -3.45607,6.77447 -5.05772,10.54904 -3.46129,18.49397 1.30969,6.51787 1.68268,7.8147 -3.1234,12.25567 -2.73486,2.5271 -4.45912,6.11042 -9.04031,3.3311 -3.40776,-2.06742 -7.7577,1.24731 -10.44491,2.68548 -3.74699,2.00533 -7.94432,1.82352 -14.22143,-1.02396 -13.84189,-6.27914 -12.74686,-16.74374 -13.98744,-19.25465 -1.24058,-2.51091 -5.67921,-6.51199 -6.23652,-14.48161 -0.5573,-7.96962 3.3286,-11.4315 8.25077,-22.47714 4.0386,-9.06285 17.08113,-45.01425 14.94609,-51.66456 -1.15981,-3.61267 -2.86156,-7.717429 -3.85894,-10.780976 -1.28519,-3.94758 1.46032,-11.37428 4.83828,-14.551253 2.86826,-2.697602 9.38172,-8.022318 9.95372,-9.358919 2.30678,-5.390268 5.26184,-7.511906 11.69297,-14.311881 4.18449,-4.424478 7.06674,-8.678986 9.79723,-11.264053 3.03552,-2.873856 2.39786,-6.744623 2.41705,-9.362842 0.0681,-9.291223 6.6191,-23.835565 9.5176,-26.208766 2.41675,-1.9787636 3.38974,-0.312117 6.96982,4.263581 2.40155,3.069417 4.97857,6.79825 6.3418,8.433696 1.71078,2.243638 3.6609,5.779716 4.89353,9.31568 1.23265,3.535964 4.2803,7.702476 6.77256,9.258916 4.04958,2.529012 4.11012,3.133302 15.87042,-12.642086 6.42533,-8.618977 14.7658,-14.790963 16.40543,-14.808157 3.59758,-0.03773 7.26454,8.98079 9.10179,22.38502 1.3122,9.573506 -0.61499,9.641023 12.32652,11.518469 23.8863,3.465228 54.62038,25.879893 71.69434,49.00643 2.96895,4.021411 9.20301,14.779351 11.73528,17.943751 2.02503,2.53054 4.65753,5.30623 6.92622,8.86154 2.56042,4.01253 3.94657,9.57499 4.52433,13.29033 0.14767,6.72574 2.03154,12.71799 5.93376,18.5868 3.50058,5.87475 4.53388,15.13131 3.50703,21.31193 -0.77955,3.10605 0.28371,8.69365 2.45233,12.88731 1.35944,2.63634 4.69952,9.36019 5.07285,14.72302 0.4943,7.1006 -3.59902,10.34769 -3.48903,15.52296 0.039,1.82888 4.82369,9.50669 5.5109,15.5466 0.58798,5.16791 -2.71032,4.96992 -2.69825,10.10405 0.005,2.54915 1.28271,9.04628 0.18138,16.21719 -1.57812,7.65583 -3.39235,6.04087 -15.13378,0.0509 -25.08859,-12.79925 -57.35286,-10.04072 -103.75629,8.871 -30.72341,12.52131 -45.48166,16.00267 -63.05778,14.87489 z m 160.2037,-39.56686 c -3.08208,-3.08207 -5.7335,-9.785 -2.57067,-11.12267 2.07053,-0.73287 5.68989,0.10642 9.04339,2.9583 5.13537,4.36722 6.92964,7.84815 7.65091,6.47737 1.75384,-3.33319 -1.37714,-9.75135 -8.29138,-16.28332 -10.09515,-9.537 -12.81672,-14.71743 -9.77417,-17.30444 2.601,-2.2905 6.50928,1.23212 9.57933,2.89308 10.51494,5.68881 6.92372,0.10221 5.1843,-3.4173 -3.20256,-6.47995 -6.30819,-9.45852 -15.23983,-16.56603 -7.01358,-5.58118 -4.34891,-12.49608 2.59343,-9.34594 5.53565,2.51184 9.18967,3.69723 9.38988,1.39224 1.00063,-11.52014 -12.68379,-23.3108 -14.18833,-24.4626 -11.7058,-7.47413 -11.26268,-15.23145 -2.57003,-13.14831 3.14498,0.75367 8.2692,2.84694 8.21296,0.38985 -0.71577,-9.55089 -6.33471,-11.76966 -15.85132,-18.604 -14.59193,-7.80788 -15.6867,-16.12013 -9.26271,-15.96662 2.65818,0.0635 6.12243,0.53614 6.20196,-2.00917 0.13971,-4.47108 -9.97962,-16.419916 -22.66386,-28.285415 -16.27455,-15.22404 -32.69294,-24.712449 -48.90783,-27.381184 -5.18831,-0.853916 -11.3022,-3.011894 -13.56339,2.767083 -2.07405,5.30071 9.66864,8.348842 15.76855,11.652311 26.1518,14.162837 48.1509,41.297995 56.53244,64.921815 11.15004,31.42706 13.66278,44.48433 15.50121,80.55059 0,0 0.31074,22.09839 0.30012,25.52727 -0.0109,3.42888 3.08811,2.99421 8.14528,4.01311 5.05719,1.01889 7.48936,1.61798 8.06815,1.77018 0.57881,0.15224 2.25508,0.12732 0.71161,-1.41616 z M 96.90231,41.229606 c 0.47894,-1.497674 -1.29345,-6.455055 -2.12477,-8.15336 -0.83133,-1.698306 -5.62353,-10.803394 -6.6757,-5.628307 -1.05217,5.175086 -1.51481,6.396378 -1.85946,9.996462 -0.34466,3.600083 -0.39765,7.412547 4.70058,6.181237 5.09822,-1.23131 5.48042,-0.898357 5.95935,-2.396032 z M 44.9367,192.01966 c -1.65129,-6.57925 0.20544,-10.65658 4.85279,-10.65658 4.65647,0 6.20748,3.59394 4.49521,10.41613 -1.89983,7.56954 -7.47255,7.71287 -9.348,0.24045 z m 40.73609,-75.7534 c 0.36042,-5.73366 4.14601,-4.99002 1.80196,-5.5803 -0.68758,-0.17316 -0.61333,-0.31591 -3.73108,2.01194 -3.47151,2.59198 -6.51182,-1.75055 -6.11335,-3.87509 0.97649,-5.20636 7.88197,-7.99707 13.60064,-7.56003 4.90783,0.37506 10.02326,3.33027 15.24722,6.23595 4.09661,2.27862 6.60274,3.56152 7.56544,5.82297 1.76364,4.14291 -0.20009,6.31544 -6.23797,4.09169 -3.036,-1.79896 -5.44215,-2.71388 -6.68468,-3.08253 -1.57489,-0.46726 -1.3585,-0.503 -1.29528,2.01187 0.14886,5.92046 -5.41918,7.52421 -9.982,6.45219 -2.18438,-0.51322 -4.46953,-1.77805 -4.1709,-6.52866 z"
     id="path842-0"
     inkscape:connector-curvature="0"
     sodipodi:nodetypes="czzssssssssscccsccsssssscsssssssszzzzzsssscsssssssscszzsssssssssscssscsssssccccsssscsssczsssscssssscsccssscssszzccczszzzzssssssssssscsssss" />
</svg>
