<?xml version="1.0" encoding="UTF-8" standalone="no"?>
<svg
   xmlns:dc="http://purl.org/dc/elements/1.1/"
   xmlns:cc="http://creativecommons.org/ns#"
   xmlns:rdf="http://www.w3.org/1999/02/22-rdf-syntax-ns#"
   xmlns:svg="http://www.w3.org/2000/svg"
   xmlns="http://www.w3.org/2000/svg"
   xmlns:xlink="http://www.w3.org/1999/xlink"
   xmlns:sodipodi="http://sodipodi.sourceforge.net/DTD/sodipodi-0.dtd"
   xmlns:inkscape="http://www.inkscape.org/namespaces/inkscape"
   version="1.0"
   width="300.000000pt"
   height="300.000000pt"
   viewBox="0 0 300.000000 300.000000"
   preserveAspectRatio="xMidYMid meet"
   id="svg2"
   inkscape:version="0.92.5 (2060ec1f9f, 2020-04-08)"
   sodipodi:docname="wr.svg">
  <defs
     id="defs12">
    <linearGradient
       inkscape:collect="always"
       id="linearGradient849">
      <stop
         style="stop-color:#fffdf4;stop-opacity:1"
         offset="0"
         id="stop845" />
      <stop
         style="stop-color:#d6d0c2;stop-opacity:1"
         offset="1"
         id="stop847" />
    </linearGradient>
    <filter
       style="color-interpolation-filters:sRGB;"
       inkscape:label="Drawing"
       id="filter18775">
      <feGaussianBlur
         in="SourceGraphic"
         stdDeviation="5.99659"
         result="blur1"
         id="feGaussianBlur18721" />
      <feConvolveMatrix
         in="blur1"
         targetX="1"
         targetY="1"
         order="3 3"
         kernelMatrix="0 250 0 250 -1010 250 0 250 0 "
         result="convolve1"
         id="feConvolveMatrix18723" />
      <feComposite
         in="convolve1"
         in2="convolve1"
         k1="1"
         k2="1"
         k4="0.04"
         operator="arithmetic"
         result="composite1"
         id="feComposite18725" />
      <feColorMatrix
         in="composite1"
         values="0 0 0 0 0 0 0 0 0 0 0 0 0 0 0 -0.2125 -0.7154 -0.0721 1 0 "
         result="color1"
         id="feColorMatrix18727" />
      <feGaussianBlur
         stdDeviation="0.61"
         result="blur2"
         id="feGaussianBlur18729" />
      <feColorMatrix
         values="1 0 0 0 0 0 1 0 0 0 0 0 1 0 0 0 0 0 2.7 -1 "
         result="color2"
         id="feColorMatrix18731" />
      <feFlood
         flood-color="rgb(255,255,255)"
         result="flood1"
         id="feFlood18733" />
      <feBlend
         in2="color2"
         mode="multiply"
         result="blend1"
         id="feBlend18735" />
      <feComponentTransfer
         in="blend1"
         result="component1"
         id="feComponentTransfer18743">
        <feFuncR
           type="discrete"
           tableValues="0 1 1 1"
           id="feFuncR18737" />
        <feFuncG
           type="discrete"
           tableValues="0 1 1 1"
           id="feFuncG18739" />
        <feFuncB
           type="discrete"
           tableValues="0 1 1 1"
           id="feFuncB18741" />
      </feComponentTransfer>
      <feGaussianBlur
         stdDeviation="0.61"
         result="blur3"
         id="feGaussianBlur18745" />
      <feColorMatrix
         in="blur3"
         values="0 0 0 0 0 0 0 0 0 0 0 0 0 0 0 -0.2125 -0.7154 -0.0721 1 0 "
         result="color3"
         id="feColorMatrix18747" />
      <feColorMatrix
         values="1 0 0 0 0 0 1 0 0 0 0 0 1 0 0 0 0 0 1.9 -0.5 "
         result="color4"
         id="feColorMatrix18749" />
      <feFlood
         flood-color="rgb(0,0,0)"
         result="flood2"
         id="feFlood18751" />
      <feComposite
         in="flood2"
         in2="color4"
         operator="in"
         result="composite2"
         id="feComposite18753" />
      <feComposite
         in="composite2"
         in2="composite2"
         operator="arithmetic"
         k2="1"
         result="composite3"
         id="feComposite18755" />
      <feOffset
         dx="0"
         dy="0"
         result="offset1"
         id="feOffset18757" />
      <feFlood
         in="color4"
         flood-color="rgb(66,66,66)"
         result="flood3"
         id="feFlood18759" />
      <feComposite
         in="flood3"
         in2="color4"
         operator="out"
         result="composite4"
         id="feComposite18761" />
      <feComposite
         in="composite4"
         in2="composite4"
         operator="arithmetic"
         k2="1"
         result="composite5"
         id="feComposite18763" />
      <feMerge
         result="merge1"
         id="feMerge18769">
        <feMergeNode
           in="composite5"
           id="feMergeNode18765" />
        <feMergeNode
           in="offset1"
           id="feMergeNode18767" />
      </feMerge>
      <feColorMatrix
         values="1 0 0 0 0 0 1 0 0 0 0 0 1 0 0 0 0 0 1.3 0 "
         result="color5"
         flood-opacity="0.56"
         id="feColorMatrix18771" />
      <feComposite
         in="color5"
         in2="SourceGraphic"
         operator="in"
         result="composite8"
         id="feComposite18773" />
    </filter>
    <linearGradient
       inkscape:collect="always"
       xlink:href="#linearGradient849"
       id="linearGradient851"
       x1="58.517818"
       y1="153.30578"
       x2="238.74829"
       y2="153.30578"
       gradientUnits="userSpaceOnUse" />
  </defs>
  <sodipodi:namedview
     pagecolor="#ffffff"
     bordercolor="#666666"
     borderopacity="1"
     objecttolerance="10"
     gridtolerance="10"
     guidetolerance="10"
     inkscape:pageopacity="0"
     inkscape:pageshadow="2"
     inkscape:window-width="1397"
     inkscape:window-height="900"
     id="namedview10"
     showgrid="false"
     inkscape:zoom="1.4483916"
     inkscape:cx="97.423677"
     inkscape:cy="278.40336"
     inkscape:window-x="36"
     inkscape:window-y="53"
     inkscape:window-maximized="0"
     inkscape:current-layer="svg2"
     inkscape:pagecheckerboard="true">
    <inkscape:grid
       type="xygrid"
       id="grid842" />
  </sodipodi:namedview>
  <metadata
     id="metadata4">
Created by potrace 1.12, written by Peter Selinger 2001-2015
<rdf:RDF>
  <cc:Work
     rdf:about="">
    <dc:format>image/svg+xml</dc:format>
    <dc:type
       rdf:resource="http://purl.org/dc/dcmitype/StillImage" />
    <dc:title />
  </cc:Work>
</rdf:RDF>
</metadata>
  <path
     style="display:inline;opacity:1;fill:url(#linearGradient851);fill-opacity:1;stroke-width:2.36101866"
     d="m 232.28244,278.49692 c 2.91556,-0.52819 3.92989,-4.22815 5.2167,-12.97643 1.55233,-10.55336 1.87514,-47.89173 -0.2894,-50.05626 -1.42332,-1.42332 -6.0911,-1.83038 -11.55091,-2.20607 -9.03012,-0.86501 -9.9276,0.5894 -10.75727,-8.54272 -0.0123,-4.54498 -0.85676,-25.74407 -2.20144,-40.08554 -1.28576,-13.71296 -2.23571,-29.25715 -3.98989,-39.52746 -1.57726,-15.89892 -6.5022,-17.78626 2.03769,-19.30958 3.21177,-0.53695 17.80298,-13.274918 26.4638,-21.473067 2.05926,-1.949241 1.41233,-23.975443 1.41386,-35.494052 -0.15557,-19.380183 1.57034,-21.108392 -6.08989,-21.411325 -5.59475,-0.03803 -24.07244,-0.03257 -27.00777,0.210118 -5.36242,0.443355 -4.75094,4.534119 -5.0164,14.951779 -0.80308,15.389747 2.09523,12.860023 -10.3141,13.117582 -5.40284,-0.05777 -10.00802,-0.272079 -13.76863,-0.10147 -5.24967,0.238164 -4.36126,-1.725249 -4.37901,-11.033294 -0.23797,-12.309522 0.45061,-16.255652 -2.65021,-16.449464 -6.58197,-0.548145 -36.35746,-1.684026 -41.93587,-0.129454 -2.5447,1.267992 -1.69618,9.550615 -2.0868,16.449464 0.33599,13.405156 1.20517,11.22162 -11.20856,11.423415 -4.22559,-0.135887 -8.60179,-0.242334 -13.50022,-0.467766 -4.690027,-0.21584 -3.415967,-1.421814 -3.556547,-13.06793 -0.0548,-16.31215 -0.46963,-14.509413 -15.60487,-14.89409 -5.17459,-0.07073 -12.69539,0.160036 -15.38475,0.167275 -8.44304,0.02271 -6.79505,0.887568 -7.14534,22.188133 0.0977,11.326271 -0.72294,32.90338 1.8595,35.208881 9.60784,8.577443 22.32237,19.635995 25.26914,20.520005 9.56022,1.75988 4.64265,5.11004 3.09573,17.30217 -1.47436,10.37517 -3.01246,25.52769 -4.10585,40.59279 -1.04271,14.36659 -2.29768,36.76789 -2.31008,41.31287 -0.0219,8.02136 -1.03029,8.11226 -10.66627,8.77531 -5.45983,0.37568 -10.60947,0.62334 -11.69401,1.86316 -1.27159,1.45366 -1.908771,15.06436 -1.906951,30.47203 0.325635,19.16659 2.315805,29.72099 4.699236,31.91268 2.779486,2.68406 31.830843,1.30627 86.569942,1.46257 22.93472,0.12377 60.27851,0.19202 78.74239,-0.24659 0,0 0.83749,0.0705 3.75305,-0.45767 z"
     id="path851"
     inkscape:connector-curvature="0"
     sodipodi:nodetypes="zssccsccsccsccscccccsccscsccsccsccccz" />
  <path
     style="display:inline;opacity:1;fill:#000000;fill-opacity:1;stroke-width:2.36101866"
     d="m 232.92322,278.49692 c 1.0848,-0.57396 3.28912,-4.22816 4.57593,-12.97644 1.55233,-10.55336 1.87513,-47.89173 -0.2894,-50.05626 -1.42332,-1.42332 -6.09111,-2.154 -11.55091,-2.52969 -10.90721,-1.31811 -9.9276,0.91302 -10.75727,-8.2191 -0.0123,-4.54497 -0.85677,-25.74406 -2.20144,-40.08553 -1.28576,-13.71296 -2.23571,-29.25715 -3.9899,-39.52746 -1.57725,-15.89892 -6.5022,-17.78626 2.03769,-19.30958 3.21177,-0.53695 17.80299,-13.274918 26.46381,-21.473067 2.05926,-1.949241 1.41233,-23.975442 1.41386,-35.494046 -0.15557,-19.38019 1.57033,-21.1084 -6.0899,-21.41133 -5.59474,-0.038 -24.07243,-0.0326 -27.00777,0.21012 -5.36241,0.44335 -4.75093,4.53412 -5.01639,14.95178 -0.80308,15.389744 2.09523,12.860019 -10.3141,13.117578 -5.40284,-0.05777 -10.00802,-0.272079 -13.76863,-0.101469 -5.24967,0.238164 -4.36126,-1.725249 -4.37901,-11.033289 -0.23797,-12.30953 0.45061,-16.25566 -2.65021,-16.44947 -6.58197,-0.54814 -36.35746,-1.68402 -41.93587,-0.12945 -2.5447,1.26799 -1.69618,9.55061 -2.0868,16.44946 0.33599,13.405156 1.20517,11.221621 -11.20856,11.423416 -4.22558,-0.135888 -8.60178,-0.242334 -13.50021,-0.467766 -4.690032,-0.215841 -3.415972,-1.421814 -3.556552,-13.06793 -0.0548,-16.31215 -0.46963,-14.50941 -15.60487,-14.89409 -5.174589,-0.0707 -12.695389,0.16004 -15.384749,0.16728 -8.44304,0.0227 -6.79505,0.88756 -7.14534,22.18813 0.0977,11.326269 -0.72294,32.903377 1.8595,35.208878 9.60784,8.577443 22.322369,19.635995 25.269139,20.520005 9.56022,1.75988 4.64265,5.11004 3.09573,17.30217 -1.47436,10.37517 -3.01246,25.52768 -4.10585,40.59278 -1.04271,14.3666 -2.29768,36.7679 -2.31008,41.31288 -0.0219,8.02136 0.846792,7.07663 -10.66627,8.06331 -5.330375,0.50514 -10.609469,1.33533 -11.694009,2.57516 -1.27159,1.45366 -1.908771,15.06436 -1.906951,30.47203 0.325635,19.16658 1.949654,30.08713 4.333085,32.27883 2.779486,2.68405 32.563144,1.67241 87.302237,1.82871 22.93472,0.12378 60.09544,-0.0826 78.55932,-0.52119 0,0 3.12594,-0.34142 4.21074,-0.91536 z M 71.938038,266.02337 c -1.385855,-3.61788 -2.613738,-38.20605 -0.786444,-41.18472 1.338915,-2.18256 17.105814,-2.29182 33.727346,-2.67544 37.17738,-0.85808 76.28644,-1.26302 109.013,0.80085 13.38247,0.84394 12.56944,1.01488 13.36167,8.23675 0.48195,4.39347 -0.12648,19.53646 -0.58268,25.85538 -0.80455,11.14429 -1.19479,9.15852 -7.755,9.8647 -18.1347,-0.29056 -111.75221,0.55691 -139.274188,0.2232 -4.642201,-0.0563 -7.042557,0.0329 -7.703704,-1.12072 z m 25.04004,-54.92481 c -5.74603,0.27338 2.62103,-75.43067 5.865122,-93.70997 1.59542,-8.98959 -0.0732,-9.9351 14.15889,-9.95866 32.15694,-0.0532 55.65065,0.21545 68.65568,0.23384 8.46736,0.0119 7.84941,1.35371 9.34284,10.11433 5.46226,36.6158 10.28655,92.79264 6.86198,93.32046 -30.81904,-0.58719 -75.00441,-1.11108 -104.884512,0 z M 80.681468,86.58293 c -10.913159,-7.776264 -9.75259,-11.428434 -9.90137,-29.8905 -0.11592,-14.385243 -0.441882,-17.761763 2.584491,-17.975353 1.673449,-0.0204 4.41006,-0.21092 6.173229,-0.14374 7.85171,0.29916 6.77926,-0.65278 6.6179,13.35465 -0.17423,15.125007 2.03232,15.007719 10.85314,15.270381 8.820832,0.262665 25.253142,0.104388 29.366292,0.0301 10.44092,0.01765 9.565,-1.299615 9.68,-16.196281 0.36413,-11.99019 0.39018,-12.48915 5.27478,-12.65176 4.13139,-0.13753 6.5757,-0.0278 13.33179,0.17574 9.38108,0.29757 6.74417,0.79156 6.97438,13.03452 0.055,15.460388 -0.40745,15.435587 8.98066,15.574275 12.69585,0.178484 21.62785,0.06015 34.06182,0.05022 7.48138,-0.08343 6.70058,-4.258639 6.75493,-15.732905 0.0518,-10.93548 -0.69225,-12.76643 3.54122,-12.8804 2.20981,-0.0595 5.06491,0.18314 8.47791,0.2566 4.74647,0.10202 3.80695,2.48081 3.60943,17.934373 -0.26927,21.067668 0.65869,19.552735 -8.04893,27.590145 -9.10331,6.314564 -12.6295,10.430127 -17.6221,11.234832 -5.69575,0.918037 -73.11881,0.989211 -97.27492,0.53608 C 91.338728,96.103817 89.730118,93.708182 80.681468,86.58293 Z"
     id="path851-6"
     inkscape:connector-curvature="0"
     sodipodi:nodetypes="zssccsccsccsccscccccsccscsccsccscccczcssssscsccsscccccccszsccscccssssccccc" />
</svg>
