<?xml version="1.0" encoding="UTF-8" standalone="no"?>
<svg
   xmlns:dc="http://purl.org/dc/elements/1.1/"
   xmlns:cc="http://creativecommons.org/ns#"
   xmlns:rdf="http://www.w3.org/1999/02/22-rdf-syntax-ns#"
   xmlns:svg="http://www.w3.org/2000/svg"
   xmlns="http://www.w3.org/2000/svg"
   xmlns:xlink="http://www.w3.org/1999/xlink"
   xmlns:sodipodi="http://sodipodi.sourceforge.net/DTD/sodipodi-0.dtd"
   xmlns:inkscape="http://www.inkscape.org/namespaces/inkscape"
   version="1.0"
   width="300.000000pt"
   height="300.000000pt"
   viewBox="0 0 300.000000 300.000000"
   preserveAspectRatio="xMidYMid meet"
   id="svg2"
   inkscape:version="0.92.5 (2060ec1f9f, 2020-04-08)"
   sodipodi:docname="wr.svg">
  <defs
     id="defs12">
    <linearGradient
       inkscape:collect="always"
       id="linearGradient849">
      <stop
         style="stop-color:#fffdf4;stop-opacity:1"
         offset="0"
         id="stop845" />
      <stop
         style="stop-color:#d6d0c2;stop-opacity:1"
         offset="1"
         id="stop847" />
    </linearGradient>
    <filter
       style="color-interpolation-filters:sRGB;"
       inkscape:label="Drawing"
       id="filter18775">
      <feGaussianBlur
         in="SourceGraphic"
         stdDeviation="5.99659"
         result="blur1"
         id="feGaussianBlur18721" />
      <feConvolveMatrix
         in="blur1"
         targetX="1"
         targetY="1"
         order="3 3"
         kernelMatrix="0 250 0 250 -1010 250 0 250 0 "
         result="convolve1"
         id="feConvolveMatrix18723" />
      <feComposite
         in="convolve1"
         in2="convolve1"
         k1="1"
         k2="1"
         k4="0.04"
         operator="arithmetic"
         result="composite1"
         id="feComposite18725" />
      <feColorMatrix
         in="composite1"
         values="0 0 0 0 0 0 0 0 0 0 0 0 0 0 0 -0.2125 -0.7154 -0.0721 1 0 "
         result="color1"
         id="feColorMatrix18727" />
      <feGaussianBlur
         stdDeviation="0.61"
         result="blur2"
         id="feGaussianBlur18729" />
      <feColorMatrix
         values="1 0 0 0 0 0 1 0 0 0 0 0 1 0 0 0 0 0 2.7 -1 "
         result="color2"
         id="feColorMatrix18731" />
      <feFlood
         flood-color="rgb(255,255,255)"
         result="flood1"
         id="feFlood18733" />
      <feBlend
         in2="color2"
         mode="multiply"
         result="blend1"
         id="feBlend18735" />
      <feComponentTransfer
         in="blend1"
         result="component1"
         id="feComponentTransfer18743">
        <feFuncR
           type="discrete"
           tableValues="0 1 1 1"
           id="feFuncR18737" />
        <feFuncG
           type="discrete"
           tableValues="0 1 1 1"
           id="feFuncG18739" />
        <feFuncB
           type="discrete"
           tableValues="0 1 1 1"
           id="feFuncB18741" />
      </feComponentTransfer>
      <feGaussianBlur
         stdDeviation="0.61"
         result="blur3"
         id="feGaussianBlur18745" />
      <feColorMatrix
         in="blur3"
         values="0 0 0 0 0 0 0 0 0 0 0 0 0 0 0 -0.2125 -0.7154 -0.0721 1 0 "
         result="color3"
         id="feColorMatrix18747" />
      <feColorMatrix
         values="1 0 0 0 0 0 1 0 0 0 0 0 1 0 0 0 0 0 1.9 -0.5 "
         result="color4"
         id="feColorMatrix18749" />
      <feFlood
         flood-color="rgb(0,0,0)"
         result="flood2"
         id="feFlood18751" />
      <feComposite
         in="flood2"
         in2="color4"
         operator="in"
         result="composite2"
         id="feComposite18753" />
      <feComposite
         in="composite2"
         in2="composite2"
         operator="arithmetic"
         k2="1"
         result="composite3"
         id="feComposite18755" />
      <feOffset
         dx="0"
         dy="0"
         result="offset1"
         id="feOffset18757" />
      <feFlood
         in="color4"
         flood-color="rgb(66,66,66)"
         result="flood3"
         id="feFlood18759" />
      <feComposite
         in="flood3"
         in2="color4"
         operator="out"
         result="composite4"
         id="feComposite18761" />
      <feComposite
         in="composite4"
         in2="composite4"
         operator="arithmetic"
         k2="1"
         result="composite5"
         id="feComposite18763" />
      <feMerge
         result="merge1"
         id="feMerge18769">
        <feMergeNode
           in="composite5"
           id="feMergeNode18765" />
        <feMergeNode
           in="offset1"
           id="feMergeNode18767" />
      </feMerge>
      <feColorMatrix
         values="1 0 0 0 0 0 1 0 0 0 0 0 1 0 0 0 0 0 1.3 0 "
         result="color5"
         flood-opacity="0.56"
         id="feColorMatrix18771" />
      <feComposite
         in="color5"
         in2="SourceGraphic"
         operator="in"
         result="composite8"
         id="feComposite18773" />
    </filter>
    <linearGradient
       inkscape:collect="always"
       xlink:href="#linearGradient849"
       id="linearGradient851"
       x1="58.517818"
       y1="153.30578"
       x2="238.74829"
       y2="153.30578"
       gradientUnits="userSpaceOnUse" />
  </defs>
  <sodipodi:namedview
     pagecolor="#ffffff"
     bordercolor="#666666"
     borderopacity="1"
     objecttolerance="10"
     gridtolerance="10"
     guidetolerance="10"
     inkscape:pageopacity="0"
     inkscape:pageshadow="2"
     inkscape:window-width="1397"
     inkscape:window-height="900"
     id="namedview10"
     showgrid="false"
     inkscape:zoom="2.048335"
     inkscape:cx="151.32901"
     inkscape:cy="194.04623"
     inkscape:window-x="36"
     inkscape:window-y="53"
     inkscape:window-maximized="0"
     inkscape:current-layer="svg2"
     inkscape:pagecheckerboard="true">
    <inkscape:grid
       type="xygrid"
       id="grid842" />
  </sodipodi:namedview>
  <metadata
     id="metadata4">
Created by potrace 1.12, written by Peter Selinger 2001-2015
<rdf:RDF>
  <cc:Work
     rdf:about="">
    <dc:format>image/svg+xml</dc:format>
    <dc:type
       rdf:resource="http://purl.org/dc/dcmitype/StillImage" />
    <dc:title />
  </cc:Work>
</rdf:RDF>
</metadata>
  <path
     style="display:inline;opacity:1;fill:url(#linearGradient851);fill-opacity:1;stroke-width:2.36101866"
     d="m 232.28244,278.49692 c 2.91556,-0.52819 3.92989,-4.22815 5.2167,-12.97643 1.55233,-10.55336 1.87514,-47.89173 -0.2894,-50.05626 -1.42332,-1.42332 -6.0911,-1.83038 -11.55091,-2.20607 -9.03012,-0.86501 -9.9276,0.5894 -10.75727,-8.54272 -0.0123,-4.54498 -0.85676,-25.74407 -2.20144,-40.08554 -1.28576,-13.71296 -2.23571,-29.25715 -3.98989,-39.52746 -1.57726,-15.89892 -6.5022,-17.78626 2.03769,-19.30958 3.21177,-0.53695 17.80298,-13.274918 26.4638,-21.473067 2.05926,-1.949241 1.41233,-23.975443 1.41386,-35.494052 -0.15557,-19.380183 1.57034,-21.108392 -6.08989,-21.411325 -5.59475,-0.03803 -24.07244,-0.03257 -27.00777,0.210118 -5.36242,0.443355 -4.75094,4.534119 -5.0164,14.951779 -0.80308,15.389747 2.09523,12.860023 -10.3141,13.117582 -5.40284,-0.05777 -10.00802,-0.272079 -13.76863,-0.10147 -5.24967,0.238164 -4.36126,-1.725249 -4.37901,-11.033294 -0.23797,-12.309522 0.45061,-16.255652 -2.65021,-16.449464 -6.58197,-0.548145 -36.35746,-1.684026 -41.93587,-0.129454 -2.5447,1.267992 -1.69618,9.550615 -2.0868,16.449464 0.33599,13.405156 1.20517,11.22162 -11.20856,11.423415 -4.22559,-0.135887 -8.60179,-0.242334 -13.50022,-0.467766 -4.690027,-0.21584 -3.415967,-1.421814 -3.556547,-13.06793 -0.0548,-16.31215 -0.46963,-14.509413 -15.60487,-14.89409 -5.17459,-0.07073 -12.69539,0.160036 -15.38475,0.167275 -8.44304,0.02271 -6.79505,0.887568 -7.14534,22.188133 0.0977,11.326271 -0.72294,32.90338 1.8595,35.208881 9.60784,8.577443 22.32237,19.635995 25.26914,20.520005 9.56022,1.75988 4.64265,5.11004 3.09573,17.30217 -1.47436,10.37517 -3.01246,25.52769 -4.10585,40.59279 -1.04271,14.36659 -2.29768,36.76789 -2.31008,41.31287 -0.0219,8.02136 -1.03029,8.11226 -10.66627,8.77531 -5.45983,0.37568 -10.60947,0.62334 -11.69401,1.86316 -1.27159,1.45366 -1.908771,15.06436 -1.906951,30.47203 0.325635,19.16659 2.315805,29.72099 4.699236,31.91268 2.779486,2.68406 31.830843,1.30627 86.569942,1.46257 22.93472,0.12377 60.27851,0.19202 78.74239,-0.24659 0,0 0.83749,0.0705 3.75305,-0.45767 z"
     id="path851"
     inkscape:connector-curvature="0"
     sodipodi:nodetypes="zssccsccsccsccscccccsccscsccsccsccccz" />
  <path
     sodipodi:nodetypes="zssccsccsccsccscccccsccscsccsccscccczcssssscsccsscccccccszsccscccssssccccc"
     inkscape:connector-curvature="0"
     id="path843"
     d="m 232.28244,278.49692 c 2.91556,-0.52819 3.92989,-4.22815 5.2167,-12.97643 1.55233,-10.55336 1.87514,-47.89173 -0.2894,-50.05626 -1.42332,-1.42332 -6.0911,-1.83038 -11.55091,-2.20607 -9.03012,-0.86501 -9.9276,0.5894 -10.75727,-8.54272 -0.0123,-4.54498 -0.85676,-25.74407 -2.20144,-40.08554 -1.28576,-13.71296 -2.23571,-29.25715 -3.98989,-39.52746 -1.57726,-15.89892 -6.5022,-17.78626 2.03769,-19.30958 3.21177,-0.53695 17.80298,-13.274918 26.4638,-21.473067 2.05926,-1.949241 1.41233,-23.975443 1.41386,-35.494052 -0.15557,-19.380183 1.57034,-21.108392 -6.08989,-21.411325 -5.59475,-0.03803 -24.07244,-0.03257 -27.00777,0.210118 -5.36242,0.443355 -4.75094,4.534119 -5.0164,14.951779 -0.80308,15.389747 2.09523,12.860023 -10.3141,13.117582 -5.40284,-0.05777 -10.00802,-0.272079 -13.76863,-0.10147 -5.24967,0.238164 -4.36126,-1.725249 -4.37901,-11.033294 -0.23797,-12.309522 0.45061,-16.255652 -2.65021,-16.449464 -6.58197,-0.548145 -36.35746,-1.684026 -41.93587,-0.129454 -2.5447,1.267992 -1.69618,9.550615 -2.0868,16.449464 0.33599,13.405156 1.20517,11.22162 -11.20856,11.423415 -4.22559,-0.135887 -8.60179,-0.242334 -13.50022,-0.467766 -4.690027,-0.21584 -3.415967,-1.421814 -3.556547,-13.06793 -0.0548,-16.31215 -0.46963,-14.509413 -15.60487,-14.89409 -5.17459,-0.07073 -12.69539,0.160036 -15.38475,0.167275 -8.44304,0.02271 -6.79505,0.887568 -7.14534,22.188133 0.0977,11.326271 -0.72294,32.90338 1.8595,35.208881 9.60784,8.577443 22.32237,19.635995 25.26914,20.520005 9.56022,1.75988 4.64265,5.11004 3.09573,17.30217 -1.47436,10.37517 -3.01246,25.52769 -4.10585,40.59279 -1.04271,14.36659 -2.29768,36.76789 -2.31008,41.31287 -0.0219,8.02136 -1.03029,8.11226 -10.66627,8.77531 -5.45983,0.37568 -10.60947,0.62334 -11.69401,1.86316 -1.27159,1.45366 -1.908771,15.06436 -1.906951,30.47203 0.325635,19.16659 2.315805,29.72099 4.699236,31.91268 2.779486,2.68406 31.830843,1.30627 86.569942,1.46257 22.93472,0.12377 60.27851,0.19202 78.74239,-0.24659 0,0 0.83749,0.0705 3.75305,-0.45767 z M 71.938022,266.02337 c -2.582351,-3.87678 -3.390462,-38.20604 -1.563167,-41.18471 1.338915,-2.18256 17.882538,-2.29182 34.504075,-2.67545 37.17738,-0.85807 76.24938,-0.55293 109.013,0.80085 14.1592,0.58504 13.54496,0.23817 14.07827,7.97784 0.30383,4.40938 -0.20235,19.6123 -0.84158,26.1143 -1.09321,11.11969 -1.65249,9.80579 -8.21269,10.51197 -18.00526,0.74506 -111.75223,0.82501 -139.274203,-0.42407 -4.637769,-0.21048 -7.042558,0.0329 -7.703705,-1.12073 z m 25.040041,-54.92481 c -5.74603,0.27338 2.62103,-75.43067 5.865117,-93.70997 1.59542,-8.98959 -0.0732,-9.9351 14.1589,-9.95866 32.15694,-0.0532 55.65065,0.21545 68.65568,0.23384 8.46737,0.0119 7.84941,1.35371 9.34284,10.11433 5.46226,36.6158 10.28655,92.79264 6.86198,93.32046 -30.81904,-0.58719 -75.00441,-1.11107 -104.884517,0 z M 80.681453,86.58293 c -10.91316,-7.776264 -9.75259,-11.428434 -9.90137,-29.8905 -0.11592,-14.38524 -0.99111,-17.761761 2.58449,-17.975352 1.67345,-0.02041 4.41006,-0.210923 6.17323,-0.143745 7.85171,0.299159 6.77926,-0.652776 6.6179,13.354654 -0.17423,15.125007 2.03232,15.007719 10.85314,15.270381 8.820827,0.262665 25.253147,0.104388 29.366287,0.0301 10.44093,0.01765 9.56501,-1.299614 9.68001,-16.196286 0.36412,-11.990183 0.39018,-12.489145 5.27478,-12.651751 4.13139,-0.13753 6.5757,-0.02784 13.33179,0.175737 9.38108,0.297566 6.74417,0.791563 6.97438,13.034514 0.055,15.460393 -0.40745,15.435593 8.98066,15.574281 12.69585,0.178483 21.62785,0.06015 34.06182,0.05022 7.48138,-0.08343 6.70058,-4.25864 6.75493,-15.732909 0.0518,-10.935475 -0.69225,-12.766431 3.54122,-12.880402 2.20981,-0.05949 5.06491,0.183148 8.47791,0.256608 4.74647,0.102012 3.80695,2.480807 3.60943,17.93437 -0.26927,21.067669 0.65869,19.552736 -8.04893,27.590146 -9.10331,6.314561 -12.6295,10.430124 -17.6221,11.234829 -5.69575,0.918037 -73.11881,0.989211 -97.27493,0.536081 C 91.338713,96.103816 89.730103,93.708183 80.681453,86.58293 Z"
     style="display:inline;opacity:1;fill:#000000;fill-opacity:1;stroke-width:2.36101866" />
</svg>
