<?xml version="1.0" encoding="UTF-8"?>
<!DOCTYPE svg PUBLIC "-//W3C//DTD SVG 1.1//EN" "http://www.w3.org/Graphics/SVG/1.1/DTD/svg11.dtd">
<svg version="1.2" width="108mm" height="108mm" viewBox="0 0 10800 10800" preserveAspectRatio="xMidYMid" fill-rule="evenodd" stroke-width="28.222" stroke-linejoin="round" xmlns="http://www.w3.org/2000/svg" xmlns:ooo="http://xml.openoffice.org/svg/export" xmlns:xlink="http://www.w3.org/1999/xlink" xmlns:presentation="http://sun.com/xmlns/staroffice/presentation" xmlns:smil="http://www.w3.org/2001/SMIL20/" xmlns:anim="urn:oasis:names:tc:opendocument:xmlns:animation:1.0" xmlns:svg="urn:oasis:names:tc:opendocument:xmlns:svg-compatible:1.0" xml:space="preserve">
 <defs class="ClipPathGroup">
  <clipPath id="presentation_clip_path" clipPathUnits="userSpaceOnUse">
   <rect x="0" y="0" width="10800" height="10800"/>
  </clipPath>
  <clipPath id="presentation_clip_path_shrink" clipPathUnits="userSpaceOnUse">
   <rect x="10" y="10" width="10779" height="10779"/>
  </clipPath>
 </defs>
 <defs class="EmbeddedBulletChars">
  <g id="bullet-char-template-57356" transform="scale(0.00048828125,-0.00048828125)">
   <path d="M 580,1141 L 1163,571 580,0 -4,571 580,1141 Z"/>
  </g>
  <g id="bullet-char-template-57354" transform="scale(0.00048828125,-0.00048828125)">
   <path d="M 8,1128 L 1137,1128 1137,0 8,0 8,1128 Z"/>
  </g>
  <g id="bullet-char-template-10146" transform="scale(0.00048828125,-0.00048828125)">
   <path d="M 174,0 L 602,739 174,1481 1456,739 174,0 Z M 1358,739 L 309,1346 659,739 1358,739 Z"/>
  </g>
  <g id="bullet-char-template-10132" transform="scale(0.00048828125,-0.00048828125)">
   <path d="M 2015,739 L 1276,0 717,0 1260,543 174,543 174,936 1260,936 717,1481 1274,1481 2015,739 Z"/>
  </g>
  <g id="bullet-char-template-10007" transform="scale(0.00048828125,-0.00048828125)">
   <path d="M 0,-2 C -7,14 -16,27 -25,37 L 356,567 C 262,823 215,952 215,954 215,979 228,992 255,992 264,992 276,990 289,987 310,991 331,999 354,1012 L 381,999 492,748 772,1049 836,1024 860,1049 C 881,1039 901,1025 922,1006 886,937 835,863 770,784 769,783 710,716 594,584 L 774,223 C 774,196 753,168 711,139 L 727,119 C 717,90 699,76 672,76 641,76 570,178 457,381 L 164,-76 C 142,-110 111,-127 72,-127 30,-127 9,-110 8,-76 1,-67 -2,-52 -2,-32 -2,-23 -1,-13 0,-2 Z"/>
  </g>
  <g id="bullet-char-template-10004" transform="scale(0.00048828125,-0.00048828125)">
   <path d="M 285,-33 C 182,-33 111,30 74,156 52,228 41,333 41,471 41,549 55,616 82,672 116,743 169,778 240,778 293,778 328,747 346,684 L 369,508 C 377,444 397,411 428,410 L 1163,1116 C 1174,1127 1196,1133 1229,1133 1271,1133 1292,1118 1292,1087 L 1292,965 C 1292,929 1282,901 1262,881 L 442,47 C 390,-6 338,-33 285,-33 Z"/>
  </g>
  <g id="bullet-char-template-9679" transform="scale(0.00048828125,-0.00048828125)">
   <path d="M 813,0 C 632,0 489,54 383,161 276,268 223,411 223,592 223,773 276,916 383,1023 489,1130 632,1184 813,1184 992,1184 1136,1130 1245,1023 1353,916 1407,772 1407,592 1407,412 1353,268 1245,161 1136,54 992,0 813,0 Z"/>
  </g>
  <g id="bullet-char-template-8226" transform="scale(0.00048828125,-0.00048828125)">
   <path d="M 346,457 C 273,457 209,483 155,535 101,586 74,649 74,723 74,796 101,859 155,911 209,963 273,989 346,989 419,989 480,963 531,910 582,859 608,796 608,723 608,648 583,586 532,535 482,483 420,457 346,457 Z"/>
  </g>
  <g id="bullet-char-template-8211" transform="scale(0.00048828125,-0.00048828125)">
   <path d="M -4,459 L 1135,459 1135,606 -4,606 -4,459 Z"/>
  </g>
  <g id="bullet-char-template-61548" transform="scale(0.00048828125,-0.00048828125)">
   <path d="M 173,740 C 173,903 231,1043 346,1159 462,1274 601,1332 765,1332 928,1332 1067,1274 1183,1159 1299,1043 1357,903 1357,740 1357,577 1299,437 1183,322 1067,206 928,148 765,148 601,148 462,206 346,322 231,437 173,577 173,740 Z"/>
  </g>
 </defs>
 <g>
  <g id="id2" class="Master_Slide">
   <g id="bg-id2" class="Background"/>
   <g id="bo-id2" class="BackgroundObjects"/>
  </g>
 </g>
 <g class="SlideGroup">
  <g>
   <g id="container-id1">
    <g id="id1" class="Slide" clip-path="url(#presentation_clip_path)">
     <g class="Page">
      <g class="com.sun.star.drawing.CustomShape">
       <g id="id3">
        <rect class="BoundingBox" stroke="none" fill="none" x="0" y="0" width="10801" height="10801"/>
       </g>
      </g>
      <g class="com.sun.star.drawing.ClosedBezierShape">
       <g id="id4">
        <rect class="BoundingBox" stroke="none" fill="none" x="8151" y="8205" width="37" height="41"/>
        <path fill="rgb(0,0,0)" stroke="none" d="M 8187,8205 L 8151,8244 8186,8205 C 8187,8205 8187,8205 8187,8205 Z"/>
       </g>
      </g>
      <g class="com.sun.star.drawing.ClosedBezierShape">
       <g id="id5">
        <rect class="BoundingBox" stroke="none" fill="none" x="1222" y="545" width="8356" height="9499"/>
        <path fill="rgb(255,255,255)" stroke="none" d="M 2380,9867 L 2379,9867 C 2366,9867 2352,9865 2338,9862 2325,9858 2312,9853 2300,9846 2288,9839 2276,9830 2266,9820 2257,9811 2249,9800 2242,9789 L 2241,9788 2241,9787 C 2234,9775 2229,9763 2225,9750 2222,9736 2220,9723 2220,9709 L 2220,9662 C 2220,9433 2234,9186 2256,8953 L 2256,8949 C 2256,8945 2257,8940 2258,8936 2269,8775 2311,8635 2373,8513 2436,8389 2521,8284 2615,8198 2709,8112 2813,8045 2917,7995 2974,7968 3029,7946 3085,7928 L 2990,7740 2878,7532 2624,7095 2076,6195 1819,5748 1706,5535 1607,5333 1562,5232 1522,5134 1487,5040 1458,4950 1432,4854 1422,4808 1413,4764 1407,4720 1402,4678 1399,4638 1398,4599 1399,4562 1401,4527 1406,4493 1412,4460 1416,4442 1420,4424 1425,4407 1431,4390 1437,4374 1443,4358 1450,4342 1458,4326 1468,4308 1478,4290 1501,4255 1527,4220 1555,4185 1584,4154 1615,4123 1648,4092 1684,4062 1719,4035 1755,4008 1835,3955 1923,3903 2018,3853 2114,3808 2217,3764 2439,3680 2684,3602 2948,3530 3223,3468 3511,3412 C 3714,3382 3916,3342 4121,3323 4310,3305 4500,3306 4690,3298 L 4704,2990 4158,3004 4156,3004 4149,3004 C 4147,3004 4146,3004 4144,3003 L 4137,3003 C 4136,3003 4134,3002 4133,3002 L 4126,3001 C 4124,3001 4123,3000 4121,3000 L 4114,2999 C 4113,2998 4112,2998 4110,2997 L 4104,2995 C 4102,2995 4101,2994 4099,2994 L 4093,2992 C 4092,2991 4090,2990 4089,2990 L 4083,2987 C 4081,2987 4080,2986 4079,2985 L 4073,2982 C 4072,2982 4071,2981 4070,2981 4069,2980 4068,2979 4066,2978 L 4061,2975 C 4060,2974 4059,2973 4058,2973 L 4052,2968 C 4051,2968 4050,2967 4049,2966 L 4044,2962 4041,2959 4035,2954 4032,2951 4027,2946 4024,2943 4020,2937 C 4019,2936 4018,2935 4017,2933 L 4013,2928 C 4012,2926 4011,2925 4010,2924 L 4006,2918 C 4006,2917 4006,2917 4005,2916 4005,2915 4004,2915 4004,2914 L 4001,2908 C 4000,2906 4000,2905 3999,2904 L 3996,2898 C 3996,2896 3995,2895 3995,2894 L 3992,2888 C 3992,2886 3991,2885 3991,2883 L 3989,2877 C 3988,2875 3988,2874 3988,2872 L 3986,2866 C 3986,2864 3985,2863 3985,2861 L 3984,2855 C 3984,2853 3983,2851 3983,2850 L 3983,2843 C 3982,2841 3982,2840 3982,2838 L 3982,2831 3982,2830 3961,1601 3961,1600 3961,1599 3961,1597 3961,1590 C 3961,1588 3961,1587 3962,1585 L 3962,1578 C 3962,1577 3963,1575 3963,1574 L 3964,1567 C 3964,1565 3965,1564 3965,1562 L 3966,1555 C 3967,1554 3967,1553 3968,1551 L 3970,1545 C 3970,1543 3971,1542 3971,1540 L 3973,1534 C 3974,1533 3975,1531 3975,1530 L 3978,1524 C 3978,1522 3979,1521 3980,1520 L 3983,1514 C 3983,1513 3984,1512 3984,1511 3985,1510 3985,1510 3985,1509 L 3989,1503 C 3990,1502 3991,1501 3992,1499 L 3996,1494 C 3997,1492 3998,1491 3999,1490 L 4003,1484 4006,1481 4011,1476 4014,1473 4020,1468 4023,1465 4028,1461 C 4029,1460 4030,1459 4031,1459 L 4037,1454 C 4038,1454 4039,1453 4040,1452 L 4045,1449 C 4047,1448 4048,1447 4049,1446 4050,1446 4051,1445 4052,1445 L 4058,1442 C 4059,1441 4060,1440 4062,1440 L 4068,1437 C 4069,1437 4071,1436 4072,1435 L 4078,1433 C 4080,1433 4081,1432 4083,1432 L 4089,1430 C 4091,1429 4092,1429 4093,1428 L 4100,1427 C 4102,1427 4103,1426 4105,1426 L 4112,1425 C 4113,1425 4115,1424 4116,1424 L 4123,1424 C 4125,1423 4126,1423 4128,1423 L 4135,1423 4137,1423 4698,1423 4698,896 4698,894 4698,887 C 4698,885 4698,884 4699,882 L 4699,875 C 4699,874 4700,872 4700,871 L 4701,864 C 4701,862 4702,861 4702,859 L 4703,852 C 4704,851 4704,850 4705,848 L 4707,842 C 4707,840 4708,839 4708,837 L 4710,831 C 4711,830 4712,828 4712,827 L 4715,821 C 4715,819 4716,818 4717,817 L 4720,811 C 4720,810 4721,809 4721,808 4722,807 4722,807 4722,806 L 4726,800 C 4727,799 4728,798 4729,796 L 4733,791 C 4734,789 4735,788 4736,787 L 4740,781 4743,778 4748,773 4751,770 4757,765 4760,762 4765,758 C 4766,757 4767,756 4768,756 L 4774,751 C 4775,751 4776,750 4777,749 L 4782,746 C 4784,745 4785,744 4786,743 4787,743 4788,742 4789,742 L 4795,739 C 4796,738 4797,737 4799,737 L 4805,734 C 4806,734 4808,733 4809,732 L 4815,730 C 4817,730 4818,729 4820,729 L 4826,727 C 4828,726 4829,726 4830,725 L 4837,724 C 4839,724 4840,723 4842,723 L 4849,722 C 4850,722 4852,721 4853,721 L 4860,721 C 4862,720 4863,720 4865,720 L 4872,720 4874,720 5394,721 5914,720 5916,720 5923,720 C 5925,720 5926,720 5928,721 L 5935,721 C 5936,721 5938,722 5939,722 L 5946,723 C 5948,723 5949,724 5951,724 L 5958,725 C 5959,726 5960,726 5962,727 L 5968,729 C 5970,729 5971,730 5973,730 L 5979,732 C 5980,733 5982,734 5983,734 L 5989,737 C 5991,737 5992,738 5993,739 L 5999,742 C 6000,742 6001,743 6002,743 6003,744 6004,745 6006,746 L 6011,749 C 6012,750 6013,751 6014,751 L 6020,756 C 6021,756 6022,757 6023,758 L 6028,762 6031,765 6037,770 6040,773 6045,778 6048,781 6052,787 C 6053,788 6054,789 6055,791 L 6059,796 C 6060,798 6061,799 6062,800 L 6066,806 C 6066,807 6066,807 6067,808 6067,809 6068,810 6068,811 L 6071,817 C 6072,818 6073,819 6073,821 L 6076,827 C 6076,828 6077,830 6078,831 L 6080,837 C 6080,839 6081,840 6081,842 L 6083,848 C 6084,850 6084,851 6085,852 L 6086,859 C 6086,861 6087,862 6087,864 L 6088,871 C 6088,872 6089,874 6089,875 L 6089,882 C 6090,884 6090,885 6090,887 L 6090,894 6090,896 6090,1423 6651,1423 6653,1423 6660,1423 C 6662,1423 6663,1423 6665,1424 L 6672,1424 C 6673,1424 6675,1425 6676,1425 L 6683,1426 C 6685,1426 6686,1427 6688,1427 L 6695,1428 C 6696,1429 6697,1429 6699,1430 L 6705,1432 C 6707,1432 6708,1433 6710,1433 L 6716,1435 C 6717,1436 6719,1437 6720,1437 L 6726,1440 C 6728,1440 6729,1441 6730,1442 L 6736,1445 C 6737,1445 6738,1446 6739,1446 6740,1447 6741,1448 6743,1449 L 6748,1452 C 6749,1453 6750,1454 6751,1454 L 6757,1459 C 6758,1459 6759,1460 6760,1461 L 6765,1465 6768,1468 6774,1473 6777,1476 6782,1481 6785,1484 6789,1490 C 6790,1491 6791,1492 6792,1494 L 6796,1499 C 6797,1501 6798,1502 6799,1503 L 6803,1509 C 6803,1510 6803,1510 6804,1511 6804,1512 6805,1513 6805,1514 L 6808,1520 C 6809,1521 6810,1522 6810,1524 L 6813,1530 C 6813,1531 6814,1533 6815,1534 L 6817,1540 C 6817,1542 6818,1543 6818,1545 L 6820,1551 C 6821,1553 6821,1554 6822,1555 L 6823,1562 C 6823,1564 6824,1565 6824,1567 L 6825,1574 C 6825,1575 6826,1577 6826,1578 L 6826,1585 C 6827,1587 6827,1588 6827,1590 L 6827,1597 6827,1599 6827,1600 6827,1601 6818,2830 6818,2831 6818,2838 C 6818,2840 6818,2841 6817,2843 L 6817,2850 C 6817,2851 6816,2853 6816,2855 L 6815,2861 C 6815,2863 6814,2864 6814,2866 L 6812,2872 C 6812,2874 6812,2875 6811,2877 L 6809,2883 C 6809,2885 6808,2886 6808,2888 L 6805,2894 C 6805,2895 6804,2896 6804,2898 L 6801,2904 C 6800,2905 6800,2906 6799,2908 L 6796,2914 C 6796,2915 6795,2915 6795,2916 6794,2917 6794,2917 6794,2918 L 6790,2924 C 6789,2925 6788,2926 6787,2928 L 6783,2933 C 6782,2935 6781,2936 6780,2937 L 6776,2943 6773,2946 6768,2951 6765,2954 6759,2959 6756,2962 6751,2966 C 6750,2967 6749,2968 6748,2968 L 6742,2973 C 6741,2973 6740,2974 6739,2975 L 6734,2978 C 6732,2979 6731,2980 6730,2981 6729,2981 6728,2982 6727,2982 L 6721,2985 C 6720,2986 6719,2987 6717,2987 L 6711,2990 C 6710,2990 6708,2991 6707,2992 L 6701,2994 C 6699,2994 6698,2995 6696,2995 L 6690,2997 C 6688,2998 6687,2998 6686,2999 L 6679,3000 C 6677,3000 6676,3001 6674,3001 L 6667,3002 C 6666,3002 6664,3003 6663,3003 L 6656,3003 C 6654,3004 6653,3004 6651,3004 L 6644,3004 6642,3004 6096,2990 6110,3298 C 6300,3306 6490,3305 6679,3323 6884,3342 7086,3382 7289,3412 L 7577,3468 7852,3530 8116,3602 8361,3680 8583,3764 8686,3808 8782,3853 8877,3903 8965,3955 9045,4008 9081,4035 9116,4062 9152,4092 9185,4123 9216,4154 9245,4185 9273,4220 9299,4255 9322,4290 9332,4308 9342,4326 9350,4342 9357,4358 9363,4374 9369,4390 9375,4407 9380,4424 9384,4442 9388,4460 9394,4493 9399,4527 9401,4562 9402,4599 9401,4638 9398,4678 9393,4720 9387,4764 9378,4808 9368,4854 9342,4950 9313,5040 9278,5134 9238,5232 9193,5333 9094,5535 8981,5748 8724,6195 8176,7095 7922,7532 7810,7740 7715,7928 C 7771,7946 7826,7968 7883,7995 7987,8045 8091,8112 8185,8198 8279,8284 8364,8389 8427,8513 8489,8635 8531,8775 8542,8936 8543,8940 8544,8945 8544,8949 L 8544,8953 C 8566,9186 8580,9433 8580,9662 L 8580,9709 C 8580,9723 8578,9736 8575,9750 8571,9763 8566,9775 8559,9787 L 8559,9788 8558,9789 C 8551,9800 8543,9811 8534,9820 8524,9830 8512,9839 8500,9846 8488,9853 8475,9858 8462,9862 8448,9865 8434,9867 8421,9867 L 8420,9867 5400,9867 2380,9867 Z"/>
        <path fill="none" stroke="rgb(255,255,255)" stroke-width="350" stroke-linejoin="round" d="M 2380,9867 L 2379,9867 C 2366,9867 2352,9865 2338,9862 2325,9858 2312,9853 2300,9846 2288,9839 2276,9830 2266,9820 2257,9811 2249,9800 2242,9789 L 2241,9788 2241,9787 C 2234,9775 2229,9763 2225,9750 2222,9736 2220,9723 2220,9709 L 2220,9662 C 2220,9433 2234,9186 2256,8953 L 2256,8949 C 2256,8945 2257,8940 2258,8936 2269,8775 2311,8635 2373,8513 2436,8389 2521,8284 2615,8198 2709,8112 2813,8045 2917,7995 2974,7968 3029,7946 3085,7928 L 2990,7740 2878,7532 2624,7095 2076,6195 1819,5748 1706,5535 1607,5333 1562,5232 1522,5134 1487,5040 1458,4950 1432,4854 1422,4808 1413,4764 1407,4720 1402,4678 1399,4638 1398,4599 1399,4562 1401,4527 1406,4493 1412,4460 1416,4442 1420,4424 1425,4407 1431,4390 1437,4374 1443,4358 1450,4342 1458,4326 1468,4308 1478,4290 1501,4255 1527,4220 1555,4185 1584,4154 1615,4123 1648,4092 1684,4062 1719,4035 1755,4008 1835,3955 1923,3903 2018,3853 2114,3808 2217,3764 2439,3680 2684,3602 2948,3530 3223,3468 3511,3412 C 3714,3382 3916,3342 4121,3323 4310,3305 4500,3306 4690,3298 L 4704,2990 4158,3004 4156,3004 4149,3004 C 4147,3004 4146,3004 4144,3003 L 4137,3003 C 4136,3003 4134,3002 4133,3002 L 4126,3001 C 4124,3001 4123,3000 4121,3000 L 4114,2999 C 4113,2998 4112,2998 4110,2997 L 4104,2995 C 4102,2995 4101,2994 4099,2994 L 4093,2992 C 4092,2991 4090,2990 4089,2990 L 4083,2987 C 4081,2987 4080,2986 4079,2985 L 4073,2982 C 4072,2982 4071,2981 4070,2981 4069,2980 4068,2979 4066,2978 L 4061,2975 C 4060,2974 4059,2973 4058,2973 L 4052,2968 C 4051,2968 4050,2967 4049,2966 L 4044,2962 4041,2959 4035,2954 4032,2951 4027,2946 4024,2943 4020,2937 C 4019,2936 4018,2935 4017,2933 L 4013,2928 C 4012,2926 4011,2925 4010,2924 L 4006,2918 C 4006,2917 4006,2917 4005,2916 4005,2915 4004,2915 4004,2914 L 4001,2908 C 4000,2906 4000,2905 3999,2904 L 3996,2898 C 3996,2896 3995,2895 3995,2894 L 3992,2888 C 3992,2886 3991,2885 3991,2883 L 3989,2877 C 3988,2875 3988,2874 3988,2872 L 3986,2866 C 3986,2864 3985,2863 3985,2861 L 3984,2855 C 3984,2853 3983,2851 3983,2850 L 3983,2843 C 3982,2841 3982,2840 3982,2838 L 3982,2831 3982,2830 3961,1601 3961,1600 3961,1599 3961,1597 3961,1590 C 3961,1588 3961,1587 3962,1585 L 3962,1578 C 3962,1577 3963,1575 3963,1574 L 3964,1567 C 3964,1565 3965,1564 3965,1562 L 3966,1555 C 3967,1554 3967,1553 3968,1551 L 3970,1545 C 3970,1543 3971,1542 3971,1540 L 3973,1534 C 3974,1533 3975,1531 3975,1530 L 3978,1524 C 3978,1522 3979,1521 3980,1520 L 3983,1514 C 3983,1513 3984,1512 3984,1511 3985,1510 3985,1510 3985,1509 L 3989,1503 C 3990,1502 3991,1501 3992,1499 L 3996,1494 C 3997,1492 3998,1491 3999,1490 L 4003,1484 4006,1481 4011,1476 4014,1473 4020,1468 4023,1465 4028,1461 C 4029,1460 4030,1459 4031,1459 L 4037,1454 C 4038,1454 4039,1453 4040,1452 L 4045,1449 C 4047,1448 4048,1447 4049,1446 4050,1446 4051,1445 4052,1445 L 4058,1442 C 4059,1441 4060,1440 4062,1440 L 4068,1437 C 4069,1437 4071,1436 4072,1435 L 4078,1433 C 4080,1433 4081,1432 4083,1432 L 4089,1430 C 4091,1429 4092,1429 4093,1428 L 4100,1427 C 4102,1427 4103,1426 4105,1426 L 4112,1425 C 4113,1425 4115,1424 4116,1424 L 4123,1424 C 4125,1423 4126,1423 4128,1423 L 4135,1423 4137,1423 4698,1423 4698,896 4698,894 4698,887 C 4698,885 4698,884 4699,882 L 4699,875 C 4699,874 4700,872 4700,871 L 4701,864 C 4701,862 4702,861 4702,859 L 4703,852 C 4704,851 4704,850 4705,848 L 4707,842 C 4707,840 4708,839 4708,837 L 4710,831 C 4711,830 4712,828 4712,827 L 4715,821 C 4715,819 4716,818 4717,817 L 4720,811 C 4720,810 4721,809 4721,808 4722,807 4722,807 4722,806 L 4726,800 C 4727,799 4728,798 4729,796 L 4733,791 C 4734,789 4735,788 4736,787 L 4740,781 4743,778 4748,773 4751,770 4757,765 4760,762 4765,758 C 4766,757 4767,756 4768,756 L 4774,751 C 4775,751 4776,750 4777,749 L 4782,746 C 4784,745 4785,744 4786,743 4787,743 4788,742 4789,742 L 4795,739 C 4796,738 4797,737 4799,737 L 4805,734 C 4806,734 4808,733 4809,732 L 4815,730 C 4817,730 4818,729 4820,729 L 4826,727 C 4828,726 4829,726 4830,725 L 4837,724 C 4839,724 4840,723 4842,723 L 4849,722 C 4850,722 4852,721 4853,721 L 4860,721 C 4862,720 4863,720 4865,720 L 4872,720 4874,720 5394,721 5914,720 5916,720 5923,720 C 5925,720 5926,720 5928,721 L 5935,721 C 5936,721 5938,722 5939,722 L 5946,723 C 5948,723 5949,724 5951,724 L 5958,725 C 5959,726 5960,726 5962,727 L 5968,729 C 5970,729 5971,730 5973,730 L 5979,732 C 5980,733 5982,734 5983,734 L 5989,737 C 5991,737 5992,738 5993,739 L 5999,742 C 6000,742 6001,743 6002,743 6003,744 6004,745 6006,746 L 6011,749 C 6012,750 6013,751 6014,751 L 6020,756 C 6021,756 6022,757 6023,758 L 6028,762 6031,765 6037,770 6040,773 6045,778 6048,781 6052,787 C 6053,788 6054,789 6055,791 L 6059,796 C 6060,798 6061,799 6062,800 L 6066,806 C 6066,807 6066,807 6067,808 6067,809 6068,810 6068,811 L 6071,817 C 6072,818 6073,819 6073,821 L 6076,827 C 6076,828 6077,830 6078,831 L 6080,837 C 6080,839 6081,840 6081,842 L 6083,848 C 6084,850 6084,851 6085,852 L 6086,859 C 6086,861 6087,862 6087,864 L 6088,871 C 6088,872 6089,874 6089,875 L 6089,882 C 6090,884 6090,885 6090,887 L 6090,894 6090,896 6090,1423 6651,1423 6653,1423 6660,1423 C 6662,1423 6663,1423 6665,1424 L 6672,1424 C 6673,1424 6675,1425 6676,1425 L 6683,1426 C 6685,1426 6686,1427 6688,1427 L 6695,1428 C 6696,1429 6697,1429 6699,1430 L 6705,1432 C 6707,1432 6708,1433 6710,1433 L 6716,1435 C 6717,1436 6719,1437 6720,1437 L 6726,1440 C 6728,1440 6729,1441 6730,1442 L 6736,1445 C 6737,1445 6738,1446 6739,1446 6740,1447 6741,1448 6743,1449 L 6748,1452 C 6749,1453 6750,1454 6751,1454 L 6757,1459 C 6758,1459 6759,1460 6760,1461 L 6765,1465 6768,1468 6774,1473 6777,1476 6782,1481 6785,1484 6789,1490 C 6790,1491 6791,1492 6792,1494 L 6796,1499 C 6797,1501 6798,1502 6799,1503 L 6803,1509 C 6803,1510 6803,1510 6804,1511 6804,1512 6805,1513 6805,1514 L 6808,1520 C 6809,1521 6810,1522 6810,1524 L 6813,1530 C 6813,1531 6814,1533 6815,1534 L 6817,1540 C 6817,1542 6818,1543 6818,1545 L 6820,1551 C 6821,1553 6821,1554 6822,1555 L 6823,1562 C 6823,1564 6824,1565 6824,1567 L 6825,1574 C 6825,1575 6826,1577 6826,1578 L 6826,1585 C 6827,1587 6827,1588 6827,1590 L 6827,1597 6827,1599 6827,1600 6827,1601 6818,2830 6818,2831 6818,2838 C 6818,2840 6818,2841 6817,2843 L 6817,2850 C 6817,2851 6816,2853 6816,2855 L 6815,2861 C 6815,2863 6814,2864 6814,2866 L 6812,2872 C 6812,2874 6812,2875 6811,2877 L 6809,2883 C 6809,2885 6808,2886 6808,2888 L 6805,2894 C 6805,2895 6804,2896 6804,2898 L 6801,2904 C 6800,2905 6800,2906 6799,2908 L 6796,2914 C 6796,2915 6795,2915 6795,2916 6794,2917 6794,2917 6794,2918 L 6790,2924 C 6789,2925 6788,2926 6787,2928 L 6783,2933 C 6782,2935 6781,2936 6780,2937 L 6776,2943 6773,2946 6768,2951 6765,2954 6759,2959 6756,2962 6751,2966 C 6750,2967 6749,2968 6748,2968 L 6742,2973 C 6741,2973 6740,2974 6739,2975 L 6734,2978 C 6732,2979 6731,2980 6730,2981 6729,2981 6728,2982 6727,2982 L 6721,2985 C 6720,2986 6719,2987 6717,2987 L 6711,2990 C 6710,2990 6708,2991 6707,2992 L 6701,2994 C 6699,2994 6698,2995 6696,2995 L 6690,2997 C 6688,2998 6687,2998 6686,2999 L 6679,3000 C 6677,3000 6676,3001 6674,3001 L 6667,3002 C 6666,3002 6664,3003 6663,3003 L 6656,3003 C 6654,3004 6653,3004 6651,3004 L 6644,3004 6642,3004 6096,2990 6110,3298 C 6300,3306 6490,3305 6679,3323 6884,3342 7086,3382 7289,3412 L 7577,3468 7852,3530 8116,3602 8361,3680 8583,3764 8686,3808 8782,3853 8877,3903 8965,3955 9045,4008 9081,4035 9116,4062 9152,4092 9185,4123 9216,4154 9245,4185 9273,4220 9299,4255 9322,4290 9332,4308 9342,4326 9350,4342 9357,4358 9363,4374 9369,4390 9375,4407 9380,4424 9384,4442 9388,4460 9394,4493 9399,4527 9401,4562 9402,4599 9401,4638 9398,4678 9393,4720 9387,4764 9378,4808 9368,4854 9342,4950 9313,5040 9278,5134 9238,5232 9193,5333 9094,5535 8981,5748 8724,6195 8176,7095 7922,7532 7810,7740 7715,7928 C 7771,7946 7826,7968 7883,7995 7987,8045 8091,8112 8185,8198 8279,8284 8364,8389 8427,8513 8489,8635 8531,8775 8542,8936 8543,8940 8544,8945 8544,8949 L 8544,8953 C 8566,9186 8580,9433 8580,9662 L 8580,9709 C 8580,9723 8578,9736 8575,9750 8571,9763 8566,9775 8559,9787 L 8559,9788 8558,9789 C 8551,9800 8543,9811 8534,9820 8524,9830 8512,9839 8500,9846 8488,9853 8475,9858 8462,9862 8448,9865 8434,9867 8421,9867 L 8420,9867 5400,9867 2380,9867 Z"/>
       </g>
      </g>
      <g class="com.sun.star.drawing.ClosedBezierShape">
       <g id="id6">
        <rect class="BoundingBox" stroke="none" fill="none" x="8151" y="8205" width="37" height="41"/>
        <path fill="rgb(0,0,0)" stroke="none" d="M 8187,8205 L 8151,8244 8186,8205 C 8187,8205 8187,8205 8187,8205 Z"/>
       </g>
      </g>
      <g class="com.sun.star.drawing.ClosedBezierShape">
       <g id="id7">
        <rect class="BoundingBox" stroke="none" fill="none" x="2219" y="7974" width="6362" height="1893"/>
        <path fill="rgb(0,0,0)" stroke="none" d="M 7840,7975 C 7854,7981 7869,7987 7883,7994 7987,8044 8091,8111 8185,8197 8279,8283 8364,8388 8427,8512 8489,8634 8531,8774 8542,8935 8543,8939 8544,8944 8544,8948 L 8544,8952 C 8566,9185 8580,9432 8580,9661 L 8580,9708 C 8580,9722 8578,9735 8575,9749 8571,9762 8566,9774 8559,9786 L 8559,9787 8558,9788 C 8551,9799 8543,9810 8534,9819 8524,9829 8512,9838 8500,9845 8488,9852 8475,9857 8462,9861 8448,9864 8434,9866 8421,9866 L 8420,9866 5400,9866 2380,9866 2379,9866 C 2366,9866 2352,9864 2338,9861 2325,9857 2312,9852 2300,9845 2288,9838 2276,9829 2266,9819 2257,9810 2249,9799 2242,9788 L 2241,9787 2241,9786 C 2234,9774 2229,9762 2225,9749 2222,9735 2220,9722 2220,9708 L 2220,9661 C 2220,9432 2234,9185 2256,8952 L 2256,8948 C 2256,8944 2257,8939 2258,8935 2269,8774 2311,8634 2373,8512 2436,8388 2521,8283 2615,8197 2709,8111 2813,8044 2917,7994 2931,7987 2946,7981 2960,7975 L 7840,7975 Z"/>
       </g>
      </g>
      <g class="com.sun.star.drawing.PolyPolygonShape">
       <g id="id8">
        <rect class="BoundingBox" stroke="none" fill="none" x="1416" y="4779" width="7969" height="2950"/>
        <path fill="rgb(0,0,0)" stroke="none" d="M 2984,7728 L 2878,7531 2624,7094 2076,6194 1819,5747 1706,5534 1607,5332 1562,5231 1522,5133 1487,5039 1458,4949 1432,4853 1422,4807 1416,4780 9383,4780 9378,4807 9368,4853 9342,4949 9313,5039 9278,5133 9238,5231 9193,5332 9094,5534 8981,5747 8724,6194 8176,7094 7922,7531 7816,7728 2984,7728 Z"/>
       </g>
      </g>
      <g class="com.sun.star.drawing.ClosedBezierShape">
       <g id="id9">
        <rect class="BoundingBox" stroke="none" fill="none" x="1400" y="730" width="8001" height="3805"/>
        <path fill="rgb(0,0,0)" stroke="none" d="M 1401,4533 L 1401,4526 1406,4492 1412,4459 1416,4441 1420,4423 1425,4406 1431,4389 1437,4373 1443,4357 1450,4341 1458,4325 1468,4307 1478,4289 1501,4254 1527,4219 1555,4184 1584,4153 1615,4122 1648,4091 1684,4061 1719,4034 1755,4007 1835,3954 1923,3902 2018,3852 2114,3807 2217,3763 2439,3679 2684,3601 2948,3529 3223,3467 3511,3411 C 3714,3381 4410,3316 4600,3308 L 4614,3000 4068,3014 4066,3014 4059,3014 C 4057,3014 4056,3014 4054,3013 L 4047,3013 C 4046,3013 4044,3012 4043,3012 L 4036,3011 C 4034,3011 4033,3010 4031,3010 L 4024,3009 C 4023,3008 4022,3008 4020,3007 L 4014,3005 C 4012,3005 4011,3004 4009,3004 L 4003,3002 C 4002,3001 4000,3000 3999,3000 L 3993,2997 C 3991,2997 3990,2996 3989,2995 L 3983,2992 C 3982,2992 3981,2991 3980,2991 3979,2990 3978,2989 3976,2988 L 3971,2985 C 3970,2984 3969,2983 3968,2983 L 3962,2978 C 3961,2978 3960,2977 3959,2976 L 3954,2972 3951,2969 3945,2964 3942,2961 3937,2956 3934,2953 3930,2947 C 3929,2946 3928,2945 3927,2943 L 3923,2938 C 3922,2936 3921,2935 3920,2934 L 3916,2928 C 3916,2927 3916,2927 3915,2926 3915,2925 3914,2925 3914,2924 L 3911,2918 C 3910,2916 3910,2915 3909,2914 L 3906,2908 C 3906,2906 3905,2905 3905,2904 L 3902,2898 C 3902,2896 3901,2895 3901,2893 L 3899,2887 C 3898,2885 3898,2884 3898,2882 L 3896,2876 C 3896,2874 3895,2873 3895,2871 L 3894,2865 C 3894,2863 3893,2861 3893,2860 L 3893,2853 C 3892,2851 3892,2850 3892,2848 L 3892,2841 3892,2840 3886,1612 3886,1611 3886,1610 3886,1608 3886,1601 C 3886,1599 3886,1598 3887,1596 L 3887,1589 C 3887,1588 3888,1586 3888,1585 L 3889,1578 C 3889,1576 3890,1575 3890,1573 L 3891,1566 C 3892,1565 3892,1564 3893,1562 L 3895,1556 C 3895,1554 3896,1553 3896,1551 L 3898,1545 C 3899,1544 3900,1542 3900,1541 L 3903,1535 C 3903,1533 3904,1532 3905,1531 L 3908,1525 C 3908,1524 3909,1523 3909,1522 3910,1521 3910,1521 3910,1520 L 3914,1514 C 3915,1513 3916,1512 3917,1510 L 3921,1505 C 3922,1503 3923,1502 3924,1501 L 3928,1495 3931,1492 3936,1487 3939,1484 3945,1479 3948,1476 3953,1472 C 3954,1471 3955,1470 3956,1470 L 3962,1465 C 3963,1465 3964,1464 3965,1463 L 3970,1460 C 3972,1459 3973,1458 3974,1457 3975,1457 3976,1456 3977,1456 L 3983,1453 C 3984,1452 3985,1451 3987,1451 L 3993,1448 C 3994,1448 3996,1447 3997,1446 L 4003,1444 C 4005,1444 4006,1443 4008,1443 L 4014,1441 C 4016,1440 4017,1440 4018,1439 L 4025,1438 C 4027,1438 4028,1437 4030,1437 L 4037,1436 C 4038,1436 4040,1435 4041,1435 L 4048,1435 C 4050,1434 4051,1434 4053,1434 L 4060,1434 4062,1434 4623,1434 4623,907 4623,905 4623,898 C 4623,896 4623,895 4624,893 L 4624,886 C 4624,885 4625,883 4625,882 L 4626,875 C 4626,873 4627,872 4627,870 L 4628,863 C 4629,862 4629,861 4630,859 L 4632,853 C 4632,851 4633,850 4633,848 L 4635,842 C 4636,841 4637,839 4637,838 L 4640,832 C 4640,830 4641,829 4642,828 L 4645,822 C 4645,821 4646,820 4646,819 4647,818 4647,818 4647,817 L 4651,811 C 4652,810 4653,809 4654,807 L 4658,802 C 4659,800 4660,799 4661,798 L 4665,792 4668,789 4673,784 4676,781 4682,776 4685,773 4690,769 C 4691,768 4692,767 4693,767 L 4699,762 C 4700,762 4701,761 4702,760 L 4707,757 C 4709,756 4710,755 4711,754 4712,754 4713,753 4714,753 L 4720,750 C 4721,749 4722,748 4724,748 L 4730,745 C 4731,745 4733,744 4734,743 L 4740,741 C 4742,741 4743,740 4745,740 L 4751,738 C 4753,737 4754,737 4755,736 L 4762,735 C 4764,735 4765,734 4767,734 L 4774,733 C 4775,733 4777,732 4778,732 L 4785,732 C 4787,731 4788,731 4790,731 L 4797,731 4799,731 6051,731 6053,731 6060,731 C 6062,731 6063,731 6065,732 L 6072,732 C 6073,732 6075,733 6076,733 L 6083,734 C 6085,734 6086,735 6088,735 L 6095,736 C 6096,737 6097,737 6099,738 L 6105,740 C 6107,740 6108,741 6110,741 L 6116,743 C 6117,744 6119,745 6120,745 L 6126,748 C 6128,748 6129,749 6130,750 L 6136,753 C 6137,753 6138,754 6139,754 6140,755 6141,756 6143,757 L 6148,760 C 6149,761 6150,762 6151,762 L 6157,767 C 6158,767 6159,768 6160,769 L 6165,773 6168,776 6174,781 6177,784 6182,789 6185,792 6189,798 C 6190,799 6191,800 6192,802 L 6196,807 C 6197,809 6198,810 6199,811 L 6203,817 C 6203,818 6203,818 6204,819 6204,820 6205,821 6205,822 L 6208,828 C 6209,829 6210,830 6210,832 L 6213,838 C 6213,839 6214,841 6215,842 L 6217,848 C 6217,850 6218,851 6218,853 L 6220,859 C 6221,861 6221,862 6222,863 L 6223,870 C 6223,872 6224,873 6224,875 L 6225,882 C 6225,883 6226,885 6226,886 L 6226,893 C 6227,895 6227,896 6227,898 L 6227,905 6227,907 6227,1434 6788,1434 6790,1434 6797,1434 C 6799,1434 6800,1434 6802,1435 L 6809,1435 C 6810,1435 6812,1436 6813,1436 L 6820,1437 C 6822,1437 6823,1438 6825,1438 L 6832,1439 C 6833,1440 6834,1440 6836,1441 L 6842,1443 C 6844,1443 6845,1444 6847,1444 L 6853,1446 C 6854,1447 6856,1448 6857,1448 L 6863,1451 C 6865,1451 6866,1452 6867,1453 L 6873,1456 C 6874,1456 6875,1457 6876,1457 6877,1458 6878,1459 6880,1460 L 6885,1463 C 6886,1464 6887,1465 6888,1465 L 6894,1470 C 6895,1470 6896,1471 6897,1472 L 6902,1476 6905,1479 6911,1484 6914,1487 6919,1492 6922,1495 6926,1501 C 6927,1502 6928,1503 6929,1505 L 6933,1510 C 6934,1512 6935,1513 6936,1514 L 6940,1520 C 6940,1521 6940,1521 6941,1522 6941,1523 6942,1524 6942,1525 L 6945,1531 C 6946,1532 6947,1533 6947,1535 L 6950,1541 C 6950,1542 6951,1544 6952,1545 L 6954,1551 C 6954,1553 6955,1554 6955,1556 L 6957,1562 C 6958,1564 6958,1565 6959,1566 L 6960,1573 C 6960,1575 6961,1576 6961,1578 L 6962,1585 C 6962,1586 6963,1588 6963,1589 L 6963,1596 C 6964,1598 6964,1599 6964,1601 L 6964,1608 6964,1610 6964,1611 6964,1612 6940,2840 6940,2841 6940,2848 C 6940,2850 6940,2851 6939,2853 L 6939,2860 C 6939,2861 6938,2863 6938,2865 L 6937,2871 C 6937,2873 6936,2874 6936,2876 L 6934,2882 C 6934,2884 6934,2885 6933,2887 L 6931,2893 C 6931,2895 6930,2896 6930,2898 L 6927,2904 C 6927,2905 6926,2906 6926,2908 L 6923,2914 C 6922,2915 6922,2916 6921,2918 L 6918,2924 C 6918,2925 6917,2925 6917,2926 6916,2927 6916,2927 6916,2928 L 6912,2934 C 6911,2935 6910,2936 6909,2938 L 6905,2943 C 6904,2945 6903,2946 6902,2947 L 6898,2953 6895,2956 6890,2961 6887,2964 6881,2969 6878,2972 6873,2976 C 6872,2977 6871,2978 6870,2978 L 6864,2983 C 6863,2983 6862,2984 6861,2985 L 6856,2988 C 6854,2989 6853,2990 6852,2991 6851,2991 6850,2992 6849,2992 L 6843,2995 C 6842,2996 6841,2997 6839,2997 L 6833,3000 C 6832,3000 6830,3001 6829,3002 L 6823,3004 C 6821,3004 6820,3005 6818,3005 L 6812,3007 C 6810,3008 6809,3008 6808,3009 L 6801,3010 C 6799,3010 6798,3011 6796,3011 L 6789,3012 C 6788,3012 6786,3013 6785,3013 L 6778,3013 C 6776,3014 6775,3014 6773,3014 L 6766,3014 6764,3014 6218,3000 6232,3308 C 6422,3316 7086,3381 7289,3411 L 7577,3467 7852,3529 8116,3601 8361,3679 8583,3763 8686,3807 8782,3852 8877,3902 8965,3954 9045,4007 9081,4034 9116,4061 9152,4091 9185,4122 9216,4153 9245,4184 9273,4219 9299,4254 9322,4289 9332,4307 9342,4325 9350,4341 9357,4357 9363,4373 9369,4389 9375,4406 9380,4423 9384,4441 9388,4459 9394,4492 9399,4526 9399,4533 1401,4533 Z"/>
       </g>
      </g>
     </g>
    </g>
   </g>
  </g>
 </g>
</svg>