<?xml version="1.0" encoding="UTF-8"?>
<!DOCTYPE svg PUBLIC "-//W3C//DTD SVG 1.1//EN" "http://www.w3.org/Graphics/SVG/1.1/DTD/svg11.dtd">
<svg version="1.2" width="108mm" height="108mm" viewBox="0 0 10800 10800" preserveAspectRatio="xMidYMid" fill-rule="evenodd" stroke-width="28.222" stroke-linejoin="round" xmlns="http://www.w3.org/2000/svg" xmlns:ooo="http://xml.openoffice.org/svg/export" xmlns:xlink="http://www.w3.org/1999/xlink" xmlns:presentation="http://sun.com/xmlns/staroffice/presentation" xmlns:smil="http://www.w3.org/2001/SMIL20/" xmlns:anim="urn:oasis:names:tc:opendocument:xmlns:animation:1.0" xmlns:svg="urn:oasis:names:tc:opendocument:xmlns:svg-compatible:1.0" xml:space="preserve">
 <defs class="ClipPathGroup">
  <clipPath id="presentation_clip_path" clipPathUnits="userSpaceOnUse">
   <rect x="0" y="0" width="10800" height="10800"/>
  </clipPath>
  <clipPath id="presentation_clip_path_shrink" clipPathUnits="userSpaceOnUse">
   <rect x="10" y="10" width="10779" height="10779"/>
  </clipPath>
 </defs>
 <defs class="EmbeddedBulletChars">
  <g id="bullet-char-template-57356" transform="scale(0.00048828125,-0.00048828125)">
   <path d="M 580,1141 L 1163,571 580,0 -4,571 580,1141 Z"/>
  </g>
  <g id="bullet-char-template-57354" transform="scale(0.00048828125,-0.00048828125)">
   <path d="M 8,1128 L 1137,1128 1137,0 8,0 8,1128 Z"/>
  </g>
  <g id="bullet-char-template-10146" transform="scale(0.00048828125,-0.00048828125)">
   <path d="M 174,0 L 602,739 174,1481 1456,739 174,0 Z M 1358,739 L 309,1346 659,739 1358,739 Z"/>
  </g>
  <g id="bullet-char-template-10132" transform="scale(0.00048828125,-0.00048828125)">
   <path d="M 2015,739 L 1276,0 717,0 1260,543 174,543 174,936 1260,936 717,1481 1274,1481 2015,739 Z"/>
  </g>
  <g id="bullet-char-template-10007" transform="scale(0.00048828125,-0.00048828125)">
   <path d="M 0,-2 C -7,14 -16,27 -25,37 L 356,567 C 262,823 215,952 215,954 215,979 228,992 255,992 264,992 276,990 289,987 310,991 331,999 354,1012 L 381,999 492,748 772,1049 836,1024 860,1049 C 881,1039 901,1025 922,1006 886,937 835,863 770,784 769,783 710,716 594,584 L 774,223 C 774,196 753,168 711,139 L 727,119 C 717,90 699,76 672,76 641,76 570,178 457,381 L 164,-76 C 142,-110 111,-127 72,-127 30,-127 9,-110 8,-76 1,-67 -2,-52 -2,-32 -2,-23 -1,-13 0,-2 Z"/>
  </g>
  <g id="bullet-char-template-10004" transform="scale(0.00048828125,-0.00048828125)">
   <path d="M 285,-33 C 182,-33 111,30 74,156 52,228 41,333 41,471 41,549 55,616 82,672 116,743 169,778 240,778 293,778 328,747 346,684 L 369,508 C 377,444 397,411 428,410 L 1163,1116 C 1174,1127 1196,1133 1229,1133 1271,1133 1292,1118 1292,1087 L 1292,965 C 1292,929 1282,901 1262,881 L 442,47 C 390,-6 338,-33 285,-33 Z"/>
  </g>
  <g id="bullet-char-template-9679" transform="scale(0.00048828125,-0.00048828125)">
   <path d="M 813,0 C 632,0 489,54 383,161 276,268 223,411 223,592 223,773 276,916 383,1023 489,1130 632,1184 813,1184 992,1184 1136,1130 1245,1023 1353,916 1407,772 1407,592 1407,412 1353,268 1245,161 1136,54 992,0 813,0 Z"/>
  </g>
  <g id="bullet-char-template-8226" transform="scale(0.00048828125,-0.00048828125)">
   <path d="M 346,457 C 273,457 209,483 155,535 101,586 74,649 74,723 74,796 101,859 155,911 209,963 273,989 346,989 419,989 480,963 531,910 582,859 608,796 608,723 608,648 583,586 532,535 482,483 420,457 346,457 Z"/>
  </g>
  <g id="bullet-char-template-8211" transform="scale(0.00048828125,-0.00048828125)">
   <path d="M -4,459 L 1135,459 1135,606 -4,606 -4,459 Z"/>
  </g>
  <g id="bullet-char-template-61548" transform="scale(0.00048828125,-0.00048828125)">
   <path d="M 173,740 C 173,903 231,1043 346,1159 462,1274 601,1332 765,1332 928,1332 1067,1274 1183,1159 1299,1043 1357,903 1357,740 1357,577 1299,437 1183,322 1067,206 928,148 765,148 601,148 462,206 346,322 231,437 173,577 173,740 Z"/>
  </g>
 </defs>
 <g>
  <g id="id2" class="Master_Slide">
   <g id="bg-id2" class="Background"/>
   <g id="bo-id2" class="BackgroundObjects"/>
  </g>
 </g>
 <g class="SlideGroup">
  <g>
   <g id="container-id1">
    <g id="id1" class="Slide" clip-path="url(#presentation_clip_path)">
     <g class="Page">
      <g class="com.sun.star.drawing.CustomShape">
       <g id="id3">
        <rect class="BoundingBox" stroke="none" fill="none" x="0" y="0" width="10801" height="10801"/>
       </g>
      </g>
      <g class="com.sun.star.drawing.ClosedBezierShape">
       <g id="id4">
        <rect class="BoundingBox" stroke="none" fill="none" x="1398" y="731" width="8005" height="9136"/>
        <path fill="rgb(255,255,255)" stroke="none" d="M 2380,9866 L 2379,9866 C 2366,9866 2352,9864 2338,9861 2325,9857 2312,9852 2300,9845 2288,9838 2276,9829 2266,9819 2257,9810 2249,9799 2242,9788 L 2241,9787 2241,9786 C 2234,9774 2229,9762 2225,9749 2222,9735 2220,9722 2220,9708 L 2220,9661 C 2220,9432 2234,9185 2256,8952 L 2256,8948 C 2256,8944 2257,8939 2258,8935 2269,8774 2311,8634 2373,8512 2436,8388 2521,8283 2615,8197 2709,8111 2813,8044 2917,7994 2974,7967 3029,7945 3085,7927 L 2990,7739 2878,7531 2624,7094 2076,6194 1819,5747 1706,5534 1607,5332 1562,5231 1522,5133 1487,5039 1458,4949 1432,4853 1422,4807 1413,4763 1407,4719 1402,4677 1399,4637 1398,4598 1399,4561 1401,4526 1406,4492 1412,4459 1416,4441 1420,4423 1425,4406 1431,4389 1437,4373 1443,4357 1450,4341 1458,4325 1468,4307 1478,4289 1501,4254 1527,4219 1555,4184 1584,4153 1615,4122 1648,4091 1684,4061 1719,4034 1755,4007 1835,3954 1923,3902 2018,3852 2114,3807 2217,3763 2439,3679 2684,3601 2948,3529 3223,3467 3511,3411 C 3714,3381 4410,3316 4600,3308 L 4614,3000 4068,3014 4066,3014 4059,3014 C 4057,3014 4056,3014 4054,3013 L 4047,3013 C 4046,3013 4044,3012 4043,3012 L 4036,3011 C 4034,3011 4033,3010 4031,3010 L 4024,3009 C 4023,3008 4022,3008 4020,3007 L 4014,3005 C 4012,3005 4011,3004 4009,3004 L 4003,3002 C 4002,3001 4000,3000 3999,3000 L 3993,2997 C 3991,2997 3990,2996 3989,2995 L 3983,2992 C 3982,2992 3981,2991 3980,2991 3979,2990 3978,2989 3976,2988 L 3971,2985 C 3970,2984 3969,2983 3968,2983 L 3962,2978 C 3961,2978 3960,2977 3959,2976 L 3954,2972 3951,2969 3945,2964 3942,2961 3937,2956 3934,2953 3930,2947 C 3929,2946 3928,2945 3927,2943 L 3923,2938 C 3922,2936 3921,2935 3920,2934 L 3916,2928 C 3916,2927 3916,2927 3915,2926 3915,2925 3914,2925 3914,2924 L 3911,2918 C 3910,2916 3910,2915 3909,2914 L 3906,2908 C 3906,2906 3905,2905 3905,2904 L 3902,2898 C 3902,2896 3901,2895 3901,2893 L 3899,2887 C 3898,2885 3898,2884 3898,2882 L 3896,2876 C 3896,2874 3895,2873 3895,2871 L 3894,2865 C 3894,2863 3893,2861 3893,2860 L 3893,2853 C 3892,2851 3892,2850 3892,2848 L 3892,2841 3892,2840 3886,1612 3886,1611 3886,1610 3886,1608 3886,1601 C 3886,1599 3886,1598 3887,1596 L 3887,1589 C 3887,1588 3888,1586 3888,1585 L 3889,1578 C 3889,1576 3890,1575 3890,1573 L 3891,1566 C 3892,1565 3892,1564 3893,1562 L 3895,1556 C 3895,1554 3896,1553 3896,1551 L 3898,1545 C 3899,1544 3900,1542 3900,1541 L 3903,1535 C 3903,1533 3904,1532 3905,1531 L 3908,1525 C 3908,1524 3909,1523 3909,1522 3910,1521 3910,1521 3910,1520 L 3914,1514 C 3915,1513 3916,1512 3917,1510 L 3921,1505 C 3922,1503 3923,1502 3924,1501 L 3928,1495 3931,1492 3936,1487 3939,1484 3945,1479 3948,1476 3953,1472 C 3954,1471 3955,1470 3956,1470 L 3962,1465 C 3963,1465 3964,1464 3965,1463 L 3970,1460 C 3972,1459 3973,1458 3974,1457 3975,1457 3976,1456 3977,1456 L 3983,1453 C 3984,1452 3985,1451 3987,1451 L 3993,1448 C 3994,1448 3996,1447 3997,1446 L 4003,1444 C 4005,1444 4006,1443 4008,1443 L 4014,1441 C 4016,1440 4017,1440 4018,1439 L 4025,1438 C 4027,1438 4028,1437 4030,1437 L 4037,1436 C 4038,1436 4040,1435 4041,1435 L 4048,1435 C 4050,1434 4051,1434 4053,1434 L 4060,1434 4062,1434 4623,1434 4623,907 4623,905 4623,898 C 4623,896 4623,895 4624,893 L 4624,886 C 4624,885 4625,883 4625,882 L 4626,875 C 4626,873 4627,872 4627,870 L 4628,863 C 4629,862 4629,861 4630,859 L 4632,853 C 4632,851 4633,850 4633,848 L 4635,842 C 4636,841 4637,839 4637,838 L 4640,832 C 4640,830 4641,829 4642,828 L 4645,822 C 4645,821 4646,820 4646,819 4647,818 4647,818 4647,817 L 4651,811 C 4652,810 4653,809 4654,807 L 4658,802 C 4659,800 4660,799 4661,798 L 4665,792 4668,789 4673,784 4676,781 4682,776 4685,773 4690,769 C 4691,768 4692,767 4693,767 L 4699,762 C 4700,762 4701,761 4702,760 L 4707,757 C 4709,756 4710,755 4711,754 4712,754 4713,753 4714,753 L 4720,750 C 4721,749 4722,748 4724,748 L 4730,745 C 4731,745 4733,744 4734,743 L 4740,741 C 4742,741 4743,740 4745,740 L 4751,738 C 4753,737 4754,737 4755,736 L 4762,735 C 4764,735 4765,734 4767,734 L 4774,733 C 4775,733 4777,732 4778,732 L 4785,732 C 4787,731 4788,731 4790,731 L 4797,731 4799,731 6051,731 6053,731 6060,731 C 6062,731 6063,731 6065,732 L 6072,732 C 6073,732 6075,733 6076,733 L 6083,734 C 6085,734 6086,735 6088,735 L 6095,736 C 6096,737 6097,737 6099,738 L 6105,740 C 6107,740 6108,741 6110,741 L 6116,743 C 6117,744 6119,745 6120,745 L 6126,748 C 6128,748 6129,749 6130,750 L 6136,753 C 6137,753 6138,754 6139,754 6140,755 6141,756 6143,757 L 6148,760 C 6149,761 6150,762 6151,762 L 6157,767 C 6158,767 6159,768 6160,769 L 6165,773 6168,776 6174,781 6177,784 6182,789 6185,792 6189,798 C 6190,799 6191,800 6192,802 L 6196,807 C 6197,809 6198,810 6199,811 L 6203,817 C 6203,818 6203,818 6204,819 6204,820 6205,821 6205,822 L 6208,828 C 6209,829 6210,830 6210,832 L 6213,838 C 6213,839 6214,841 6215,842 L 6217,848 C 6217,850 6218,851 6218,853 L 6220,859 C 6221,861 6221,862 6222,863 L 6223,870 C 6223,872 6224,873 6224,875 L 6225,882 C 6225,883 6226,885 6226,886 L 6226,893 C 6227,895 6227,896 6227,898 L 6227,905 6227,907 6227,1434 6788,1434 6790,1434 6797,1434 C 6799,1434 6800,1434 6802,1435 L 6809,1435 C 6810,1435 6812,1436 6813,1436 L 6820,1437 C 6822,1437 6823,1438 6825,1438 L 6832,1439 C 6833,1440 6834,1440 6836,1441 L 6842,1443 C 6844,1443 6845,1444 6847,1444 L 6853,1446 C 6854,1447 6856,1448 6857,1448 L 6863,1451 C 6865,1451 6866,1452 6867,1453 L 6873,1456 C 6874,1456 6875,1457 6876,1457 6877,1458 6878,1459 6880,1460 L 6885,1463 C 6886,1464 6887,1465 6888,1465 L 6894,1470 C 6895,1470 6896,1471 6897,1472 L 6902,1476 6905,1479 6911,1484 6914,1487 6919,1492 6922,1495 6926,1501 C 6927,1502 6928,1503 6929,1505 L 6933,1510 C 6934,1512 6935,1513 6936,1514 L 6940,1520 C 6940,1521 6940,1521 6941,1522 6941,1523 6942,1524 6942,1525 L 6945,1531 C 6946,1532 6947,1533 6947,1535 L 6950,1541 C 6950,1542 6951,1544 6952,1545 L 6954,1551 C 6954,1553 6955,1554 6955,1556 L 6957,1562 C 6958,1564 6958,1565 6959,1566 L 6960,1573 C 6960,1575 6961,1576 6961,1578 L 6962,1585 C 6962,1586 6963,1588 6963,1589 L 6963,1596 C 6964,1598 6964,1599 6964,1601 L 6964,1608 6964,1610 6964,1611 6964,1612 6940,2840 6940,2841 6940,2848 C 6940,2850 6940,2851 6939,2853 L 6939,2860 C 6939,2861 6938,2863 6938,2865 L 6937,2871 C 6937,2873 6936,2874 6936,2876 L 6934,2882 C 6934,2884 6934,2885 6933,2887 L 6931,2893 C 6931,2895 6930,2896 6930,2898 L 6927,2904 C 6927,2905 6926,2906 6926,2908 L 6923,2914 C 6922,2915 6922,2916 6921,2918 L 6918,2924 C 6918,2925 6917,2925 6917,2926 6916,2927 6916,2927 6916,2928 L 6912,2934 C 6911,2935 6910,2936 6909,2938 L 6905,2943 C 6904,2945 6903,2946 6902,2947 L 6898,2953 6895,2956 6890,2961 6887,2964 6881,2969 6878,2972 6873,2976 C 6872,2977 6871,2978 6870,2978 L 6864,2983 C 6863,2983 6862,2984 6861,2985 L 6856,2988 C 6854,2989 6853,2990 6852,2991 6851,2991 6850,2992 6849,2992 L 6843,2995 C 6842,2996 6841,2997 6839,2997 L 6833,3000 C 6832,3000 6830,3001 6829,3002 L 6823,3004 C 6821,3004 6820,3005 6818,3005 L 6812,3007 C 6810,3008 6809,3008 6808,3009 L 6801,3010 C 6799,3010 6798,3011 6796,3011 L 6789,3012 C 6788,3012 6786,3013 6785,3013 L 6778,3013 C 6776,3014 6775,3014 6773,3014 L 6766,3014 6764,3014 6218,3000 6232,3308 C 6422,3316 7086,3381 7289,3411 L 7577,3467 7852,3529 8116,3601 8361,3679 8583,3763 8686,3807 8782,3852 8877,3902 8965,3954 9045,4007 9081,4034 9116,4061 9152,4091 9185,4122 9216,4153 9245,4184 9273,4219 9299,4254 9322,4289 9332,4307 9342,4325 9350,4341 9357,4357 9363,4373 9369,4389 9375,4406 9380,4423 9384,4441 9388,4459 9394,4492 9399,4526 9401,4561 9402,4598 9401,4637 9398,4677 9393,4719 9387,4763 9378,4807 9368,4853 9342,4949 9313,5039 9278,5133 9238,5231 9193,5332 9094,5534 8981,5747 8724,6194 8176,7094 7922,7531 7810,7739 7715,7927 C 7771,7945 7826,7967 7883,7994 7987,8044 8091,8111 8185,8197 8279,8283 8364,8388 8427,8512 8489,8634 8531,8774 8542,8935 8543,8939 8544,8944 8544,8948 L 8544,8952 C 8566,9185 8580,9432 8580,9661 L 8580,9708 C 8580,9722 8578,9735 8575,9749 8571,9762 8566,9774 8559,9786 L 8559,9787 8558,9788 C 8551,9799 8543,9810 8534,9819 8524,9829 8512,9838 8500,9845 8488,9852 8475,9857 8462,9861 8448,9864 8434,9866 8421,9866 L 8420,9866 5400,9866 2380,9866 Z"/>
       </g>
      </g>
      <g class="com.sun.star.drawing.ClosedBezierShape">
       <g id="id5">
        <rect class="BoundingBox" stroke="none" fill="none" x="1563" y="4620" width="7729" height="3458"/>
        <path fill="rgb(0,0,0)" stroke="none" d="M 9038,4816 C 9013,4910 8970,5013 8918,5128 8855,5264 8776,5418 8692,5593 8456,6089 7822,7008 7571,7467 L 7410,7861 7401,7883 7377,7883 5428,7883 3479,7883 3455,7883 3446,7861 3285,7467 C 3034,7008 2400,6089 2164,5593 2080,5418 2001,5264 1938,5128 1886,5013 1844,4910 1818,4815 L 9038,4816 Z"/>
        <path fill="none" stroke="rgb(0,0,0)" stroke-width="388" stroke-linejoin="miter" stroke-linecap="round" d="M 9038,4816 C 9013,4910 8970,5013 8918,5128 8855,5264 8776,5418 8692,5593 8456,6089 7822,7008 7571,7467 L 7410,7861 7401,7883 7377,7883 5428,7883 3479,7883 3455,7883 3446,7861 3285,7467 C 3034,7008 2400,6089 2164,5593 2080,5418 2001,5264 1938,5128 1886,5013 1844,4910 1818,4815 L 9038,4816 Z"/>
       </g>
      </g>
      <g class="Group">
       <g class="com.sun.star.drawing.ClosedBezierShape">
        <g id="id6">
         <rect class="BoundingBox" stroke="none" fill="none" x="1853" y="1089" width="7159" height="3367"/>
         <path fill="rgb(0,0,0)" stroke="none" d="M 1853,4439 C 1998,4129 2795,3886 3057,3822 3644,3678 4264,3627 4973,3602 L 4975,2811 4975,2809 C 4975,2805 4975,2798 4974,2797 L 4974,2790 C 4974,2788 4973,2787 4973,2785 L 4972,2779 C 4972,2777 4971,2776 4971,2774 L 4970,2767 C 4969,2766 4969,2764 4968,2763 L 4966,2756 C 4966,2755 4965,2754 4965,2752 L 4963,2746 C 4962,2744 4961,2743 4961,2742 L 4958,2735 C 4957,2734 4957,2733 4956,2732 L 4953,2725 C 4953,2724 4952,2724 4952,2723 4951,2722 4950,2720 4949,2719 L 4944,2713 C 4944,2712 4943,2711 4942,2710 L 4938,2705 C 4937,2703 4936,2702 4935,2701 L 4931,2696 4928,2693 4924,2688 4921,2685 4916,2681 4913,2678 4907,2673 C 4906,2673 4905,2672 4904,2671 L 4899,2667 4896,2664 4890,2661 C 4888,2660 4887,2659 4886,2658 4885,2658 4884,2657 4883,2657 L 4877,2654 C 4876,2653 4875,2652 4873,2652 L 4867,2649 C 4866,2648 4864,2648 4863,2647 L 4857,2645 C 4855,2644 4854,2644 4852,2644 L 4846,2642 C 4844,2641 4843,2641 4842,2640 L 4834,2639 C 4832,2638 4831,2638 4829,2638 L 4822,2637 C 4821,2637 4819,2636 4818,2636 L 4811,2635 4806,2635 4799,2635 4797,2635 4231,2638 4226,1793 4773,1795 4775,1795 4782,1795 C 4784,1795 4785,1794 4787,1794 L 4794,1794 C 4795,1793 4797,1793 4798,1793 L 4805,1792 C 4806,1792 4808,1791 4809,1791 L 4816,1789 C 4817,1789 4819,1789 4820,1788 L 4827,1786 C 4828,1786 4830,1786 4831,1785 L 4839,1783 C 4840,1782 4841,1782 4843,1781 L 4849,1778 C 4850,1778 4852,1777 4853,1776 L 4859,1773 C 4860,1773 4861,1772 4862,1772 4863,1771 4864,1770 4866,1769 L 4872,1765 C 4873,1765 4874,1764 4875,1763 L 4880,1759 4883,1756 4889,1752 4892,1749 4897,1745 4900,1742 4904,1737 4907,1734 4911,1728 4914,1725 4918,1720 C 4919,1719 4920,1718 4920,1716 L 4924,1711 C 4925,1709 4926,1708 4927,1707 4927,1706 4928,1705 4928,1704 L 4931,1698 C 4932,1697 4932,1696 4933,1694 L 4936,1688 C 4936,1687 4937,1685 4938,1684 L 4940,1678 C 4940,1676 4941,1675 4941,1673 L 4943,1667 C 4944,1665 4944,1664 4946,1662 L 4947,1656 C 4947,1654 4948,1653 4948,1651 L 4949,1644 C 4949,1643 4950,1641 4950,1640 L 4950,1633 C 4951,1631 4951,1630 4951,1628 L 4951,1621 4951,1619 4951,1092 5428,1089 5905,1092 5905,1619 5905,1621 5905,1628 C 5905,1630 5905,1631 5906,1633 L 5906,1640 C 5906,1641 5907,1643 5907,1644 L 5908,1651 C 5908,1653 5909,1654 5909,1656 L 5910,1662 C 5912,1664 5912,1665 5913,1667 L 5915,1673 C 5915,1675 5916,1676 5916,1678 L 5918,1684 C 5919,1685 5920,1687 5920,1688 L 5923,1694 C 5924,1696 5924,1697 5925,1698 L 5928,1704 C 5928,1705 5929,1706 5929,1707 5930,1708 5931,1709 5932,1711 L 5936,1716 C 5936,1718 5937,1719 5938,1720 L 5942,1725 5945,1728 5949,1734 5952,1737 5956,1742 5959,1745 5964,1749 5967,1752 5973,1756 5976,1759 5981,1763 C 5982,1764 5983,1765 5984,1765 L 5990,1769 C 5992,1770 5993,1771 5994,1772 5995,1772 5996,1773 5997,1773 L 6003,1776 C 6004,1777 6006,1778 6007,1778 L 6013,1781 C 6015,1782 6016,1782 6017,1783 L 6025,1785 C 6026,1786 6028,1786 6029,1786 L 6036,1788 C 6037,1789 6039,1789 6040,1789 L 6047,1791 C 6048,1791 6050,1792 6051,1792 L 6058,1793 C 6059,1793 6061,1793 6062,1794 L 6069,1794 C 6071,1794 6072,1795 6074,1795 L 6081,1795 6083,1795 6630,1793 6625,2638 6059,2635 6057,2635 6050,2635 6045,2635 6038,2636 C 6037,2636 6035,2637 6034,2637 L 6027,2638 C 6025,2638 6024,2638 6022,2639 L 6014,2640 C 6013,2641 6012,2641 6010,2642 L 6004,2644 C 6002,2644 6001,2644 5999,2645 L 5993,2647 C 5992,2648 5990,2648 5989,2649 L 5983,2652 C 5981,2652 5980,2653 5979,2654 L 5973,2657 C 5972,2657 5971,2658 5970,2658 5969,2659 5968,2660 5966,2661 L 5960,2664 5957,2667 5952,2671 C 5951,2672 5950,2673 5949,2673 L 5943,2678 5940,2681 5935,2685 5932,2688 5928,2693 5925,2696 5921,2701 C 5920,2702 5919,2703 5918,2705 L 5914,2710 C 5913,2711 5912,2712 5912,2713 L 5907,2719 C 5906,2720 5905,2722 5904,2723 5904,2724 5903,2724 5903,2725 L 5900,2732 C 5899,2733 5899,2734 5898,2735 L 5895,2742 C 5895,2743 5894,2744 5893,2746 L 5891,2752 C 5891,2754 5890,2755 5890,2756 L 5888,2763 C 5887,2764 5887,2766 5886,2767 L 5885,2774 C 5885,2776 5884,2777 5884,2779 L 5883,2785 C 5883,2787 5882,2788 5882,2790 L 5882,2797 C 5881,2798 5881,2805 5881,2809 L 5881,2811 5883,3602 C 6592,3627 7168,3678 7755,3822 8016,3886 8860,4143 9011,4454 L 1853,4439 Z"/>
        </g>
       </g>
       <g class="com.sun.star.drawing.ClosedBezierShape">
        <g id="id7">
         <rect class="BoundingBox" stroke="none" fill="none" x="1548" y="894" width="7775" height="3756"/>
         <path fill="rgb(0,0,0)" stroke="none" d="M 1677,4357 C 1704,4300 1745,4243 1798,4189 1842,4145 1896,4102 1956,4060 2065,3987 2198,3919 2335,3860 2596,3747 2874,3667 3011,3634 L 3011,3634 C 3011,3634 3011,3634 3011,3634 3011,3634 3011,3634 3011,3634 3011,3634 3011,3634 3011,3634 3011,3634 3011,3634 3011,3634 L 3011,3634 C 3558,3499 4133,3444 4779,3415 L 4781,2878 4780,2877 4780,2829 4232,2832 4038,2833 4037,2639 4032,1794 4031,1598 4227,1599 4756,1601 4756,1587 4757,1585 4757,1092 4757,899 4950,898 5427,895 5428,895 5429,895 5906,898 6099,899 6099,1092 6099,1585 6100,1587 6100,1601 6629,1599 6825,1598 6824,1794 6819,2639 6818,2833 6624,2832 6076,2829 6076,2877 6075,2878 6077,3415 C 6717,3444 7254,3499 7801,3634 L 7801,3634 C 7801,3634 7801,3634 7801,3634 7801,3634 7801,3634 7801,3634 L 7755,3822 7801,3634 C 7801,3634 7801,3634 7801,3634 7801,3634 7801,3634 7801,3634 L 7801,3634 C 7836,3642 7880,3654 7931,3668 7981,3682 8038,3700 8099,3719 8223,3759 8363,3809 8500,3867 8642,3927 8781,3996 8895,4071 8958,4113 9013,4156 9059,4201 9115,4255 9158,4312 9186,4369 L 9321,4649 9011,4648 1853,4633 1548,4632 1677,4357 Z M 6435,1988 L 6084,1989 6083,1989 6083,1989 6081,1989 6074,1989 C 6072,1989 6071,1988 6069,1988 L 6062,1988 5982,1988 5963,1970 5949,1966 5914,1966 5870,1923 C 5869,1922 5867,1921 5866,1920 5863,1917 5859,1914 5856,1911 L 5855,1910 5854,1910 5843,1903 5834,1894 5829,1890 5822,1882 5819,1879 5811,1872 5807,1867 5798,1858 5791,1847 5791,1846 5790,1845 C 5786,1841 5782,1836 5779,1831 L 5735,1787 5735,1761 5729,1755 5719,1694 5718,1688 5717,1684 C 5715,1673 5713,1663 5712,1654 5712,1646 5711,1638 5711,1628 L 5711,1621 5711,1619 5711,1285 5428,1283 5145,1285 5145,1619 5145,1621 5145,1628 C 5145,1638 5144,1646 5144,1654 5143,1663 5141,1673 5139,1684 L 5138,1688 5137,1694 5127,1755 5121,1761 5121,1787 5077,1831 C 5074,1836 5070,1841 5066,1845 L 5065,1846 5065,1847 5058,1858 5049,1867 5045,1872 5037,1879 5034,1882 5027,1890 5022,1894 5013,1903 5002,1910 5001,1910 5000,1911 C 4997,1914 4993,1917 4990,1920 4989,1921 4987,1922 4986,1923 L 4942,1966 4907,1966 4893,1970 4874,1988 4794,1988 4787,1988 C 4785,1988 4784,1989 4782,1989 L 4775,1989 4773,1989 4773,1989 4772,1989 4421,1988 4424,2443 4796,2441 4796,2441 4797,2441 4799,2441 4806,2441 4811,2441 4825,2441 4838,2443 4845,2444 4845,2444 C 4849,2444 4852,2445 4855,2446 4858,2446 4861,2446 4863,2447 4866,2447 4868,2448 4870,2448 L 4932,2456 4940,2464 4966,2464 5002,2500 5003,2501 5011,2505 5026,2520 5031,2524 5037,2529 5044,2535 5046,2536 5051,2540 5058,2548 5061,2551 5069,2558 5073,2563 5076,2566 5082,2575 5083,2575 C 5085,2577 5086,2579 5088,2581 5090,2584 5092,2586 5094,2589 5095,2591 5097,2593 5099,2595 5099,2595 5099,2595 5099,2596 L 5146,2643 5146,2669 5153,2676 5162,2740 5163,2747 5163,2747 5163,2747 5164,2753 5167,2769 5167,2774 C 5168,2779 5168,2785 5169,2792 5169,2797 5169,2804 5169,2809 L 5169,2811 5169,2811 5169,2811 5167,3602 5167,3789 4980,3796 C 4285,3820 3678,3869 3103,4010 L 3103,4010 3103,4010 C 2978,4041 2726,4114 2488,4216 2465,4226 2443,4236 2421,4246 L 8428,4259 C 8402,4247 8375,4235 8349,4224 8223,4171 8094,4125 7981,4089 7924,4070 7871,4055 7825,4041 7779,4028 7740,4018 7709,4010 L 7709,4010 7709,4010 C 7134,3869 6570,3820 5876,3796 L 5689,3789 5689,3602 5687,2811 5687,2811 5687,2811 5687,2809 C 5687,2804 5687,2797 5687,2792 5688,2785 5688,2779 5689,2774 L 5689,2769 5692,2753 5693,2747 5693,2747 5693,2747 5694,2740 5703,2676 5710,2669 5710,2643 5757,2596 C 5757,2595 5757,2595 5757,2595 5759,2593 5761,2591 5762,2589 5764,2586 5766,2584 5768,2581 5770,2579 5771,2577 5773,2575 L 5774,2575 5780,2566 5783,2563 5787,2558 5795,2551 5798,2548 5805,2540 5810,2536 5812,2535 5819,2529 5825,2524 5830,2520 5845,2505 5853,2501 5854,2500 5890,2464 5916,2464 5924,2456 5986,2448 C 5988,2448 5990,2447 5993,2447 5995,2446 5998,2446 6001,2446 6004,2445 6007,2444 6011,2444 L 6011,2444 6018,2443 6031,2441 6045,2441 6050,2441 6057,2441 6059,2441 6060,2441 6060,2441 6432,2443 6435,1988 Z M 6004,2644 L 5990,2602 5976,2574 6000,2644 6004,2655 6007,2661 6011,2665 6004,2644 Z"/>
        </g>
       </g>
      </g>
      <g class="com.sun.star.drawing.LineShape">
       <g id="id8">
        <rect class="BoundingBox" stroke="none" fill="none" x="1396" y="4506" width="8049" height="249"/>
        <path fill="none" stroke="rgb(255,255,255)" stroke-width="247" stroke-linejoin="round" d="M 1520,4630 L 9320,4630"/>
       </g>
      </g>
      <g class="com.sun.star.drawing.ClosedBezierShape">
       <g id="id9">
        <rect class="BoundingBox" stroke="none" fill="none" x="2337" y="8141" width="6115" height="1610"/>
        <path fill="rgb(0,0,0)" stroke="none" d="M 7953,8173 C 7965,8175 7980,8190 7998,8215 8033,8240 8066,8266 8098,8295 8098,8295 8098,8296 8099,8296 8182,8372 8256,8465 8312,8574 L 8312,8574 C 8312,8574 8312,8574 8312,8574 8312,8574 8312,8574 8312,8574 8313,8575 8313,8575 8313,8575 L 8313,8575 C 8341,8631 8369,8728 8388,8813 8396,8850 8403,8884 8408,8909 8409,8915 8410,8920 8411,8925 8412,8930 8412,8935 8413,8938 8413,8940 8414,8942 8414,8943 8414,8944 8414,8945 8414,8946 8414,8946 8414,8946 8414,8947 8415,8947 8415,8947 8415,8947 8415,8947 8415,8947 8415,8947 8414,8949 8414,8951 8413,8952 8420,9031 8448,9380 8451,9552 L 8451,9555 C 8451,9589 8442,9622 8425,9652 8408,9682 8383,9706 8354,9723 8325,9740 8291,9749 8257,9749 L 2531,9749 C 2497,9749 2463,9740 2434,9723 2405,9706 2380,9682 2363,9652 2346,9622 2337,9589 2337,9555 L 2337,9551 C 2341,9358 2361,9157 2372,8960 L 2372,8958 C 2382,8812 2420,8687 2474,8577 2474,8576 2475,8576 2475,8575 2531,8466 2605,8373 2689,8298 2690,8297 2788,8205 2837,8158 4352,8162 6962,8121 7748,8156 L 7906,8156 C 7913,8160 7920,8165 7928,8169 7938,8170 7946,8172 7953,8173 Z"/>
       </g>
      </g>
      <g class="com.sun.star.drawing.PolyPolygonShape">
       <g id="id10">
        <rect class="BoundingBox" stroke="none" fill="none" x="2856" y="7874" width="5083" height="221"/>
        <path fill="rgb(255,255,255)" stroke="none" d="M 7937,8094 L 2856,8094 2856,8083 3247,7874 7643,7874 7937,8094 Z"/>
       </g>
      </g>
     </g>
    </g>
   </g>
  </g>
 </g>
</svg>