<?xml version="1.0" encoding="UTF-8"?>
<!DOCTYPE svg PUBLIC "-//W3C//DTD SVG 1.1//EN" "http://www.w3.org/Graphics/SVG/1.1/DTD/svg11.dtd">
<svg version="1.2" width="108mm" height="108mm" viewBox="0 0 10800 10800" preserveAspectRatio="xMidYMid" fill-rule="evenodd" stroke-width="28.222" stroke-linejoin="round" xmlns="http://www.w3.org/2000/svg" xmlns:ooo="http://xml.openoffice.org/svg/export" xmlns:xlink="http://www.w3.org/1999/xlink" xmlns:presentation="http://sun.com/xmlns/staroffice/presentation" xmlns:smil="http://www.w3.org/2001/SMIL20/" xmlns:anim="urn:oasis:names:tc:opendocument:xmlns:animation:1.0" xmlns:svg="urn:oasis:names:tc:opendocument:xmlns:svg-compatible:1.0" xml:space="preserve">
 <defs class="ClipPathGroup">
  <clipPath id="presentation_clip_path" clipPathUnits="userSpaceOnUse">
   <rect x="0" y="0" width="10800" height="10800"/>
  </clipPath>
  <clipPath id="presentation_clip_path_shrink" clipPathUnits="userSpaceOnUse">
   <rect x="10" y="10" width="10779" height="10779"/>
  </clipPath>
 </defs>
 <defs class="EmbeddedBulletChars">
  <g id="bullet-char-template-57356" transform="scale(0.00048828125,-0.00048828125)">
   <path d="M 580,1141 L 1163,571 580,0 -4,571 580,1141 Z"/>
  </g>
  <g id="bullet-char-template-57354" transform="scale(0.00048828125,-0.00048828125)">
   <path d="M 8,1128 L 1137,1128 1137,0 8,0 8,1128 Z"/>
  </g>
  <g id="bullet-char-template-10146" transform="scale(0.00048828125,-0.00048828125)">
   <path d="M 174,0 L 602,739 174,1481 1456,739 174,0 Z M 1358,739 L 309,1346 659,739 1358,739 Z"/>
  </g>
  <g id="bullet-char-template-10132" transform="scale(0.00048828125,-0.00048828125)">
   <path d="M 2015,739 L 1276,0 717,0 1260,543 174,543 174,936 1260,936 717,1481 1274,1481 2015,739 Z"/>
  </g>
  <g id="bullet-char-template-10007" transform="scale(0.00048828125,-0.00048828125)">
   <path d="M 0,-2 C -7,14 -16,27 -25,37 L 356,567 C 262,823 215,952 215,954 215,979 228,992 255,992 264,992 276,990 289,987 310,991 331,999 354,1012 L 381,999 492,748 772,1049 836,1024 860,1049 C 881,1039 901,1025 922,1006 886,937 835,863 770,784 769,783 710,716 594,584 L 774,223 C 774,196 753,168 711,139 L 727,119 C 717,90 699,76 672,76 641,76 570,178 457,381 L 164,-76 C 142,-110 111,-127 72,-127 30,-127 9,-110 8,-76 1,-67 -2,-52 -2,-32 -2,-23 -1,-13 0,-2 Z"/>
  </g>
  <g id="bullet-char-template-10004" transform="scale(0.00048828125,-0.00048828125)">
   <path d="M 285,-33 C 182,-33 111,30 74,156 52,228 41,333 41,471 41,549 55,616 82,672 116,743 169,778 240,778 293,778 328,747 346,684 L 369,508 C 377,444 397,411 428,410 L 1163,1116 C 1174,1127 1196,1133 1229,1133 1271,1133 1292,1118 1292,1087 L 1292,965 C 1292,929 1282,901 1262,881 L 442,47 C 390,-6 338,-33 285,-33 Z"/>
  </g>
  <g id="bullet-char-template-9679" transform="scale(0.00048828125,-0.00048828125)">
   <path d="M 813,0 C 632,0 489,54 383,161 276,268 223,411 223,592 223,773 276,916 383,1023 489,1130 632,1184 813,1184 992,1184 1136,1130 1245,1023 1353,916 1407,772 1407,592 1407,412 1353,268 1245,161 1136,54 992,0 813,0 Z"/>
  </g>
  <g id="bullet-char-template-8226" transform="scale(0.00048828125,-0.00048828125)">
   <path d="M 346,457 C 273,457 209,483 155,535 101,586 74,649 74,723 74,796 101,859 155,911 209,963 273,989 346,989 419,989 480,963 531,910 582,859 608,796 608,723 608,648 583,586 532,535 482,483 420,457 346,457 Z"/>
  </g>
  <g id="bullet-char-template-8211" transform="scale(0.00048828125,-0.00048828125)">
   <path d="M -4,459 L 1135,459 1135,606 -4,606 -4,459 Z"/>
  </g>
  <g id="bullet-char-template-61548" transform="scale(0.00048828125,-0.00048828125)">
   <path d="M 173,740 C 173,903 231,1043 346,1159 462,1274 601,1332 765,1332 928,1332 1067,1274 1183,1159 1299,1043 1357,903 1357,740 1357,577 1299,437 1183,322 1067,206 928,148 765,148 601,148 462,206 346,322 231,437 173,577 173,740 Z"/>
  </g>
 </defs>
 <g>
  <g id="id2" class="Master_Slide">
   <g id="bg-id2" class="Background"/>
   <g id="bo-id2" class="BackgroundObjects"/>
  </g>
 </g>
 <g class="SlideGroup">
  <g>
   <g id="container-id1">
    <g id="id1" class="Slide" clip-path="url(#presentation_clip_path)">
     <g class="Page">
      <g class="com.sun.star.drawing.ClosedBezierShape">
       <g id="id3">
        <rect class="BoundingBox" stroke="none" fill="none" x="1137" y="1094" width="7615" height="8956"/>
        <path fill="rgb(255,255,255)" stroke="none" d="M 2372,9873 L 2371,9873 C 2358,9873 2344,9871 2330,9868 2317,9864 2304,9859 2292,9852 2280,9845 2268,9836 2258,9826 2249,9817 2241,9806 2234,9795 L 2233,9794 2233,9793 C 2226,9781 2221,9769 2217,9756 2214,9742 2212,9729 2212,9715 L 2212,9668 C 2212,9439 2226,9192 2248,8959 L 2248,8955 C 2248,8951 2249,8946 2250,8942 2261,8781 2303,8641 2365,8519 2428,8395 2513,8290 2607,8204 2701,8118 2805,8051 2909,8001 2960,7977 3011,7956 3060,7939 3094,7775 3147,7622 3214,7478 3287,7322 3377,7178 3479,7044 3676,6784 3914,6562 4146,6359 4362,6169 4572,5996 4727,5820 4796,5742 4854,5665 4893,5585 4910,5549 4924,5513 4933,5476 4942,5442 4947,5406 4947,5370 4947,5335 4936,5217 4928,5180 4817,5307 4424,5586 4200,5670 3976,5754 2842,6468 2520,6566 2198,6664 2015,6547 1875,6473 L 1874,6473 C 1801,6434 1732,6391 1668,6344 L 1667,6343 C 1601,6292 1542,6237 1491,6178 1491,6177 1490,6177 1490,6177 1435,6111 1392,6041 1362,5965 1330,5885 1312,5800 1312,5709 L 1312,5698 1312,5691 1312,5685 C 1317,5630 1331,5569 1353,5503 L 1353,5502 C 1373,5445 1399,5384 1431,5319 L 1431,5318 C 1492,5199 1573,5067 1666,4931 1843,4669 2061,4388 2241,4141 L 2242,4141 C 2369,3967 2444,3754 2510,3547 L 2510,3546 C 2587,3310 2656,3076 2760,2892 L 2760,2891 C 2761,2891 2761,2890 2761,2890 2765,2883 2770,2877 2774,2871 2774,2870 2775,2870 2775,2869 2980,2612 3259,2364 3393,2194 3428,2040 3478,1841 3552,1675 3597,1570 3652,1478 3715,1412 3755,1369 3798,1335 3844,1312 3869,1298 3897,1288 3925,1280 L 3926,1280 C 3956,1273 3985,1269 4017,1269 4049,1269 4082,1274 4116,1282 L 4118,1282 C 4149,1291 4182,1304 4215,1321 4216,1322 4216,1322 4217,1322 4218,1323 4220,1324 4221,1325 4232,1331 4243,1339 4253,1348 L 4256,1351 C 4487,1580 4717,1794 4947,2034 L 4965,2034 C 5002,2034 5049,2037 5104,2043 L 5105,2044 C 5155,2050 5214,2059 5279,2072 5405,2098 5556,2138 5721,2195 6050,2309 6437,2492 6809,2768 6995,2906 7178,3069 7346,3257 7516,3446 7671,3663 7804,3908 7935,4153 8043,4427 8119,4734 8194,5038 8236,5375 8236,5747 8236,6080 8203,6441 8127,6834 8060,7188 7957,7567 7817,7973 7838,7981 7859,7991 7880,8001 7983,8051 8088,8118 8181,8204 8276,8290 8360,8395 8423,8519 8486,8642 8529,8783 8540,8946 L 8540,8950 C 8563,9185 8576,9436 8576,9668 L 8576,9715 C 8576,9729 8574,9742 8571,9756 8567,9769 8562,9781 8555,9793 8548,9805 8540,9817 8530,9827 8520,9837 8508,9845 8496,9852 8484,9859 8471,9864 8458,9868 8445,9871 8431,9873 8417,9873 L 2372,9873 Z"/>
        <path fill="none" stroke="rgb(255,255,255)" stroke-width="350" stroke-linejoin="round" d="M 2372,9873 L 2371,9873 C 2358,9873 2344,9871 2330,9868 2317,9864 2304,9859 2292,9852 2280,9845 2268,9836 2258,9826 2249,9817 2241,9806 2234,9795 L 2233,9794 2233,9793 C 2226,9781 2221,9769 2217,9756 2214,9742 2212,9729 2212,9715 L 2212,9668 C 2212,9439 2226,9192 2248,8959 L 2248,8955 C 2248,8951 2249,8946 2250,8942 2261,8781 2303,8641 2365,8519 2428,8395 2513,8290 2607,8204 2701,8118 2805,8051 2909,8001 2960,7977 3011,7956 3060,7939 3094,7775 3147,7622 3214,7478 3287,7322 3377,7178 3479,7044 3676,6784 3914,6562 4146,6359 4362,6169 4572,5996 4727,5820 4796,5742 4854,5665 4893,5585 4910,5549 4924,5513 4933,5476 4942,5442 4947,5406 4947,5370 4947,5335 4936,5217 4928,5180 4817,5307 4424,5586 4200,5670 3976,5754 2842,6468 2520,6566 2198,6664 2015,6547 1875,6473 L 1874,6473 C 1801,6434 1732,6391 1668,6344 L 1667,6343 C 1601,6292 1542,6237 1491,6178 1491,6177 1490,6177 1490,6177 1435,6111 1392,6041 1362,5965 1330,5885 1312,5800 1312,5709 L 1312,5698 1312,5691 1312,5685 C 1317,5630 1331,5569 1353,5503 L 1353,5502 C 1373,5445 1399,5384 1431,5319 L 1431,5318 C 1492,5199 1573,5067 1666,4931 1843,4669 2061,4388 2241,4141 L 2242,4141 C 2369,3967 2444,3754 2510,3547 L 2510,3546 C 2587,3310 2656,3076 2760,2892 L 2760,2891 C 2761,2891 2761,2890 2761,2890 2765,2883 2770,2877 2774,2871 2774,2870 2775,2870 2775,2869 2980,2612 3259,2364 3393,2194 3428,2040 3478,1841 3552,1675 3597,1570 3652,1478 3715,1412 3755,1369 3798,1335 3844,1312 3869,1298 3897,1288 3925,1280 L 3926,1280 C 3956,1273 3985,1269 4017,1269 4049,1269 4082,1274 4116,1282 L 4118,1282 C 4149,1291 4182,1304 4215,1321 4216,1322 4216,1322 4217,1322 4218,1323 4220,1324 4221,1325 4232,1331 4243,1339 4253,1348 L 4256,1351 C 4487,1580 4717,1794 4947,2034 L 4965,2034 C 5002,2034 5049,2037 5104,2043 L 5105,2044 C 5155,2050 5214,2059 5279,2072 5405,2098 5556,2138 5721,2195 6050,2309 6437,2492 6809,2768 6995,2906 7178,3069 7346,3257 7516,3446 7671,3663 7804,3908 7935,4153 8043,4427 8119,4734 8194,5038 8236,5375 8236,5747 8236,6080 8203,6441 8127,6834 8060,7188 7957,7567 7817,7973 7838,7981 7859,7991 7880,8001 7983,8051 8088,8118 8181,8204 8276,8290 8360,8395 8423,8519 8486,8642 8529,8783 8540,8946 L 8540,8950 C 8563,9185 8576,9436 8576,9668 L 8576,9715 C 8576,9729 8574,9742 8571,9756 8567,9769 8562,9781 8555,9793 8548,9805 8540,9817 8530,9827 8520,9837 8508,9845 8496,9852 8484,9859 8471,9864 8458,9868 8445,9871 8431,9873 8417,9873 L 2372,9873 Z"/>
       </g>
      </g>
      <g class="com.sun.star.drawing.ClosedBezierShape">
       <g id="id4">
        <rect class="BoundingBox" stroke="none" fill="none" x="1312" y="1269" width="6925" height="6495"/>
        <path fill="rgb(0,0,0)" stroke="none" d="M 3699,3468 C 3681,3578 3674,3807 3682,3934 4018,3584 4270,3808 4396,3556 4438,3402 4332,3262 4228,3206 4124,3150 3991,3177 3904,3222 3817,3267 3716,3363 3699,3468 Z M 7887,7742 L 3111,7742 C 3140,7651 3174,7563 3214,7478 3287,7322 3377,7178 3479,7044 3676,6784 3914,6562 4146,6359 4362,6169 4572,5996 4727,5820 4796,5742 4854,5665 4893,5585 4910,5549 4924,5513 4933,5476 4942,5442 4947,5406 4947,5370 4947,5335 4936,5217 4928,5180 4817,5307 4424,5586 4200,5670 3976,5754 2842,6468 2520,6566 2198,6664 2015,6547 1875,6473 L 1874,6473 C 1801,6434 1732,6391 1668,6344 L 1667,6343 C 1601,6292 1542,6237 1491,6178 1491,6177 1490,6177 1490,6177 1435,6111 1392,6041 1362,5965 1330,5885 1312,5800 1312,5709 L 1312,5698 1312,5691 1312,5685 C 1317,5630 1331,5569 1353,5503 L 1353,5502 C 1373,5445 1399,5384 1431,5319 L 1431,5318 C 1492,5199 1573,5067 1666,4931 1843,4669 2061,4388 2241,4141 L 2242,4141 C 2369,3967 2444,3754 2510,3547 L 2510,3546 C 2587,3310 2656,3076 2760,2892 L 2760,2891 C 2761,2891 2761,2890 2761,2890 2765,2883 2770,2877 2774,2871 2774,2870 2775,2870 2775,2869 2980,2612 3259,2364 3393,2194 3428,2040 3478,1841 3552,1675 3597,1570 3652,1478 3715,1412 3755,1369 3798,1335 3844,1312 3869,1298 3897,1288 3925,1280 L 3926,1280 C 3956,1273 3985,1269 4017,1269 4049,1269 4082,1274 4116,1282 L 4118,1282 C 4149,1291 4182,1304 4215,1321 4216,1322 4216,1322 4217,1322 4218,1323 4220,1324 4221,1325 4232,1331 4243,1339 4253,1348 L 4256,1351 C 4487,1580 4717,1794 4947,2034 L 4965,2034 C 5002,2034 5049,2037 5104,2043 L 5105,2044 C 5155,2050 5214,2059 5279,2072 5405,2098 5556,2138 5721,2195 6050,2309 6437,2492 6809,2768 6995,2906 7178,3069 7346,3257 7516,3446 7671,3663 7804,3908 7935,4153 8043,4427 8119,4734 8194,5038 8236,5375 8236,5747 8236,6080 8203,6441 8127,6834 8072,7126 7992,7435 7887,7763 L 7887,7742 Z"/>
       </g>
      </g>
      <g class="com.sun.star.drawing.ClosedBezierShape">
       <g id="id5">
        <rect class="BoundingBox" stroke="none" fill="none" x="2212" y="7988" width="6365" height="1886"/>
        <path fill="rgb(0,0,0)" stroke="none" d="M 2937,7989 L 7856,7989 C 7864,7993 7872,7997 7880,8001 7983,8051 8088,8118 8181,8204 8276,8290 8360,8395 8423,8519 8486,8642 8529,8783 8540,8946 L 8540,8950 C 8563,9185 8576,9436 8576,9668 L 8576,9715 C 8576,9729 8574,9742 8571,9756 8567,9769 8562,9781 8555,9793 8548,9805 8540,9817 8530,9827 8520,9837 8508,9845 8496,9852 8484,9859 8471,9864 8458,9868 8445,9871 8431,9873 8417,9873 L 2372,9873 2371,9873 C 2358,9873 2344,9871 2330,9868 2317,9864 2304,9859 2292,9852 2280,9845 2268,9836 2258,9826 2249,9817 2241,9806 2234,9795 L 2233,9794 2233,9793 C 2226,9781 2221,9769 2217,9756 2214,9742 2212,9729 2212,9715 L 2212,9668 C 2212,9439 2226,9192 2248,8959 L 2248,8955 C 2248,8951 2249,8946 2250,8942 2261,8781 2303,8641 2365,8519 2428,8395 2513,8290 2607,8204 2701,8118 2805,8051 2909,8001 2918,7997 2928,7992 2937,7988 L 2937,7989 Z"/>
       </g>
      </g>
      <g class="com.sun.star.drawing.ClosedBezierShape">
       <g id="id6">
        <rect class="BoundingBox" stroke="none" fill="none" x="8145" y="8204" width="38" height="41"/>
        <path fill="rgb(0,0,0)" stroke="none" d="M 8181,8204 L 8145,8243 8180,8204 C 8181,8204 8181,8204 8181,8204 Z"/>
       </g>
      </g>
      <g class="com.sun.star.drawing.PolyPolygonShape">
       <g id="id7">
        <rect class="BoundingBox" stroke="none" fill="none" x="3844" y="1312" width="33" height="63"/>
        <path fill="rgb(0,0,0)" stroke="none" d="M 3844,1312 L 3845,1312 3876,1374 3844,1312 Z"/>
       </g>
      </g>
      <g class="com.sun.star.drawing.PolyPolygonShape">
       <g id="id8">
        <rect class="BoundingBox" stroke="none" fill="none" x="5265" y="2072" width="15" height="70"/>
       </g>
      </g>
      <g class="com.sun.star.drawing.PolyPolygonShape">
       <g id="id9">
        <rect class="BoundingBox" stroke="none" fill="none" x="1362" y="5939" width="66" height="27"/>
       </g>
      </g>
      <g class="com.sun.star.drawing.PolyPolygonShape">
       <g id="id10">
        <rect class="BoundingBox" stroke="none" fill="none" x="3552" y="1675" width="65" height="29"/>
        <path fill="rgb(0,0,0)" stroke="none" d="M 3552,1675 L 3616,1703 3552,1676 3552,1675 Z"/>
       </g>
      </g>
      <g class="com.sun.star.drawing.PolyPolygonShape">
       <g id="id11">
        <rect class="BoundingBox" stroke="none" fill="none" x="8058" y="6821" width="70" height="14"/>
       </g>
      </g>
      <g class="com.sun.star.drawing.ClosedBezierShape">
       <g id="id12">
        <rect class="BoundingBox" stroke="none" fill="none" x="3714" y="1412" width="54" height="49"/>
        <path fill="rgb(0,0,0)" stroke="none" d="M 3714,1412 C 3715,1412 3715,1412 3715,1412 L 3766,1460 3714,1413 3714,1412 Z"/>
       </g>
      </g>
      <g class="com.sun.star.drawing.PolyPolygonShape">
       <g id="id13">
        <rect class="BoundingBox" stroke="none" fill="none" x="1666" y="4931" width="59" height="40"/>
       </g>
      </g>
      <g class="com.sun.star.drawing.PolyPolygonShape">
       <g id="id14">
        <rect class="BoundingBox" stroke="none" fill="none" x="4146" y="6359" width="47" height="54"/>
       </g>
      </g>
      <g class="com.sun.star.drawing.PolyPolygonShape">
       <g id="id15">
        <rect class="BoundingBox" stroke="none" fill="none" x="4182" y="5804" width="33" height="64"/>
        <path fill="rgb(0,0,0)" stroke="none" d="M 4213,5867 L 4182,5804 4214,5866 4213,5867 Z"/>
       </g>
      </g>
      <g class="com.sun.star.drawing.CustomShape">
       <g id="id16">
        <rect class="BoundingBox" stroke="none" fill="none" x="0" y="0" width="10801" height="10801"/>
       </g>
      </g>
     </g>
    </g>
   </g>
  </g>
 </g>
</svg>