<?xml version="1.0" encoding="UTF-8"?>
<!DOCTYPE svg PUBLIC "-//W3C//DTD SVG 1.1//EN" "http://www.w3.org/Graphics/SVG/1.1/DTD/svg11.dtd">
<svg version="1.2" width="108mm" height="108mm" viewBox="0 0 10800 10800" preserveAspectRatio="xMidYMid" fill-rule="evenodd" stroke-width="28.222" stroke-linejoin="round" xmlns="http://www.w3.org/2000/svg" xmlns:ooo="http://xml.openoffice.org/svg/export" xmlns:xlink="http://www.w3.org/1999/xlink" xmlns:presentation="http://sun.com/xmlns/staroffice/presentation" xmlns:smil="http://www.w3.org/2001/SMIL20/" xmlns:anim="urn:oasis:names:tc:opendocument:xmlns:animation:1.0" xmlns:svg="urn:oasis:names:tc:opendocument:xmlns:svg-compatible:1.0" xml:space="preserve">
 <defs class="ClipPathGroup">
  <clipPath id="presentation_clip_path" clipPathUnits="userSpaceOnUse">
   <rect x="0" y="0" width="10800" height="10800"/>
  </clipPath>
  <clipPath id="presentation_clip_path_shrink" clipPathUnits="userSpaceOnUse">
   <rect x="10" y="10" width="10779" height="10779"/>
  </clipPath>
 </defs>
 <defs class="EmbeddedBulletChars">
  <g id="bullet-char-template-57356" transform="scale(0.00048828125,-0.00048828125)">
   <path d="M 580,1141 L 1163,571 580,0 -4,571 580,1141 Z"/>
  </g>
  <g id="bullet-char-template-57354" transform="scale(0.00048828125,-0.00048828125)">
   <path d="M 8,1128 L 1137,1128 1137,0 8,0 8,1128 Z"/>
  </g>
  <g id="bullet-char-template-10146" transform="scale(0.00048828125,-0.00048828125)">
   <path d="M 174,0 L 602,739 174,1481 1456,739 174,0 Z M 1358,739 L 309,1346 659,739 1358,739 Z"/>
  </g>
  <g id="bullet-char-template-10132" transform="scale(0.00048828125,-0.00048828125)">
   <path d="M 2015,739 L 1276,0 717,0 1260,543 174,543 174,936 1260,936 717,1481 1274,1481 2015,739 Z"/>
  </g>
  <g id="bullet-char-template-10007" transform="scale(0.00048828125,-0.00048828125)">
   <path d="M 0,-2 C -7,14 -16,27 -25,37 L 356,567 C 262,823 215,952 215,954 215,979 228,992 255,992 264,992 276,990 289,987 310,991 331,999 354,1012 L 381,999 492,748 772,1049 836,1024 860,1049 C 881,1039 901,1025 922,1006 886,937 835,863 770,784 769,783 710,716 594,584 L 774,223 C 774,196 753,168 711,139 L 727,119 C 717,90 699,76 672,76 641,76 570,178 457,381 L 164,-76 C 142,-110 111,-127 72,-127 30,-127 9,-110 8,-76 1,-67 -2,-52 -2,-32 -2,-23 -1,-13 0,-2 Z"/>
  </g>
  <g id="bullet-char-template-10004" transform="scale(0.00048828125,-0.00048828125)">
   <path d="M 285,-33 C 182,-33 111,30 74,156 52,228 41,333 41,471 41,549 55,616 82,672 116,743 169,778 240,778 293,778 328,747 346,684 L 369,508 C 377,444 397,411 428,410 L 1163,1116 C 1174,1127 1196,1133 1229,1133 1271,1133 1292,1118 1292,1087 L 1292,965 C 1292,929 1282,901 1262,881 L 442,47 C 390,-6 338,-33 285,-33 Z"/>
  </g>
  <g id="bullet-char-template-9679" transform="scale(0.00048828125,-0.00048828125)">
   <path d="M 813,0 C 632,0 489,54 383,161 276,268 223,411 223,592 223,773 276,916 383,1023 489,1130 632,1184 813,1184 992,1184 1136,1130 1245,1023 1353,916 1407,772 1407,592 1407,412 1353,268 1245,161 1136,54 992,0 813,0 Z"/>
  </g>
  <g id="bullet-char-template-8226" transform="scale(0.00048828125,-0.00048828125)">
   <path d="M 346,457 C 273,457 209,483 155,535 101,586 74,649 74,723 74,796 101,859 155,911 209,963 273,989 346,989 419,989 480,963 531,910 582,859 608,796 608,723 608,648 583,586 532,535 482,483 420,457 346,457 Z"/>
  </g>
  <g id="bullet-char-template-8211" transform="scale(0.00048828125,-0.00048828125)">
   <path d="M -4,459 L 1135,459 1135,606 -4,606 -4,459 Z"/>
  </g>
  <g id="bullet-char-template-61548" transform="scale(0.00048828125,-0.00048828125)">
   <path d="M 173,740 C 173,903 231,1043 346,1159 462,1274 601,1332 765,1332 928,1332 1067,1274 1183,1159 1299,1043 1357,903 1357,740 1357,577 1299,437 1183,322 1067,206 928,148 765,148 601,148 462,206 346,322 231,437 173,577 173,740 Z"/>
  </g>
 </defs>
 <g>
  <g id="id2" class="Master_Slide">
   <g id="bg-id2" class="Background"/>
   <g id="bo-id2" class="BackgroundObjects"/>
  </g>
 </g>
 <g class="SlideGroup">
  <g>
   <g id="container-id1">
    <g id="id1" class="Slide" clip-path="url(#presentation_clip_path)">
     <g class="Page">
      <g class="com.sun.star.drawing.CustomShape">
       <g id="id3">
        <rect class="BoundingBox" stroke="none" fill="none" x="0" y="0" width="10801" height="10801"/>
       </g>
      </g>
      <g class="com.sun.star.drawing.ClosedBezierShape">
       <g id="id4">
        <rect class="BoundingBox" stroke="none" fill="none" x="2540" y="2163" width="5721" height="7708"/>
        <path fill="rgb(255,255,255)" stroke="none" d="M 7406,5805 C 7406,5832 7399,5858 7387,5882 7374,5905 7355,5924 7333,5938 7314,5949 7292,5956 7270,5958 6890,5958 6464,5959 6342,5958 6352,6119 6388,6633 6426,6758 6473,6919 6542,7052 6621,7168 6792,7412 7020,7580 7245,7755 L 7246,7755 C 7497,7951 7747,8153 7937,8446 8033,8598 8115,8772 8172,8983 8227,9188 8260,9427 8260,9711 8260,9725 8258,9739 8255,9752 8251,9765 8246,9778 8239,9790 L 8239,9791 8238,9792 C 8231,9804 8223,9814 8213,9823 8204,9833 8194,9841 8182,9848 L 8181,9849 8180,9849 C 8168,9856 8155,9861 8142,9865 8129,9868 8115,9870 8101,9870 L 2699,9870 C 2685,9870 2671,9868 2658,9865 2645,9861 2632,9856 2620,9849 2619,9849 2619,9848 2618,9848 2606,9841 2596,9833 2587,9823 2577,9814 2569,9804 2562,9792 L 2561,9791 2561,9790 C 2554,9778 2549,9765 2545,9752 2542,9739 2540,9725 2540,9711 2540,9427 2573,9188 2628,8983 2685,8772 2767,8598 2863,8446 3053,8153 3303,7951 3554,7755 L 3555,7755 C 3780,7580 4008,7412 4179,7168 4258,7052 4327,6919 4374,6758 4412,6633 4437,6119 4447,5958 4329,5959 3925,5962 3554,5961 3545,5963 3535,5964 3525,5964 3499,5964 3474,5957 3452,5943 3430,5930 3411,5910 3398,5886 3386,5863 3379,5836 3379,5809 3379,5781 3386,5754 3398,5731 3402,5723 3407,5716 3412,5710 3412,5709 3413,5709 3413,5709 3417,5704 3421,5699 3425,5695 3714,5369 4002,5044 4291,4718 4222,4625 4142,4539 4083,4438 L 4083,4437 C 4017,4322 3966,4199 3932,4072 3898,3944 3880,3813 3880,3680 3880,3546 3898,3415 3932,3287 3966,3160 4017,3037 4083,2922 4149,2806 4231,2701 4325,2608 4418,2514 4523,2432 4639,2366 4754,2300 4877,2249 5004,2215 5132,2181 5263,2163 5396,2163 5530,2163 5661,2181 5789,2215 5916,2249 6039,2300 6154,2366 6270,2432 6375,2514 6468,2608 6562,2701 6644,2806 6710,2922 6776,3037 6827,3160 6861,3287 6895,3415 6913,3546 6913,3679 6913,3813 6895,3944 6861,4072 6827,4199 6776,4322 6710,4437 L 6710,4438 C 6651,4539 6571,4625 6501,4718 L 7355,5689 C 7364,5696 7371,5705 7378,5715 L 7380,5717 7379,5717 C 7382,5721 7384,5725 7387,5729 7399,5752 7406,5778 7406,5805 Z"/>
       </g>
      </g>
      <g class="com.sun.star.drawing.ClosedBezierShape">
       <g id="id5">
        <rect class="BoundingBox" stroke="none" fill="none" x="2660" y="5762" width="5465" height="3980"/>
        <path fill="rgb(0,0,0)" stroke="none" d="M 6009,5956 C 6021,6151 6068,6694 6113,6844 6171,7040 6254,7203 6353,7345 6542,7616 6792,7808 7042,8002 7267,8175 7493,8352 7661,8613 7741,8739 7809,8886 7857,9061 7895,9202 7920,9364 7929,9547 L 2854,9547 C 2863,9364 2889,9202 2927,9061 2974,8886 3042,8739 3122,8613 3291,8352 3517,8175 3741,8002 3991,7808 4241,7616 4430,7345 4529,7203 4613,7040 4670,6844 L 4671,6844 C 4716,6694 4729,6151 4741,5956 L 6009,5956 Z"/>
        <path fill="none" stroke="rgb(0,0,0)" stroke-width="388" stroke-linejoin="round" d="M 6009,5956 C 6021,6151 6068,6694 6113,6844 6171,7040 6254,7203 6353,7345 6542,7616 6792,7808 7042,8002 7267,8175 7493,8352 7661,8613 7741,8739 7809,8886 7857,9061 7895,9202 7920,9364 7929,9547 L 2854,9547 C 2863,9364 2889,9202 2927,9061 2974,8886 3042,8739 3122,8613 3291,8352 3517,8175 3741,8002 3991,7808 4241,7616 4430,7345 4529,7203 4613,7040 4670,6844 L 4671,6844 C 4716,6694 4729,6151 4741,5956 L 6009,5956 Z"/>
       </g>
      </g>
      <g class="com.sun.star.drawing.ClosedBezierShape">
       <g id="id6">
        <rect class="BoundingBox" stroke="none" fill="none" x="3668" y="2278" width="3449" height="3572"/>
        <path fill="rgb(0,0,0)" stroke="none" d="M 3862,5655 C 3862,5655 4639,4853 4647,4844 L 4652,4837 C 4653,4837 4667,4820 4674,4811 4675,4809 4676,4808 4677,4807 L 4677,4806 C 4684,4794 4689,4781 4692,4768 4696,4754 4698,4740 4698,4727 4698,4713 4696,4699 4692,4686 4689,4673 4684,4660 4677,4648 4676,4647 4676,4646 4675,4646 4665,4630 4654,4616 4638,4603 4524,4511 4428,4399 4355,4271 L 4355,4270 C 4302,4180 4262,4083 4235,3981 4207,3880 4194,3776 4194,3672 4194,3567 4207,3463 4235,3362 4262,3260 4302,3163 4355,3073 4407,2982 4471,2898 4545,2824 4619,2751 4702,2687 4793,2634 4884,2581 4981,2541 5082,2514 L 5083,2514 C 5183,2486 5287,2473 5392,2473 5497,2473 5601,2486 5702,2514 5804,2541 5900,2581 5991,2634 6082,2687 6165,2751 6239,2824 6313,2898 6377,2982 6430,3073 6482,3163 6523,3260 6549,3362 L 6550,3362 C 6577,3463 6591,3567 6591,3671 6591,3776 6577,3880 6550,3981 L 6549,3981 C 6523,4083 6482,4180 6430,4270 L 6430,4271 C 6356,4399 6259,4512 6145,4604 6130,4616 6117,4631 6107,4648 6101,4660 6096,4673 6092,4686 6089,4700 6087,4714 6087,4727 6087,4741 6089,4755 6092,4768 6096,4781 6101,4793 6107,4805 6113,4818 6122,4829 6131,4838 L 6136,4843 6138,4845 6139,4846 6922,5655 3862,5655 Z"/>
        <path fill="none" stroke="rgb(0,0,0)" stroke-width="388" stroke-linejoin="round" d="M 3862,5655 C 3862,5655 4639,4853 4647,4844 L 4652,4837 C 4653,4837 4667,4820 4674,4811 4675,4809 4676,4808 4677,4807 L 4677,4806 C 4684,4794 4689,4781 4692,4768 4696,4754 4698,4740 4698,4727 4698,4713 4696,4699 4692,4686 4689,4673 4684,4660 4677,4648 4676,4647 4676,4646 4675,4646 4665,4630 4654,4616 4638,4603 4524,4511 4428,4399 4355,4271 L 4355,4270 C 4302,4180 4262,4083 4235,3981 4207,3880 4194,3776 4194,3672 4194,3567 4207,3463 4235,3362 4262,3260 4302,3163 4355,3073 4407,2982 4471,2898 4545,2824 4619,2751 4702,2687 4793,2634 4884,2581 4981,2541 5082,2514 L 5083,2514 C 5183,2486 5287,2473 5392,2473 5497,2473 5601,2486 5702,2514 5804,2541 5900,2581 5991,2634 6082,2687 6165,2751 6239,2824 6313,2898 6377,2982 6430,3073 6482,3163 6523,3260 6549,3362 L 6550,3362 C 6577,3463 6591,3567 6591,3671 6591,3776 6577,3880 6550,3981 L 6549,3981 C 6523,4083 6482,4180 6430,4270 L 6430,4271 C 6356,4399 6259,4512 6145,4604 6130,4616 6117,4631 6107,4648 6101,4660 6096,4673 6092,4686 6089,4700 6087,4714 6087,4727 6087,4741 6089,4755 6092,4768 6096,4781 6101,4793 6107,4805 6113,4818 6122,4829 6131,4838 L 6136,4843 6138,4845 6139,4846 6922,5655 3862,5655 Z"/>
       </g>
      </g>
      <g class="com.sun.star.drawing.LineShape">
       <g id="id7">
        <rect class="BoundingBox" stroke="none" fill="none" x="3589" y="5739" width="3643" height="143"/>
        <path fill="none" stroke="rgb(255,255,255)" stroke-width="141" stroke-linejoin="round" d="M 3660,5810 L 7160,5810"/>
       </g>
      </g>
     </g>
    </g>
   </g>
  </g>
 </g>
</svg>