<?xml version="1.0" encoding="UTF-8"?>
<!DOCTYPE svg PUBLIC "-//W3C//DTD SVG 1.1//EN" "http://www.w3.org/Graphics/SVG/1.1/DTD/svg11.dtd">
<svg version="1.2" width="108mm" height="108mm" viewBox="0 0 10800 10800" preserveAspectRatio="xMidYMid" fill-rule="evenodd" stroke-width="28.222" stroke-linejoin="round" xmlns="http://www.w3.org/2000/svg" xmlns:ooo="http://xml.openoffice.org/svg/export" xmlns:xlink="http://www.w3.org/1999/xlink" xmlns:presentation="http://sun.com/xmlns/staroffice/presentation" xmlns:smil="http://www.w3.org/2001/SMIL20/" xmlns:anim="urn:oasis:names:tc:opendocument:xmlns:animation:1.0" xmlns:svg="urn:oasis:names:tc:opendocument:xmlns:svg-compatible:1.0" xml:space="preserve">
 <defs class="ClipPathGroup">
  <clipPath id="presentation_clip_path" clipPathUnits="userSpaceOnUse">
   <rect x="0" y="0" width="10800" height="10800"/>
  </clipPath>
  <clipPath id="presentation_clip_path_shrink" clipPathUnits="userSpaceOnUse">
   <rect x="10" y="10" width="10779" height="10779"/>
  </clipPath>
 </defs>
 <defs class="EmbeddedBulletChars">
  <g id="bullet-char-template-57356" transform="scale(0.00048828125,-0.00048828125)">
   <path d="M 580,1141 L 1163,571 580,0 -4,571 580,1141 Z"/>
  </g>
  <g id="bullet-char-template-57354" transform="scale(0.00048828125,-0.00048828125)">
   <path d="M 8,1128 L 1137,1128 1137,0 8,0 8,1128 Z"/>
  </g>
  <g id="bullet-char-template-10146" transform="scale(0.00048828125,-0.00048828125)">
   <path d="M 174,0 L 602,739 174,1481 1456,739 174,0 Z M 1358,739 L 309,1346 659,739 1358,739 Z"/>
  </g>
  <g id="bullet-char-template-10132" transform="scale(0.00048828125,-0.00048828125)">
   <path d="M 2015,739 L 1276,0 717,0 1260,543 174,543 174,936 1260,936 717,1481 1274,1481 2015,739 Z"/>
  </g>
  <g id="bullet-char-template-10007" transform="scale(0.00048828125,-0.00048828125)">
   <path d="M 0,-2 C -7,14 -16,27 -25,37 L 356,567 C 262,823 215,952 215,954 215,979 228,992 255,992 264,992 276,990 289,987 310,991 331,999 354,1012 L 381,999 492,748 772,1049 836,1024 860,1049 C 881,1039 901,1025 922,1006 886,937 835,863 770,784 769,783 710,716 594,584 L 774,223 C 774,196 753,168 711,139 L 727,119 C 717,90 699,76 672,76 641,76 570,178 457,381 L 164,-76 C 142,-110 111,-127 72,-127 30,-127 9,-110 8,-76 1,-67 -2,-52 -2,-32 -2,-23 -1,-13 0,-2 Z"/>
  </g>
  <g id="bullet-char-template-10004" transform="scale(0.00048828125,-0.00048828125)">
   <path d="M 285,-33 C 182,-33 111,30 74,156 52,228 41,333 41,471 41,549 55,616 82,672 116,743 169,778 240,778 293,778 328,747 346,684 L 369,508 C 377,444 397,411 428,410 L 1163,1116 C 1174,1127 1196,1133 1229,1133 1271,1133 1292,1118 1292,1087 L 1292,965 C 1292,929 1282,901 1262,881 L 442,47 C 390,-6 338,-33 285,-33 Z"/>
  </g>
  <g id="bullet-char-template-9679" transform="scale(0.00048828125,-0.00048828125)">
   <path d="M 813,0 C 632,0 489,54 383,161 276,268 223,411 223,592 223,773 276,916 383,1023 489,1130 632,1184 813,1184 992,1184 1136,1130 1245,1023 1353,916 1407,772 1407,592 1407,412 1353,268 1245,161 1136,54 992,0 813,0 Z"/>
  </g>
  <g id="bullet-char-template-8226" transform="scale(0.00048828125,-0.00048828125)">
   <path d="M 346,457 C 273,457 209,483 155,535 101,586 74,649 74,723 74,796 101,859 155,911 209,963 273,989 346,989 419,989 480,963 531,910 582,859 608,796 608,723 608,648 583,586 532,535 482,483 420,457 346,457 Z"/>
  </g>
  <g id="bullet-char-template-8211" transform="scale(0.00048828125,-0.00048828125)">
   <path d="M -4,459 L 1135,459 1135,606 -4,606 -4,459 Z"/>
  </g>
  <g id="bullet-char-template-61548" transform="scale(0.00048828125,-0.00048828125)">
   <path d="M 173,740 C 173,903 231,1043 346,1159 462,1274 601,1332 765,1332 928,1332 1067,1274 1183,1159 1299,1043 1357,903 1357,740 1357,577 1299,437 1183,322 1067,206 928,148 765,148 601,148 462,206 346,322 231,437 173,577 173,740 Z"/>
  </g>
 </defs>
 <g>
  <g id="id2" class="Master_Slide">
   <g id="bg-id2" class="Background"/>
   <g id="bo-id2" class="BackgroundObjects"/>
  </g>
 </g>
 <g class="SlideGroup">
  <g>
   <g id="container-id1">
    <g id="id1" class="Slide" clip-path="url(#presentation_clip_path)">
     <g class="Page">
      <g class="com.sun.star.drawing.ClosedBezierShape">
       <g id="id3">
        <rect class="BoundingBox" stroke="none" fill="none" x="967" y="1121" width="8868" height="8928"/>
        <path fill="rgb(255,255,255)" stroke="none" d="M 2379,9873 L 2378,9873 C 2365,9873 2351,9871 2337,9868 2324,9864 2311,9859 2299,9852 2287,9845 2275,9836 2265,9826 2256,9817 2248,9806 2241,9795 L 2240,9794 2240,9793 C 2233,9781 2228,9769 2224,9756 2221,9742 2219,9729 2219,9715 L 2219,9668 C 2219,9439 2233,9192 2255,8959 L 2255,8955 C 2255,8951 2256,8946 2257,8942 2268,8781 2310,8641 2372,8519 2435,8395 2520,8290 2614,8204 2708,8118 2812,8051 2916,8001 2974,7973 3031,7951 3088,7933 L 1886,4969 1885,4969 1852,4959 C 1851,4959 1850,4959 1849,4958 L 1816,4947 1814,4947 1781,4935 C 1781,4934 1780,4934 1779,4934 L 1747,4920 C 1746,4920 1745,4920 1745,4919 L 1713,4905 C 1712,4905 1712,4904 1711,4904 L 1679,4888 C 1678,4888 1678,4888 1677,4887 L 1647,4870 1645,4870 C 1644,4869 1643,4869 1643,4868 L 1590,4835 C 1589,4834 1588,4834 1587,4833 L 1537,4797 1534,4794 1486,4756 1483,4753 1438,4711 1435,4708 1393,4663 1390,4660 1352,4612 1349,4609 1313,4559 C 1312,4558 1312,4557 1311,4556 L 1278,4503 C 1277,4503 1277,4502 1276,4501 L 1276,4500 1261,4473 C 1261,4472 1260,4472 1260,4471 L 1246,4444 C 1245,4443 1245,4443 1245,4442 L 1232,4414 C 1231,4413 1231,4413 1231,4412 L 1219,4384 C 1218,4383 1218,4383 1218,4382 L 1207,4353 C 1206,4352 1206,4352 1206,4351 L 1196,4322 C 1195,4321 1195,4321 1195,4320 L 1186,4291 C 1185,4290 1185,4290 1185,4289 L 1177,4259 C 1176,4258 1176,4258 1176,4257 L 1169,4227 C 1168,4226 1168,4226 1168,4225 L 1162,4195 C 1162,4194 1161,4194 1161,4193 L 1156,4163 C 1156,4162 1156,4161 1155,4161 L 1151,4130 1151,4128 1147,4098 1147,4096 1144,4065 1144,4063 1143,4032 1143,4030 1142,3999 1142,3998 1142,3997 1143,3966 1143,3963 1144,3933 1144,3930 1147,3900 1147,3897 1151,3867 1151,3865 1155,3834 C 1156,3834 1156,3833 1156,3832 L 1161,3802 C 1161,3801 1162,3801 1162,3800 L 1168,3770 C 1168,3769 1168,3769 1169,3768 L 1176,3738 C 1176,3737 1176,3737 1177,3736 L 1185,3706 C 1185,3705 1185,3705 1186,3704 L 1195,3675 C 1195,3674 1195,3674 1196,3673 L 1206,3644 C 1206,3643 1206,3643 1207,3642 L 1218,3613 C 1218,3612 1218,3612 1219,3611 L 1231,3583 C 1231,3582 1231,3582 1232,3581 L 1245,3553 C 1245,3552 1245,3552 1246,3551 L 1260,3524 C 1260,3523 1261,3523 1261,3522 L 1276,3495 1276,3494 C 1277,3493 1277,3492 1278,3492 L 1311,3439 C 1312,3438 1312,3437 1313,3436 L 1349,3386 1352,3383 1390,3335 1393,3332 1435,3287 1438,3284 1483,3242 1486,3239 1534,3201 1537,3198 1587,3162 C 1588,3161 1589,3161 1590,3160 L 1643,3127 C 1643,3126 1644,3126 1645,3125 L 1646,3125 1673,3110 C 1674,3110 1674,3109 1675,3109 L 1702,3095 C 1703,3094 1703,3094 1704,3094 L 1732,3081 C 1733,3080 1733,3080 1734,3080 L 1762,3068 C 1763,3067 1763,3067 1764,3067 L 1793,3056 C 1794,3055 1794,3055 1795,3055 L 1824,3045 C 1825,3044 1825,3044 1826,3044 L 1855,3035 C 1856,3034 1856,3034 1857,3034 L 1887,3026 C 1888,3025 1888,3025 1889,3025 L 1919,3018 C 1920,3017 1920,3017 1921,3017 L 1951,3011 C 1952,3011 1952,3010 1953,3010 L 1983,3005 C 1984,3005 1985,3005 1985,3004 L 2016,3000 2018,3000 2048,2996 2050,2996 2081,2993 2083,2993 2114,2992 2116,2992 2147,2991 2148,2991 2149,2991 2180,2992 2183,2992 2213,2993 2216,2993 2246,2996 2249,2996 2279,3000 2281,3000 2312,3004 C 2312,3005 2313,3005 2314,3005 L 2344,3010 C 2345,3010 2345,3011 2346,3011 L 2376,3017 C 2377,3017 2377,3017 2378,3018 L 2408,3025 C 2409,3025 2409,3025 2410,3026 L 2440,3034 C 2441,3034 2441,3034 2442,3035 L 2471,3044 C 2472,3044 2472,3044 2473,3045 L 2502,3055 C 2503,3055 2503,3055 2504,3056 L 2533,3067 C 2534,3067 2534,3067 2535,3068 L 2563,3080 C 2564,3080 2564,3080 2565,3081 L 2593,3094 C 2594,3094 2594,3094 2595,3095 L 2622,3109 C 2623,3109 2623,3110 2624,3110 L 2651,3125 2652,3125 C 2653,3126 2654,3126 2654,3127 L 2707,3160 C 2708,3161 2709,3161 2710,3162 L 2760,3198 2763,3201 2811,3239 2814,3242 2859,3284 2862,3287 2904,3332 2907,3335 2945,3383 2948,3386 2984,3436 C 2985,3437 2985,3438 2986,3439 L 3019,3492 C 3020,3492 3020,3493 3021,3494 L 3021,3495 3036,3522 C 3036,3523 3037,3523 3037,3524 L 3051,3551 C 3052,3552 3052,3552 3052,3553 L 3065,3581 C 3066,3582 3066,3582 3066,3583 L 3078,3611 C 3079,3612 3079,3612 3079,3613 L 3090,3642 C 3091,3643 3091,3643 3091,3644 L 3101,3673 C 3102,3674 3102,3674 3102,3675 L 3111,3704 C 3112,3705 3112,3705 3112,3706 L 3120,3736 C 3121,3737 3121,3737 3121,3738 L 3128,3768 C 3129,3769 3129,3769 3129,3770 L 3135,3800 C 3135,3801 3136,3801 3136,3802 L 3141,3832 C 3141,3833 3141,3834 3142,3834 L 3146,3865 3146,3867 3150,3897 3150,3900 3153,3930 3153,3933 3154,3963 3154,3966 3155,3997 3155,3998 3155,3999 3154,4030 3154,4032 3153,4063 3153,4065 3150,4096 3150,4098 3146,4128 3146,4130 3142,4161 C 3141,4161 3141,4162 3141,4163 L 3136,4193 C 3136,4194 3135,4194 3135,4195 L 3129,4225 C 3129,4226 3129,4226 3128,4227 L 3121,4257 C 3121,4258 3120,4259 3120,4260 L 3107,4305 C 3107,4306 3106,4308 3106,4309 L 3090,4354 C 3089,4355 3089,4356 3089,4357 L 3070,4401 C 3070,4403 3069,4404 3069,4405 L 3068,4406 3603,4989 3675,3220 C 3674,3220 3674,3219 3673,3219 L 3660,3212 3658,3210 3605,3177 C 3604,3177 3603,3176 3602,3175 L 3576,3158 C 3576,3157 3575,3157 3575,3156 L 3549,3138 C 3549,3137 3548,3137 3548,3136 L 3523,3117 C 3523,3116 3522,3116 3521,3115 L 3497,3095 3496,3094 3473,3073 C 3472,3072 3471,3072 3471,3071 L 3448,3049 3447,3048 3425,3025 C 3424,3025 3424,3024 3423,3023 L 3402,3000 3401,2999 3381,2975 C 3380,2974 3380,2973 3379,2973 L 3360,2948 C 3359,2948 3359,2947 3358,2947 L 3340,2921 C 3339,2921 3339,2920 3338,2920 L 3321,2894 C 3320,2893 3319,2892 3319,2891 L 3286,2838 3284,2836 3284,2835 3268,2807 C 3268,2806 3268,2806 3267,2805 L 3253,2777 C 3253,2776 3252,2776 3252,2775 L 3239,2747 C 3238,2746 3238,2746 3238,2745 L 3225,2716 C 3225,2715 3225,2714 3224,2714 L 3213,2685 C 3213,2684 3212,2683 3212,2682 L 3202,2653 C 3202,2652 3201,2652 3201,2651 L 3192,2621 C 3191,2620 3191,2620 3191,2619 L 3183,2589 C 3182,2588 3182,2588 3182,2587 L 3174,2557 3174,2555 3167,2524 3167,2522 3161,2491 3161,2489 3156,2458 3156,2456 3152,2425 3152,2422 3149,2391 3149,2389 3148,2358 3148,2355 3147,2324 3147,2323 3147,2322 3148,2290 3148,2288 3149,2257 3149,2254 3152,2223 3152,2221 3156,2189 3156,2187 3161,2156 3161,2154 3167,2123 3167,2121 3174,2090 3174,2088 3182,2058 C 3182,2057 3182,2057 3183,2056 L 3191,2026 C 3191,2025 3191,2025 3192,2024 L 3201,1994 C 3201,1993 3202,1993 3202,1992 L 3212,1963 C 3212,1962 3213,1961 3213,1960 L 3224,1931 C 3225,1931 3225,1930 3225,1929 L 3238,1900 C 3238,1899 3238,1899 3239,1898 L 3252,1870 C 3252,1869 3253,1869 3253,1868 L 3267,1840 C 3268,1839 3268,1839 3268,1838 L 3284,1810 3284,1809 3286,1807 3319,1754 C 3319,1753 3320,1752 3321,1751 L 3338,1725 C 3339,1725 3339,1724 3340,1724 L 3358,1698 C 3359,1698 3359,1697 3360,1697 L 3379,1672 C 3380,1672 3380,1671 3381,1670 L 3401,1646 3402,1645 3423,1622 C 3424,1621 3424,1620 3425,1620 L 3447,1597 3448,1596 3471,1574 C 3471,1573 3472,1573 3473,1572 L 3496,1551 3497,1550 3521,1530 C 3522,1529 3523,1529 3523,1528 L 3548,1509 C 3548,1508 3549,1508 3549,1507 L 3575,1489 C 3575,1488 3576,1488 3576,1487 L 3602,1470 C 3603,1469 3604,1468 3605,1468 L 3658,1435 3660,1433 3661,1433 3689,1417 C 3690,1417 3690,1417 3691,1416 L 3719,1402 C 3720,1402 3720,1401 3721,1401 L 3749,1388 C 3750,1387 3750,1387 3751,1387 L 3780,1374 C 3781,1374 3782,1374 3782,1373 L 3811,1362 C 3812,1362 3813,1361 3814,1361 L 3843,1351 C 3844,1351 3844,1350 3845,1350 L 3875,1341 C 3876,1340 3876,1340 3877,1340 L 3907,1332 C 3908,1331 3908,1331 3909,1331 L 3939,1323 3941,1323 3972,1316 3974,1316 4005,1310 4007,1310 4038,1305 4040,1305 4071,1301 4074,1301 4105,1298 4107,1298 4138,1297 4141,1297 4172,1296 4173,1296 4174,1296 4206,1297 4208,1297 4239,1298 4242,1298 4273,1301 4275,1301 4307,1305 4309,1305 4340,1310 4342,1310 4373,1316 4375,1316 4406,1323 4408,1323 4438,1331 C 4439,1331 4439,1331 4440,1332 L 4470,1340 C 4471,1340 4471,1340 4472,1341 L 4502,1350 C 4503,1350 4503,1351 4504,1351 L 4533,1361 C 4534,1361 4535,1362 4536,1362 L 4565,1373 C 4565,1374 4566,1374 4567,1374 L 4596,1387 C 4597,1387 4597,1387 4598,1388 L 4626,1401 C 4627,1401 4627,1402 4628,1402 L 4656,1416 C 4657,1417 4657,1417 4658,1417 L 4686,1433 4687,1433 4689,1435 4742,1468 C 4743,1468 4744,1469 4745,1470 L 4771,1487 C 4771,1488 4772,1488 4772,1489 L 4798,1507 C 4798,1508 4799,1508 4799,1509 L 4824,1528 C 4824,1529 4825,1529 4826,1530 L 4850,1550 4851,1551 4874,1572 C 4875,1573 4876,1573 4876,1574 L 4899,1596 4900,1597 4922,1620 C 4923,1620 4923,1621 4924,1622 L 4945,1645 4946,1646 4966,1670 C 4967,1671 4967,1672 4968,1672 L 4987,1697 C 4988,1697 4988,1698 4989,1698 L 5007,1724 C 5008,1724 5008,1725 5009,1725 L 5026,1751 C 5027,1752 5028,1753 5028,1754 L 5061,1807 5063,1809 5063,1810 5079,1838 C 5079,1839 5079,1839 5080,1840 L 5094,1868 C 5094,1869 5095,1869 5095,1870 L 5108,1898 C 5109,1899 5109,1899 5109,1900 L 5122,1929 C 5122,1930 5122,1931 5123,1931 L 5134,1960 C 5134,1961 5135,1962 5135,1963 L 5145,1992 C 5145,1993 5146,1993 5146,1994 L 5155,2024 C 5156,2025 5156,2025 5156,2026 L 5164,2056 C 5165,2057 5165,2057 5165,2058 L 5173,2088 5173,2090 5180,2121 5180,2123 5186,2154 5186,2156 5191,2187 5191,2189 5195,2220 5195,2223 5198,2254 5198,2256 5199,2287 5199,2290 5200,2321 5200,2322 5200,2323 5199,2355 5199,2357 5198,2388 5198,2391 5195,2422 5195,2424 5191,2456 5191,2458 5186,2489 5186,2491 5180,2522 5180,2524 5173,2555 5173,2557 5165,2587 C 5165,2588 5165,2588 5164,2589 L 5156,2619 C 5156,2620 5156,2620 5155,2621 L 5146,2651 C 5146,2652 5145,2652 5145,2653 L 5135,2682 C 5135,2683 5134,2684 5134,2685 L 5123,2714 C 5122,2714 5122,2715 5122,2716 L 5109,2745 C 5109,2746 5109,2746 5108,2747 L 5095,2775 C 5095,2776 5094,2776 5094,2777 L 5080,2805 C 5079,2806 5079,2806 5079,2807 L 5063,2835 5063,2836 C 5062,2836 5062,2837 5062,2837 L 5045,2866 5043,2868 5025,2896 C 5024,2897 5024,2898 5023,2898 L 5004,2926 C 5004,2927 5003,2927 5003,2928 L 4982,2955 C 4982,2956 4981,2956 4981,2957 L 4960,2983 C 4959,2983 4959,2984 4958,2984 L 4936,3010 C 4935,3010 4935,3011 4934,3011 L 4918,3029 5401,4376 5883,3029 5867,3011 C 5866,3011 5866,3010 5865,3010 L 5843,2984 C 5842,2984 5842,2983 5841,2983 L 5820,2957 C 5820,2956 5819,2956 5819,2955 L 5798,2928 C 5798,2927 5797,2927 5797,2926 L 5778,2898 C 5777,2898 5777,2897 5776,2896 L 5758,2868 5756,2866 5739,2837 C 5739,2837 5739,2836 5738,2836 L 5738,2835 5722,2807 C 5722,2806 5722,2806 5721,2805 L 5707,2777 C 5707,2776 5706,2776 5706,2775 L 5693,2747 C 5692,2746 5692,2746 5692,2745 L 5679,2716 C 5679,2715 5679,2714 5678,2714 L 5667,2685 C 5667,2684 5666,2683 5666,2682 L 5656,2653 C 5656,2652 5655,2652 5655,2651 L 5646,2621 C 5645,2620 5645,2620 5645,2619 L 5637,2589 C 5636,2588 5636,2588 5636,2587 L 5628,2557 5628,2555 5621,2524 5621,2522 5615,2491 5615,2489 5610,2458 5610,2456 5606,2424 5606,2422 5603,2391 5603,2388 5602,2357 5602,2355 5601,2323 5601,2322 5601,2321 5602,2290 5602,2287 5603,2256 5603,2254 5606,2223 5606,2220 5610,2189 5610,2187 5615,2156 5615,2154 5621,2123 5621,2121 5628,2090 5628,2088 5636,2058 C 5636,2057 5636,2057 5637,2056 L 5645,2026 C 5645,2025 5645,2025 5646,2024 L 5655,1994 C 5655,1993 5656,1993 5656,1992 L 5666,1963 C 5666,1962 5667,1961 5667,1960 L 5678,1931 C 5679,1931 5679,1930 5679,1929 L 5692,1900 C 5692,1899 5692,1899 5693,1898 L 5706,1870 C 5706,1869 5707,1869 5707,1868 L 5721,1840 C 5722,1839 5722,1839 5722,1838 L 5738,1810 5738,1809 5740,1807 5773,1754 C 5773,1753 5774,1752 5775,1751 L 5792,1725 C 5793,1725 5793,1724 5794,1724 L 5812,1698 C 5813,1698 5813,1697 5814,1697 L 5833,1672 C 5834,1672 5834,1671 5835,1670 L 5855,1646 5856,1645 5877,1622 C 5878,1621 5878,1620 5879,1620 L 5901,1597 5902,1596 5925,1574 C 5925,1573 5926,1573 5927,1572 L 5950,1551 5951,1550 5975,1530 C 5976,1529 5977,1529 5977,1528 L 6002,1509 C 6002,1508 6003,1508 6003,1507 L 6029,1489 C 6029,1488 6030,1488 6030,1487 L 6056,1470 C 6057,1469 6058,1468 6059,1468 L 6112,1435 6114,1433 6115,1433 6143,1417 C 6144,1417 6144,1417 6145,1416 L 6173,1402 C 6174,1402 6174,1401 6175,1401 L 6203,1388 C 6204,1387 6204,1387 6205,1387 L 6234,1374 C 6235,1374 6236,1374 6236,1373 L 6265,1362 C 6266,1362 6267,1361 6268,1361 L 6297,1351 C 6298,1351 6298,1350 6299,1350 L 6329,1341 C 6330,1340 6330,1340 6331,1340 L 6361,1332 C 6362,1331 6362,1331 6363,1331 L 6393,1323 6395,1323 6426,1316 6428,1316 6459,1310 6461,1310 6492,1305 6494,1305 6526,1301 6528,1301 6559,1298 6562,1298 6593,1297 6595,1297 6627,1296 6628,1296 6629,1296 6660,1297 6663,1297 6694,1298 6696,1298 6727,1301 6730,1301 6761,1305 6763,1305 6794,1310 6796,1310 6827,1316 6829,1316 6860,1323 6862,1323 6892,1331 C 6893,1331 6893,1331 6894,1332 L 6924,1340 C 6925,1340 6925,1340 6926,1341 L 6956,1350 C 6957,1350 6957,1351 6958,1351 L 6987,1361 C 6988,1361 6989,1362 6990,1362 L 7019,1373 C 7019,1374 7020,1374 7021,1374 L 7050,1387 C 7051,1387 7051,1387 7052,1388 L 7080,1401 C 7081,1401 7081,1402 7082,1402 L 7110,1416 C 7111,1417 7111,1417 7112,1417 L 7140,1433 7141,1433 7143,1435 7196,1468 C 7197,1468 7198,1469 7199,1470 L 7225,1487 C 7225,1488 7226,1488 7226,1489 L 7252,1507 C 7252,1508 7253,1508 7253,1509 L 7278,1528 C 7278,1529 7279,1529 7280,1530 L 7304,1550 7305,1551 7328,1572 C 7329,1573 7330,1573 7330,1574 L 7353,1596 7354,1597 7376,1620 C 7377,1620 7377,1621 7378,1622 L 7399,1645 7400,1646 7420,1670 C 7421,1671 7421,1672 7422,1672 L 7441,1697 C 7442,1697 7442,1698 7443,1698 L 7461,1724 C 7462,1724 7462,1725 7463,1725 L 7480,1751 C 7481,1752 7482,1753 7482,1754 L 7515,1807 7517,1809 7517,1810 7533,1838 C 7533,1839 7533,1839 7534,1840 L 7548,1868 C 7548,1869 7549,1869 7549,1870 L 7562,1898 C 7563,1899 7563,1899 7563,1900 L 7576,1929 C 7576,1930 7576,1931 7577,1931 L 7588,1960 C 7588,1961 7589,1962 7589,1963 L 7599,1992 C 7599,1993 7600,1993 7600,1994 L 7609,2024 C 7610,2025 7610,2025 7610,2026 L 7618,2056 C 7619,2057 7619,2057 7619,2058 L 7627,2088 7627,2090 7634,2121 7634,2123 7640,2154 7640,2156 7645,2187 7645,2189 7649,2221 7649,2223 7652,2254 7652,2257 7653,2288 7653,2290 7654,2322 7654,2323 7654,2324 7653,2355 7653,2358 7652,2389 7652,2391 7649,2422 7649,2425 7645,2456 7645,2458 7640,2489 7640,2491 7634,2522 7634,2524 7627,2555 7627,2557 7619,2587 C 7619,2588 7619,2588 7618,2589 L 7610,2619 C 7610,2620 7610,2620 7609,2621 L 7600,2651 C 7600,2652 7599,2652 7599,2653 L 7589,2682 C 7589,2683 7588,2684 7588,2685 L 7577,2714 C 7576,2714 7576,2715 7576,2716 L 7563,2745 C 7563,2746 7563,2746 7562,2747 L 7549,2775 C 7549,2776 7548,2776 7548,2777 L 7534,2805 C 7533,2806 7533,2806 7533,2807 L 7517,2835 7517,2836 7515,2838 7482,2891 C 7482,2892 7481,2893 7480,2894 L 7463,2920 C 7462,2920 7462,2921 7461,2921 L 7443,2947 C 7442,2947 7442,2948 7441,2948 L 7422,2973 C 7421,2973 7421,2974 7420,2975 L 7400,2999 7399,3000 7378,3023 C 7377,3024 7377,3025 7376,3025 L 7354,3048 7353,3049 7330,3071 C 7330,3072 7329,3072 7328,3073 L 7305,3094 7304,3095 7280,3115 C 7279,3116 7278,3116 7278,3117 L 7253,3136 C 7253,3137 7252,3137 7252,3138 L 7226,3156 C 7226,3157 7225,3157 7225,3158 L 7199,3175 C 7198,3176 7197,3177 7196,3177 L 7143,3210 7141,3212 7128,3219 C 7127,3219 7127,3220 7126,3220 L 7198,4989 7733,4406 7732,4405 C 7732,4404 7731,4403 7731,4401 L 7712,4357 C 7712,4356 7712,4355 7711,4354 L 7695,4309 C 7695,4308 7694,4306 7694,4305 L 7681,4260 C 7681,4259 7680,4258 7680,4257 L 7673,4227 C 7672,4226 7672,4226 7672,4225 L 7666,4195 C 7666,4194 7665,4194 7665,4193 L 7660,4163 C 7660,4162 7660,4161 7659,4161 L 7655,4130 7655,4128 7651,4098 7651,4096 7648,4065 7648,4063 7647,4032 7647,4030 7646,3999 7646,3998 7646,3997 7647,3966 7647,3963 7648,3933 7648,3930 7651,3900 7651,3897 7655,3867 7655,3865 7659,3834 C 7660,3834 7660,3833 7660,3832 L 7665,3802 C 7665,3801 7666,3801 7666,3800 L 7672,3770 C 7672,3769 7672,3769 7673,3768 L 7680,3738 C 7680,3737 7680,3737 7681,3736 L 7689,3706 C 7689,3705 7689,3705 7690,3704 L 7699,3675 C 7699,3674 7699,3674 7700,3673 L 7710,3644 C 7710,3643 7710,3643 7711,3642 L 7722,3613 C 7722,3612 7722,3612 7723,3611 L 7735,3583 C 7735,3582 7735,3582 7736,3581 L 7749,3553 C 7749,3552 7749,3552 7750,3551 L 7764,3524 C 7764,3523 7765,3523 7765,3522 L 7780,3495 7780,3494 C 7781,3493 7781,3492 7782,3492 L 7815,3439 C 7816,3438 7816,3437 7817,3436 L 7853,3386 7856,3383 7894,3335 7897,3332 7939,3287 7942,3284 7987,3242 7990,3239 8038,3201 8041,3198 8091,3162 C 8092,3161 8093,3161 8094,3160 L 8147,3127 C 8147,3126 8148,3126 8149,3125 L 8150,3125 8177,3110 C 8178,3110 8178,3109 8179,3109 L 8206,3095 C 8207,3094 8207,3094 8208,3094 L 8236,3081 C 8237,3080 8237,3080 8238,3080 L 8266,3068 C 8267,3067 8267,3067 8268,3067 L 8297,3056 C 8298,3055 8298,3055 8299,3055 L 8328,3045 C 8329,3044 8329,3044 8330,3044 L 8359,3035 C 8360,3034 8360,3034 8361,3034 L 8391,3026 C 8392,3025 8392,3025 8393,3025 L 8423,3018 C 8424,3017 8424,3017 8425,3017 L 8455,3011 C 8456,3011 8456,3010 8457,3010 L 8487,3005 C 8488,3005 8489,3005 8489,3004 L 8520,3000 8522,3000 8552,2996 8555,2996 8585,2993 8588,2993 8618,2992 8621,2992 8652,2991 8653,2991 8654,2991 8685,2992 8687,2992 8718,2993 8720,2993 8751,2996 8753,2996 8783,3000 8785,3000 8816,3004 C 8816,3005 8817,3005 8818,3005 L 8848,3010 C 8849,3010 8849,3011 8850,3011 L 8880,3017 C 8881,3017 8881,3017 8882,3018 L 8912,3025 C 8913,3025 8913,3025 8914,3026 L 8944,3034 C 8945,3034 8945,3034 8946,3035 L 8975,3044 C 8976,3044 8976,3044 8977,3045 L 9006,3055 C 9007,3055 9007,3055 9008,3056 L 9037,3067 C 9038,3067 9038,3067 9039,3068 L 9067,3080 C 9068,3080 9068,3080 9069,3081 L 9097,3094 C 9098,3094 9098,3094 9099,3095 L 9126,3109 C 9127,3109 9127,3110 9128,3110 L 9155,3125 9156,3125 C 9157,3126 9158,3126 9158,3127 L 9211,3160 C 9212,3161 9213,3161 9214,3162 L 9264,3198 9267,3201 9315,3239 9318,3242 9363,3284 9366,3287 9408,3332 9411,3335 9449,3383 9452,3386 9488,3436 C 9489,3437 9489,3438 9490,3439 L 9523,3492 C 9524,3492 9524,3493 9525,3494 L 9525,3495 9540,3522 C 9540,3523 9541,3523 9541,3524 L 9555,3551 C 9556,3552 9556,3552 9556,3553 L 9569,3581 C 9570,3582 9570,3582 9570,3583 L 9582,3611 C 9583,3612 9583,3612 9583,3613 L 9594,3642 C 9595,3643 9595,3643 9595,3644 L 9605,3673 C 9606,3674 9606,3674 9606,3675 L 9615,3704 C 9616,3705 9616,3705 9616,3706 L 9624,3736 C 9625,3737 9625,3737 9625,3738 L 9632,3768 C 9633,3769 9633,3769 9633,3770 L 9639,3800 C 9639,3801 9640,3801 9640,3802 L 9645,3832 C 9645,3833 9645,3834 9646,3834 L 9650,3865 9650,3867 9654,3897 9654,3900 9657,3930 9657,3933 9658,3963 9658,3966 9659,3997 9659,3998 9659,3999 9658,4030 9658,4032 9657,4063 9657,4065 9654,4096 9654,4098 9650,4128 9650,4130 9646,4161 C 9645,4161 9645,4162 9645,4163 L 9640,4193 C 9640,4194 9639,4194 9639,4195 L 9633,4225 C 9633,4226 9633,4226 9632,4227 L 9625,4257 C 9625,4258 9625,4258 9624,4259 L 9616,4289 C 9616,4290 9616,4290 9615,4291 L 9606,4320 C 9606,4321 9606,4321 9605,4322 L 9595,4351 C 9595,4352 9595,4352 9594,4353 L 9583,4382 C 9583,4383 9583,4383 9582,4384 L 9570,4412 C 9570,4413 9570,4413 9569,4414 L 9556,4442 C 9556,4443 9556,4443 9555,4444 L 9541,4471 C 9541,4472 9540,4472 9540,4473 L 9525,4500 9525,4501 C 9524,4502 9524,4503 9523,4503 L 9490,4556 C 9489,4557 9489,4558 9488,4559 L 9452,4609 9449,4612 9411,4660 9408,4663 9366,4708 9363,4711 9318,4753 9315,4756 9267,4794 9264,4797 9214,4833 C 9213,4834 9212,4834 9211,4835 L 9158,4868 C 9158,4869 9157,4869 9156,4870 L 9154,4870 9124,4887 C 9123,4888 9123,4888 9122,4888 L 9090,4904 C 9089,4904 9089,4905 9088,4905 L 9056,4919 C 9056,4920 9055,4920 9054,4920 L 9022,4934 C 9021,4934 9020,4934 9020,4935 L 8987,4947 8985,4947 8952,4958 C 8951,4959 8950,4959 8949,4959 L 8916,4969 8915,4969 7713,7932 C 7712,7931 7710,7931 7708,7930 7767,7949 7827,7972 7887,8001 7990,8051 8095,8118 8188,8204 8283,8290 8367,8395 8430,8519 8493,8642 8536,8783 8547,8946 L 8547,8950 C 8570,9185 8583,9436 8583,9668 L 8583,9715 C 8583,9729 8581,9742 8578,9756 8574,9769 8569,9781 8562,9793 8555,9805 8547,9817 8537,9827 8527,9837 8515,9845 8503,9852 8491,9859 8478,9864 8465,9868 8452,9871 8438,9873 8424,9873 L 2379,9873 Z"/>
        <path fill="none" stroke="rgb(255,255,255)" stroke-width="350" stroke-linejoin="round" d="M 2379,9873 L 2378,9873 C 2365,9873 2351,9871 2337,9868 2324,9864 2311,9859 2299,9852 2287,9845 2275,9836 2265,9826 2256,9817 2248,9806 2241,9795 L 2240,9794 2240,9793 C 2233,9781 2228,9769 2224,9756 2221,9742 2219,9729 2219,9715 L 2219,9668 C 2219,9439 2233,9192 2255,8959 L 2255,8955 C 2255,8951 2256,8946 2257,8942 2268,8781 2310,8641 2372,8519 2435,8395 2520,8290 2614,8204 2708,8118 2812,8051 2916,8001 2974,7973 3031,7951 3088,7933 L 1886,4969 1885,4969 1852,4959 C 1851,4959 1850,4959 1849,4958 L 1816,4947 1814,4947 1781,4935 C 1781,4934 1780,4934 1779,4934 L 1747,4920 C 1746,4920 1745,4920 1745,4919 L 1713,4905 C 1712,4905 1712,4904 1711,4904 L 1679,4888 C 1678,4888 1678,4888 1677,4887 L 1647,4870 1645,4870 C 1644,4869 1643,4869 1643,4868 L 1590,4835 C 1589,4834 1588,4834 1587,4833 L 1537,4797 1534,4794 1486,4756 1483,4753 1438,4711 1435,4708 1393,4663 1390,4660 1352,4612 1349,4609 1313,4559 C 1312,4558 1312,4557 1311,4556 L 1278,4503 C 1277,4503 1277,4502 1276,4501 L 1276,4500 1261,4473 C 1261,4472 1260,4472 1260,4471 L 1246,4444 C 1245,4443 1245,4443 1245,4442 L 1232,4414 C 1231,4413 1231,4413 1231,4412 L 1219,4384 C 1218,4383 1218,4383 1218,4382 L 1207,4353 C 1206,4352 1206,4352 1206,4351 L 1196,4322 C 1195,4321 1195,4321 1195,4320 L 1186,4291 C 1185,4290 1185,4290 1185,4289 L 1177,4259 C 1176,4258 1176,4258 1176,4257 L 1169,4227 C 1168,4226 1168,4226 1168,4225 L 1162,4195 C 1162,4194 1161,4194 1161,4193 L 1156,4163 C 1156,4162 1156,4161 1155,4161 L 1151,4130 1151,4128 1147,4098 1147,4096 1144,4065 1144,4063 1143,4032 1143,4030 1142,3999 1142,3998 1142,3997 1143,3966 1143,3963 1144,3933 1144,3930 1147,3900 1147,3897 1151,3867 1151,3865 1155,3834 C 1156,3834 1156,3833 1156,3832 L 1161,3802 C 1161,3801 1162,3801 1162,3800 L 1168,3770 C 1168,3769 1168,3769 1169,3768 L 1176,3738 C 1176,3737 1176,3737 1177,3736 L 1185,3706 C 1185,3705 1185,3705 1186,3704 L 1195,3675 C 1195,3674 1195,3674 1196,3673 L 1206,3644 C 1206,3643 1206,3643 1207,3642 L 1218,3613 C 1218,3612 1218,3612 1219,3611 L 1231,3583 C 1231,3582 1231,3582 1232,3581 L 1245,3553 C 1245,3552 1245,3552 1246,3551 L 1260,3524 C 1260,3523 1261,3523 1261,3522 L 1276,3495 1276,3494 C 1277,3493 1277,3492 1278,3492 L 1311,3439 C 1312,3438 1312,3437 1313,3436 L 1349,3386 1352,3383 1390,3335 1393,3332 1435,3287 1438,3284 1483,3242 1486,3239 1534,3201 1537,3198 1587,3162 C 1588,3161 1589,3161 1590,3160 L 1643,3127 C 1643,3126 1644,3126 1645,3125 L 1646,3125 1673,3110 C 1674,3110 1674,3109 1675,3109 L 1702,3095 C 1703,3094 1703,3094 1704,3094 L 1732,3081 C 1733,3080 1733,3080 1734,3080 L 1762,3068 C 1763,3067 1763,3067 1764,3067 L 1793,3056 C 1794,3055 1794,3055 1795,3055 L 1824,3045 C 1825,3044 1825,3044 1826,3044 L 1855,3035 C 1856,3034 1856,3034 1857,3034 L 1887,3026 C 1888,3025 1888,3025 1889,3025 L 1919,3018 C 1920,3017 1920,3017 1921,3017 L 1951,3011 C 1952,3011 1952,3010 1953,3010 L 1983,3005 C 1984,3005 1985,3005 1985,3004 L 2016,3000 2018,3000 2048,2996 2050,2996 2081,2993 2083,2993 2114,2992 2116,2992 2147,2991 2148,2991 2149,2991 2180,2992 2183,2992 2213,2993 2216,2993 2246,2996 2249,2996 2279,3000 2281,3000 2312,3004 C 2312,3005 2313,3005 2314,3005 L 2344,3010 C 2345,3010 2345,3011 2346,3011 L 2376,3017 C 2377,3017 2377,3017 2378,3018 L 2408,3025 C 2409,3025 2409,3025 2410,3026 L 2440,3034 C 2441,3034 2441,3034 2442,3035 L 2471,3044 C 2472,3044 2472,3044 2473,3045 L 2502,3055 C 2503,3055 2503,3055 2504,3056 L 2533,3067 C 2534,3067 2534,3067 2535,3068 L 2563,3080 C 2564,3080 2564,3080 2565,3081 L 2593,3094 C 2594,3094 2594,3094 2595,3095 L 2622,3109 C 2623,3109 2623,3110 2624,3110 L 2651,3125 2652,3125 C 2653,3126 2654,3126 2654,3127 L 2707,3160 C 2708,3161 2709,3161 2710,3162 L 2760,3198 2763,3201 2811,3239 2814,3242 2859,3284 2862,3287 2904,3332 2907,3335 2945,3383 2948,3386 2984,3436 C 2985,3437 2985,3438 2986,3439 L 3019,3492 C 3020,3492 3020,3493 3021,3494 L 3021,3495 3036,3522 C 3036,3523 3037,3523 3037,3524 L 3051,3551 C 3052,3552 3052,3552 3052,3553 L 3065,3581 C 3066,3582 3066,3582 3066,3583 L 3078,3611 C 3079,3612 3079,3612 3079,3613 L 3090,3642 C 3091,3643 3091,3643 3091,3644 L 3101,3673 C 3102,3674 3102,3674 3102,3675 L 3111,3704 C 3112,3705 3112,3705 3112,3706 L 3120,3736 C 3121,3737 3121,3737 3121,3738 L 3128,3768 C 3129,3769 3129,3769 3129,3770 L 3135,3800 C 3135,3801 3136,3801 3136,3802 L 3141,3832 C 3141,3833 3141,3834 3142,3834 L 3146,3865 3146,3867 3150,3897 3150,3900 3153,3930 3153,3933 3154,3963 3154,3966 3155,3997 3155,3998 3155,3999 3154,4030 3154,4032 3153,4063 3153,4065 3150,4096 3150,4098 3146,4128 3146,4130 3142,4161 C 3141,4161 3141,4162 3141,4163 L 3136,4193 C 3136,4194 3135,4194 3135,4195 L 3129,4225 C 3129,4226 3129,4226 3128,4227 L 3121,4257 C 3121,4258 3120,4259 3120,4260 L 3107,4305 C 3107,4306 3106,4308 3106,4309 L 3090,4354 C 3089,4355 3089,4356 3089,4357 L 3070,4401 C 3070,4403 3069,4404 3069,4405 L 3068,4406 3603,4989 3675,3220 C 3674,3220 3674,3219 3673,3219 L 3660,3212 3658,3210 3605,3177 C 3604,3177 3603,3176 3602,3175 L 3576,3158 C 3576,3157 3575,3157 3575,3156 L 3549,3138 C 3549,3137 3548,3137 3548,3136 L 3523,3117 C 3523,3116 3522,3116 3521,3115 L 3497,3095 3496,3094 3473,3073 C 3472,3072 3471,3072 3471,3071 L 3448,3049 3447,3048 3425,3025 C 3424,3025 3424,3024 3423,3023 L 3402,3000 3401,2999 3381,2975 C 3380,2974 3380,2973 3379,2973 L 3360,2948 C 3359,2948 3359,2947 3358,2947 L 3340,2921 C 3339,2921 3339,2920 3338,2920 L 3321,2894 C 3320,2893 3319,2892 3319,2891 L 3286,2838 3284,2836 3284,2835 3268,2807 C 3268,2806 3268,2806 3267,2805 L 3253,2777 C 3253,2776 3252,2776 3252,2775 L 3239,2747 C 3238,2746 3238,2746 3238,2745 L 3225,2716 C 3225,2715 3225,2714 3224,2714 L 3213,2685 C 3213,2684 3212,2683 3212,2682 L 3202,2653 C 3202,2652 3201,2652 3201,2651 L 3192,2621 C 3191,2620 3191,2620 3191,2619 L 3183,2589 C 3182,2588 3182,2588 3182,2587 L 3174,2557 3174,2555 3167,2524 3167,2522 3161,2491 3161,2489 3156,2458 3156,2456 3152,2425 3152,2422 3149,2391 3149,2389 3148,2358 3148,2355 3147,2324 3147,2323 3147,2322 3148,2290 3148,2288 3149,2257 3149,2254 3152,2223 3152,2221 3156,2189 3156,2187 3161,2156 3161,2154 3167,2123 3167,2121 3174,2090 3174,2088 3182,2058 C 3182,2057 3182,2057 3183,2056 L 3191,2026 C 3191,2025 3191,2025 3192,2024 L 3201,1994 C 3201,1993 3202,1993 3202,1992 L 3212,1963 C 3212,1962 3213,1961 3213,1960 L 3224,1931 C 3225,1931 3225,1930 3225,1929 L 3238,1900 C 3238,1899 3238,1899 3239,1898 L 3252,1870 C 3252,1869 3253,1869 3253,1868 L 3267,1840 C 3268,1839 3268,1839 3268,1838 L 3284,1810 3284,1809 3286,1807 3319,1754 C 3319,1753 3320,1752 3321,1751 L 3338,1725 C 3339,1725 3339,1724 3340,1724 L 3358,1698 C 3359,1698 3359,1697 3360,1697 L 3379,1672 C 3380,1672 3380,1671 3381,1670 L 3401,1646 3402,1645 3423,1622 C 3424,1621 3424,1620 3425,1620 L 3447,1597 3448,1596 3471,1574 C 3471,1573 3472,1573 3473,1572 L 3496,1551 3497,1550 3521,1530 C 3522,1529 3523,1529 3523,1528 L 3548,1509 C 3548,1508 3549,1508 3549,1507 L 3575,1489 C 3575,1488 3576,1488 3576,1487 L 3602,1470 C 3603,1469 3604,1468 3605,1468 L 3658,1435 3660,1433 3661,1433 3689,1417 C 3690,1417 3690,1417 3691,1416 L 3719,1402 C 3720,1402 3720,1401 3721,1401 L 3749,1388 C 3750,1387 3750,1387 3751,1387 L 3780,1374 C 3781,1374 3782,1374 3782,1373 L 3811,1362 C 3812,1362 3813,1361 3814,1361 L 3843,1351 C 3844,1351 3844,1350 3845,1350 L 3875,1341 C 3876,1340 3876,1340 3877,1340 L 3907,1332 C 3908,1331 3908,1331 3909,1331 L 3939,1323 3941,1323 3972,1316 3974,1316 4005,1310 4007,1310 4038,1305 4040,1305 4071,1301 4074,1301 4105,1298 4107,1298 4138,1297 4141,1297 4172,1296 4173,1296 4174,1296 4206,1297 4208,1297 4239,1298 4242,1298 4273,1301 4275,1301 4307,1305 4309,1305 4340,1310 4342,1310 4373,1316 4375,1316 4406,1323 4408,1323 4438,1331 C 4439,1331 4439,1331 4440,1332 L 4470,1340 C 4471,1340 4471,1340 4472,1341 L 4502,1350 C 4503,1350 4503,1351 4504,1351 L 4533,1361 C 4534,1361 4535,1362 4536,1362 L 4565,1373 C 4565,1374 4566,1374 4567,1374 L 4596,1387 C 4597,1387 4597,1387 4598,1388 L 4626,1401 C 4627,1401 4627,1402 4628,1402 L 4656,1416 C 4657,1417 4657,1417 4658,1417 L 4686,1433 4687,1433 4689,1435 4742,1468 C 4743,1468 4744,1469 4745,1470 L 4771,1487 C 4771,1488 4772,1488 4772,1489 L 4798,1507 C 4798,1508 4799,1508 4799,1509 L 4824,1528 C 4824,1529 4825,1529 4826,1530 L 4850,1550 4851,1551 4874,1572 C 4875,1573 4876,1573 4876,1574 L 4899,1596 4900,1597 4922,1620 C 4923,1620 4923,1621 4924,1622 L 4945,1645 4946,1646 4966,1670 C 4967,1671 4967,1672 4968,1672 L 4987,1697 C 4988,1697 4988,1698 4989,1698 L 5007,1724 C 5008,1724 5008,1725 5009,1725 L 5026,1751 C 5027,1752 5028,1753 5028,1754 L 5061,1807 5063,1809 5063,1810 5079,1838 C 5079,1839 5079,1839 5080,1840 L 5094,1868 C 5094,1869 5095,1869 5095,1870 L 5108,1898 C 5109,1899 5109,1899 5109,1900 L 5122,1929 C 5122,1930 5122,1931 5123,1931 L 5134,1960 C 5134,1961 5135,1962 5135,1963 L 5145,1992 C 5145,1993 5146,1993 5146,1994 L 5155,2024 C 5156,2025 5156,2025 5156,2026 L 5164,2056 C 5165,2057 5165,2057 5165,2058 L 5173,2088 5173,2090 5180,2121 5180,2123 5186,2154 5186,2156 5191,2187 5191,2189 5195,2220 5195,2223 5198,2254 5198,2256 5199,2287 5199,2290 5200,2321 5200,2322 5200,2323 5199,2355 5199,2357 5198,2388 5198,2391 5195,2422 5195,2424 5191,2456 5191,2458 5186,2489 5186,2491 5180,2522 5180,2524 5173,2555 5173,2557 5165,2587 C 5165,2588 5165,2588 5164,2589 L 5156,2619 C 5156,2620 5156,2620 5155,2621 L 5146,2651 C 5146,2652 5145,2652 5145,2653 L 5135,2682 C 5135,2683 5134,2684 5134,2685 L 5123,2714 C 5122,2714 5122,2715 5122,2716 L 5109,2745 C 5109,2746 5109,2746 5108,2747 L 5095,2775 C 5095,2776 5094,2776 5094,2777 L 5080,2805 C 5079,2806 5079,2806 5079,2807 L 5063,2835 5063,2836 C 5062,2836 5062,2837 5062,2837 L 5045,2866 5043,2868 5025,2896 C 5024,2897 5024,2898 5023,2898 L 5004,2926 C 5004,2927 5003,2927 5003,2928 L 4982,2955 C 4982,2956 4981,2956 4981,2957 L 4960,2983 C 4959,2983 4959,2984 4958,2984 L 4936,3010 C 4935,3010 4935,3011 4934,3011 L 4918,3029 5401,4376 5883,3029 5867,3011 C 5866,3011 5866,3010 5865,3010 L 5843,2984 C 5842,2984 5842,2983 5841,2983 L 5820,2957 C 5820,2956 5819,2956 5819,2955 L 5798,2928 C 5798,2927 5797,2927 5797,2926 L 5778,2898 C 5777,2898 5777,2897 5776,2896 L 5758,2868 5756,2866 5739,2837 C 5739,2837 5739,2836 5738,2836 L 5738,2835 5722,2807 C 5722,2806 5722,2806 5721,2805 L 5707,2777 C 5707,2776 5706,2776 5706,2775 L 5693,2747 C 5692,2746 5692,2746 5692,2745 L 5679,2716 C 5679,2715 5679,2714 5678,2714 L 5667,2685 C 5667,2684 5666,2683 5666,2682 L 5656,2653 C 5656,2652 5655,2652 5655,2651 L 5646,2621 C 5645,2620 5645,2620 5645,2619 L 5637,2589 C 5636,2588 5636,2588 5636,2587 L 5628,2557 5628,2555 5621,2524 5621,2522 5615,2491 5615,2489 5610,2458 5610,2456 5606,2424 5606,2422 5603,2391 5603,2388 5602,2357 5602,2355 5601,2323 5601,2322 5601,2321 5602,2290 5602,2287 5603,2256 5603,2254 5606,2223 5606,2220 5610,2189 5610,2187 5615,2156 5615,2154 5621,2123 5621,2121 5628,2090 5628,2088 5636,2058 C 5636,2057 5636,2057 5637,2056 L 5645,2026 C 5645,2025 5645,2025 5646,2024 L 5655,1994 C 5655,1993 5656,1993 5656,1992 L 5666,1963 C 5666,1962 5667,1961 5667,1960 L 5678,1931 C 5679,1931 5679,1930 5679,1929 L 5692,1900 C 5692,1899 5692,1899 5693,1898 L 5706,1870 C 5706,1869 5707,1869 5707,1868 L 5721,1840 C 5722,1839 5722,1839 5722,1838 L 5738,1810 5738,1809 5740,1807 5773,1754 C 5773,1753 5774,1752 5775,1751 L 5792,1725 C 5793,1725 5793,1724 5794,1724 L 5812,1698 C 5813,1698 5813,1697 5814,1697 L 5833,1672 C 5834,1672 5834,1671 5835,1670 L 5855,1646 5856,1645 5877,1622 C 5878,1621 5878,1620 5879,1620 L 5901,1597 5902,1596 5925,1574 C 5925,1573 5926,1573 5927,1572 L 5950,1551 5951,1550 5975,1530 C 5976,1529 5977,1529 5977,1528 L 6002,1509 C 6002,1508 6003,1508 6003,1507 L 6029,1489 C 6029,1488 6030,1488 6030,1487 L 6056,1470 C 6057,1469 6058,1468 6059,1468 L 6112,1435 6114,1433 6115,1433 6143,1417 C 6144,1417 6144,1417 6145,1416 L 6173,1402 C 6174,1402 6174,1401 6175,1401 L 6203,1388 C 6204,1387 6204,1387 6205,1387 L 6234,1374 C 6235,1374 6236,1374 6236,1373 L 6265,1362 C 6266,1362 6267,1361 6268,1361 L 6297,1351 C 6298,1351 6298,1350 6299,1350 L 6329,1341 C 6330,1340 6330,1340 6331,1340 L 6361,1332 C 6362,1331 6362,1331 6363,1331 L 6393,1323 6395,1323 6426,1316 6428,1316 6459,1310 6461,1310 6492,1305 6494,1305 6526,1301 6528,1301 6559,1298 6562,1298 6593,1297 6595,1297 6627,1296 6628,1296 6629,1296 6660,1297 6663,1297 6694,1298 6696,1298 6727,1301 6730,1301 6761,1305 6763,1305 6794,1310 6796,1310 6827,1316 6829,1316 6860,1323 6862,1323 6892,1331 C 6893,1331 6893,1331 6894,1332 L 6924,1340 C 6925,1340 6925,1340 6926,1341 L 6956,1350 C 6957,1350 6957,1351 6958,1351 L 6987,1361 C 6988,1361 6989,1362 6990,1362 L 7019,1373 C 7019,1374 7020,1374 7021,1374 L 7050,1387 C 7051,1387 7051,1387 7052,1388 L 7080,1401 C 7081,1401 7081,1402 7082,1402 L 7110,1416 C 7111,1417 7111,1417 7112,1417 L 7140,1433 7141,1433 7143,1435 7196,1468 C 7197,1468 7198,1469 7199,1470 L 7225,1487 C 7225,1488 7226,1488 7226,1489 L 7252,1507 C 7252,1508 7253,1508 7253,1509 L 7278,1528 C 7278,1529 7279,1529 7280,1530 L 7304,1550 7305,1551 7328,1572 C 7329,1573 7330,1573 7330,1574 L 7353,1596 7354,1597 7376,1620 C 7377,1620 7377,1621 7378,1622 L 7399,1645 7400,1646 7420,1670 C 7421,1671 7421,1672 7422,1672 L 7441,1697 C 7442,1697 7442,1698 7443,1698 L 7461,1724 C 7462,1724 7462,1725 7463,1725 L 7480,1751 C 7481,1752 7482,1753 7482,1754 L 7515,1807 7517,1809 7517,1810 7533,1838 C 7533,1839 7533,1839 7534,1840 L 7548,1868 C 7548,1869 7549,1869 7549,1870 L 7562,1898 C 7563,1899 7563,1899 7563,1900 L 7576,1929 C 7576,1930 7576,1931 7577,1931 L 7588,1960 C 7588,1961 7589,1962 7589,1963 L 7599,1992 C 7599,1993 7600,1993 7600,1994 L 7609,2024 C 7610,2025 7610,2025 7610,2026 L 7618,2056 C 7619,2057 7619,2057 7619,2058 L 7627,2088 7627,2090 7634,2121 7634,2123 7640,2154 7640,2156 7645,2187 7645,2189 7649,2221 7649,2223 7652,2254 7652,2257 7653,2288 7653,2290 7654,2322 7654,2323 7654,2324 7653,2355 7653,2358 7652,2389 7652,2391 7649,2422 7649,2425 7645,2456 7645,2458 7640,2489 7640,2491 7634,2522 7634,2524 7627,2555 7627,2557 7619,2587 C 7619,2588 7619,2588 7618,2589 L 7610,2619 C 7610,2620 7610,2620 7609,2621 L 7600,2651 C 7600,2652 7599,2652 7599,2653 L 7589,2682 C 7589,2683 7588,2684 7588,2685 L 7577,2714 C 7576,2714 7576,2715 7576,2716 L 7563,2745 C 7563,2746 7563,2746 7562,2747 L 7549,2775 C 7549,2776 7548,2776 7548,2777 L 7534,2805 C 7533,2806 7533,2806 7533,2807 L 7517,2835 7517,2836 7515,2838 7482,2891 C 7482,2892 7481,2893 7480,2894 L 7463,2920 C 7462,2920 7462,2921 7461,2921 L 7443,2947 C 7442,2947 7442,2948 7441,2948 L 7422,2973 C 7421,2973 7421,2974 7420,2975 L 7400,2999 7399,3000 7378,3023 C 7377,3024 7377,3025 7376,3025 L 7354,3048 7353,3049 7330,3071 C 7330,3072 7329,3072 7328,3073 L 7305,3094 7304,3095 7280,3115 C 7279,3116 7278,3116 7278,3117 L 7253,3136 C 7253,3137 7252,3137 7252,3138 L 7226,3156 C 7226,3157 7225,3157 7225,3158 L 7199,3175 C 7198,3176 7197,3177 7196,3177 L 7143,3210 7141,3212 7128,3219 C 7127,3219 7127,3220 7126,3220 L 7198,4989 7733,4406 7732,4405 C 7732,4404 7731,4403 7731,4401 L 7712,4357 C 7712,4356 7712,4355 7711,4354 L 7695,4309 C 7695,4308 7694,4306 7694,4305 L 7681,4260 C 7681,4259 7680,4258 7680,4257 L 7673,4227 C 7672,4226 7672,4226 7672,4225 L 7666,4195 C 7666,4194 7665,4194 7665,4193 L 7660,4163 C 7660,4162 7660,4161 7659,4161 L 7655,4130 7655,4128 7651,4098 7651,4096 7648,4065 7648,4063 7647,4032 7647,4030 7646,3999 7646,3998 7646,3997 7647,3966 7647,3963 7648,3933 7648,3930 7651,3900 7651,3897 7655,3867 7655,3865 7659,3834 C 7660,3834 7660,3833 7660,3832 L 7665,3802 C 7665,3801 7666,3801 7666,3800 L 7672,3770 C 7672,3769 7672,3769 7673,3768 L 7680,3738 C 7680,3737 7680,3737 7681,3736 L 7689,3706 C 7689,3705 7689,3705 7690,3704 L 7699,3675 C 7699,3674 7699,3674 7700,3673 L 7710,3644 C 7710,3643 7710,3643 7711,3642 L 7722,3613 C 7722,3612 7722,3612 7723,3611 L 7735,3583 C 7735,3582 7735,3582 7736,3581 L 7749,3553 C 7749,3552 7749,3552 7750,3551 L 7764,3524 C 7764,3523 7765,3523 7765,3522 L 7780,3495 7780,3494 C 7781,3493 7781,3492 7782,3492 L 7815,3439 C 7816,3438 7816,3437 7817,3436 L 7853,3386 7856,3383 7894,3335 7897,3332 7939,3287 7942,3284 7987,3242 7990,3239 8038,3201 8041,3198 8091,3162 C 8092,3161 8093,3161 8094,3160 L 8147,3127 C 8147,3126 8148,3126 8149,3125 L 8150,3125 8177,3110 C 8178,3110 8178,3109 8179,3109 L 8206,3095 C 8207,3094 8207,3094 8208,3094 L 8236,3081 C 8237,3080 8237,3080 8238,3080 L 8266,3068 C 8267,3067 8267,3067 8268,3067 L 8297,3056 C 8298,3055 8298,3055 8299,3055 L 8328,3045 C 8329,3044 8329,3044 8330,3044 L 8359,3035 C 8360,3034 8360,3034 8361,3034 L 8391,3026 C 8392,3025 8392,3025 8393,3025 L 8423,3018 C 8424,3017 8424,3017 8425,3017 L 8455,3011 C 8456,3011 8456,3010 8457,3010 L 8487,3005 C 8488,3005 8489,3005 8489,3004 L 8520,3000 8522,3000 8552,2996 8555,2996 8585,2993 8588,2993 8618,2992 8621,2992 8652,2991 8653,2991 8654,2991 8685,2992 8687,2992 8718,2993 8720,2993 8751,2996 8753,2996 8783,3000 8785,3000 8816,3004 C 8816,3005 8817,3005 8818,3005 L 8848,3010 C 8849,3010 8849,3011 8850,3011 L 8880,3017 C 8881,3017 8881,3017 8882,3018 L 8912,3025 C 8913,3025 8913,3025 8914,3026 L 8944,3034 C 8945,3034 8945,3034 8946,3035 L 8975,3044 C 8976,3044 8976,3044 8977,3045 L 9006,3055 C 9007,3055 9007,3055 9008,3056 L 9037,3067 C 9038,3067 9038,3067 9039,3068 L 9067,3080 C 9068,3080 9068,3080 9069,3081 L 9097,3094 C 9098,3094 9098,3094 9099,3095 L 9126,3109 C 9127,3109 9127,3110 9128,3110 L 9155,3125 9156,3125 C 9157,3126 9158,3126 9158,3127 L 9211,3160 C 9212,3161 9213,3161 9214,3162 L 9264,3198 9267,3201 9315,3239 9318,3242 9363,3284 9366,3287 9408,3332 9411,3335 9449,3383 9452,3386 9488,3436 C 9489,3437 9489,3438 9490,3439 L 9523,3492 C 9524,3492 9524,3493 9525,3494 L 9525,3495 9540,3522 C 9540,3523 9541,3523 9541,3524 L 9555,3551 C 9556,3552 9556,3552 9556,3553 L 9569,3581 C 9570,3582 9570,3582 9570,3583 L 9582,3611 C 9583,3612 9583,3612 9583,3613 L 9594,3642 C 9595,3643 9595,3643 9595,3644 L 9605,3673 C 9606,3674 9606,3674 9606,3675 L 9615,3704 C 9616,3705 9616,3705 9616,3706 L 9624,3736 C 9625,3737 9625,3737 9625,3738 L 9632,3768 C 9633,3769 9633,3769 9633,3770 L 9639,3800 C 9639,3801 9640,3801 9640,3802 L 9645,3832 C 9645,3833 9645,3834 9646,3834 L 9650,3865 9650,3867 9654,3897 9654,3900 9657,3930 9657,3933 9658,3963 9658,3966 9659,3997 9659,3998 9659,3999 9658,4030 9658,4032 9657,4063 9657,4065 9654,4096 9654,4098 9650,4128 9650,4130 9646,4161 C 9645,4161 9645,4162 9645,4163 L 9640,4193 C 9640,4194 9639,4194 9639,4195 L 9633,4225 C 9633,4226 9633,4226 9632,4227 L 9625,4257 C 9625,4258 9625,4258 9624,4259 L 9616,4289 C 9616,4290 9616,4290 9615,4291 L 9606,4320 C 9606,4321 9606,4321 9605,4322 L 9595,4351 C 9595,4352 9595,4352 9594,4353 L 9583,4382 C 9583,4383 9583,4383 9582,4384 L 9570,4412 C 9570,4413 9570,4413 9569,4414 L 9556,4442 C 9556,4443 9556,4443 9555,4444 L 9541,4471 C 9541,4472 9540,4472 9540,4473 L 9525,4500 9525,4501 C 9524,4502 9524,4503 9523,4503 L 9490,4556 C 9489,4557 9489,4558 9488,4559 L 9452,4609 9449,4612 9411,4660 9408,4663 9366,4708 9363,4711 9318,4753 9315,4756 9267,4794 9264,4797 9214,4833 C 9213,4834 9212,4834 9211,4835 L 9158,4868 C 9158,4869 9157,4869 9156,4870 L 9154,4870 9124,4887 C 9123,4888 9123,4888 9122,4888 L 9090,4904 C 9089,4904 9089,4905 9088,4905 L 9056,4919 C 9056,4920 9055,4920 9054,4920 L 9022,4934 C 9021,4934 9020,4934 9020,4935 L 8987,4947 8985,4947 8952,4958 C 8951,4959 8950,4959 8949,4959 L 8916,4969 8915,4969 7713,7932 C 7712,7931 7710,7931 7708,7930 7767,7949 7827,7972 7887,8001 7990,8051 8095,8118 8188,8204 8283,8290 8367,8395 8430,8519 8493,8642 8536,8783 8547,8946 L 8547,8950 C 8570,9185 8583,9436 8583,9668 L 8583,9715 C 8583,9729 8581,9742 8578,9756 8574,9769 8569,9781 8562,9793 8555,9805 8547,9817 8537,9827 8527,9837 8515,9845 8503,9852 8491,9859 8478,9864 8465,9868 8452,9871 8438,9873 8424,9873 L 2379,9873 Z"/>
       </g>
      </g>
      <g class="com.sun.star.drawing.ClosedBezierShape">
       <g id="id4">
        <rect class="BoundingBox" stroke="none" fill="none" x="8151" y="8204" width="37" height="41"/>
        <path fill="rgb(0,0,0)" stroke="none" d="M 8187,8204 L 8151,8243 8186,8204 C 8187,8204 8187,8204 8187,8204 Z"/>
       </g>
      </g>
      <g class="com.sun.star.drawing.CustomShape">
       <g id="id5">
        <rect class="BoundingBox" stroke="none" fill="none" x="0" y="0" width="10801" height="10801"/>
       </g>
      </g>
      <g class="com.sun.star.drawing.ClosedBezierShape">
       <g id="id6">
        <rect class="BoundingBox" stroke="none" fill="none" x="2217" y="7974" width="6366" height="1900"/>
        <path fill="rgb(0,0,0)" stroke="none" d="M 7827,7975 C 7847,7983 7866,7992 7886,8001 7989,8051 8094,8118 8187,8204 8282,8290 8366,8395 8429,8519 8492,8642 8535,8783 8546,8946 L 8546,8950 C 8569,9185 8582,9436 8582,9668 L 8582,9715 C 8582,9729 8580,9742 8577,9756 8573,9769 8568,9781 8561,9793 8554,9805 8546,9817 8536,9827 8526,9837 8514,9845 8502,9852 8490,9859 8477,9864 8464,9868 8451,9871 8437,9873 8423,9873 L 2378,9873 2377,9873 C 2364,9873 2350,9871 2336,9868 2323,9864 2310,9859 2298,9852 2286,9845 2274,9836 2264,9826 2255,9817 2247,9806 2240,9795 L 2239,9794 2239,9793 C 2232,9781 2227,9769 2223,9756 2220,9742 2218,9729 2218,9715 L 2218,9668 C 2218,9439 2232,9192 2254,8959 L 2254,8955 C 2254,8951 2255,8946 2256,8942 2267,8781 2309,8641 2371,8519 2434,8395 2519,8290 2613,8204 2707,8118 2811,8051 2915,8001 2935,7992 2954,7983 2974,7975 L 7827,7975 Z"/>
       </g>
      </g>
      <g class="com.sun.star.drawing.ClosedBezierShape">
       <g id="id7">
        <rect class="BoundingBox" stroke="none" fill="none" x="1141" y="1295" width="8519" height="6434"/>
        <path fill="rgb(0,0,0)" stroke="none" d="M 3004,7727 L 1885,4969 1884,4969 1851,4959 C 1850,4959 1849,4959 1848,4958 L 1815,4947 1813,4947 1780,4935 C 1780,4934 1779,4934 1778,4934 L 1746,4920 C 1745,4920 1744,4920 1744,4919 L 1712,4905 C 1711,4905 1711,4904 1710,4904 L 1678,4888 C 1677,4888 1677,4888 1676,4887 L 1646,4870 1644,4870 C 1643,4869 1642,4869 1642,4868 L 1589,4835 C 1588,4834 1587,4834 1586,4833 L 1536,4797 1533,4794 1485,4756 1482,4753 1437,4711 1434,4708 1392,4663 1389,4660 1351,4612 1348,4609 1312,4559 C 1311,4558 1311,4557 1310,4556 L 1277,4503 C 1276,4503 1276,4502 1275,4501 L 1275,4500 1260,4473 C 1260,4472 1259,4472 1259,4471 L 1245,4444 C 1244,4443 1244,4443 1244,4442 L 1231,4414 C 1230,4413 1230,4413 1230,4412 L 1218,4384 C 1217,4383 1217,4383 1217,4382 L 1206,4353 C 1205,4352 1205,4352 1205,4351 L 1195,4322 C 1194,4321 1194,4321 1194,4320 L 1185,4291 C 1184,4290 1184,4290 1184,4289 L 1176,4259 C 1175,4258 1175,4258 1175,4257 L 1168,4227 C 1167,4226 1167,4226 1167,4225 L 1161,4195 C 1161,4194 1160,4194 1160,4193 L 1155,4163 C 1155,4162 1155,4161 1154,4161 L 1150,4130 1150,4128 1146,4098 1146,4096 1143,4065 1143,4063 1142,4032 1142,4030 1141,3999 1141,3998 1141,3997 1142,3966 1142,3963 1143,3933 1143,3930 1146,3900 1146,3897 1150,3867 1150,3865 1154,3834 C 1155,3834 1155,3833 1155,3832 L 1160,3802 C 1160,3801 1161,3801 1161,3800 L 1167,3770 C 1167,3769 1167,3769 1168,3768 L 1175,3738 C 1175,3737 1175,3737 1176,3736 L 1184,3706 C 1184,3705 1184,3705 1185,3704 L 1194,3675 C 1194,3674 1194,3674 1195,3673 L 1205,3644 C 1205,3643 1205,3643 1206,3642 L 1217,3613 C 1217,3612 1217,3612 1218,3611 L 1230,3583 C 1230,3582 1230,3582 1231,3581 L 1244,3553 C 1244,3552 1244,3552 1245,3551 L 1259,3524 C 1259,3523 1260,3523 1260,3522 L 1275,3495 1275,3494 C 1276,3493 1276,3492 1277,3492 L 1310,3439 C 1311,3438 1311,3437 1312,3436 L 1348,3386 1351,3383 1389,3335 1392,3332 1434,3287 1437,3284 1482,3242 1485,3239 1533,3201 1536,3198 1586,3162 C 1587,3161 1588,3161 1589,3160 L 1642,3127 C 1642,3126 1643,3126 1644,3125 L 1645,3125 1672,3110 C 1673,3110 1673,3109 1674,3109 L 1701,3095 C 1702,3094 1702,3094 1703,3094 L 1731,3081 C 1732,3080 1732,3080 1733,3080 L 1761,3068 C 1762,3067 1762,3067 1763,3067 L 1792,3056 C 1793,3055 1793,3055 1794,3055 L 1823,3045 C 1824,3044 1824,3044 1825,3044 L 1854,3035 C 1855,3034 1855,3034 1856,3034 L 1886,3026 C 1887,3025 1887,3025 1888,3025 L 1918,3018 C 1919,3017 1919,3017 1920,3017 L 1950,3011 C 1951,3011 1951,3010 1952,3010 L 1982,3005 C 1983,3005 1984,3005 1984,3004 L 2015,3000 2017,3000 2047,2996 2049,2996 2080,2993 2082,2993 2113,2992 2115,2992 2146,2991 2147,2991 2148,2991 2179,2992 2182,2992 2212,2993 2215,2993 2245,2996 2248,2996 2278,3000 2280,3000 2311,3004 C 2311,3005 2312,3005 2313,3005 L 2343,3010 C 2344,3010 2344,3011 2345,3011 L 2375,3017 C 2376,3017 2376,3017 2377,3018 L 2407,3025 C 2408,3025 2408,3025 2409,3026 L 2439,3034 C 2440,3034 2440,3034 2441,3035 L 2470,3044 C 2471,3044 2471,3044 2472,3045 L 2501,3055 C 2502,3055 2502,3055 2503,3056 L 2532,3067 C 2533,3067 2533,3067 2534,3068 L 2562,3080 C 2563,3080 2563,3080 2564,3081 L 2592,3094 C 2593,3094 2593,3094 2594,3095 L 2621,3109 C 2622,3109 2622,3110 2623,3110 L 2650,3125 2651,3125 C 2652,3126 2653,3126 2653,3127 L 2706,3160 C 2707,3161 2708,3161 2709,3162 L 2759,3198 2762,3201 2810,3239 2813,3242 2858,3284 2861,3287 2903,3332 2906,3335 2944,3383 2947,3386 2983,3436 C 2984,3437 2984,3438 2985,3439 L 3018,3492 C 3019,3492 3019,3493 3020,3494 L 3020,3495 3035,3522 C 3035,3523 3036,3523 3036,3524 L 3050,3551 C 3051,3552 3051,3552 3051,3553 L 3064,3581 C 3065,3582 3065,3582 3065,3583 L 3077,3611 C 3078,3612 3078,3612 3078,3613 L 3089,3642 C 3090,3643 3090,3643 3090,3644 L 3100,3673 C 3101,3674 3101,3674 3101,3675 L 3110,3704 C 3111,3705 3111,3705 3111,3706 L 3119,3736 C 3120,3737 3120,3737 3120,3738 L 3127,3768 C 3128,3769 3128,3769 3128,3770 L 3134,3800 C 3134,3801 3135,3801 3135,3802 L 3140,3832 C 3140,3833 3140,3834 3141,3834 L 3145,3865 3145,3867 3149,3897 3149,3900 3152,3930 3152,3933 3153,3963 3153,3966 3154,3997 3154,3998 3154,3999 3153,4030 3153,4032 3152,4063 3152,4065 3149,4096 3149,4098 3145,4128 3145,4130 3141,4161 C 3140,4161 3140,4162 3140,4163 L 3135,4193 C 3135,4194 3134,4194 3134,4195 L 3128,4225 C 3128,4226 3128,4226 3127,4227 L 3120,4257 C 3120,4258 3119,4259 3119,4260 L 3106,4305 C 3106,4306 3105,4308 3105,4309 L 3089,4354 C 3088,4355 3088,4356 3088,4357 L 3069,4401 C 3069,4403 3068,4404 3068,4405 L 3067,4406 3602,4989 3674,3220 C 3673,3220 3673,3219 3672,3219 L 3659,3212 3657,3210 3604,3177 C 3603,3177 3602,3176 3601,3175 L 3575,3158 C 3575,3157 3574,3157 3574,3156 L 3548,3138 C 3548,3137 3547,3137 3547,3136 L 3522,3117 C 3522,3116 3521,3116 3520,3115 L 3496,3095 3495,3094 3472,3073 C 3471,3072 3470,3072 3470,3071 L 3447,3049 3446,3048 3424,3025 C 3423,3025 3423,3024 3422,3023 L 3401,3000 3400,2999 3380,2975 C 3379,2974 3379,2973 3378,2973 L 3359,2948 C 3358,2948 3358,2947 3357,2947 L 3339,2921 C 3338,2921 3338,2920 3337,2920 L 3320,2894 C 3319,2893 3318,2892 3318,2891 L 3285,2838 3283,2836 3283,2835 3267,2807 C 3267,2806 3267,2806 3266,2805 L 3252,2777 C 3252,2776 3251,2776 3251,2775 L 3238,2747 C 3237,2746 3237,2746 3237,2745 L 3224,2716 C 3224,2715 3224,2714 3223,2714 L 3212,2685 C 3212,2684 3211,2683 3211,2682 L 3201,2653 C 3201,2652 3200,2652 3200,2651 L 3191,2621 C 3190,2620 3190,2620 3190,2619 L 3182,2589 C 3181,2588 3181,2588 3181,2587 L 3173,2557 3173,2555 3166,2524 3166,2522 3160,2491 3160,2489 3155,2458 3155,2456 3151,2425 3151,2422 3148,2391 3148,2389 3147,2358 3147,2355 3146,2324 3146,2323 3146,2322 3147,2290 3147,2288 3148,2257 3148,2254 3151,2223 3151,2221 3155,2189 3155,2187 3160,2156 3160,2154 3166,2123 3166,2121 3173,2090 3173,2088 3181,2058 C 3181,2057 3181,2057 3182,2056 L 3190,2026 C 3190,2025 3190,2025 3191,2024 L 3200,1994 C 3200,1993 3201,1993 3201,1992 L 3211,1963 C 3211,1962 3212,1961 3212,1960 L 3223,1931 C 3224,1931 3224,1930 3224,1929 L 3237,1900 C 3237,1899 3237,1899 3238,1898 L 3251,1870 C 3251,1869 3252,1869 3252,1868 L 3266,1840 C 3267,1839 3267,1839 3267,1838 L 3283,1810 3283,1809 3285,1807 3318,1754 C 3318,1753 3319,1752 3320,1751 L 3337,1725 C 3338,1725 3338,1724 3339,1724 L 3357,1698 C 3358,1698 3358,1697 3359,1697 L 3378,1672 C 3379,1672 3379,1671 3380,1670 L 3400,1646 3401,1645 3422,1622 C 3423,1621 3423,1620 3424,1620 L 3446,1597 3447,1596 3470,1574 C 3470,1573 3471,1573 3472,1572 L 3495,1551 3496,1550 3520,1530 C 3521,1529 3522,1529 3522,1528 L 3547,1509 C 3547,1508 3548,1508 3548,1507 L 3574,1489 C 3574,1488 3575,1488 3575,1487 L 3601,1470 C 3602,1469 3603,1468 3604,1468 L 3657,1435 3659,1433 3660,1433 3688,1417 C 3689,1417 3689,1417 3690,1416 L 3718,1402 C 3719,1402 3719,1401 3720,1401 L 3748,1388 C 3749,1387 3749,1387 3750,1387 L 3779,1374 C 3780,1374 3781,1374 3781,1373 L 3810,1362 C 3811,1362 3812,1361 3813,1361 L 3842,1351 C 3843,1351 3843,1350 3844,1350 L 3874,1341 C 3875,1340 3875,1340 3876,1340 L 3906,1332 C 3907,1331 3907,1331 3908,1331 L 3938,1323 3940,1323 3971,1316 3973,1316 4004,1310 4006,1310 4037,1305 4039,1305 4070,1301 4073,1301 4104,1298 4106,1298 4137,1297 4140,1297 4171,1296 4172,1296 4173,1296 4205,1297 4207,1297 4238,1298 4241,1298 4272,1301 4274,1301 4306,1305 4308,1305 4339,1310 4341,1310 4372,1316 4374,1316 4405,1323 4407,1323 4437,1331 C 4438,1331 4438,1331 4439,1332 L 4469,1340 C 4470,1340 4470,1340 4471,1341 L 4501,1350 C 4502,1350 4502,1351 4503,1351 L 4532,1361 C 4533,1361 4534,1362 4535,1362 L 4564,1373 C 4564,1374 4565,1374 4566,1374 L 4595,1387 C 4596,1387 4596,1387 4597,1388 L 4625,1401 C 4626,1401 4626,1402 4627,1402 L 4655,1416 C 4656,1417 4656,1417 4657,1417 L 4685,1433 4686,1433 4688,1435 4741,1468 C 4742,1468 4743,1469 4744,1470 L 4770,1487 C 4770,1488 4771,1488 4771,1489 L 4797,1507 C 4797,1508 4798,1508 4798,1509 L 4823,1528 C 4823,1529 4824,1529 4825,1530 L 4849,1550 4850,1551 4873,1572 C 4874,1573 4875,1573 4875,1574 L 4898,1596 4899,1597 4921,1620 C 4922,1620 4922,1621 4923,1622 L 4944,1645 4945,1646 4965,1670 C 4966,1671 4966,1672 4967,1672 L 4986,1697 C 4987,1697 4987,1698 4988,1698 L 5006,1724 C 5007,1724 5007,1725 5008,1725 L 5025,1751 C 5026,1752 5027,1753 5027,1754 L 5060,1807 5062,1809 5062,1810 5078,1838 C 5078,1839 5078,1839 5079,1840 L 5093,1868 C 5093,1869 5094,1869 5094,1870 L 5107,1898 C 5108,1899 5108,1899 5108,1900 L 5121,1929 C 5121,1930 5121,1931 5122,1931 L 5133,1960 C 5133,1961 5134,1962 5134,1963 L 5144,1992 C 5144,1993 5145,1993 5145,1994 L 5154,2024 C 5155,2025 5155,2025 5155,2026 L 5163,2056 C 5164,2057 5164,2057 5164,2058 L 5172,2088 5172,2090 5179,2121 5179,2123 5185,2154 5185,2156 5190,2187 5190,2189 5194,2220 5194,2223 5197,2254 5197,2256 5198,2287 5198,2290 5199,2321 5199,2322 5199,2323 5198,2355 5198,2357 5197,2388 5197,2391 5194,2422 5194,2424 5190,2456 5190,2458 5185,2489 5185,2491 5179,2522 5179,2524 5172,2555 5172,2557 5164,2587 C 5164,2588 5164,2588 5163,2589 L 5155,2619 C 5155,2620 5155,2620 5154,2621 L 5145,2651 C 5145,2652 5144,2652 5144,2653 L 5134,2682 C 5134,2683 5133,2684 5133,2685 L 5122,2714 C 5121,2714 5121,2715 5121,2716 L 5108,2745 C 5108,2746 5108,2746 5107,2747 L 5094,2775 C 5094,2776 5093,2776 5093,2777 L 5079,2805 C 5078,2806 5078,2806 5078,2807 L 5062,2835 5062,2836 C 5061,2836 5061,2837 5061,2837 L 5044,2866 5042,2868 5024,2896 C 5023,2897 5023,2898 5022,2898 L 5003,2926 C 5003,2927 5002,2927 5002,2928 L 4981,2955 C 4981,2956 4980,2956 4980,2957 L 4959,2983 C 4958,2983 4958,2984 4957,2984 L 4935,3010 C 4934,3010 4934,3011 4933,3011 L 4917,3029 5400,4376 5882,3029 5866,3011 C 5865,3011 5865,3010 5864,3010 L 5842,2984 C 5841,2984 5841,2983 5840,2983 L 5819,2957 C 5819,2956 5818,2956 5818,2955 L 5797,2928 C 5797,2927 5796,2927 5796,2926 L 5777,2898 C 5776,2898 5776,2897 5775,2896 L 5757,2868 5755,2866 5738,2837 C 5738,2837 5738,2836 5737,2836 L 5737,2835 5721,2807 C 5721,2806 5721,2806 5720,2805 L 5706,2777 C 5706,2776 5705,2776 5705,2775 L 5692,2747 C 5691,2746 5691,2746 5691,2745 L 5678,2716 C 5678,2715 5678,2714 5677,2714 L 5666,2685 C 5666,2684 5665,2683 5665,2682 L 5655,2653 C 5655,2652 5654,2652 5654,2651 L 5645,2621 C 5644,2620 5644,2620 5644,2619 L 5636,2589 C 5635,2588 5635,2588 5635,2587 L 5627,2557 5627,2555 5620,2524 5620,2522 5614,2491 5614,2489 5609,2458 5609,2456 5605,2424 5605,2422 5602,2391 5602,2388 5601,2357 5601,2355 5600,2323 5600,2322 5600,2321 5601,2290 5601,2287 5602,2256 5602,2254 5605,2223 5605,2220 5609,2189 5609,2187 5614,2156 5614,2154 5620,2123 5620,2121 5627,2090 5627,2088 5635,2058 C 5635,2057 5635,2057 5636,2056 L 5644,2026 C 5644,2025 5644,2025 5645,2024 L 5654,1994 C 5654,1993 5655,1993 5655,1992 L 5665,1963 C 5665,1962 5666,1961 5666,1960 L 5677,1931 C 5678,1931 5678,1930 5678,1929 L 5691,1900 C 5691,1899 5691,1899 5692,1898 L 5705,1870 C 5705,1869 5706,1869 5706,1868 L 5720,1840 C 5721,1839 5721,1839 5721,1838 L 5737,1810 5737,1809 5739,1807 5772,1754 C 5772,1753 5773,1752 5774,1751 L 5791,1725 C 5792,1725 5792,1724 5793,1724 L 5811,1698 C 5812,1698 5812,1697 5813,1697 L 5832,1672 C 5833,1672 5833,1671 5834,1670 L 5854,1646 5855,1645 5876,1622 C 5877,1621 5877,1620 5878,1620 L 5900,1597 5901,1596 5924,1574 C 5924,1573 5925,1573 5926,1572 L 5949,1551 5950,1550 5974,1530 C 5975,1529 5976,1529 5976,1528 L 6001,1509 C 6001,1508 6002,1508 6002,1507 L 6028,1489 C 6028,1488 6029,1488 6029,1487 L 6055,1470 C 6056,1469 6057,1468 6058,1468 L 6111,1435 6113,1433 6114,1433 6142,1417 C 6143,1417 6143,1417 6144,1416 L 6172,1402 C 6173,1402 6173,1401 6174,1401 L 6202,1388 C 6203,1387 6203,1387 6204,1387 L 6233,1374 C 6234,1374 6235,1374 6235,1373 L 6264,1362 C 6265,1362 6266,1361 6267,1361 L 6296,1351 C 6297,1351 6297,1350 6298,1350 L 6328,1341 C 6329,1340 6329,1340 6330,1340 L 6360,1332 C 6361,1331 6361,1331 6362,1331 L 6392,1323 6394,1323 6425,1316 6427,1316 6458,1310 6460,1310 6491,1305 6493,1305 6525,1301 6527,1301 6558,1298 6561,1298 6592,1297 6594,1297 6626,1296 6627,1296 6628,1296 6659,1297 6662,1297 6693,1298 6695,1298 6726,1301 6729,1301 6760,1305 6762,1305 6793,1310 6795,1310 6826,1316 6828,1316 6859,1323 6861,1323 6891,1331 C 6892,1331 6892,1331 6893,1332 L 6923,1340 C 6924,1340 6924,1340 6925,1341 L 6955,1350 C 6956,1350 6956,1351 6957,1351 L 6986,1361 C 6987,1361 6988,1362 6989,1362 L 7018,1373 C 7018,1374 7019,1374 7020,1374 L 7049,1387 C 7050,1387 7050,1387 7051,1388 L 7079,1401 C 7080,1401 7080,1402 7081,1402 L 7109,1416 C 7110,1417 7110,1417 7111,1417 L 7139,1433 7140,1433 7142,1435 7195,1468 C 7196,1468 7197,1469 7198,1470 L 7224,1487 C 7224,1488 7225,1488 7225,1489 L 7251,1507 C 7251,1508 7252,1508 7252,1509 L 7277,1528 C 7277,1529 7278,1529 7279,1530 L 7303,1550 7304,1551 7327,1572 C 7328,1573 7329,1573 7329,1574 L 7352,1596 7353,1597 7375,1620 C 7376,1620 7376,1621 7377,1622 L 7398,1645 7399,1646 7419,1670 C 7420,1671 7420,1672 7421,1672 L 7440,1697 C 7441,1697 7441,1698 7442,1698 L 7460,1724 C 7461,1724 7461,1725 7462,1725 L 7479,1751 C 7480,1752 7481,1753 7481,1754 L 7514,1807 7516,1809 7516,1810 7532,1838 C 7532,1839 7532,1839 7533,1840 L 7547,1868 C 7547,1869 7548,1869 7548,1870 L 7561,1898 C 7562,1899 7562,1899 7562,1900 L 7575,1929 C 7575,1930 7575,1931 7576,1931 L 7587,1960 C 7587,1961 7588,1962 7588,1963 L 7598,1992 C 7598,1993 7599,1993 7599,1994 L 7608,2024 C 7609,2025 7609,2025 7609,2026 L 7617,2056 C 7618,2057 7618,2057 7618,2058 L 7626,2088 7626,2090 7633,2121 7633,2123 7639,2154 7639,2156 7644,2187 7644,2189 7648,2221 7648,2223 7651,2254 7651,2257 7652,2288 7652,2290 7653,2322 7653,2323 7653,2324 7652,2355 7652,2358 7651,2389 7651,2391 7648,2422 7648,2425 7644,2456 7644,2458 7639,2489 7639,2491 7633,2522 7633,2524 7626,2555 7626,2557 7618,2587 C 7618,2588 7618,2588 7617,2589 L 7609,2619 C 7609,2620 7609,2620 7608,2621 L 7599,2651 C 7599,2652 7598,2652 7598,2653 L 7588,2682 C 7588,2683 7587,2684 7587,2685 L 7576,2714 C 7575,2714 7575,2715 7575,2716 L 7562,2745 C 7562,2746 7562,2746 7561,2747 L 7548,2775 C 7548,2776 7547,2776 7547,2777 L 7533,2805 C 7532,2806 7532,2806 7532,2807 L 7516,2835 7516,2836 7514,2838 7481,2891 C 7481,2892 7480,2893 7479,2894 L 7462,2920 C 7461,2920 7461,2921 7460,2921 L 7442,2947 C 7441,2947 7441,2948 7440,2948 L 7421,2973 C 7420,2973 7420,2974 7419,2975 L 7399,2999 7398,3000 7377,3023 C 7376,3024 7376,3025 7375,3025 L 7353,3048 7352,3049 7329,3071 C 7329,3072 7328,3072 7327,3073 L 7304,3094 7303,3095 7279,3115 C 7278,3116 7277,3116 7277,3117 L 7252,3136 C 7252,3137 7251,3137 7251,3138 L 7225,3156 C 7225,3157 7224,3157 7224,3158 L 7198,3175 C 7197,3176 7196,3177 7195,3177 L 7142,3210 7140,3212 7127,3219 C 7126,3219 7126,3220 7125,3220 L 7197,4989 7732,4406 7731,4405 C 7731,4404 7730,4403 7730,4401 L 7711,4357 C 7711,4356 7711,4355 7710,4354 L 7694,4309 C 7694,4308 7693,4306 7693,4305 L 7680,4260 C 7680,4259 7679,4258 7679,4257 L 7672,4227 C 7671,4226 7671,4226 7671,4225 L 7665,4195 C 7665,4194 7664,4194 7664,4193 L 7659,4163 C 7659,4162 7659,4161 7658,4161 L 7654,4130 7654,4128 7650,4098 7650,4096 7647,4065 7647,4063 7646,4032 7646,4030 7645,3999 7645,3998 7645,3997 7646,3966 7646,3963 7647,3933 7647,3930 7650,3900 7650,3897 7654,3867 7654,3865 7658,3834 C 7659,3834 7659,3833 7659,3832 L 7664,3802 C 7664,3801 7665,3801 7665,3800 L 7671,3770 C 7671,3769 7671,3769 7672,3768 L 7679,3738 C 7679,3737 7679,3737 7680,3736 L 7688,3706 C 7688,3705 7688,3705 7689,3704 L 7698,3675 C 7698,3674 7698,3674 7699,3673 L 7709,3644 C 7709,3643 7709,3643 7710,3642 L 7721,3613 C 7721,3612 7721,3612 7722,3611 L 7734,3583 C 7734,3582 7734,3582 7735,3581 L 7748,3553 C 7748,3552 7748,3552 7749,3551 L 7763,3524 C 7763,3523 7764,3523 7764,3522 L 7779,3495 7779,3494 C 7780,3493 7780,3492 7781,3492 L 7814,3439 C 7815,3438 7815,3437 7816,3436 L 7852,3386 7855,3383 7893,3335 7896,3332 7938,3287 7941,3284 7986,3242 7989,3239 8037,3201 8040,3198 8090,3162 C 8091,3161 8092,3161 8093,3160 L 8146,3127 C 8146,3126 8147,3126 8148,3125 L 8149,3125 8176,3110 C 8177,3110 8177,3109 8178,3109 L 8205,3095 C 8206,3094 8206,3094 8207,3094 L 8235,3081 C 8236,3080 8236,3080 8237,3080 L 8265,3068 C 8266,3067 8266,3067 8267,3067 L 8296,3056 C 8297,3055 8297,3055 8298,3055 L 8327,3045 C 8328,3044 8328,3044 8329,3044 L 8358,3035 C 8359,3034 8359,3034 8360,3034 L 8390,3026 C 8391,3025 8391,3025 8392,3025 L 8422,3018 C 8423,3017 8423,3017 8424,3017 L 8454,3011 C 8455,3011 8455,3010 8456,3010 L 8486,3005 C 8487,3005 8488,3005 8488,3004 L 8519,3000 8521,3000 8551,2996 8554,2996 8584,2993 8587,2993 8617,2992 8620,2992 8651,2991 8652,2991 8653,2991 8684,2992 8686,2992 8717,2993 8719,2993 8750,2996 8752,2996 8782,3000 8784,3000 8815,3004 C 8815,3005 8816,3005 8817,3005 L 8847,3010 C 8848,3010 8848,3011 8849,3011 L 8879,3017 C 8880,3017 8880,3017 8881,3018 L 8911,3025 C 8912,3025 8912,3025 8913,3026 L 8943,3034 C 8944,3034 8944,3034 8945,3035 L 8974,3044 C 8975,3044 8975,3044 8976,3045 L 9005,3055 C 9006,3055 9006,3055 9007,3056 L 9036,3067 C 9037,3067 9037,3067 9038,3068 L 9066,3080 C 9067,3080 9067,3080 9068,3081 L 9096,3094 C 9097,3094 9097,3094 9098,3095 L 9125,3109 C 9126,3109 9126,3110 9127,3110 L 9154,3125 9155,3125 C 9156,3126 9157,3126 9157,3127 L 9210,3160 C 9211,3161 9212,3161 9213,3162 L 9263,3198 9266,3201 9314,3239 9317,3242 9362,3284 9365,3287 9407,3332 9410,3335 9448,3383 9451,3386 9487,3436 C 9488,3437 9488,3438 9489,3439 L 9522,3492 C 9523,3492 9523,3493 9524,3494 L 9524,3495 9539,3522 C 9539,3523 9540,3523 9540,3524 L 9554,3551 C 9555,3552 9555,3552 9555,3553 L 9568,3581 C 9569,3582 9569,3582 9569,3583 L 9581,3611 C 9582,3612 9582,3612 9582,3613 L 9593,3642 C 9594,3643 9594,3643 9594,3644 L 9604,3673 C 9605,3674 9605,3674 9605,3675 L 9614,3704 C 9615,3705 9615,3705 9615,3706 L 9623,3736 C 9624,3737 9624,3737 9624,3738 L 9631,3768 C 9632,3769 9632,3769 9632,3770 L 9638,3800 C 9638,3801 9639,3801 9639,3802 L 9644,3832 C 9644,3833 9644,3834 9645,3834 L 9649,3865 9649,3867 9653,3897 9653,3900 9656,3930 9656,3933 9657,3963 9657,3966 9658,3997 9658,3998 9658,3999 9657,4030 9657,4032 9656,4063 9656,4065 9653,4096 9653,4098 9649,4128 9649,4130 9645,4161 C 9644,4161 9644,4162 9644,4163 L 9639,4193 C 9639,4194 9638,4194 9638,4195 L 9632,4225 C 9632,4226 9632,4226 9631,4227 L 9624,4257 C 9624,4258 9624,4258 9623,4259 L 9615,4289 C 9615,4290 9615,4290 9614,4291 L 9605,4320 C 9605,4321 9605,4321 9604,4322 L 9594,4351 C 9594,4352 9594,4352 9593,4353 L 9582,4382 C 9582,4383 9582,4383 9581,4384 L 9569,4412 C 9569,4413 9569,4413 9568,4414 L 9555,4442 C 9555,4443 9555,4443 9554,4444 L 9540,4471 C 9540,4472 9539,4472 9539,4473 L 9524,4500 9524,4501 C 9523,4502 9523,4503 9522,4503 L 9489,4556 C 9488,4557 9488,4558 9487,4559 L 9451,4609 9448,4612 9410,4660 9407,4663 9365,4708 9362,4711 9317,4753 9314,4756 9266,4794 9263,4797 9213,4833 C 9212,4834 9211,4834 9210,4835 L 9157,4868 C 9157,4869 9156,4869 9155,4870 L 9153,4870 9123,4887 C 9122,4888 9122,4888 9121,4888 L 9089,4904 C 9088,4904 9088,4905 9087,4905 L 9055,4919 C 9055,4920 9054,4920 9053,4920 L 9021,4934 C 9020,4934 9019,4934 9019,4935 L 8986,4947 8984,4947 8951,4958 C 8950,4959 8949,4959 8948,4959 L 8915,4969 8914,4969 7795,7727 3004,7727 Z"/>
       </g>
      </g>
     </g>
    </g>
   </g>
  </g>
 </g>
</svg>