<?xml version="1.0" encoding="UTF-8"?>
<!DOCTYPE svg PUBLIC "-//W3C//DTD SVG 1.1//EN" "http://www.w3.org/Graphics/SVG/1.1/DTD/svg11.dtd">
<svg version="1.2" width="108mm" height="108mm" viewBox="0 0 10800 10800" preserveAspectRatio="xMidYMid" fill-rule="evenodd" stroke-width="28.222" stroke-linejoin="round" xmlns="http://www.w3.org/2000/svg" xmlns:ooo="http://xml.openoffice.org/svg/export" xmlns:xlink="http://www.w3.org/1999/xlink" xmlns:presentation="http://sun.com/xmlns/staroffice/presentation" xmlns:smil="http://www.w3.org/2001/SMIL20/" xmlns:anim="urn:oasis:names:tc:opendocument:xmlns:animation:1.0" xmlns:svg="urn:oasis:names:tc:opendocument:xmlns:svg-compatible:1.0" xml:space="preserve">
 <defs class="ClipPathGroup">
  <clipPath id="presentation_clip_path" clipPathUnits="userSpaceOnUse">
   <rect x="0" y="0" width="10800" height="10800"/>
  </clipPath>
  <clipPath id="presentation_clip_path_shrink" clipPathUnits="userSpaceOnUse">
   <rect x="10" y="10" width="10779" height="10779"/>
  </clipPath>
 </defs>
 <defs class="EmbeddedBulletChars">
  <g id="bullet-char-template-57356" transform="scale(0.00048828125,-0.00048828125)">
   <path d="M 580,1141 L 1163,571 580,0 -4,571 580,1141 Z"/>
  </g>
  <g id="bullet-char-template-57354" transform="scale(0.00048828125,-0.00048828125)">
   <path d="M 8,1128 L 1137,1128 1137,0 8,0 8,1128 Z"/>
  </g>
  <g id="bullet-char-template-10146" transform="scale(0.00048828125,-0.00048828125)">
   <path d="M 174,0 L 602,739 174,1481 1456,739 174,0 Z M 1358,739 L 309,1346 659,739 1358,739 Z"/>
  </g>
  <g id="bullet-char-template-10132" transform="scale(0.00048828125,-0.00048828125)">
   <path d="M 2015,739 L 1276,0 717,0 1260,543 174,543 174,936 1260,936 717,1481 1274,1481 2015,739 Z"/>
  </g>
  <g id="bullet-char-template-10007" transform="scale(0.00048828125,-0.00048828125)">
   <path d="M 0,-2 C -7,14 -16,27 -25,37 L 356,567 C 262,823 215,952 215,954 215,979 228,992 255,992 264,992 276,990 289,987 310,991 331,999 354,1012 L 381,999 492,748 772,1049 836,1024 860,1049 C 881,1039 901,1025 922,1006 886,937 835,863 770,784 769,783 710,716 594,584 L 774,223 C 774,196 753,168 711,139 L 727,119 C 717,90 699,76 672,76 641,76 570,178 457,381 L 164,-76 C 142,-110 111,-127 72,-127 30,-127 9,-110 8,-76 1,-67 -2,-52 -2,-32 -2,-23 -1,-13 0,-2 Z"/>
  </g>
  <g id="bullet-char-template-10004" transform="scale(0.00048828125,-0.00048828125)">
   <path d="M 285,-33 C 182,-33 111,30 74,156 52,228 41,333 41,471 41,549 55,616 82,672 116,743 169,778 240,778 293,778 328,747 346,684 L 369,508 C 377,444 397,411 428,410 L 1163,1116 C 1174,1127 1196,1133 1229,1133 1271,1133 1292,1118 1292,1087 L 1292,965 C 1292,929 1282,901 1262,881 L 442,47 C 390,-6 338,-33 285,-33 Z"/>
  </g>
  <g id="bullet-char-template-9679" transform="scale(0.00048828125,-0.00048828125)">
   <path d="M 813,0 C 632,0 489,54 383,161 276,268 223,411 223,592 223,773 276,916 383,1023 489,1130 632,1184 813,1184 992,1184 1136,1130 1245,1023 1353,916 1407,772 1407,592 1407,412 1353,268 1245,161 1136,54 992,0 813,0 Z"/>
  </g>
  <g id="bullet-char-template-8226" transform="scale(0.00048828125,-0.00048828125)">
   <path d="M 346,457 C 273,457 209,483 155,535 101,586 74,649 74,723 74,796 101,859 155,911 209,963 273,989 346,989 419,989 480,963 531,910 582,859 608,796 608,723 608,648 583,586 532,535 482,483 420,457 346,457 Z"/>
  </g>
  <g id="bullet-char-template-8211" transform="scale(0.00048828125,-0.00048828125)">
   <path d="M -4,459 L 1135,459 1135,606 -4,606 -4,459 Z"/>
  </g>
  <g id="bullet-char-template-61548" transform="scale(0.00048828125,-0.00048828125)">
   <path d="M 173,740 C 173,903 231,1043 346,1159 462,1274 601,1332 765,1332 928,1332 1067,1274 1183,1159 1299,1043 1357,903 1357,740 1357,577 1299,437 1183,322 1067,206 928,148 765,148 601,148 462,206 346,322 231,437 173,577 173,740 Z"/>
  </g>
 </defs>
 <g>
  <g id="id2" class="Master_Slide">
   <g id="bg-id2" class="Background"/>
   <g id="bo-id2" class="BackgroundObjects"/>
  </g>
 </g>
 <g class="SlideGroup">
  <g>
   <g id="container-id1">
    <g id="id1" class="Slide" clip-path="url(#presentation_clip_path)">
     <g class="Page">
      <g class="com.sun.star.drawing.ClosedBezierShape">
       <g id="id3">
        <rect class="BoundingBox" stroke="none" fill="none" x="1141" y="1296" width="8518" height="8578"/>
        <path fill="rgb(255,255,255)" stroke="none" d="M 2378,9873 L 2377,9873 C 2364,9873 2350,9871 2336,9868 2323,9864 2310,9859 2298,9852 2286,9845 2274,9836 2264,9826 2255,9817 2247,9806 2240,9795 L 2239,9794 2239,9793 C 2232,9781 2227,9769 2223,9756 2220,9742 2218,9729 2218,9715 L 2218,9668 C 2218,9439 2232,9192 2254,8959 L 2254,8955 C 2254,8951 2255,8946 2256,8942 2267,8781 2309,8641 2371,8519 2434,8395 2519,8290 2613,8204 2707,8118 2811,8051 2915,8001 2973,7973 3030,7951 3087,7933 L 1885,4969 1884,4969 1851,4959 C 1850,4959 1849,4959 1848,4958 L 1815,4947 1813,4947 1780,4935 C 1780,4934 1779,4934 1778,4934 L 1746,4920 C 1745,4920 1744,4920 1744,4919 L 1712,4905 C 1711,4905 1711,4904 1710,4904 L 1678,4888 C 1677,4888 1677,4888 1676,4887 L 1646,4870 1644,4870 C 1643,4869 1642,4869 1642,4868 L 1589,4835 C 1588,4834 1587,4834 1586,4833 L 1536,4797 1533,4794 1485,4756 1482,4753 1437,4711 1434,4708 1392,4663 1389,4660 1351,4612 1348,4609 1312,4559 C 1311,4558 1311,4557 1310,4556 L 1277,4503 C 1276,4503 1276,4502 1275,4501 L 1275,4500 1260,4473 C 1260,4472 1259,4472 1259,4471 L 1245,4444 C 1244,4443 1244,4443 1244,4442 L 1231,4414 C 1230,4413 1230,4413 1230,4412 L 1218,4384 C 1217,4383 1217,4383 1217,4382 L 1206,4353 C 1205,4352 1205,4352 1205,4351 L 1195,4322 C 1194,4321 1194,4321 1194,4320 L 1185,4291 C 1184,4290 1184,4290 1184,4289 L 1176,4259 C 1175,4258 1175,4258 1175,4257 L 1168,4227 C 1167,4226 1167,4226 1167,4225 L 1161,4195 C 1161,4194 1160,4194 1160,4193 L 1155,4163 C 1155,4162 1155,4161 1154,4161 L 1150,4130 1150,4128 1146,4098 1146,4096 1143,4065 1143,4063 1142,4032 1142,4030 1141,3999 1141,3998 1141,3997 1142,3966 1142,3963 1143,3933 1143,3930 1146,3900 1146,3897 1150,3867 1150,3865 1154,3834 C 1155,3834 1155,3833 1155,3832 L 1160,3802 C 1160,3801 1161,3801 1161,3800 L 1167,3770 C 1167,3769 1167,3769 1168,3768 L 1175,3738 C 1175,3737 1175,3737 1176,3736 L 1184,3706 C 1184,3705 1184,3705 1185,3704 L 1194,3675 C 1194,3674 1194,3674 1195,3673 L 1205,3644 C 1205,3643 1205,3643 1206,3642 L 1217,3613 C 1217,3612 1217,3612 1218,3611 L 1230,3583 C 1230,3582 1230,3582 1231,3581 L 1244,3553 C 1244,3552 1244,3552 1245,3551 L 1259,3524 C 1259,3523 1260,3523 1260,3522 L 1275,3495 1275,3494 C 1276,3493 1276,3492 1277,3492 L 1310,3439 C 1311,3438 1311,3437 1312,3436 L 1348,3386 1351,3383 1389,3335 1392,3332 1434,3287 1437,3284 1482,3242 1485,3239 1533,3201 1536,3198 1586,3162 C 1587,3161 1588,3161 1589,3160 L 1642,3127 C 1642,3126 1643,3126 1644,3125 L 1645,3125 1672,3110 C 1673,3110 1673,3109 1674,3109 L 1701,3095 C 1702,3094 1702,3094 1703,3094 L 1731,3081 C 1732,3080 1732,3080 1733,3080 L 1761,3068 C 1762,3067 1762,3067 1763,3067 L 1792,3056 C 1793,3055 1793,3055 1794,3055 L 1823,3045 C 1824,3044 1824,3044 1825,3044 L 1854,3035 C 1855,3034 1855,3034 1856,3034 L 1886,3026 C 1887,3025 1887,3025 1888,3025 L 1918,3018 C 1919,3017 1919,3017 1920,3017 L 1950,3011 C 1951,3011 1951,3010 1952,3010 L 1982,3005 C 1983,3005 1984,3005 1984,3004 L 2015,3000 2017,3000 2047,2996 2049,2996 2080,2993 2082,2993 2113,2992 2115,2992 2146,2991 2147,2991 2148,2991 2179,2992 2182,2992 2212,2993 2215,2993 2245,2996 2248,2996 2278,3000 2280,3000 2311,3004 C 2311,3005 2312,3005 2313,3005 L 2343,3010 C 2344,3010 2344,3011 2345,3011 L 2375,3017 C 2376,3017 2376,3017 2377,3018 L 2407,3025 C 2408,3025 2408,3025 2409,3026 L 2439,3034 C 2440,3034 2440,3034 2441,3035 L 2470,3044 C 2471,3044 2471,3044 2472,3045 L 2501,3055 C 2502,3055 2502,3055 2503,3056 L 2532,3067 C 2533,3067 2533,3067 2534,3068 L 2562,3080 C 2563,3080 2563,3080 2564,3081 L 2592,3094 C 2593,3094 2593,3094 2594,3095 L 2621,3109 C 2622,3109 2622,3110 2623,3110 L 2650,3125 2651,3125 C 2652,3126 2653,3126 2653,3127 L 2706,3160 C 2707,3161 2708,3161 2709,3162 L 2759,3198 2762,3201 2810,3239 2813,3242 2858,3284 2861,3287 2903,3332 2906,3335 2944,3383 2947,3386 2983,3436 C 2984,3437 2984,3438 2985,3439 L 3018,3492 C 3019,3492 3019,3493 3020,3494 L 3020,3495 3035,3522 C 3035,3523 3036,3523 3036,3524 L 3050,3551 C 3051,3552 3051,3552 3051,3553 L 3064,3581 C 3065,3582 3065,3582 3065,3583 L 3077,3611 C 3078,3612 3078,3612 3078,3613 L 3089,3642 C 3090,3643 3090,3643 3090,3644 L 3100,3673 C 3101,3674 3101,3674 3101,3675 L 3110,3704 C 3111,3705 3111,3705 3111,3706 L 3119,3736 C 3120,3737 3120,3737 3120,3738 L 3127,3768 C 3128,3769 3128,3769 3128,3770 L 3134,3800 C 3134,3801 3135,3801 3135,3802 L 3140,3832 C 3140,3833 3140,3834 3141,3834 L 3145,3865 3145,3867 3149,3897 3149,3900 3152,3930 3152,3933 3153,3963 3153,3966 3154,3997 3154,3998 3154,3999 3153,4030 3153,4032 3152,4063 3152,4065 3149,4096 3149,4098 3145,4128 3145,4130 3141,4161 C 3140,4161 3140,4162 3140,4163 L 3135,4193 C 3135,4194 3134,4194 3134,4195 L 3128,4225 C 3128,4226 3128,4226 3127,4227 L 3120,4257 C 3120,4258 3119,4259 3119,4260 L 3106,4305 C 3106,4306 3105,4308 3105,4309 L 3089,4354 C 3088,4355 3088,4356 3088,4357 L 3069,4401 C 3069,4403 3068,4404 3068,4405 L 3067,4406 3602,4989 3674,3220 C 3673,3220 3673,3219 3672,3219 L 3659,3212 3657,3210 3604,3177 C 3603,3177 3602,3176 3601,3175 L 3575,3158 C 3575,3157 3574,3157 3574,3156 L 3548,3138 C 3548,3137 3547,3137 3547,3136 L 3522,3117 C 3522,3116 3521,3116 3520,3115 L 3496,3095 3495,3094 3472,3073 C 3471,3072 3470,3072 3470,3071 L 3447,3049 3446,3048 3424,3025 C 3423,3025 3423,3024 3422,3023 L 3401,3000 3400,2999 3380,2975 C 3379,2974 3379,2973 3378,2973 L 3359,2948 C 3358,2948 3358,2947 3357,2947 L 3339,2921 C 3338,2921 3338,2920 3337,2920 L 3320,2894 C 3319,2893 3318,2892 3318,2891 L 3285,2838 3283,2836 3283,2835 3267,2807 C 3267,2806 3267,2806 3266,2805 L 3252,2777 C 3252,2776 3251,2776 3251,2775 L 3238,2747 C 3237,2746 3237,2746 3237,2745 L 3224,2716 C 3224,2715 3224,2714 3223,2714 L 3212,2685 C 3212,2684 3211,2683 3211,2682 L 3201,2653 C 3201,2652 3200,2652 3200,2651 L 3191,2621 C 3190,2620 3190,2620 3190,2619 L 3182,2589 C 3181,2588 3181,2588 3181,2587 L 3173,2557 3173,2555 3166,2524 3166,2522 3160,2491 3160,2489 3155,2458 3155,2456 3151,2425 3151,2422 3148,2391 3148,2389 3147,2358 3147,2355 3146,2324 3146,2323 3146,2322 3147,2290 3147,2288 3148,2257 3148,2254 3151,2223 3151,2221 3155,2189 3155,2187 3160,2156 3160,2154 3166,2123 3166,2121 3173,2090 3173,2088 3181,2058 C 3181,2057 3181,2057 3182,2056 L 3190,2026 C 3190,2025 3190,2025 3191,2024 L 3200,1994 C 3200,1993 3201,1993 3201,1992 L 3211,1963 C 3211,1962 3212,1961 3212,1960 L 3223,1931 C 3224,1931 3224,1930 3224,1929 L 3237,1900 C 3237,1899 3237,1899 3238,1898 L 3251,1870 C 3251,1869 3252,1869 3252,1868 L 3266,1840 C 3267,1839 3267,1839 3267,1838 L 3283,1810 3283,1809 3285,1807 3318,1754 C 3318,1753 3319,1752 3320,1751 L 3337,1725 C 3338,1725 3338,1724 3339,1724 L 3357,1698 C 3358,1698 3358,1697 3359,1697 L 3378,1672 C 3379,1672 3379,1671 3380,1670 L 3400,1646 3401,1645 3422,1622 C 3423,1621 3423,1620 3424,1620 L 3446,1597 3447,1596 3470,1574 C 3470,1573 3471,1573 3472,1572 L 3495,1551 3496,1550 3520,1530 C 3521,1529 3522,1529 3522,1528 L 3547,1509 C 3547,1508 3548,1508 3548,1507 L 3574,1489 C 3574,1488 3575,1488 3575,1487 L 3601,1470 C 3602,1469 3603,1468 3604,1468 L 3657,1435 3659,1433 3660,1433 3688,1417 C 3689,1417 3689,1417 3690,1416 L 3718,1402 C 3719,1402 3719,1401 3720,1401 L 3748,1388 C 3749,1387 3749,1387 3750,1387 L 3779,1374 C 3780,1374 3781,1374 3781,1373 L 3810,1362 C 3811,1362 3812,1361 3813,1361 L 3842,1351 C 3843,1351 3843,1350 3844,1350 L 3874,1341 C 3875,1340 3875,1340 3876,1340 L 3906,1332 C 3907,1331 3907,1331 3908,1331 L 3938,1323 3940,1323 3971,1316 3973,1316 4004,1310 4006,1310 4037,1305 4039,1305 4070,1301 4073,1301 4104,1298 4106,1298 4137,1297 4140,1297 4171,1296 4172,1296 4173,1296 4205,1297 4207,1297 4238,1298 4241,1298 4272,1301 4274,1301 4306,1305 4308,1305 4339,1310 4341,1310 4372,1316 4374,1316 4405,1323 4407,1323 4437,1331 C 4438,1331 4438,1331 4439,1332 L 4469,1340 C 4470,1340 4470,1340 4471,1341 L 4501,1350 C 4502,1350 4502,1351 4503,1351 L 4532,1361 C 4533,1361 4534,1362 4535,1362 L 4564,1373 C 4564,1374 4565,1374 4566,1374 L 4595,1387 C 4596,1387 4596,1387 4597,1388 L 4625,1401 C 4626,1401 4626,1402 4627,1402 L 4655,1416 C 4656,1417 4656,1417 4657,1417 L 4685,1433 4686,1433 4688,1435 4741,1468 C 4742,1468 4743,1469 4744,1470 L 4770,1487 C 4770,1488 4771,1488 4771,1489 L 4797,1507 C 4797,1508 4798,1508 4798,1509 L 4823,1528 C 4823,1529 4824,1529 4825,1530 L 4849,1550 4850,1551 4873,1572 C 4874,1573 4875,1573 4875,1574 L 4898,1596 4899,1597 4921,1620 C 4922,1620 4922,1621 4923,1622 L 4944,1645 4945,1646 4965,1670 C 4966,1671 4966,1672 4967,1672 L 4986,1697 C 4987,1697 4987,1698 4988,1698 L 5006,1724 C 5007,1724 5007,1725 5008,1725 L 5025,1751 C 5026,1752 5027,1753 5027,1754 L 5060,1807 5062,1809 5062,1810 5078,1838 C 5078,1839 5078,1839 5079,1840 L 5093,1868 C 5093,1869 5094,1869 5094,1870 L 5107,1898 C 5108,1899 5108,1899 5108,1900 L 5121,1929 C 5121,1930 5121,1931 5122,1931 L 5133,1960 C 5133,1961 5134,1962 5134,1963 L 5144,1992 C 5144,1993 5145,1993 5145,1994 L 5154,2024 C 5155,2025 5155,2025 5155,2026 L 5163,2056 C 5164,2057 5164,2057 5164,2058 L 5172,2088 5172,2090 5179,2121 5179,2123 5185,2154 5185,2156 5190,2187 5190,2189 5194,2220 5194,2223 5197,2254 5197,2256 5198,2287 5198,2290 5199,2321 5199,2322 5199,2323 5198,2355 5198,2357 5197,2388 5197,2391 5194,2422 5194,2424 5190,2456 5190,2458 5185,2489 5185,2491 5179,2522 5179,2524 5172,2555 5172,2557 5164,2587 C 5164,2588 5164,2588 5163,2589 L 5155,2619 C 5155,2620 5155,2620 5154,2621 L 5145,2651 C 5145,2652 5144,2652 5144,2653 L 5134,2682 C 5134,2683 5133,2684 5133,2685 L 5122,2714 C 5121,2714 5121,2715 5121,2716 L 5108,2745 C 5108,2746 5108,2746 5107,2747 L 5094,2775 C 5094,2776 5093,2776 5093,2777 L 5079,2805 C 5078,2806 5078,2806 5078,2807 L 5062,2835 5062,2836 C 5061,2836 5061,2837 5061,2837 L 5044,2866 5042,2868 5024,2896 C 5023,2897 5023,2898 5022,2898 L 5003,2926 C 5003,2927 5002,2927 5002,2928 L 4981,2955 C 4981,2956 4980,2956 4980,2957 L 4959,2983 C 4958,2983 4958,2984 4957,2984 L 4935,3010 C 4934,3010 4934,3011 4933,3011 L 4917,3029 5400,4376 5882,3029 5866,3011 C 5865,3011 5865,3010 5864,3010 L 5842,2984 C 5841,2984 5841,2983 5840,2983 L 5819,2957 C 5819,2956 5818,2956 5818,2955 L 5797,2928 C 5797,2927 5796,2927 5796,2926 L 5777,2898 C 5776,2898 5776,2897 5775,2896 L 5757,2868 5755,2866 5738,2837 C 5738,2837 5738,2836 5737,2836 L 5737,2835 5721,2807 C 5721,2806 5721,2806 5720,2805 L 5706,2777 C 5706,2776 5705,2776 5705,2775 L 5692,2747 C 5691,2746 5691,2746 5691,2745 L 5678,2716 C 5678,2715 5678,2714 5677,2714 L 5666,2685 C 5666,2684 5665,2683 5665,2682 L 5655,2653 C 5655,2652 5654,2652 5654,2651 L 5645,2621 C 5644,2620 5644,2620 5644,2619 L 5636,2589 C 5635,2588 5635,2588 5635,2587 L 5627,2557 5627,2555 5620,2524 5620,2522 5614,2491 5614,2489 5609,2458 5609,2456 5605,2424 5605,2422 5602,2391 5602,2388 5601,2357 5601,2355 5600,2323 5600,2322 5600,2321 5601,2290 5601,2287 5602,2256 5602,2254 5605,2223 5605,2220 5609,2189 5609,2187 5614,2156 5614,2154 5620,2123 5620,2121 5627,2090 5627,2088 5635,2058 C 5635,2057 5635,2057 5636,2056 L 5644,2026 C 5644,2025 5644,2025 5645,2024 L 5654,1994 C 5654,1993 5655,1993 5655,1992 L 5665,1963 C 5665,1962 5666,1961 5666,1960 L 5677,1931 C 5678,1931 5678,1930 5678,1929 L 5691,1900 C 5691,1899 5691,1899 5692,1898 L 5705,1870 C 5705,1869 5706,1869 5706,1868 L 5720,1840 C 5721,1839 5721,1839 5721,1838 L 5737,1810 5737,1809 5739,1807 5772,1754 C 5772,1753 5773,1752 5774,1751 L 5791,1725 C 5792,1725 5792,1724 5793,1724 L 5811,1698 C 5812,1698 5812,1697 5813,1697 L 5832,1672 C 5833,1672 5833,1671 5834,1670 L 5854,1646 5855,1645 5876,1622 C 5877,1621 5877,1620 5878,1620 L 5900,1597 5901,1596 5924,1574 C 5924,1573 5925,1573 5926,1572 L 5949,1551 5950,1550 5974,1530 C 5975,1529 5976,1529 5976,1528 L 6001,1509 C 6001,1508 6002,1508 6002,1507 L 6028,1489 C 6028,1488 6029,1488 6029,1487 L 6055,1470 C 6056,1469 6057,1468 6058,1468 L 6111,1435 6113,1433 6114,1433 6142,1417 C 6143,1417 6143,1417 6144,1416 L 6172,1402 C 6173,1402 6173,1401 6174,1401 L 6202,1388 C 6203,1387 6203,1387 6204,1387 L 6233,1374 C 6234,1374 6235,1374 6235,1373 L 6264,1362 C 6265,1362 6266,1361 6267,1361 L 6296,1351 C 6297,1351 6297,1350 6298,1350 L 6328,1341 C 6329,1340 6329,1340 6330,1340 L 6360,1332 C 6361,1331 6361,1331 6362,1331 L 6392,1323 6394,1323 6425,1316 6427,1316 6458,1310 6460,1310 6491,1305 6493,1305 6525,1301 6527,1301 6558,1298 6561,1298 6592,1297 6594,1297 6626,1296 6627,1296 6628,1296 6659,1297 6662,1297 6693,1298 6695,1298 6726,1301 6729,1301 6760,1305 6762,1305 6793,1310 6795,1310 6826,1316 6828,1316 6859,1323 6861,1323 6891,1331 C 6892,1331 6892,1331 6893,1332 L 6923,1340 C 6924,1340 6924,1340 6925,1341 L 6955,1350 C 6956,1350 6956,1351 6957,1351 L 6986,1361 C 6987,1361 6988,1362 6989,1362 L 7018,1373 C 7018,1374 7019,1374 7020,1374 L 7049,1387 C 7050,1387 7050,1387 7051,1388 L 7079,1401 C 7080,1401 7080,1402 7081,1402 L 7109,1416 C 7110,1417 7110,1417 7111,1417 L 7139,1433 7140,1433 7142,1435 7195,1468 C 7196,1468 7197,1469 7198,1470 L 7224,1487 C 7224,1488 7225,1488 7225,1489 L 7251,1507 C 7251,1508 7252,1508 7252,1509 L 7277,1528 C 7277,1529 7278,1529 7279,1530 L 7303,1550 7304,1551 7327,1572 C 7328,1573 7329,1573 7329,1574 L 7352,1596 7353,1597 7375,1620 C 7376,1620 7376,1621 7377,1622 L 7398,1645 7399,1646 7419,1670 C 7420,1671 7420,1672 7421,1672 L 7440,1697 C 7441,1697 7441,1698 7442,1698 L 7460,1724 C 7461,1724 7461,1725 7462,1725 L 7479,1751 C 7480,1752 7481,1753 7481,1754 L 7514,1807 7516,1809 7516,1810 7532,1838 C 7532,1839 7532,1839 7533,1840 L 7547,1868 C 7547,1869 7548,1869 7548,1870 L 7561,1898 C 7562,1899 7562,1899 7562,1900 L 7575,1929 C 7575,1930 7575,1931 7576,1931 L 7587,1960 C 7587,1961 7588,1962 7588,1963 L 7598,1992 C 7598,1993 7599,1993 7599,1994 L 7608,2024 C 7609,2025 7609,2025 7609,2026 L 7617,2056 C 7618,2057 7618,2057 7618,2058 L 7626,2088 7626,2090 7633,2121 7633,2123 7639,2154 7639,2156 7644,2187 7644,2189 7648,2221 7648,2223 7651,2254 7651,2257 7652,2288 7652,2290 7653,2322 7653,2323 7653,2324 7652,2355 7652,2358 7651,2389 7651,2391 7648,2422 7648,2425 7644,2456 7644,2458 7639,2489 7639,2491 7633,2522 7633,2524 7626,2555 7626,2557 7618,2587 C 7618,2588 7618,2588 7617,2589 L 7609,2619 C 7609,2620 7609,2620 7608,2621 L 7599,2651 C 7599,2652 7598,2652 7598,2653 L 7588,2682 C 7588,2683 7587,2684 7587,2685 L 7576,2714 C 7575,2714 7575,2715 7575,2716 L 7562,2745 C 7562,2746 7562,2746 7561,2747 L 7548,2775 C 7548,2776 7547,2776 7547,2777 L 7533,2805 C 7532,2806 7532,2806 7532,2807 L 7516,2835 7516,2836 7514,2838 7481,2891 C 7481,2892 7480,2893 7479,2894 L 7462,2920 C 7461,2920 7461,2921 7460,2921 L 7442,2947 C 7441,2947 7441,2948 7440,2948 L 7421,2973 C 7420,2973 7420,2974 7419,2975 L 7399,2999 7398,3000 7377,3023 C 7376,3024 7376,3025 7375,3025 L 7353,3048 7352,3049 7329,3071 C 7329,3072 7328,3072 7327,3073 L 7304,3094 7303,3095 7279,3115 C 7278,3116 7277,3116 7277,3117 L 7252,3136 C 7252,3137 7251,3137 7251,3138 L 7225,3156 C 7225,3157 7224,3157 7224,3158 L 7198,3175 C 7197,3176 7196,3177 7195,3177 L 7142,3210 7140,3212 7127,3219 C 7126,3219 7126,3220 7125,3220 L 7197,4989 7732,4406 7731,4405 C 7731,4404 7730,4403 7730,4401 L 7711,4357 C 7711,4356 7711,4355 7710,4354 L 7694,4309 C 7694,4308 7693,4306 7693,4305 L 7680,4260 C 7680,4259 7679,4258 7679,4257 L 7672,4227 C 7671,4226 7671,4226 7671,4225 L 7665,4195 C 7665,4194 7664,4194 7664,4193 L 7659,4163 C 7659,4162 7659,4161 7658,4161 L 7654,4130 7654,4128 7650,4098 7650,4096 7647,4065 7647,4063 7646,4032 7646,4030 7645,3999 7645,3998 7645,3997 7646,3966 7646,3963 7647,3933 7647,3930 7650,3900 7650,3897 7654,3867 7654,3865 7658,3834 C 7659,3834 7659,3833 7659,3832 L 7664,3802 C 7664,3801 7665,3801 7665,3800 L 7671,3770 C 7671,3769 7671,3769 7672,3768 L 7679,3738 C 7679,3737 7679,3737 7680,3736 L 7688,3706 C 7688,3705 7688,3705 7689,3704 L 7698,3675 C 7698,3674 7698,3674 7699,3673 L 7709,3644 C 7709,3643 7709,3643 7710,3642 L 7721,3613 C 7721,3612 7721,3612 7722,3611 L 7734,3583 C 7734,3582 7734,3582 7735,3581 L 7748,3553 C 7748,3552 7748,3552 7749,3551 L 7763,3524 C 7763,3523 7764,3523 7764,3522 L 7779,3495 7779,3494 C 7780,3493 7780,3492 7781,3492 L 7814,3439 C 7815,3438 7815,3437 7816,3436 L 7852,3386 7855,3383 7893,3335 7896,3332 7938,3287 7941,3284 7986,3242 7989,3239 8037,3201 8040,3198 8090,3162 C 8091,3161 8092,3161 8093,3160 L 8146,3127 C 8146,3126 8147,3126 8148,3125 L 8149,3125 8176,3110 C 8177,3110 8177,3109 8178,3109 L 8205,3095 C 8206,3094 8206,3094 8207,3094 L 8235,3081 C 8236,3080 8236,3080 8237,3080 L 8265,3068 C 8266,3067 8266,3067 8267,3067 L 8296,3056 C 8297,3055 8297,3055 8298,3055 L 8327,3045 C 8328,3044 8328,3044 8329,3044 L 8358,3035 C 8359,3034 8359,3034 8360,3034 L 8390,3026 C 8391,3025 8391,3025 8392,3025 L 8422,3018 C 8423,3017 8423,3017 8424,3017 L 8454,3011 C 8455,3011 8455,3010 8456,3010 L 8486,3005 C 8487,3005 8488,3005 8488,3004 L 8519,3000 8521,3000 8551,2996 8554,2996 8584,2993 8587,2993 8617,2992 8620,2992 8651,2991 8652,2991 8653,2991 8684,2992 8686,2992 8717,2993 8719,2993 8750,2996 8752,2996 8782,3000 8784,3000 8815,3004 C 8815,3005 8816,3005 8817,3005 L 8847,3010 C 8848,3010 8848,3011 8849,3011 L 8879,3017 C 8880,3017 8880,3017 8881,3018 L 8911,3025 C 8912,3025 8912,3025 8913,3026 L 8943,3034 C 8944,3034 8944,3034 8945,3035 L 8974,3044 C 8975,3044 8975,3044 8976,3045 L 9005,3055 C 9006,3055 9006,3055 9007,3056 L 9036,3067 C 9037,3067 9037,3067 9038,3068 L 9066,3080 C 9067,3080 9067,3080 9068,3081 L 9096,3094 C 9097,3094 9097,3094 9098,3095 L 9125,3109 C 9126,3109 9126,3110 9127,3110 L 9154,3125 9155,3125 C 9156,3126 9157,3126 9157,3127 L 9210,3160 C 9211,3161 9212,3161 9213,3162 L 9263,3198 9266,3201 9314,3239 9317,3242 9362,3284 9365,3287 9407,3332 9410,3335 9448,3383 9451,3386 9487,3436 C 9488,3437 9488,3438 9489,3439 L 9522,3492 C 9523,3492 9523,3493 9524,3494 L 9524,3495 9539,3522 C 9539,3523 9540,3523 9540,3524 L 9554,3551 C 9555,3552 9555,3552 9555,3553 L 9568,3581 C 9569,3582 9569,3582 9569,3583 L 9581,3611 C 9582,3612 9582,3612 9582,3613 L 9593,3642 C 9594,3643 9594,3643 9594,3644 L 9604,3673 C 9605,3674 9605,3674 9605,3675 L 9614,3704 C 9615,3705 9615,3705 9615,3706 L 9623,3736 C 9624,3737 9624,3737 9624,3738 L 9631,3768 C 9632,3769 9632,3769 9632,3770 L 9638,3800 C 9638,3801 9639,3801 9639,3802 L 9644,3832 C 9644,3833 9644,3834 9645,3834 L 9649,3865 9649,3867 9653,3897 9653,3900 9656,3930 9656,3933 9657,3963 9657,3966 9658,3997 9658,3998 9658,3999 9657,4030 9657,4032 9656,4063 9656,4065 9653,4096 9653,4098 9649,4128 9649,4130 9645,4161 C 9644,4161 9644,4162 9644,4163 L 9639,4193 C 9639,4194 9638,4194 9638,4195 L 9632,4225 C 9632,4226 9632,4226 9631,4227 L 9624,4257 C 9624,4258 9624,4258 9623,4259 L 9615,4289 C 9615,4290 9615,4290 9614,4291 L 9605,4320 C 9605,4321 9605,4321 9604,4322 L 9594,4351 C 9594,4352 9594,4352 9593,4353 L 9582,4382 C 9582,4383 9582,4383 9581,4384 L 9569,4412 C 9569,4413 9569,4413 9568,4414 L 9555,4442 C 9555,4443 9555,4443 9554,4444 L 9540,4471 C 9540,4472 9539,4472 9539,4473 L 9524,4500 9524,4501 C 9523,4502 9523,4503 9522,4503 L 9489,4556 C 9488,4557 9488,4558 9487,4559 L 9451,4609 9448,4612 9410,4660 9407,4663 9365,4708 9362,4711 9317,4753 9314,4756 9266,4794 9263,4797 9213,4833 C 9212,4834 9211,4834 9210,4835 L 9157,4868 C 9157,4869 9156,4869 9155,4870 L 9153,4870 9123,4887 C 9122,4888 9122,4888 9121,4888 L 9089,4904 C 9088,4904 9088,4905 9087,4905 L 9055,4919 C 9055,4920 9054,4920 9053,4920 L 9021,4934 C 9020,4934 9019,4934 9019,4935 L 8986,4947 8984,4947 8951,4958 C 8950,4959 8949,4959 8948,4959 L 8915,4969 8914,4969 7712,7932 C 7711,7931 7709,7931 7707,7930 7766,7949 7826,7972 7886,8001 7989,8051 8094,8118 8187,8204 8282,8290 8366,8395 8429,8519 8492,8642 8535,8783 8546,8946 L 8546,8950 C 8569,9185 8582,9436 8582,9668 L 8582,9715 C 8582,9729 8580,9742 8577,9756 8573,9769 8568,9781 8561,9793 8554,9805 8546,9817 8536,9827 8526,9837 8514,9845 8502,9852 8490,9859 8477,9864 8464,9868 8451,9871 8437,9873 8423,9873 L 2378,9873 Z"/>
       </g>
      </g>
      <g class="com.sun.star.drawing.ClosedBezierShape">
       <g id="id4">
        <rect class="BoundingBox" stroke="none" fill="none" x="1299" y="1454" width="8202" height="6606"/>
        <path fill="rgb(0,0,0)" stroke="none" d="M 3439,7865 L 2177,4751 C 2176,4749 2176,4748 2175,4747 L 2172,4740 C 2172,4739 2171,4739 2171,4738 L 2170,4737 C 2170,4736 2169,4736 2169,4735 L 2168,4733 2168,4732 C 2167,4732 2167,4731 2167,4730 L 2166,4729 C 2165,4728 2164,4727 2164,4726 L 2161,4722 C 2160,4720 2160,4719 2159,4718 L 2155,4712 2152,4709 2148,4703 2145,4700 2140,4695 2137,4692 2132,4687 2129,4684 2124,4680 C 2123,4679 2122,4678 2120,4677 L 2115,4673 C 2114,4672 2113,4671 2112,4671 L 2106,4667 C 2105,4666 2103,4665 2102,4664 2100,4663 2099,4663 2097,4662 L 2093,4660 C 2092,4659 2092,4659 2091,4659 L 2086,4657 C 2085,4656 2085,4656 2084,4656 L 2079,4654 C 2078,4654 2078,4653 2077,4653 L 2072,4652 C 2072,4651 2071,4651 2070,4651 L 2065,4649 2063,4649 2058,4647 2056,4647 2051,4646 C 2050,4645 2049,4645 2048,4645 L 2044,4644 2014,4638 1985,4631 1956,4623 1928,4614 1900,4603 1873,4592 1846,4579 1820,4564 1802,4553 1784,4542 1766,4529 1749,4517 1716,4489 1685,4460 1656,4429 1628,4396 1616,4379 1603,4361 1592,4343 1581,4325 1570,4306 1560,4287 1551,4268 1543,4248 1535,4228 1528,4208 1521,4188 1516,4167 1510,4146 1506,4125 1502,4104 1499,4083 1496,4062 1494,4041 1493,4019 1493,3998 1493,3976 1494,3955 1496,3933 1499,3912 1502,3891 1506,3870 1510,3849 1516,3828 1521,3807 1528,3787 1535,3767 1543,3747 1551,3727 1560,3708 1570,3689 1581,3670 1592,3652 1603,3634 1616,3616 1628,3599 1656,3566 1685,3535 1716,3506 1749,3478 1766,3466 1784,3453 1802,3442 1820,3431 1839,3420 1858,3410 1877,3401 1897,3393 1917,3385 1937,3378 1957,3371 1978,3366 1999,3360 2020,3356 2041,3352 2062,3349 2083,3346 2104,3344 2126,3343 2147,3343 2169,3343 2190,3344 2212,3346 2233,3349 2254,3352 2275,3356 2296,3360 2317,3366 2338,3371 2358,3378 2378,3385 2398,3393 2418,3401 2437,3410 2456,3420 2475,3431 2493,3442 2511,3453 2529,3466 2546,3478 2579,3506 2610,3535 2639,3566 2667,3599 2679,3616 2692,3634 2703,3652 2714,3670 2725,3689 2735,3708 2744,3727 2752,3747 2760,3767 2767,3787 2774,3807 2779,3828 2785,3849 2789,3870 2793,3891 2796,3912 2799,3933 2801,3955 2802,3976 2802,3998 2802,4019 2801,4041 2799,4062 2796,4083 2793,4104 2789,4125 2785,4146 2779,4167 2774,4188 2767,4208 2760,4228 2752,4248 2744,4268 2735,4287 2725,4306 2714,4326 2713,4327 2713,4328 2711,4331 2708,4336 C 2708,4337 2707,4337 2707,4338 2706,4338 2706,4339 2706,4339 2705,4341 2704,4342 2703,4344 L 2702,4344 C 2702,4346 2701,4347 2700,4349 2700,4350 2699,4351 2699,4352 L 2698,4354 C 2697,4355 2696,4356 2696,4358 L 2693,4364 C 2692,4365 2692,4367 2691,4368 L 2689,4374 C 2689,4376 2688,4377 2688,4379 L 2686,4385 C 2685,4387 2685,4388 2684,4389 L 2683,4396 C 2683,4398 2682,4399 2682,4401 L 2681,4408 C 2681,4409 2680,4411 2680,4412 L 2680,4419 C 2679,4421 2679,4422 2679,4424 L 2679,4431 2679,4433 2679,4435 2679,4442 C 2679,4444 2679,4445 2680,4447 L 2680,4454 C 2680,4455 2681,4457 2681,4458 L 2682,4465 C 2682,4467 2683,4468 2683,4470 L 2684,4477 C 2685,4478 2685,4479 2686,4481 L 2688,4487 C 2688,4489 2689,4490 2689,4492 L 2691,4498 C 2692,4499 2692,4501 2693,4502 L 2696,4508 C 2696,4510 2697,4511 2698,4512 L 2701,4518 C 2701,4519 2702,4520 2702,4521 2703,4521 2703,4522 2703,4522 L 2706,4527 C 2706,4528 2707,4529 2708,4530 L 2711,4534 C 2711,4535 2712,4536 2713,4537 L 2714,4539 C 2715,4540 2715,4541 2716,4542 L 2718,4544 2720,4546 2721,4548 2723,4550 2725,4552 3630,5542 3631,5543 3634,5546 C 3634,5547 3635,5548 3636,5549 L 3639,5551 3642,5554 3645,5556 3647,5558 3650,5561 C 3651,5561 3652,5562 3653,5562 L 3659,5567 C 3660,5568 3660,5568 3661,5568 L 3668,5573 C 3669,5574 3671,5575 3672,5576 3673,5576 3674,5577 3675,5577 L 3681,5580 C 3682,5581 3683,5582 3685,5582 L 3691,5585 C 3692,5585 3694,5586 3695,5587 L 3701,5589 C 3703,5589 3704,5590 3706,5590 L 3712,5592 C 3714,5593 3715,5593 3716,5594 L 3723,5595 C 3725,5595 3726,5596 3728,5596 L 3735,5597 C 3736,5597 3738,5598 3739,5598 L 3746,5598 C 3748,5599 3749,5599 3751,5599 L 3758,5599 3760,5599 3762,5599 3769,5599 C 3771,5599 3772,5599 3774,5598 L 3781,5598 C 3782,5598 3784,5597 3785,5597 L 3792,5596 C 3794,5596 3795,5595 3797,5595 L 3804,5594 C 3805,5593 3806,5593 3808,5592 L 3814,5590 C 3816,5590 3817,5589 3819,5589 L 3825,5587 C 3826,5586 3828,5585 3829,5585 L 3835,5582 C 3837,5582 3838,5581 3839,5580 L 3845,5577 C 3846,5577 3847,5576 3848,5576 3849,5575 3850,5574 3852,5573 L 3858,5569 C 3859,5569 3860,5568 3861,5567 L 3866,5563 C 3867,5562 3868,5561 3869,5561 L 3875,5556 3878,5553 3883,5549 3886,5546 3890,5541 3893,5538 3898,5532 C 3898,5531 3899,5530 3900,5529 L 3904,5524 C 3905,5523 3906,5522 3906,5521 L 3910,5515 C 3911,5513 3912,5512 3913,5511 3913,5510 3914,5509 3915,5507 L 3917,5502 C 3918,5500 3919,5499 3919,5498 L 3922,5492 C 3922,5491 3923,5490 3923,5489 L 3925,5483 C 3926,5482 3926,5481 3926,5480 L 3928,5473 C 3929,5472 3929,5471 3929,5470 L 3931,5464 C 3931,5462 3932,5461 3932,5460 L 3933,5454 C 3933,5452 3934,5451 3934,5450 L 3935,5443 3935,5439 3936,5433 3936,5430 4031,3119 4031,3116 4031,3111 4031,3109 4031,3102 C 4031,3100 4031,3099 4030,3097 L 4030,3090 C 4030,3089 4029,3087 4029,3086 L 4028,3079 C 4028,3078 4027,3076 4027,3075 L 4026,3068 C 4025,3067 4025,3065 4024,3064 L 4022,3057 C 4022,3056 4022,3055 4021,3053 L 4019,3047 C 4018,3046 4018,3044 4017,3043 L 4014,3037 C 4014,3036 4013,3034 4013,3033 L 4010,3027 C 4009,3026 4008,3024 4008,3023 4007,3022 4006,3020 4005,3019 L 4001,3013 C 4001,3012 4000,3011 3999,3010 L 3995,3005 C 3994,3003 3993,3002 3992,3001 L 3988,2996 3985,2993 3980,2988 3977,2985 3972,2980 3969,2977 3963,2973 3960,2970 3954,2966 C 3953,2965 3952,2965 3950,2964 L 3946,2961 C 3945,2961 3944,2960 3943,2959 L 3942,2958 C 3941,2958 3940,2958 3940,2957 L 3939,2957 3937,2956 C 3936,2956 3936,2955 3935,2955 L 3934,2954 C 3933,2954 3933,2953 3932,2953 L 3925,2950 C 3924,2949 3923,2949 3922,2948 L 3899,2939 3877,2929 3856,2918 3835,2906 3816,2895 3798,2883 3780,2871 3762,2858 3745,2844 3728,2830 3711,2815 3695,2799 3680,2784 3665,2767 3651,2750 3637,2733 3624,2715 3612,2697 3600,2679 3589,2660 3578,2640 3567,2621 3558,2601 3549,2580 3541,2560 3533,2539 3527,2518 3521,2498 3511,2455 3504,2410 3501,2389 3499,2367 3498,2345 3498,2323 3498,2301 3500,2278 3501,2256 3504,2235 3511,2190 3521,2147 3527,2127 3533,2106 3541,2085 3549,2065 3558,2044 3567,2024 3578,2005 3589,1985 3600,1966 3612,1948 3624,1930 3637,1912 3651,1895 3665,1878 3680,1861 3695,1845 3711,1830 3728,1815 3745,1801 3762,1787 3780,1774 3798,1762 3816,1750 3835,1739 3855,1728 3874,1717 3894,1708 3915,1699 3935,1691 3956,1683 3977,1677 3997,1671 4040,1661 4085,1654 4106,1651 4128,1649 4150,1648 4172,1648 4194,1648 4217,1649 4239,1651 4260,1654 4305,1661 4348,1671 4368,1677 4389,1683 4410,1691 4430,1699 4451,1708 4471,1717 4490,1728 4510,1739 4529,1750 4547,1762 4565,1774 4583,1787 4600,1801 4617,1815 4634,1830 4649,1845 4665,1861 4680,1878 4694,1895 4708,1912 4721,1930 4733,1948 4745,1966 4756,1985 4767,2005 4778,2024 4787,2044 4796,2065 4804,2085 4811,2106 4818,2127 4824,2147 4834,2190 4841,2235 4844,2256 4845,2278 4847,2300 4847,2322 4847,2344 4845,2367 4844,2389 4841,2410 4834,2455 4824,2498 4818,2518 4811,2539 4804,2560 4796,2580 4787,2601 4778,2621 4767,2640 4756,2660 4741,2686 4724,2711 4706,2736 4687,2759 4667,2782 4646,2803 4623,2824 4600,2845 4596,2848 C 4595,2848 4594,2849 4593,2850 L 4590,2853 C 4589,2854 4588,2855 4588,2856 L 4584,2859 C 4583,2860 4583,2861 4582,2861 L 4579,2865 4577,2867 4574,2871 4572,2873 4569,2877 C 4569,2878 4568,2879 4567,2880 L 4562,2888 C 4561,2889 4560,2891 4559,2892 4559,2893 4558,2894 4558,2895 L 4555,2901 C 4554,2902 4553,2903 4553,2905 L 4550,2911 C 4549,2912 4549,2914 4548,2915 L 4546,2921 C 4546,2923 4545,2924 4545,2926 L 4543,2932 C 4542,2934 4542,2935 4541,2936 L 4540,2943 C 4540,2945 4539,2946 4539,2948 L 4538,2955 C 4538,2956 4537,2958 4537,2959 L 4537,2966 C 4536,2968 4536,2969 4536,2971 L 4536,2978 4536,2980 4536,2981 4536,2986 4536,2989 4537,2993 4537,2996 4537,3001 C 4537,3002 4537,3003 4538,3004 L 4538,3008 C 4538,3009 4539,3010 4539,3011 L 4540,3015 4540,3018 4541,3023 C 4541,3024 4542,3024 4542,3025 L 4543,3030 C 4543,3031 4544,3031 4544,3032 L 4545,3037 C 4545,3038 4546,3039 4546,3040 L 5234,4957 5235,4959 C 5235,4960 5236,4961 5236,4962 L 5237,4964 C 5237,4965 5238,4966 5238,4967 L 5240,4971 C 5241,4972 5241,4973 5241,4974 L 5246,4982 C 5246,4983 5247,4984 5247,4985 5248,4985 5248,4986 5248,4986 L 5252,4992 C 5253,4994 5253,4995 5254,4996 L 5258,5002 C 5259,5003 5260,5004 5261,5006 L 5266,5011 C 5267,5012 5268,5013 5269,5015 L 5273,5020 C 5274,5021 5276,5022 5277,5023 L 5282,5028 5285,5031 5291,5035 5294,5038 5300,5042 C 5301,5043 5302,5044 5304,5044 L 5310,5048 C 5310,5049 5311,5049 5312,5050 5313,5050 5314,5051 5315,5051 L 5321,5054 C 5322,5055 5323,5056 5325,5056 L 5331,5059 C 5332,5059 5334,5060 5335,5061 L 5341,5063 C 5343,5063 5344,5064 5346,5064 L 5352,5066 C 5354,5067 5355,5067 5356,5068 L 5363,5069 C 5365,5069 5366,5070 5368,5070 L 5375,5071 C 5376,5071 5378,5072 5379,5072 L 5386,5072 C 5388,5073 5389,5073 5391,5073 L 5398,5073 5400,5073 5402,5073 5409,5073 C 5411,5073 5412,5073 5414,5072 L 5421,5072 C 5422,5072 5424,5071 5425,5071 L 5432,5070 C 5433,5070 5435,5069 5436,5069 L 5443,5068 C 5444,5067 5446,5067 5447,5066 L 5454,5064 C 5455,5064 5456,5064 5458,5063 L 5464,5061 C 5465,5060 5467,5060 5468,5059 L 5474,5056 C 5475,5056 5477,5055 5478,5055 L 5484,5052 C 5485,5051 5487,5050 5488,5050 5489,5049 5491,5048 5492,5047 L 5498,5043 C 5499,5043 5500,5042 5501,5041 L 5506,5037 C 5508,5036 5509,5035 5510,5034 L 5515,5030 5518,5027 5523,5022 5526,5019 5531,5014 5534,5011 5538,5005 5541,5002 5545,4996 C 5546,4995 5546,4994 5547,4992 L 5551,4986 C 5551,4986 5551,4985 5552,4985 5552,4984 5553,4983 5553,4982 L 5558,4974 C 5558,4973 5558,4972 5559,4971 L 5561,4967 C 5561,4966 5562,4965 5562,4964 L 5563,4962 C 5563,4961 5564,4960 5564,4959 L 5565,4957 6253,3040 C 6253,3039 6254,3038 6254,3037 L 6255,3032 C 6255,3031 6256,3031 6256,3030 L 6257,3025 C 6257,3024 6258,3024 6258,3023 L 6259,3018 6259,3015 6260,3011 C 6260,3010 6261,3009 6261,3008 L 6261,3004 C 6262,3003 6262,3002 6262,3001 L 6262,2996 6262,2993 6263,2989 6263,2986 6263,2981 6263,2980 6263,2978 6263,2971 C 6263,2969 6263,2968 6262,2966 L 6262,2959 C 6262,2958 6261,2956 6261,2955 L 6260,2948 C 6260,2946 6259,2945 6259,2943 L 6258,2936 C 6257,2935 6257,2934 6256,2932 L 6254,2926 C 6254,2924 6253,2923 6253,2921 L 6251,2915 C 6250,2914 6249,2912 6249,2911 L 6246,2905 C 6246,2903 6245,2902 6244,2901 L 6241,2895 C 6241,2894 6240,2893 6240,2892 6239,2891 6238,2889 6237,2888 L 6231,2880 C 6231,2879 6230,2878 6229,2877 L 6227,2873 6225,2871 6222,2867 6220,2865 6217,2861 C 6216,2861 6216,2860 6215,2859 L 6211,2856 C 6211,2855 6210,2854 6209,2853 L 6206,2850 C 6205,2849 6204,2848 6203,2848 L 6199,2845 6176,2824 6153,2803 6132,2782 6112,2759 6093,2736 6075,2711 6058,2686 6042,2660 6032,2640 6021,2621 6012,2601 6003,2580 5995,2560 5987,2539 5981,2518 5975,2498 5965,2455 5958,2410 5955,2389 5954,2367 5952,2344 5952,2322 5952,2300 5953,2278 5955,2256 5958,2235 5965,2190 5975,2147 5981,2127 5987,2106 5995,2085 6003,2065 6012,2044 6021,2024 6032,2005 6043,1985 6054,1966 6066,1948 6078,1930 6091,1912 6105,1895 6119,1878 6134,1861 6149,1845 6165,1830 6182,1815 6199,1801 6216,1787 6234,1774 6252,1762 6270,1750 6289,1739 6309,1728 6328,1717 6348,1708 6369,1699 6389,1691 6410,1683 6431,1677 6451,1671 6494,1661 6539,1654 6560,1651 6582,1649 6605,1648 6627,1648 6649,1648 6671,1649 6693,1651 6714,1654 6759,1661 6802,1671 6822,1677 6843,1683 6864,1691 6884,1699 6905,1708 6925,1717 6944,1728 6964,1739 6983,1750 7001,1762 7019,1774 7037,1787 7054,1801 7071,1815 7088,1830 7103,1845 7119,1861 7134,1878 7148,1895 7162,1912 7175,1930 7187,1948 7199,1966 7210,1985 7221,2005 7232,2024 7241,2044 7250,2065 7258,2085 7265,2106 7272,2127 7278,2147 7288,2190 7295,2235 7298,2256 7299,2278 7301,2301 7301,2323 7301,2345 7299,2367 7298,2389 7295,2410 7288,2455 7278,2498 7272,2518 7265,2539 7258,2560 7250,2580 7241,2601 7232,2621 7221,2640 7210,2660 7199,2679 7187,2697 7175,2715 7162,2733 7148,2750 7134,2767 7119,2784 7103,2799 7088,2815 7071,2830 7054,2844 7037,2858 7019,2871 7001,2883 6983,2895 6964,2906 6943,2918 6922,2929 6900,2939 6877,2948 C 6876,2949 6875,2949 6874,2950 L 6867,2953 C 6866,2953 6866,2954 6865,2954 L 6864,2955 C 6863,2955 6863,2956 6862,2956 L 6860,2957 6859,2957 C 6859,2958 6858,2958 6857,2958 L 6856,2959 C 6855,2960 6854,2961 6853,2961 L 6849,2964 C 6847,2965 6846,2965 6845,2966 L 6839,2970 6836,2973 6830,2977 6827,2980 6822,2985 6819,2988 6814,2993 6811,2996 6807,3001 C 6806,3002 6805,3003 6804,3005 L 6800,3010 C 6799,3011 6798,3012 6798,3013 L 6794,3019 C 6793,3020 6792,3022 6791,3023 6791,3024 6790,3026 6789,3027 L 6786,3033 C 6786,3034 6785,3036 6785,3037 L 6782,3043 C 6781,3044 6781,3046 6780,3047 L 6778,3053 C 6777,3055 6777,3056 6777,3057 L 6775,3064 C 6774,3065 6774,3067 6773,3068 L 6772,3075 C 6772,3076 6771,3078 6771,3079 L 6770,3086 C 6770,3087 6769,3089 6769,3090 L 6769,3097 C 6768,3099 6768,3100 6768,3102 L 6768,3109 6768,3111 6768,3116 6768,3119 6863,5430 6863,5433 6864,5439 6864,5443 6865,5450 C 6865,5451 6866,5452 6866,5454 L 6867,5460 C 6867,5461 6868,5462 6868,5464 L 6870,5470 C 6870,5471 6870,5472 6871,5473 L 6873,5480 C 6873,5481 6873,5482 6874,5483 L 6876,5489 C 6876,5490 6877,5491 6877,5492 L 6880,5498 C 6880,5499 6881,5500 6882,5502 L 6884,5507 C 6885,5509 6886,5510 6886,5511 6887,5512 6888,5513 6889,5515 L 6893,5521 C 6893,5522 6894,5523 6895,5524 L 6899,5529 C 6900,5530 6901,5531 6901,5532 L 6906,5538 6909,5541 6913,5546 6916,5549 6921,5553 6924,5556 6930,5561 C 6931,5561 6932,5562 6933,5563 L 6938,5567 C 6939,5568 6940,5569 6941,5569 L 6947,5573 C 6948,5574 6950,5575 6951,5576 6952,5576 6953,5577 6954,5577 L 6960,5580 C 6961,5581 6962,5582 6964,5582 L 6970,5585 C 6971,5585 6973,5586 6974,5587 L 6980,5589 C 6982,5589 6983,5590 6985,5590 L 6991,5592 C 6993,5593 6994,5593 6995,5594 L 7002,5595 C 7004,5595 7005,5596 7007,5596 L 7014,5597 C 7015,5597 7017,5598 7018,5598 L 7025,5598 C 7027,5599 7028,5599 7030,5599 L 7037,5599 7039,5599 7041,5599 7048,5599 C 7050,5599 7051,5599 7053,5598 L 7060,5598 C 7061,5598 7063,5597 7064,5597 L 7071,5596 C 7073,5596 7074,5595 7076,5595 L 7083,5594 C 7084,5593 7085,5593 7087,5592 L 7093,5590 C 7095,5590 7096,5589 7098,5589 L 7104,5587 C 7105,5586 7107,5585 7108,5585 L 7114,5582 C 7116,5582 7117,5581 7118,5580 L 7124,5577 C 7125,5577 7126,5576 7127,5576 7128,5575 7130,5574 7131,5573 L 7138,5568 C 7139,5568 7139,5568 7140,5567 L 7146,5562 C 7147,5562 7148,5561 7149,5561 L 7152,5558 7154,5556 7157,5554 7160,5551 7163,5549 C 7164,5548 7165,5547 7165,5546 L 7168,5543 C 7168,5543 7168,5542 7169,5542 L 8074,4552 8076,4550 8078,4548 8079,4546 8081,4544 8083,4542 C 8084,4541 8084,4540 8085,4539 L 8086,4537 C 8087,4536 8088,4535 8088,4534 L 8091,4530 C 8092,4529 8093,4528 8093,4527 L 8096,4522 C 8096,4522 8096,4521 8097,4521 8097,4520 8098,4519 8098,4518 L 8101,4512 C 8102,4511 8103,4510 8103,4508 L 8106,4502 C 8106,4501 8107,4499 8108,4498 L 8110,4492 C 8110,4490 8111,4489 8111,4487 L 8113,4481 C 8114,4479 8114,4478 8115,4477 L 8116,4470 C 8116,4468 8117,4467 8117,4465 L 8118,4458 C 8118,4457 8119,4455 8119,4454 L 8119,4447 C 8120,4445 8120,4444 8120,4442 L 8120,4435 8120,4433 8120,4431 8120,4424 C 8120,4422 8120,4421 8119,4419 L 8119,4412 C 8119,4411 8118,4409 8118,4408 L 8117,4401 C 8117,4399 8116,4398 8116,4396 L 8115,4389 C 8114,4388 8114,4387 8113,4385 L 8111,4379 C 8111,4377 8110,4376 8110,4374 L 8108,4368 C 8107,4367 8106,4365 8106,4364 L 8103,4358 C 8103,4356 8102,4355 8101,4354 L 8100,4352 C 8100,4351 8099,4350 8099,4349 8098,4347 8097,4346 8097,4344 L 8096,4344 C 8095,4342 8094,4341 8093,4339 8093,4339 8093,4338 8092,4338 8092,4337 8091,4337 8091,4336 L 8088,4331 8086,4328 8086,4327 8085,4326 8074,4306 8064,4287 8055,4268 8047,4248 8039,4228 8032,4208 8025,4188 8020,4167 8014,4146 8010,4125 8006,4104 8003,4083 8000,4062 7998,4041 7997,4019 7997,3998 7997,3976 7998,3955 8000,3933 8003,3912 8006,3891 8010,3870 8014,3849 8020,3828 8025,3807 8032,3787 8039,3767 8047,3747 8055,3727 8064,3708 8074,3689 8085,3670 8096,3652 8107,3634 8120,3616 8132,3599 8160,3566 8189,3535 8220,3506 8253,3478 8270,3466 8288,3453 8306,3442 8324,3431 8343,3420 8362,3410 8381,3401 8401,3393 8421,3385 8441,3378 8461,3371 8482,3366 8503,3360 8524,3356 8545,3352 8566,3349 8587,3346 8609,3344 8630,3343 8652,3343 8673,3343 8695,3344 8716,3346 8737,3349 8758,3352 8779,3356 8800,3360 8821,3366 8842,3371 8862,3378 8882,3385 8902,3393 8922,3401 8941,3410 8960,3420 8979,3431 8997,3442 9015,3453 9033,3466 9050,3478 9083,3506 9114,3535 9143,3566 9171,3599 9183,3616 9196,3634 9207,3652 9218,3670 9229,3689 9239,3708 9248,3727 9256,3747 9264,3767 9271,3787 9278,3807 9283,3828 9289,3849 9293,3870 9297,3891 9300,3912 9303,3933 9305,3955 9306,3976 9306,3998 9306,4019 9305,4041 9303,4062 9300,4083 9297,4104 9293,4125 9289,4146 9283,4167 9278,4188 9271,4208 9264,4228 9256,4248 9248,4268 9239,4287 9229,4306 9218,4325 9207,4343 9196,4361 9183,4379 9171,4396 9143,4429 9114,4460 9083,4489 9050,4517 9033,4529 9015,4542 8997,4553 8979,4564 8953,4579 8926,4592 8899,4603 8871,4614 8843,4623 8814,4631 8785,4638 8755,4644 8751,4645 C 8750,4645 8749,4645 8748,4646 L 8743,4647 8741,4647 8736,4649 8734,4649 8729,4651 C 8728,4651 8727,4651 8727,4652 L 8722,4653 C 8721,4653 8721,4654 8720,4654 L 8715,4656 C 8714,4656 8714,4656 8713,4657 L 8708,4659 C 8707,4659 8707,4659 8706,4660 L 8702,4662 C 8700,4663 8699,4663 8697,4664 8696,4665 8694,4666 8693,4667 L 8687,4671 C 8686,4671 8685,4672 8684,4673 L 8679,4677 C 8677,4678 8676,4679 8675,4680 L 8670,4684 8667,4687 8662,4692 8659,4695 8654,4700 8651,4703 8647,4709 8644,4712 8640,4718 C 8639,4719 8639,4720 8638,4722 L 8635,4726 C 8635,4727 8634,4728 8633,4729 L 8632,4730 C 8632,4731 8632,4732 8631,4732 L 8631,4733 8630,4735 C 8630,4736 8629,4736 8629,4737 L 8628,4738 C 8628,4739 8627,4739 8627,4740 L 8624,4747 C 8623,4748 8623,4749 8622,4751 L 7360,7865 C 7220,7865 3439,7865 3439,7865 Z"/>
        <path fill="none" stroke="rgb(0,0,0)" stroke-width="388" stroke-linejoin="round" d="M 3439,7865 L 2177,4751 C 2176,4749 2176,4748 2175,4747 L 2172,4740 C 2172,4739 2171,4739 2171,4738 L 2170,4737 C 2170,4736 2169,4736 2169,4735 L 2168,4733 2168,4732 C 2167,4732 2167,4731 2167,4730 L 2166,4729 C 2165,4728 2164,4727 2164,4726 L 2161,4722 C 2160,4720 2160,4719 2159,4718 L 2155,4712 2152,4709 2148,4703 2145,4700 2140,4695 2137,4692 2132,4687 2129,4684 2124,4680 C 2123,4679 2122,4678 2120,4677 L 2115,4673 C 2114,4672 2113,4671 2112,4671 L 2106,4667 C 2105,4666 2103,4665 2102,4664 2100,4663 2099,4663 2097,4662 L 2093,4660 C 2092,4659 2092,4659 2091,4659 L 2086,4657 C 2085,4656 2085,4656 2084,4656 L 2079,4654 C 2078,4654 2078,4653 2077,4653 L 2072,4652 C 2072,4651 2071,4651 2070,4651 L 2065,4649 2063,4649 2058,4647 2056,4647 2051,4646 C 2050,4645 2049,4645 2048,4645 L 2044,4644 2014,4638 1985,4631 1956,4623 1928,4614 1900,4603 1873,4592 1846,4579 1820,4564 1802,4553 1784,4542 1766,4529 1749,4517 1716,4489 1685,4460 1656,4429 1628,4396 1616,4379 1603,4361 1592,4343 1581,4325 1570,4306 1560,4287 1551,4268 1543,4248 1535,4228 1528,4208 1521,4188 1516,4167 1510,4146 1506,4125 1502,4104 1499,4083 1496,4062 1494,4041 1493,4019 1493,3998 1493,3976 1494,3955 1496,3933 1499,3912 1502,3891 1506,3870 1510,3849 1516,3828 1521,3807 1528,3787 1535,3767 1543,3747 1551,3727 1560,3708 1570,3689 1581,3670 1592,3652 1603,3634 1616,3616 1628,3599 1656,3566 1685,3535 1716,3506 1749,3478 1766,3466 1784,3453 1802,3442 1820,3431 1839,3420 1858,3410 1877,3401 1897,3393 1917,3385 1937,3378 1957,3371 1978,3366 1999,3360 2020,3356 2041,3352 2062,3349 2083,3346 2104,3344 2126,3343 2147,3343 2169,3343 2190,3344 2212,3346 2233,3349 2254,3352 2275,3356 2296,3360 2317,3366 2338,3371 2358,3378 2378,3385 2398,3393 2418,3401 2437,3410 2456,3420 2475,3431 2493,3442 2511,3453 2529,3466 2546,3478 2579,3506 2610,3535 2639,3566 2667,3599 2679,3616 2692,3634 2703,3652 2714,3670 2725,3689 2735,3708 2744,3727 2752,3747 2760,3767 2767,3787 2774,3807 2779,3828 2785,3849 2789,3870 2793,3891 2796,3912 2799,3933 2801,3955 2802,3976 2802,3998 2802,4019 2801,4041 2799,4062 2796,4083 2793,4104 2789,4125 2785,4146 2779,4167 2774,4188 2767,4208 2760,4228 2752,4248 2744,4268 2735,4287 2725,4306 2714,4326 2713,4327 2713,4328 2711,4331 2708,4336 C 2708,4337 2707,4337 2707,4338 2706,4338 2706,4339 2706,4339 2705,4341 2704,4342 2703,4344 L 2702,4344 C 2702,4346 2701,4347 2700,4349 2700,4350 2699,4351 2699,4352 L 2698,4354 C 2697,4355 2696,4356 2696,4358 L 2693,4364 C 2692,4365 2692,4367 2691,4368 L 2689,4374 C 2689,4376 2688,4377 2688,4379 L 2686,4385 C 2685,4387 2685,4388 2684,4389 L 2683,4396 C 2683,4398 2682,4399 2682,4401 L 2681,4408 C 2681,4409 2680,4411 2680,4412 L 2680,4419 C 2679,4421 2679,4422 2679,4424 L 2679,4431 2679,4433 2679,4435 2679,4442 C 2679,4444 2679,4445 2680,4447 L 2680,4454 C 2680,4455 2681,4457 2681,4458 L 2682,4465 C 2682,4467 2683,4468 2683,4470 L 2684,4477 C 2685,4478 2685,4479 2686,4481 L 2688,4487 C 2688,4489 2689,4490 2689,4492 L 2691,4498 C 2692,4499 2692,4501 2693,4502 L 2696,4508 C 2696,4510 2697,4511 2698,4512 L 2701,4518 C 2701,4519 2702,4520 2702,4521 2703,4521 2703,4522 2703,4522 L 2706,4527 C 2706,4528 2707,4529 2708,4530 L 2711,4534 C 2711,4535 2712,4536 2713,4537 L 2714,4539 C 2715,4540 2715,4541 2716,4542 L 2718,4544 2720,4546 2721,4548 2723,4550 2725,4552 3630,5542 3631,5543 3634,5546 C 3634,5547 3635,5548 3636,5549 L 3639,5551 3642,5554 3645,5556 3647,5558 3650,5561 C 3651,5561 3652,5562 3653,5562 L 3659,5567 C 3660,5568 3660,5568 3661,5568 L 3668,5573 C 3669,5574 3671,5575 3672,5576 3673,5576 3674,5577 3675,5577 L 3681,5580 C 3682,5581 3683,5582 3685,5582 L 3691,5585 C 3692,5585 3694,5586 3695,5587 L 3701,5589 C 3703,5589 3704,5590 3706,5590 L 3712,5592 C 3714,5593 3715,5593 3716,5594 L 3723,5595 C 3725,5595 3726,5596 3728,5596 L 3735,5597 C 3736,5597 3738,5598 3739,5598 L 3746,5598 C 3748,5599 3749,5599 3751,5599 L 3758,5599 3760,5599 3762,5599 3769,5599 C 3771,5599 3772,5599 3774,5598 L 3781,5598 C 3782,5598 3784,5597 3785,5597 L 3792,5596 C 3794,5596 3795,5595 3797,5595 L 3804,5594 C 3805,5593 3806,5593 3808,5592 L 3814,5590 C 3816,5590 3817,5589 3819,5589 L 3825,5587 C 3826,5586 3828,5585 3829,5585 L 3835,5582 C 3837,5582 3838,5581 3839,5580 L 3845,5577 C 3846,5577 3847,5576 3848,5576 3849,5575 3850,5574 3852,5573 L 3858,5569 C 3859,5569 3860,5568 3861,5567 L 3866,5563 C 3867,5562 3868,5561 3869,5561 L 3875,5556 3878,5553 3883,5549 3886,5546 3890,5541 3893,5538 3898,5532 C 3898,5531 3899,5530 3900,5529 L 3904,5524 C 3905,5523 3906,5522 3906,5521 L 3910,5515 C 3911,5513 3912,5512 3913,5511 3913,5510 3914,5509 3915,5507 L 3917,5502 C 3918,5500 3919,5499 3919,5498 L 3922,5492 C 3922,5491 3923,5490 3923,5489 L 3925,5483 C 3926,5482 3926,5481 3926,5480 L 3928,5473 C 3929,5472 3929,5471 3929,5470 L 3931,5464 C 3931,5462 3932,5461 3932,5460 L 3933,5454 C 3933,5452 3934,5451 3934,5450 L 3935,5443 3935,5439 3936,5433 3936,5430 4031,3119 4031,3116 4031,3111 4031,3109 4031,3102 C 4031,3100 4031,3099 4030,3097 L 4030,3090 C 4030,3089 4029,3087 4029,3086 L 4028,3079 C 4028,3078 4027,3076 4027,3075 L 4026,3068 C 4025,3067 4025,3065 4024,3064 L 4022,3057 C 4022,3056 4022,3055 4021,3053 L 4019,3047 C 4018,3046 4018,3044 4017,3043 L 4014,3037 C 4014,3036 4013,3034 4013,3033 L 4010,3027 C 4009,3026 4008,3024 4008,3023 4007,3022 4006,3020 4005,3019 L 4001,3013 C 4001,3012 4000,3011 3999,3010 L 3995,3005 C 3994,3003 3993,3002 3992,3001 L 3988,2996 3985,2993 3980,2988 3977,2985 3972,2980 3969,2977 3963,2973 3960,2970 3954,2966 C 3953,2965 3952,2965 3950,2964 L 3946,2961 C 3945,2961 3944,2960 3943,2959 L 3942,2958 C 3941,2958 3940,2958 3940,2957 L 3939,2957 3937,2956 C 3936,2956 3936,2955 3935,2955 L 3934,2954 C 3933,2954 3933,2953 3932,2953 L 3925,2950 C 3924,2949 3923,2949 3922,2948 L 3899,2939 3877,2929 3856,2918 3835,2906 3816,2895 3798,2883 3780,2871 3762,2858 3745,2844 3728,2830 3711,2815 3695,2799 3680,2784 3665,2767 3651,2750 3637,2733 3624,2715 3612,2697 3600,2679 3589,2660 3578,2640 3567,2621 3558,2601 3549,2580 3541,2560 3533,2539 3527,2518 3521,2498 3511,2455 3504,2410 3501,2389 3499,2367 3498,2345 3498,2323 3498,2301 3500,2278 3501,2256 3504,2235 3511,2190 3521,2147 3527,2127 3533,2106 3541,2085 3549,2065 3558,2044 3567,2024 3578,2005 3589,1985 3600,1966 3612,1948 3624,1930 3637,1912 3651,1895 3665,1878 3680,1861 3695,1845 3711,1830 3728,1815 3745,1801 3762,1787 3780,1774 3798,1762 3816,1750 3835,1739 3855,1728 3874,1717 3894,1708 3915,1699 3935,1691 3956,1683 3977,1677 3997,1671 4040,1661 4085,1654 4106,1651 4128,1649 4150,1648 4172,1648 4194,1648 4217,1649 4239,1651 4260,1654 4305,1661 4348,1671 4368,1677 4389,1683 4410,1691 4430,1699 4451,1708 4471,1717 4490,1728 4510,1739 4529,1750 4547,1762 4565,1774 4583,1787 4600,1801 4617,1815 4634,1830 4649,1845 4665,1861 4680,1878 4694,1895 4708,1912 4721,1930 4733,1948 4745,1966 4756,1985 4767,2005 4778,2024 4787,2044 4796,2065 4804,2085 4811,2106 4818,2127 4824,2147 4834,2190 4841,2235 4844,2256 4845,2278 4847,2300 4847,2322 4847,2344 4845,2367 4844,2389 4841,2410 4834,2455 4824,2498 4818,2518 4811,2539 4804,2560 4796,2580 4787,2601 4778,2621 4767,2640 4756,2660 4741,2686 4724,2711 4706,2736 4687,2759 4667,2782 4646,2803 4623,2824 4600,2845 4596,2848 C 4595,2848 4594,2849 4593,2850 L 4590,2853 C 4589,2854 4588,2855 4588,2856 L 4584,2859 C 4583,2860 4583,2861 4582,2861 L 4579,2865 4577,2867 4574,2871 4572,2873 4569,2877 C 4569,2878 4568,2879 4567,2880 L 4562,2888 C 4561,2889 4560,2891 4559,2892 4559,2893 4558,2894 4558,2895 L 4555,2901 C 4554,2902 4553,2903 4553,2905 L 4550,2911 C 4549,2912 4549,2914 4548,2915 L 4546,2921 C 4546,2923 4545,2924 4545,2926 L 4543,2932 C 4542,2934 4542,2935 4541,2936 L 4540,2943 C 4540,2945 4539,2946 4539,2948 L 4538,2955 C 4538,2956 4537,2958 4537,2959 L 4537,2966 C 4536,2968 4536,2969 4536,2971 L 4536,2978 4536,2980 4536,2981 4536,2986 4536,2989 4537,2993 4537,2996 4537,3001 C 4537,3002 4537,3003 4538,3004 L 4538,3008 C 4538,3009 4539,3010 4539,3011 L 4540,3015 4540,3018 4541,3023 C 4541,3024 4542,3024 4542,3025 L 4543,3030 C 4543,3031 4544,3031 4544,3032 L 4545,3037 C 4545,3038 4546,3039 4546,3040 L 5234,4957 5235,4959 C 5235,4960 5236,4961 5236,4962 L 5237,4964 C 5237,4965 5238,4966 5238,4967 L 5240,4971 C 5241,4972 5241,4973 5241,4974 L 5246,4982 C 5246,4983 5247,4984 5247,4985 5248,4985 5248,4986 5248,4986 L 5252,4992 C 5253,4994 5253,4995 5254,4996 L 5258,5002 C 5259,5003 5260,5004 5261,5006 L 5266,5011 C 5267,5012 5268,5013 5269,5015 L 5273,5020 C 5274,5021 5276,5022 5277,5023 L 5282,5028 5285,5031 5291,5035 5294,5038 5300,5042 C 5301,5043 5302,5044 5304,5044 L 5310,5048 C 5310,5049 5311,5049 5312,5050 5313,5050 5314,5051 5315,5051 L 5321,5054 C 5322,5055 5323,5056 5325,5056 L 5331,5059 C 5332,5059 5334,5060 5335,5061 L 5341,5063 C 5343,5063 5344,5064 5346,5064 L 5352,5066 C 5354,5067 5355,5067 5356,5068 L 5363,5069 C 5365,5069 5366,5070 5368,5070 L 5375,5071 C 5376,5071 5378,5072 5379,5072 L 5386,5072 C 5388,5073 5389,5073 5391,5073 L 5398,5073 5400,5073 5402,5073 5409,5073 C 5411,5073 5412,5073 5414,5072 L 5421,5072 C 5422,5072 5424,5071 5425,5071 L 5432,5070 C 5433,5070 5435,5069 5436,5069 L 5443,5068 C 5444,5067 5446,5067 5447,5066 L 5454,5064 C 5455,5064 5456,5064 5458,5063 L 5464,5061 C 5465,5060 5467,5060 5468,5059 L 5474,5056 C 5475,5056 5477,5055 5478,5055 L 5484,5052 C 5485,5051 5487,5050 5488,5050 5489,5049 5491,5048 5492,5047 L 5498,5043 C 5499,5043 5500,5042 5501,5041 L 5506,5037 C 5508,5036 5509,5035 5510,5034 L 5515,5030 5518,5027 5523,5022 5526,5019 5531,5014 5534,5011 5538,5005 5541,5002 5545,4996 C 5546,4995 5546,4994 5547,4992 L 5551,4986 C 5551,4986 5551,4985 5552,4985 5552,4984 5553,4983 5553,4982 L 5558,4974 C 5558,4973 5558,4972 5559,4971 L 5561,4967 C 5561,4966 5562,4965 5562,4964 L 5563,4962 C 5563,4961 5564,4960 5564,4959 L 5565,4957 6253,3040 C 6253,3039 6254,3038 6254,3037 L 6255,3032 C 6255,3031 6256,3031 6256,3030 L 6257,3025 C 6257,3024 6258,3024 6258,3023 L 6259,3018 6259,3015 6260,3011 C 6260,3010 6261,3009 6261,3008 L 6261,3004 C 6262,3003 6262,3002 6262,3001 L 6262,2996 6262,2993 6263,2989 6263,2986 6263,2981 6263,2980 6263,2978 6263,2971 C 6263,2969 6263,2968 6262,2966 L 6262,2959 C 6262,2958 6261,2956 6261,2955 L 6260,2948 C 6260,2946 6259,2945 6259,2943 L 6258,2936 C 6257,2935 6257,2934 6256,2932 L 6254,2926 C 6254,2924 6253,2923 6253,2921 L 6251,2915 C 6250,2914 6249,2912 6249,2911 L 6246,2905 C 6246,2903 6245,2902 6244,2901 L 6241,2895 C 6241,2894 6240,2893 6240,2892 6239,2891 6238,2889 6237,2888 L 6231,2880 C 6231,2879 6230,2878 6229,2877 L 6227,2873 6225,2871 6222,2867 6220,2865 6217,2861 C 6216,2861 6216,2860 6215,2859 L 6211,2856 C 6211,2855 6210,2854 6209,2853 L 6206,2850 C 6205,2849 6204,2848 6203,2848 L 6199,2845 6176,2824 6153,2803 6132,2782 6112,2759 6093,2736 6075,2711 6058,2686 6042,2660 6032,2640 6021,2621 6012,2601 6003,2580 5995,2560 5987,2539 5981,2518 5975,2498 5965,2455 5958,2410 5955,2389 5954,2367 5952,2344 5952,2322 5952,2300 5953,2278 5955,2256 5958,2235 5965,2190 5975,2147 5981,2127 5987,2106 5995,2085 6003,2065 6012,2044 6021,2024 6032,2005 6043,1985 6054,1966 6066,1948 6078,1930 6091,1912 6105,1895 6119,1878 6134,1861 6149,1845 6165,1830 6182,1815 6199,1801 6216,1787 6234,1774 6252,1762 6270,1750 6289,1739 6309,1728 6328,1717 6348,1708 6369,1699 6389,1691 6410,1683 6431,1677 6451,1671 6494,1661 6539,1654 6560,1651 6582,1649 6605,1648 6627,1648 6649,1648 6671,1649 6693,1651 6714,1654 6759,1661 6802,1671 6822,1677 6843,1683 6864,1691 6884,1699 6905,1708 6925,1717 6944,1728 6964,1739 6983,1750 7001,1762 7019,1774 7037,1787 7054,1801 7071,1815 7088,1830 7103,1845 7119,1861 7134,1878 7148,1895 7162,1912 7175,1930 7187,1948 7199,1966 7210,1985 7221,2005 7232,2024 7241,2044 7250,2065 7258,2085 7265,2106 7272,2127 7278,2147 7288,2190 7295,2235 7298,2256 7299,2278 7301,2301 7301,2323 7301,2345 7299,2367 7298,2389 7295,2410 7288,2455 7278,2498 7272,2518 7265,2539 7258,2560 7250,2580 7241,2601 7232,2621 7221,2640 7210,2660 7199,2679 7187,2697 7175,2715 7162,2733 7148,2750 7134,2767 7119,2784 7103,2799 7088,2815 7071,2830 7054,2844 7037,2858 7019,2871 7001,2883 6983,2895 6964,2906 6943,2918 6922,2929 6900,2939 6877,2948 C 6876,2949 6875,2949 6874,2950 L 6867,2953 C 6866,2953 6866,2954 6865,2954 L 6864,2955 C 6863,2955 6863,2956 6862,2956 L 6860,2957 6859,2957 C 6859,2958 6858,2958 6857,2958 L 6856,2959 C 6855,2960 6854,2961 6853,2961 L 6849,2964 C 6847,2965 6846,2965 6845,2966 L 6839,2970 6836,2973 6830,2977 6827,2980 6822,2985 6819,2988 6814,2993 6811,2996 6807,3001 C 6806,3002 6805,3003 6804,3005 L 6800,3010 C 6799,3011 6798,3012 6798,3013 L 6794,3019 C 6793,3020 6792,3022 6791,3023 6791,3024 6790,3026 6789,3027 L 6786,3033 C 6786,3034 6785,3036 6785,3037 L 6782,3043 C 6781,3044 6781,3046 6780,3047 L 6778,3053 C 6777,3055 6777,3056 6777,3057 L 6775,3064 C 6774,3065 6774,3067 6773,3068 L 6772,3075 C 6772,3076 6771,3078 6771,3079 L 6770,3086 C 6770,3087 6769,3089 6769,3090 L 6769,3097 C 6768,3099 6768,3100 6768,3102 L 6768,3109 6768,3111 6768,3116 6768,3119 6863,5430 6863,5433 6864,5439 6864,5443 6865,5450 C 6865,5451 6866,5452 6866,5454 L 6867,5460 C 6867,5461 6868,5462 6868,5464 L 6870,5470 C 6870,5471 6870,5472 6871,5473 L 6873,5480 C 6873,5481 6873,5482 6874,5483 L 6876,5489 C 6876,5490 6877,5491 6877,5492 L 6880,5498 C 6880,5499 6881,5500 6882,5502 L 6884,5507 C 6885,5509 6886,5510 6886,5511 6887,5512 6888,5513 6889,5515 L 6893,5521 C 6893,5522 6894,5523 6895,5524 L 6899,5529 C 6900,5530 6901,5531 6901,5532 L 6906,5538 6909,5541 6913,5546 6916,5549 6921,5553 6924,5556 6930,5561 C 6931,5561 6932,5562 6933,5563 L 6938,5567 C 6939,5568 6940,5569 6941,5569 L 6947,5573 C 6948,5574 6950,5575 6951,5576 6952,5576 6953,5577 6954,5577 L 6960,5580 C 6961,5581 6962,5582 6964,5582 L 6970,5585 C 6971,5585 6973,5586 6974,5587 L 6980,5589 C 6982,5589 6983,5590 6985,5590 L 6991,5592 C 6993,5593 6994,5593 6995,5594 L 7002,5595 C 7004,5595 7005,5596 7007,5596 L 7014,5597 C 7015,5597 7017,5598 7018,5598 L 7025,5598 C 7027,5599 7028,5599 7030,5599 L 7037,5599 7039,5599 7041,5599 7048,5599 C 7050,5599 7051,5599 7053,5598 L 7060,5598 C 7061,5598 7063,5597 7064,5597 L 7071,5596 C 7073,5596 7074,5595 7076,5595 L 7083,5594 C 7084,5593 7085,5593 7087,5592 L 7093,5590 C 7095,5590 7096,5589 7098,5589 L 7104,5587 C 7105,5586 7107,5585 7108,5585 L 7114,5582 C 7116,5582 7117,5581 7118,5580 L 7124,5577 C 7125,5577 7126,5576 7127,5576 7128,5575 7130,5574 7131,5573 L 7138,5568 C 7139,5568 7139,5568 7140,5567 L 7146,5562 C 7147,5562 7148,5561 7149,5561 L 7152,5558 7154,5556 7157,5554 7160,5551 7163,5549 C 7164,5548 7165,5547 7165,5546 L 7168,5543 C 7168,5543 7168,5542 7169,5542 L 8074,4552 8076,4550 8078,4548 8079,4546 8081,4544 8083,4542 C 8084,4541 8084,4540 8085,4539 L 8086,4537 C 8087,4536 8088,4535 8088,4534 L 8091,4530 C 8092,4529 8093,4528 8093,4527 L 8096,4522 C 8096,4522 8096,4521 8097,4521 8097,4520 8098,4519 8098,4518 L 8101,4512 C 8102,4511 8103,4510 8103,4508 L 8106,4502 C 8106,4501 8107,4499 8108,4498 L 8110,4492 C 8110,4490 8111,4489 8111,4487 L 8113,4481 C 8114,4479 8114,4478 8115,4477 L 8116,4470 C 8116,4468 8117,4467 8117,4465 L 8118,4458 C 8118,4457 8119,4455 8119,4454 L 8119,4447 C 8120,4445 8120,4444 8120,4442 L 8120,4435 8120,4433 8120,4431 8120,4424 C 8120,4422 8120,4421 8119,4419 L 8119,4412 C 8119,4411 8118,4409 8118,4408 L 8117,4401 C 8117,4399 8116,4398 8116,4396 L 8115,4389 C 8114,4388 8114,4387 8113,4385 L 8111,4379 C 8111,4377 8110,4376 8110,4374 L 8108,4368 C 8107,4367 8106,4365 8106,4364 L 8103,4358 C 8103,4356 8102,4355 8101,4354 L 8100,4352 C 8100,4351 8099,4350 8099,4349 8098,4347 8097,4346 8097,4344 L 8096,4344 C 8095,4342 8094,4341 8093,4339 8093,4339 8093,4338 8092,4338 8092,4337 8091,4337 8091,4336 L 8088,4331 8086,4328 8086,4327 8085,4326 8074,4306 8064,4287 8055,4268 8047,4248 8039,4228 8032,4208 8025,4188 8020,4167 8014,4146 8010,4125 8006,4104 8003,4083 8000,4062 7998,4041 7997,4019 7997,3998 7997,3976 7998,3955 8000,3933 8003,3912 8006,3891 8010,3870 8014,3849 8020,3828 8025,3807 8032,3787 8039,3767 8047,3747 8055,3727 8064,3708 8074,3689 8085,3670 8096,3652 8107,3634 8120,3616 8132,3599 8160,3566 8189,3535 8220,3506 8253,3478 8270,3466 8288,3453 8306,3442 8324,3431 8343,3420 8362,3410 8381,3401 8401,3393 8421,3385 8441,3378 8461,3371 8482,3366 8503,3360 8524,3356 8545,3352 8566,3349 8587,3346 8609,3344 8630,3343 8652,3343 8673,3343 8695,3344 8716,3346 8737,3349 8758,3352 8779,3356 8800,3360 8821,3366 8842,3371 8862,3378 8882,3385 8902,3393 8922,3401 8941,3410 8960,3420 8979,3431 8997,3442 9015,3453 9033,3466 9050,3478 9083,3506 9114,3535 9143,3566 9171,3599 9183,3616 9196,3634 9207,3652 9218,3670 9229,3689 9239,3708 9248,3727 9256,3747 9264,3767 9271,3787 9278,3807 9283,3828 9289,3849 9293,3870 9297,3891 9300,3912 9303,3933 9305,3955 9306,3976 9306,3998 9306,4019 9305,4041 9303,4062 9300,4083 9297,4104 9293,4125 9289,4146 9283,4167 9278,4188 9271,4208 9264,4228 9256,4248 9248,4268 9239,4287 9229,4306 9218,4325 9207,4343 9196,4361 9183,4379 9171,4396 9143,4429 9114,4460 9083,4489 9050,4517 9033,4529 9015,4542 8997,4553 8979,4564 8953,4579 8926,4592 8899,4603 8871,4614 8843,4623 8814,4631 8785,4638 8755,4644 8751,4645 C 8750,4645 8749,4645 8748,4646 L 8743,4647 8741,4647 8736,4649 8734,4649 8729,4651 C 8728,4651 8727,4651 8727,4652 L 8722,4653 C 8721,4653 8721,4654 8720,4654 L 8715,4656 C 8714,4656 8714,4656 8713,4657 L 8708,4659 C 8707,4659 8707,4659 8706,4660 L 8702,4662 C 8700,4663 8699,4663 8697,4664 8696,4665 8694,4666 8693,4667 L 8687,4671 C 8686,4671 8685,4672 8684,4673 L 8679,4677 C 8677,4678 8676,4679 8675,4680 L 8670,4684 8667,4687 8662,4692 8659,4695 8654,4700 8651,4703 8647,4709 8644,4712 8640,4718 C 8639,4719 8639,4720 8638,4722 L 8635,4726 C 8635,4727 8634,4728 8633,4729 L 8632,4730 C 8632,4731 8632,4732 8631,4732 L 8631,4733 8630,4735 C 8630,4736 8629,4736 8629,4737 L 8628,4738 C 8628,4739 8627,4739 8627,4740 L 8624,4747 C 8623,4748 8623,4749 8622,4751 L 7360,7865 3439,7865 Z"/>
       </g>
      </g>
      <g class="com.sun.star.drawing.CustomShape">
       <g id="id5">
        <rect class="BoundingBox" stroke="none" fill="none" x="0" y="0" width="10801" height="10801"/>
       </g>
      </g>
      <g class="com.sun.star.drawing.ClosedBezierShape">
       <g id="id6">
        <rect class="BoundingBox" stroke="none" fill="none" x="2337" y="8144" width="6115" height="1610"/>
        <path fill="rgb(0,0,0)" stroke="none" d="M 7953,8176 C 7965,8178 7980,8193 7998,8218 8033,8243 8066,8269 8098,8298 8098,8298 8098,8299 8099,8299 8182,8375 8256,8468 8312,8577 L 8312,8577 C 8312,8577 8312,8577 8312,8577 8312,8577 8312,8577 8312,8577 8313,8578 8313,8578 8313,8578 L 8313,8578 C 8341,8634 8369,8731 8388,8816 8396,8853 8403,8887 8408,8912 8409,8918 8410,8923 8411,8928 8412,8933 8412,8938 8413,8941 8413,8943 8414,8945 8414,8946 8414,8947 8414,8948 8414,8949 8414,8949 8414,8949 8414,8950 8415,8950 8415,8950 8415,8950 8415,8950 8415,8950 8415,8950 8414,8952 8414,8954 8413,8955 8420,9034 8448,9383 8451,9555 L 8451,9558 C 8451,9592 8442,9625 8425,9655 8408,9685 8383,9709 8354,9726 8325,9743 8291,9752 8257,9752 L 2531,9752 C 2497,9752 2463,9743 2434,9726 2405,9709 2380,9685 2363,9655 2346,9625 2337,9592 2337,9558 L 2337,9554 C 2341,9361 2361,9160 2372,8963 L 2372,8961 C 2382,8815 2420,8690 2474,8580 2474,8579 2475,8579 2475,8578 2531,8469 2605,8376 2689,8301 2690,8300 2788,8208 2837,8161 4352,8165 6962,8124 7748,8159 L 7906,8159 C 7913,8163 7920,8168 7928,8172 7938,8173 7946,8175 7953,8176 Z"/>
       </g>
      </g>
      <g class="com.sun.star.drawing.PolyPolygonShape">
       <g id="id7">
        <rect class="BoundingBox" stroke="none" fill="none" x="2780" y="7879" width="5202" height="222"/>
        <path fill="rgb(255,255,255)" stroke="none" d="M 7981,8100 L 2781,8100 2781,8089 3274,7892 7531,7880 7981,8100 Z"/>
       </g>
      </g>
     </g>
    </g>
   </g>
  </g>
 </g>
</svg>