<?xml version="1.0" encoding="UTF-8"?>
<!DOCTYPE svg PUBLIC "-//W3C//DTD SVG 1.1//EN" "http://www.w3.org/Graphics/SVG/1.1/DTD/svg11.dtd">
<svg version="1.2" width="108mm" height="108mm" viewBox="0 0 10800 10800" preserveAspectRatio="xMidYMid" fill-rule="evenodd" stroke-width="28.222" stroke-linejoin="round" xmlns="http://www.w3.org/2000/svg" xmlns:ooo="http://xml.openoffice.org/svg/export" xmlns:xlink="http://www.w3.org/1999/xlink" xmlns:presentation="http://sun.com/xmlns/staroffice/presentation" xmlns:smil="http://www.w3.org/2001/SMIL20/" xmlns:anim="urn:oasis:names:tc:opendocument:xmlns:animation:1.0" xmlns:svg="urn:oasis:names:tc:opendocument:xmlns:svg-compatible:1.0" xml:space="preserve">
 <defs class="ClipPathGroup">
  <clipPath id="presentation_clip_path" clipPathUnits="userSpaceOnUse">
   <rect x="0" y="0" width="10800" height="10800"/>
  </clipPath>
  <clipPath id="presentation_clip_path_shrink" clipPathUnits="userSpaceOnUse">
   <rect x="10" y="10" width="10779" height="10779"/>
  </clipPath>
 </defs>
 <defs class="EmbeddedBulletChars">
  <g id="bullet-char-template-57356" transform="scale(0.00048828125,-0.00048828125)">
   <path d="M 580,1141 L 1163,571 580,0 -4,571 580,1141 Z"/>
  </g>
  <g id="bullet-char-template-57354" transform="scale(0.00048828125,-0.00048828125)">
   <path d="M 8,1128 L 1137,1128 1137,0 8,0 8,1128 Z"/>
  </g>
  <g id="bullet-char-template-10146" transform="scale(0.00048828125,-0.00048828125)">
   <path d="M 174,0 L 602,739 174,1481 1456,739 174,0 Z M 1358,739 L 309,1346 659,739 1358,739 Z"/>
  </g>
  <g id="bullet-char-template-10132" transform="scale(0.00048828125,-0.00048828125)">
   <path d="M 2015,739 L 1276,0 717,0 1260,543 174,543 174,936 1260,936 717,1481 1274,1481 2015,739 Z"/>
  </g>
  <g id="bullet-char-template-10007" transform="scale(0.00048828125,-0.00048828125)">
   <path d="M 0,-2 C -7,14 -16,27 -25,37 L 356,567 C 262,823 215,952 215,954 215,979 228,992 255,992 264,992 276,990 289,987 310,991 331,999 354,1012 L 381,999 492,748 772,1049 836,1024 860,1049 C 881,1039 901,1025 922,1006 886,937 835,863 770,784 769,783 710,716 594,584 L 774,223 C 774,196 753,168 711,139 L 727,119 C 717,90 699,76 672,76 641,76 570,178 457,381 L 164,-76 C 142,-110 111,-127 72,-127 30,-127 9,-110 8,-76 1,-67 -2,-52 -2,-32 -2,-23 -1,-13 0,-2 Z"/>
  </g>
  <g id="bullet-char-template-10004" transform="scale(0.00048828125,-0.00048828125)">
   <path d="M 285,-33 C 182,-33 111,30 74,156 52,228 41,333 41,471 41,549 55,616 82,672 116,743 169,778 240,778 293,778 328,747 346,684 L 369,508 C 377,444 397,411 428,410 L 1163,1116 C 1174,1127 1196,1133 1229,1133 1271,1133 1292,1118 1292,1087 L 1292,965 C 1292,929 1282,901 1262,881 L 442,47 C 390,-6 338,-33 285,-33 Z"/>
  </g>
  <g id="bullet-char-template-9679" transform="scale(0.00048828125,-0.00048828125)">
   <path d="M 813,0 C 632,0 489,54 383,161 276,268 223,411 223,592 223,773 276,916 383,1023 489,1130 632,1184 813,1184 992,1184 1136,1130 1245,1023 1353,916 1407,772 1407,592 1407,412 1353,268 1245,161 1136,54 992,0 813,0 Z"/>
  </g>
  <g id="bullet-char-template-8226" transform="scale(0.00048828125,-0.00048828125)">
   <path d="M 346,457 C 273,457 209,483 155,535 101,586 74,649 74,723 74,796 101,859 155,911 209,963 273,989 346,989 419,989 480,963 531,910 582,859 608,796 608,723 608,648 583,586 532,535 482,483 420,457 346,457 Z"/>
  </g>
  <g id="bullet-char-template-8211" transform="scale(0.00048828125,-0.00048828125)">
   <path d="M -4,459 L 1135,459 1135,606 -4,606 -4,459 Z"/>
  </g>
  <g id="bullet-char-template-61548" transform="scale(0.00048828125,-0.00048828125)">
   <path d="M 173,740 C 173,903 231,1043 346,1159 462,1274 601,1332 765,1332 928,1332 1067,1274 1183,1159 1299,1043 1357,903 1357,740 1357,577 1299,437 1183,322 1067,206 928,148 765,148 601,148 462,206 346,322 231,437 173,577 173,740 Z"/>
  </g>
 </defs>
 <g>
  <g id="id2" class="Master_Slide">
   <g id="bg-id2" class="Background"/>
   <g id="bo-id2" class="BackgroundObjects"/>
  </g>
 </g>
 <g class="SlideGroup">
  <g>
   <g id="container-id1">
    <g id="id1" class="Slide" clip-path="url(#presentation_clip_path)">
     <g class="Page">
      <g class="com.sun.star.drawing.ClosedBezierShape">
       <g id="id3">
        <rect class="BoundingBox" stroke="none" fill="none" x="2043" y="1683" width="6715" height="8367"/>
        <path fill="rgb(255,255,255)" stroke="none" d="M 2378,9874 L 2377,9874 C 2364,9874 2350,9872 2336,9869 2323,9865 2310,9860 2298,9853 2286,9846 2274,9837 2264,9827 2255,9818 2247,9807 2240,9796 L 2239,9795 2239,9794 C 2232,9782 2227,9770 2223,9757 2220,9743 2218,9730 2218,9716 L 2218,9669 C 2218,9440 2232,9193 2254,8960 L 2254,8956 C 2254,8952 2255,8947 2256,8943 2267,8782 2309,8642 2371,8520 2434,8396 2519,8291 2613,8205 2707,8119 2811,8052 2915,8002 2980,7971 3046,7945 3109,7926 L 3462,4780 3422,4764 C 3421,4764 3421,4763 3420,4763 L 3381,4746 C 3380,4745 3380,4745 3379,4745 L 3341,4726 C 3340,4725 3339,4725 3338,4724 L 3301,4703 3300,4703 C 3299,4702 3298,4702 3297,4701 L 3261,4678 C 3260,4678 3259,4677 3258,4676 L 3239,4663 C 3238,4662 3238,4662 3237,4662 L 3218,4647 C 3217,4647 3217,4646 3216,4646 L 3197,4631 3195,4629 3176,4613 C 3176,4612 3175,4612 3175,4611 L 3156,4594 3155,4593 3136,4575 C 3136,4574 3135,4574 3135,4573 L 3117,4554 C 3116,4554 3116,4553 3115,4552 L 3098,4532 C 3097,4532 3097,4532 3097,4531 L 3080,4511 C 3079,4511 3079,4510 3078,4509 L 3061,4488 C 3061,4487 3060,4487 3060,4486 L 3043,4464 C 3043,4463 3042,4463 3042,4462 L 3026,4438 3024,4436 3008,4411 C 3008,4410 3007,4410 3007,4409 L 2991,4383 2991,4382 C 2991,4381 2990,4381 2990,4380 L 2959,4323 C 2959,4322 2958,4321 2958,4320 L 2930,4260 C 2929,4259 2929,4258 2928,4257 L 2901,4191 C 2901,4190 2901,4189 2900,4189 L 2875,4117 C 2874,4116 2874,4115 2874,4114 L 2849,4036 C 2849,4035 2849,4034 2848,4033 L 2826,3950 2826,3948 2805,3859 C 2805,3858 2804,3858 2804,3857 L 2785,3760 C 2784,3759 2784,3759 2784,3758 L 2766,3653 2766,3651 2749,3540 2749,3539 2734,3420 C 2733,3419 2733,3419 2733,3418 L 2707,3153 2707,3150 2673,2510 2673,2506 2673,2503 2673,2501 2673,2494 C 2673,2492 2673,2491 2674,2489 L 2674,2482 C 2674,2481 2675,2479 2675,2478 L 2676,2471 C 2676,2469 2677,2468 2677,2466 L 2678,2459 C 2679,2458 2679,2457 2680,2455 L 2682,2449 C 2682,2447 2683,2446 2683,2444 L 2685,2438 C 2686,2437 2687,2435 2687,2434 L 2690,2428 C 2690,2426 2691,2425 2692,2424 L 2695,2418 C 2695,2417 2696,2416 2696,2415 2697,2414 2697,2413 2698,2412 L 2701,2407 2704,2404 2707,2398 2710,2395 2714,2390 C 2715,2389 2716,2388 2716,2387 L 2721,2382 2724,2379 2728,2375 C 2729,2374 2731,2373 2732,2372 L 2737,2367 C 2738,2366 2739,2365 2740,2365 L 2745,2361 C 2747,2360 2748,2359 2749,2358 L 2755,2354 C 2756,2354 2756,2353 2757,2353 L 2843,2302 C 2844,2301 2845,2301 2846,2301 L 2929,2257 C 2930,2256 2931,2256 2932,2255 L 3014,2217 C 3015,2217 3016,2216 3017,2216 L 3097,2183 C 3098,2183 3099,2182 3100,2182 L 3177,2155 C 3178,2154 3180,2154 3181,2154 L 3256,2131 C 3257,2130 3258,2130 3259,2130 L 3332,2111 3335,2111 3405,2096 C 3406,2095 3407,2095 3408,2095 L 3475,2083 3478,2083 3543,2073 3545,2073 3608,2066 3610,2066 3669,2061 3671,2061 3870,2049 3874,2049 3880,2049 3882,2049 3889,2049 C 3891,2049 3892,2049 3894,2050 L 3901,2050 C 3902,2050 3904,2051 3905,2051 L 3912,2052 C 3914,2052 3915,2053 3917,2053 L 3924,2054 C 3925,2055 3926,2055 3928,2056 L 3934,2058 C 3936,2058 3937,2059 3939,2059 L 3945,2061 C 3946,2062 3948,2063 3949,2063 L 3955,2066 C 3957,2066 3958,2067 3959,2068 L 3965,2071 C 3966,2071 3967,2072 3968,2072 3969,2073 3971,2074 3972,2075 L 3978,2079 C 3979,2079 3980,2080 3981,2081 L 3986,2085 C 3987,2086 3988,2087 3989,2087 L 3995,2092 3998,2095 4003,2099 4006,2102 4010,2107 4013,2110 4018,2116 C 4018,2117 4019,2118 4020,2119 L 4024,2124 C 4025,2125 4026,2126 4026,2127 L 4030,2133 C 4031,2134 4032,2136 4033,2137 4033,2139 4034,2140 4035,2142 L 4038,2148 C 4038,2149 4039,2149 4039,2150 L 4042,2157 C 4042,2158 4043,2159 4043,2160 L 4044,2163 C 4045,2164 4045,2164 4045,2165 L 4046,2169 C 4047,2169 4047,2170 4047,2171 L 4048,2175 C 4049,2176 4049,2177 4049,2178 L 4050,2180 4276,3025 4454,3026 4545,2120 C 4545,2119 4546,2117 4546,2116 L 4547,2110 4547,2107 4548,2102 C 4549,2101 4549,2100 4549,2098 L 4551,2093 4551,2090 4553,2084 C 4553,2083 4554,2083 4554,2082 L 4556,2076 C 4556,2075 4557,2074 4557,2073 L 4559,2068 C 4560,2067 4560,2066 4560,2065 L 4563,2060 C 4563,2059 4564,2058 4564,2057 L 4567,2052 C 4567,2051 4568,2050 4568,2049 4569,2048 4570,2046 4571,2045 L 4575,2039 C 4575,2038 4576,2037 4577,2036 L 4581,2031 C 4582,2030 4583,2029 4583,2028 L 4588,2022 4591,2019 4595,2014 4598,2011 4603,2007 4606,2004 4612,1999 C 4613,1999 4614,1998 4615,1997 L 4620,1993 C 4621,1992 4622,1991 4623,1991 L 4629,1987 C 4630,1986 4632,1985 4633,1984 4635,1983 4636,1983 4638,1982 L 4646,1978 C 4647,1978 4647,1977 4648,1977 L 4656,1974 C 4657,1973 4658,1973 4659,1972 L 4667,1970 C 4668,1969 4670,1969 4671,1968 L 4679,1966 C 4681,1965 4683,1965 4685,1964 L 4905,1919 4907,1919 5086,1887 5088,1887 5169,1875 5171,1875 5246,1866 5249,1866 5319,1861 5323,1861 5391,1859 5393,1859 5401,1859 5405,1859 5406,1859 5410,1859 5413,1859 5417,1860 5421,1860 5483,1862 5487,1862 5555,1867 5558,1867 5631,1876 5633,1876 5712,1888 5714,1888 5893,1920 5895,1920 6115,1965 C 6117,1966 6119,1966 6121,1967 L 6129,1969 C 6130,1970 6132,1970 6133,1971 L 6141,1973 C 6142,1974 6143,1974 6144,1975 L 6152,1978 C 6153,1978 6153,1979 6154,1979 L 6162,1983 C 6164,1984 6165,1984 6167,1985 6168,1986 6170,1987 6171,1988 L 6177,1992 C 6178,1992 6179,1993 6180,1994 L 6185,1998 C 6186,1999 6187,2000 6188,2000 L 6194,2005 6197,2008 6202,2012 6205,2015 6209,2020 6212,2023 6217,2029 C 6217,2030 6218,2031 6219,2032 L 6223,2037 C 6224,2038 6225,2039 6225,2040 L 6229,2046 C 6230,2047 6231,2049 6232,2050 6232,2051 6233,2052 6233,2053 L 6236,2058 C 6236,2059 6237,2060 6237,2061 L 6240,2066 C 6240,2067 6240,2068 6241,2069 L 6243,2074 C 6243,2075 6244,2076 6244,2077 L 6246,2083 C 6246,2084 6247,2084 6247,2085 L 6249,2091 6249,2094 6251,2099 C 6251,2101 6251,2102 6252,2103 L 6253,2108 6253,2111 6254,2117 C 6254,2118 6255,2120 6255,2121 L 6346,3027 6524,3026 6750,2181 6751,2179 C 6751,2178 6751,2177 6752,2176 L 6753,2172 C 6753,2171 6753,2170 6754,2170 L 6755,2166 C 6755,2165 6755,2165 6756,2164 L 6757,2161 C 6757,2160 6758,2159 6758,2158 L 6761,2151 C 6761,2150 6762,2150 6762,2149 L 6765,2143 C 6766,2141 6767,2140 6767,2138 6768,2137 6769,2135 6770,2134 L 6774,2128 C 6774,2127 6775,2126 6776,2125 L 6780,2120 C 6781,2119 6782,2118 6782,2117 L 6787,2111 6790,2108 6794,2103 6797,2100 6802,2096 6805,2093 6811,2088 C 6812,2088 6813,2087 6814,2086 L 6819,2082 C 6820,2081 6821,2080 6822,2080 L 6828,2076 C 6829,2075 6831,2074 6832,2073 6833,2073 6834,2072 6835,2072 L 6841,2069 C 6842,2068 6843,2067 6845,2067 L 6851,2064 C 6852,2064 6854,2063 6855,2062 L 6861,2060 C 6863,2060 6864,2059 6866,2059 L 6872,2057 C 6874,2056 6875,2056 6876,2055 L 6883,2054 C 6885,2054 6886,2053 6888,2053 L 6895,2052 C 6896,2052 6898,2051 6899,2051 L 6906,2051 C 6908,2050 6909,2050 6911,2050 L 6918,2050 6920,2050 6926,2050 6930,2050 7169,2064 7172,2064 7293,2077 7296,2077 7357,2086 C 7358,2086 7359,2086 7360,2087 L 7423,2098 C 7424,2098 7424,2098 7425,2099 L 7492,2113 C 7493,2114 7495,2114 7496,2114 L 7565,2133 C 7566,2133 7567,2133 7568,2134 L 7639,2157 C 7640,2157 7641,2158 7642,2158 L 7715,2186 C 7716,2186 7717,2186 7717,2187 L 7792,2219 C 7793,2219 7794,2219 7795,2220 L 7873,2257 C 7874,2258 7875,2258 7876,2259 L 7956,2302 C 7957,2303 7957,2303 7958,2303 7958,2304 7959,2304 7959,2304 L 8043,2354 C 8044,2354 8044,2355 8045,2355 L 8051,2359 C 8052,2360 8053,2361 8055,2362 L 8060,2366 C 8061,2366 8062,2367 8063,2368 L 8068,2373 C 8069,2374 8071,2375 8072,2376 L 8076,2380 8079,2383 8084,2388 C 8084,2389 8085,2390 8086,2391 L 8090,2396 8093,2399 8096,2405 8099,2408 8102,2413 C 8103,2414 8103,2415 8104,2416 8104,2417 8105,2418 8105,2419 L 8108,2425 C 8109,2426 8110,2427 8110,2429 L 8113,2435 C 8113,2436 8114,2438 8115,2439 L 8117,2445 C 8117,2447 8118,2448 8118,2450 L 8120,2456 C 8121,2458 8121,2459 8122,2460 L 8123,2467 C 8123,2469 8124,2470 8124,2472 L 8125,2479 C 8125,2480 8126,2482 8126,2483 L 8126,2490 C 8127,2492 8127,2493 8127,2495 L 8127,2502 8127,2504 8127,2507 8127,2511 8093,3151 8093,3154 8067,3419 C 8067,3420 8067,3420 8066,3421 L 8051,3540 8051,3541 8034,3652 8034,3654 8016,3759 C 8016,3760 8016,3760 8015,3761 L 7996,3858 C 7996,3859 7995,3859 7995,3860 L 7974,3949 7974,3951 7952,4034 C 7951,4035 7951,4036 7951,4037 L 7926,4115 C 7926,4116 7926,4117 7925,4118 L 7900,4190 C 7899,4190 7899,4191 7899,4192 L 7872,4258 C 7871,4259 7871,4260 7870,4261 L 7842,4321 C 7842,4322 7841,4323 7841,4324 L 7810,4381 C 7810,4382 7809,4382 7809,4383 L 7809,4384 7793,4410 C 7793,4411 7792,4411 7792,4412 L 7776,4437 7774,4439 7758,4463 C 7758,4464 7757,4464 7757,4465 L 7740,4487 C 7740,4488 7739,4488 7739,4489 L 7722,4510 C 7721,4511 7721,4512 7720,4512 L 7703,4532 C 7703,4533 7703,4533 7702,4533 L 7685,4553 C 7684,4554 7684,4555 7683,4555 L 7665,4574 C 7665,4575 7664,4575 7664,4576 L 7645,4594 7644,4595 7625,4612 C 7625,4613 7624,4613 7624,4614 L 7605,4630 7603,4632 7584,4647 C 7583,4647 7583,4648 7582,4648 L 7563,4663 C 7562,4663 7562,4663 7561,4664 L 7542,4677 C 7541,4678 7540,4679 7539,4679 L 7503,4702 C 7502,4703 7501,4703 7500,4704 L 7499,4704 7462,4725 C 7461,4726 7460,4726 7459,4727 L 7421,4746 C 7420,4746 7420,4746 7419,4747 L 7380,4764 C 7379,4764 7379,4765 7378,4765 L 7341,4780 7689,7926 C 7753,7945 7820,7970 7886,8002 7989,8052 8094,8119 8187,8205 8282,8291 8366,8396 8429,8520 8492,8643 8535,8784 8546,8947 L 8546,8951 C 8569,9186 8582,9437 8582,9669 L 8582,9716 C 8582,9730 8580,9743 8577,9757 8573,9770 8568,9782 8561,9794 8554,9806 8546,9818 8536,9828 8526,9838 8514,9846 8502,9853 8490,9860 8477,9865 8464,9869 8451,9872 8437,9874 8423,9874 L 2378,9874 Z"/>
        <path fill="none" stroke="rgb(255,255,255)" stroke-width="350" stroke-linejoin="round" d="M 2378,9874 L 2377,9874 C 2364,9874 2350,9872 2336,9869 2323,9865 2310,9860 2298,9853 2286,9846 2274,9837 2264,9827 2255,9818 2247,9807 2240,9796 L 2239,9795 2239,9794 C 2232,9782 2227,9770 2223,9757 2220,9743 2218,9730 2218,9716 L 2218,9669 C 2218,9440 2232,9193 2254,8960 L 2254,8956 C 2254,8952 2255,8947 2256,8943 2267,8782 2309,8642 2371,8520 2434,8396 2519,8291 2613,8205 2707,8119 2811,8052 2915,8002 2980,7971 3046,7945 3109,7926 L 3462,4780 3422,4764 C 3421,4764 3421,4763 3420,4763 L 3381,4746 C 3380,4745 3380,4745 3379,4745 L 3341,4726 C 3340,4725 3339,4725 3338,4724 L 3301,4703 3300,4703 C 3299,4702 3298,4702 3297,4701 L 3261,4678 C 3260,4678 3259,4677 3258,4676 L 3239,4663 C 3238,4662 3238,4662 3237,4662 L 3218,4647 C 3217,4647 3217,4646 3216,4646 L 3197,4631 3195,4629 3176,4613 C 3176,4612 3175,4612 3175,4611 L 3156,4594 3155,4593 3136,4575 C 3136,4574 3135,4574 3135,4573 L 3117,4554 C 3116,4554 3116,4553 3115,4552 L 3098,4532 C 3097,4532 3097,4532 3097,4531 L 3080,4511 C 3079,4511 3079,4510 3078,4509 L 3061,4488 C 3061,4487 3060,4487 3060,4486 L 3043,4464 C 3043,4463 3042,4463 3042,4462 L 3026,4438 3024,4436 3008,4411 C 3008,4410 3007,4410 3007,4409 L 2991,4383 2991,4382 C 2991,4381 2990,4381 2990,4380 L 2959,4323 C 2959,4322 2958,4321 2958,4320 L 2930,4260 C 2929,4259 2929,4258 2928,4257 L 2901,4191 C 2901,4190 2901,4189 2900,4189 L 2875,4117 C 2874,4116 2874,4115 2874,4114 L 2849,4036 C 2849,4035 2849,4034 2848,4033 L 2826,3950 2826,3948 2805,3859 C 2805,3858 2804,3858 2804,3857 L 2785,3760 C 2784,3759 2784,3759 2784,3758 L 2766,3653 2766,3651 2749,3540 2749,3539 2734,3420 C 2733,3419 2733,3419 2733,3418 L 2707,3153 2707,3150 2673,2510 2673,2506 2673,2503 2673,2501 2673,2494 C 2673,2492 2673,2491 2674,2489 L 2674,2482 C 2674,2481 2675,2479 2675,2478 L 2676,2471 C 2676,2469 2677,2468 2677,2466 L 2678,2459 C 2679,2458 2679,2457 2680,2455 L 2682,2449 C 2682,2447 2683,2446 2683,2444 L 2685,2438 C 2686,2437 2687,2435 2687,2434 L 2690,2428 C 2690,2426 2691,2425 2692,2424 L 2695,2418 C 2695,2417 2696,2416 2696,2415 2697,2414 2697,2413 2698,2412 L 2701,2407 2704,2404 2707,2398 2710,2395 2714,2390 C 2715,2389 2716,2388 2716,2387 L 2721,2382 2724,2379 2728,2375 C 2729,2374 2731,2373 2732,2372 L 2737,2367 C 2738,2366 2739,2365 2740,2365 L 2745,2361 C 2747,2360 2748,2359 2749,2358 L 2755,2354 C 2756,2354 2756,2353 2757,2353 L 2843,2302 C 2844,2301 2845,2301 2846,2301 L 2929,2257 C 2930,2256 2931,2256 2932,2255 L 3014,2217 C 3015,2217 3016,2216 3017,2216 L 3097,2183 C 3098,2183 3099,2182 3100,2182 L 3177,2155 C 3178,2154 3180,2154 3181,2154 L 3256,2131 C 3257,2130 3258,2130 3259,2130 L 3332,2111 3335,2111 3405,2096 C 3406,2095 3407,2095 3408,2095 L 3475,2083 3478,2083 3543,2073 3545,2073 3608,2066 3610,2066 3669,2061 3671,2061 3870,2049 3874,2049 3880,2049 3882,2049 3889,2049 C 3891,2049 3892,2049 3894,2050 L 3901,2050 C 3902,2050 3904,2051 3905,2051 L 3912,2052 C 3914,2052 3915,2053 3917,2053 L 3924,2054 C 3925,2055 3926,2055 3928,2056 L 3934,2058 C 3936,2058 3937,2059 3939,2059 L 3945,2061 C 3946,2062 3948,2063 3949,2063 L 3955,2066 C 3957,2066 3958,2067 3959,2068 L 3965,2071 C 3966,2071 3967,2072 3968,2072 3969,2073 3971,2074 3972,2075 L 3978,2079 C 3979,2079 3980,2080 3981,2081 L 3986,2085 C 3987,2086 3988,2087 3989,2087 L 3995,2092 3998,2095 4003,2099 4006,2102 4010,2107 4013,2110 4018,2116 C 4018,2117 4019,2118 4020,2119 L 4024,2124 C 4025,2125 4026,2126 4026,2127 L 4030,2133 C 4031,2134 4032,2136 4033,2137 4033,2139 4034,2140 4035,2142 L 4038,2148 C 4038,2149 4039,2149 4039,2150 L 4042,2157 C 4042,2158 4043,2159 4043,2160 L 4044,2163 C 4045,2164 4045,2164 4045,2165 L 4046,2169 C 4047,2169 4047,2170 4047,2171 L 4048,2175 C 4049,2176 4049,2177 4049,2178 L 4050,2180 4276,3025 4454,3026 4545,2120 C 4545,2119 4546,2117 4546,2116 L 4547,2110 4547,2107 4548,2102 C 4549,2101 4549,2100 4549,2098 L 4551,2093 4551,2090 4553,2084 C 4553,2083 4554,2083 4554,2082 L 4556,2076 C 4556,2075 4557,2074 4557,2073 L 4559,2068 C 4560,2067 4560,2066 4560,2065 L 4563,2060 C 4563,2059 4564,2058 4564,2057 L 4567,2052 C 4567,2051 4568,2050 4568,2049 4569,2048 4570,2046 4571,2045 L 4575,2039 C 4575,2038 4576,2037 4577,2036 L 4581,2031 C 4582,2030 4583,2029 4583,2028 L 4588,2022 4591,2019 4595,2014 4598,2011 4603,2007 4606,2004 4612,1999 C 4613,1999 4614,1998 4615,1997 L 4620,1993 C 4621,1992 4622,1991 4623,1991 L 4629,1987 C 4630,1986 4632,1985 4633,1984 4635,1983 4636,1983 4638,1982 L 4646,1978 C 4647,1978 4647,1977 4648,1977 L 4656,1974 C 4657,1973 4658,1973 4659,1972 L 4667,1970 C 4668,1969 4670,1969 4671,1968 L 4679,1966 C 4681,1965 4683,1965 4685,1964 L 4905,1919 4907,1919 5086,1887 5088,1887 5169,1875 5171,1875 5246,1866 5249,1866 5319,1861 5323,1861 5391,1859 5393,1859 5401,1859 5405,1859 5406,1859 5410,1859 5413,1859 5417,1860 5421,1860 5483,1862 5487,1862 5555,1867 5558,1867 5631,1876 5633,1876 5712,1888 5714,1888 5893,1920 5895,1920 6115,1965 C 6117,1966 6119,1966 6121,1967 L 6129,1969 C 6130,1970 6132,1970 6133,1971 L 6141,1973 C 6142,1974 6143,1974 6144,1975 L 6152,1978 C 6153,1978 6153,1979 6154,1979 L 6162,1983 C 6164,1984 6165,1984 6167,1985 6168,1986 6170,1987 6171,1988 L 6177,1992 C 6178,1992 6179,1993 6180,1994 L 6185,1998 C 6186,1999 6187,2000 6188,2000 L 6194,2005 6197,2008 6202,2012 6205,2015 6209,2020 6212,2023 6217,2029 C 6217,2030 6218,2031 6219,2032 L 6223,2037 C 6224,2038 6225,2039 6225,2040 L 6229,2046 C 6230,2047 6231,2049 6232,2050 6232,2051 6233,2052 6233,2053 L 6236,2058 C 6236,2059 6237,2060 6237,2061 L 6240,2066 C 6240,2067 6240,2068 6241,2069 L 6243,2074 C 6243,2075 6244,2076 6244,2077 L 6246,2083 C 6246,2084 6247,2084 6247,2085 L 6249,2091 6249,2094 6251,2099 C 6251,2101 6251,2102 6252,2103 L 6253,2108 6253,2111 6254,2117 C 6254,2118 6255,2120 6255,2121 L 6346,3027 6524,3026 6750,2181 6751,2179 C 6751,2178 6751,2177 6752,2176 L 6753,2172 C 6753,2171 6753,2170 6754,2170 L 6755,2166 C 6755,2165 6755,2165 6756,2164 L 6757,2161 C 6757,2160 6758,2159 6758,2158 L 6761,2151 C 6761,2150 6762,2150 6762,2149 L 6765,2143 C 6766,2141 6767,2140 6767,2138 6768,2137 6769,2135 6770,2134 L 6774,2128 C 6774,2127 6775,2126 6776,2125 L 6780,2120 C 6781,2119 6782,2118 6782,2117 L 6787,2111 6790,2108 6794,2103 6797,2100 6802,2096 6805,2093 6811,2088 C 6812,2088 6813,2087 6814,2086 L 6819,2082 C 6820,2081 6821,2080 6822,2080 L 6828,2076 C 6829,2075 6831,2074 6832,2073 6833,2073 6834,2072 6835,2072 L 6841,2069 C 6842,2068 6843,2067 6845,2067 L 6851,2064 C 6852,2064 6854,2063 6855,2062 L 6861,2060 C 6863,2060 6864,2059 6866,2059 L 6872,2057 C 6874,2056 6875,2056 6876,2055 L 6883,2054 C 6885,2054 6886,2053 6888,2053 L 6895,2052 C 6896,2052 6898,2051 6899,2051 L 6906,2051 C 6908,2050 6909,2050 6911,2050 L 6918,2050 6920,2050 6926,2050 6930,2050 7169,2064 7172,2064 7293,2077 7296,2077 7357,2086 C 7358,2086 7359,2086 7360,2087 L 7423,2098 C 7424,2098 7424,2098 7425,2099 L 7492,2113 C 7493,2114 7495,2114 7496,2114 L 7565,2133 C 7566,2133 7567,2133 7568,2134 L 7639,2157 C 7640,2157 7641,2158 7642,2158 L 7715,2186 C 7716,2186 7717,2186 7717,2187 L 7792,2219 C 7793,2219 7794,2219 7795,2220 L 7873,2257 C 7874,2258 7875,2258 7876,2259 L 7956,2302 C 7957,2303 7957,2303 7958,2303 7958,2304 7959,2304 7959,2304 L 8043,2354 C 8044,2354 8044,2355 8045,2355 L 8051,2359 C 8052,2360 8053,2361 8055,2362 L 8060,2366 C 8061,2366 8062,2367 8063,2368 L 8068,2373 C 8069,2374 8071,2375 8072,2376 L 8076,2380 8079,2383 8084,2388 C 8084,2389 8085,2390 8086,2391 L 8090,2396 8093,2399 8096,2405 8099,2408 8102,2413 C 8103,2414 8103,2415 8104,2416 8104,2417 8105,2418 8105,2419 L 8108,2425 C 8109,2426 8110,2427 8110,2429 L 8113,2435 C 8113,2436 8114,2438 8115,2439 L 8117,2445 C 8117,2447 8118,2448 8118,2450 L 8120,2456 C 8121,2458 8121,2459 8122,2460 L 8123,2467 C 8123,2469 8124,2470 8124,2472 L 8125,2479 C 8125,2480 8126,2482 8126,2483 L 8126,2490 C 8127,2492 8127,2493 8127,2495 L 8127,2502 8127,2504 8127,2507 8127,2511 8093,3151 8093,3154 8067,3419 C 8067,3420 8067,3420 8066,3421 L 8051,3540 8051,3541 8034,3652 8034,3654 8016,3759 C 8016,3760 8016,3760 8015,3761 L 7996,3858 C 7996,3859 7995,3859 7995,3860 L 7974,3949 7974,3951 7952,4034 C 7951,4035 7951,4036 7951,4037 L 7926,4115 C 7926,4116 7926,4117 7925,4118 L 7900,4190 C 7899,4190 7899,4191 7899,4192 L 7872,4258 C 7871,4259 7871,4260 7870,4261 L 7842,4321 C 7842,4322 7841,4323 7841,4324 L 7810,4381 C 7810,4382 7809,4382 7809,4383 L 7809,4384 7793,4410 C 7793,4411 7792,4411 7792,4412 L 7776,4437 7774,4439 7758,4463 C 7758,4464 7757,4464 7757,4465 L 7740,4487 C 7740,4488 7739,4488 7739,4489 L 7722,4510 C 7721,4511 7721,4512 7720,4512 L 7703,4532 C 7703,4533 7703,4533 7702,4533 L 7685,4553 C 7684,4554 7684,4555 7683,4555 L 7665,4574 C 7665,4575 7664,4575 7664,4576 L 7645,4594 7644,4595 7625,4612 C 7625,4613 7624,4613 7624,4614 L 7605,4630 7603,4632 7584,4647 C 7583,4647 7583,4648 7582,4648 L 7563,4663 C 7562,4663 7562,4663 7561,4664 L 7542,4677 C 7541,4678 7540,4679 7539,4679 L 7503,4702 C 7502,4703 7501,4703 7500,4704 L 7499,4704 7462,4725 C 7461,4726 7460,4726 7459,4727 L 7421,4746 C 7420,4746 7420,4746 7419,4747 L 7380,4764 C 7379,4764 7379,4765 7378,4765 L 7341,4780 7689,7926 C 7753,7945 7820,7970 7886,8002 7989,8052 8094,8119 8187,8205 8282,8291 8366,8396 8429,8520 8492,8643 8535,8784 8546,8947 L 8546,8951 C 8569,9186 8582,9437 8582,9669 L 8582,9716 C 8582,9730 8580,9743 8577,9757 8573,9770 8568,9782 8561,9794 8554,9806 8546,9818 8536,9828 8526,9838 8514,9846 8502,9853 8490,9860 8477,9865 8464,9869 8451,9872 8437,9874 8423,9874 L 2378,9874 Z"/>
       </g>
      </g>
      <g class="com.sun.star.drawing.ClosedBezierShape">
       <g id="id4">
        <rect class="BoundingBox" stroke="none" fill="none" x="8151" y="8204" width="37" height="41"/>
        <path fill="rgb(0,0,0)" stroke="none" d="M 8187,8204 L 8151,8243 8186,8204 C 8187,8204 8187,8204 8187,8204 Z"/>
       </g>
      </g>
      <g class="com.sun.star.drawing.CustomShape">
       <g id="id5">
        <rect class="BoundingBox" stroke="none" fill="none" x="0" y="0" width="10801" height="10801"/>
       </g>
      </g>
      <g class="com.sun.star.drawing.ClosedBezierShape">
       <g id="id6">
        <rect class="BoundingBox" stroke="none" fill="none" x="2217" y="7961" width="6366" height="1913"/>
        <path fill="rgb(0,0,0)" stroke="none" d="M 2996,7975 L 7796,7975 7796,7962 C 7826,7973 7856,7986 7886,8001 7989,8051 8094,8118 8187,8204 8282,8290 8366,8395 8429,8519 8492,8642 8535,8783 8546,8946 L 8546,8950 C 8569,9185 8582,9436 8582,9668 L 8582,9715 C 8582,9729 8580,9742 8577,9756 8573,9769 8568,9781 8561,9793 8554,9805 8546,9817 8536,9827 8526,9837 8514,9845 8502,9852 8490,9859 8477,9864 8464,9868 8451,9871 8437,9873 8423,9873 L 2378,9873 2377,9873 C 2364,9873 2350,9871 2336,9868 2323,9864 2310,9859 2298,9852 2286,9845 2274,9836 2264,9826 2255,9817 2247,9806 2240,9795 L 2239,9794 2239,9793 C 2232,9781 2227,9769 2223,9756 2220,9742 2218,9729 2218,9715 L 2218,9668 C 2218,9439 2232,9192 2254,8959 L 2254,8955 C 2254,8951 2255,8946 2256,8942 2267,8781 2309,8641 2371,8519 2434,8395 2519,8290 2613,8204 2707,8118 2811,8051 2915,8001 2942,7988 2969,7976 2996,7965 L 2996,7975 Z"/>
       </g>
      </g>
      <g class="com.sun.star.drawing.PolyPolygonShape">
       <g id="id7">
        <rect class="BoundingBox" stroke="none" fill="none" x="3131" y="5003" width="4538" height="2726"/>
        <path fill="rgb(0,0,0)" stroke="none" d="M 3131,7728 L 3437,5004 7366,5004 7667,7728 3131,7728 Z"/>
       </g>
      </g>
      <g class="com.sun.star.drawing.ClosedBezierShape">
       <g id="id8">
        <rect class="BoundingBox" stroke="none" fill="none" x="2673" y="1858" width="5455" height="2900"/>
        <path fill="rgb(0,0,0)" stroke="none" d="M 3407,4757 L 3381,4745 C 3380,4744 3380,4744 3379,4744 L 3341,4725 C 3340,4724 3339,4724 3338,4723 L 3301,4702 3300,4702 C 3299,4701 3298,4701 3297,4700 L 3261,4677 C 3260,4677 3259,4676 3258,4675 L 3239,4662 C 3238,4661 3238,4661 3237,4661 L 3218,4646 C 3217,4646 3217,4645 3216,4645 L 3197,4630 3195,4628 3176,4612 C 3176,4611 3175,4611 3175,4610 L 3156,4593 3155,4592 3136,4574 C 3136,4573 3135,4573 3135,4572 L 3117,4553 C 3116,4553 3116,4552 3115,4551 L 3098,4531 C 3097,4531 3097,4531 3097,4530 L 3080,4510 C 3079,4510 3079,4509 3078,4508 L 3061,4487 C 3061,4486 3060,4486 3060,4485 L 3043,4463 C 3043,4462 3042,4462 3042,4461 L 3026,4437 3024,4435 3008,4410 C 3008,4409 3007,4409 3007,4408 L 2991,4382 2991,4381 C 2991,4380 2990,4380 2990,4379 L 2959,4322 C 2959,4321 2958,4320 2958,4319 L 2930,4259 C 2929,4258 2929,4257 2928,4256 L 2901,4190 C 2901,4189 2901,4188 2900,4188 L 2875,4116 C 2874,4115 2874,4114 2874,4113 L 2849,4035 C 2849,4034 2849,4033 2848,4032 L 2826,3949 2826,3947 2805,3858 C 2805,3857 2804,3857 2804,3856 L 2785,3759 C 2784,3758 2784,3758 2784,3757 L 2766,3652 2766,3650 2749,3539 2749,3538 2734,3419 C 2733,3418 2733,3418 2733,3417 L 2707,3152 2707,3149 2673,2509 2673,2505 2673,2502 2673,2500 2673,2493 C 2673,2491 2673,2490 2674,2488 L 2674,2481 C 2674,2480 2675,2478 2675,2477 L 2676,2470 C 2676,2468 2677,2467 2677,2465 L 2678,2458 C 2679,2457 2679,2456 2680,2454 L 2682,2448 C 2682,2446 2683,2445 2683,2443 L 2685,2437 C 2686,2436 2687,2434 2687,2433 L 2690,2427 C 2690,2425 2691,2424 2692,2423 L 2695,2417 C 2695,2416 2696,2415 2696,2414 2697,2413 2697,2412 2698,2411 L 2701,2406 2704,2403 2707,2397 2710,2394 2714,2389 C 2715,2388 2716,2387 2716,2386 L 2721,2381 2724,2378 2728,2374 C 2729,2373 2731,2372 2732,2371 L 2737,2366 C 2738,2365 2739,2364 2740,2364 L 2745,2360 C 2747,2359 2748,2358 2749,2357 L 2755,2353 C 2756,2353 2756,2352 2757,2352 L 2843,2301 C 2844,2300 2845,2300 2846,2300 L 2929,2256 C 2930,2255 2931,2255 2932,2254 L 3014,2216 C 3015,2216 3016,2215 3017,2215 L 3097,2182 C 3098,2182 3099,2181 3100,2181 L 3177,2154 C 3178,2153 3180,2153 3181,2153 L 3256,2130 C 3257,2129 3258,2129 3259,2129 L 3332,2110 3335,2110 3405,2095 C 3406,2094 3407,2094 3408,2094 L 3475,2082 3478,2082 3543,2072 3545,2072 3608,2065 3610,2065 3669,2060 3671,2060 3870,2048 3874,2048 3880,2048 3882,2048 3889,2048 C 3891,2048 3892,2048 3894,2049 L 3901,2049 C 3902,2049 3904,2050 3905,2050 L 3912,2051 C 3914,2051 3915,2052 3917,2052 L 3924,2053 C 3925,2054 3926,2054 3928,2055 L 3934,2057 C 3936,2057 3937,2058 3939,2058 L 3945,2060 C 3946,2061 3948,2062 3949,2062 L 3955,2065 C 3957,2065 3958,2066 3959,2067 L 3965,2070 C 3966,2070 3967,2071 3968,2071 3969,2072 3971,2073 3972,2074 L 3978,2078 C 3979,2078 3980,2079 3981,2080 L 3986,2084 C 3987,2085 3988,2086 3989,2086 L 3995,2091 3998,2094 4003,2098 4006,2101 4010,2106 4013,2109 4018,2115 C 4018,2116 4019,2117 4020,2118 L 4024,2123 C 4025,2124 4026,2125 4026,2126 L 4030,2132 C 4031,2133 4032,2135 4033,2136 4033,2138 4034,2139 4035,2141 L 4038,2147 C 4038,2148 4039,2148 4039,2149 L 4042,2156 C 4042,2157 4043,2158 4043,2159 L 4044,2162 C 4045,2163 4045,2163 4045,2164 L 4046,2168 C 4047,2168 4047,2169 4047,2170 L 4048,2174 C 4049,2175 4049,2176 4049,2177 L 4050,2179 4276,3024 4454,3025 4545,2119 C 4545,2118 4546,2116 4546,2115 L 4547,2109 4547,2106 4548,2101 C 4549,2100 4549,2099 4549,2097 L 4551,2092 4551,2089 4553,2083 C 4553,2082 4554,2082 4554,2081 L 4556,2075 C 4556,2074 4557,2073 4557,2072 L 4559,2067 C 4560,2066 4560,2065 4560,2064 L 4563,2059 C 4563,2058 4564,2057 4564,2056 L 4567,2051 C 4567,2050 4568,2049 4568,2048 4569,2047 4570,2045 4571,2044 L 4575,2038 C 4575,2037 4576,2036 4577,2035 L 4581,2030 C 4582,2029 4583,2028 4583,2027 L 4588,2021 4591,2018 4595,2013 4598,2010 4603,2006 4606,2003 4612,1998 C 4613,1998 4614,1997 4615,1996 L 4620,1992 C 4621,1991 4622,1990 4623,1990 L 4629,1986 C 4630,1985 4632,1984 4633,1983 4635,1982 4636,1982 4638,1981 L 4646,1977 C 4647,1977 4647,1976 4648,1976 L 4656,1973 C 4657,1972 4658,1972 4659,1971 L 4667,1969 C 4668,1968 4670,1968 4671,1967 L 4679,1965 C 4681,1964 4683,1964 4685,1963 L 4905,1918 4907,1918 5086,1886 5088,1886 5169,1874 5171,1874 5246,1865 5249,1865 5319,1860 5323,1860 5391,1858 5393,1858 5401,1858 5405,1858 5406,1858 5410,1858 5413,1858 5417,1859 5421,1859 5483,1861 5487,1861 5555,1866 5558,1866 5631,1875 5633,1875 5712,1887 5714,1887 5893,1919 5895,1919 6115,1964 C 6117,1965 6119,1965 6121,1966 L 6129,1968 C 6130,1969 6132,1969 6133,1970 L 6141,1972 C 6142,1973 6143,1973 6144,1974 L 6152,1977 C 6153,1977 6153,1978 6154,1978 L 6162,1982 C 6164,1983 6165,1983 6167,1984 6168,1985 6170,1986 6171,1987 L 6177,1991 C 6178,1991 6179,1992 6180,1993 L 6185,1997 C 6186,1998 6187,1999 6188,1999 L 6194,2004 6197,2007 6202,2011 6205,2014 6209,2019 6212,2022 6217,2028 C 6217,2029 6218,2030 6219,2031 L 6223,2036 C 6224,2037 6225,2038 6225,2039 L 6229,2045 C 6230,2046 6231,2048 6232,2049 6232,2050 6233,2051 6233,2052 L 6236,2057 C 6236,2058 6237,2059 6237,2060 L 6240,2065 C 6240,2066 6240,2067 6241,2068 L 6243,2073 C 6243,2074 6244,2075 6244,2076 L 6246,2082 C 6246,2083 6247,2083 6247,2084 L 6249,2090 6249,2093 6251,2098 C 6251,2100 6251,2101 6252,2102 L 6253,2107 6253,2110 6254,2116 C 6254,2117 6255,2119 6255,2120 L 6346,3026 6524,3025 6750,2180 6751,2178 C 6751,2177 6751,2176 6752,2175 L 6753,2171 C 6753,2170 6753,2169 6754,2169 L 6755,2165 C 6755,2164 6755,2164 6756,2163 L 6757,2160 C 6757,2159 6758,2158 6758,2157 L 6761,2150 C 6761,2149 6762,2149 6762,2148 L 6765,2142 C 6766,2140 6767,2139 6767,2137 6768,2136 6769,2134 6770,2133 L 6774,2127 C 6774,2126 6775,2125 6776,2124 L 6780,2119 C 6781,2118 6782,2117 6782,2116 L 6787,2110 6790,2107 6794,2102 6797,2099 6802,2095 6805,2092 6811,2087 C 6812,2087 6813,2086 6814,2085 L 6819,2081 C 6820,2080 6821,2079 6822,2079 L 6828,2075 C 6829,2074 6831,2073 6832,2072 6833,2072 6834,2071 6835,2071 L 6841,2068 C 6842,2067 6843,2066 6845,2066 L 6851,2063 C 6852,2063 6854,2062 6855,2061 L 6861,2059 C 6863,2059 6864,2058 6866,2058 L 6872,2056 C 6874,2055 6875,2055 6876,2054 L 6883,2053 C 6885,2053 6886,2052 6888,2052 L 6895,2051 C 6896,2051 6898,2050 6899,2050 L 6906,2050 C 6908,2049 6909,2049 6911,2049 L 6918,2049 6920,2049 6926,2049 6930,2049 7169,2063 7172,2063 7293,2076 7296,2076 7357,2085 C 7358,2085 7359,2085 7360,2086 L 7423,2097 C 7424,2097 7424,2097 7425,2098 L 7492,2112 C 7493,2113 7495,2113 7496,2113 L 7565,2132 C 7566,2132 7567,2132 7568,2133 L 7639,2156 C 7640,2156 7641,2157 7642,2157 L 7715,2185 C 7716,2185 7717,2185 7717,2186 L 7792,2218 C 7793,2218 7794,2218 7795,2219 L 7873,2256 C 7874,2257 7875,2257 7876,2258 L 7956,2301 C 7957,2302 7957,2302 7958,2302 7958,2303 7959,2303 7959,2303 L 8043,2353 C 8044,2353 8044,2354 8045,2354 L 8051,2358 C 8052,2359 8053,2360 8055,2361 L 8060,2365 C 8061,2365 8062,2366 8063,2367 L 8068,2372 C 8069,2373 8071,2374 8072,2375 L 8076,2379 8079,2382 8084,2387 C 8084,2388 8085,2389 8086,2390 L 8090,2395 8093,2398 8096,2404 8099,2407 8102,2412 C 8103,2413 8103,2414 8104,2415 8104,2416 8105,2417 8105,2418 L 8108,2424 C 8109,2425 8110,2426 8110,2428 L 8113,2434 C 8113,2435 8114,2437 8115,2438 L 8117,2444 C 8117,2446 8118,2447 8118,2449 L 8120,2455 C 8121,2457 8121,2458 8122,2459 L 8123,2466 C 8123,2468 8124,2469 8124,2471 L 8125,2478 C 8125,2479 8126,2481 8126,2482 L 8126,2489 C 8127,2491 8127,2492 8127,2494 L 8127,2501 8127,2503 8127,2506 8127,2510 8093,3150 8093,3153 8067,3418 C 8067,3419 8067,3419 8066,3420 L 8051,3539 8051,3540 8034,3651 8034,3653 8016,3758 C 8016,3759 8016,3759 8015,3760 L 7996,3857 C 7996,3858 7995,3858 7995,3859 L 7974,3948 7974,3950 7952,4033 C 7951,4034 7951,4035 7951,4036 L 7926,4114 C 7926,4115 7926,4116 7925,4117 L 7900,4189 C 7899,4189 7899,4190 7899,4191 L 7872,4257 C 7871,4258 7871,4259 7870,4260 L 7842,4320 C 7842,4321 7841,4322 7841,4323 L 7810,4380 C 7810,4381 7809,4381 7809,4382 L 7809,4383 7793,4409 C 7793,4410 7792,4410 7792,4411 L 7776,4436 7774,4438 7758,4462 C 7758,4463 7757,4463 7757,4464 L 7740,4486 C 7740,4487 7739,4487 7739,4488 L 7722,4509 C 7721,4510 7721,4511 7720,4511 L 7703,4531 C 7703,4532 7703,4532 7702,4532 L 7685,4552 C 7684,4553 7684,4554 7683,4554 L 7665,4573 C 7665,4574 7664,4574 7664,4575 L 7645,4593 7644,4594 7625,4611 C 7625,4612 7624,4612 7624,4613 L 7605,4629 7603,4631 7584,4646 C 7583,4646 7583,4647 7582,4647 L 7563,4662 C 7562,4662 7562,4662 7561,4663 L 7542,4676 C 7541,4677 7540,4678 7539,4678 L 7503,4701 C 7502,4702 7501,4702 7500,4703 L 7499,4703 7462,4724 C 7461,4725 7460,4725 7459,4726 L 7421,4745 C 7420,4745 7420,4745 7419,4746 L 7395,4757 3407,4757 Z"/>
       </g>
      </g>
     </g>
    </g>
   </g>
  </g>
 </g>
</svg>