<?xml version="1.0" encoding="UTF-8" standalone="no"?>
<svg
   xmlns:dc="http://purl.org/dc/elements/1.1/"
   xmlns:cc="http://creativecommons.org/ns#"
   xmlns:rdf="http://www.w3.org/1999/02/22-rdf-syntax-ns#"
   xmlns:svg="http://www.w3.org/2000/svg"
   xmlns="http://www.w3.org/2000/svg"
   xmlns:xlink="http://www.w3.org/1999/xlink"
   xmlns:sodipodi="http://sodipodi.sourceforge.net/DTD/sodipodi-0.dtd"
   xmlns:inkscape="http://www.inkscape.org/namespaces/inkscape"
   width="52.916664mm"
   height="52.916664mm"
   viewBox="0 0 52.916664 52.916664"
   version="1.1"
   id="svg1256"
   inkscape:version="1.0.1 (3bc2e813f5, 2020-09-07)"
   sodipodi:docname="wr.svg">
  <defs
     id="defs1250">
    <linearGradient
       id="linearGradientBlackPieces">
      <stop
         style="stop-color:#000000;stop-opacity:1"
         offset="0"
         id="stop2509-4" />
      <stop
         style="stop-color:#505070;stop-opacity:1"
         offset="1"
         id="stop2511-6" />
    </linearGradient>
    <linearGradient
       id="linearGradientBlackPiecesBorder">
      <stop
         style="stop-color:#808080;stop-opacity:1;"
         offset="0"
         id="stop11490" />
      <stop
         style="stop-color:#808080;stop-opacity:1;"
         offset="1"
         id="stop11492" />
    </linearGradient>
    <linearGradient
       id="linearGradientWhitePieces">
      <stop
         id="stop12734"
         offset="0"
         style="stop-color:#ffffff;stop-opacity:1" />
      <stop
         id="stop12736"
         offset="1"
         style="stop-color:#d0b090;stop-opacity:1" />
    </linearGradient>
    <linearGradient
       id="linearGradientWhitePiecesBorder">
      <stop
         id="stop11900"
         offset="0"
         style="stop-color:#000000;stop-opacity:1" />
      <stop
         id="stop11902"
         offset="1"
         style="stop-color:#000000;stop-opacity:1" />
    </linearGradient>
    <linearGradient
       inkscape:collect="always"
       xlink:href="#linearGradientWhitePieces"
       id="linearGradient11806"
       gradientUnits="userSpaceOnUse"
       gradientTransform="matrix(0.20569692,0,0,0.22857143,410.35042,198.9225)"
       x1="13.155726"
       y1="426.90005"
       x2="759.8902"
       y2="674.65308" />
    <linearGradient
       inkscape:collect="always"
       xlink:href="#linearGradientWhitePiecesBorder"
       id="linearGradient12838"
       x1="445.49747"
       y1="312.7225"
       x2="557.88916"
       y2="312.7225"
       gradientUnits="userSpaceOnUse" />
    <linearGradient
       inkscape:collect="always"
       xlink:href="#linearGradientWhitePieces"
       id="linearGradient11810"
       gradientUnits="userSpaceOnUse"
       gradientTransform="matrix(0.21522263,0,0,0.20013074,407.06586,202.05538)"
       x1="458.29816"
       y1="411.12521"
       x2="667.42706"
       y2="514.29163" />
    <linearGradient
       inkscape:collect="always"
       xlink:href="#linearGradientWhitePiecesBorder"
       id="linearGradient12836"
       x1="502.69141"
       y1="289.13412"
       x2="549.44672"
       y2="289.13412"
       gradientUnits="userSpaceOnUse" />
    <linearGradient
       inkscape:collect="always"
       xlink:href="#linearGradientWhitePieces"
       id="linearGradient11814"
       gradientUnits="userSpaceOnUse"
       gradientTransform="matrix(0.21522263,0,0,0.20736686,356.41691,196.19693)"
       x1="442.08737"
       y1="413.31122"
       x2="667.427"
       y2="504.29163" />
    <linearGradient
       inkscape:collect="always"
       xlink:href="#linearGradientWhitePiecesBorder"
       id="linearGradient12834"
       x1="452.70697"
       y1="286.45444"
       x2="500.16919"
       y2="286.45444"
       gradientUnits="userSpaceOnUse" />
    <linearGradient
       inkscape:collect="always"
       xlink:href="#linearGradientWhitePieces"
       id="linearGradient11818"
       gradientUnits="userSpaceOnUse"
       gradientTransform="matrix(0.22857143,0,0,0.20145326,401.52381,217.30008)"
       x1="102"
       y1="801.66663"
       x2="769.66669"
       y2="801.66663" />
    <linearGradient
       inkscape:collect="always"
       xlink:href="#linearGradientWhitePiecesBorder"
       id="linearGradient12832"
       x1="424.8381"
       y1="379.77798"
       x2="573.25952"
       y2="379.77798"
       gradientUnits="userSpaceOnUse" />
    <linearGradient
       inkscape:collect="always"
       xlink:href="#linearGradientWhitePieces"
       id="linearGradient11822"
       gradientUnits="userSpaceOnUse"
       gradientTransform="matrix(0.22857143,0,0,0.18124526,403.44481,217.3959)"
       x1="296.44843"
       y1="-160.70204"
       x2="739.72266"
       y2="253.50563" />
    <linearGradient
       inkscape:collect="always"
       xlink:href="#linearGradientWhitePiecesBorder"
       id="linearGradient12830"
       x1="417.95316"
       y1="240.86752"
       x2="582.47638"
       y2="240.86752"
       gradientUnits="userSpaceOnUse" />
    <linearGradient
       inkscape:collect="always"
       xlink:href="#linearGradientWhitePiecesBorder"
       id="linearGradient12894"
       x1="367.3364"
       y1="340.25049"
       x2="430.36841"
       y2="340.25049"
       gradientUnits="userSpaceOnUse" />
    <linearGradient
       inkscape:collect="always"
       xlink:href="#linearGradientWhitePiecesBorder"
       id="linearGradient12824"
       x1="480.61533"
       y1="349.94077"
       x2="520.30194"
       y2="349.94077"
       gradientUnits="userSpaceOnUse" />
    <linearGradient
       inkscape:collect="always"
       xlink:href="#linearGradientWhitePiecesBorder"
       id="linearGradient12822"
       x1="483.78497"
       y1="350.07507"
       x2="513.65399"
       y2="350.07507"
       gradientUnits="userSpaceOnUse" />
    <linearGradient
       inkscape:collect="always"
       xlink:href="#linearGradientWhitePiecesBorder"
       id="linearGradient3696"
       gradientUnits="userSpaceOnUse"
       x1="367.3364"
       y1="340.25049"
       x2="430.36841"
       y2="340.25049" />
    <linearGradient
       inkscape:collect="always"
       xlink:href="#linearGradientWhitePiecesBorder"
       id="linearGradient3698"
       gradientUnits="userSpaceOnUse"
       x1="367.3364"
       y1="340.25049"
       x2="430.36841"
       y2="340.25049" />
  </defs>
  <sodipodi:namedview
     id="base"
     pagecolor="#ffffff"
     bordercolor="#666666"
     borderopacity="1.0"
     inkscape:pageopacity="0.0"
     inkscape:pageshadow="2"
     inkscape:zoom="0.42880795"
     inkscape:cx="210.82627"
     inkscape:cy="324.18531"
     inkscape:document-units="mm"
     inkscape:current-layer="layer1"
     inkscape:document-rotation="0"
     showgrid="false"
     inkscape:window-width="1920"
     inkscape:window-height="1137"
     inkscape:window-x="-8"
     inkscape:window-y="-8"
     inkscape:window-maximized="1"
     fit-margin-top="0"
     fit-margin-left="0"
     fit-margin-right="0"
     fit-margin-bottom="0" />
  <metadata
     id="metadata1253">
    <rdf:RDF>
      <cc:Work
         rdf:about="">
        <dc:format>image/svg+xml</dc:format>
        <dc:type
           rdf:resource="http://purl.org/dc/dcmitype/StillImage" />
        <dc:title></dc:title>
      </cc:Work>
    </rdf:RDF>
  </metadata>
  <g
     inkscape:label="Capa 1"
     inkscape:groupmode="layer"
     id="layer1"
     transform="translate(-50.052216,-62.392636)">
    <g
       id="WhiteRook"
       transform="matrix(0.26458333,0,0,0.26458333,-55.781117,9.4759691)">
      <rect
         style="fill:none;stroke:none"
         id="rect11682"
         width="200"
         height="200"
         x="400"
         y="200" />
      <path
         style="fill:url(#linearGradient11806);fill-opacity:1;stroke:url(#linearGradient12838);stroke-width:3.65714;stroke-linecap:round;stroke-linejoin:round;stroke-miterlimit:4;stroke-dasharray:none;stroke-opacity:1"
         d="m 447.33354,245.91536 c -0.18143,44.19145 3.02331,90.14887 0,133.61429 H 556.0606 c -4.73457,-43.04372 -0.77545,-90.61513 0,-133.61429 z"
         id="path11684"
         sodipodi:nodetypes="ccccc"
         inkscape:connector-curvature="0" />
      <path
         style="fill:url(#linearGradient11810);fill-opacity:1;stroke:url(#linearGradient12836);stroke-width:3.65714;stroke-linecap:round;stroke-linejoin:round;stroke-miterlimit:4;stroke-dasharray:none;stroke-opacity:1"
         d="m 515.56314,273.68795 c -5.96443,4.86603 -11.04316,10.94085 -11.04316,20.2616 0,8.28746 2.61864,10.23678 7.49838,15.20092 l 28.98782,0.68571 c 4.87973,-4.96413 6.612,-10.70821 6.61199,-18.99567 0,-9.32074 -2.55094,-17.54237 -8.51537,-22.4084 z"
         id="path11686"
         sodipodi:nodetypes="csccscc"
         inkscape:connector-curvature="0" />
      <path
         id="path11688"
         d="m 463.27949,264.97363 c -5.96443,5.04197 -8.74394,13.56087 -8.74394,23.21861 0,8.58711 1.95409,14.59941 6.83384,19.74303 l 28.98782,-0.21799 c 4.87973,-5.14361 7.98342,-10.93793 7.98342,-19.52504 -10e-6,-9.65774 -3.99921,-11.44711 -9.96364,-16.48908 z"
         style="fill:url(#linearGradient11814);fill-opacity:1;stroke:url(#linearGradient12834);stroke-width:3.65714;stroke-linecap:round;stroke-linejoin:round;stroke-miterlimit:4;stroke-dasharray:none;stroke-opacity:1"
         sodipodi:nodetypes="csccscc"
         inkscape:connector-curvature="0" />
      <path
         style="opacity:0.99;fill:url(#linearGradient11818);fill-opacity:1;fill-rule:evenodd;stroke:url(#linearGradient12832);stroke-width:3.65714;stroke-linecap:round;stroke-linejoin:round;stroke-miterlimit:4;stroke-dasharray:none;stroke-dashoffset:0;stroke-opacity:1"
         d="m 434.38095,370.07089 c -4.30163,0.11599 -7.71428,2.62789 -7.71428,5.72883 v 7.0068 c 0,3.17536 3.58157,5.72882 8.02857,5.72882 41.29256,0.94589 83.15949,1.55429 128.70714,0 4.447,0 8.02858,-2.55346 8.02858,-5.72882 v -7.0068 c 0,-3.17536 -3.58159,-5.72883 -8.02858,-5.72883 -42.23549,1.76331 -85.03648,2.03139 -128.70714,0 -0.10423,0 -0.21105,-0.003 -0.31429,0 z"
         id="path11690"
         sodipodi:nodetypes="cccccccccc"
         inkscape:connector-curvature="0" />
      <path
         style="opacity:0.99;fill:url(#linearGradient11822);fill-opacity:1;fill-rule:evenodd;stroke:url(#linearGradient12830);stroke-width:3.65714;stroke-linecap:round;stroke-linejoin:round;stroke-miterlimit:4;stroke-dasharray:none;stroke-dashoffset:0;stroke-opacity:1"
         d="m 464.68571,223.47143 v 12.23571 c 0,4.02491 -3.4069,7.26429 -7.64285,7.26429 h -3.75715 c -4.23595,0 -7.65,-3.23938 -7.65,-7.26429 v -15.48571 c -6.31862,0.22174 -10.51485,0.5156 -11.53571,0.87857 -5.79532,2.06054 -11.37676,1.17453 -12.87857,7.71429 -1.73878,7.57165 -2.09231,17.46991 0,24.96428 1.12733,4.03795 5.75512,8.05954 12.87857,7.71429 41.87926,-2.02974 82.86851,-1.38204 132.1,0 7.12986,0.20236 11.75125,-3.67634 12.87858,-7.71429 2.09231,-7.49437 2.09231,-17.46991 0,-24.96428 -1.12733,-4.03796 -5.82116,-6.78667 -12.87858,-7.71429 -2.2398,-0.2944 -7.33261,-0.55307 -14.27857,-0.76429 V 236.85 c 0,4.0249 -3.40691,7.26429 -7.64286,7.26429 h -3.75714 c -4.23595,0 -7.64286,-3.23939 -7.64286,-7.26429 v -13.26429 c -7.81126,-0.11767 -16.39492,-1.11307 -25.14286,-1.15714 v 12.9 c 0,4.02491 -3.41404,7.26429 -7.65,7.26429 h -3.75714 c -4.23595,-1e-5 -7.64286,-3.23939 -7.64286,-7.26429 v -12.93571 c -0.038,6e-5 -17.13181,0.99128 -24,1.07857 z"
         id="path11692"
         sodipodi:nodetypes="ccccccssssssssccccccccccccc"
         inkscape:connector-curvature="0" />
      <ellipse
         transform="matrix(0.23211817,0,0,0.2083952,385.53051,224.61872)"
         id="path11694"
         style="opacity:0.99;fill:url(#linearGradient3696);fill-opacity:1;fill-rule:evenodd;stroke:url(#linearGradient3698);stroke-width:16.6281;stroke-linecap:round;stroke-linejoin:round;stroke-miterlimit:4;stroke-dasharray:none;stroke-dashoffset:0;stroke-opacity:1"
         cx="398.85242"
         cy="340.25049"
         rx="23.201941"
         ry="22.097088" />
      <ellipse
         style="opacity:0.99;fill:url(#linearGradient12894);fill-opacity:1;fill-rule:evenodd;stroke:url(#linearGradient12894);stroke-width:16.6281;stroke-linecap:round;stroke-linejoin:round;stroke-miterlimit:4;stroke-dasharray:none;stroke-dashoffset:0;stroke-opacity:1"
         id="path11696"
         transform="matrix(0.23211817,0,0,0.2083952,430.00976,226.69239)"
         cx="398.85242"
         cy="340.25049"
         rx="23.201941"
         ry="22.097088" />
      <path
         style="fill:none;stroke:url(#linearGradient12824);stroke-width:3.65714;stroke-linecap:round;stroke-linejoin:round;stroke-miterlimit:4;stroke-dasharray:none;stroke-opacity:1"
         d="m 482.64078,371.44635 c 0,-4.30998 -0.87895,-16.78517 1.07749,-31.24738 2.30422,-17.03293 33.49555,-14.27676 34.47988,0 0.61928,8.98213 0,30.16989 0,30.16989"
         id="path11698"
         sodipodi:nodetypes="cssc"
         inkscape:connector-curvature="0" />
      <path
         style="fill:none;stroke:url(#linearGradient12822);stroke-width:3.65714;stroke-linecap:round;stroke-linejoin:round;stroke-miterlimit:4;stroke-dasharray:none;stroke-opacity:1"
         d="m 485.61354,335.12708 c 8.61997,-9.33829 24.71641,-7.32614 25.85991,7.54247 0.8285,10.77273 -0.0654,28.0149 -0.0654,28.0149"
         id="path11700"
         sodipodi:nodetypes="csc"
         inkscape:connector-curvature="0" />
    </g>
  </g>
</svg>
