<?xml version="1.0" encoding="UTF-8" standalone="no"?>
<svg
   xmlns:dc="http://purl.org/dc/elements/1.1/"
   xmlns:cc="http://creativecommons.org/ns#"
   xmlns:rdf="http://www.w3.org/1999/02/22-rdf-syntax-ns#"
   xmlns:svg="http://www.w3.org/2000/svg"
   xmlns="http://www.w3.org/2000/svg"
   xmlns:xlink="http://www.w3.org/1999/xlink"
   xmlns:sodipodi="http://sodipodi.sourceforge.net/DTD/sodipodi-0.dtd"
   xmlns:inkscape="http://www.inkscape.org/namespaces/inkscape"
   width="200.00002"
   height="200.00002"
   id="svg2722"
   sodipodi:version="0.32"
   inkscape:version="1.0.1 (3bc2e813f5, 2020-09-07)"
   version="1.0"
   sodipodi:docname="bb.svg"
   inkscape:output_extension="org.inkscape.output.svg.inkscape">
  <defs
     id="defs2724">
    <linearGradient
       id="linearGradientWhitePiecesBorder">
      <stop
         style="stop-color:#000000;stop-opacity:1;"
         offset="0"
         id="stop7935" />
      <stop
         style="stop-color:#000000;stop-opacity:1;"
         offset="1"
         id="stop7937" />
    </linearGradient>
    <linearGradient
       id="linearGradientWhitePieces">
      <stop
         id="stop7929"
         offset="0"
         style="stop-color:#ede3de;stop-opacity:1;" />
      <stop
         id="stop7931"
         offset="1"
         style="stop-color:#8a6737;stop-opacity:1;" />
    </linearGradient>
    <linearGradient
       id="linearGradientBlackPiecesBorder">
      <stop
         style="stop-color:#808080;stop-opacity:1;"
         offset="0"
         id="stop7192" />
      <stop
         style="stop-color:#808080;stop-opacity:1;"
         offset="1"
         id="stop7194" />
    </linearGradient>
    <linearGradient
       id="linearGradientBlackPieces">
      <stop
         id="stop2268"
         offset="0"
         style="stop-color:#000e1c;stop-opacity:1;" />
      <stop
         id="stop2270"
         offset="1"
         style="stop-color:#50506f;stop-opacity:1;" />
    </linearGradient>
    <linearGradient
       inkscape:collect="always"
       xlink:href="#linearGradientWhitePieces"
       id="linearGradient15168"
       gradientUnits="userSpaceOnUse"
       gradientTransform="matrix(0.16437029,1.1302757e-4,-0.00204311,0.16893829,1102.9193,220.4518)"
       x1="241.75385"
       y1="401.27609"
       x2="522.97559"
       y2="519.06158" />
    <linearGradient
       inkscape:collect="always"
       xlink:href="#linearGradientWhitePiecesBorder"
       id="linearGradient15170"
       gradientUnits="userSpaceOnUse"
       x1="1159.5165"
       y1="297.8815"
       x2="1178.6918"
       y2="297.8815" />
    <linearGradient
       inkscape:collect="always"
       xlink:href="#linearGradientWhitePieces"
       id="linearGradient15173"
       gradientUnits="userSpaceOnUse"
       gradientTransform="matrix(0.22387292,0.04610674,-0.04610674,0.22387292,1027.3988,235.02322)"
       x1="456.672"
       y1="496.70807"
       x2="790.85327"
       y2="285.25974" />
    <linearGradient
       inkscape:collect="always"
       xlink:href="#linearGradientWhitePiecesBorder"
       id="linearGradient15175"
       gradientUnits="userSpaceOnUse"
       x1="1116.9076"
       y1="346.82153"
       x2="1171.1093"
       y2="346.82153" />
    <linearGradient
       inkscape:collect="always"
       xlink:href="#linearGradientWhitePieces"
       id="linearGradient15188"
       gradientUnits="userSpaceOnUse"
       gradientTransform="matrix(0.07483657,-0.03798697,0.02784731,0.06327954,1091.6156,273.77449)"
       x1="307.02979"
       y1="442.26321"
       x2="576.54529"
       y2="444.9863" />
    <linearGradient
       inkscape:collect="always"
       xlink:href="#linearGradientWhitePiecesBorder"
       id="linearGradient15190"
       gradientUnits="userSpaceOnUse"
       x1="1120.0306"
       y1="282.81598"
       x2="1140.408"
       y2="282.81598" />
    <linearGradient
       inkscape:collect="always"
       xlink:href="#linearGradientWhitePieces"
       id="linearGradient15356"
       gradientUnits="userSpaceOnUse"
       x1="331.08029"
       y1="435"
       x2="572.87866"
       y2="529.0235" />
    <linearGradient
       inkscape:collect="always"
       xlink:href="#linearGradientWhitePiecesBorder"
       id="linearGradient15358"
       gradientUnits="userSpaceOnUse"
       x1="296.55371"
       y1="435"
       x2="550.11298"
       y2="435" />
    <linearGradient
       inkscape:collect="always"
       xlink:href="#linearGradientBlackPieces"
       id="linearGradient15551"
       gradientUnits="userSpaceOnUse"
       gradientTransform="matrix(0.22857144,0,0,0.22857144,631.83922,-0.88973588)"
       x1="321.15759"
       y1="90.161285"
       x2="395.43152"
       y2="128.46291" />
    <linearGradient
       inkscape:collect="always"
       xlink:href="#linearGradientBlackPiecesBorder"
       id="linearGradient15553"
       gradientUnits="userSpaceOnUse"
       x1="708.30731"
       y1="24.432459"
       x2="721.72052"
       y2="24.432459"
       gradientTransform="matrix(1.0000063,0,0,1.0000063,-0.00378,-8.7714142e-6)" />
    <linearGradient
       inkscape:collect="always"
       xlink:href="#linearGradientBlackPieces"
       id="linearGradient15556"
       gradientUnits="userSpaceOnUse"
       x1="729.02667"
       y1="125.66114"
       x2="739.4967"
       y2="133.16115"
       gradientTransform="matrix(1.0000063,0,0,1.0000063,-0.00378,-8.7714142e-6)" />
    <linearGradient
       inkscape:collect="always"
       xlink:href="#linearGradientBlackPiecesBorder"
       id="linearGradient15558"
       gradientUnits="userSpaceOnUse"
       x1="667.02667"
       y1="106.16114"
       x2="759.9967"
       y2="106.16114"
       gradientTransform="matrix(1.0000063,0,0,1.0000063,-0.00378,-8.7714142e-6)" />
    <linearGradient
       inkscape:collect="always"
       xlink:href="#linearGradientBlackPieces"
       id="linearGradient15561"
       gradientUnits="userSpaceOnUse"
       gradientTransform="matrix(0.22857144,0,0,0.22857144,600,-8.7714142e-6)"
       x1="155.78476"
       y1="666.80823"
       x2="733.56958"
       y2="841.04077" />
    <linearGradient
       inkscape:collect="always"
       xlink:href="#linearGradientBlackPiecesBorder"
       id="linearGradient15563"
       gradientUnits="userSpaceOnUse"
       x1="630.422"
       y1="177.31451"
       x2="767.672"
       y2="177.31451"
       gradientTransform="matrix(1.0000063,0,0,1.0000063,-0.00378,-8.7714142e-6)" />
    <linearGradient
       inkscape:collect="always"
       xlink:href="#linearGradientBlackPieces"
       id="linearGradient15566"
       gradientUnits="userSpaceOnUse"
       x1="667.23889"
       y1="115.81965"
       x2="659.72015"
       y2="118.31965"
       gradientTransform="matrix(1.0000063,0,0,1.0000063,-0.00378,-8.7714142e-6)" />
    <linearGradient
       inkscape:collect="always"
       xlink:href="#linearGradientBlackPiecesBorder"
       id="linearGradient15568"
       gradientUnits="userSpaceOnUse"
       x1="667.23889"
       y1="105.81965"
       x2="706.72015"
       y2="105.81965"
       gradientTransform="matrix(1.0000063,0,0,1.0000063,-0.00378,-8.7714142e-6)" />
    <linearGradient
       inkscape:collect="always"
       xlink:href="#linearGradientBlackPiecesBorder"
       id="linearGradient15571"
       gradientUnits="userSpaceOnUse"
       x1="692.22754"
       y1="160.05824"
       x2="705.01599"
       y2="160.05824"
       gradientTransform="matrix(1.0000063,0,0,1.0000063,-0.00378,-8.7714142e-6)" />
    <linearGradient
       inkscape:collect="always"
       xlink:href="#linearGradientBlackPieces"
       id="linearGradient15574"
       gradientUnits="userSpaceOnUse"
       gradientTransform="matrix(0.22857144,0,0,0.22857144,600,-8.7714142e-6)"
       x1="334.55096"
       y1="110.78522"
       x2="393.23401"
       y2="127.35208" />
    <linearGradient
       inkscape:collect="always"
       xlink:href="#linearGradientBlackPiecesBorder"
       id="linearGradient15576"
       gradientUnits="userSpaceOnUse"
       x1="676.46832"
       y1="25.32218"
       x2="689.88147"
       y2="25.32218"
       gradientTransform="matrix(1.0000063,0,0,1.0000063,-0.00378,-8.7714142e-6)" />
    <linearGradient
       inkscape:collect="always"
       xlink:href="#linearGradientBlackPieces"
       id="linearGradient15579"
       gradientUnits="userSpaceOnUse"
       gradientTransform="matrix(0.22857144,0,0,0.22857144,600,-8.7714142e-6)"
       x1="192.30013"
       y1="446.01318"
       x2="613.59027"
       y2="649.5235" />
    <linearGradient
       inkscape:collect="always"
       xlink:href="#linearGradientBlackPiecesBorder"
       id="linearGradient15581"
       gradientUnits="userSpaceOnUse"
       x1="643.26831"
       y1="95.337822"
       x2="735.92004"
       y2="95.337822"
       gradientTransform="matrix(1.0000063,0,0,1.0000063,-0.00378,-8.7714142e-6)" />
    <linearGradient
       inkscape:collect="always"
       xlink:href="#linearGradientBlackPieces"
       id="linearGradient15584"
       gradientUnits="userSpaceOnUse"
       gradientTransform="matrix(0.22857144,0,0,0.22857144,600,-8.7714142e-6)"
       x1="229.48785"
       y1="640.76947"
       x2="615.77783"
       y2="730.46149" />
    <linearGradient
       inkscape:collect="always"
       xlink:href="#linearGradientBlackPiecesBorder"
       id="linearGradient15586"
       gradientUnits="userSpaceOnUse"
       x1="662.91516"
       y1="158.72688"
       x2="731.09845"
       y2="158.72688"
       gradientTransform="matrix(1.0000063,0,0,1.0000063,-0.00378,-8.7714142e-6)" />
    <linearGradient
       inkscape:collect="always"
       xlink:href="#linearGradientBlackPieces"
       id="linearGradient15589"
       gradientUnits="userSpaceOnUse"
       gradientTransform="matrix(0.22857144,0,0,0.22857144,600,-8.7714142e-6)"
       x1="706.30969"
       y1="193.79158"
       x2="602.51648"
       y2="612.50507" />
    <linearGradient
       inkscape:collect="always"
       xlink:href="#linearGradientBlackPiecesBorder"
       id="linearGradient15591"
       gradientUnits="userSpaceOnUse"
       x1="697.80658"
       y1="89.994812"
       x2="747.742"
       y2="89.994812"
       gradientTransform="matrix(1.0000063,0,0,1.0000063,-0.00378,-8.7714142e-6)" />
    <linearGradient
       inkscape:collect="always"
       xlink:href="#linearGradientBlackPieces"
       id="linearGradient15641"
       gradientUnits="userSpaceOnUse"
       gradientTransform="matrix(0.16437029,1.1302757e-4,-0.00204311,0.16893829,1102.9193,20.4518)"
       x1="241.75385"
       y1="401.27609"
       x2="522.97559"
       y2="519.06158" />
    <linearGradient
       inkscape:collect="always"
       xlink:href="#linearGradientBlackPiecesBorder"
       id="linearGradient15643"
       gradientUnits="userSpaceOnUse"
       gradientTransform="translate(0,-200)"
       x1="1159.5165"
       y1="297.8815"
       x2="1178.6918"
       y2="297.8815" />
    <linearGradient
       inkscape:collect="always"
       xlink:href="#linearGradientBlackPieces"
       id="linearGradient15646"
       gradientUnits="userSpaceOnUse"
       gradientTransform="matrix(0.22387292,0.04610674,-0.04610674,0.22387292,1027.3988,35.02322)"
       x1="456.672"
       y1="496.70807"
       x2="790.85327"
       y2="285.25974" />
    <linearGradient
       inkscape:collect="always"
       xlink:href="#linearGradientBlackPiecesBorder"
       id="linearGradient15648"
       gradientUnits="userSpaceOnUse"
       gradientTransform="translate(0,-200)"
       x1="1116.9076"
       y1="346.82153"
       x2="1171.1093"
       y2="346.82153" />
    <linearGradient
       inkscape:collect="always"
       xlink:href="#linearGradientBlackPieces"
       id="linearGradient15661"
       gradientUnits="userSpaceOnUse"
       gradientTransform="matrix(0.07483657,-0.03798697,0.02784731,0.06327954,1091.6156,73.77449)"
       x1="307.02979"
       y1="442.26321"
       x2="576.54529"
       y2="444.9863" />
    <linearGradient
       inkscape:collect="always"
       xlink:href="#linearGradientBlackPiecesBorder"
       id="linearGradient15663"
       gradientUnits="userSpaceOnUse"
       gradientTransform="translate(0,-200)"
       x1="1120.0306"
       y1="282.81598"
       x2="1140.408"
       y2="282.81598" />
    <linearGradient
       inkscape:collect="always"
       xlink:href="#linearGradientBlackPieces"
       id="linearGradient15785"
       gradientUnits="userSpaceOnUse"
       x1="331.08029"
       y1="435"
       x2="572.87866"
       y2="529.0235" />
    <linearGradient
       inkscape:collect="always"
       xlink:href="#linearGradientBlackPiecesBorder"
       id="linearGradient15787"
       gradientUnits="userSpaceOnUse"
       x1="296.55371"
       y1="435"
       x2="550.11298"
       y2="435" />
  </defs>
  <sodipodi:namedview
     id="base"
     pagecolor="#ffffff"
     bordercolor="#666666"
     borderopacity="1.0"
     gridtolerance="10000"
     guidetolerance="10"
     objecttolerance="10"
     inkscape:pageopacity="0.0"
     inkscape:pageshadow="2"
     inkscape:zoom="0.56915012"
     inkscape:cx="864.59299"
     inkscape:cy="275.32269"
     inkscape:document-units="px"
     inkscape:current-layer="BlackPieces"
     showgrid="false"
     inkscape:window-width="1920"
     inkscape:window-height="1137"
     inkscape:window-x="-8"
     inkscape:window-y="-8"
     showguides="false"
     inkscape:window-maximized="1"
     inkscape:document-rotation="0">
    <inkscape:grid
       type="xygrid"
       id="grid5039"
       originx="-743.1786"
       originy="-711.58728" />
  </sodipodi:namedview>
  <metadata
     id="metadata2727">
    <rdf:RDF>
      <cc:Work
         rdf:about="">
        <dc:format>image/svg+xml</dc:format>
        <dc:type
           rdf:resource="http://purl.org/dc/dcmitype/StillImage" />
        <dc:title></dc:title>
      </cc:Work>
    </rdf:RDF>
  </metadata>
  <g
     inkscape:label="BlackPieces"
     inkscape:groupmode="layer"
     id="BlackPieces"
     transform="translate(522.7266,144.07448)">
    <g
       id="BlackBishop"
       transform="translate(-1122.7266,-144.07447)">
      <rect
         y="-8.7714143e-06"
         x="600"
         height="200.00002"
         width="200.00002"
         id="rect3532"
         style="fill:none;stroke:none" />
      <path
         sodipodi:nodetypes="ccsss"
         id="path9790"
         d="m 699.63576,49.570115 c 2.47308,-4.17302 8.95019,-11.540435 15.62922,-15.371943 8.28185,7.784208 19.57487,25.913335 25.16109,43.334027 4.3538,13.57739 5.25671,19.678129 5.48338,34.182521 0.22668,14.50438 -7.40135,28.79221 -12.08341,34.07785"
         style="fill:url(#linearGradient15589);fill-opacity:1;fill-rule:evenodd;stroke:url(#linearGradient15591);stroke-width:3.65714;stroke-linecap:round;stroke-linejoin:round;stroke-miterlimit:4;stroke-dasharray:none;stroke-opacity:1"
         inkscape:connector-curvature="0" />
      <path
         sodipodi:nodetypes="cccscc"
         id="path9792"
         d="m 729.25016,157.04188 c 1.38027,-12.22151 -67.22774,-11.31942 -64.42223,0.6871 2.26677,5.00281 0.47896,11.4366 0.47896,11.4366 0,0 15.83487,-2.24695 33.45899,-1.96695 17.62412,0.28002 29.55199,1.6774 29.55199,1.6774 0,0 -0.44798,-8.23262 0.93229,-11.83415 z"
         style="fill:url(#linearGradient15584);fill-opacity:1;fill-rule:evenodd;stroke:url(#linearGradient15586);stroke-width:3.65714;stroke-linecap:round;stroke-linejoin:round;stroke-miterlimit:4;stroke-dasharray:none;stroke-opacity:1"
         inkscape:connector-curvature="0" />
      <path
         sodipodi:nodetypes="csscscc"
         id="path9786"
         d="m 663.87068,155.95066 c -5.20925,-1.84795 -9.00165,-9.24249 -12.28799,-13.95878 -5.24562,-7.52812 -8.33831,-23.18378 -5.26619,-40.73935 3.07213,-17.555567 19.76846,-51.478735 36.86548,-66.52637 20.83702,15.047635 34.27476,37.797126 44.87973,68.11034 5.67522,16.22203 8.49209,33.97462 3.28283,52.58617 -12.15493,-2.50794 -53.31428,-4.88687 -67.47386,0.52799 z"
         style="fill:url(#linearGradient15579);fill-opacity:1;fill-rule:evenodd;stroke:url(#linearGradient15581);stroke-width:3.65714;stroke-linecap:round;stroke-linejoin:round;stroke-miterlimit:4;stroke-dasharray:none;stroke-opacity:1"
         inkscape:connector-curvature="0" />
      <path
         sodipodi:nodetypes="csss"
         id="path12426"
         d="m 680.09809,31.707124 c 2.85251,-4.844739 -4.50992,-7.935602 -0.65876,-11.31926 2.16269,-1.900157 5.86256,-2.090257 7.93989,0.374469 2.99515,3.553696 -5.19882,6.63662 -1.16731,10.897601"
         style="fill:url(#linearGradient15574);fill-opacity:1;fill-rule:evenodd;stroke:url(#linearGradient15576);stroke-width:3.65714;stroke-linecap:round;stroke-linejoin:round;stroke-miterlimit:4;stroke-dasharray:none;stroke-opacity:1"
         inkscape:connector-curvature="0" />
      <path
         sodipodi:nodetypes="cssss"
         id="path13305"
         d="m 699.74397,162.82256 c -2.17892,-0.58828 -4.13767,0.44725 -4.93659,-0.21476 -0.98036,-0.81235 -0.92296,-4.19213 -0.2739,-5.05008 0.55496,-0.73356 7.68718,-0.82513 8.38705,-0.14934 0.65242,0.62893 -0.0189,4.7234 -0.62337,5.75943"
         style="fill:none;stroke:url(#linearGradient15571);stroke-width:3.65714;stroke-linecap:round;stroke-linejoin:round;stroke-miterlimit:4;stroke-dasharray:none;stroke-opacity:1"
         inkscape:connector-curvature="0" />
      <path
         id="path18555"
         d="m 687.15715,79.671424 c -2.61208,0.414251 -3.91212,3.278245 -3.58511,5.707013 -0.045,2.076336 0.86451,4.751529 -0.84347,6.378701 -2.31052,0.768723 -4.81096,-0.193961 -7.16527,-0.395208 -1.93832,-0.1771 -4.27577,-0.909831 -5.99901,0.338066 -1.31897,1.562455 0.22173,3.923461 1.92143,4.45 3.41781,1.486779 7.47558,0.711268 10.76429,2.471429 1.13526,1.047316 0.9031,2.871425 1.25,4.264285 1.06913,8.29763 1.01265,16.82705 3.52142,24.86429 0.65668,1.76462 1.68241,4.21295 3.87857,4.22857 1.69536,-0.58013 1.48132,-2.83199 1.57143,-4.28571 -0.20534,-9.11358 -2.73457,-17.99682 -3.13571,-27.09286 -0.0451,-0.895481 0.035,-2.019286 1.19286,-2.114289 4.10561,-1.181656 8.90265,0.132752 12.63571,-2.364286 1.53308,-0.830759 2.81271,-3.93038 0.32857,-4.335715 -4.37871,-0.644439 -8.80472,1.242763 -13.15714,0.421429 -1.3474,-0.477036 -1.2294,-2.342197 -1.38572,-3.514286 -0.25509,-2.761218 0.58401,-5.700293 -0.46428,-8.335715 -0.26287,-0.459659 -0.79112,-0.752151 -1.32857,-0.685714 z"
         style="fill:url(#linearGradient15566);fill-opacity:1;fill-rule:evenodd;stroke:url(#linearGradient15568);stroke-width:3.65714;stroke-linecap:round;stroke-linejoin:round;stroke-miterlimit:4;stroke-dasharray:none;stroke-opacity:1"
         inkscape:connector-curvature="0" />
      <path
         sodipodi:nodetypes="csssssssss"
         id="path5000"
         d="m 672.65542,183.60888 c 12.75959,-0.14292 18.9024,-7.40146 24.55023,-7.41003 5.64784,-0.009 10.8007,7.2328 24.53757,7.25691 7.37046,0.0129 46.17117,0.78733 44.01473,-5.09378 -2.15638,-5.88111 -26.66058,2.01679 -34.86539,-2.16602 -4.29474,-2.18945 -5.55472,-2.70835 -11.11038,-3.55005 -14.98719,-2.27064 -30.31065,-2.18012 -43.86266,-0.0859 -6.03322,0.93234 -8.48726,1.97054 -11.88523,4.25765 -5.71575,3.84714 -29.79279,-4.15201 -31.68783,1.46771 -1.89502,5.61974 24.8043,5.49712 40.30896,5.32346 z"
         style="fill:url(#linearGradient15561);fill-opacity:1;fill-rule:evenodd;stroke:url(#linearGradient15563);stroke-width:3.65714;stroke-linecap:round;stroke-linejoin:round;stroke-miterlimit:4;stroke-dasharray:none;stroke-opacity:1"
         inkscape:connector-curvature="0" />
      <path
         id="path5875"
         d="m 745.30001,20.835706 c -4.70532,0.0451 -8.21547,3.906819 -10.16705,7.832047 -1.29109,2.492668 -3.56778,4.307326 -4.83295,6.796526 -0.26622,1.499325 1.87191,1.987869 3,1.664285 2.75386,-0.582731 4.93531,-2.759885 5.86528,-5.376478 1.10356,-2.694302 3.59551,-4.813961 6.54901,-5.009236 2.90063,-0.509955 5.58003,1.770158 6.16428,4.542857 0.84429,2.906627 0.46231,6.332846 -1.87858,8.442858 -3.65372,3.832471 -9.19591,5.547494 -12.27142,9.992857 -16.87919,33.309355 -33.73271,66.640308 -50.38525,100.064468 -5.91165,12.12292 -12.15817,24.10908 -17.33618,36.56412 -0.40285,1.55401 -1.61197,3.27714 -0.96429,4.89285 1.02162,0.79382 2.30836,-0.43381 3.19286,-0.97143 3.64051,-3.32308 5.65874,-8.01742 8.07143,-12.25 10.16578,-19.72331 19.69309,-39.77213 29.58769,-59.63428 10.74342,-21.690553 21.48757,-43.388078 32.46231,-64.958584 3.10474,-4.595265 8.99767,-6.134712 12.47878,-10.379435 2.21678,-2.433147 3.63519,-5.654388 3.27837,-8.991995 -0.22871,-5.553797 -3.44458,-11.564379 -9.19286,-12.885715 -1.17966,-0.298962 -2.40003,-0.390238 -3.62143,-0.335715 z"
         style="fill:url(#linearGradient15556);fill-opacity:1;fill-rule:evenodd;stroke:url(#linearGradient15558);stroke-width:3.65714;stroke-linecap:round;stroke-linejoin:round;stroke-miterlimit:4;stroke-dasharray:none;stroke-opacity:1"
         inkscape:connector-curvature="0" />
      <path
         style="fill:url(#linearGradient15551);fill-opacity:1;fill-rule:evenodd;stroke:url(#linearGradient15553);stroke-width:3.65714;stroke-linecap:round;stroke-linejoin:round;stroke-miterlimit:4;stroke-dasharray:none;stroke-opacity:1"
         d="m 711.93732,30.817396 c 2.8525,-4.844738 -4.50993,-7.935603 -0.65878,-11.31926 2.16269,-1.900156 5.86257,-2.090256 7.9399,0.37447 2.99515,3.553695 -5.19883,6.636618 -1.16731,10.897599"
         id="path3155"
         sodipodi:nodetypes="csss"
         inkscape:connector-curvature="0" />
    </g>
  </g>
  <g
     inkscape:groupmode="layer"
     id="WhitePieces"
     inkscape:label="WhitePieces"
     transform="translate(522.7266,144.07448)" />
</svg>
