<?xml version="1.0" encoding="UTF-8" standalone="no"?>
<svg
   xmlns:dc="http://purl.org/dc/elements/1.1/"
   xmlns:cc="http://creativecommons.org/ns#"
   xmlns:rdf="http://www.w3.org/1999/02/22-rdf-syntax-ns#"
   xmlns:svg="http://www.w3.org/2000/svg"
   xmlns="http://www.w3.org/2000/svg"
   xmlns:xlink="http://www.w3.org/1999/xlink"
   xmlns:sodipodi="http://sodipodi.sourceforge.net/DTD/sodipodi-0.dtd"
   xmlns:inkscape="http://www.inkscape.org/namespaces/inkscape"
   width="200.00002"
   height="200.00002"
   id="svg2722"
   sodipodi:version="0.32"
   inkscape:version="1.0.1 (3bc2e813f5, 2020-09-07)"
   version="1.0"
   sodipodi:docname="wb.svg"
   inkscape:output_extension="org.inkscape.output.svg.inkscape">
  <defs
     id="defs2724">
    <linearGradient
       id="linearGradientWhitePiecesBorder">
      <stop
         style="stop-color:#000000;stop-opacity:1;"
         offset="0"
         id="stop7935" />
      <stop
         style="stop-color:#000000;stop-opacity:1;"
         offset="1"
         id="stop7937" />
    </linearGradient>
    <linearGradient
       id="linearGradientWhitePieces">
      <stop
         id="stop7929"
         offset="0"
         style="stop-color:#ede3de;stop-opacity:1;" />
      <stop
         id="stop7931"
         offset="1"
         style="stop-color:#8a6737;stop-opacity:1;" />
    </linearGradient>
    <linearGradient
       id="linearGradientBlackPiecesBorder">
      <stop
         style="stop-color:#808080;stop-opacity:1;"
         offset="0"
         id="stop7192" />
      <stop
         style="stop-color:#808080;stop-opacity:1;"
         offset="1"
         id="stop7194" />
    </linearGradient>
    <linearGradient
       id="linearGradientBlackPieces">
      <stop
         id="stop2268"
         offset="0"
         style="stop-color:#000e1c;stop-opacity:1;" />
      <stop
         id="stop2270"
         offset="1"
         style="stop-color:#50506f;stop-opacity:1;" />
    </linearGradient>
    <linearGradient
       inkscape:collect="always"
       xlink:href="#linearGradientWhitePieces"
       id="linearGradient15168"
       gradientUnits="userSpaceOnUse"
       gradientTransform="matrix(0.16437029,1.1302757e-4,-0.00204311,0.16893829,1102.9193,220.4518)"
       x1="241.75385"
       y1="401.27609"
       x2="522.97559"
       y2="519.06158" />
    <linearGradient
       inkscape:collect="always"
       xlink:href="#linearGradientWhitePiecesBorder"
       id="linearGradient15170"
       gradientUnits="userSpaceOnUse"
       x1="1159.5165"
       y1="297.8815"
       x2="1178.6918"
       y2="297.8815" />
    <linearGradient
       inkscape:collect="always"
       xlink:href="#linearGradientWhitePieces"
       id="linearGradient15173"
       gradientUnits="userSpaceOnUse"
       gradientTransform="matrix(0.22387292,0.04610674,-0.04610674,0.22387292,1027.3988,235.02322)"
       x1="456.672"
       y1="496.70807"
       x2="790.85327"
       y2="285.25974" />
    <linearGradient
       inkscape:collect="always"
       xlink:href="#linearGradientWhitePiecesBorder"
       id="linearGradient15175"
       gradientUnits="userSpaceOnUse"
       x1="1116.9076"
       y1="346.82153"
       x2="1171.1093"
       y2="346.82153" />
    <linearGradient
       inkscape:collect="always"
       xlink:href="#linearGradientWhitePieces"
       id="linearGradient15188"
       gradientUnits="userSpaceOnUse"
       gradientTransform="matrix(0.07483657,-0.03798697,0.02784731,0.06327954,1091.6156,273.77449)"
       x1="307.02979"
       y1="442.26321"
       x2="576.54529"
       y2="444.9863" />
    <linearGradient
       inkscape:collect="always"
       xlink:href="#linearGradientWhitePiecesBorder"
       id="linearGradient15190"
       gradientUnits="userSpaceOnUse"
       x1="1120.0306"
       y1="282.81598"
       x2="1140.408"
       y2="282.81598" />
    <linearGradient
       inkscape:collect="always"
       xlink:href="#linearGradientWhitePieces"
       id="linearGradient15309"
       gradientUnits="userSpaceOnUse"
       gradientTransform="matrix(0.22857144,0,0,0.22857144,631.83922,199.11026)"
       x1="321.15759"
       y1="90.161285"
       x2="395.43152"
       y2="128.46291" />
    <linearGradient
       inkscape:collect="always"
       xlink:href="#linearGradientWhitePiecesBorder"
       id="linearGradient15311"
       gradientUnits="userSpaceOnUse"
       x1="708.30731"
       y1="24.432459"
       x2="721.72052"
       y2="24.432459"
       gradientTransform="matrix(1.0000063,0,0,1.0000063,-0.00378,199.99999)" />
    <linearGradient
       inkscape:collect="always"
       xlink:href="#linearGradientWhitePieces"
       id="linearGradient15314"
       gradientUnits="userSpaceOnUse"
       x1="729.02667"
       y1="125.66114"
       x2="739.4967"
       y2="133.16115"
       gradientTransform="matrix(1.0000063,0,0,1.0000063,-0.00378,199.99999)" />
    <linearGradient
       inkscape:collect="always"
       xlink:href="#linearGradientWhitePiecesBorder"
       id="linearGradient15316"
       gradientUnits="userSpaceOnUse"
       x1="667.02667"
       y1="106.16114"
       x2="759.9967"
       y2="106.16114"
       gradientTransform="matrix(1.0000063,0,0,1.0000063,-0.00378,199.99999)" />
    <linearGradient
       inkscape:collect="always"
       xlink:href="#linearGradientWhitePieces"
       id="linearGradient15319"
       gradientUnits="userSpaceOnUse"
       gradientTransform="matrix(0.22857144,0,0,0.22857144,600,199.99999)"
       x1="155.78476"
       y1="666.80823"
       x2="733.56958"
       y2="841.04077" />
    <linearGradient
       inkscape:collect="always"
       xlink:href="#linearGradientWhitePiecesBorder"
       id="linearGradient15321"
       gradientUnits="userSpaceOnUse"
       x1="630.422"
       y1="177.31451"
       x2="767.672"
       y2="177.31451"
       gradientTransform="matrix(1.0000063,0,0,1.0000063,-0.00378,199.99999)" />
    <linearGradient
       inkscape:collect="always"
       xlink:href="#linearGradientWhitePieces"
       id="linearGradient15324"
       gradientUnits="userSpaceOnUse"
       x1="667.23889"
       y1="115.81965"
       x2="659.72015"
       y2="118.31965"
       gradientTransform="matrix(1.0000063,0,0,1.0000063,-0.00378,199.99999)" />
    <linearGradient
       inkscape:collect="always"
       xlink:href="#linearGradientWhitePiecesBorder"
       id="linearGradient15326"
       gradientUnits="userSpaceOnUse"
       x1="667.23889"
       y1="105.81965"
       x2="706.72015"
       y2="105.81965"
       gradientTransform="matrix(1.0000063,0,0,1.0000063,-0.00378,199.99999)" />
    <linearGradient
       inkscape:collect="always"
       xlink:href="#linearGradientWhitePiecesBorder"
       id="linearGradient15329"
       gradientUnits="userSpaceOnUse"
       x1="692.22754"
       y1="160.05824"
       x2="705.01599"
       y2="160.05824"
       gradientTransform="matrix(1.0000063,0,0,1.0000063,-0.00378,199.99999)" />
    <linearGradient
       inkscape:collect="always"
       xlink:href="#linearGradientWhitePieces"
       id="linearGradient15332"
       gradientUnits="userSpaceOnUse"
       gradientTransform="matrix(0.22857144,0,0,0.22857144,600,199.99999)"
       x1="334.55096"
       y1="110.78522"
       x2="393.23401"
       y2="127.35208" />
    <linearGradient
       inkscape:collect="always"
       xlink:href="#linearGradientWhitePiecesBorder"
       id="linearGradient15334"
       gradientUnits="userSpaceOnUse"
       x1="676.46832"
       y1="25.32218"
       x2="689.88147"
       y2="25.32218"
       gradientTransform="matrix(1.0000063,0,0,1.0000063,-0.00378,199.99999)" />
    <linearGradient
       inkscape:collect="always"
       xlink:href="#linearGradientWhitePieces"
       id="linearGradient15337"
       gradientUnits="userSpaceOnUse"
       gradientTransform="matrix(0.22857144,0,0,0.22857144,600,199.99999)"
       x1="192.30013"
       y1="446.01318"
       x2="613.59027"
       y2="649.5235" />
    <linearGradient
       inkscape:collect="always"
       xlink:href="#linearGradientWhitePiecesBorder"
       id="linearGradient15339"
       gradientUnits="userSpaceOnUse"
       x1="643.26831"
       y1="95.337822"
       x2="735.92004"
       y2="95.337822"
       gradientTransform="matrix(1.0000063,0,0,1.0000063,-0.00378,199.99999)" />
    <linearGradient
       inkscape:collect="always"
       xlink:href="#linearGradientWhitePieces"
       id="linearGradient15342"
       gradientUnits="userSpaceOnUse"
       gradientTransform="matrix(0.22857144,0,0,0.22857144,600,199.99999)"
       x1="229.48785"
       y1="640.76947"
       x2="615.77783"
       y2="730.46149" />
    <linearGradient
       inkscape:collect="always"
       xlink:href="#linearGradientWhitePiecesBorder"
       id="linearGradient15344"
       gradientUnits="userSpaceOnUse"
       x1="662.91516"
       y1="158.72688"
       x2="731.09845"
       y2="158.72688"
       gradientTransform="matrix(1.0000063,0,0,1.0000063,-0.00378,199.99999)" />
    <linearGradient
       inkscape:collect="always"
       xlink:href="#linearGradientWhitePieces"
       id="linearGradient15347"
       gradientUnits="userSpaceOnUse"
       gradientTransform="matrix(0.22857144,0,0,0.22857144,600,199.99999)"
       x1="706.30969"
       y1="193.79158"
       x2="602.51648"
       y2="612.50507" />
    <linearGradient
       inkscape:collect="always"
       xlink:href="#linearGradientWhitePiecesBorder"
       id="linearGradient15349"
       gradientUnits="userSpaceOnUse"
       x1="697.80658"
       y1="89.994812"
       x2="747.742"
       y2="89.994812"
       gradientTransform="matrix(1.0000063,0,0,1.0000063,-0.00378,199.99999)" />
    <linearGradient
       inkscape:collect="always"
       xlink:href="#linearGradientWhitePieces"
       id="linearGradient15356"
       gradientUnits="userSpaceOnUse"
       x1="331.08029"
       y1="435"
       x2="572.87866"
       y2="529.0235" />
    <linearGradient
       inkscape:collect="always"
       xlink:href="#linearGradientWhitePiecesBorder"
       id="linearGradient15358"
       gradientUnits="userSpaceOnUse"
       x1="296.55371"
       y1="435"
       x2="550.11298"
       y2="435" />
    <linearGradient
       inkscape:collect="always"
       xlink:href="#linearGradientBlackPieces"
       id="linearGradient15641"
       gradientUnits="userSpaceOnUse"
       gradientTransform="matrix(0.16437029,1.1302757e-4,-0.00204311,0.16893829,1102.9193,20.4518)"
       x1="241.75385"
       y1="401.27609"
       x2="522.97559"
       y2="519.06158" />
    <linearGradient
       inkscape:collect="always"
       xlink:href="#linearGradientBlackPiecesBorder"
       id="linearGradient15643"
       gradientUnits="userSpaceOnUse"
       gradientTransform="translate(0,-200)"
       x1="1159.5165"
       y1="297.8815"
       x2="1178.6918"
       y2="297.8815" />
    <linearGradient
       inkscape:collect="always"
       xlink:href="#linearGradientBlackPieces"
       id="linearGradient15646"
       gradientUnits="userSpaceOnUse"
       gradientTransform="matrix(0.22387292,0.04610674,-0.04610674,0.22387292,1027.3988,35.02322)"
       x1="456.672"
       y1="496.70807"
       x2="790.85327"
       y2="285.25974" />
    <linearGradient
       inkscape:collect="always"
       xlink:href="#linearGradientBlackPiecesBorder"
       id="linearGradient15648"
       gradientUnits="userSpaceOnUse"
       gradientTransform="translate(0,-200)"
       x1="1116.9076"
       y1="346.82153"
       x2="1171.1093"
       y2="346.82153" />
    <linearGradient
       inkscape:collect="always"
       xlink:href="#linearGradientBlackPieces"
       id="linearGradient15661"
       gradientUnits="userSpaceOnUse"
       gradientTransform="matrix(0.07483657,-0.03798697,0.02784731,0.06327954,1091.6156,73.77449)"
       x1="307.02979"
       y1="442.26321"
       x2="576.54529"
       y2="444.9863" />
    <linearGradient
       inkscape:collect="always"
       xlink:href="#linearGradientBlackPiecesBorder"
       id="linearGradient15663"
       gradientUnits="userSpaceOnUse"
       gradientTransform="translate(0,-200)"
       x1="1120.0306"
       y1="282.81598"
       x2="1140.408"
       y2="282.81598" />
    <linearGradient
       inkscape:collect="always"
       xlink:href="#linearGradientBlackPieces"
       id="linearGradient15785"
       gradientUnits="userSpaceOnUse"
       x1="331.08029"
       y1="435"
       x2="572.87866"
       y2="529.0235" />
    <linearGradient
       inkscape:collect="always"
       xlink:href="#linearGradientBlackPiecesBorder"
       id="linearGradient15787"
       gradientUnits="userSpaceOnUse"
       x1="296.55371"
       y1="435"
       x2="550.11298"
       y2="435" />
  </defs>
  <sodipodi:namedview
     id="base"
     pagecolor="#ffffff"
     bordercolor="#666666"
     borderopacity="1.0"
     gridtolerance="10000"
     guidetolerance="10"
     objecttolerance="10"
     inkscape:pageopacity="0.0"
     inkscape:pageshadow="2"
     inkscape:zoom="0.56915012"
     inkscape:cx="-19.566901"
     inkscape:cy="-136.37902"
     inkscape:document-units="px"
     inkscape:current-layer="WhitePieces"
     showgrid="false"
     inkscape:window-width="1920"
     inkscape:window-height="1137"
     inkscape:window-x="-8"
     inkscape:window-y="-8"
     showguides="false"
     inkscape:window-maximized="1"
     inkscape:document-rotation="0">
    <inkscape:grid
       type="xygrid"
       id="grid5039"
       originx="-2843.5917"
       originy="-1334.1297" />
  </sodipodi:namedview>
  <metadata
     id="metadata2727">
    <rdf:RDF>
      <cc:Work
         rdf:about="">
        <dc:format>image/svg+xml</dc:format>
        <dc:type
           rdf:resource="http://purl.org/dc/dcmitype/StillImage" />
        <dc:title></dc:title>
      </cc:Work>
    </rdf:RDF>
  </metadata>
  <g
     inkscape:label="BlackPieces"
     inkscape:groupmode="layer"
     id="BlackPieces"
     transform="translate(-280.22497,-525.04603)" />
  <g
     inkscape:groupmode="layer"
     id="WhitePieces"
     inkscape:label="WhitePieces"
     transform="translate(-280.22497,-525.04603)">
    <g
       id="WhiteBishop"
       transform="translate(-319.77503,325.04605)">
      <rect
         style="fill:none;stroke:none"
         id="rect7539"
         width="200.00002"
         height="200.00002"
         x="600"
         y="199.99998" />
      <path
         style="fill:url(#linearGradient15347);fill-opacity:1;fill-rule:evenodd;stroke:url(#linearGradient15349);stroke-width:3.65714;stroke-linecap:round;stroke-linejoin:round;stroke-miterlimit:4;stroke-dasharray:none;stroke-opacity:1"
         d="m 699.63576,249.57011 c 2.47308,-4.17302 8.95019,-11.54043 15.62922,-15.37194 8.28185,7.78421 19.57487,25.91334 25.16109,43.33403 4.3538,13.57739 5.25671,19.67813 5.48338,34.18251 0.22668,14.50439 -7.40135,28.79222 -12.08341,34.07786"
         id="path7541"
         sodipodi:nodetypes="ccsss"
         inkscape:connector-curvature="0" />
      <path
         style="fill:url(#linearGradient15342);fill-opacity:1;fill-rule:evenodd;stroke:url(#linearGradient15344);stroke-width:3.65714;stroke-linecap:round;stroke-linejoin:round;stroke-miterlimit:4;stroke-dasharray:none;stroke-opacity:1"
         d="m 729.25016,357.04188 c 1.38027,-12.22151 -67.22774,-11.31942 -64.42223,0.6871 2.26677,5.00281 0.47896,11.4366 0.47896,11.4366 0,0 15.83487,-2.24695 33.45899,-1.96695 17.62412,0.28002 29.55199,1.67739 29.55199,1.67739 0,0 -0.44798,-8.23261 0.93229,-11.83414 z"
         id="path7543"
         sodipodi:nodetypes="cccscc"
         inkscape:connector-curvature="0" />
      <path
         style="fill:url(#linearGradient15337);fill-opacity:1;fill-rule:evenodd;stroke:url(#linearGradient15339);stroke-width:3.65714;stroke-linecap:round;stroke-linejoin:round;stroke-miterlimit:4;stroke-dasharray:none;stroke-opacity:1"
         d="m 663.87068,355.95066 c -5.20925,-1.84795 -9.00165,-9.2425 -12.28799,-13.95879 -5.24562,-7.52811 -8.33831,-23.18377 -5.26619,-40.73934 3.07213,-17.55557 19.76846,-51.47874 36.86548,-66.52637 20.83702,15.04763 34.27476,37.79712 44.87973,68.11034 5.67522,16.22203 8.49209,33.97462 3.28283,52.58617 -12.15493,-2.50794 -53.31428,-4.88687 -67.47386,0.52799 z"
         id="path7545"
         sodipodi:nodetypes="csscscc"
         inkscape:connector-curvature="0" />
      <path
         style="fill:url(#linearGradient15332);fill-opacity:1;fill-rule:evenodd;stroke:url(#linearGradient15334);stroke-width:3.65714;stroke-linecap:round;stroke-linejoin:round;stroke-miterlimit:4;stroke-dasharray:none;stroke-opacity:1"
         d="m 680.09809,231.70712 c 2.85251,-4.84474 -4.50992,-7.9356 -0.65876,-11.31926 2.16269,-1.90015 5.86256,-2.09025 7.93989,0.37447 2.99515,3.5537 -5.19882,6.63662 -1.16731,10.8976"
         id="path7547"
         sodipodi:nodetypes="csss"
         inkscape:connector-curvature="0" />
      <path
         style="fill:none;stroke:url(#linearGradient15329);stroke-width:3.65714;stroke-linecap:round;stroke-linejoin:round;stroke-miterlimit:4;stroke-dasharray:none;stroke-opacity:1"
         d="m 699.74397,362.82256 c -2.17892,-0.58828 -4.13767,0.44725 -4.93659,-0.21477 -0.98036,-0.81234 -0.92296,-4.19212 -0.2739,-5.05007 0.55496,-0.73356 7.68718,-0.82513 8.38705,-0.14934 0.65242,0.62893 -0.0189,4.7234 -0.62337,5.75943"
         id="path7549"
         sodipodi:nodetypes="cssss"
         inkscape:connector-curvature="0" />
      <path
         style="fill:url(#linearGradient15324);fill-opacity:1;fill-rule:evenodd;stroke:url(#linearGradient15326);stroke-width:3.65714;stroke-linecap:round;stroke-linejoin:round;stroke-miterlimit:4;stroke-dasharray:none;stroke-opacity:1"
         d="m 687.15715,279.67142 c -2.61208,0.41425 -3.91212,3.27825 -3.58511,5.70702 -0.045,2.07633 0.86451,4.75152 -0.84347,6.3787 -2.31052,0.76872 -4.81096,-0.19396 -7.16527,-0.39521 -1.93832,-0.1771 -4.27577,-0.90983 -5.99901,0.33806 -1.31897,1.56246 0.22173,3.92347 1.92143,4.45 3.41781,1.48678 7.47558,0.71127 10.76429,2.47143 1.13526,1.04732 0.9031,2.87143 1.25,4.26429 1.06913,8.29763 1.01265,16.82704 3.52142,24.86428 0.65668,1.76463 1.68241,4.21296 3.87857,4.22858 1.69536,-0.58013 1.48132,-2.83199 1.57143,-4.28572 -0.20534,-9.11357 -2.73457,-17.99681 -3.13571,-27.09286 -0.0451,-0.89547 0.035,-2.01928 1.19286,-2.11428 4.10561,-1.18166 8.90265,0.13275 12.63571,-2.36429 1.53308,-0.83076 2.81271,-3.93038 0.32857,-4.33571 -4.37871,-0.64444 -8.80472,1.24276 -13.15714,0.42143 -1.3474,-0.47704 -1.2294,-2.3422 -1.38572,-3.51429 -0.25509,-2.76122 0.58401,-5.70029 -0.46428,-8.33571 -0.26287,-0.45966 -0.79112,-0.75215 -1.32857,-0.68572 z"
         id="path7551"
         inkscape:connector-curvature="0" />
      <path
         style="fill:url(#linearGradient15319);fill-opacity:1;fill-rule:evenodd;stroke:url(#linearGradient15321);stroke-width:3.65714;stroke-linecap:round;stroke-linejoin:round;stroke-miterlimit:4;stroke-dasharray:none;stroke-opacity:1"
         d="m 672.65542,383.60888 c 12.75959,-0.14292 18.9024,-7.40146 24.55023,-7.41003 5.64784,-0.009 10.8007,7.2328 24.53757,7.25691 7.37046,0.0129 46.17117,0.78733 44.01473,-5.09378 -2.15638,-5.88111 -26.66058,2.01679 -34.86539,-2.16602 -4.29474,-2.18945 -5.55472,-2.70835 -11.11038,-3.55005 -14.98719,-2.27064 -30.31065,-2.18013 -43.86266,-0.0859 -6.03322,0.93234 -8.48726,1.97054 -11.88523,4.25764 -5.71575,3.84715 -29.79279,-4.152 -31.68783,1.46772 -1.89502,5.61974 24.8043,5.49712 40.30896,5.32346 z"
         id="path7553"
         sodipodi:nodetypes="csssssssss"
         inkscape:connector-curvature="0" />
      <path
         style="fill:url(#linearGradient15314);fill-opacity:1;fill-rule:evenodd;stroke:url(#linearGradient15316);stroke-width:3.65714;stroke-linecap:round;stroke-linejoin:round;stroke-miterlimit:4;stroke-dasharray:none;stroke-opacity:1"
         d="m 745.30001,220.83571 c -4.70532,0.0451 -8.21547,3.90681 -10.16705,7.83204 -1.29109,2.49267 -3.56778,4.30733 -4.83295,6.79653 -0.26622,1.49932 1.87191,1.98787 3,1.66428 2.75386,-0.58273 4.93531,-2.75988 5.86528,-5.37647 1.10356,-2.69431 3.59551,-4.81397 6.54901,-5.00924 2.90063,-0.50996 5.58003,1.77016 6.16428,4.54286 0.84429,2.90662 0.46231,6.33284 -1.87858,8.44285 -3.65372,3.83247 -9.19591,5.5475 -12.27142,9.99286 -16.87919,33.30936 -33.73271,66.64031 -50.38525,100.06447 -5.91165,12.12292 -12.15817,24.10908 -17.33618,36.56411 -0.40285,1.55401 -1.61197,3.27714 -0.96429,4.89285 1.02162,0.79383 2.30836,-0.4338 3.19286,-0.97142 3.64051,-3.32308 5.65874,-8.01742 8.07143,-12.25 10.16578,-19.72331 19.69309,-39.77213 29.58769,-59.63428 10.74342,-21.69055 21.48757,-43.38808 32.46231,-64.95859 3.10474,-4.59526 8.99767,-6.13471 12.47878,-10.37943 2.21678,-2.43315 3.63519,-5.65439 3.27837,-8.992 -0.22871,-5.55379 -3.44458,-11.56437 -9.19286,-12.88571 -1.17966,-0.29896 -2.40003,-0.39024 -3.62143,-0.33571 z"
         id="path7555"
         inkscape:connector-curvature="0" />
      <path
         sodipodi:nodetypes="csss"
         id="path7557"
         d="m 711.93732,230.8174 c 2.8525,-4.84474 -4.50993,-7.93561 -0.65878,-11.31927 2.16269,-1.90015 5.86257,-2.09025 7.9399,0.37448 2.99515,3.55369 -5.19883,6.63661 -1.16731,10.89759"
         style="fill:url(#linearGradient15309);fill-opacity:1;fill-rule:evenodd;stroke:url(#linearGradient15311);stroke-width:3.65714;stroke-linecap:round;stroke-linejoin:round;stroke-miterlimit:4;stroke-dasharray:none;stroke-opacity:1"
         inkscape:connector-curvature="0" />
    </g>
  </g>
</svg>
