<?xml version="1.0" encoding="UTF-8" standalone="no"?>
<svg
   xmlns:dc="http://purl.org/dc/elements/1.1/"
   xmlns:cc="http://creativecommons.org/ns#"
   xmlns:rdf="http://www.w3.org/1999/02/22-rdf-syntax-ns#"
   xmlns:svg="http://www.w3.org/2000/svg"
   xmlns="http://www.w3.org/2000/svg"
   xmlns:sodipodi="http://sodipodi.sourceforge.net/DTD/sodipodi-0.dtd"
   xmlns:inkscape="http://www.inkscape.org/namespaces/inkscape"
   version="1.0"
   width="300.000000pt"
   height="300.000000pt"
   viewBox="0 0 300.000000 300.000000"
   preserveAspectRatio="xMidYMid meet"
   id="svg2"
   inkscape:version="0.92.5 (2060ec1f9f, 2020-04-08)"
   sodipodi:docname="bk.svg">
  <defs
     id="defs12" />
  <sodipodi:namedview
     pagecolor="#ffffff"
     bordercolor="#666666"
     borderopacity="1"
     objecttolerance="10"
     gridtolerance="10"
     guidetolerance="10"
     inkscape:pageopacity="0"
     inkscape:pageshadow="2"
     inkscape:window-width="1374"
     inkscape:window-height="949"
     id="namedview10"
     showgrid="false"
     inkscape:zoom="0.92103265"
     inkscape:cx="-131.97893"
     inkscape:cy="146.35085"
     inkscape:window-x="66"
     inkscape:window-y="16"
     inkscape:window-maximized="0"
     inkscape:current-layer="svg2"
     inkscape:pagecheckerboard="true" />
  <metadata
     id="metadata4">
Created by potrace 1.12, written by Peter Selinger 2001-2015
<rdf:RDF>
  <cc:Work
     rdf:about="">
    <dc:format>image/svg+xml</dc:format>
    <dc:type
       rdf:resource="http://purl.org/dc/dcmitype/StillImage" />
    <dc:title />
  </cc:Work>
</rdf:RDF>
</metadata>
  <path
     style="display:inline;fill:#e3dfd3;fill-opacity:1;stroke-width:0.71125984"
     d="M 182.64514,0.48834676 C 158.21352,1.8198575 133.2992,-1.0253661 108.92643,0.95677126 98.343796,1.6894572 98.763524,6.3617647 98.46404,27.610811 98.325915,38.575155 98.873373,50.100076 98.248413,60.868545 74.939458,44.08241 39.704466,44.121306 18.383725,64.247135 -3.9656323,84.712323 -6.940946,119.75618 3.7757615,146.84212 c 7.4383375,19.94336 23.2631625,34.73052 37.6259335,49.71937 6.851422,7.68606 4.39078,19.0721 6.299587,28.51533 3.219791,15.49897 0.736492,33.65567 7.673751,48.17118 12.627491,10.94629 30.58634,13.26878 46.443757,16.22032 45.80525,8.46716 95.78347,4.66318 139.17176,-12.75764 10.87894,-8.40111 8.0379,-25.35358 9.96201,-37.44167 0.48795,-11.79497 5.29241,-23.31525 3.98262,-35.04579 1.91062,-10.03702 12.58635,-14.12347 18.27656,-21.66036 16.31887,-16.56392 29.96965,-37.79002 30.55872,-61.72016 3.55463,-30.481975 -16.29006,-63.955656 -47.38486,-70.238944 -18.38113,-4.477263 -38.34261,-0.135797 -53.31645,10.616426 0.0214,-17.79387 2.30412,-49.193072 -1.56157,-53.9454855 -3.8314,-5.4910809 -12.51797,-6.92927824 -18.86244,-6.78634974 z"
     id="path847"
     inkscape:connector-curvature="0"
     sodipodi:nodetypes="ccccccccccccccccccc" />
  <path
     sodipodi:nodetypes="sccccccsccccccccccccccccccccccccccccccccccccccccccscsssccccsccccccssccccccscsssccccccsccccccccccccccccccccccccccccccccccccccscccccccccsccsccccccccccccccccccsccscccccccccccccccscccc"
     inkscape:connector-curvature="0"
     id="path872"
     d="m 117.84968,11.592815 c -6.58046,-0.01714 -8.29291,1.136666 -8.34181,7.756566 0.19823,9.877473 0.0762,22.454037 0.12963,31.579432 -0.0453,6.358038 -0.0472,11.118084 -0.0931,14.041843 0.11669,7.226495 -0.0337,14.674483 -0.92444,15.565153 -1.48031,1.480233 -3.401,0.946204 -7.47697,-2.619195 C 98.30441,75.084686 95.194809,72.583901 89.730409,68.731168 87.529481,66.466688 82.990512,64.392238 78.73309,63.054093 74.961634,61.868689 65.677429,59.622071 62.3494,59.63339 49.090949,59.333953 42.951596,61.977114 38.033799,64.392228 29.999725,68.375057 24.218688,73.093705 17.947935,81.325017 15.1501,86.11675 13.002113,89.551636 11.248033,97.38263 9.3041509,105.07378 8.860834,114.9909 9.4438579,125.3312 c 1.4716721,10.17006 3.3924461,17.50748 7.6489011,24.28945 2.227664,3.41028 5.910812,9.30814 9.536133,14.18577 3.86666,5.07522 10.281992,12.97482 16.780517,18.99382 11.847028,10.04427 12.744539,9.74149 13.517147,18.4947 0.126318,1.16734 0.858361,6.58035 1.601381,12.03276 1.838631,13.98422 3.590906,27.12534 4.965791,38.90948 0.339145,2.74838 0.915317,7.11924 1.743641,11.14894 0.646016,3.03869 8.4288,5.5374 16.813376,7.7737 12.437058,2.91539 21.914005,5.23899 30.305125,6.16734 4.92026,0.73734 11.61336,1.8161 17.96162,2.2979 6.67499,0.52657 18.24764,0.93653 25.94435,0.66019 5.13099,-0.13365 13.96828,-0.32114 22.7406,-1.39505 8.40508,-0.87518 18.19642,-3.04133 27.73169,-4.58811 7.61256,-1.68397 16.79609,-4.25956 23.42197,-6.52148 2.56318,-1.06266 5.92786,-2.44005 6.33692,-4.46219 l 1.43964,-8.01169 c 1.01258,-8.11798 1.96721,-15.75389 3.19461,-24.62322 0.56347,-6.67622 1.58016,-13.40818 2.39633,-20.18276 0.01,0.005 0.0208,0.009 0.0308,0.0139 -0.009,-0.008 -0.02,-0.015 -0.0292,-0.0231 0.26576,-0.61419 0.98619,-7.45954 1.35813,-10.07292 0.40529,-2.51088 0.51445,-4.54904 1.45041,-6.48457 0.74957,-1.71988 10.36845,-10.28574 12.70613,-12.58616 3.56262,-3.55804 7.91208,-8.0882 12.17703,-12.68306 6.55073,-9.02019 12.3268,-16.61128 15.47006,-22.74521 2.72155,-4.58668 4.55239,-11.35227 5.17105,-17.74644 0.35385,-0.42633 0.69238,-5.40192 0.75213,-11.05576 0.0547,-8.92918 -0.93543,-18.540348 -4.87266,-28.768359 -3.15776,-7.016302 -10.96254,-15.592956 -16.0515,-18.575361 -3.89164,-3.008257 -15.59752,-9.890448 -27.93779,-9.854516 -6.74724,0.06997 -15.38124,1.112075 -23.2251,3.903662 -7.02045,3.135347 -10.76921,5.919248 -14.67488,8.85784 -3.90567,2.938588 -4.47001,3.667505 -6.18772,5.269477 -2.82569,2.37577 -4.08061,4.125233 -5.89014,3.254865 -0.91453,-1.101933 -1.6752,-3.294972 -1.58028,-9.134962 -0.1012,-13.836907 -0.0977,-30.756671 0.0551,-50.789685 -0.28334,-6.457661 0.38529,-9.553501 -7.944,-9.564809 -9.23545,-0.26998 -21.11356,0.155988 -30.68789,0.281469 -9.57436,0.125482 -20.28359,-0.286619 -27.66248,-0.156884 -3.23347,-0.106951 -5.90761,-0.241916 -8.1011,-0.247632 z m 52.17794,15.999971 c 1.58415,0.13428 3.00187,1.822093 5.06567,4.032425 2.83842,3.049453 3.09842,3.614958 -0.95976,7.646174 -1.71288,1.646721 -5.81369,5.534139 -7.73196,7.550464 -4.35521,4.227104 -7.35093,5.933726 -2.19815,10.258318 3.31569,3.051593 7.50552,7.130009 11.16342,11.148047 2.80645,2.633484 2.52851,3.918427 -1.33505,7.588918 -3.1939,3.034276 -4.35649,3.036253 -8.64639,-1.496558 -2.63629,-2.538325 -5.40229,-5.402791 -8.73046,-8.322585 -1.72202,-1.866717 -4.18532,-3.561101 -5.58028,-3.48632 -2.15781,0.115686 -5.61114,3.439803 -9.38114,7.35153 -2.11154,2.209606 -4.31145,4.18394 -7.10596,6.536864 -2.80124,2.449385 -3.48872,1.483768 -6.73527,-1.087428 -1.857,-1.470711 -3.08459,-2.867082 -3.08459,-4.025896 0,-2.002478 1.87249,-3.433156 4.89953,-6.242363 4.42209,-4.721675 10.71419,-9.806528 10.50974,-11.961694 -0.40966,-2.54244 -6.38714,-8.26202 -11.90163,-13.337494 -1.34445,-1.379415 -3.85854,-3.537938 -3.8787,-4.264925 -0.36588,-1.477499 5.54219,-7.508015 7.58187,-7.517571 1.21531,-0.153235 2.89841,1.266563 4.28315,2.651237 1.61176,1.453979 2.65035,2.613142 4.34882,4.206002 1.28504,1.352846 4.33814,4.504535 6.13611,6.251417 3.37465,3.278761 4.67766,3.729568 5.84418,2.271313 2.08739,-1.659637 4.74762,-4.313231 8.04497,-7.570421 5.17173,-5.108743 7.88169,-8.307465 9.39188,-8.179454 z m -19.80286,61.861343 c 3.70573,-0.136529 7.07939,0.97687 9.01011,2.204079 3.86143,2.454417 6.71795,6.535194 6.68298,12.649222 -0.48183,6.26301 -3.17217,8.73576 -6.69991,11.24649 -3.92556,2.30402 -8.71427,2.32435 -11.96938,1.60555 -1.97381,-0.43587 -6.56368,-2.62407 -8.47178,-5.8076 -3.98828,-5.98163 -2.49819,-12.787902 0.44759,-16.599032 3.25714,-3.776094 7.29466,-5.16218 11.00039,-5.298709 z M 75.01861,104.9208 c 2.247572,0.045 4.561413,0.2287 6.795267,0.55678 4.106544,1.07614 9.18503,3.87476 12.899927,6.53687 2.685966,1.7909 9.894686,10.76159 12.610756,14.9302 3.70701,6.378 8.16066,14.2579 11.5018,20.68879 2.07912,4.00009 3.59689,6.84403 5.77244,11.07114 3.04705,6.43101 4.70124,8.22395 5.6417,9.65918 0.81657,1.29706 8.36057,-0.0908 11.6089,-0.26187 4.53349,-0.34849 12.08332,-0.35203 17.92679,-0.0717 10.94515,0.52503 10.49142,2.40628 13.54168,-2.61474 3.9783,-6.61618 8.14823,-15.52426 12.49695,-23.21587 1.9803,-3.65694 5.00743,-9.30653 7.53663,-13.1164 3.96865,-6.96459 11.12449,-15.51648 16.01496,-18.68722 8.72602,-5.84003 17.56304,-6.53632 27.50825,-4.81772 5.15946,1.41518 9.79553,6.34461 11.87094,10.01554 2.81893,4.67167 3.19153,10.50097 2.67165,16.63286 -0.47849,9.67537 -9.63804,22.80392 -18.2663,32.86274 -3.31403,4.39471 -9.92465,11.80686 -9.94681,13.46595 0.0406,2.05813 1.59061,1.00078 3.6572,1.84491 3.75561,1.4151 3.92006,3.03935 4.19436,5.20508 0.1867,1.47396 -1.15175,4.06046 -1.66267,5.32372 -1.80202,3.90017 -5.97445,2.09913 -12.39174,0.11139 -9.37756,-3.29596 -22.96023,-6.3231 -29.30966,-7.42215 -9.64924,-2.18013 -24.59863,-3.45763 -35.37344,-3.51737 -11.81587,0.10938 -26.67438,0.88943 -39.7826,4.0021 -8.72461,1.72539 -19.991482,4.23995 -28.93753,7.57507 -4.341432,1.1864 -8.184519,2.62631 -10.406694,0.32761 -1.192036,-1.36125 -2.531739,-4.06574 -2.108881,-8.54197 0.81374,-2.24355 3.991985,-3.05014 5.046626,-3.29305 2.985825,-0.68653 2.93206,-1.33134 1.444267,-3.62428 -1.213496,-2.10091 -2.367398,-3.06715 -5.283329,-6.92754 -4.018911,-4.94152 -10.63755,-13.08414 -13.479785,-17.45881 -3.091779,-4.84002 -6.36838,-10.50994 -7.976514,-16.20066 -0.677105,-2.39795 -1.135773,-14.39524 0.893628,-18.75542 2.266869,-4.69269 8.508958,-10.08594 13.301368,-11.35876 2.685015,-0.68611 6.243917,-0.99944 9.989864,-0.92439 z m 152.16324,13.41452 c -1.99997,0.0685 -3.51817,0.2873 -5.89091,1.25531 -4.5686,1.79134 -9.92909,6.18149 -13.52764,11.43475 -2.84938,4.56136 -10.36951,16.2262 -14.80169,23.56394 -1.72409,3.03051 -3.13992,5.70062 -5.14642,9.30583 -1.29686,3.37966 -2.64319,7.37536 3.06151,7.96373 4.12953,0.66293 8.38979,1.76908 12.14037,2.8196 1.81202,0.46773 4.48086,0.8734 6.16937,0.17384 1.66774,-0.9594 6.21473,-5.93227 8.05609,-9.02159 3.20175,-4.21285 5.7417,-8.10466 8.78862,-12.60616 2.22578,-3.20595 4.10278,-6.22387 6.13038,-9.57458 2.5403,-4.19799 5.5951,-10.6699 5.42064,-15.63772 -0.27263,-4.8941 -1.65724,-7.56016 -5.58611,-8.93054 -1.12552,-0.39258 -2.81424,-0.81493 -4.81421,-0.74641 z m -153.322952,-0.0288 c -1.442401,0.0458 -2.790691,0.30721 -3.932887,0.78443 -3.729299,1.55812 -5.309497,3.29464 -5.52019,9.19621 -0.14954,4.18864 1.946302,9.63225 3.463769,11.90786 2.122928,4.20708 5.006185,8.88793 8.914745,14.38418 2.492358,3.52771 3.42998,5.04916 6.218486,9.23929 2.654386,3.79177 3.571336,4.83973 8.648655,10.40207 2.573897,2.64286 10.862114,-0.82369 14.936334,-1.56577 3.12505,-0.69788 6.81946,-0.61052 8.12571,-2.36404 1.18848,-3.32582 -0.34183,-6.03832 -2.86852,-10.41899 -2.32748,-4.33912 -6.83236,-11.82906 -9.91913,-16.36524 -0.65552,-1.37707 -6.574514,-11.03708 -9.909868,-15.427 -3.292364,-3.62079 -6.924346,-6.41474 -10.695848,-8.19492 -2.393748,-1.12988 -5.057262,-1.65449 -7.461256,-1.57808 z m 5.706109,88.28469 c 1.57322,0.006 6.190518,0.1559 9.046693,0.47526 11.4247,1.27751 10.989056,3.4572 -0.699662,12.45146 -4.834505,3.20873 -7.993517,6.76739 -10.58241,4.68107 -1.130505,-1.05014 -2.764651,-10.99671 -2.504788,-13.53579 0.212666,-2.07791 0.02052,-4.09206 4.740167,-4.072 z m 141.789323,-0.0985 c 5.25725,0.028 5.22385,1.31986 5.51894,2.87737 0.61227,3.23165 -1.08647,13.29407 -2.38526,14.82888 -1.38712,1.712 -4.23914,0.36028 -13.36811,-6.91728 -7.99613,-6.56804 -9.99633,-8.96074 3.73177,-10.43568 1.13747,-0.0317 5.72638,-0.35477 6.50266,-0.35329 z m -69.88824,20.63954 c 7.58655,0.027 14.48888,0.28197 19.69828,0.69313 10.41876,0.8223 23.90135,2.83763 30.98876,4.78863 7.08743,1.95099 14.50664,4.22261 16.68814,5.0185 3.25214,1.18649 4.03191,2.72169 3.91026,8.25973 -0.11828,5.38527 -3.13058,4.90911 -5.57583,4.10962 -8.16062,-2.81704 -20.20112,-6.11256 -26.49789,-7.32299 -4.36008,-1.01208 -12.28704,-2.16308 -18.32082,-2.60087 -9.31876,-0.56933 -16.72143,-0.87006 -27.08631,-0.60107 -6.28694,0.0287 -17.29054,0.51144 -24.40174,1.50271 -9.73497,1.38274 -20.44609,3.90966 -30.47643,7.11905 -9.978932,3.6092 -10.997705,3.32518 -11.124981,-2.89468 -0.127267,-6.21986 0.826403,-6.40402 4.969559,-8.09187 2.768409,-0.89712 9.100457,-2.74454 17.582662,-5.0534 8.8551,-1.93597 16.93997,-3.0848 27.60864,-4.11591 6.5329,-0.60873 14.45115,-0.83755 22.0377,-0.81058 z"
     style="display:inline;fill:#000000;fill-opacity:1;stroke-width:0.71125984" />
  <path
     style="display:inline;fill:#e3dfd3;fill-opacity:1;stroke-width:0.6665436"
     d="m 142.37491,210.87662 c -2.4845,-1.70564 -11.6594,-5.22275 -11.67916,-7.02811 -0.15095,-1.44068 4.4832,-2.88443 6.95942,-4.10328 4.64926,-1.97808 8.44533,-3.66074 12.06948,-4.79418 2.40567,-0.72464 5.5695,0.68098 7.21277,1.4853 3.5405,1.27701 6.47247,2.72698 9.97564,4.13668 9.12169,3.27879 4.18766,4.81795 -0.37563,7.06248 -4.81601,2.65723 -11.99101,5.72346 -12.63701,6.05673 -4.00221,1.20066 -7.38725,-1.16284 -11.52551,-2.81562 z"
     id="path827"
     inkscape:connector-curvature="0"
     sodipodi:nodetypes="ccccccccc" />
</svg>
