<?xml version="1.0" encoding="UTF-8" standalone="no"?>
<svg
   xmlns:dc="http://purl.org/dc/elements/1.1/"
   xmlns:cc="http://creativecommons.org/ns#"
   xmlns:rdf="http://www.w3.org/1999/02/22-rdf-syntax-ns#"
   xmlns:svg="http://www.w3.org/2000/svg"
   xmlns="http://www.w3.org/2000/svg"
   xmlns:sodipodi="http://sodipodi.sourceforge.net/DTD/sodipodi-0.dtd"
   xmlns:inkscape="http://www.inkscape.org/namespaces/inkscape"
   version="1.0"
   width="300.000000pt"
   height="300.000000pt"
   viewBox="0 0 300.000000 300.000000"
   preserveAspectRatio="xMidYMid meet"
   id="svg2"
   inkscape:version="0.92.5 (2060ec1f9f, 2020-04-08)"
   sodipodi:docname="bp.svg">
  <defs
     id="defs12" />
  <sodipodi:namedview
     pagecolor="#ffffff"
     bordercolor="#666666"
     borderopacity="1"
     objecttolerance="10"
     gridtolerance="10"
     guidetolerance="10"
     inkscape:pageopacity="0"
     inkscape:pageshadow="2"
     inkscape:window-width="1612"
     inkscape:window-height="861"
     id="namedview10"
     showgrid="false"
     inkscape:zoom="1.0452968"
     inkscape:cx="11.418106"
     inkscape:cy="71.887516"
     inkscape:window-x="78"
     inkscape:window-y="78"
     inkscape:window-maximized="0"
     inkscape:current-layer="svg2"
     inkscape:pagecheckerboard="true" />
  <metadata
     id="metadata4">
Created by potrace 1.12, written by Peter Selinger 2001-2015
<rdf:RDF>
  <cc:Work
     rdf:about="">
    <dc:format>image/svg+xml</dc:format>
    <dc:type
       rdf:resource="http://purl.org/dc/dcmitype/StillImage" />
    <dc:title />
  </cc:Work>
</rdf:RDF>
</metadata>
  <path
     style="display:inline;fill:#e3dfd3;fill-opacity:1;stroke-width:0.7173627"
     d="m 147.80046,15.529452 c -23.38039,-0.900391 -45.48485,22.839605 -39.32783,46.263574 -0.27219,1.912059 3.58448,5.983329 0.0389,5.93291 -23.127472,8.615859 -46.35169,24.946218 -53.162407,49.913964 -2.506386,10.16603 6.769673,21.59569 17.44942,19.39299 13.521539,0.4989 27.135906,0.11511 40.606147,0.69441 -4.63363,18.73097 -19.136359,34.88282 -17.841797,55.05322 -0.210116,9.14576 2.078209,18.24307 5.902147,26.5125 -27.392288,5.4326 -53.263785,27.62311 -55.982226,56.48878 0.268707,8.92156 10.271503,14.30518 18.352439,12.2807 60.870447,-0.0735 121.964427,1.94402 182.700007,-1.04652 9.22583,-5.59712 7.06498,-18.48631 2.87109,-26.66426 -8.92559,-21.50447 -30.22909,-36.16648 -52.38106,-40.90079 10.88636,-21.23019 5.92267,-47.21606 -6.179,-66.8042 -2.32575,-4.89341 -4.86005,-9.96908 -5.48994,-15.38085 17.76459,-0.54383 41.20849,0.36488 54.35665,-1.12791 8.53678,-9.14035 2.86379,-25.74743 -3.57521,-34.67259 C 225.34947,84.605037 207.17732,74.343609 188.96572,67.256308 196.1514,47.297479 184.1722,22.156567 162.9249,17.416171 158.02189,15.995069 152.89493,15.454558 147.8004,15.529452 Z"
     id="path827"
     inkscape:connector-curvature="0"
     sodipodi:nodetypes="ccccccccccccccccccccc" />
  <path
     sodipodi:nodetypes="csccsssccscscscsccccccccsssccccccccccscsssccsccscccccc"
     inkscape:connector-curvature="0"
     id="path840"
     d="m 56.596479,276.80107 c -0.601196,-0.95348 1.684925,-10.42401 3.493776,-14.47338 0.850589,-1.90416 3.955489,-6.7985 5.494596,-8.84148 4.474838,-5.42378 7.077637,-7.49208 12.194597,-11.70963 4.369891,-3.06617 9.043967,-5.92312 15.406258,-8.47488 7.242444,-2.90476 10.509584,-3.67356 18.311164,-4.30887 9.72766,-0.79216 9.71068,-0.77056 5.31938,-6.76454 -5.00064,-6.8257 -6.19293,-8.9626 -7.91808,-14.19131 -2.2903,-6.94164 -2.6515,-10.62269 -1.91927,-19.55961 0.75536,-9.21903 2.68543,-14.91782 9.9657,-29.4249 3.19278,-6.36212 6.0362,-12.43452 6.31873,-13.49424 1.01457,-3.80567 2.19425,-14.75352 1.81473,-16.84144 l -0.38729,-2.13067 -28.187579,-0.186 c -19.335344,-0.12758 -28.492074,-0.4337 -29.157158,-0.97474 -2.051651,-1.669 -1.321045,-7.58793 2.109865,-14.00764 2.698954,-5.05013 4.078595,-7.29888 11.143651,-14.166525 3.882459,-3.62249 7.780994,-7.014688 11.946329,-9.550659 3.458253,-2.14526 17.580652,-9.310376 24.550792,-11.239789 2.01881,-0.705771 4.11511,-1.46594 5.9415,-2.076023 1.52079,-0.479153 1.64828,-0.900556 0.43395,-3.065138 -0.47867,-0.853222 -0.63503,-1.460979 -1.17153,-2.665349 -1.7067,-4.431817 -3.49158,-9.587981 -3.68254,-14.132391 -0.0323,-8.17419 3.41522,-15.461066 8.77341,-20.140227 5.33828,-4.622476 8.82041,-5.708984 14.33058,-6.812712 4.9928,-1.000095 11.24792,-1.292159 16.58846,0.03363 5.73634,1.424046 8.06482,2.637833 12.68649,6.657799 3.83153,3.332701 5.09668,5.613711 7.06223,9.727772 1.05801,2.731158 2.13361,6.213358 2.00316,10.592655 -0.20285,3.70998 -1.33942,7.872997 -2.50705,10.544109 -0.87352,2.514852 -1.53586,4.090304 -2.46487,6.07686 -1.21433,2.164582 -0.99844,2.829442 0.4045,3.300834 2.0756,0.621596 4.2595,1.331611 6.08881,1.968175 7.11085,1.990172 21.3084,9.007147 24.57239,11.310846 4.07016,2.904167 9.16375,6.542188 12.16446,9.406638 6.98371,6.688035 8.0603,8.713175 10.98741,14.425955 3.54733,6.92326 4.25219,12.33206 2.14422,14.04687 -0.66508,0.54104 -9.93967,0.61147 -29.27501,0.73905 l -28.18757,0.186 -0.3873,2.13067 c -0.39126,2.1525 0.82906,13.52015 1.79578,16.72815 0.28799,0.9557 3.13738,7.01105 6.33197,13.45633 3.19459,6.44526 6.60168,14.11567 7.57132,17.04534 1.88937,5.70855 3.22438,17.43575 2.63924,23.1841 -0.57881,5.6863 -4.03879,14.95462 -7.02223,18.93913 -1.43603,1.9179 -5.2319,6.99286 -5.78171,8.71624 -0.45162,1.41561 -0.0233,1.75918 8.13552,2.43401 4.68823,0.38777 12.27927,1.99449 14.27185,2.70478 8.09856,2.88687 15.46594,7.13884 19.61333,10.22453 5.20457,3.86318 9.07237,8.14821 12.89755,12.89743 1.34564,1.68158 3.52723,5.23875 4.44059,7.19187 1.88015,4.02048 4.22175,13.55785 3.57899,14.57727 -0.56755,0.90013 -184.910486,0.88532 -185.478091,-0.0149 z"
     style="display:inline;fill:#000000;fill-opacity:1;stroke-width:0.7173627" />
</svg>
