<?xml version="1.0" encoding="UTF-8" standalone="no"?>
<svg
   xmlns:dc="http://purl.org/dc/elements/1.1/"
   xmlns:cc="http://creativecommons.org/ns#"
   xmlns:rdf="http://www.w3.org/1999/02/22-rdf-syntax-ns#"
   xmlns:svg="http://www.w3.org/2000/svg"
   xmlns="http://www.w3.org/2000/svg"
   xmlns:sodipodi="http://sodipodi.sourceforge.net/DTD/sodipodi-0.dtd"
   xmlns:inkscape="http://www.inkscape.org/namespaces/inkscape"
   version="1.0"
   width="300.000000pt"
   height="300.000000pt"
   viewBox="0 0 300.000000 300.000000"
   preserveAspectRatio="xMidYMid meet"
   id="svg2"
   inkscape:version="0.92.5 (2060ec1f9f, 2020-04-08)"
   sodipodi:docname="bq.svg">
  <defs
     id="defs12" />
  <sodipodi:namedview
     pagecolor="#ffffff"
     bordercolor="#666666"
     borderopacity="1"
     objecttolerance="10"
     gridtolerance="10"
     guidetolerance="10"
     inkscape:pageopacity="0"
     inkscape:pageshadow="2"
     inkscape:window-width="1211"
     inkscape:window-height="966"
     id="namedview10"
     showgrid="false"
     inkscape:zoom="1.0475576"
     inkscape:cx="-11.411232"
     inkscape:cy="99.994365"
     inkscape:window-x="73"
     inkscape:window-y="23"
     inkscape:window-maximized="0"
     inkscape:current-layer="svg2"
     inkscape:pagecheckerboard="true" />
  <metadata
     id="metadata4">
Created by potrace 1.12, written by Peter Selinger 2001-2015
<rdf:RDF>
  <cc:Work
     rdf:about="">
    <dc:format>image/svg+xml</dc:format>
    <dc:type
       rdf:resource="http://purl.org/dc/dcmitype/StillImage" />
    <dc:title />
  </cc:Work>
</rdf:RDF>
</metadata>
  <path
     style="display:inline;fill:#e3dfd3;fill-opacity:1;stroke-width:0.6653524"
     d="M 193.30587,6.9806385 C 176.10808,7.1019311 159.47822,22.06489 160.74728,39.881029 c 0.0926,6.679393 2.17637,13.244141 5.50391,19.003906 -5.22324,13.63134 -11.48481,26.841206 -16.56836,40.527347 C 144.39595,85.220532 137.0539,71.382431 133.49923,56.800951 145.86728,38.051826 132.26616,8.0318473 109.1672,7.1759511 94.930206,4.8713951 80.975829,14.324646 76.001186,27.488451 70.627064,39.555824 73.292209,55.126447 84.05978,63.359544 87.766163,66.732465 82.948053,71.476137 83.41493,75.545373 80.177104,91.730906 76.870025,107.88834 73.542201,124.05681 67.56503,119.96561 61.436419,116.18976 55.977748,111.4279 60.11239,92.545914 40.205529,72.896267 21.352748,78.922044 3.0443174,83.587606 -5.8329588,108.88562 6.649623,123.50798 c 4.027363,5.13215 9.987993,8.23034 15.869141,10.75586 8.500854,26.24189 21.645896,51.32312 24.873047,78.99805 2.554952,19.08097 -0.150254,40.10562 7.851895,58.17176 8.393915,10.07034 23.835941,10.49232 35.862724,14.00975 47.89305,11.99796 100.66278,7.54721 146.88086,-9.57708 11.1072,-6.97095 9.3265,-22.17195 10.51194,-33.61225 2.25268,-26.71628 5.67674,-54.10119 17.80469,-78.43359 3.71398,-9.83396 6.23557,-20.48713 11.40234,-29.53711 17.96618,-4.67937 26.74361,-28.79454 15.63282,-43.81445 -8.31709,-12.887765 -28.23059,-16.624066 -39.88282,-6.226563 -7.92515,6.263122 -12.60909,16.972213 -10.45117,27.019533 -5.72848,4.6869 -12.20379,8.39637 -17.94922,13.12695 C 221.10254,104.94731 216.05515,85.412246 213.48752,65.929857 231.7687,51.952012 228.44959,18.229086 206.4758,9.7111073 202.38664,7.7625708 197.82539,6.8771796 193.30587,6.9806385 Z"
     id="path1390"
     inkscape:connector-curvature="0"
     sodipodi:nodetypes="cccccccccccccccccccccccccccc" />
  <path
     sodipodi:nodetypes="ccsccccccccccccccccccccccccccccccccccccccccccccccscccccccccccccccccccccccscscccccccccccccccccccccccccccccccccccccccccssccccc"
     inkscape:connector-curvature="0"
     style="display:inline;fill:#000000;fill-opacity:1;stroke-width:0.6653524"
     d="m 104.99066,17.542659 c -2.84114,0.06043 -6.425139,0.993724 -8.784669,2.059454 -4.670925,2.109747 -9.13515,7.667202 -10.59375,11.300438 -1.30569,3.252349 -2.384978,8.801009 -1.27881,13.281705 1.131922,4.352098 3.124012,8.407684 7.69629,12.603087 1.897635,1.748226 4.090552,2.623428 4.703617,3.337022 0.704918,1.124595 -0.607455,7.106866 -2.289555,14.130419 -1.23669,5.1637 -2.550667,12.101373 -5.944335,29.310466 -2.048572,9.99741 -4.03746,20.0008 -5.84619,28.22524 -0.660397,4.01597 -1.56864,9.28496 -2.185545,9.57447 -0.744135,0.34921 -5.846672,-3.35993 -12.752931,-8.54585 -2.36502,-1.58437 -7.583643,-5.26758 -9.405762,-6.65846 -3.70887,-2.8624 -9.492592,-5.88979 -12.405762,-8.60697 -2.00696,-1.56492 -2.531106,-2.07726 -0.839355,-6.72519 0.835599,-2.11709 0.757745,-5.5595 0.509765,-7.25074 -0.52951,-3.611228 -2.969812,-7.621883 -5.277832,-10.319386 -4.50605,-4.040191 -8.146084,-4.444707 -11.961914,-4.41963 -5.23513,0 -8.116186,1.210871 -11.288086,4.284528 -3.2295,3.184729 -5.618852,8.383788 -5.607422,12.863978 0.0384,4.44371 1.2606,7.11968 2.86377,10.08185 1.89363,3.49883 7.860157,6.82007 10.097167,7.16909 4.654191,0.73745 6.175008,1.06041 7.753419,6.19428 1.254819,3.57085 3.465784,10.20257 4.458984,13.01609 0.99319,2.81352 2.452881,7.11596 4.16748,11.37129 4.04968,11.75028 8.392972,21.50516 11.937012,31.61426 1.24132,5.02114 2.544082,10.69447 3.357422,17.10352 0.5793,5.75544 1.448413,10.90524 2.459473,19.65234 0.73004,6.80124 2.25973,17.54393 3.37207,26.38769 0.8834,5.62549 1.531238,12.78837 2.923828,15.57568 1.95362,3.19251 6.586018,3.95007 11.142879,5.26148 9.087746,2.84089 17.968303,5.11445 28.371282,6.88501 13.64048,2.94328 28.16357,3.99148 41.12531,4.13707 3.39118,-0.0103 13.80785,0.13915 19.45184,-0.43541 9.66022,-0.46479 18.6266,-1.50595 27.66064,-3.27539 6.85793,-1.12979 13.46927,-2.48853 19.83545,-3.96387 7.18486,-1.85508 19.8878,-5.59333 21.00293,-7.1792 1.92802,-2.39685 2.43914,-6.6478 2.83741,-10.22167 1.83939,-12.39272 2.13258,-16.64108 3.35009,-27.46583 1.21371,-10.531 2.86363,-29.3318 5.98828,-39.41015 1.73682,-6.29678 8.78032,-21.92961 10.7754,-28.24805 2.70639,-7.64987 4.34031,-11.77331 7.09863,-19.74893 0.75942,-2.81328 2.27017,-6.28933 3.31201,-9.6796 1.17747,-2.28507 0.55151,-6.1456 7.14257,-6.6342 4.15767,-0.92858 9.14774,-4.19115 11.50196,-8.54575 0.92436,-1.61363 3.08311,-7.01622 1.9336,-12.85379 -1.74348,-5.64967 -5.50537,-11.782659 -12.36329,-13.315997 -8.3651,-1.870313 -15.49473,0.953527 -19.89258,8.913729 -1.33239,2.679748 -2.42758,5.625178 -1.84423,10.939098 1.48863,5.37002 2.13621,5.37247 0.94921,6.89585 -0.39001,0.73646 -1.93131,1.58288 -4.97461,3.63734 -2.6993,1.82223 -6.38226,4.52967 -9.37793,6.77004 -3.83083,2.88102 -13.95874,10.08827 -16.97607,12.09099 -3.1012,2.17309 -4.50214,3.14839 -4.78271,2.93866 -0.39927,-0.12011 -1.61306,-7.059 -2.74073,-12.17187 -2.31912,-11.49324 -4.51433,-20.84745 -6.95214,-32.637254 -1.97688,-9.889701 -4.21974,-21.158408 -5.87842,-30.049581 -0.68979,-4.881234 -1.5958,-5.868541 1.26269,-7.113153 2.33029,-1.014614 5.9213,-4.461655 8.2295,-8.33876 1.51848,-2.944754 2.88837,-5.419002 3.11425,-11.687161 -0.0378,-10.633665 -7.41769,-17.229961 -10.89844,-19.045243 -3.93504,-1.913392 -5.03735,-3.017901 -10.78857,-3.008013 -5.8291,0.01024 -8.68773,1.243237 -12.21533,3.484855 -5.48714,3.486793 -9.63314,11.061857 -9.88916,16.473589 -0.26303,5.559763 0.5307,12.118924 5.63965,17.526243 1.30698,1.839647 0.50132,5.249577 0.0893,6.341418 -4.52873,9.533846 -6.68456,15.618929 -11.26318,25.985282 -3.85727,9.800126 -6.87088,17.793248 -10.38867,26.195518 -1.90044,4.68259 -5.03529,12.92792 -5.75538,12.89642 -0.75198,0.1144 -4.2864,-8.6512 -5.44629,-11.90662 -3.90054,-10.17441 -7.90647,-20.675213 -11.1914,-28.484017 -3.45004,-7.988938 -5.76388,-13.718287 -8.97802,-22.21372 -1.21208,-2.834885 -1.94723,-4.413519 -2.41114,-5.814503 -0.71346,-1.71745 -0.523,-2.895479 0.85547,-4.357899 2.98308,-3.16474 5.01709,-8.932498 5.01709,-12.313937 0,-3.998282 0.0215,-7.867724 -2.25146,-12.128055 -1.75044,-3.28088 -5.64371,-7.602133 -9.78077,-9.710116 -2.62357,-1.336803 -6.83247,-2.103172 -10.48535,-2.025524 z m 49.32679,150.140221 c 7.8899,-0.0689 15.32635,0.68328 22.74946,1.4694 8.05555,1.18417 12.46128,1.69471 20.38573,3.35281 6.05159,1.40243 11.36429,2.95618 19.35953,4.95459 3.99846,1.44482 8.93846,2.75274 11.26409,4.08945 2.54996,2.29311 0.8405,7.09881 0.14916,8.82894 -1.97065,4.4262 -4.8546,2.85664 -13.39848,0.30004 -7.67892,-2.76504 -18.27233,-5.02755 -29.34674,-7.20875 -11.95926,-2.90663 -44.98606,-3.99076 -60.18903,-1.92149 -8.78426,1.28386 -16.16598,2.72582 -24.2666,4.55566 -9.329097,2.05137 -12.53519,3.11898 -18.888282,5.24033 -3.633683,0.83389 -8.924296,3.76329 -10.791505,-0.23173 -1.000118,-2.38941 -2.457308,-4.70425 -1.255134,-8.12175 0.977911,-2.41865 5.768892,-3.29014 11.597172,-5.24707 2.449493,-0.60108 11.311291,-3.25017 13.572361,-3.63431 11.714688,-2.92748 18.807818,-4.53476 36.397958,-6.02511 7.20932,-0.28079 15.12149,-0.41868 22.66033,-0.40101 z m -75.904325,38.53008 c 1.925209,0.006 4.647943,0.15671 7.768111,0.30007 14.504664,1.45351 11.26966,4.25825 0.801819,12.38462 -6.442183,4.34932 -8.141106,6.20682 -10.452462,4.20682 -0.453466,-0.33666 -1.648248,-7.04523 -2.170216,-10.7266 -0.06197,-3.24507 0.03709,-5.74497 4.052748,-6.16491 z m 146.161795,3.08136 c 0.56263,3.06329 -1.07497,11.16386 -1.75152,13.072 -1.83678,2.82942 -2.22561,2.25713 -12.75812,-4.96565 -10.37744,-7.93027 -8.69676,-9.69995 3.27454,-10.99348 8.0029,-0.39705 10.82357,-0.48976 11.2351,2.88713 z m -74.44442,17.6752 c 7.58655,0.027 14.84286,0.13356 20.05225,0.54472 10.41877,0.8223 23.72015,3.01629 30.80756,4.96728 7.08743,1.951 12.70841,3.18805 14.88992,3.98394 3.25213,1.18649 5.31979,3.3802 5.19814,8.91823 -0.11829,5.38527 -3.27419,5.92322 -5.9739,4.71658 -8.16062,-2.81704 -18.90545,-6.15644 -25.31017,-7.11497 -4.36009,-1.01208 -15.20643,-2.56741 -19.51281,-2.78926 -9.31875,-0.56934 -15.9824,-0.9738 -26.34728,-0.70481 -6.28692,0.0287 -17.29017,0.7563 -24.40136,1.74757 -9.73498,1.38273 -19.75226,3.57159 -29.800199,6.91534 -3.32155,1.10534 -6.755111,2.49033 -7.7545,2.55523 -2.531555,0.16439 -3.734779,-1.55858 -3.855524,-5.70513 -0.127267,-6.21986 2.035223,-7.25414 6.178381,-8.94199 2.768407,-0.89713 7.745545,-1.8606 16.227762,-4.16945 8.8551,-1.93597 16.805,-3.21786 27.47367,-4.24899 6.53291,-0.60873 14.54151,-0.70126 22.12806,-0.67429 z"
     id="path827" />
  <path
     style="display:inline;fill:#e3dfd3;fill-opacity:1;stroke-width:0.6665436"
     d="m 140.25957,210.88351 c -2.4845,-1.70564 -11.6594,-5.22275 -11.67916,-7.02811 -0.15095,-1.44068 4.4832,-2.88443 6.95942,-4.10328 4.64926,-1.97808 8.44533,-3.66074 12.06948,-4.79418 2.40567,-0.72464 5.5695,0.68098 7.21277,1.4853 3.5405,1.27701 6.47247,2.72698 9.97564,4.13668 9.12169,3.27879 4.18766,4.81795 -0.37563,7.06248 -4.81601,2.65723 -11.99101,5.72346 -12.63701,6.05673 -4.00221,1.20066 -7.38725,-1.16284 -11.52551,-2.81562 z"
     id="path827-0"
     inkscape:connector-curvature="0"
     sodipodi:nodetypes="ccccccccc" />
</svg>
