<?xml version="1.0" encoding="UTF-8" standalone="no"?>
<svg
   xmlns:dc="http://purl.org/dc/elements/1.1/"
   xmlns:cc="http://creativecommons.org/ns#"
   xmlns:rdf="http://www.w3.org/1999/02/22-rdf-syntax-ns#"
   xmlns:svg="http://www.w3.org/2000/svg"
   xmlns="http://www.w3.org/2000/svg"
   xmlns:sodipodi="http://sodipodi.sourceforge.net/DTD/sodipodi-0.dtd"
   xmlns:inkscape="http://www.inkscape.org/namespaces/inkscape"
   version="1.0"
   width="300.000000pt"
   height="300.000000pt"
   viewBox="0 0 300.000000 300.000000"
   preserveAspectRatio="xMidYMid meet"
   id="svg2"
   inkscape:version="0.92.5 (2060ec1f9f, 2020-04-08)"
   sodipodi:docname="wk.svg">
  <defs
     id="defs12" />
  <sodipodi:namedview
     pagecolor="#ffffff"
     bordercolor="#666666"
     borderopacity="1"
     objecttolerance="10"
     gridtolerance="10"
     guidetolerance="10"
     inkscape:pageopacity="0"
     inkscape:pageshadow="2"
     inkscape:window-width="1513"
     inkscape:window-height="924"
     id="namedview10"
     showgrid="false"
     inkscape:zoom="1.4235196"
     inkscape:cx="188.98578"
     inkscape:cy="220.21325"
     inkscape:window-x="72"
     inkscape:window-y="10"
     inkscape:window-maximized="0"
     inkscape:current-layer="svg2"
     inkscape:pagecheckerboard="true" />
  <metadata
     id="metadata4">
Created by potrace 1.12, written by Peter Selinger 2001-2015
<rdf:RDF>
  <cc:Work
     rdf:about="">
    <dc:format>image/svg+xml</dc:format>
    <dc:type
       rdf:resource="http://purl.org/dc/dcmitype/StillImage" />
    <dc:title />
  </cc:Work>
</rdf:RDF>
</metadata>
  <path
     style="display:inline;fill:#e3dfd3;fill-opacity:1;stroke-width:0.6902864"
     d="M 110.36119,0.24854974 C 99.732929,0.99849029 95.586342,13.568317 97.758194,22.593821 97.639145,33.710111 97.834004,44.827798 97.656659,55.943666 67.950665,40.821762 26.456417,47.736868 7.3955767,76.381752 -9.6564965,103.95592 -4.5062479,141.19279 14.28005,166.56895 c 8.359612,12.20321 19.804497,21.97489 29.496386,32.85557 3.503429,10.09467 2.097365,21.09298 4.472754,31.45898 1.691942,13.7848 2.580275,28.17289 7.854492,41.08535 12.410454,10.79099 29.889723,10.15491 44.819818,14.84971 46.16198,8.52143 94.62349,6.93338 138.26592,-10.9471 10.50852,-3.876 10.44341,-24.26962 11.49298,-36.29945 1.71442,-13.93457 2.3754,-27.82655 6.25224,-41.32259 22.3938,-19.92221 44.05434,-45.18068 46.63066,-76.34033 2.51602,-26.081967 -9.72519,-55.158649 -34.63974,-66.1664 -20.84392,-10.113455 -46.25061,-9.260599 -66.88009,0.978222 -0.39078,-16.834129 1.43902,-47.3165286 -1.73595,-51.2419998 -4.01419,-7.9918359 -22.65829,-3.9028724 -33.02069,-5.02294291 -18.97605,0.046499 -37.95316,-0.0304311 -56.92764,-0.20741955 z"
     id="path827"
     inkscape:connector-curvature="0"
     sodipodi:nodetypes="cccccccccccccccccc" />
  <path
     style="display:inline;fill:#000000;fill-opacity:1;stroke-width:0.6665436"
     d="m 141.99812,207.57493 c -2.4845,-1.70563 -11.37955,-5.4163 -11.39931,-7.65318 -0.014,-1.68565 4.27157,-3.61393 7.1349,-4.91632 4.59916,-2.09193 8.41427,-4.11876 11.76674,-5.14913 2.89389,-0.72464 4.69436,0.45207 7.14886,1.4573 3.41104,1.44962 6.87278,3.32073 10.13256,4.85069 8.61237,4.04218 4.45989,5.44291 -0.62123,8.16953 -4.81601,2.65723 -12.04993,5.72346 -12.69593,6.05673 -4.00221,1.20066 -6.44469,-0.75048 -11.46659,-2.81562 z"
     id="path827-6"
     inkscape:connector-curvature="0"
     sodipodi:nodetypes="ccsccsccc" />
  <path
     style="display:inline;fill:#000000;fill-opacity:1;stroke-width:0.6902864"
     d="m 104.72262,276.24301 c -9.282945,-1.895 -20.031729,-4.09878 -28.490492,-6.61907 -4.471645,-1.31141 -11.310665,-3.45284 -11.665436,-6.0304 -0.400655,-2.78732 -2.340458,-11.26446 -2.854884,-16.521 -1.112347,-8.84375 -2.939175,-19.12725 -3.669211,-25.9285 -1.011066,-8.74707 -1.290497,-13.21488 -2.278099,-18.69662 -0.725663,-5.77222 0.544966,-9.15246 -6.921343,-16.23399 -2.254426,-2.65442 -6.744995,-5.98698 -12.752351,-12.26765 -4.611066,-4.82086 -15.103838,-18.02972 -17.84067,-22.42518 -3.36961,-5.46149 -6.229399,-9.95203 -8.126523,-19.03326 C 8.7648492,126.13213 8.0195329,116.5725 8.0272515,113.18435 8.7542862,99.069956 10.39823,92.6284 15.720392,83.79371 21.420641,74.75064 32.136794,67.326312 36.55766,65.445907 c 6.268209,-3.490728 14.972769,-5.145511 24.402775,-5.458332 4.818427,-0.117449 13.451711,0.384998 17.544349,1.370527 7.183708,1.957676 14.224711,4.113792 20.614538,8.548001 4.677648,2.863419 9.728938,9.347624 9.556428,1.234983 -0.24727,-3.347214 0.0367,-15.065829 0.0793,-27.880872 0.0885,-26.661487 -0.23826,-30.114198 0.67559,-31.290607 0.96868,-1.054045 5.9752,-0.480874 38.71072,-0.456779 32.73551,0.0241 40.73496,-0.420164 42.06681,0.820289 1.33185,1.240451 1.07462,12.391551 1.03073,22.185045 -0.13586,24.051615 0.0789,28.981215 0.20632,34.670592 0.0441,4.375275 -0.21393,7.78481 3.69358,5.207817 3.07819,-2.398355 5.02035,-3.735199 6.66841,-4.862325 4.09781,-2.802552 5.40927,-3.44382 13.12761,-6.176248 7.60453,-2.86786 14.41809,-3.557241 21.68466,-3.456446 11.08391,0.154906 14.41056,0.652374 21.74832,2.970777 7.34187,2.652572 14.00651,6.476389 21.60193,14.187425 7.19474,8.580382 9.7331,11.778705 12.62874,29.397326 1.08719,8.88558 -0.69454,23.91961 -3.28072,31.45149 -3.13751,10.40789 -11.38616,20.80802 -19.84952,31.25757 -5.50013,5.79126 -9.33424,9.13202 -14.73916,14.42437 -3.54943,2.77496 -6.10234,7.32303 -7.81252,8.80114 -3.12466,10.07834 -4.84987,24.91636 -6.06358,35.44736 -1.21751,10.82476 -1.5116,15.07338 -3.35099,27.4661 -0.39827,3.57388 -0.58007,9.14467 -2.97429,10.46278 -7.05781,2.99049 -13.5474,5.15265 -20.73227,7.00773 -6.36618,1.47535 -13.27259,2.95005 -20.13052,4.07985 -9.10693,1.405 -17.85014,2.71371 -27.50599,3.2616 -5.61946,0.31886 -18.17143,0.30186 -20.97324,0.12684 -12.88807,-0.29294 -26.82254,-1.05761 -40.46302,-4.0009 z m 52.9928,-8.04118 c 22.89964,-1.40443 31.19604,-2.64659 44.36735,-5.35449 4.10731,-0.94922 21.21316,-3.39045 22.28618,-8.95538 0.35759,-3.0358 -6.37107,-5.34416 -12.38399,-7.41726 -11.75954,-3.80735 -17.83771,-4.88005 -28.10119,-6.58281 -10.18785,-1.35682 -26.2606,-2.89754 -36.50614,-2.54224 -19.92547,0.69099 -35.06199,2.88329 -40.12171,4.24924 -4.6545,1.09155 -11.351202,2.49108 -15.563158,3.98674 -7.36323,2.50899 -13.719034,4.78177 -15.148885,7.24011 -1.008166,3.08999 3.152132,4.56181 9.352407,6.87712 10.174234,2.63455 21.071276,4.49083 30.619856,5.91358 12.27882,1.70486 27.3411,2.92808 41.19928,2.58538 z M 84.030738,235.35402 c 7.051423,-2.04204 15.153576,-3.91223 24.453982,-6.02222 10.1606,-2.28185 21.99468,-4.02062 44.2994,-4.28316 9.23156,0.0207 25.78859,1.7846 29.17977,2.21034 6.10597,0.76658 16.3299,3.03991 23.66265,5.10938 6.6751,1.71253 9.01913,2.50801 13.84403,4.11461 6.97069,2.24565 6.38947,1.67271 7.69927,0.34297 0.78285,-0.79479 1.09981,-2.41235 1.09981,-5.61266 0,-3.7942 0.73304,-5.81839 -0.56777,-6.9711 -2.71221,-1.98661 -6.17463,-4.43391 -9.93925,-6.89657 -4.82161,-3.36264 -8.42151,-6.22528 -7.96232,-7.74436 0.62955,-2.74507 7.22478,-3.54666 11.30383,-4.02946 4.78928,-0.6437 7.54282,-1.18597 9.44703,-1.95467 1.93839,-1.15792 3.94849,-10.90758 1.98991,-12.7885 -3.21429,-2.08562 -17.84439,-5.97759 -26.06229,-7.60332 -10.12285,-3.08119 -20.31394,-3.98347 -30.00197,-5.21473 -17.33522,-2.12413 -41.17702,-1.42838 -56.61866,0.35262 -12.49848,1.50206 -29.077108,4.97564 -43.248511,9.25624 -9.225842,2.70037 -9.92245,3.7284 -9.394396,7.17536 0.228898,3.58981 0.384166,6.11288 1.517621,7.73502 1.286916,2.07988 7.46836,2.19298 13.279543,3.20965 4.038985,0.61816 8.201668,0.71911 8.782072,3.54696 0.233258,2.32209 -5.620983,5.95403 -9.090364,8.56417 -3.246515,2.24907 -4.826635,3.59695 -7.921427,5.80007 -2.779045,1.97701 -1.593592,4.13093 -1.342933,6.80332 0.442194,1.76901 0.04731,6.28968 1.525585,7.35473 2.24969,0.28423 6.979998,-1.05133 10.065388,-2.45469 z m 11.990801,-66.18205 c 8.503111,-1.96674 20.464451,-3.61023 29.426481,-4.36284 14.47095,-1.58693 15.42622,-1.74256 16.35719,-2.84421 1.18986,-1.16907 0.22608,-5.83161 -1.00673,-10.59131 -5.43737,-15.88718 -14.07234,-31.40577 -21.58412,-41.45773 C 114.56627,103.20678 108.34945,94.300454 97.254637,85.57469 89.221337,79.40296 82.36727,74.439801 66.546812,73.528968 58.66104,73.506098 50.345486,73.067779 39.583024,80.636731 31.060466,86.546194 27.681844,91.33753 24.253772,99.088949 c -3.78464,14.243201 -3.488792,18.505881 -1.510674,29.163241 1.167458,5.21929 4.575206,13.58689 11.293436,22.12437 7.313105,9.75178 15.67912,16.56663 20.666473,21.77899 2.705977,2.59621 5.83524,5.95267 9.536513,5.0453 7.370118,-1.16219 18.970257,-4.84781 31.782019,-8.02888 z M 250.90579,167.3404 c 8.10948,-8.16566 16.41831,-16.08811 21.53381,-25.33335 4.93463,-7.83916 8.2477,-21.24644 6.87732,-30.81302 -1.20779,-8.11803 -3.34463,-17.3595 -10.0518,-24.17855 -6.16193,-5.796735 -12.64046,-10.697385 -21.77824,-12.537549 -6.67596,-1.624184 -17.92899,-0.921805 -22.89321,0.223362 -10.13242,2.207568 -14.13832,5.642769 -23.584,12.94062 -5.75979,4.910482 -10.0279,9.816698 -14.08149,15.059627 -5.37211,6.56889 -8.52921,11.46224 -14.49335,21.74091 -4.71478,7.8927 -7.54797,15.34512 -10.39262,21.40385 -1.7498,3.51722 -4.41592,14.14571 -2.89706,16.11862 1.21831,1.14878 5.08853,1.77044 9.13385,2.05449 15.3437,1.60331 29.53982,3.49581 43.2263,7.00499 8.15462,1.99482 22.34816,6.78636 26.26299,6.42005 3.54815,-0.25749 9.59865,-6.26262 13.1375,-10.10405 z m -97.39044,-33.21025 c 4.64331,-9.94074 12.83051,-23.64508 19.80403,-33.14942 3.05332,-4.161436 2.0314,-6.237744 -3.08021,-6.258248 -1.68167,-0.0069 -12.07162,-0.05842 -23.08879,-0.114796 -17.85571,-0.0914 -19.1723,-0.61952 -20.88522,1.507331 -1.68479,2.692045 3.60336,6.601913 9.54394,17.146773 2.57398,4.25263 7.31868,11.33767 9.71936,17.31563 5.52112,12.53165 4.3814,11.27163 7.98689,3.55273 z m 16.64077,-51.250536 c 3.02507,0.258512 3.22705,-1.852991 1.04215,-3.480519 -4.61401,-4.399099 -17.4082,-17.706215 -20.12952,-19.19216 -1.75353,-0.974922 -5.81475,3.915352 -8.87818,6.761712 -1.3943,1.295498 -5.09194,4.970209 -8.20028,7.798122 -5.73496,5.306399 -7.73612,7.512953 -4.04264,7.948557 5.05309,0.187762 37.39948,0.28439 40.20847,0.164288 z M 138.36075,59.117929 c 2.35498,-2.320299 5.1431,-4.665338 5.13428,-5.857107 -0.009,-1.277062 -3.14222,-3.652295 -8.27153,-8.486532 -9.02333,-8.504257 -11.53865,-11.765318 -13.44456,-11.145039 -1.66179,0.533757 -0.9426,5.550223 -1.20236,19.248717 -0.23906,13.886757 -0.60845,20.78123 0.49222,20.864847 1.46052,0.786338 2.05223,-0.378464 7.08387,-4.982976 3.25945,-2.982752 7.85307,-7.321611 10.20807,-9.64191 z m 42.05844,9.389169 c 0.14549,-9.021946 -0.30601,-24.979542 -0.36935,-30.573462 -0.0358,-5.069025 -2.11717,-5.217585 -6.58205,-0.922626 -2.06665,1.987998 -9.65824,9.35612 -12.59786,12.085565 -5.56963,5.171415 -4.9177,3.61146 2.29932,11.055286 3.01439,2.664577 8.46679,7.736737 10.8288,9.983815 5.77042,5.234753 6.60887,4.635769 6.42114,-1.628578 z M 153.77082,44.203002 c 6.53283,-6.030125 12.15297,-11.360649 16.63779,-15.889455 5.66794,-5.113877 0.57672,-5.511626 -2.21721,-5.388272 -1.58313,-0.126266 -7.62216,-0.04493 -12.6936,-0.04966 -10.2506,0.107233 -12.32571,0.140549 -22.47703,-0.02216 -4.30611,-0.06903 -9.31429,0.03181 -2.47858,5.907179 5.21636,4.90731 14.04392,13.353183 16.2648,15.535505 3.2015,3.085922 3.34972,3.19268 6.96383,-0.09314 z"
     id="path814"
     inkscape:connector-curvature="0"
     sodipodi:nodetypes="cccccccscccccccccsczzccccccccccccccccccscccccccsccccccccccscccsccscccccccccccccccccccccccccccccccccccccccccccccccccccccccscccccccccccccccccccccccscccccc" />
</svg>
