<?xml version="1.0" encoding="UTF-8" standalone="no"?>
<svg
   xmlns:dc="http://purl.org/dc/elements/1.1/"
   xmlns:cc="http://creativecommons.org/ns#"
   xmlns:rdf="http://www.w3.org/1999/02/22-rdf-syntax-ns#"
   xmlns:svg="http://www.w3.org/2000/svg"
   xmlns="http://www.w3.org/2000/svg"
   xmlns:sodipodi="http://sodipodi.sourceforge.net/DTD/sodipodi-0.dtd"
   xmlns:inkscape="http://www.inkscape.org/namespaces/inkscape"
   version="1.0"
   width="300.000000pt"
   height="300.000000pt"
   viewBox="0 0 300.000000 300.000000"
   preserveAspectRatio="xMidYMid meet"
   id="svg2"
   inkscape:version="0.92.5 (2060ec1f9f, 2020-04-08)"
   sodipodi:docname="br.svg">
  <defs
     id="defs12">
    <filter
       style="color-interpolation-filters:sRGB;"
       inkscape:label="Drawing"
       id="filter18775">
      <feGaussianBlur
         in="SourceGraphic"
         stdDeviation="5.99659"
         result="blur1"
         id="feGaussianBlur18721" />
      <feConvolveMatrix
         in="blur1"
         targetX="1"
         targetY="1"
         order="3 3"
         kernelMatrix="0 250 0 250 -1010 250 0 250 0 "
         result="convolve1"
         id="feConvolveMatrix18723" />
      <feComposite
         in="convolve1"
         in2="convolve1"
         k1="1"
         k2="1"
         k4="0.04"
         operator="arithmetic"
         result="composite1"
         id="feComposite18725" />
      <feColorMatrix
         in="composite1"
         values="0 0 0 0 0 0 0 0 0 0 0 0 0 0 0 -0.2125 -0.7154 -0.0721 1 0 "
         result="color1"
         id="feColorMatrix18727" />
      <feGaussianBlur
         stdDeviation="0.61"
         result="blur2"
         id="feGaussianBlur18729" />
      <feColorMatrix
         values="1 0 0 0 0 0 1 0 0 0 0 0 1 0 0 0 0 0 2.7 -1 "
         result="color2"
         id="feColorMatrix18731" />
      <feFlood
         flood-color="rgb(255,255,255)"
         result="flood1"
         id="feFlood18733" />
      <feBlend
         in2="color2"
         mode="multiply"
         result="blend1"
         id="feBlend18735" />
      <feComponentTransfer
         in="blend1"
         result="component1"
         id="feComponentTransfer18743">
        <feFuncR
           type="discrete"
           tableValues="0 1 1 1"
           id="feFuncR18737" />
        <feFuncG
           type="discrete"
           tableValues="0 1 1 1"
           id="feFuncG18739" />
        <feFuncB
           type="discrete"
           tableValues="0 1 1 1"
           id="feFuncB18741" />
      </feComponentTransfer>
      <feGaussianBlur
         stdDeviation="0.61"
         result="blur3"
         id="feGaussianBlur18745" />
      <feColorMatrix
         in="blur3"
         values="0 0 0 0 0 0 0 0 0 0 0 0 0 0 0 -0.2125 -0.7154 -0.0721 1 0 "
         result="color3"
         id="feColorMatrix18747" />
      <feColorMatrix
         values="1 0 0 0 0 0 1 0 0 0 0 0 1 0 0 0 0 0 1.9 -0.5 "
         result="color4"
         id="feColorMatrix18749" />
      <feFlood
         flood-color="rgb(0,0,0)"
         result="flood2"
         id="feFlood18751" />
      <feComposite
         in="flood2"
         in2="color4"
         operator="in"
         result="composite2"
         id="feComposite18753" />
      <feComposite
         in="composite2"
         in2="composite2"
         operator="arithmetic"
         k2="1"
         result="composite3"
         id="feComposite18755" />
      <feOffset
         dx="0"
         dy="0"
         result="offset1"
         id="feOffset18757" />
      <feFlood
         in="color4"
         flood-color="rgb(66,66,66)"
         result="flood3"
         id="feFlood18759" />
      <feComposite
         in="flood3"
         in2="color4"
         operator="out"
         result="composite4"
         id="feComposite18761" />
      <feComposite
         in="composite4"
         in2="composite4"
         operator="arithmetic"
         k2="1"
         result="composite5"
         id="feComposite18763" />
      <feMerge
         result="merge1"
         id="feMerge18769">
        <feMergeNode
           in="composite5"
           id="feMergeNode18765" />
        <feMergeNode
           in="offset1"
           id="feMergeNode18767" />
      </feMerge>
      <feColorMatrix
         values="1 0 0 0 0 0 1 0 0 0 0 0 1 0 0 0 0 0 1.3 0 "
         result="color5"
         flood-opacity="0.56"
         id="feColorMatrix18771" />
      <feComposite
         in="color5"
         in2="SourceGraphic"
         operator="in"
         result="composite8"
         id="feComposite18773" />
    </filter>
  </defs>
  <sodipodi:namedview
     pagecolor="#ffffff"
     bordercolor="#666666"
     borderopacity="1"
     objecttolerance="10"
     gridtolerance="10"
     guidetolerance="10"
     inkscape:pageopacity="0"
     inkscape:pageshadow="2"
     inkscape:window-width="1345"
     inkscape:window-height="1002"
     id="namedview10"
     showgrid="false"
     inkscape:zoom="4.0501456"
     inkscape:cx="-34.647142"
     inkscape:cy="306.35121"
     inkscape:window-x="79"
     inkscape:window-y="0"
     inkscape:window-maximized="0"
     inkscape:current-layer="svg2"
     inkscape:pagecheckerboard="true">
    <inkscape:grid
       type="xygrid"
       id="grid842" />
  </sodipodi:namedview>
  <metadata
     id="metadata4">
Created by potrace 1.12, written by Peter Selinger 2001-2015
<rdf:RDF>
  <cc:Work
     rdf:about="">
    <dc:format>image/svg+xml</dc:format>
    <dc:type
       rdf:resource="http://purl.org/dc/dcmitype/StillImage" />
    <dc:title />
  </cc:Work>
</rdf:RDF>
</metadata>
  <path
     style="display:inline;opacity:1;fill:#e3dfd3;fill-opacity:1;stroke-width:2.38571215"
     d="m 215.98134,17.998169 c -11.47391,0.237633 -19.1955,12.681746 -16.53785,23.342431 0.50695,2.988327 1.8368,8.154284 -3.14838,6.908214 -4.92764,0.234543 -10.39986,0.398443 -15.09942,-0.246649 0.73702,-9.260203 1.68727,-21.768321 -7.70619,-27.154072 -10.60967,-5.159713 -22.45601,-0.451294 -33.53169,-2.4727 -9.9027,0.24857 -18.64939,9.308983 -17.4208,19.375338 -0.31425,3.372472 1.62877,7.818649 -0.13265,10.539537 -5.92266,0.456128 -12.28605,0.649014 -17.9452,-0.07876 0.8152,-9.537176 1.50281,-22.804536 -8.603662,-27.806965 -9.15428,-3.83205 -19.475537,-1.706234 -28.888901,-0.984519 -8.502002,2.612288 -11.797702,12.400398 -10.512253,20.486673 -0.557171,19.006241 -5.511435,37.655945 5.755059,54.178222 5.926048,8.219351 17.070288,17.448661 25.964772,22.240781 -3.661048,15.4815 -4.039289,31.43498 -5.790787,47.16173 -0.933185,13.88587 -1.099781,27.82191 -0.59097,41.72896 -9.038417,-0.46009 -21.793048,0.68306 -24.525926,11.21523 -3.896992,14.5588 -1.58399,29.83303 -0.976505,44.62427 1.055994,9.46677 3.636807,22.0579 14.419856,24.69416 11.15074,2.95842 22.802533,0.0702 34.145067,1.22228 43.50093,-0.45528 87.21146,1.9922 130.57432,-1.53525 11.05387,-4.42155 11.874,-18.30907 12.44708,-28.48019 1.28728,-15.37433 3.02961,-32.44575 -4.97718,-46.34949 -5.14539,-5.81182 -14.32104,-5.05172 -20.48007,-6.28848 1.63766,-14.99075 -1.15804,-29.93842 -1.14386,-44.94907 -0.77331,-14.48963 -2.06702,-29.06455 -5.59439,-43.16021 27.79192,-19.616736 32.17101,-25.741228 32.43136,-50.621841 -0.25762,-11.776904 0.77343,-23.849009 -1.74754,-35.414754 -1.44296,-7.067942 -7.79453,-12.44854 -15.14294,-11.994552 -5.07823,-0.300493 -10.16685,0.26522 -15.24035,-0.180322 z"
     id="path865"
     inkscape:connector-curvature="0"
     sodipodi:nodetypes="ccccccccccccccccccccccccccccccc" />
  <path
     sodipodi:nodetypes="zzzzzzcszccscszsccssssscscccscsccscszzscsssssss"
     inkscape:connector-curvature="0"
     id="path843"
     d="m 69.184336,274.38689 c -3.15414,-3.80381 -4.814675,-29.665 -4.598554,-36.06014 0.216125,-6.39515 0.120467,-19.51836 3.360696,-22.16845 3.240228,-2.65005 51.655162,-2.2898 79.693872,-2.63013 28.03871,-0.3403 84.42406,-0.45055 87.83967,2.88156 3.41561,3.33211 3.67076,13.81175 3.75781,23.26392 0.087,9.45217 -1.22713,31.05762 -4.80992,35.37842 -2.72544,3.28683 -12.14574,2.50581 -86.78756,2.50581 -74.641822,0 -75.301875,0.63285 -78.456014,-3.17099 z m 22.801467,-68.45541 c -3.662574,-3.66577 2.730477,-81.87647 5.565618,-87.34064 1.392049,-2.25435 5.786379,-2.52969 51.094599,-2.72622 54.15536,-0.23487 56.46352,-0.31938 58.42211,3.48923 2.21201,3.65941 7.43798,70.80601 6.20953,80.75537 0,0 0.10067,5.05698 -1.42878,5.74641 -1.52952,0.68947 -62.74082,0.6773 -62.74082,0.6773 -36.81208,0.45211 -56.227856,0.29379 -57.122257,-0.60145 z M 68.535176,85.38261 c -2.951316,-4.55406 -2.2948,-9.332754 -2.850622,-30.26784 -0.470548,-17.723206 0.547163,-25.326273 2.69322,-26.051557 4.267002,-1.442082 19.921209,-1.304989 23.413856,-0.407026 1.931948,0.496706 3.252073,2.088373 3.224288,8.430527 -0.03251,7.421913 0.03057,12.698364 0.247503,17.223257 0.211933,4.420477 3.419419,4.169717 14.805769,3.783408 12.81803,-0.415107 22.20027,0.964515 22.38825,-4.245242 0.11031,-3.058572 -0.10932,-9.934496 -0.16413,-16.362778 -0.0815,-10.149099 -0.0336,-9.237562 19.8571,-9.256026 18.03325,-0.03404 19.63055,-1.612509 19.52061,8.789273 0.32918,5.236949 0.19466,13.217123 0.22916,17.427574 0.0423,5.168107 12.09034,3.255834 20.83286,3.32578 19.61027,0.156895 16.21198,-0.804634 16.35655,-18.949069 0.0616,-7.722535 1.14257,-8.727261 2.83902,-9.874896 3.2863,-2.032827 19.02294,-1.501887 23.80578,-0.266142 3.06427,1.074105 2.631,26.551876 2.22197,41.356916 -0.19476,7.049337 -1.0125,11.849568 -1.62433,13.365388 -1.27528,3.357172 -6.59851,10.302305 -12.5652,15.69776 0,0 -9.10419,7.290393 -11.98378,8.730713 -2.87959,1.44032 -40.33823,0.92864 -60.036,0.9889 -19.69775,0.0603 -57.995042,0.0252 -59.601997,-0.90941 C 83.422826,102.83943 74.449015,95.084599 68.535176,85.38261 Z m 141.799374,7.178607 c 1.95526,-1.065604 7.5648,-7.454528 7.871,-8.459066 0.34653,-1.136804 -28.0404,-0.726677 -66.34694,-0.81375 -36.99975,-0.0841 -66.120588,-0.57993 -66.074293,0.886899 0.0535,1.695192 5.612117,6.265359 6.940684,7.647675 2.382014,2.478382 14.502999,1.660937 59.330119,1.660937 44.30187,0 55.90801,0.369717 58.27943,-0.922695 z"
     style="display:inline;opacity:1;fill:#000000;fill-opacity:1;stroke-width:2.38571215" />
</svg>
