<?xml version="1.0" encoding="UTF-8" standalone="no"?>
<svg
   xmlns:dc="http://purl.org/dc/elements/1.1/"
   xmlns:cc="http://creativecommons.org/ns#"
   xmlns:rdf="http://www.w3.org/1999/02/22-rdf-syntax-ns#"
   xmlns:svg="http://www.w3.org/2000/svg"
   xmlns="http://www.w3.org/2000/svg"
   xmlns:sodipodi="http://sodipodi.sourceforge.net/DTD/sodipodi-0.dtd"
   xmlns:inkscape="http://www.inkscape.org/namespaces/inkscape"
   version="1.0"
   width="300.000000pt"
   height="300.000000pt"
   viewBox="0 0 300.000000 300.000000"
   preserveAspectRatio="xMidYMid meet"
   id="svg2"
   inkscape:version="0.92.5 (2060ec1f9f, 2020-04-08)"
   sodipodi:docname="wb.svg">
  <defs
     id="defs12">
    <filter
       style="color-interpolation-filters:sRGB;"
       inkscape:label="Drawing"
       id="filter18775">
      <feGaussianBlur
         in="SourceGraphic"
         stdDeviation="5.99659"
         result="blur1"
         id="feGaussianBlur18721" />
      <feConvolveMatrix
         in="blur1"
         targetX="1"
         targetY="1"
         order="3 3"
         kernelMatrix="0 250 0 250 -1010 250 0 250 0 "
         result="convolve1"
         id="feConvolveMatrix18723" />
      <feComposite
         in="convolve1"
         in2="convolve1"
         k1="1"
         k2="1"
         k4="0.04"
         operator="arithmetic"
         result="composite1"
         id="feComposite18725" />
      <feColorMatrix
         in="composite1"
         values="0 0 0 0 0 0 0 0 0 0 0 0 0 0 0 -0.2125 -0.7154 -0.0721 1 0 "
         result="color1"
         id="feColorMatrix18727" />
      <feGaussianBlur
         stdDeviation="0.61"
         result="blur2"
         id="feGaussianBlur18729" />
      <feColorMatrix
         values="1 0 0 0 0 0 1 0 0 0 0 0 1 0 0 0 0 0 2.7 -1 "
         result="color2"
         id="feColorMatrix18731" />
      <feFlood
         flood-color="rgb(255,255,255)"
         result="flood1"
         id="feFlood18733" />
      <feBlend
         in2="color2"
         mode="multiply"
         result="blend1"
         id="feBlend18735" />
      <feComponentTransfer
         in="blend1"
         result="component1"
         id="feComponentTransfer18743">
        <feFuncR
           type="discrete"
           tableValues="0 1 1 1"
           id="feFuncR18737" />
        <feFuncG
           type="discrete"
           tableValues="0 1 1 1"
           id="feFuncG18739" />
        <feFuncB
           type="discrete"
           tableValues="0 1 1 1"
           id="feFuncB18741" />
      </feComponentTransfer>
      <feGaussianBlur
         stdDeviation="0.61"
         result="blur3"
         id="feGaussianBlur18745" />
      <feColorMatrix
         in="blur3"
         values="0 0 0 0 0 0 0 0 0 0 0 0 0 0 0 -0.2125 -0.7154 -0.0721 1 0 "
         result="color3"
         id="feColorMatrix18747" />
      <feColorMatrix
         values="1 0 0 0 0 0 1 0 0 0 0 0 1 0 0 0 0 0 1.9 -0.5 "
         result="color4"
         id="feColorMatrix18749" />
      <feFlood
         flood-color="rgb(0,0,0)"
         result="flood2"
         id="feFlood18751" />
      <feComposite
         in="flood2"
         in2="color4"
         operator="in"
         result="composite2"
         id="feComposite18753" />
      <feComposite
         in="composite2"
         in2="composite2"
         operator="arithmetic"
         k2="1"
         result="composite3"
         id="feComposite18755" />
      <feOffset
         dx="0"
         dy="0"
         result="offset1"
         id="feOffset18757" />
      <feFlood
         in="color4"
         flood-color="rgb(66,66,66)"
         result="flood3"
         id="feFlood18759" />
      <feComposite
         in="flood3"
         in2="color4"
         operator="out"
         result="composite4"
         id="feComposite18761" />
      <feComposite
         in="composite4"
         in2="composite4"
         operator="arithmetic"
         k2="1"
         result="composite5"
         id="feComposite18763" />
      <feMerge
         result="merge1"
         id="feMerge18769">
        <feMergeNode
           in="composite5"
           id="feMergeNode18765" />
        <feMergeNode
           in="offset1"
           id="feMergeNode18767" />
      </feMerge>
      <feColorMatrix
         values="1 0 0 0 0 0 1 0 0 0 0 0 1 0 0 0 0 0 1.3 0 "
         result="color5"
         flood-opacity="0.56"
         id="feColorMatrix18771" />
      <feComposite
         in="color5"
         in2="SourceGraphic"
         operator="in"
         result="composite8"
         id="feComposite18773" />
    </filter>
  </defs>
  <sodipodi:namedview
     pagecolor="#ffffff"
     bordercolor="#666666"
     borderopacity="1"
     objecttolerance="10"
     gridtolerance="10"
     guidetolerance="10"
     inkscape:pageopacity="0"
     inkscape:pageshadow="2"
     inkscape:window-width="1319"
     inkscape:window-height="982"
     id="namedview10"
     showgrid="false"
     inkscape:zoom="1.28"
     inkscape:cx="304.79015"
     inkscape:cy="176.52964"
     inkscape:window-x="7"
     inkscape:window-y="11"
     inkscape:window-maximized="0"
     inkscape:current-layer="svg2"
     inkscape:pagecheckerboard="true">
    <inkscape:grid
       type="xygrid"
       id="grid842" />
  </sodipodi:namedview>
  <metadata
     id="metadata4">
Created by potrace 1.12, written by Peter Selinger 2001-2015
<rdf:RDF>
  <cc:Work
     rdf:about="">
    <dc:format>image/svg+xml</dc:format>
    <dc:type
       rdf:resource="http://purl.org/dc/dcmitype/StillImage" />
    <dc:title />
  </cc:Work>
</rdf:RDF>
</metadata>
  <path
     sodipodi:nodetypes="cccccccccccccccccccccccccc"
     inkscape:connector-curvature="0"
     id="path856"
     d="M 146.51694,1.7714587 C 130.84787,2.1455882 118.11655,19.472524 122.89052,34.507483 92.405287,57.124357 67.898773,92.008462 67.560328,131.11024 c -0.461532,22.19018 8.82424,43.18199 16.335497,63.26527 2.797875,10.13267 0.972338,20.74373 -1.550438,30.65115 -0.04575,7.6711 4.166521,14.84454 9.973208,19.63553 -19.144857,-5.19593 -41.057002,-8.95302 -59.170716,1.55857 -8.027886,4.56354 -16.232621,8.88827 -25.028529,11.7045 -11.8855931,6.1035 -14.2331855,22.88524 -6.3297777,33.09568 7.2148482,11.03648 22.9940427,15.85781 34.6339397,8.96532 10.51189,-4.74313 22.911292,-10.73564 34.367745,-4.98661 20.149168,7.80141 44.067903,9.87726 63.385153,-1.32488 5.37789,-2.86071 10.3431,-6.82257 15.09394,-10.33288 16.05085,12.77643 36.86378,21.64568 57.65703,17.54529 14.8922,-3.21449 30.54191,-12.42623 45.82618,-5.56036 11.64113,6.50551 27.65913,11.47411 39.3381,2.3795 11.94271,-8.04288 15.53083,-28.57382 2.88548,-37.62509 -9.50164,-6.10617 -21.01523,-8.32064 -30.13096,-15.08986 -16.22975,-7.39672 -35.09169,-6.21598 -51.86556,-1.89385 7.61265,-6.74154 7.82103,-17.59715 5.52508,-26.76592 -2.23206,-9.06008 -3.62052,-18.77419 0.31498,-27.5828 8.21136,-28.53529 23.24304,-56.66526 19.89358,-87.24119 C 237.72179,78.2793 227.6528,55.813751 211.89347,38.847901 218.42828,26.704078 212.68904,10.460768 200.37593,4.5451817 190.08244,-0.894192 177.14394,2.3731686 168.45677,8.869344 162.64553,3.3903956 154.31369,1.4367653 146.51694,1.7714587 Z"
     style="display:inline;opacity:1;fill:#e3dfd3;fill-opacity:1;stroke-width:2.22980714" />
  <path
     style="display:inline;opacity:1;fill:#000000;fill-opacity:1;stroke-width:2.22980714"
     d="m 19.561069,293.21801 c -6.672527,-2.6884 -14.197952,-9.37094 -13.0058128,-17.67832 0.7113229,-4.95684 1.9526486,-8.82297 12.0228548,-11.58941 5.173207,-1.42115 10.387582,-4.7863 16.910466,-8.41087 5.258008,-2.51072 7.160018,-3.91185 14.832429,-5.8718 9.549836,-2.07709 19.345362,-0.27843 31.104245,2.07031 9.115848,1.7082 18.423204,5.43058 23.749249,4.8065 5.73794,-0.67236 11.59147,-5.89713 11.85257,-7.79828 0.41266,-3.00473 -8.19196,-6.07065 -13.17453,-8.26895 -10.622067,-4.68645 -13.912806,-11.26434 -10.896581,-21.78132 3.368576,-11.74554 2.480622,-21.25129 -3.259156,-36.0194 -9.249586,-23.79865 -14.061836,-37.15082 -12.382988,-56.73787 0.706987,-8.24837 2.775997,-19.14256 4.586818,-24.21026 5.565566,-15.575559 19.662297,-36.973778 35.617087,-50.638573 6.95978,-5.960838 11.39735,-9.294058 14.15582,-11.415635 4.04194,-3.108707 0.0446,-6.538551 -0.12985,-10.911826 -0.27775,-6.965094 1.90291,-10.74382 5.9332,-14.007356 6.4092,-5.1898635 15.71607,-5.0634702 23.18793,-0.167714 4.80372,3.147518 5.71948,9.266452 5.46057,14.202304 -0.13816,2.633979 -0.98012,6.73268 -2.02782,7.870232 -0.58064,0.630441 -0.20556,3.093955 2.47002,4.702872 5.08334,3.056782 5.65163,2.454258 6.77453,1.124187 1.78368,-2.112761 2.01371,-4.659791 -0.15171,-7.268973 -3.66046,-4.410577 -3.54868,-15.353952 3.67083,-20.651383 8.23578,-6.0431319 24.55865,-3.336299 27.25169,7.234892 1.05845,3.561634 1.36783,8.936069 -0.6249,12.539724 -5.12411,6.127496 -0.035,8.591697 4.86237,14.969162 15.6792,20.418121 21.0523,33.269374 20.96655,62.566567 -0.0607,20.72984 -2.44092,23.49527 -12.22693,51.67324 -11.17635,32.18136 -12.08898,38.48228 -7.8626,54.28428 3.35548,12.54579 0.23798,19.37677 -10.63801,23.30956 -4.19889,1.51834 -15.70917,5.25723 -13.90005,8.17835 2.31834,3.74334 3.74961,5.1909 9.17099,7.03533 3.68864,1.25491 16.27576,-2.8176 20.97116,-3.83877 20.95724,-4.55788 30.19774,-5.44896 44.61165,0.57475 8.20434,3.42868 13.11947,7.88223 22.58488,11.06916 10.85995,2.76652 11.22712,7.96848 11.68888,13.32368 0.4847,6.53365 -10.32995,21.23192 -25.70554,14.23914 -24.13701,-10.97749 -29.80816,-9.84366 -45.43796,-4.9934 -16.06465,4.98519 -20.93282,6.0239 -30.73467,5.38029 -11.34909,-0.74519 -18.20589,-3.95694 -27.64498,-9.93703 -4.58027,-2.9018 -13.30094,-10.39593 -14.80327,-10.39593 -1.50232,0 -8.97467,6.65987 -13.89884,9.94042 -8.39903,5.59553 -16.33532,9.12299 -26.00949,10.15654 -11.244964,1.20137 -20.178634,-0.68178 -35.172266,-5.76734 -9.971548,-3.38217 -17.017022,-4.05407 -27.583564,-0.43602 -14.731954,5.23246 -17.816908,9.3833 -27.165271,7.54494 z M 120.20331,277.1809 c 9.74312,-4.79925 17.36081,-9.40481 20.96378,-13.86953 2.78432,-3.45027 5.75645,-9.17239 1.24715,-11.00109 -6.32033,-2.56315 -8.13813,-3.00324 -20.64169,8.49804 -7.7704,7.14752 -21.06925,7.65453 -34.536631,3.38979 -5.518773,-1.76465 -13.550109,-4.03467 -24.109589,-4.4405 -13.260611,-0.50967 -14.971488,1.29689 -21.787737,5.44649 -6.14075,3.4084 -11.688426,6.92184 -16.971427,8.25251 -6.89064,1.70455 -8.94522,4.34223 -3.551626,8.90653 5.42173,3.83537 9.573698,-2.14553 20.027322,-5.80602 22.86354,-7.43583 26.34363,-3.51765 43.902193,1.21214 7.584647,2.04311 11.92349,3.61563 18.716295,3.6865 6.42493,0.067 10.26436,-1.08413 16.74196,-4.27486 z m 95.71055,0.43649 c 19.52872,-5.4117 25.17299,-7.34612 41.40942,-1.77773 12.60114,4.07346 15.7854,9.43372 20.57543,7.18842 5.07909,-2.38082 7.24216,-7.69927 -1.48081,-9.22031 -4.49124,-1.50174 -12.28739,-5.34901 -20.74086,-10.65717 -2.52118,-1.5891 -8.34794,-4.80221 -25.13618,-3.0954 -9.2802,0.94348 -19.57956,4.96269 -25.09833,6.23174 -8.85851,2.03703 -18.63846,0.60441 -24.3423,-3.37977 -4.77484,-3.58069 -12.82777,-11.97132 -16.78323,-11.9513 -14.16334,0.0717 -9.41651,11.19338 1.69643,18.53789 21.09673,12.31454 24.13988,15.26224 49.90043,8.12363 z m -34.30802,-40.98301 c 19.75854,-4.76195 20.811,-11.90515 2.28166,-15.48604 -13.86157,-2.67884 -33.89487,-3.96046 -50.02933,-2.12677 -18.21202,2.06978 -31.54704,7.23403 -27.13292,11.64814 8.20482,8.20482 52.15027,11.44284 74.88059,5.96467 z m -53.40492,-26.26934 c 10.20361,-1.56464 17.39862,-1.80716 26.00363,-1.80203 7.65823,0.004 17.75058,0.40239 31.08658,3.77156 11.95705,3.0208 11.01607,1.47845 10.36519,-6.4797 -0.70362,-8.60313 0.077,-9.76187 -7.79788,-12.79105 -8.40003,-4.018 -22.60473,-5.4252 -34.31465,-5.67893 -11.01862,-0.23875 -22.37782,0.77996 -30.28905,2.81297 -7.9606,2.0457 -15.13207,4.43081 -15.9366,5.30023 -2.76339,2.98633 -3.99843,22.03915 -1.39045,20.42734 1.33236,-0.82346 12.54613,-4.0688 22.27323,-5.56039 z m -6.75897,-5.80601 c -2.88049,-2.72731 -1.72434,-8.76925 3.45018,-9.54476 3.85785,-0.57818 6.49402,1.91191 6.49402,5.8017 0,5.28635 -7.16526,6.37423 -9.9442,3.74306 z m 48.61375,-2.22961 c -0.8078,-7.23336 5.09083,-9.12369 9.06751,-6.94426 3.05858,2.12411 3.0422,5.23256 2.2998,7.16724 -1.78836,4.66037 -9.55183,4.50808 -11.36731,-0.22298 z m -24.6962,-1.20187 c -2.02866,-5.28664 2.12668,-9.57449 6.54055,-8.72445 2.46845,0.47538 4.56201,2.6684 4.49297,6.14943 -0.11682,5.8891 -8.32281,7.18249 -11.03352,2.57502 z m 27.24463,-22.07495 c 10.20665,1.98147 18.59394,4.27964 20.25365,4.70324 3.66911,1.40412 4.14854,-5.71613 9.18478,-17.36122 14.97693,-34.63053 6.55594,-67.522797 -15.33708,-92.979934 -10.5947,-12.319477 -25.95916,-27.193661 -36.89995,-27.193661 -14.11528,0 -38.55727,24.376744 -51.537892,50.45652 -7.532811,15.134385 -8.09841,21.861955 -8.660957,34.892405 -0.642901,14.89172 3.170071,23.22525 7.303004,35.99391 4.963945,15.33607 8.233215,18.09352 11.206345,16.87167 2.02447,-0.83196 10.90731,-3.61533 22.16255,-5.57951 18.42504,-2.15582 30.59901,-2.07381 42.32555,0.19658 z m -37.17054,-25.05693 c -0.12529,-4.76906 -0.0984,-14.36142 -0.16496,-21.41478 -0.0826,-8.75777 -1.06852,-8.19072 -8.38145,-8.23271 -10.17265,-0.0584 -10.6296,0.86287 -10.7113,-5.87167 -0.0356,-2.93146 0.0351,-15.34253 -0.0812,-19.075175 -0.1652,-5.304737 -0.44467,-5.693457 9.70867,-6.022331 9.41517,-0.304965 9.61654,0.05862 9.21773,-11.288188 0.52761,-12.548594 -2.47507,-10.224034 14.13536,-10.64479 20.40096,-0.154202 16.27954,-0.912125 16.7285,11.167733 0.0491,11.774239 0.46118,9.858463 8.97243,10.034132 8.01146,-0.15869 7.72475,-0.891258 8.01488,8.261309 0.23472,5.21282 0.44487,17.034 0.38189,19.53079 -0.0899,3.56311 -3.23701,3.15126 -8.27717,3.41691 -10.56415,0.0327 -8.83683,0.0855 -9.07443,5.9241 0.38752,9.82689 0.50436,24.58804 0.50633,26.74787 -0.094,3.87621 0.53917,4.83947 -15.40071,5.05112 -17.68623,-0.0736 -15.38049,0.13179 -15.57462,-7.58432 z m 20.67263,-20.19777 c -0.0917,-9.40004 -0.74915,-17.63561 0.16106,-18.72435 0.65847,-0.78763 4.1575,-0.92392 10.91281,-0.7163 5.72864,-0.10572 6.92515,0.0156 6.57711,-4.99635 0.30181,-6.82103 -1.12733,-6.68797 -9.66628,-6.45647 -3.3263,0.0902 -6.80603,0.57875 -7.8855,-0.58688 -0.83752,-0.90438 -0.58045,-5.220767 -0.59845,-11.002799 -0.0354,-11.379718 -0.38387,-10.312038 -6.13197,-10.241152 -5.73543,0.07073 -5.20455,-0.597071 -4.87416,9.629637 0.15982,4.94702 0.52005,10.886484 -0.46321,11.894274 -1.14725,1.17585 -7.40756,0.66332 -11.70997,0.77416 -6.41211,0.1652 -6.3187,0.95624 -6.24346,5.57452 0.0826,5.07012 0.55164,5.75759 5.39216,5.57451 9.15054,-0.34608 11.56106,-0.14304 12.4383,0.90438 1.06704,1.27403 0.51997,9.88328 0.70887,19.28565 0.35042,17.44313 -1.59745,17.83385 5.25071,17.7167 7.56124,-0.12934 5.72784,0.57159 6.13198,-18.62953 z m 38.74513,-84.395464 c -6.81076,-6.810766 -6.73617,-6.588782 -9.79202,-2.777175 -2.84769,3.551967 -1.74915,5.751053 3.38119,10.675039 3.20404,3.075187 8.78409,9.791486 14.73091,17.510465 3.73793,4.851834 7.28216,10.448903 8.79264,14.741281 l 4.43461,10.931764 -0.0503,-8.035661 c 0.005,-5.346135 -1.05602,-12.457644 -5.93,-20.915948 -4.87395,-8.458306 -9.51539,-15.262409 -15.56705,-22.129765 z m -39.8971,-19.149152 c 1.29515,-2.973068 0.59286,-9.521993 -7.08274,-9.26767 -4.05372,0.134317 -7.73429,4.121325 -5.25938,9.820499 1.67448,3.855981 10.03009,4.754504 12.34212,-0.552829 z m 38.02923,1.532924 c 3.81636,-3.720271 2.03967,-10.68113 -4.41528,-11.0722 -5.0105,-0.303558 -8.0226,4.013168 -7.32174,7.560303 1.16438,5.892939 8.22359,6.936865 11.73702,3.511897 z"
     id="path843"
     inkscape:connector-curvature="0"
     sodipodi:nodetypes="csscccsscsssssscsssssscscccssscssssccssssssssccsssscsccccsssscsccsccscsscscssssscssccsssssccsccsscccssssssccccssssscccccscccccccccssssssssssssccsssccczcsssssssscs" />
</svg>
