<?xml version="1.0" encoding="UTF-8" standalone="no"?>
<svg
   xmlns:dc="http://purl.org/dc/elements/1.1/"
   xmlns:cc="http://creativecommons.org/ns#"
   xmlns:rdf="http://www.w3.org/1999/02/22-rdf-syntax-ns#"
   xmlns:svg="http://www.w3.org/2000/svg"
   xmlns="http://www.w3.org/2000/svg"
   xmlns:sodipodi="http://sodipodi.sourceforge.net/DTD/sodipodi-0.dtd"
   xmlns:inkscape="http://www.inkscape.org/namespaces/inkscape"
   version="1.0"
   width="300.000000pt"
   height="300.000000pt"
   viewBox="0 0 300.000000 300.000000"
   preserveAspectRatio="xMidYMid meet"
   id="svg2"
   inkscape:version="0.92.5 (2060ec1f9f, 2020-04-08)"
   sodipodi:docname="wk.svg">
  <defs
     id="defs12">
    <filter
       style="color-interpolation-filters:sRGB;"
       inkscape:label="Drawing"
       id="filter18775">
      <feGaussianBlur
         in="SourceGraphic"
         stdDeviation="5.99659"
         result="blur1"
         id="feGaussianBlur18721" />
      <feConvolveMatrix
         in="blur1"
         targetX="1"
         targetY="1"
         order="3 3"
         kernelMatrix="0 250 0 250 -1010 250 0 250 0 "
         result="convolve1"
         id="feConvolveMatrix18723" />
      <feComposite
         in="convolve1"
         in2="convolve1"
         k1="1"
         k2="1"
         k4="0.04"
         operator="arithmetic"
         result="composite1"
         id="feComposite18725" />
      <feColorMatrix
         in="composite1"
         values="0 0 0 0 0 0 0 0 0 0 0 0 0 0 0 -0.2125 -0.7154 -0.0721 1 0 "
         result="color1"
         id="feColorMatrix18727" />
      <feGaussianBlur
         stdDeviation="0.61"
         result="blur2"
         id="feGaussianBlur18729" />
      <feColorMatrix
         values="1 0 0 0 0 0 1 0 0 0 0 0 1 0 0 0 0 0 2.7 -1 "
         result="color2"
         id="feColorMatrix18731" />
      <feFlood
         flood-color="rgb(255,255,255)"
         result="flood1"
         id="feFlood18733" />
      <feBlend
         in2="color2"
         mode="multiply"
         result="blend1"
         id="feBlend18735" />
      <feComponentTransfer
         in="blend1"
         result="component1"
         id="feComponentTransfer18743">
        <feFuncR
           type="discrete"
           tableValues="0 1 1 1"
           id="feFuncR18737" />
        <feFuncG
           type="discrete"
           tableValues="0 1 1 1"
           id="feFuncG18739" />
        <feFuncB
           type="discrete"
           tableValues="0 1 1 1"
           id="feFuncB18741" />
      </feComponentTransfer>
      <feGaussianBlur
         stdDeviation="0.61"
         result="blur3"
         id="feGaussianBlur18745" />
      <feColorMatrix
         in="blur3"
         values="0 0 0 0 0 0 0 0 0 0 0 0 0 0 0 -0.2125 -0.7154 -0.0721 1 0 "
         result="color3"
         id="feColorMatrix18747" />
      <feColorMatrix
         values="1 0 0 0 0 0 1 0 0 0 0 0 1 0 0 0 0 0 1.9 -0.5 "
         result="color4"
         id="feColorMatrix18749" />
      <feFlood
         flood-color="rgb(0,0,0)"
         result="flood2"
         id="feFlood18751" />
      <feComposite
         in="flood2"
         in2="color4"
         operator="in"
         result="composite2"
         id="feComposite18753" />
      <feComposite
         in="composite2"
         in2="composite2"
         operator="arithmetic"
         k2="1"
         result="composite3"
         id="feComposite18755" />
      <feOffset
         dx="0"
         dy="0"
         result="offset1"
         id="feOffset18757" />
      <feFlood
         in="color4"
         flood-color="rgb(66,66,66)"
         result="flood3"
         id="feFlood18759" />
      <feComposite
         in="flood3"
         in2="color4"
         operator="out"
         result="composite4"
         id="feComposite18761" />
      <feComposite
         in="composite4"
         in2="composite4"
         operator="arithmetic"
         k2="1"
         result="composite5"
         id="feComposite18763" />
      <feMerge
         result="merge1"
         id="feMerge18769">
        <feMergeNode
           in="composite5"
           id="feMergeNode18765" />
        <feMergeNode
           in="offset1"
           id="feMergeNode18767" />
      </feMerge>
      <feColorMatrix
         values="1 0 0 0 0 0 1 0 0 0 0 0 1 0 0 0 0 0 1.3 0 "
         result="color5"
         flood-opacity="0.56"
         id="feColorMatrix18771" />
      <feComposite
         in="color5"
         in2="SourceGraphic"
         operator="in"
         result="composite8"
         id="feComposite18773" />
    </filter>
  </defs>
  <sodipodi:namedview
     pagecolor="#ffffff"
     bordercolor="#666666"
     borderopacity="1"
     objecttolerance="10"
     gridtolerance="10"
     guidetolerance="10"
     inkscape:pageopacity="0"
     inkscape:pageshadow="2"
     inkscape:window-width="1254"
     inkscape:window-height="962"
     id="namedview10"
     showgrid="false"
     inkscape:zoom="1.1843892"
     inkscape:cx="-513.30595"
     inkscape:cy="250.23858"
     inkscape:window-x="62"
     inkscape:window-y="42"
     inkscape:window-maximized="0"
     inkscape:current-layer="svg2"
     inkscape:pagecheckerboard="true"
     showguides="false">
    <inkscape:grid
       type="xygrid"
       id="grid842" />
  </sodipodi:namedview>
  <metadata
     id="metadata4">
Created by potrace 1.12, written by Peter Selinger 2001-2015
<rdf:RDF>
  <cc:Work
     rdf:about="">
    <dc:format>image/svg+xml</dc:format>
    <dc:type
       rdf:resource="http://purl.org/dc/dcmitype/StillImage" />
    <dc:title />
  </cc:Work>
</rdf:RDF>
</metadata>
  <path
     sodipodi:nodetypes="ccccccccccccccccccccccccccccc"
     inkscape:connector-curvature="0"
     id="path856"
     d="m 136.22852,-2.2324219 c -8.65671,0.097753 -14.23352,9.8537359 -12.81836,17.2968749 -8.78495,-0.414829 -20.54232,-1.838886 -25.904303,6.964844 -3.758655,10.315346 1.054058,21.599715 -1.14453,32.228515 -1.17033,8.312296 4.011483,18.325071 13.316403,18.330079 4.40086,0.876003 10.03898,-1.227074 13.50782,0.279297 -1.73804,4.494877 -7.67139,5.446447 -9.86914,9.853515 -1.90512,1.867755 -3.1702,6.633697 -5.66407,3.029295 C 83.423145,66.016342 45.231185,61.508677 19.71875,81.345705 2.6201112,95.173358 -2.3878982,119.51396 2.8046875,140.1875 c 5.1687102,26.28387 21.1884395,48.66716 37.3437505,69.38477 -5.393697,8.3518 -1.67024,18.68991 -2.990235,27.91406 -0.180384,12.01813 -1.32704,26.0757 6.902344,35.88476 10.944131,8.88017 25.670199,10.15156 38.654298,14.04883 44.944005,9.24128 91.581905,7.40194 136.643195,0.0317 14.52103,-3.17774 30.37429,-6.58347 41.502,-16.9993 6.48484,-10.90548 2.8816,-24.12357 4.37629,-36.05776 0.12633,-8.4144 0.21361,-17.26475 -3.49219,-25.03515 18.86797,-22.84149 36.60865,-49.29054 39.13672,-79.63086 1.71856,-19.6067 -5.12157,-41.62661 -22.99222,-51.969155 -26.58126,-16.131572 -62.43386,-9.359009 -85.33005,9.607823 -3.3366,-5.986628 -10.86375,-8.945603 -13.4082,-15.156247 8.96886,1.402816 21.96079,1.821045 26.07422,-8.281251 3.11423,-10.633248 -1.25721,-21.751269 1.2793,-32.466797 0.44242,-8.580952 -6.17252,-17.79697 -15.48047,-16.736329 -4.05746,-0.251678 -8.1251,0.296536 -12.17774,-0.06445 1.0858,-8.373647 -5.24499,-18.0769843 -14.51953,-16.673828 -9.365,-0.4568076 -18.82009,0.3685276 -28.09765,-0.2207031 z"
     style="display:inline;fill:#e3dfd3;fill-opacity:1;stroke-width:2.27629495" />
  <path
     sodipodi:nodetypes="szssssssssscccsccscscccscccssssssssscccsssscsscszzscsssscsccsssssccssssssssssssscscssczzsccsszzcccsccscccccsssssccscccc"
     inkscape:connector-curvature="0"
     id="path845"
     d="M 109.98227,282.87146 C 82.666894,280.0029 55.076971,271.17787 49.85708,266.99491 c -5.21989,-4.18296 -3.74579,-35.01787 -3.542052,-40.97993 0.124879,-3.6543 -0.889022,-11.46005 2.462462,-12.37113 5.722898,-1.55576 2.219004,-5.29291 1.18795,-6.38073 C 47.982627,205.17115 38.128423,191.8592 38.128423,191.8592 16.913863,164.25194 7.2405247,136.87678 10.782398,114.47101 13.609762,96.58522 25.325876,84.199758 43.823824,79.541921 65.812552,74.005095 86.98197,79.703674 105.8526,96.239389 c 4.81523,4.219421 6.85843,7.444561 9.43225,0.09947 2.43075,-6.936728 9.07988,-12.374701 14.57953,-15.862734 2.24464,-1.423614 1.7951,-3.773389 1.8087,-9.1859 -0.45125,-8.118274 1.4698,-8.292931 -12.36393,-7.799034 -17.2185,0.185617 -13.3141,0.102916 -13.66384,-11.274917 -0.116,-3.531893 -0.35058,-16.342887 -0.43043,-20.86355 -0.14959,-8.471075 -1.26749,-6.918907 13.43513,-7.412015 13.27329,-0.435468 14.03399,-0.09951 14.17841,-1.502751 0.14442,-1.403242 -0.0185,-6.314677 -0.0486,-7.599632 -0.0452,-1.92396 0.0969,-4.732705 0.28757,-6.2976578 0.2428,-1.9925543 6.0516,-1.6693738 18.00694,-1.6693738 11.95532,0 17.87623,-0.3514697 18.11903,1.6410849 0.19068,1.5649527 0.36063,5.1578107 0.39952,6.7457717 -0.33984,8.604323 -1.73247,8.396972 6.59782,8.34656 7.1009,0.02794 14.22558,0.427734 18.462,0.582924 3.73493,0.136819 2.1636,8.64802 2.27083,20.020558 0.15222,21.126451 3.86555,19.408691 -14.20014,19.416565 -12.84017,0.08813 -12.5381,-1.275919 -12.24779,7.665467 0.26337,6.527213 0.0812,8.409332 3.67309,10.738022 2.26782,1.470277 10.50403,7.208173 13.24999,15.228216 1.72871,5.048917 4.08217,3.202347 8.8974,-1.01707 18.87063,-16.535721 41.72004,-21.898296 63.70876,-16.361471 18.49794,4.657837 28.53407,16.707302 31.36143,34.593088 3.54262,22.41041 -6.13131,49.78073 -27.35814,77.40403 0,0 -10.10433,12.6165 -11.84917,15.41977 -0.90138,1.44817 -4.08201,5.13502 0.0795,5.79869 3.79206,0.60474 3.55831,6.45655 3.68042,10.03292 0.20039,5.86912 1.06645,28.06437 -1.44712,40.83555 -1.06725,5.42256 -24.78411,12.75357 -45.42033,16.38631 -19.78877,4.07343 -71.75383,5.39173 -99.06921,2.52318 z m 99.31789,-12.85319 c 10.90521,-2.14827 24.85897,-5.08389 24.85897,-6.07576 0,-4.98311 -28.79047,-7.6085 -83.08476,-7.57649 -54.265973,0.0321 -83.084778,2.67007 -83.084778,7.60561 0,1.83003 32.429158,7.68867 49.653108,9.4273 24.74323,1.85992 67.8384,1.31156 91.65746,-3.38066 z M 99.719684,247.82181 c 32.240906,-2.53299 109.683316,-1.11194 129.886846,2.51697 5.99022,1.20631 9.73462,1.7125 10.87468,0.72327 3.07072,-2.66446 2.43269,-10.79973 2.63842,-14.96131 0.20572,-4.16157 0.24409,-12.58443 -1.39915,-13.93114 -1.64324,-1.34672 -10.11292,-3.29127 -10.11292,-3.29127 -31.6004,-6.21834 -45.56464,-7.37808 -80.77078,-7.85325 -34.15973,0.47517 -48.68412,1.63788 -80.00182,7.79227 -11.910643,2.3406 -11.950548,3.5653 -11.950548,12.19564 0,14.96829 0.203943,21.63919 6.431257,20.59084 2.054156,-0.34582 17.426593,-2.44819 34.404015,-3.78202 z M 77.094772,205.16834 c 0,-1.10928 -4.210293,-8.32185 -9.356208,-16.02793 C 44.83233,154.83805 48.210915,132.07697 78.2521,129.90399 c 8.543117,-0.37329 14.457193,-0.67272 27.12321,11.30627 9.24373,8.74234 15.3859,17.5344 22.90509,32.78697 5.65089,11.46272 9.90354,22.12883 10.27435,23.60022 0.67199,2.66661 4.56668,1.75092 12.85562,1.75092 8.28892,0 11.51161,0.91569 12.18362,-1.75092 0.3708,-1.47139 4.62344,-12.1375 10.27433,-23.60022 7.51918,-15.25257 13.66136,-24.04463 22.90509,-32.78697 7.60225,-7.03411 14.47815,-12.56936 27.12322,-11.30627 29.94592,2.55905 33.41974,24.93406 10.51352,59.23642 -5.1459,7.70608 -9.3562,14.91865 -9.3562,16.02793 0,1.10931 2.36918,2.01692 5.26485,2.01692 5.81812,0 11.45135,-5.48215 27.58195,-26.84209 26.78555,-35.46909 29.8076,-75.95465 5.62766,-87.08621 -25.00972,-11.513568 -55.59206,0.401312 -74.04745,28.9489 -4.23366,6.5488 -9.13245,14.19482 -13.73849,17.4637 -7.19597,5.1069 -12.72226,8.61454 -24.57245,8.61454 -11.85021,0 -14.45208,-2.0923 -21.96366,-6.48645 -4.87522,-2.85191 -11.80203,-11.76074 -15.8666,-18.41579 C 95.517601,94.201028 62.702828,80.970979 38.620316,93.25696 c -23.71176,12.09683 -21.157898,51.61712 5.627646,87.08621 16.130609,21.35994 21.763855,26.84209 27.581945,26.84209 2.895676,0 5.264865,-0.90761 5.264865,-2.01692 z m 49.835868,-7.75975 c -1.69749,-5.25001 -2.47022,-7.62676 -9.01335,-21.67416 -8.15406,-16.31769 -23.651051,-33.18632 -32.536665,-35.41647 -8.288801,-2.08034 -17.974388,2.80533 -19.744966,9.95992 -2.103097,8.49823 1.041103,17.03676 13.098719,35.57147 0,0 9.35275,14.06145 10.64243,16.24933 1.289679,2.1879 1.336653,1.20927 17.061502,-0.32697 15.72486,-1.53625 21.95715,0.16734 20.49233,-4.36312 z m 96.4837,-11.55924 c 12.05762,-18.53471 15.20182,-27.07324 13.09873,-35.57147 -1.77059,-7.15459 -11.52412,-12.29439 -19.74498,-9.95992 -16.69451,4.74072 -36.73108,39.02861 -41.09037,55.77058 -1.48109,5.68817 -0.20692,4.17862 15.28812,5.22698 15.49504,1.04837 20.00628,3.19337 21.47023,1.08473 1.46397,-2.10862 10.97827,-16.5509 10.97827,-16.5509 z m -55.89793,-53.71974 c 4.42369,-2.69723 7.30777,-6.76296 9.12151,-10.91582 1.57497,-2.97774 2.49429,-14.10471 -0.0804,-19.06268 -0.67323,-1.2964 -5.04424,-15.095805 -25.12771,-15.767803 -18.4035,0.168 -25.35862,12.22067 -27.18214,19.239733 -0.8759,7.2496 -0.24605,12.82143 1.71149,16.71069 3.78073,7.51161 10.45024,15.37753 25.09589,15.37753 10.92507,-0.336 12.39613,-3.10293 16.46142,-5.58165 z M 159.4915,65.485888 c 0.12444,-14.982206 -2.55927,-13.45586 12.66945,-13.578884 13.06637,-0.04747 14.16972,0.174492 14.05968,-6.28013 -0.17763,-10.418257 0.99204,-9.378639 -11.1225,-9.360787 -16.82501,0.0248 -15.34398,0.75635 -15.46277,-9.933447 -0.0812,-7.308869 -0.54674,-8.182489 -8.56099,-8.079874 -8.72784,0.111751 -8.60286,-0.179388 -8.56101,7.723495 0.0597,11.284229 1.92973,9.966398 -15.40528,10.373289 -13.77562,0.186892 -11.14142,-0.490909 -10.96261,9.808555 0.11204,6.454586 -0.45249,5.898565 13.44517,5.798103 15.24278,-0.110183 12.25386,-1.69129 13.06658,13.52968 -0.0744,13.70982 -0.99786,10.452283 8.39777,10.403004 11.07876,-0.322882 7.86219,3.374329 8.43651,-10.403004 z"
     style="display:inline;fill:#000000;fill-opacity:1;stroke-width:2.27629495" />
</svg>
