<?xml version="1.0" encoding="UTF-8" standalone="no"?>
<svg
   xmlns:dc="http://purl.org/dc/elements/1.1/"
   xmlns:cc="http://creativecommons.org/ns#"
   xmlns:rdf="http://www.w3.org/1999/02/22-rdf-syntax-ns#"
   xmlns:svg="http://www.w3.org/2000/svg"
   xmlns="http://www.w3.org/2000/svg"
   xmlns:sodipodi="http://sodipodi.sourceforge.net/DTD/sodipodi-0.dtd"
   xmlns:inkscape="http://www.inkscape.org/namespaces/inkscape"
   version="1.0"
   width="300.000000pt"
   height="300.000000pt"
   viewBox="0 0 300.000000 300.000000"
   preserveAspectRatio="xMidYMid meet"
   id="svg2"
   inkscape:version="0.92.5 (2060ec1f9f, 2020-04-08)"
   sodipodi:docname="wn.svg">
  <defs
     id="defs12">
    <filter
       style="color-interpolation-filters:sRGB;"
       inkscape:label="Drawing"
       id="filter18775">
      <feGaussianBlur
         in="SourceGraphic"
         stdDeviation="5.99659"
         result="blur1"
         id="feGaussianBlur18721" />
      <feConvolveMatrix
         in="blur1"
         targetX="1"
         targetY="1"
         order="3 3"
         kernelMatrix="0 250 0 250 -1010 250 0 250 0 "
         result="convolve1"
         id="feConvolveMatrix18723" />
      <feComposite
         in="convolve1"
         in2="convolve1"
         k1="1"
         k2="1"
         k4="0.04"
         operator="arithmetic"
         result="composite1"
         id="feComposite18725" />
      <feColorMatrix
         in="composite1"
         values="0 0 0 0 0 0 0 0 0 0 0 0 0 0 0 -0.2125 -0.7154 -0.0721 1 0 "
         result="color1"
         id="feColorMatrix18727" />
      <feGaussianBlur
         stdDeviation="0.61"
         result="blur2"
         id="feGaussianBlur18729" />
      <feColorMatrix
         values="1 0 0 0 0 0 1 0 0 0 0 0 1 0 0 0 0 0 2.7 -1 "
         result="color2"
         id="feColorMatrix18731" />
      <feFlood
         flood-color="rgb(255,255,255)"
         result="flood1"
         id="feFlood18733" />
      <feBlend
         in2="color2"
         mode="multiply"
         result="blend1"
         id="feBlend18735" />
      <feComponentTransfer
         in="blend1"
         result="component1"
         id="feComponentTransfer18743">
        <feFuncR
           type="discrete"
           tableValues="0 1 1 1"
           id="feFuncR18737" />
        <feFuncG
           type="discrete"
           tableValues="0 1 1 1"
           id="feFuncG18739" />
        <feFuncB
           type="discrete"
           tableValues="0 1 1 1"
           id="feFuncB18741" />
      </feComponentTransfer>
      <feGaussianBlur
         stdDeviation="0.61"
         result="blur3"
         id="feGaussianBlur18745" />
      <feColorMatrix
         in="blur3"
         values="0 0 0 0 0 0 0 0 0 0 0 0 0 0 0 -0.2125 -0.7154 -0.0721 1 0 "
         result="color3"
         id="feColorMatrix18747" />
      <feColorMatrix
         values="1 0 0 0 0 0 1 0 0 0 0 0 1 0 0 0 0 0 1.9 -0.5 "
         result="color4"
         id="feColorMatrix18749" />
      <feFlood
         flood-color="rgb(0,0,0)"
         result="flood2"
         id="feFlood18751" />
      <feComposite
         in="flood2"
         in2="color4"
         operator="in"
         result="composite2"
         id="feComposite18753" />
      <feComposite
         in="composite2"
         in2="composite2"
         operator="arithmetic"
         k2="1"
         result="composite3"
         id="feComposite18755" />
      <feOffset
         dx="0"
         dy="0"
         result="offset1"
         id="feOffset18757" />
      <feFlood
         in="color4"
         flood-color="rgb(66,66,66)"
         result="flood3"
         id="feFlood18759" />
      <feComposite
         in="flood3"
         in2="color4"
         operator="out"
         result="composite4"
         id="feComposite18761" />
      <feComposite
         in="composite4"
         in2="composite4"
         operator="arithmetic"
         k2="1"
         result="composite5"
         id="feComposite18763" />
      <feMerge
         result="merge1"
         id="feMerge18769">
        <feMergeNode
           in="composite5"
           id="feMergeNode18765" />
        <feMergeNode
           in="offset1"
           id="feMergeNode18767" />
      </feMerge>
      <feColorMatrix
         values="1 0 0 0 0 0 1 0 0 0 0 0 1 0 0 0 0 0 1.3 0 "
         result="color5"
         flood-opacity="0.56"
         id="feColorMatrix18771" />
      <feComposite
         in="color5"
         in2="SourceGraphic"
         operator="in"
         result="composite8"
         id="feComposite18773" />
    </filter>
  </defs>
  <sodipodi:namedview
     pagecolor="#ffffff"
     bordercolor="#666666"
     borderopacity="1"
     objecttolerance="10"
     gridtolerance="10"
     guidetolerance="10"
     inkscape:pageopacity="0"
     inkscape:pageshadow="2"
     inkscape:window-width="1410"
     inkscape:window-height="1002"
     id="namedview10"
     showgrid="false"
     inkscape:zoom="0.58936995"
     inkscape:cx="-132.36606"
     inkscape:cy="330.10546"
     inkscape:window-x="-5"
     inkscape:window-y="9"
     inkscape:window-maximized="0"
     inkscape:current-layer="svg2"
     inkscape:pagecheckerboard="true"
     showguides="false" />
  <metadata
     id="metadata4">
Created by potrace 1.12, written by Peter Selinger 2001-2015
<rdf:RDF>
  <cc:Work
     rdf:about="">
    <dc:format>image/svg+xml</dc:format>
    <dc:type
       rdf:resource="http://purl.org/dc/dcmitype/StillImage" />
    <dc:title />
  </cc:Work>
</rdf:RDF>
</metadata>
  <path
     sodipodi:nodetypes="cccccccccccccccccccccccccccccccccc"
     inkscape:connector-curvature="0"
     id="path852"
     d="M 88.026607,1.5020663 C 76.550332,3.4791932 72.416979,16.43218 69.816033,26.227791 67.940628,34.21347 68.563374,44.522596 60.345374,49.446051 53.398626,55.598334 47.348792,62.848492 42.395312,70.576905 32.330771,77.478 24.534163,91.585357 31.186627,103.29667 c 4.59034,12.19023 -2.938727,24.42541 -6.215983,35.89177 -4.086043,12.89121 -11.527667,24.66625 -14.403038,37.90144 -1.542715,11.83019 5.82992,22.35855 10.641748,32.56534 6.169173,15.15402 26.558491,21.63399 40.520735,13.38702 7.550031,3.67237 11.971249,1.06202 18.705941,-6.12251 8.680657,-8.67016 8.43168,-16.42319 6.155962,-24.5185 0.41838,-5.40505 3.163028,-10.27039 6.146895,-14.66922 10.452883,-1.39325 22.148733,-2.38047 29.667643,-10.77587 3.50251,-2.81383 6.62032,-6.06036 9.89397,-9.12788 5.50006,17.14181 1.36254,37.33223 -12.4702,49.31403 -18.00444,19.10907 -41.026075,37.53681 -46.249405,64.80688 -1.838672,8.33365 -0.910395,20.01205 8.719447,22.95992 10.33191,3.01348 21.461498,1.60784 32.004478,0.55474 40.01201,-6.16902 75.34532,-33.15821 116.54716,-30.5272 12.8845,0.40721 25.1657,5.32852 36.50951,11.39156 9.01893,2.75016 19.0569,-4.8449 18.5118,-14.37865 0.49652,-8.23915 -1.10739,-16.79216 1.87557,-24.66277 -0.0999,-7.94782 -6.86439,-15.68547 -1.95278,-23.39274 3.16454,-10.96304 -2.96444,-21.48601 -6.48625,-31.38473 -0.35856,-9.60476 1.3305,-20.29939 -4.58739,-28.82081 -4.56814,-8.49175 -5.32994,-18.1966 -7.95846,-27.23116 C 261.40133,113.94198 251.15767,104.46349 244.45441,92.740267 224.97121,66.16695 196.28437,44.365503 163.27475,39.12919 160.93214,36.644449 162.46034,31.907847 161.08829,28.678452 159.49332,19.733729 155.30011,7.9026622 144.98037,6.5089915 133.62413,6.3088413 126.52788,17.026647 119.962,24.783048 c -1.85267,1.52925 -4.19165,7.674159 -5.92134,5.689687 C 108.86827,20.487167 103.34529,9.8330078 94.118633,3.0545383 92.270392,2.0157173 90.153615,1.4288505 88.026607,1.5020663 Z"
     style="display:inline;fill:#e3dfd3;fill-opacity:1;stroke-width:2.33859396" />
  <path
     style="display:inline;fill:#000000;stroke-width:2.33859396"
     d="m 94.807423,287.05633 c 0,0 -7.123454,-0.37998 -10.28085,-1.04377 -3.157395,-0.66377 -2.647912,-5.7956 -1.489451,-13.60684 1.158462,-7.81124 9.47113,-25.93466 31.349928,-46.28267 24.68289,-22.95591 31.34261,-36.74047 29.25079,-57.1179 -0.8207,-7.99475 -3.10305,-16.55994 -4.40228,-19.64515 -2.23458,-5.30637 -0.7958,-9.75264 2.75007,-10.26992 5.05357,-0.73724 8.39117,6.27982 10.48406,14.33274 7.49772,28.84911 1.9167,50.2947 -26.59161,75.9877 -24.2855,21.88723 -32.820286,42.77108 -30.190574,44.96162 1.799732,1.49916 20.011024,2.19939 36.732494,-4.37303 28.6058,-11.24358 57.6018,-22.10904 80.70724,-24.52413 15.03466,-1.57151 15.21069,0.63675 15.13884,-6.27594 0.36503,-3.65001 -0.40378,-18.28795 -1.30347,-34.75729 -1.58076,-28.93768 -9.20104,-58.05359 -20.61098,-79.0174 -8.41846,-15.46749 -30.30539,-38.70706 -47.20298,-46.941511 -11.76004,-5.730844 -15.58875,-7.814754 -18.13957,-2.401934 -2.77324,6.113599 -5.45554,7.277159 -11.20206,1.688354 -2.11489,-5.355061 2.5041,-8.943824 6.98777,-16.166588 5.78591,-9.320515 7.29631,-14.485822 6.56086,-18.146055 -0.77059,-3.835067 -1.12736,-13.628672 -5.32094,-9.636359 -2.13565,2.033126 -9.53578,10.751662 -12.67889,15.957564 -2.85048,4.7212 -1.34723,7.488964 -1.73709,12.8234 -0.5557,7.603354 0.90644,12.150804 -6.79552,12.457946 -4.56704,0.182126 -2.55688,-5.021226 -3.23458,-8.674646 -2.16594,-10.043411 -5.68251,-9.685373 -8.02785,-7.281237 -5.32885,5.462453 -4.29567,2.012821 -9.115506,-4.029104 -4.961181,-6.21911 -15.978714,-1.557191 -22.482201,8.51244 -2.898053,4.487179 -8.233477,8.276101 -9.37093,10.686257 -1.75692,3.72275 -4.33793,7.214402 -7.583478,9.401871 -14.169508,9.550115 -6.746681,14.654812 -5.710035,19.969142 2.039923,10.45759 -1.436862,28.16785 -12.945553,56.49039 -3.674817,9.04362 -6.984347,14.34222 -7.522711,18.60882 -1.089553,8.63483 2.714957,11.05935 3.89324,13.87938 1.178283,2.82003 0.708248,8.51476 5.639292,10.2421 4.931044,1.72734 8.708911,-0.45783 11.631248,-0.66835 2.92234,-0.21049 8.888263,2.41573 12.497249,-0.699 3.608985,-3.11473 2.416895,-9.09179 2.478145,-13.15471 0.06125,-4.06292 2.973042,-9.69264 5.082612,-14.4096 2.189165,-4.89493 9.493663,-13.5538 11.785395,-14.61985 3.15961,-1.46977 11.6606,-1.03735 15.118738,-1.23359 6.461745,-0.36668 8.276835,-4.0007 19.634565,-13.9698 6.54794,-5.74737 11.16294,-12.88308 13.88318,-18.21518 5.52784,-12.73999 8.35986,-14.44239 12.63392,-10.34211 3.39167,3.25378 -4.59532,21.47777 -17.44464,33.622 -7.32535,6.92339 -13.32486,12.96533 -20.40136,16.56414 -1.66695,0.84774 -9.588223,1.9203 -15.877956,1.78448 -5.132977,-0.11085 -7.608217,3.96093 -11.701231,11.9839 -3.456077,6.77447 -5.057728,10.54904 -3.461293,18.49397 1.309684,6.51787 1.682676,7.8147 -3.123403,12.25567 -2.734863,2.5271 -4.459117,6.11042 -9.04031,3.3311 -3.407756,-2.06742 -7.757699,1.2473 -10.44491,2.68547 -3.746986,2.00534 -7.944321,1.82353 -14.221426,-1.02396 -13.841898,-6.27913 -12.746867,-16.74373 -13.987445,-19.25464 -1.240577,-2.51091 -5.679214,-6.512 -6.236517,-14.48162 -0.557303,-7.96962 3.328594,-11.43149 8.250763,-22.47714 4.038603,-9.06285 17.081131,-45.01424 14.946096,-51.66456 -1.159812,-3.61267 -2.86156,-7.717423 -3.85894,-10.78097 -1.28519,-3.947585 1.460324,-11.374283 4.838281,-14.551256 2.868259,-2.697602 9.38172,-8.022318 9.953721,-9.358919 2.306779,-5.390268 5.261838,-7.511906 11.69297,-14.311881 4.184487,-4.424478 7.066735,-8.678987 9.797224,-11.264053 3.035524,-2.873856 2.397865,-6.744624 2.417054,-9.362843 0.06811,-9.291223 6.619098,-23.835565 9.517595,-26.208767 2.416753,-1.9787633 3.389748,-0.312117 6.969828,4.263582 2.401546,3.069416 4.978568,6.79825 6.341799,8.433696 1.71078,2.243638 3.6609,5.779716 4.89353,9.31568 1.23265,3.535964 4.2803,7.702476 6.77256,9.258916 4.04958,2.529013 4.11012,3.133302 15.87042,-12.642086 6.42533,-8.618977 14.7658,-14.790963 16.40543,-14.808157 3.59759,-0.03773 7.26455,8.98079 9.10179,22.38502 1.3122,9.573506 -0.61498,9.641023 12.32653,11.51847 23.8863,3.465227 54.62037,25.879893 71.69434,49.006434 2.96895,4.021404 9.20301,14.779344 11.73528,17.943744 2.02502,2.53054 4.65752,5.30623 6.92621,8.86154 2.56043,4.01253 3.94658,9.57499 4.52434,13.29033 0.14767,6.72574 2.03153,12.718 5.93376,18.58681 3.50057,5.87475 4.53388,15.13131 3.50703,21.31192 -0.77956,3.10606 0.28371,8.69366 2.45233,12.88731 1.35944,2.63635 4.69952,9.36019 5.07285,14.72303 0.49429,7.10059 -3.59902,10.34769 -3.48903,15.52296 0.039,1.82887 4.82369,9.50668 5.5109,15.5466 0.58798,5.1679 -2.71032,4.96992 -2.69825,10.10405 0.005,2.54915 1.28271,9.04628 0.18138,16.21719 -1.57812,7.65583 -3.39235,6.04087 -15.13378,0.0509 -25.0886,-12.79925 -57.35286,-10.04072 -103.75629,8.871 -30.72342,12.52131 -45.48167,16.00267 -63.05779,14.87489 z M 255.01114,247.48947 c -3.08208,-3.08208 -5.7335,-9.78501 -2.57067,-11.12267 2.07053,-0.73288 5.68989,0.10641 9.04339,2.95829 5.13537,4.36722 6.92964,7.84816 7.65091,6.47738 1.75384,-3.33319 -1.37714,-9.75136 -8.29138,-16.28332 -10.09515,-9.537 -12.81672,-14.71744 -9.77417,-17.30444 2.601,-2.2905 6.50928,1.23211 9.57933,2.89308 10.51494,5.68881 6.92372,0.1022 5.1843,-3.4173 -3.20256,-6.47996 -6.30819,-9.45853 -15.23983,-16.56603 -7.01358,-5.58118 -4.34891,-12.49608 2.59343,-9.34594 5.53565,2.51183 9.18967,3.69722 9.38988,1.39223 1.00063,-11.52013 -12.68379,-23.31079 -14.18833,-24.46259 -11.7058,-7.47413 -11.26268,-15.23146 -2.57003,-13.14832 3.14498,0.75368 8.2692,2.84695 8.21296,0.38986 -0.71577,-9.55089 -6.33471,-11.76967 -15.85133,-18.60401 -14.59192,-7.80787 -15.68669,-16.12013 -9.26271,-15.96662 2.65819,0.0635 6.12244,0.53614 6.20197,-2.00917 0.13971,-4.47108 -9.97963,-16.419909 -22.66387,-28.285412 -16.27455,-15.224041 -32.69293,-24.71245 -48.90783,-27.381185 -5.1883,-0.853916 -11.30219,-3.011894 -13.56338,2.767083 -2.07406,5.30071 9.66864,8.348842 15.76855,11.652312 26.15179,14.162834 48.1509,41.297992 56.53243,64.921812 11.15005,31.42706 13.66279,44.48433 15.50121,80.5506 0,0 0.31074,22.09838 0.30013,25.52726 -0.0109,3.42888 3.0881,2.99422 8.14528,4.01312 5.05719,1.01889 7.48936,1.61798 8.06815,1.77018 0.57881,0.15224 2.25508,0.12732 0.71161,-1.41616 z M 96.902311,41.229608 c 0.478936,-1.497674 -1.293449,-6.455055 -2.124775,-8.15336 -0.831327,-1.698306 -5.623525,-10.803394 -6.675696,-5.628307 -1.052172,5.175086 -1.514808,6.396378 -1.859466,9.996462 -0.344661,3.600083 -0.397644,7.412547 4.70058,6.181237 5.098222,-1.23131 5.48042,-0.898357 5.959357,-2.396032 z M 44.936693,192.01967 c -1.651288,-6.57925 0.205448,-10.65659 4.852795,-10.65659 4.65647,0 6.207476,3.59394 4.495213,10.41613 -1.899832,7.56954 -7.472551,7.71288 -9.348008,0.24046 z m 40.736093,-75.7534 c 0.360426,-5.73367 4.146007,-4.99002 1.801959,-5.58031 -0.687581,-0.17316 -0.613325,-0.31591 -3.731074,2.01194 -3.471513,2.59198 -6.511826,-1.75055 -6.113352,-3.87509 0.976493,-5.20636 7.881969,-7.99707 13.600637,-7.56003 4.907832,0.37506 10.023264,3.33027 15.247224,6.23596 4.09661,2.27862 6.60274,3.56151 7.56544,5.82296 1.76364,4.14291 -0.20009,6.31544 -6.23797,4.09169 -3.036,-1.79896 -5.44215,-2.71388 -6.68468,-3.08253 -1.574898,-0.46726 -1.358501,-0.503 -1.295281,2.01187 0.148859,5.92046 -5.41918,7.52422 -9.981999,6.45219 -2.184378,-0.51322 -4.469531,-1.77805 -4.170904,-6.52865 z"
     id="path842"
     inkscape:connector-curvature="0"
     sodipodi:nodetypes="czzssssssssscccsccsssssscsssssssszzzzzsssscsssssssscszzsssssssssscssscsssssccccsssscsssczsssscssssscsccssscssszzccczszzzzssssssssssscsssss" />
</svg>
