<?xml version="1.0" encoding="UTF-8" standalone="no"?>
<svg
   xmlns:dc="http://purl.org/dc/elements/1.1/"
   xmlns:cc="http://creativecommons.org/ns#"
   xmlns:rdf="http://www.w3.org/1999/02/22-rdf-syntax-ns#"
   xmlns:svg="http://www.w3.org/2000/svg"
   xmlns="http://www.w3.org/2000/svg"
   xmlns:sodipodi="http://sodipodi.sourceforge.net/DTD/sodipodi-0.dtd"
   xmlns:inkscape="http://www.inkscape.org/namespaces/inkscape"
   version="1.0"
   width="300.000000pt"
   height="300.000000pt"
   viewBox="0 0 300.000000 300.000000"
   preserveAspectRatio="xMidYMid meet"
   id="svg2"
   inkscape:version="0.92.5 (2060ec1f9f, 2020-04-08)"
   sodipodi:docname="wq.svg">
  <defs
     id="defs12">
    <filter
       style="color-interpolation-filters:sRGB;"
       inkscape:label="Drawing"
       id="filter18775">
      <feGaussianBlur
         in="SourceGraphic"
         stdDeviation="5.99659"
         result="blur1"
         id="feGaussianBlur18721" />
      <feConvolveMatrix
         in="blur1"
         targetX="1"
         targetY="1"
         order="3 3"
         kernelMatrix="0 250 0 250 -1010 250 0 250 0 "
         result="convolve1"
         id="feConvolveMatrix18723" />
      <feComposite
         in="convolve1"
         in2="convolve1"
         k1="1"
         k2="1"
         k4="0.04"
         operator="arithmetic"
         result="composite1"
         id="feComposite18725" />
      <feColorMatrix
         in="composite1"
         values="0 0 0 0 0 0 0 0 0 0 0 0 0 0 0 -0.2125 -0.7154 -0.0721 1 0 "
         result="color1"
         id="feColorMatrix18727" />
      <feGaussianBlur
         stdDeviation="0.61"
         result="blur2"
         id="feGaussianBlur18729" />
      <feColorMatrix
         values="1 0 0 0 0 0 1 0 0 0 0 0 1 0 0 0 0 0 2.7 -1 "
         result="color2"
         id="feColorMatrix18731" />
      <feFlood
         flood-color="rgb(255,255,255)"
         result="flood1"
         id="feFlood18733" />
      <feBlend
         in2="color2"
         mode="multiply"
         result="blend1"
         id="feBlend18735" />
      <feComponentTransfer
         in="blend1"
         result="component1"
         id="feComponentTransfer18743">
        <feFuncR
           type="discrete"
           tableValues="0 1 1 1"
           id="feFuncR18737" />
        <feFuncG
           type="discrete"
           tableValues="0 1 1 1"
           id="feFuncG18739" />
        <feFuncB
           type="discrete"
           tableValues="0 1 1 1"
           id="feFuncB18741" />
      </feComponentTransfer>
      <feGaussianBlur
         stdDeviation="0.61"
         result="blur3"
         id="feGaussianBlur18745" />
      <feColorMatrix
         in="blur3"
         values="0 0 0 0 0 0 0 0 0 0 0 0 0 0 0 -0.2125 -0.7154 -0.0721 1 0 "
         result="color3"
         id="feColorMatrix18747" />
      <feColorMatrix
         values="1 0 0 0 0 0 1 0 0 0 0 0 1 0 0 0 0 0 1.9 -0.5 "
         result="color4"
         id="feColorMatrix18749" />
      <feFlood
         flood-color="rgb(0,0,0)"
         result="flood2"
         id="feFlood18751" />
      <feComposite
         in="flood2"
         in2="color4"
         operator="in"
         result="composite2"
         id="feComposite18753" />
      <feComposite
         in="composite2"
         in2="composite2"
         operator="arithmetic"
         k2="1"
         result="composite3"
         id="feComposite18755" />
      <feOffset
         dx="0"
         dy="0"
         result="offset1"
         id="feOffset18757" />
      <feFlood
         in="color4"
         flood-color="rgb(66,66,66)"
         result="flood3"
         id="feFlood18759" />
      <feComposite
         in="flood3"
         in2="color4"
         operator="out"
         result="composite4"
         id="feComposite18761" />
      <feComposite
         in="composite4"
         in2="composite4"
         operator="arithmetic"
         k2="1"
         result="composite5"
         id="feComposite18763" />
      <feMerge
         result="merge1"
         id="feMerge18769">
        <feMergeNode
           in="composite5"
           id="feMergeNode18765" />
        <feMergeNode
           in="offset1"
           id="feMergeNode18767" />
      </feMerge>
      <feColorMatrix
         values="1 0 0 0 0 0 1 0 0 0 0 0 1 0 0 0 0 0 1.3 0 "
         result="color5"
         flood-opacity="0.56"
         id="feColorMatrix18771" />
      <feComposite
         in="color5"
         in2="SourceGraphic"
         operator="in"
         result="composite8"
         id="feComposite18773" />
    </filter>
  </defs>
  <sodipodi:namedview
     pagecolor="#ffffff"
     bordercolor="#666666"
     borderopacity="1"
     objecttolerance="10"
     gridtolerance="10"
     guidetolerance="10"
     inkscape:pageopacity="0"
     inkscape:pageshadow="2"
     inkscape:window-width="1203"
     inkscape:window-height="953"
     id="namedview10"
     showgrid="false"
     inkscape:zoom="0.75090858"
     inkscape:cx="-576.99852"
     inkscape:cy="258.04326"
     inkscape:window-x="6"
     inkscape:window-y="22"
     inkscape:window-maximized="0"
     inkscape:current-layer="svg2"
     inkscape:pagecheckerboard="true">
    <inkscape:grid
       type="xygrid"
       id="grid842" />
  </sodipodi:namedview>
  <metadata
     id="metadata4">
Created by potrace 1.12, written by Peter Selinger 2001-2015
<rdf:RDF>
  <cc:Work
     rdf:about="">
    <dc:format>image/svg+xml</dc:format>
    <dc:type
       rdf:resource="http://purl.org/dc/dcmitype/StillImage" />
    <dc:title />
  </cc:Work>
</rdf:RDF>
</metadata>
  <path
     sodipodi:nodetypes="ccccccccccccccccccccccccccccccc"
     inkscape:connector-curvature="0"
     id="path922"
     d="M 106.30191,21.443156 C 83.61636,20.777376 64.577957,47.008342 74.239747,68.115581 76.928993,75.12159 81.867518,81.237892 88.134938,85.362285 85.305675,101.30195 84.020385,117.50949 81.968738,133.5208 74.488397,126.67676 66.749864,120.0183 60.359064,112.10182 67.259434,95.109165 59.711253,71.924689 41.222085,66.237741 22.427476,59.19132 -2.2519848,71.847674 -4.016052,92.720273 -6.578991,109.3104 4.5077132,127.66945 21.376251,131.05017 c 3.472076,6.14547 2.751642,13.71261 5.672046,20.12841 5.436053,21.78387 16.021201,42.35718 18.410328,64.75166 -0.189542,16.66688 -5.101779,36.05918 6.035621,50.46127 15.029355,18.09774 40.310734,21.02489 62.298494,22.5742 33.46289,1.76263 67.23599,0.97819 100.39173,-3.96782 14.33167,-3.06883 30.62623,-8.65308 37.71849,-22.53825 7.39229,-18.85479 -0.0718,-39.42497 5.36239,-58.59256 4.55321,-17.53439 12.79535,-33.9338 16.9665,-51.67979 2.21529,-7.04511 4.57507,-14.05926 7.5383,-20.83035 10.68378,-3.52986 20.54967,-11.31957 23.17871,-22.72478 5.5117,-17.017485 -3.77815,-38.604139 -21.99107,-42.875279 -19.92277,-6.711121 -45.27558,8.817343 -44.65985,30.754304 0.0172,5.900505 1.6618,11.652015 3.70179,17.140985 -7.32713,6.25002 -13.68934,13.57437 -21.30706,19.4914 -1.99388,-15.62694 -4.5279,-31.17065 -5.03453,-46.879673 13.00194,-10.805227 21.19375,-30.741425 12.04844,-46.454796 -9.7606,-19.012854 -37.85632,-24.38157 -53.92677,-10.218272 -13.76908,10.727053 -16.89798,32.412842 -6.1662,46.351163 1.50931,3.418598 7.23649,5.836703 3.90486,9.620993 -6.73933,13.645125 -12.84596,29.291045 -20.08414,41.549125 -7.25572,-15.63864 -16.36876,-31.27003 -19.3028,-48.25594 11.51586,-11.634058 12.7355,-31.566313 2.10792,-44.195586 -6.58729,-8.421789 -17.18673,-13.683001 -27.93754,-13.217428 z"
     style="display:inline;fill:#e3dfd3;fill-opacity:1;stroke-width:2.3039999" />
  <path
     sodipodi:nodetypes="cssssccssszscssssszzsssszzssscscsszcssccczzccccscccsssssccsscccssssscsssscsscsscsccscszcccsscc"
     inkscape:connector-curvature="0"
     id="path843"
     d="M 89.300746,276.52466 C 71.390145,272.48505 57.897332,263.60203 55.100779,253.9948 c -1.109868,-3.81284 -1.422075,-16.53082 -0.693796,-28.26222 1.262563,-20.33778 0.591786,-22.10266 -5.420841,-37.34756 -3.541111,-8.97841 -8.303511,-24.25233 -11.561598,-36.2529 -3.192177,-11.75781 -6.45077,-24.63375 -7.30934,-26.76909 -0.858572,-2.13535 -5.070119,-3.01194 -8.66567,-4.27277 -18.4832949,-6.47802 -20.1500907,-29.611817 -9.77229,-40.050979 7.215039,-7.257701 21.051542,-9.614037 30.430864,-3.876403 9.379321,5.737634 12.379739,17.306669 10.952182,24.316752 -1.42756,7.01008 -4.115767,11.20651 -3.574528,13.21464 0.541236,2.00814 20.014712,20.29356 20.014712,20.29356 10.990358,10.35017 19.757916,21.13294 20.027258,19.39328 0.265951,-1.71775 2.275082,-21.61173 4.235726,-39.39972 C 96.60872,89.167702 98.069821,86.727265 98.514509,82.069348 98.887472,78.1628 92.130716,77.379657 88.656173,73.642169 79.60268,63.903531 79.106663,47.691624 88.204465,38.92385 c 8.649915,-8.336149 19.989715,-9.907136 30.512465,-4.88424 15.6466,7.468703 15.16052,26.147357 9.478,34.073572 -5.68253,7.926216 -7.50738,6.720806 -6.51926,12.576364 0.98812,5.855558 11.53319,30.492844 11.53319,30.492844 7.44098,15.3766 13.02459,28.50579 14.86481,32.59779 2.53979,5.64761 3.19516,5.40398 5.95659,1.21974 1.58166,-2.3966 8.35377,-17.72646 16.15489,-33.75875 0,0 11.11431,-23.781423 13.27441,-28.422915 2.16011,-4.641494 -2.42698,-4.258139 -8.57645,-12.973238 -6.14948,-8.7151 -6.59108,-27.932899 9.03929,-35.39385 10.52274,-5.022896 22.26368,-4.393385 30.9136,3.942764 9.09778,8.767774 9.53771,24.307196 0.48421,34.045835 -3.47455,3.737489 -7.16654,8.091119 -8.76141,8.623803 -2.31443,0.773025 -0.65459,8.104176 2.19065,33.917861 1.96066,17.78799 4.68712,36.24391 4.95308,37.96166 0.26933,1.73966 8.31956,-7.60504 19.30993,-17.95521 0,0 18.7076,-16.82739 19.73106,-18.5817 0.5732,-0.98253 -0.79369,-4.285 -3.95944,-13.04356 -3.16573,-8.75853 1.03682,-20.239612 11.2196,-26.468693 8.57597,-5.246185 23.61697,-3.112304 30.832,4.145397 10.39813,10.459606 7.2299,35.509216 -9.82351,40.068936 -10.02943,2.68165 -7.75966,5.39531 -13.61317,20.81478 -3.96394,14.85542 -9.10543,29.04217 -12.96472,40.30132 -6.63647,19.18301 -8.61693,18.73157 -8.64121,46.8027 0,0 0.1801,23.19115 -1.36191,26.40346 -1.54201,3.21231 -0.31299,7.94571 -13.93304,14.16008 -13.62005,6.21437 -24.04227,9.184 -74.0336,10.5364 -24.12898,0.10811 -44.89506,0.58215 -67.163774,-3.6023 z m 120.804464,-9.61994 c 5.7334,-3.2365 6.28501,-3.48615 -16.20295,-6.80771 -27.22126,-4.02065 -86.66342,-2.37755 -103.553769,3.32473 -5.171684,1.746 4.03236,3.75109 15.634439,5.53736 16.57833,2.55244 98.80746,0.94589 104.12228,-2.05438 z M 108.75792,251.16131 c 34.88154,-5.06949 86.37651,-3.043 116.80455,4.79466 8.02936,2.06817 9.05702,-4.71518 8.53429,-22.26051 -0.58043,-19.48188 2.86628,-25.04943 -8.58131,-30.1488 -22.73048,-10.12545 -117.87501,-12.6743 -151.333691,0.94535 -8.927719,3.63411 -7.201156,10.10463 -8.01405,29.5782 -0.787706,18.87023 1.564871,24.32868 9.594217,22.2605 3.465435,-0.89264 20.993018,-3.42498 32.995994,-5.1694 z M 93.723833,188.24726 c 37.902487,-6.80994 119.961747,-3.63868 135.072377,4.3184 2.26786,1.19423 5.04172,0.86519 7.15778,-0.84911 5.7287,-4.64094 23.48128,-56.47042 21.69561,-61.85919 -0.43839,-1.32292 -10.39002,9.62822 -22.57278,21.12973 -25.30581,23.89077 -29.28381,29.03736 -31.7582,11.87271 -1.79083,-12.42285 -8.68612,-71.936384 -10.16908,-75.034186 -0.57342,-1.197846 -9.31361,21.513696 -19.33781,41.551556 -14.39794,28.78067 -18.9275,38.70352 -22.55698,38.70352 -3.62949,0 -9.26565,-10.45375 -22.55358,-39.76345 -8.96428,-19.77286 -18.03726,-40.809431 -18.94033,-39.835719 -1.25658,4.452849 -8.83187,64.645189 -10.327733,76.694879 -1.806572,14.55274 -5.94172,9.70146 -31.247537,-14.18931 -12.182752,-11.50151 -22.883872,-22.45265 -23.322252,-21.12973 -1.785701,5.38877 13.718458,57.59299 19.447164,62.23394 2.116091,1.71428 3.944477,2.42376 6.779606,1.22954 4.116513,-1.64305 13.15503,-3.37054 22.633745,-5.07358 z M 39.10707,107.29092 C 47.904101,96.628463 36.875904,81.673302 25.306588,86.279449 c -12.752416,5.07718 -10.065022,24.275231 3.604853,24.275231 3.60658,0 8.714606,-1.46869 10.195629,-3.26376 z m 243.29112,-1.54538 c 4.8674,-7.472497 2.79131,-16.832769 -4.92446,-19.86958 -11.70301,-4.606147 -24.50182,7.130647 -15.03628,21.021 4.4615,5.40756 15.71449,5.3675 19.96074,-1.15142 z M 115.8711,45.902877 c -8.0591,-6.04936 -15.52925,-4.265687 -20.18917,1.447833 -4.3691,5.356947 -3.265739,13.456967 1.682965,18.145292 4.948695,4.688325 13.507385,4.243366 18.689545,-0.466542 4.08712,-3.440941 6.58321,-12.347583 -0.18334,-19.126583 z m 89.69788,20.079218 c 4.15661,-2.771254 6.9198,-12.603135 1.35109,-19.037658 -4.75976,-5.499784 -14.47502,-6.47198 -19.56315,-1.925811 -6.33467,5.659933 -7.02245,15.381172 0.11668,21.1672 3.17231,2.599388 11.1018,5.895867 18.09538,-0.203731 z"
     style="display:inline;fill:#000000;fill-opacity:1;stroke-width:2.3039999" />
</svg>
