<?xml version="1.0" encoding="UTF-8" standalone="no"?>
<svg
   xmlns:dc="http://purl.org/dc/elements/1.1/"
   xmlns:cc="http://creativecommons.org/ns#"
   xmlns:rdf="http://www.w3.org/1999/02/22-rdf-syntax-ns#"
   xmlns:svg="http://www.w3.org/2000/svg"
   xmlns="http://www.w3.org/2000/svg"
   xmlns:sodipodi="http://sodipodi.sourceforge.net/DTD/sodipodi-0.dtd"
   xmlns:inkscape="http://www.inkscape.org/namespaces/inkscape"
   version="1.0"
   width="300.000000pt"
   height="300.000000pt"
   viewBox="0 0 300.000000 300.000000"
   preserveAspectRatio="xMidYMid meet"
   id="svg2"
   inkscape:version="0.92.5 (2060ec1f9f, 2020-04-08)"
   sodipodi:docname="wr.svg">
  <defs
     id="defs12">
    <filter
       style="color-interpolation-filters:sRGB;"
       inkscape:label="Drawing"
       id="filter18775">
      <feGaussianBlur
         in="SourceGraphic"
         stdDeviation="5.99659"
         result="blur1"
         id="feGaussianBlur18721" />
      <feConvolveMatrix
         in="blur1"
         targetX="1"
         targetY="1"
         order="3 3"
         kernelMatrix="0 250 0 250 -1010 250 0 250 0 "
         result="convolve1"
         id="feConvolveMatrix18723" />
      <feComposite
         in="convolve1"
         in2="convolve1"
         k1="1"
         k2="1"
         k4="0.04"
         operator="arithmetic"
         result="composite1"
         id="feComposite18725" />
      <feColorMatrix
         in="composite1"
         values="0 0 0 0 0 0 0 0 0 0 0 0 0 0 0 -0.2125 -0.7154 -0.0721 1 0 "
         result="color1"
         id="feColorMatrix18727" />
      <feGaussianBlur
         stdDeviation="0.61"
         result="blur2"
         id="feGaussianBlur18729" />
      <feColorMatrix
         values="1 0 0 0 0 0 1 0 0 0 0 0 1 0 0 0 0 0 2.7 -1 "
         result="color2"
         id="feColorMatrix18731" />
      <feFlood
         flood-color="rgb(255,255,255)"
         result="flood1"
         id="feFlood18733" />
      <feBlend
         in2="color2"
         mode="multiply"
         result="blend1"
         id="feBlend18735" />
      <feComponentTransfer
         in="blend1"
         result="component1"
         id="feComponentTransfer18743">
        <feFuncR
           type="discrete"
           tableValues="0 1 1 1"
           id="feFuncR18737" />
        <feFuncG
           type="discrete"
           tableValues="0 1 1 1"
           id="feFuncG18739" />
        <feFuncB
           type="discrete"
           tableValues="0 1 1 1"
           id="feFuncB18741" />
      </feComponentTransfer>
      <feGaussianBlur
         stdDeviation="0.61"
         result="blur3"
         id="feGaussianBlur18745" />
      <feColorMatrix
         in="blur3"
         values="0 0 0 0 0 0 0 0 0 0 0 0 0 0 0 -0.2125 -0.7154 -0.0721 1 0 "
         result="color3"
         id="feColorMatrix18747" />
      <feColorMatrix
         values="1 0 0 0 0 0 1 0 0 0 0 0 1 0 0 0 0 0 1.9 -0.5 "
         result="color4"
         id="feColorMatrix18749" />
      <feFlood
         flood-color="rgb(0,0,0)"
         result="flood2"
         id="feFlood18751" />
      <feComposite
         in="flood2"
         in2="color4"
         operator="in"
         result="composite2"
         id="feComposite18753" />
      <feComposite
         in="composite2"
         in2="composite2"
         operator="arithmetic"
         k2="1"
         result="composite3"
         id="feComposite18755" />
      <feOffset
         dx="0"
         dy="0"
         result="offset1"
         id="feOffset18757" />
      <feFlood
         in="color4"
         flood-color="rgb(66,66,66)"
         result="flood3"
         id="feFlood18759" />
      <feComposite
         in="flood3"
         in2="color4"
         operator="out"
         result="composite4"
         id="feComposite18761" />
      <feComposite
         in="composite4"
         in2="composite4"
         operator="arithmetic"
         k2="1"
         result="composite5"
         id="feComposite18763" />
      <feMerge
         result="merge1"
         id="feMerge18769">
        <feMergeNode
           in="composite5"
           id="feMergeNode18765" />
        <feMergeNode
           in="offset1"
           id="feMergeNode18767" />
      </feMerge>
      <feColorMatrix
         values="1 0 0 0 0 0 1 0 0 0 0 0 1 0 0 0 0 0 1.3 0 "
         result="color5"
         flood-opacity="0.56"
         id="feColorMatrix18771" />
      <feComposite
         in="color5"
         in2="SourceGraphic"
         operator="in"
         result="composite8"
         id="feComposite18773" />
    </filter>
  </defs>
  <sodipodi:namedview
     pagecolor="#ffffff"
     bordercolor="#666666"
     borderopacity="1"
     objecttolerance="10"
     gridtolerance="10"
     guidetolerance="10"
     inkscape:pageopacity="0"
     inkscape:pageshadow="2"
     inkscape:window-width="1397"
     inkscape:window-height="900"
     id="namedview10"
     showgrid="false"
     inkscape:zoom="2.048335"
     inkscape:cx="121.2564"
     inkscape:cy="131.86753"
     inkscape:window-x="36"
     inkscape:window-y="53"
     inkscape:window-maximized="0"
     inkscape:current-layer="svg2"
     inkscape:pagecheckerboard="true">
    <inkscape:grid
       type="xygrid"
       id="grid842" />
  </sodipodi:namedview>
  <metadata
     id="metadata4">
Created by potrace 1.12, written by Peter Selinger 2001-2015
<rdf:RDF>
  <cc:Work
     rdf:about="">
    <dc:format>image/svg+xml</dc:format>
    <dc:type
       rdf:resource="http://purl.org/dc/dcmitype/StillImage" />
    <dc:title />
  </cc:Work>
</rdf:RDF>
</metadata>
  <path
     style="display:inline;opacity:1;fill:#e3dfd3;fill-opacity:1;stroke-width:2.36101866"
     d="m 210.09766,18.111328 c -8.18291,-0.287107 -17.47342,4.636265 -18.1543,13.53711 -1.03272,4.824041 0.005,10.420762 -0.63672,14.833984 -3.48571,-0.07067 -6.98882,0.853347 -10.44922,0.107422 0.45796,-8.810333 1.93714,-20.971446 -7.08008,-26.205078 -10.53322,-3.62833 -21.8711,-0.852686 -32.72262,-2.173864 -7.9963,-0.470725 -18.90784,-0.784286 -23.05081,7.726598 -2.72303,6.521301 -0.6902,14.559123 -1.77344,20.789062 -3.39716,0.07084 -6.87185,0.675705 -10.20703,-0.242187 0.71259,-8.973674 0.95649,-20.965691 -8.136721,-25.960937 -11.51641,-4.315778 -23.945756,-1.09081 -35.796875,-1.910157 -9.039858,1.496743 -13.722197,11.500893 -11.933594,19.916016 0.33623,15.555371 -1.579314,31.424058 1.3125,46.792969 3.746351,9.417961 13.3188,14.556113 20.404918,21.197494 3.258322,2.52757 6.697924,4.8406 10.364613,6.7361 -6.907078,29.59553 -5.603119,60.66664 -8.990234,90.38476 -7.940447,0.39767 -19.169569,1.43431 -21.700962,10.56396 -3.443829,21.24835 -2.687909,43.20801 1.335727,64.27589 3.266491,8.37119 13.151106,11.4653 21.398289,10.02639 52.431409,0.48672 104.928569,1.28801 157.322419,-0.73538 10.21238,-0.75229 13.93874,-12.27107 14.7832,-20.9082 0.66555,-18.28422 4.00453,-37.22194 -1.53711,-55.10351 -3.72263,-7.45241 -13.61408,-7.79221 -20.93945,-7.86329 -1.22175,-30.38675 -2.97051,-61.0023 -8.08594,-90.91992 11.52489,-5.84692 20.718,-15.543245 29.26758,-24.888669 5.14009,-11.329429 1.18589,-23.952783 2.49218,-35.830079 -0.0911,-9.698477 1.68571,-20.703939 -3.62695,-29.33789 -8.18836,-8.100084 -20.49135,-2.76822 -30.44726,-4.742188 -1.13525,-0.07769 -2.27463,-0.100951 -3.41211,-0.06641 z"
     id="path842"
     inkscape:connector-curvature="0"
     sodipodi:nodetypes="cccccccccccccccccccccccccccccc" />
  <path
     style="display:inline;opacity:1;fill:#000000;fill-opacity:1;stroke-width:2.36101866"
     d="m 232.92321,278.49692 c 1.0848,-0.57395 3.28912,-4.22815 4.57593,-12.97643 1.55233,-10.55336 1.87514,-47.89173 -0.2894,-50.05626 -1.42332,-1.42332 -6.0911,-2.15401 -11.55091,-2.5297 -10.9072,-1.3181 -9.9276,0.91303 -10.75727,-8.21909 -0.0123,-4.54498 -0.85676,-25.74407 -2.20144,-40.08554 -1.28576,-13.71296 -2.23571,-29.25715 -3.98989,-39.52746 -1.57726,-15.89892 -6.5022,-17.78626 2.03769,-19.30958 3.21177,-0.53695 17.80298,-13.274918 26.4638,-21.473067 2.05926,-1.949241 1.41233,-23.975443 1.41386,-35.494052 -0.15557,-19.380183 1.57034,-21.108392 -6.08989,-21.411325 -5.59475,-0.03803 -24.07244,-0.03257 -27.00777,0.210118 -5.36242,0.443355 -4.75094,4.534119 -5.0164,14.951779 -0.80308,15.389747 2.09523,12.860023 -10.3141,13.117582 -5.40284,-0.05777 -10.00802,-0.272079 -13.76863,-0.10147 -5.24967,0.238164 -4.36126,-1.725249 -4.37901,-11.033294 -0.23797,-12.309522 0.45061,-16.255652 -2.65021,-16.449464 -6.58197,-0.548145 -36.35746,-1.684026 -41.93587,-0.129454 -2.5447,1.267992 -1.69618,9.550615 -2.0868,16.449464 0.33599,13.405156 1.20517,11.22162 -11.20856,11.423415 -4.22559,-0.135887 -8.60179,-0.242334 -13.50022,-0.467766 -4.690027,-0.21584 -3.415967,-1.421814 -3.556547,-13.06793 -0.0548,-16.31215 -0.46963,-14.509413 -15.60487,-14.89409 -5.17459,-0.07073 -12.69539,0.160036 -15.38475,0.167275 -8.44304,0.02271 -6.79505,0.887568 -7.14534,22.188133 0.0977,11.326271 -0.72294,32.90338 1.8595,35.208881 9.60784,8.577443 22.32237,19.635995 25.26914,20.520005 9.56022,1.75988 4.64265,5.11004 3.09573,17.30217 -1.47436,10.37517 -3.01246,25.52769 -4.10585,40.59279 -1.04271,14.36659 -2.29768,36.76789 -2.31008,41.31287 -0.0219,8.02136 0.846792,7.07663 -10.66627,8.06331 -5.330376,0.50514 -10.60947,1.33534 -11.69401,2.57516 -1.27159,1.45366 -1.908771,15.06436 -1.906951,30.47203 0.325635,19.16659 1.949654,30.08714 4.333085,32.27883 2.779486,2.68406 32.563145,1.67242 87.302243,1.82872 22.93472,0.12377 60.09544,-0.0826 78.55932,-0.5212 0,0 3.12594,-0.34141 4.21074,-0.91536 z M 71.938022,266.02337 c -1.385854,-3.61787 -2.613738,-38.20604 -0.786443,-41.18471 1.338915,-2.18256 17.105814,-2.29182 33.727351,-2.67545 37.17738,-0.85807 76.28644,-1.26301 109.013,0.80085 13.38248,0.84395 12.56945,1.01489 13.36167,8.23675 0.48195,4.39348 -0.12648,19.53647 -0.58267,25.85539 -0.80456,11.14429 -1.1948,9.15852 -7.755,9.8647 -18.13471,-0.29057 -111.75223,0.5569 -139.274203,0.2232 -4.642202,-0.0563 -7.042558,0.0329 -7.703705,-1.12073 z m 25.040041,-54.92481 c -5.74603,0.27338 2.62103,-75.43067 5.865117,-93.70997 1.59542,-8.98959 -0.0732,-9.9351 14.1589,-9.95866 32.15694,-0.0532 55.65065,0.21545 68.65568,0.23384 8.46737,0.0119 7.84941,1.35371 9.34284,10.11433 5.46226,36.6158 10.28655,92.79264 6.86198,93.32046 -30.81904,-0.58719 -75.00441,-1.11107 -104.884517,0 z M 80.681453,86.58293 c -10.91316,-7.776264 -9.75259,-11.428434 -9.90137,-29.8905 -0.11592,-14.38524 -0.441883,-17.761761 2.58449,-17.975352 1.67345,-0.02041 4.41006,-0.210923 6.17323,-0.143745 7.85171,0.299159 6.77926,-0.652776 6.6179,13.354654 -0.17423,15.125007 2.03232,15.007719 10.85314,15.270381 8.820827,0.262665 25.253147,0.104388 29.366287,0.0301 10.44093,0.01765 9.56501,-1.299614 9.68001,-16.196286 0.36412,-11.990183 0.39018,-12.489145 5.27478,-12.651751 4.13139,-0.13753 6.5757,-0.02784 13.33179,0.175737 9.38108,0.297566 6.74417,0.791563 6.97438,13.034514 0.055,15.460393 -0.40745,15.435593 8.98066,15.574281 12.69585,0.178483 21.62785,0.06015 34.06182,0.05022 7.48138,-0.08343 6.70058,-4.25864 6.75493,-15.732909 0.0518,-10.935475 -0.69225,-12.766431 3.54122,-12.880402 2.20981,-0.05949 5.06491,0.183148 8.47791,0.256608 4.74647,0.102012 3.80695,2.480807 3.60943,17.93437 -0.26927,21.067669 0.65869,19.552736 -8.04893,27.590146 -9.10331,6.314561 -12.6295,10.430124 -17.6221,11.234829 -5.69575,0.918037 -73.11881,0.989211 -97.27493,0.536081 C 91.338713,96.103816 89.730103,93.708183 80.681453,86.58293 Z"
     id="path851"
     inkscape:connector-curvature="0"
     sodipodi:nodetypes="zssccsccsccsccscccccsccscsccsccscccczcssssscsccsscccccccszsccscccssssccccc" />
</svg>
