<?xml version="1.0" encoding="UTF-8" standalone="no"?>
<svg
   viewBox="0 -820 4096 4096"
   version="1.1"
   id="svg6"
   sodipodi:docname="$2.svg"
   inkscape:export-filename="$2.png"
   inkscape:export-xdpi="1"
   inkscape:export-ydpi="1"
   inkscape:version="1.2.1 (9c6d41e410, 2022-07-14)"
   xmlns:inkscape="http://www.inkscape.org/namespaces/inkscape"
   xmlns:sodipodi="http://sodipodi.sourceforge.net/DTD/sodipodi-0.dtd"
   xmlns="http://www.w3.org/2000/svg"
   xmlns:svg="http://www.w3.org/2000/svg">
  <defs
     id="defs10" />
  <sodipodi:namedview
     id="namedview8"
     pagecolor="#ffffff"
     bordercolor="#000000"
     borderopacity="0.25"
     inkscape:showpageshadow="2"
     inkscape:pageopacity="0.0"
     inkscape:pagecheckerboard="0"
     inkscape:deskcolor="#d1d1d1"
     showgrid="false"
     inkscape:zoom="0.057617188"
     inkscape:cx="1509.9661"
     inkscape:cy="668.20339"
     inkscape:window-width="1680"
     inkscape:window-height="987"
     inkscape:window-x="-8"
     inkscape:window-y="-8"
     inkscape:window-maximized="1"
     inkscape:current-layer="svg6" />
  <g
     transform="matrix(1,0,0,-1,1072,2603)"
     id="g4"
     style="fill:#ff6600">
    <path
       fill="currentColor"
       d="m 945,686 q 8,198 56,356 24,78 63.5,189.5 39.5,111.5 91.5,254.5 53,144 88,257.5 35,113.5 51,195.5 8,58 12.5,106.5 4.5,48.5 4.5,86.5 0,172 -66,289 -33,58 -75,102.5 -42,44.5 -92,72.5 -50,29 -103.5,44 -53.5,15 -107.5,15 -69,0 -135,-18.5 -66,-18.5 -128,-54.5 -125,-73 -125,-181 0,-38 19,-70 21,-31 61,-75 21,-22 36.5,-42 15.5,-20 25.5,-37 11,-16 16.5,-36 5.5,-20 5.5,-43 0,-82 -42,-111 -41,-30 -139,-57 -207,16 -207,254 0,93 25,174 25,81 74,147 50,66 115,116.5 65,50.5 144,83.5 159,70 343,77 112,0 260,-50 148,-49 237,-106 242,-172 242,-544 -4,-65 -21.5,-131 -17.5,-66 -47.5,-132 -30,-66 -65,-124.5 -35,-58.5 -74,-110.5 -38,-53 -89.5,-118 Q 1347,1401 1283,1323 1172,1187 1104.5,1027.5 1037,868 1014,686 Z m 45,-271 q 92,0 159,-66 67,-66 67,-159 0,-90 -67,-157 -66,-65 -159,-65 -45,0 -84,16.5 Q 867,1 834,34 801,66 784.5,106 768,146 768,190 q 0,93 65,159 65,66 157,66 z"
       id="path2"
       style="fill:#ff6600" />
  </g>
</svg>
