<svg width="120" height="120" viewBox="0 0 120 120" xmlns="http://www.w3.org/2000/svg">

  <!-- Fondo del documento con doble sombreado -->
  <rect x="25" y="20" width="70" height="90" rx="8" ry="8" fill="#ffffff" stroke="#333" stroke-width="2"/>
  <rect x="28" y="23" width="64" height="84" rx="8" ry="8" fill="none" stroke="#777" stroke-width="1.5"/>

  <!-- Etiqueta de texto PGN -->
  <text x="60" y="45" text-anchor="middle" font-family="Arial" font-size="14" fill="#333" font-weight="bold">PGN</text>

  <!-- Icono de Rey en SVG (dibujo de una pieza) -->
  <path d="M60 55
           L64 55
           L64 58
           L67 58
           L67 63
           L64 63
           L64 74
           L62 76
           L58 74
           L56 74
           L56 63
           L53 63
           L53 58
           L56 58
           L56 55
           Z"
        fill="#000"/>

  <!-- Base del Rey -->
  <rect x="52" y="78" width="16" height="3" fill="#000"/>
  <rect x="50" y="82" width="20" height="3" fill="#000"/>

  <!-- Flecha de exportación debajo del icono -->
  <path d="M60 95 L60 85 M56 89 L60 85 L64 89" fill="none" stroke="#333" stroke-width="2" stroke-linecap="round" />

  <!-- Contorno del documento de fondo -->
  <rect x="25" y="20" width="70" height="90" rx="8" ry="8" fill="none" stroke="#000" stroke-width="2"/>

</svg>
