<?xml version="1.0" encoding="UTF-8" standalone="no"?>
<svg
   id="svg3128"
   height="45"
   width="45"
   version="1.1"
   sodipodi:docname="bp.svg"
   inkscape:version="1.2.1 (9c6d41e410, 2022-07-14)"
   xmlns:inkscape="http://www.inkscape.org/namespaces/inkscape"
   xmlns:sodipodi="http://sodipodi.sourceforge.net/DTD/sodipodi-0.dtd"
   xmlns="http://www.w3.org/2000/svg"
   xmlns:svg="http://www.w3.org/2000/svg">
  <defs
     id="defs14" />
  <sodipodi:namedview
     id="namedview12"
     pagecolor="#ffffff"
     bordercolor="#666666"
     borderopacity="1.0"
     inkscape:showpageshadow="2"
     inkscape:pageopacity="0.0"
     inkscape:pagecheckerboard="0"
     inkscape:deskcolor="#d1d1d1"
     showgrid="false"
     inkscape:zoom="19.822222"
     inkscape:cx="22.5"
     inkscape:cy="22.5"
     inkscape:window-width="1920"
     inkscape:window-height="1137"
     inkscape:window-x="-8"
     inkscape:window-y="-8"
     inkscape:window-maximized="1"
     inkscape:current-layer="svg3128" />
  <g
     id="layer1"
     transform="translate(0.5)">
    <path
       id="path3194"
       d="m 22,9 c -2.208,0 -4,1.792 -4,4 0,0.885 0.294,1.712 0.781,2.375 C 16.829,16.497 15.5,18.588 15.5,21 c 0,2.034 0.942,3.839 2.406,5.031 C 14.907,27.089 10.5,31.578 10.5,39.5 h 23 C 33.5,31.578 29.093,27.089 26.094,26.031 27.558,24.839 28.5,23.034 28.5,21 28.5,18.588 27.171,16.497 25.219,15.375 25.706,14.712 26,13.885 26,13 26,10.792 24.208,9 22,9 Z"
       stroke-dashoffset="10"
       stroke="#000000"
       stroke-linecap="round" />
  </g>
</svg>
