<?xml version="1.0" encoding="UTF-8" standalone="no"?>
<!-- Created with Inkscape (http://www.inkscape.org/) -->

<svg
   version="1.1"
   id="svg2"
   xml:space="preserve"
   width="80.229225"
   height="80.229225"
   viewBox="0 0 80.229225 80.229225"
   sodipodi:docname="wk.svg"
   inkscape:version="1.3 (0e150ed6c4, 2023-07-21)"
   xmlns:inkscape="http://www.inkscape.org/namespaces/inkscape"
   xmlns:sodipodi="http://sodipodi.sourceforge.net/DTD/sodipodi-0.dtd"
   xmlns="http://www.w3.org/2000/svg"
   xmlns:svg="http://www.w3.org/2000/svg"><defs
     id="defs6"><clipPath
       clipPathUnits="userSpaceOnUse"
       id="clipPath26"><path
         d="M 0,0 H 700 V 700 H 0 Z"
         clip-rule="evenodd"
         id="path24" /></clipPath><clipPath
       clipPathUnits="userSpaceOnUse"
       id="clipPath36"><path
         d="M 0,0 H 700 V 700 H 0 Z"
         clip-rule="evenodd"
         id="path34" /></clipPath><clipPath
       clipPathUnits="userSpaceOnUse"
       id="clipPath42"><path
         d="M -1.0028653,-1.0028653 H 701.00286 V 701.00286 H -1.0028653 Z"
         clip-rule="evenodd"
         id="path40" /></clipPath><clipPath
       clipPathUnits="userSpaceOnUse"
       id="clipPath704"><path
         d="M 0,0 H 700 V 700 H 0 Z"
         clip-rule="evenodd"
         id="path702" /></clipPath><clipPath
       clipPathUnits="userSpaceOnUse"
       id="clipPath710"><path
         d="M -1.0028653,-1.0028653 H 701.00286 V 701.00286 H -1.0028653 Z"
         clip-rule="evenodd"
         id="path708" /></clipPath><clipPath
       clipPathUnits="userSpaceOnUse"
       id="clipPath716"><path
         d="m 72.731241,660.88825 h 19.007432 v 32.09169 H 72.731241 Z"
         clip-rule="evenodd"
         id="path714" /></clipPath><clipPath
       clipPathUnits="userSpaceOnUse"
       id="clipPath736"><path
         d="M 0,0 H 700 V 700 H 0 Z"
         clip-rule="evenodd"
         id="path734" /></clipPath><clipPath
       clipPathUnits="userSpaceOnUse"
       id="clipPath746"><path
         d="M 0,0 H 700 V 700 H 0 Z"
         clip-rule="evenodd"
         id="path744" /></clipPath><clipPath
       clipPathUnits="userSpaceOnUse"
       id="clipPath752"><path
         d="M -1.0028653,-1.0028653 H 701.00286 V 701.00286 H -1.0028653 Z"
         clip-rule="evenodd"
         id="path750" /></clipPath><clipPath
       clipPathUnits="userSpaceOnUse"
       id="clipPath770"><path
         d="M 0,0 H 700 V 700 H 0 Z"
         clip-rule="evenodd"
         id="path768" /></clipPath><clipPath
       clipPathUnits="userSpaceOnUse"
       id="clipPath776"><path
         d="M -1.0028653,-1.0028653 H 701.00286 V 701.00286 H -1.0028653 Z"
         clip-rule="evenodd"
         id="path774" /></clipPath><clipPath
       clipPathUnits="userSpaceOnUse"
       id="clipPath782"><path
         d="m 152.25533,660.88825 h 20.41771 v 32.09169 h -20.41771 z"
         clip-rule="evenodd"
         id="path780" /></clipPath><clipPath
       clipPathUnits="userSpaceOnUse"
       id="clipPath802"><path
         d="M 0,0 H 700 V 700 H 0 Z"
         clip-rule="evenodd"
         id="path800" /></clipPath><clipPath
       clipPathUnits="userSpaceOnUse"
       id="clipPath812"><path
         d="M 0,0 H 700 V 700 H 0 Z"
         clip-rule="evenodd"
         id="path810" /></clipPath><clipPath
       clipPathUnits="userSpaceOnUse"
       id="clipPath818"><path
         d="M -1.0028653,-1.0028653 H 701.00286 V 701.00286 H -1.0028653 Z"
         clip-rule="evenodd"
         id="path816" /></clipPath><clipPath
       clipPathUnits="userSpaceOnUse"
       id="clipPath836"><path
         d="M 0,0 H 700 V 700 H 0 Z"
         clip-rule="evenodd"
         id="path834" /></clipPath><clipPath
       clipPathUnits="userSpaceOnUse"
       id="clipPath842"><path
         d="M -1.0028653,-1.0028653 H 701.00286 V 701.00286 H -1.0028653 Z"
         clip-rule="evenodd"
         id="path840" /></clipPath><clipPath
       clipPathUnits="userSpaceOnUse"
       id="clipPath848"><path
         d="m 233.79298,660.88825 h 17.80086 v 32.09169 h -17.80086 z"
         clip-rule="evenodd"
         id="path846" /></clipPath><clipPath
       clipPathUnits="userSpaceOnUse"
       id="clipPath868"><path
         d="M 0,0 H 700 V 700 H 0 Z"
         clip-rule="evenodd"
         id="path866" /></clipPath><clipPath
       clipPathUnits="userSpaceOnUse"
       id="clipPath878"><path
         d="M 0,0 H 700 V 700 H 0 Z"
         clip-rule="evenodd"
         id="path876" /></clipPath><clipPath
       clipPathUnits="userSpaceOnUse"
       id="clipPath884"><path
         d="M -1.0028653,-1.0028653 H 701.00286 V 701.00286 H -1.0028653 Z"
         clip-rule="evenodd"
         id="path882" /></clipPath><clipPath
       clipPathUnits="userSpaceOnUse"
       id="clipPath902"><path
         d="M 0,0 H 700 V 700 H 0 Z"
         clip-rule="evenodd"
         id="path900" /></clipPath><clipPath
       clipPathUnits="userSpaceOnUse"
       id="clipPath908"><path
         d="M -1.0028653,-1.0028653 H 701.00286 V 701.00286 H -1.0028653 Z"
         clip-rule="evenodd"
         id="path906" /></clipPath><clipPath
       clipPathUnits="userSpaceOnUse"
       id="clipPath914"><path
         d="m 312.71378,660.88825 h 20.41771 v 32.09169 h -20.41771 z"
         clip-rule="evenodd"
         id="path912" /></clipPath><clipPath
       clipPathUnits="userSpaceOnUse"
       id="clipPath934"><path
         d="M 0,0 H 700 V 700 H 0 Z"
         clip-rule="evenodd"
         id="path932" /></clipPath><clipPath
       clipPathUnits="userSpaceOnUse"
       id="clipPath944"><path
         d="M 0,0 H 700 V 700 H 0 Z"
         clip-rule="evenodd"
         id="path942" /></clipPath><clipPath
       clipPathUnits="userSpaceOnUse"
       id="clipPath950"><path
         d="M -1.0028653,-1.0028653 H 701.00286 V 701.00286 H -1.0028653 Z"
         clip-rule="evenodd"
         id="path948" /></clipPath><clipPath
       clipPathUnits="userSpaceOnUse"
       id="clipPath968"><path
         d="M 0,0 H 700 V 700 H 0 Z"
         clip-rule="evenodd"
         id="path966" /></clipPath><clipPath
       clipPathUnits="userSpaceOnUse"
       id="clipPath974"><path
         d="M -1.0028653,-1.0028653 H 701.00286 V 701.00286 H -1.0028653 Z"
         clip-rule="evenodd"
         id="path972" /></clipPath><clipPath
       clipPathUnits="userSpaceOnUse"
       id="clipPath980"><path
         d="m 393.2564,660.88825 h 19.79092 v 32.09169 H 393.2564 Z"
         clip-rule="evenodd"
         id="path978" /></clipPath><clipPath
       clipPathUnits="userSpaceOnUse"
       id="clipPath1000"><path
         d="M 0,0 H 700 V 700 H 0 Z"
         clip-rule="evenodd"
         id="path998" /></clipPath><clipPath
       clipPathUnits="userSpaceOnUse"
       id="clipPath1010"><path
         d="M 0,0 H 700 V 700 H 0 Z"
         clip-rule="evenodd"
         id="path1008" /></clipPath><clipPath
       clipPathUnits="userSpaceOnUse"
       id="clipPath1016"><path
         d="M -1.0028653,-1.0028653 H 701.00286 V 701.00286 H -1.0028653 Z"
         clip-rule="evenodd"
         id="path1014" /></clipPath><clipPath
       clipPathUnits="userSpaceOnUse"
       id="clipPath1034"><path
         d="M 0,0 H 700 V 700 H 0 Z"
         clip-rule="evenodd"
         id="path1032" /></clipPath><clipPath
       clipPathUnits="userSpaceOnUse"
       id="clipPath1040"><path
         d="M -1.0028653,-1.0028653 H 701.00286 V 701.00286 H -1.0028653 Z"
         clip-rule="evenodd"
         id="path1038" /></clipPath><clipPath
       clipPathUnits="userSpaceOnUse"
       id="clipPath1046"><path
         d="m 474.80972,660.88825 h 17.14273 v 32.09169 h -17.14273 z"
         clip-rule="evenodd"
         id="path1044" /></clipPath><clipPath
       clipPathUnits="userSpaceOnUse"
       id="clipPath1066"><path
         d="M 0,0 H 700 V 700 H 0 Z"
         clip-rule="evenodd"
         id="path1064" /></clipPath><clipPath
       clipPathUnits="userSpaceOnUse"
       id="clipPath1076"><path
         d="M 0,0 H 700 V 700 H 0 Z"
         clip-rule="evenodd"
         id="path1074" /></clipPath><clipPath
       clipPathUnits="userSpaceOnUse"
       id="clipPath1082"><path
         d="M -1.0028653,-1.0028653 H 701.00286 V 701.00286 H -1.0028653 Z"
         clip-rule="evenodd"
         id="path1080" /></clipPath><clipPath
       clipPathUnits="userSpaceOnUse"
       id="clipPath1100"><path
         d="M 0,0 H 700 V 700 H 0 Z"
         clip-rule="evenodd"
         id="path1098" /></clipPath><clipPath
       clipPathUnits="userSpaceOnUse"
       id="clipPath1106"><path
         d="M -1.0028653,-1.0028653 H 701.00286 V 701.00286 H -1.0028653 Z"
         clip-rule="evenodd"
         id="path1104" /></clipPath><clipPath
       clipPathUnits="userSpaceOnUse"
       id="clipPath1112"><path
         d="m 553.51898,660.88825 h 20.18267 v 32.09169 h -20.18267 z"
         clip-rule="evenodd"
         id="path1110" /></clipPath><clipPath
       clipPathUnits="userSpaceOnUse"
       id="clipPath1132"><path
         d="M 0,0 H 700 V 700 H 0 Z"
         clip-rule="evenodd"
         id="path1130" /></clipPath><clipPath
       clipPathUnits="userSpaceOnUse"
       id="clipPath1142"><path
         d="M 0,0 H 700 V 700 H 0 Z"
         clip-rule="evenodd"
         id="path1140" /></clipPath><clipPath
       clipPathUnits="userSpaceOnUse"
       id="clipPath1148"><path
         d="M -1.0028653,-1.0028653 H 701.00286 V 701.00286 H -1.0028653 Z"
         clip-rule="evenodd"
         id="path1146" /></clipPath><clipPath
       clipPathUnits="userSpaceOnUse"
       id="clipPath1166"><path
         d="M 0,0 H 700 V 700 H 0 Z"
         clip-rule="evenodd"
         id="path1164" /></clipPath><clipPath
       clipPathUnits="userSpaceOnUse"
       id="clipPath1172"><path
         d="M -1.0028653,-1.0028653 H 701.00286 V 701.00286 H -1.0028653 Z"
         clip-rule="evenodd"
         id="path1170" /></clipPath><clipPath
       clipPathUnits="userSpaceOnUse"
       id="clipPath1178"><path
         d="m 633.81872,660.88825 h 20.04164 v 32.09169 h -20.04164 z"
         clip-rule="evenodd"
         id="path1176" /></clipPath><clipPath
       clipPathUnits="userSpaceOnUse"
       id="clipPath1198"><path
         d="M 0,0 H 700 V 700 H 0 Z"
         clip-rule="evenodd"
         id="path1196" /></clipPath><clipPath
       clipPathUnits="userSpaceOnUse"
       id="clipPath1208"><path
         d="M 0,0 H 700 V 700 H 0 Z"
         clip-rule="evenodd"
         id="path1206" /></clipPath><clipPath
       clipPathUnits="userSpaceOnUse"
       id="clipPath1214"><path
         d="M -1.0028653,-1.0028653 H 701.00286 V 701.00286 H -1.0028653 Z"
         clip-rule="evenodd"
         id="path1212" /></clipPath><clipPath
       clipPathUnits="userSpaceOnUse"
       id="clipPath1232"><path
         d="M 0,0 H 700 V 700 H 0 Z"
         clip-rule="evenodd"
         id="path1230" /></clipPath><clipPath
       clipPathUnits="userSpaceOnUse"
       id="clipPath1238"><path
         d="M -1.0028653,-1.0028653 H 701.00286 V 701.00286 H -1.0028653 Z"
         clip-rule="evenodd"
         id="path1236" /></clipPath><clipPath
       clipPathUnits="userSpaceOnUse"
       id="clipPath1244"><path
         d="m 10.028653,596.70487 h 19.900609 v 32.09169 H 10.028653 Z"
         clip-rule="evenodd"
         id="path1242" /></clipPath><clipPath
       clipPathUnits="userSpaceOnUse"
       id="clipPath1264"><path
         d="M 0,0 H 700 V 700 H 0 Z"
         clip-rule="evenodd"
         id="path1262" /></clipPath><clipPath
       clipPathUnits="userSpaceOnUse"
       id="clipPath1274"><path
         d="M 0,0 H 700 V 700 H 0 Z"
         clip-rule="evenodd"
         id="path1272" /></clipPath><clipPath
       clipPathUnits="userSpaceOnUse"
       id="clipPath1280"><path
         d="M -1.0028653,-1.0028653 H 701.00286 V 701.00286 H -1.0028653 Z"
         clip-rule="evenodd"
         id="path1278" /></clipPath><clipPath
       clipPathUnits="userSpaceOnUse"
       id="clipPath1298"><path
         d="M 0,0 H 700 V 700 H 0 Z"
         clip-rule="evenodd"
         id="path1296" /></clipPath><clipPath
       clipPathUnits="userSpaceOnUse"
       id="clipPath1304"><path
         d="M -1.0028653,-1.0028653 H 701.00286 V 701.00286 H -1.0028653 Z"
         clip-rule="evenodd"
         id="path1302" /></clipPath><clipPath
       clipPathUnits="userSpaceOnUse"
       id="clipPath1310"><path
         d="m 10.028653,516.47564 h 19.900609 v 32.09169 H 10.028653 Z"
         clip-rule="evenodd"
         id="path1308" /></clipPath><clipPath
       clipPathUnits="userSpaceOnUse"
       id="clipPath1330"><path
         d="M 0,0 H 700 V 700 H 0 Z"
         clip-rule="evenodd"
         id="path1328" /></clipPath><clipPath
       clipPathUnits="userSpaceOnUse"
       id="clipPath1340"><path
         d="M 0,0 H 700 V 700 H 0 Z"
         clip-rule="evenodd"
         id="path1338" /></clipPath><clipPath
       clipPathUnits="userSpaceOnUse"
       id="clipPath1346"><path
         d="M -1.0028653,-1.0028653 H 701.00286 V 701.00286 H -1.0028653 Z"
         clip-rule="evenodd"
         id="path1344" /></clipPath><clipPath
       clipPathUnits="userSpaceOnUse"
       id="clipPath1364"><path
         d="M 0,0 H 700 V 700 H 0 Z"
         clip-rule="evenodd"
         id="path1362" /></clipPath><clipPath
       clipPathUnits="userSpaceOnUse"
       id="clipPath1370"><path
         d="M -1.0028653,-1.0028653 H 701.00286 V 701.00286 H -1.0028653 Z"
         clip-rule="evenodd"
         id="path1368" /></clipPath><clipPath
       clipPathUnits="userSpaceOnUse"
       id="clipPath1376"><path
         d="m 10.028653,436.24642 h 19.900609 v 32.09169 H 10.028653 Z"
         clip-rule="evenodd"
         id="path1374" /></clipPath><clipPath
       clipPathUnits="userSpaceOnUse"
       id="clipPath1396"><path
         d="M 0,0 H 700 V 700 H 0 Z"
         clip-rule="evenodd"
         id="path1394" /></clipPath><clipPath
       clipPathUnits="userSpaceOnUse"
       id="clipPath1406"><path
         d="M 0,0 H 700 V 700 H 0 Z"
         clip-rule="evenodd"
         id="path1404" /></clipPath><clipPath
       clipPathUnits="userSpaceOnUse"
       id="clipPath1412"><path
         d="M -1.0028653,-1.0028653 H 701.00286 V 701.00286 H -1.0028653 Z"
         clip-rule="evenodd"
         id="path1410" /></clipPath><clipPath
       clipPathUnits="userSpaceOnUse"
       id="clipPath1430"><path
         d="M 0,0 H 700 V 700 H 0 Z"
         clip-rule="evenodd"
         id="path1428" /></clipPath><clipPath
       clipPathUnits="userSpaceOnUse"
       id="clipPath1436"><path
         d="M -1.0028653,-1.0028653 H 701.00286 V 701.00286 H -1.0028653 Z"
         clip-rule="evenodd"
         id="path1434" /></clipPath><clipPath
       clipPathUnits="userSpaceOnUse"
       id="clipPath1442"><path
         d="m 10.028653,356.01719 h 19.900609 v 32.09169 H 10.028653 Z"
         clip-rule="evenodd"
         id="path1440" /></clipPath><clipPath
       clipPathUnits="userSpaceOnUse"
       id="clipPath1462"><path
         d="M 0,0 H 700 V 700 H 0 Z"
         clip-rule="evenodd"
         id="path1460" /></clipPath><clipPath
       clipPathUnits="userSpaceOnUse"
       id="clipPath1472"><path
         d="M 0,0 H 700 V 700 H 0 Z"
         clip-rule="evenodd"
         id="path1470" /></clipPath><clipPath
       clipPathUnits="userSpaceOnUse"
       id="clipPath1478"><path
         d="M -1.0028653,-1.0028653 H 701.00286 V 701.00286 H -1.0028653 Z"
         clip-rule="evenodd"
         id="path1476" /></clipPath><clipPath
       clipPathUnits="userSpaceOnUse"
       id="clipPath1496"><path
         d="M 0,0 H 700 V 700 H 0 Z"
         clip-rule="evenodd"
         id="path1494" /></clipPath><clipPath
       clipPathUnits="userSpaceOnUse"
       id="clipPath1502"><path
         d="M -1.0028653,-1.0028653 H 701.00286 V 701.00286 H -1.0028653 Z"
         clip-rule="evenodd"
         id="path1500" /></clipPath><clipPath
       clipPathUnits="userSpaceOnUse"
       id="clipPath1508"><path
         d="m 10.028653,275.78796 h 19.900609 v 32.0917 H 10.028653 Z"
         clip-rule="evenodd"
         id="path1506" /></clipPath><clipPath
       clipPathUnits="userSpaceOnUse"
       id="clipPath1528"><path
         d="M 0,0 H 700 V 700 H 0 Z"
         clip-rule="evenodd"
         id="path1526" /></clipPath><clipPath
       clipPathUnits="userSpaceOnUse"
       id="clipPath1538"><path
         d="M 0,0 H 700 V 700 H 0 Z"
         clip-rule="evenodd"
         id="path1536" /></clipPath><clipPath
       clipPathUnits="userSpaceOnUse"
       id="clipPath1544"><path
         d="M -1.0028653,-1.0028653 H 701.00286 V 701.00286 H -1.0028653 Z"
         clip-rule="evenodd"
         id="path1542" /></clipPath><clipPath
       clipPathUnits="userSpaceOnUse"
       id="clipPath1562"><path
         d="M 0,0 H 700 V 700 H 0 Z"
         clip-rule="evenodd"
         id="path1560" /></clipPath><clipPath
       clipPathUnits="userSpaceOnUse"
       id="clipPath1568"><path
         d="M -1.0028653,-1.0028653 H 701.00286 V 701.00286 H -1.0028653 Z"
         clip-rule="evenodd"
         id="path1566" /></clipPath><clipPath
       clipPathUnits="userSpaceOnUse"
       id="clipPath1574"><path
         d="m 10.028653,195.55874 h 19.900609 v 32.09169 H 10.028653 Z"
         clip-rule="evenodd"
         id="path1572" /></clipPath><clipPath
       clipPathUnits="userSpaceOnUse"
       id="clipPath1594"><path
         d="M 0,0 H 700 V 700 H 0 Z"
         clip-rule="evenodd"
         id="path1592" /></clipPath><clipPath
       clipPathUnits="userSpaceOnUse"
       id="clipPath1604"><path
         d="M 0,0 H 700 V 700 H 0 Z"
         clip-rule="evenodd"
         id="path1602" /></clipPath><clipPath
       clipPathUnits="userSpaceOnUse"
       id="clipPath1610"><path
         d="M -1.0028653,-1.0028653 H 701.00286 V 701.00286 H -1.0028653 Z"
         clip-rule="evenodd"
         id="path1608" /></clipPath><clipPath
       clipPathUnits="userSpaceOnUse"
       id="clipPath1628"><path
         d="M 0,0 H 700 V 700 H 0 Z"
         clip-rule="evenodd"
         id="path1626" /></clipPath><clipPath
       clipPathUnits="userSpaceOnUse"
       id="clipPath1634"><path
         d="M -1.0028653,-1.0028653 H 701.00286 V 701.00286 H -1.0028653 Z"
         clip-rule="evenodd"
         id="path1632" /></clipPath><clipPath
       clipPathUnits="userSpaceOnUse"
       id="clipPath1640"><path
         d="M 10.028653,115.32951 H 29.929262 V 147.4212 H 10.028653 Z"
         clip-rule="evenodd"
         id="path1638" /></clipPath><clipPath
       clipPathUnits="userSpaceOnUse"
       id="clipPath1660"><path
         d="M 0,0 H 700 V 700 H 0 Z"
         clip-rule="evenodd"
         id="path1658" /></clipPath><clipPath
       clipPathUnits="userSpaceOnUse"
       id="clipPath1670"><path
         d="M 0,0 H 700 V 700 H 0 Z"
         clip-rule="evenodd"
         id="path1668" /></clipPath><clipPath
       clipPathUnits="userSpaceOnUse"
       id="clipPath1676"><path
         d="M -1.0028653,-1.0028653 H 701.00286 V 701.00286 H -1.0028653 Z"
         clip-rule="evenodd"
         id="path1674" /></clipPath><clipPath
       clipPathUnits="userSpaceOnUse"
       id="clipPath1694"><path
         d="M 0,0 H 700 V 700 H 0 Z"
         clip-rule="evenodd"
         id="path1692" /></clipPath><clipPath
       clipPathUnits="userSpaceOnUse"
       id="clipPath1700"><path
         d="M -1.0028653,-1.0028653 H 701.00286 V 701.00286 H -1.0028653 Z"
         clip-rule="evenodd"
         id="path1698" /></clipPath><clipPath
       clipPathUnits="userSpaceOnUse"
       id="clipPath1706"><path
         d="M 10.028653,35.100286 H 29.929262 V 67.191977 H 10.028653 Z"
         clip-rule="evenodd"
         id="path1704" /></clipPath><clipPath
       clipPathUnits="userSpaceOnUse"
       id="clipPath1726"><path
         d="M 0,0 H 700 V 700 H 0 Z"
         clip-rule="evenodd"
         id="path1724" /></clipPath><clipPath
       clipPathUnits="userSpaceOnUse"
       id="clipPath1736"><path
         d="M 0,0 H 700 V 700 H 0 Z"
         clip-rule="evenodd"
         id="path1734" /></clipPath><clipPath
       clipPathUnits="userSpaceOnUse"
       id="clipPath1742"><path
         d="M -1.0028653,-1.0028653 H 701.00286 V 701.00286 H -1.0028653 Z"
         clip-rule="evenodd"
         id="path1740" /></clipPath></defs><sodipodi:namedview
     id="namedview4"
     pagecolor="#ffffff"
     bordercolor="#666666"
     borderopacity="1.0"
     inkscape:pageshadow="2"
     inkscape:pageopacity="0.0"
     inkscape:pagecheckerboard="0"
     showgrid="false"
     inkscape:zoom="1.2057143"
     inkscape:cx="190.3436"
     inkscape:cy="60.959715"
     inkscape:window-width="1920"
     inkscape:window-height="1129"
     inkscape:window-x="-8"
     inkscape:window-y="-8"
     inkscape:window-maximized="1"
     inkscape:current-layer="g8"
     fit-margin-top="0"
     fit-margin-left="0"
     fit-margin-right="0"
     fit-margin-bottom="0"
     inkscape:showpageshadow="2"
     inkscape:deskcolor="#d1d1d1" /><g
     id="g8"
     inkscape:groupmode="layer"
     inkscape:label="board"
     transform="matrix(1.3333333,0,0,-1.3333333,-42.120343,608.73924)"><g
       id="g12"
       transform="matrix(0.75,0,0,-0.75,0,525)"><g
         id="g14" /></g><g
       id="g16"
       transform="matrix(0.75,0,0,-0.75,0,525)"><g
         id="g18" /></g><g
       id="g20"
       transform="matrix(0.75,0,0,-0.75,0,525)"><g
         id="g22"
         clip-path="url(#clipPath26)"><g
           id="g28" /></g></g><g
       id="g44"
       transform="matrix(0.75,0,0,-0.75,0,525)" /><g
       id="g46"
       transform="matrix(0.75,0,0,-0.75,0,525)" /><g
       id="g48"
       transform="matrix(0.75,0,0,-0.75,0,525)" /><g
       id="g56"
       transform="matrix(0.75214898,0,0,-0.75214898,31.590258,516.72636)" /><g
       id="g58"
       transform="matrix(0.75214898,0,0,-0.75214898,31.590258,516.72636)" /><g
       id="g66"
       transform="matrix(0.75214898,0,0,-0.75214898,31.590258,516.72636)" /><g
       id="g68"
       transform="matrix(0.75214898,0,0,-0.75214898,31.590258,516.72636)" /><g
       id="g76"
       transform="matrix(0.75214898,0,0,-0.75214898,31.590258,516.72636)" /><g
       id="g78"
       transform="matrix(0.75214898,0,0,-0.75214898,31.590258,516.72636)" /><g
       id="g86"
       transform="matrix(0.75214898,0,0,-0.75214898,31.590258,516.72636)" /><g
       id="g88"
       transform="matrix(0.75214898,0,0,-0.75214898,31.590258,516.72636)" /><g
       id="g96"
       transform="matrix(0.75214898,0,0,-0.75214898,31.590258,516.72636)" /><g
       id="g98"
       transform="matrix(0.75214898,0,0,-0.75214898,31.590258,516.72636)" /><g
       id="g106"
       transform="matrix(0.75214898,0,0,-0.75214898,31.590258,516.72636)" /><g
       id="g108"
       transform="matrix(0.75214898,0,0,-0.75214898,31.590258,516.72636)" /><g
       id="g116"
       transform="matrix(0.75214898,0,0,-0.75214898,31.590258,516.72636)" /><g
       id="g118"
       transform="matrix(0.75214898,0,0,-0.75214898,31.590258,516.72636)" /><g
       id="g126"
       transform="matrix(0.75214898,0,0,-0.75214898,31.590258,516.72636)" /><g
       id="g128"
       transform="matrix(0.75214898,0,0,-0.75214898,31.590258,516.72636)" /><g
       id="g136"
       transform="matrix(0.75214898,0,0,-0.75214898,31.590258,516.72636)" /><g
       id="g138"
       transform="matrix(0.75214898,0,0,-0.75214898,31.590258,516.72636)" /><g
       id="g146"
       transform="matrix(0.75214898,0,0,-0.75214898,31.590258,516.72636)" /><g
       id="g148"
       transform="matrix(0.75214898,0,0,-0.75214898,31.590258,516.72636)" /><g
       id="g156"
       transform="matrix(0.75214898,0,0,-0.75214898,31.590258,516.72636)" /><g
       id="g158"
       transform="matrix(0.75214898,0,0,-0.75214898,31.590258,516.72636)" /><g
       id="g166"
       transform="matrix(0.75214898,0,0,-0.75214898,31.590258,516.72636)" /><g
       id="g168"
       transform="matrix(0.75214898,0,0,-0.75214898,31.590258,516.72636)" /><g
       id="g176"
       transform="matrix(0.75214898,0,0,-0.75214898,31.590258,516.72636)" /><g
       id="g178"
       transform="matrix(0.75214898,0,0,-0.75214898,31.590258,516.72636)" /><g
       id="g186"
       transform="matrix(0.75214898,0,0,-0.75214898,31.590258,516.72636)" /><g
       id="g188"
       transform="matrix(0.75214898,0,0,-0.75214898,31.590258,516.72636)" /><g
       id="g196"
       transform="matrix(0.75214898,0,0,-0.75214898,31.590258,516.72636)" /><g
       id="g198"
       transform="matrix(0.75214898,0,0,-0.75214898,31.590258,516.72636)" /><g
       id="g206"
       transform="matrix(0.75214898,0,0,-0.75214898,31.590258,516.72636)" /><g
       id="g208"
       transform="matrix(0.75214898,0,0,-0.75214898,31.590258,516.72636)" /><g
       id="g216"
       transform="matrix(0.75214898,0,0,-0.75214898,31.590258,516.72636)" /><g
       id="g218"
       transform="matrix(0.75214898,0,0,-0.75214898,31.590258,516.72636)" /><g
       id="g226"
       transform="matrix(0.75214898,0,0,-0.75214898,31.590258,516.72636)" /><g
       id="g228"
       transform="matrix(0.75214898,0,0,-0.75214898,31.590258,516.72636)" /><g
       id="g236"
       transform="matrix(0.75214898,0,0,-0.75214898,31.590258,516.72636)" /><g
       id="g238"
       transform="matrix(0.75214898,0,0,-0.75214898,31.590258,516.72636)" /><g
       id="g246"
       transform="matrix(0.75214898,0,0,-0.75214898,31.590258,516.72636)" /><g
       id="g248"
       transform="matrix(0.75214898,0,0,-0.75214898,31.590258,516.72636)" /><g
       id="g256"
       transform="matrix(0.75214898,0,0,-0.75214898,31.590258,516.72636)" /><g
       id="g258"
       transform="matrix(0.75214898,0,0,-0.75214898,31.590258,516.72636)" /><g
       id="g266"
       transform="matrix(0.75214898,0,0,-0.75214898,31.590258,516.72636)" /><g
       id="g268"
       transform="matrix(0.75214898,0,0,-0.75214898,31.590258,516.72636)" /><g
       id="g276"
       transform="matrix(0.75214898,0,0,-0.75214898,31.590258,516.72636)" /><g
       id="g278"
       transform="matrix(0.75214898,0,0,-0.75214898,31.590258,516.72636)" /><g
       id="g286"
       transform="matrix(0.75214898,0,0,-0.75214898,31.590258,516.72636)" /><g
       id="g288"
       transform="matrix(0.75214898,0,0,-0.75214898,31.590258,516.72636)" /><g
       id="g296"
       transform="matrix(0.75214898,0,0,-0.75214898,31.590258,516.72636)" /><g
       id="g298"
       transform="matrix(0.75214898,0,0,-0.75214898,31.590258,516.72636)" /><g
       id="g306"
       transform="matrix(0.75214898,0,0,-0.75214898,31.590258,516.72636)" /><g
       id="g308"
       transform="matrix(0.75214898,0,0,-0.75214898,31.590258,516.72636)" /><g
       id="g316"
       transform="matrix(0.75214898,0,0,-0.75214898,31.590258,516.72636)" /><g
       id="g318"
       transform="matrix(0.75214898,0,0,-0.75214898,31.590258,516.72636)" /><g
       id="g326"
       transform="matrix(0.75214898,0,0,-0.75214898,31.590258,516.72636)" /><g
       id="g328"
       transform="matrix(0.75214898,0,0,-0.75214898,31.590258,516.72636)" /><g
       id="g336"
       transform="matrix(0.75214898,0,0,-0.75214898,31.590258,516.72636)" /><g
       id="g338"
       transform="matrix(0.75214898,0,0,-0.75214898,31.590258,516.72636)" /><g
       id="g346"
       transform="matrix(0.75214898,0,0,-0.75214898,31.590258,516.72636)" /><g
       id="g348"
       transform="matrix(0.75214898,0,0,-0.75214898,31.590258,516.72636)" /><g
       id="g356"
       transform="matrix(0.75214898,0,0,-0.75214898,31.590258,516.72636)" /><g
       id="g358"
       transform="matrix(0.75214898,0,0,-0.75214898,31.590258,516.72636)" /><g
       id="g366"
       transform="matrix(0.75214898,0,0,-0.75214898,31.590258,516.72636)" /><g
       id="g368"
       transform="matrix(0.75214898,0,0,-0.75214898,31.590258,516.72636)" /><g
       id="g370"
       transform="matrix(0.75214898,0,0,-0.75214898,31.590258,516.72636)" /><g
       id="g378"
       transform="matrix(0.75214898,0,0,-0.75214898,31.590258,516.72636)" /><g
       id="g380"
       transform="matrix(0.75214898,0,0,-0.75214898,31.590258,516.72636)" /><g
       id="g388"
       transform="matrix(0.75214898,0,0,-0.75214898,31.590258,516.72636)" /><g
       id="g390"
       transform="matrix(0.75214898,0,0,-0.75214898,31.590258,516.72636)" /><g
       id="g398"
       transform="matrix(0.75214898,0,0,-0.75214898,31.590258,516.72636)" /><g
       id="g400"
       transform="matrix(0.75214898,0,0,-0.75214898,31.590258,516.72636)" /><g
       id="g408"
       transform="matrix(0.75214898,0,0,-0.75214898,31.590258,516.72636)" /><g
       id="g410"
       transform="matrix(0.75214898,0,0,-0.75214898,31.590258,516.72636)" /><g
       id="g418"
       transform="matrix(0.75214898,0,0,-0.75214898,31.590258,516.72636)" /><g
       id="g420"
       transform="matrix(0.75214898,0,0,-0.75214898,31.590258,516.72636)" /><g
       id="g428"
       transform="matrix(0.75214898,0,0,-0.75214898,31.590258,516.72636)" /><g
       id="g430"
       transform="matrix(0.75214898,0,0,-0.75214898,31.590258,516.72636)" /><g
       id="g438"
       transform="matrix(0.75214898,0,0,-0.75214898,31.590258,516.72636)" /><g
       id="g440"
       transform="matrix(0.75214898,0,0,-0.75214898,31.590258,516.72636)" /><g
       id="g448"
       transform="matrix(0.75214898,0,0,-0.75214898,31.590258,516.72636)" /><g
       id="g450"
       transform="matrix(0.75214898,0,0,-0.75214898,31.590258,516.72636)" /><g
       id="g458"
       transform="matrix(0.75214898,0,0,-0.75214898,31.590258,516.72636)" /><g
       id="g460"
       transform="matrix(0.75214898,0,0,-0.75214898,31.590258,516.72636)" /><g
       id="g468"
       transform="matrix(0.75214898,0,0,-0.75214898,31.590258,516.72636)" /><g
       id="g470"
       transform="matrix(0.75214898,0,0,-0.75214898,31.590258,516.72636)" /><g
       id="g478"
       transform="matrix(0.75214898,0,0,-0.75214898,31.590258,516.72636)" /><g
       id="g480"
       transform="matrix(0.75214898,0,0,-0.75214898,31.590258,516.72636)" /><g
       id="g488"
       transform="matrix(0.75214898,0,0,-0.75214898,31.590258,516.72636)" /><g
       id="g490"
       transform="matrix(0.75214898,0,0,-0.75214898,31.590258,516.72636)" /><g
       id="g498"
       transform="matrix(0.75214898,0,0,-0.75214898,31.590258,516.72636)" /><g
       id="g500"
       transform="matrix(0.75214898,0,0,-0.75214898,31.590258,516.72636)" /><g
       id="g508"
       transform="matrix(0.75214898,0,0,-0.75214898,31.590258,516.72636)" /><g
       id="g510"
       transform="matrix(0.75214898,0,0,-0.75214898,31.590258,516.72636)" /><g
       id="g518"
       transform="matrix(0.75214898,0,0,-0.75214898,31.590258,516.72636)" /><g
       id="g520"
       transform="matrix(0.75214898,0,0,-0.75214898,31.590258,516.72636)" /><g
       id="g528"
       transform="matrix(0.75214898,0,0,-0.75214898,31.590258,516.72636)" /><g
       id="g530"
       transform="matrix(0.75214898,0,0,-0.75214898,31.590258,516.72636)" /><g
       id="g538"
       transform="matrix(0.75214898,0,0,-0.75214898,31.590258,516.72636)" /><g
       id="g540"
       transform="matrix(0.75214898,0,0,-0.75214898,31.590258,516.72636)" /><g
       id="g548"
       transform="matrix(0.75214898,0,0,-0.75214898,31.590258,516.72636)" /><g
       id="g550"
       transform="matrix(0.75214898,0,0,-0.75214898,31.590258,516.72636)" /><g
       id="g558"
       transform="matrix(0.75214898,0,0,-0.75214898,31.590258,516.72636)" /><g
       id="g560"
       transform="matrix(0.75214898,0,0,-0.75214898,31.590258,516.72636)" /><g
       id="g568"
       transform="matrix(0.75214898,0,0,-0.75214898,31.590258,516.72636)" /><g
       id="g570"
       transform="matrix(0.75214898,0,0,-0.75214898,31.590258,516.72636)" /><g
       id="g578"
       transform="matrix(0.75214898,0,0,-0.75214898,31.590258,516.72636)" /><g
       id="g580"
       transform="matrix(0.75214898,0,0,-0.75214898,31.590258,516.72636)" /><g
       id="g588"
       transform="matrix(0.75214898,0,0,-0.75214898,31.590258,516.72636)" /><g
       id="g590"
       transform="matrix(0.75214898,0,0,-0.75214898,31.590258,516.72636)" /><g
       id="g598"
       transform="matrix(0.75214898,0,0,-0.75214898,31.590258,516.72636)" /><g
       id="g600"
       transform="matrix(0.75214898,0,0,-0.75214898,31.590258,516.72636)" /><g
       id="g608"
       transform="matrix(0.75214898,0,0,-0.75214898,31.590258,516.72636)" /><g
       id="g610"
       transform="matrix(0.75214898,0,0,-0.75214898,31.590258,516.72636)" /><g
       id="g618"
       transform="matrix(0.75214898,0,0,-0.75214898,31.590258,516.72636)" /><g
       id="g620"
       transform="matrix(0.75214898,0,0,-0.75214898,31.590258,516.72636)" /><g
       id="g628"
       transform="matrix(0.75214898,0,0,-0.75214898,31.590258,516.72636)" /><g
       id="g630"
       transform="matrix(0.75214898,0,0,-0.75214898,31.590258,516.72636)" /><g
       id="g638"
       transform="matrix(0.75214898,0,0,-0.75214898,31.590258,516.72636)" /><g
       id="g640"
       transform="matrix(0.75214898,0,0,-0.75214898,31.590258,516.72636)" /><g
       id="g648"
       transform="matrix(0.75214898,0,0,-0.75214898,31.590258,516.72636)" /><g
       id="g650"
       transform="matrix(0.75214898,0,0,-0.75214898,31.590258,516.72636)" /><g
       id="g658"
       transform="matrix(0.75214898,0,0,-0.75214898,31.590258,516.72636)" /><g
       id="g660"
       transform="matrix(0.75214898,0,0,-0.75214898,31.590258,516.72636)" /><g
       id="g668"
       transform="matrix(0.75214898,0,0,-0.75214898,31.590258,516.72636)" /><g
       id="g670"
       transform="matrix(0.75214898,0,0,-0.75214898,31.590258,516.72636)" /><g
       id="g678"
       transform="matrix(0.75214898,0,0,-0.75214898,31.590258,516.72636)" /><g
       id="g680"
       transform="matrix(0.75214898,0,0,-0.75214898,31.590258,516.72636)" /><g
       id="g688"
       transform="matrix(0.75214898,0,0,-0.75214898,31.590258,516.72636)" /><g
       id="g694"
       transform="matrix(0.75214898,0,0,-0.75214898,54.548431,29.333813)" /><g
       id="g696"
       transform="matrix(0.75214898,0,0,-0.75214898,54.548431,29.333813)" /><g
       id="g726"
       transform="matrix(0.75,0,0,-0.75,0,525)"><g
         id="g728"
         transform="matrix(1.0028653,0,0,1.0028653,72.731241,660.88825)" /></g><g
       id="g730"
       transform="matrix(0.75,0,0,-0.75,0,525)"><g
         id="g732"
         clip-path="url(#clipPath736)"><g
           id="g738" /></g></g><g
       id="g740"
       transform="matrix(0.75,0,0,-0.75,0,525)"><g
         id="g742"
         clip-path="url(#clipPath746)"><g
           id="g748"
           clip-path="url(#clipPath752)"><g
             id="g754" /><g
             id="g756"
             transform="matrix(1.0028653,0,0,1.0028653,72.731241,660.88825)" /><g
             id="g758"
             transform="matrix(1.0028653,0,0,1.0028653,72.731241,660.88825)" /><g
             id="g760"
             transform="matrix(1.0028653,0,0,1.0028653,152.25533,660.88825)" /><g
             id="g762"
             transform="matrix(1.0028653,0,0,1.0028653,152.25533,660.88825)" /></g></g></g><g
       id="g792"
       transform="matrix(0.75,0,0,-0.75,0,525)"><g
         id="g794"
         transform="matrix(1.0028653,0,0,1.0028653,152.25533,660.88825)" /></g><g
       id="g796"
       transform="matrix(0.75,0,0,-0.75,0,525)"><g
         id="g798"
         clip-path="url(#clipPath802)"><g
           id="g804" /></g></g><g
       id="g806"
       transform="matrix(0.75,0,0,-0.75,0,525)"><g
         id="g808"
         clip-path="url(#clipPath812)"><g
           id="g814"
           clip-path="url(#clipPath818)"><g
             id="g820" /><g
             id="g822"
             transform="matrix(1.0028653,0,0,1.0028653,152.25533,660.88825)" /><g
             id="g824"
             transform="matrix(1.0028653,0,0,1.0028653,152.25533,660.88825)" /><g
             id="g826"
             transform="matrix(1.0028653,0,0,1.0028653,233.79298,660.88825)" /><g
             id="g828"
             transform="matrix(1.0028653,0,0,1.0028653,233.79298,660.88825)" /></g></g></g><g
       id="g858"
       transform="matrix(0.75,0,0,-0.75,0,525)"><g
         id="g860"
         transform="matrix(1.0028653,0,0,1.0028653,233.79298,660.88825)" /></g><g
       id="g862"
       transform="matrix(0.75,0,0,-0.75,0,525)"><g
         id="g864"
         clip-path="url(#clipPath868)"><g
           id="g870" /></g></g><g
       id="g872"
       transform="matrix(0.75,0,0,-0.75,0,525)"><g
         id="g874"
         clip-path="url(#clipPath878)"><g
           id="g880"
           clip-path="url(#clipPath884)"><g
             id="g886" /><g
             id="g888"
             transform="matrix(1.0028653,0,0,1.0028653,233.79298,660.88825)" /><g
             id="g890"
             transform="matrix(1.0028653,0,0,1.0028653,233.79298,660.88825)" /><g
             id="g892"
             transform="matrix(1.0028653,0,0,1.0028653,312.71378,660.88825)" /><g
             id="g894"
             transform="matrix(1.0028653,0,0,1.0028653,312.71378,660.88825)" /></g></g></g><g
       id="g924"
       transform="matrix(0.75,0,0,-0.75,0,525)"><g
         id="g926"
         transform="matrix(1.0028653,0,0,1.0028653,312.71378,660.88825)" /></g><g
       id="g928"
       transform="matrix(0.75,0,0,-0.75,0,525)"><g
         id="g930"
         clip-path="url(#clipPath934)"><g
           id="g936" /></g></g><g
       id="g938"
       transform="matrix(0.75,0,0,-0.75,0,525)"><g
         id="g940"
         clip-path="url(#clipPath944)"><g
           id="g946"
           clip-path="url(#clipPath950)"><g
             id="g952" /><g
             id="g954"
             transform="matrix(1.0028653,0,0,1.0028653,312.71378,660.88825)" /><g
             id="g956"
             transform="matrix(1.0028653,0,0,1.0028653,312.71378,660.88825)" /><g
             id="g958"
             transform="matrix(1.0028653,0,0,1.0028653,393.2564,660.88825)" /><g
             id="g960"
             transform="matrix(1.0028653,0,0,1.0028653,393.2564,660.88825)" /></g></g></g><g
       id="g990"
       transform="matrix(0.75,0,0,-0.75,0,525)"><g
         id="g992"
         transform="matrix(1.0028653,0,0,1.0028653,393.2564,660.88825)" /></g><g
       id="g994"
       transform="matrix(0.75,0,0,-0.75,0,525)"><g
         id="g996"
         clip-path="url(#clipPath1000)"><g
           id="g1002" /></g></g><g
       id="g1004"
       transform="matrix(0.75,0,0,-0.75,0,525)"><g
         id="g1006"
         clip-path="url(#clipPath1010)"><g
           id="g1012"
           clip-path="url(#clipPath1016)"><g
             id="g1018" /><g
             id="g1020"
             transform="matrix(1.0028653,0,0,1.0028653,393.2564,660.88825)" /><g
             id="g1022"
             transform="matrix(1.0028653,0,0,1.0028653,393.2564,660.88825)" /><g
             id="g1024"
             transform="matrix(1.0028653,0,0,1.0028653,474.80972,660.88825)" /><g
             id="g1026"
             transform="matrix(1.0028653,0,0,1.0028653,474.80972,660.88825)" /></g></g></g><g
       id="g1056"
       transform="matrix(0.75,0,0,-0.75,0,525)"><g
         id="g1058"
         transform="matrix(1.0028653,0,0,1.0028653,474.80972,660.88825)" /></g><g
       id="g1060"
       transform="matrix(0.75,0,0,-0.75,0,525)"><g
         id="g1062"
         clip-path="url(#clipPath1066)"><g
           id="g1068" /></g></g><g
       id="g1070"
       transform="matrix(0.75,0,0,-0.75,0,525)"><g
         id="g1072"
         clip-path="url(#clipPath1076)"><g
           id="g1078"
           clip-path="url(#clipPath1082)"><g
             id="g1084" /><g
             id="g1086"
             transform="matrix(1.0028653,0,0,1.0028653,474.80972,660.88825)" /><g
             id="g1088"
             transform="matrix(1.0028653,0,0,1.0028653,474.80972,660.88825)" /><g
             id="g1090"
             transform="matrix(1.0028653,0,0,1.0028653,553.51898,660.88825)" /><g
             id="g1092"
             transform="matrix(1.0028653,0,0,1.0028653,553.51898,660.88825)" /></g></g></g><g
       id="g1122"
       transform="matrix(0.75,0,0,-0.75,0,525)"><g
         id="g1124"
         transform="matrix(1.0028653,0,0,1.0028653,553.51898,660.88825)" /></g><g
       id="g1126"
       transform="matrix(0.75,0,0,-0.75,0,525)"><g
         id="g1128"
         clip-path="url(#clipPath1132)"><g
           id="g1134" /></g></g><g
       id="g1136"
       transform="matrix(0.75,0,0,-0.75,0,525)"><g
         id="g1138"
         clip-path="url(#clipPath1142)"><g
           id="g1144"
           clip-path="url(#clipPath1148)"><g
             id="g1150" /><g
             id="g1152"
             transform="matrix(1.0028653,0,0,1.0028653,553.51898,660.88825)" /><g
             id="g1154"
             transform="matrix(1.0028653,0,0,1.0028653,553.51898,660.88825)" /><g
             id="g1156"
             transform="matrix(1.0028653,0,0,1.0028653,633.81872,660.88825)" /><g
             id="g1158"
             transform="matrix(1.0028653,0,0,1.0028653,633.81872,660.88825)" /></g></g></g><g
       id="g1188"
       transform="matrix(0.75,0,0,-0.75,0,525)"><g
         id="g1190"
         transform="matrix(1.0028653,0,0,1.0028653,633.81872,660.88825)" /></g><g
       id="g1192"
       transform="matrix(0.75,0,0,-0.75,0,525)"><g
         id="g1194"
         clip-path="url(#clipPath1198)"><g
           id="g1200" /></g></g><g
       id="g1202"
       transform="matrix(0.75,0,0,-0.75,0,525)"><g
         id="g1204"
         clip-path="url(#clipPath1208)"><g
           id="g1210"
           clip-path="url(#clipPath1214)"><g
             id="g1216" /><g
             id="g1218"
             transform="matrix(1.0028653,0,0,1.0028653,633.81872,660.88825)" /><g
             id="g1220"
             transform="matrix(1.0028653,0,0,1.0028653,633.81872,660.88825)" /><g
             id="g1222"
             transform="matrix(1.0028653,0,0,1.0028653,10.028653,596.70487)" /><g
             id="g1224"
             transform="matrix(1.0028653,0,0,1.0028653,10.028653,596.70487)" /></g></g></g><g
       id="g1254"
       transform="matrix(0.75,0,0,-0.75,0,525)"><g
         id="g1256"
         transform="matrix(1.0028653,0,0,1.0028653,10.028653,596.70487)" /></g><g
       id="g1258"
       transform="matrix(0.75,0,0,-0.75,0,525)"><g
         id="g1260"
         clip-path="url(#clipPath1264)"><g
           id="g1266" /></g></g><g
       id="g1268"
       transform="matrix(0.75,0,0,-0.75,0,525)"><g
         id="g1270"
         clip-path="url(#clipPath1274)"><g
           id="g1276"
           clip-path="url(#clipPath1280)"><g
             id="g1282" /><g
             id="g1284"
             transform="matrix(1.0028653,0,0,1.0028653,10.028653,596.70487)" /><g
             id="g1286"
             transform="matrix(1.0028653,0,0,1.0028653,10.028653,596.70487)" /><g
             id="g1288"
             transform="matrix(1.0028653,0,0,1.0028653,10.028653,516.47564)" /><g
             id="g1290"
             transform="matrix(1.0028653,0,0,1.0028653,10.028653,516.47564)" /></g></g></g><g
       id="g1320"
       transform="matrix(0.75,0,0,-0.75,0,525)"><g
         id="g1322"
         transform="matrix(1.0028653,0,0,1.0028653,10.028653,516.47564)" /></g><g
       id="g1324"
       transform="matrix(0.75,0,0,-0.75,0,525)"><g
         id="g1326"
         clip-path="url(#clipPath1330)"><g
           id="g1332" /></g></g><g
       id="g1334"
       transform="matrix(0.75,0,0,-0.75,0,525)"><g
         id="g1336"
         clip-path="url(#clipPath1340)"><g
           id="g1342"
           clip-path="url(#clipPath1346)"><g
             id="g1348" /><g
             id="g1350"
             transform="matrix(1.0028653,0,0,1.0028653,10.028653,516.47564)" /><g
             id="g1352"
             transform="matrix(1.0028653,0,0,1.0028653,10.028653,516.47564)" /><g
             id="g1354"
             transform="matrix(1.0028653,0,0,1.0028653,10.028653,436.24642)" /><g
             id="g1356"
             transform="matrix(1.0028653,0,0,1.0028653,10.028653,436.24642)" /></g></g></g><g
       id="g1386"
       transform="matrix(0.75,0,0,-0.75,0,525)"><g
         id="g1388"
         transform="matrix(1.0028653,0,0,1.0028653,10.028653,436.24642)" /></g><g
       id="g1390"
       transform="matrix(0.75,0,0,-0.75,0,525)"><g
         id="g1392"
         clip-path="url(#clipPath1396)"><g
           id="g1398" /></g></g><g
       id="g1400"
       transform="matrix(0.75,0,0,-0.75,0,525)"><g
         id="g1402"
         clip-path="url(#clipPath1406)"><g
           id="g1408"
           clip-path="url(#clipPath1412)"><g
             id="g1414" /><g
             id="g1416"
             transform="matrix(1.0028653,0,0,1.0028653,10.028653,436.24642)" /><g
             id="g1418"
             transform="matrix(1.0028653,0,0,1.0028653,10.028653,436.24642)" /><g
             id="g1420"
             transform="matrix(1.0028653,0,0,1.0028653,10.028653,356.01719)" /><g
             id="g1422"
             transform="matrix(1.0028653,0,0,1.0028653,10.028653,356.01719)" /></g></g></g><g
       id="g1452"
       transform="matrix(0.75,0,0,-0.75,0,525)"><g
         id="g1454"
         transform="matrix(1.0028653,0,0,1.0028653,10.028653,356.01719)" /></g><g
       id="g1456"
       transform="matrix(0.75,0,0,-0.75,0,525)"><g
         id="g1458"
         clip-path="url(#clipPath1462)"><g
           id="g1464" /></g></g><g
       id="g1466"
       transform="matrix(0.75,0,0,-0.75,0,525)"><g
         id="g1468"
         clip-path="url(#clipPath1472)"><g
           id="g1474"
           clip-path="url(#clipPath1478)"><g
             id="g1480" /><g
             id="g1482"
             transform="matrix(1.0028653,0,0,1.0028653,10.028653,356.01719)" /><g
             id="g1484"
             transform="matrix(1.0028653,0,0,1.0028653,10.028653,356.01719)" /><g
             id="g1486"
             transform="matrix(1.0028653,0,0,1.0028653,10.028653,275.78796)" /><g
             id="g1488"
             transform="matrix(1.0028653,0,0,1.0028653,10.028653,275.78796)" /></g></g></g><g
       id="g1518"
       transform="matrix(0.75,0,0,-0.75,0,525)"><g
         id="g1520"
         transform="matrix(1.0028653,0,0,1.0028653,10.028653,275.78796)" /></g><g
       id="g1522"
       transform="matrix(0.75,0,0,-0.75,0,525)"><g
         id="g1524"
         clip-path="url(#clipPath1528)"><g
           id="g1530" /></g></g><g
       id="g1532"
       transform="matrix(0.75,0,0,-0.75,0,525)"><g
         id="g1534"
         clip-path="url(#clipPath1538)"><g
           id="g1540"
           clip-path="url(#clipPath1544)"><g
             id="g1546" /><g
             id="g1548"
             transform="matrix(1.0028653,0,0,1.0028653,10.028653,275.78796)" /><g
             id="g1550"
             transform="matrix(1.0028653,0,0,1.0028653,10.028653,275.78796)" /><g
             id="g1552"
             transform="matrix(1.0028653,0,0,1.0028653,10.028653,195.55874)" /><g
             id="g1554"
             transform="matrix(1.0028653,0,0,1.0028653,10.028653,195.55874)" /></g></g></g><g
       id="g1584"
       transform="matrix(0.75,0,0,-0.75,0,525)"><g
         id="g1586"
         transform="matrix(1.0028653,0,0,1.0028653,10.028653,195.55874)" /></g><g
       id="g1588"
       transform="matrix(0.75,0,0,-0.75,0,525)"><g
         id="g1590"
         clip-path="url(#clipPath1594)"><g
           id="g1596" /></g></g><g
       id="g1598"
       transform="matrix(0.75,0,0,-0.75,0,525)"><g
         id="g1600"
         clip-path="url(#clipPath1604)"><g
           id="g1606"
           clip-path="url(#clipPath1610)"><g
             id="g1612" /><g
             id="g1614"
             transform="matrix(1.0028653,0,0,1.0028653,10.028653,195.55874)" /><g
             id="g1616"
             transform="matrix(1.0028653,0,0,1.0028653,10.028653,195.55874)" /><g
             id="g1618"
             transform="matrix(1.0028653,0,0,1.0028653,10.028653,115.32951)" /><g
             id="g1620"
             transform="matrix(1.0028653,0,0,1.0028653,10.028653,115.32951)" /></g></g></g><g
       id="g1650"
       transform="matrix(0.75,0,0,-0.75,0,525)"><g
         id="g1652"
         transform="matrix(1.0028653,0,0,1.0028653,10.028653,115.32951)" /></g><g
       id="g1654"
       transform="matrix(0.75,0,0,-0.75,0,525)"><g
         id="g1656"
         clip-path="url(#clipPath1660)"><g
           id="g1662" /></g></g><g
       id="g1664"
       transform="matrix(0.75,0,0,-0.75,0,525)"><g
         id="g1666"
         clip-path="url(#clipPath1670)"><g
           id="g1672"
           clip-path="url(#clipPath1676)"><g
             id="g1678" /><g
             id="g1680"
             transform="matrix(1.0028653,0,0,1.0028653,10.028653,115.32951)" /><g
             id="g1682"
             transform="matrix(1.0028653,0,0,1.0028653,10.028653,115.32951)" /><g
             id="g1684"
             transform="matrix(1.0028653,0,0,1.0028653,10.028653,35.100286)" /><g
             id="g1686"
             transform="matrix(1.0028653,0,0,1.0028653,10.028653,35.100286)" /></g></g></g><g
       id="g1716"
       transform="matrix(0.75,0,0,-0.75,0,525)"><g
         id="g1718"
         transform="matrix(1.0028653,0,0,1.0028653,10.028653,35.100286)" /></g><g
       id="g1720"
       transform="matrix(0.75,0,0,-0.75,0,525)"><g
         id="g1722"
         clip-path="url(#clipPath1726)"><g
           id="g1728" /></g></g><g
       id="g1744"
       transform="matrix(0.75,0,0,-0.75,0,525)" /><g
       id="g1746"
       transform="matrix(0.75214898,0,0,-0.75214898,7.5214898,498.67479)" /><g
       id="g1748"
       transform="matrix(0.75214898,0,0,-0.75214898,7.5214898,498.67479)" /><g
       id="g1750"
       transform="matrix(0.75214898,0,0,-0.75214898,31.590258,516.72636)" /><g
       id="g1752"
       transform="matrix(0.75214898,0,0,-0.75214898,91.762178,336.2106)" /><g
       id="g1770"
       transform="matrix(0.75214898,0,0,-0.75214898,91.762178,336.2106)" /><g
       id="g1772"
       transform="matrix(0.75214898,0,0,-0.75214898,151.9341,336.2106)" /><g
       id="g1794"
       transform="matrix(0.75214898,0,0,-0.75214898,151.9341,336.2106)" /><g
       id="g1796"
       transform="matrix(0.75214898,0,0,-0.75214898,212.10602,336.2106)" /><g
       id="g1822"
       transform="matrix(0.75214898,0,0,-0.75214898,212.10602,336.2106)" /><g
       id="g1824"
       transform="matrix(0.75214898,0,0,-0.75214898,272.27794,336.2106)" /><g
       id="g1842"
       transform="matrix(0.75214898,0,0,-0.75214898,272.27794,336.2106)" /><g
       id="g1844"
       transform="matrix(0.75214898,0,0,-0.75214898,332.44985,336.2106)" /><g
       id="g1858"
       transform="matrix(0.75214898,0,0,-0.75214898,332.44985,336.2106)" /><g
       id="g1860"
       transform="matrix(0.75214898,0,0,-0.75214898,31.590258,336.2106)" /><g
       id="g1882"
       transform="matrix(0.75214898,0,0,-0.75214898,31.590258,336.2106)" /><g
       id="g1884"
       transform="matrix(0.75214898,0,0,-0.75214898,91.762178,396.38252)" /><g
       id="g1906"
       transform="matrix(0.75214898,0,0,-0.75214898,91.762178,396.38252)" /><g
       id="g1908"
       transform="matrix(0.75214898,0,0,-0.75214898,151.9341,396.38252)" /><g
       id="g1934"
       transform="matrix(0.75214898,0,0,-0.75214898,151.9341,396.38252)" /><g
       id="g1936"
       transform="matrix(0.75214898,0,0,-0.75214898,212.10602,396.38252)" /><g
       id="g1974"
       transform="matrix(0.75214898,0,0,-0.75214898,212.10602,396.38252)" /><g
       id="g1976"
       transform="matrix(0.75214898,0,0,-0.75214898,272.27794,396.38252)" /><g
       id="g1998"
       transform="matrix(0.75214898,0,0,-0.75214898,272.27794,396.38252)" /><g
       id="g2000"
       transform="matrix(0.75214898,0,0,-0.75214898,332.44985,396.38252)" /><g
       id="g2026"
       transform="matrix(0.75214898,0,0,-0.75214898,332.44985,396.38252)" /><g
       id="g2028"
       transform="matrix(0.75214898,0,0,-0.75214898,31.590258,396.38252)" /><g
       id="g1"
       transform="translate(-1.5101736,2.5149994)"><g
         id="g2030"
         transform="matrix(0.75214898,0,0,-0.75214898,34.598854,393.37393)"><path
           d="m 52.03125,-18.953125 3.12207,-0.201172 2.756836,-0.603515 2.391602,-1.00586 2.026367,-1.408203 4.75,-4.359375 1.75,-2.984375 0.3125,-9.046875 -0.394531,-2.734375 -1.183594,-2.671875 -3.1875,-4 -5.039063,-3.109375 -3.867187,-1.109375 h -8.078125 l -5.90625,23.9375 v 6.328125 l 5.644531,2.328125 z"
           style="fill:#606060;fill-opacity:1;fill-rule:evenodd;stroke:#606060;stroke-width:6;stroke-linecap:round;stroke-linejoin:round;stroke-miterlimit:10;stroke-dasharray:none;stroke-opacity:1"
           id="path2032" /><path
           d="M 44.84375,-58.40625 42.875,-57 40,-56.296875 37.378906,-56.824219 35.203125,-58.40625 H 34.84375 v 3.171875 L 39.0625,-39.21875 H 40 40.9375 l 4.21875,-16.015625 v -3.171875 z"
           style="fill:#606060;fill-opacity:1;fill-rule:evenodd;stroke:#606060;stroke-width:6;stroke-linecap:round;stroke-linejoin:round;stroke-miterlimit:10;stroke-dasharray:none;stroke-opacity:1"
           id="path2034" /><path
           d="m 28.015625,-19.0625 4.273437,-0.429687 3.335938,-0.976563 2.132812,-0.960937 0.56836,-1.927735 0.189453,-4.892578 -5.8125,-23.9375 H 24.34375 l -2.148438,0.445313 -4.257812,1.875 -2.285156,1.759765 -2.167969,2.419922 -1.71875,3.214844 -0.9375,4.144531 v 7.390625 l 0.820313,2.59375 1.367187,2.3125 1.914062,2.03125 2.460938,1.75 5.390625,2.40625 z"
           style="fill:#606060;fill-opacity:1;fill-rule:evenodd;stroke:#606060;stroke-width:6;stroke-linecap:round;stroke-linejoin:round;stroke-miterlimit:10;stroke-dasharray:none;stroke-opacity:1"
           id="path2036" /><path
           d="m 40,-19.34375 -5.073242,1.785156 -5.219727,0.824219 -5.366211,-0.136719 -5.512695,-1.097656 v 6.984375 H 40 61.171875 v -6.984375 l -6.069336,1.232422 -5.551758,0.181641 -5.03418,-0.869141 z"
           style="fill:#606060;fill-opacity:1;fill-rule:evenodd;stroke:#606060;stroke-width:6;stroke-linecap:round;stroke-linejoin:round;stroke-miterlimit:10;stroke-dasharray:none;stroke-opacity:1"
           id="path2038" /><path
           d="m 46.015625,-60.28125 h 2.65625 v 5.125 h 7.03125 l 4.179687,1.244141 3.320313,1.544922 2.828125,2.072265 2.703125,2.826172 2.15625,3.730469 1.1875,4.785156 v 7.890625 l -1.132813,3.223633 -1.679687,2.905273 -2.226563,2.586914 -2.773437,2.268555 v 12.0625 H 40 15.75 v -12.0625 l -4.814453,-4.009766 -2.1621095,-3.591796 -0.6269531,-4.509766 -0.2089844,-6.763672 1.1523438,-4.785156 2.1445312,-3.730469 2.707031,-2.826172 2.839844,-2.072265 5.210937,-2.242188 3.486329,-0.410156 5.849609,-0.136719 v -5.125 h 2.65625 l -0.5,-2.34375 0.46875,-2.494141 1.40625,-2.169921 2.097656,-1.50586 L 40,-69.296875 l 2.525391,0.501953 2.107422,1.50586 1.423828,2.169921 0.474609,2.494141 z"
           style="fill:#606060;fill-opacity:1;fill-rule:evenodd;stroke:#606060;stroke-width:6;stroke-linecap:round;stroke-linejoin:round;stroke-miterlimit:10;stroke-dasharray:none;stroke-opacity:1"
           id="path2040" /><path
           d="m 40,-66.453125 -1.620117,0.227539 -1.157227,0.682617 -0.694336,1.137696 -0.231445,1.592773 0.231445,1.606445 0.694336,1.147461 1.157227,0.688477 1.620117,0.229492 1.626953,-0.229492 1.162109,-0.688477 0.697266,-1.147461 0.232422,-1.606445 -0.232422,-1.592773 -0.697266,-1.137696 -1.162109,-0.682617 z"
           style="fill:#606060;fill-opacity:1;fill-rule:evenodd;stroke:#606060;stroke-width:6;stroke-linecap:round;stroke-linejoin:round;stroke-miterlimit:10;stroke-dasharray:none;stroke-opacity:1"
           id="path2042" /></g><g
         id="g2044"
         transform="matrix(0.75214898,0,0,-0.75214898,31.590258,396.38252)"><path
           d="m 52.03125,-18.953125 3.12207,-0.201172 2.756836,-0.603515 2.391602,-1.00586 2.026367,-1.408203 4.75,-4.359375 1.75,-2.984375 0.3125,-9.046875 -0.394531,-2.734375 -1.183594,-2.671875 -3.1875,-4 -5.039063,-3.109375 -3.867187,-1.109375 h -8.078125 l -5.90625,23.9375 v 6.328125 l 5.644531,2.328125 z"
           style="fill:#ffffff;fill-opacity:1;fill-rule:evenodd;stroke:#ffffff;stroke-width:6;stroke-linecap:round;stroke-linejoin:round;stroke-miterlimit:10;stroke-dasharray:none;stroke-opacity:1"
           id="path2046" /><path
           d="M 44.84375,-58.40625 42.875,-57 40,-56.296875 37.378906,-56.824219 35.203125,-58.40625 H 34.84375 v 3.171875 L 39.0625,-39.21875 H 40 40.9375 l 4.21875,-16.015625 v -3.171875 z"
           style="fill:#ffffff;fill-opacity:1;fill-rule:evenodd;stroke:#ffffff;stroke-width:6;stroke-linecap:round;stroke-linejoin:round;stroke-miterlimit:10;stroke-dasharray:none;stroke-opacity:1"
           id="path2048" /><path
           d="m 28.015625,-19.0625 4.273437,-0.429687 3.335938,-0.976563 2.132812,-0.960937 0.56836,-1.927735 0.189453,-4.892578 -5.8125,-23.9375 H 24.34375 l -2.148438,0.445313 -4.257812,1.875 -2.285156,1.759765 -2.167969,2.419922 -1.71875,3.214844 -0.9375,4.144531 v 7.390625 l 0.820313,2.59375 1.367187,2.3125 1.914062,2.03125 2.460938,1.75 5.390625,2.40625 z"
           style="fill:#ffffff;fill-opacity:1;fill-rule:evenodd;stroke:#ffffff;stroke-width:6;stroke-linecap:round;stroke-linejoin:round;stroke-miterlimit:10;stroke-dasharray:none;stroke-opacity:1"
           id="path2050" /><path
           d="m 40,-19.34375 -5.073242,1.785156 -5.219727,0.824219 -5.366211,-0.136719 -5.512695,-1.097656 v 6.984375 H 40 61.171875 v -6.984375 l -6.069336,1.232422 -5.551758,0.181641 -5.03418,-0.869141 z"
           style="fill:#ffffff;fill-opacity:1;fill-rule:evenodd;stroke:#ffffff;stroke-width:6;stroke-linecap:round;stroke-linejoin:round;stroke-miterlimit:10;stroke-dasharray:none;stroke-opacity:1"
           id="path2052" /><path
           d="m 46.015625,-60.28125 h 2.65625 v 5.125 h 7.03125 l 4.179687,1.244141 3.320313,1.544922 2.828125,2.072265 2.703125,2.826172 2.15625,3.730469 1.1875,4.785156 v 7.890625 l -1.132813,3.223633 -1.679687,2.905273 -2.226563,2.586914 -2.773437,2.268555 v 12.0625 H 40 15.75 v -12.0625 l -4.814453,-4.009766 -2.1621095,-3.591796 -0.6269531,-4.509766 -0.2089844,-6.763672 1.1523438,-4.785156 2.1445312,-3.730469 2.707031,-2.826172 2.839844,-2.072265 5.210937,-2.242188 3.486329,-0.410156 5.849609,-0.136719 v -5.125 h 2.65625 l -0.5,-2.34375 0.46875,-2.494141 1.40625,-2.169921 2.097656,-1.50586 L 40,-69.296875 l 2.525391,0.501953 2.107422,1.50586 1.423828,2.169921 0.474609,2.494141 z"
           style="fill:#ffffff;fill-opacity:1;fill-rule:evenodd;stroke:#ffffff;stroke-width:6;stroke-linecap:round;stroke-linejoin:round;stroke-miterlimit:10;stroke-dasharray:none;stroke-opacity:1"
           id="path2054" /><path
           d="m 40,-66.453125 -1.620117,0.227539 -1.157227,0.682617 -0.694336,1.137696 -0.231445,1.592773 0.231445,1.606445 0.694336,1.147461 1.157227,0.688477 1.620117,0.229492 1.626953,-0.229492 1.162109,-0.688477 0.697266,-1.147461 0.232422,-1.606445 -0.232422,-1.592773 -0.697266,-1.137696 -1.162109,-0.682617 z"
           style="fill:#ffffff;fill-opacity:1;fill-rule:evenodd;stroke:#ffffff;stroke-width:6;stroke-linecap:round;stroke-linejoin:round;stroke-miterlimit:10;stroke-dasharray:none;stroke-opacity:1"
           id="path2056" /></g><g
         id="g2058"
         transform="matrix(0.75,0,0,-0.75,0,525)"><path
           d="m 94.30068,152.48254 c 4.418876,0 7.861,-1.07599 10.32638,-3.22797 2.46538,-2.15199 4.05325,-3.60927 4.76361,-4.37187 0.96108,-1.04465 1.54608,-2.04229 1.75501,-2.99293 0.20893,-0.95063 0.3134,-3.9749 0.3134,-9.07279 0,-1.84904 -0.52755,-3.65628 -1.58265,-5.42174 -1.0551,-1.76547 -2.12064,-3.10262 -3.19663,-4.01147 -1.61921,-1.33715 -3.30371,-2.37658 -5.0535,-3.11828 -1.749793,-0.7417 -3.042549,-1.11255 -3.87827,-1.11255 h -8.101272 l -5.923173,24.00608 v 6.34626 c 4.021908,2.12064 7.547606,3.11306 10.577095,2.97726 z m -7.208094,-39.56617 c -0.490986,0.47009 -1.149117,0.94018 -1.974391,1.41028 -0.825275,0.47009 -1.786354,0.70514 -2.883238,0.70514 -1.901266,0 -3.504805,-0.70514 -4.81062,-2.11542 h -0.360404 v 3.18096 l 4.230838,16.06152 h 0.940186 0.940186 l 4.230838,-16.06152 v -3.18096 z m -16.876343,39.45648 c 1.566977,0 2.995538,-0.14364 4.285682,-0.43092 1.290145,-0.28728 2.40531,-0.61373 3.345496,-0.97936 0.919293,-0.34473 1.632268,-0.66596 2.138924,-0.96369 0.506656,-0.29773 0.759984,-2.57768 0.759984,-6.83986 l -5.829155,-24.00608 h -8.383327 c -0.156698,0 -0.874896,0.14886 -2.154594,0.44659 -1.279698,0.29772 -2.703035,0.92451 -4.270012,1.88037 -1.566977,0.95585 -3.055606,2.35307 -4.465885,4.19166 -1.410279,1.83859 -2.298233,4.29874 -2.663861,7.38046 v 7.4118 c 0.731256,3.65628 2.925024,6.56041 6.581304,8.7124 3.656279,2.15198 7.208094,3.21752 10.655444,3.19663 z m 12.018714,-0.28206 c -6.685769,3.02949 -13.763282,3.48914 -21.232539,1.37894 v 7.00439 H 82.234957 103.4675 v -7.00439 c -8.46168,2.35047 -15.539193,1.89082 -21.232543,-1.37894 z M 88.267819,111.036 h 2.663861 v 5.13968 h 7.051397 c 3.081723,0.73126 5.588883,1.66361 7.521493,2.79705 1.9326,1.13345 3.78163,2.77094 5.5471,4.91248 1.76546,2.14153 2.88323,4.98821 3.35333,8.54002 v 7.91324 c -1.14912,4.52334 -3.76075,8.19529 -7.83489,11.01585 v 12.09706 H 82.234957 57.915473 v -12.09706 c -4.10548,-2.82056 -6.437664,-5.36168 -6.996553,-7.62335 -0.558888,-2.26167 -0.838333,-6.03025 -0.838333,-11.30574 0.438754,-3.55181 1.540861,-6.39849 3.306322,-8.54002 1.765461,-2.14154 3.619717,-3.77903 5.562769,-4.91248 1.943051,-1.13344 3.685007,-1.88298 5.225868,-2.24861 1.540861,-0.36563 4.661757,-0.54844 9.362688,-0.54844 V 111.036 h 2.663861 c -0.334288,-0.69992 -0.501432,-1.48341 -0.501432,-2.35047 0,-1.77591 0.62679,-3.33505 1.880372,-4.67743 1.253582,-1.34237 2.804889,-2.01356 4.653922,-2.01356 1.82814,0 3.376836,0.67119 4.646087,2.01356 1.269251,1.34238 1.903877,2.90152 1.903877,4.67743 0,0.86706 -0.172367,1.65055 -0.517102,2.35047 z m -6.032862,-6.18956 c -2.475824,0 -3.713736,1.21702 -3.713736,3.65105 0,2.45493 1.237912,3.6824 3.713736,3.6824 2.48627,0 3.729405,-1.22747 3.729405,-3.6824 0,-2.43403 -1.243135,-3.65105 -3.729405,-3.65105 z"
           style="fill:#000000;fill-opacity:1;fill-rule:evenodd;stroke:none"
           id="path2060" /></g></g><g
       id="g2062"
       transform="matrix(0.75214898,0,0,-0.75214898,31.590258,396.38252)" /><g
       id="g2064"
       transform="matrix(0.75,0,0,-0.75,0,525)"><g
         id="g2066" /></g></g></svg>
