<?xml version="1.0" encoding="UTF-8"?>
<!DOCTYPE svg PUBLIC "-//W3C//DTD SVG 1.1//EN" "http://www.w3.org/Graphics/SVG/1.1/DTD/svg11.dtd">
<svg version="1.2" width="108mm" height="108mm" viewBox="0 0 10800 10800" preserveAspectRatio="xMidYMid" fill-rule="evenodd" stroke-width="28.222" stroke-linejoin="round" xmlns="http://www.w3.org/2000/svg" xmlns:ooo="http://xml.openoffice.org/svg/export" xmlns:xlink="http://www.w3.org/1999/xlink" xmlns:presentation="http://sun.com/xmlns/staroffice/presentation" xmlns:smil="http://www.w3.org/2001/SMIL20/" xmlns:anim="urn:oasis:names:tc:opendocument:xmlns:animation:1.0" xmlns:svg="urn:oasis:names:tc:opendocument:xmlns:svg-compatible:1.0" xml:space="preserve">
 <defs class="ClipPathGroup">
  <clipPath id="presentation_clip_path" clipPathUnits="userSpaceOnUse">
   <rect x="0" y="0" width="10800" height="10800"/>
  </clipPath>
  <clipPath id="presentation_clip_path_shrink" clipPathUnits="userSpaceOnUse">
   <rect x="10" y="10" width="10779" height="10779"/>
  </clipPath>
 </defs>
 <defs class="EmbeddedBulletChars">
  <g id="bullet-char-template-57356" transform="scale(0.00048828125,-0.00048828125)">
   <path d="M 580,1141 L 1163,571 580,0 -4,571 580,1141 Z"/>
  </g>
  <g id="bullet-char-template-57354" transform="scale(0.00048828125,-0.00048828125)">
   <path d="M 8,1128 L 1137,1128 1137,0 8,0 8,1128 Z"/>
  </g>
  <g id="bullet-char-template-10146" transform="scale(0.00048828125,-0.00048828125)">
   <path d="M 174,0 L 602,739 174,1481 1456,739 174,0 Z M 1358,739 L 309,1346 659,739 1358,739 Z"/>
  </g>
  <g id="bullet-char-template-10132" transform="scale(0.00048828125,-0.00048828125)">
   <path d="M 2015,739 L 1276,0 717,0 1260,543 174,543 174,936 1260,936 717,1481 1274,1481 2015,739 Z"/>
  </g>
  <g id="bullet-char-template-10007" transform="scale(0.00048828125,-0.00048828125)">
   <path d="M 0,-2 C -7,14 -16,27 -25,37 L 356,567 C 262,823 215,952 215,954 215,979 228,992 255,992 264,992 276,990 289,987 310,991 331,999 354,1012 L 381,999 492,748 772,1049 836,1024 860,1049 C 881,1039 901,1025 922,1006 886,937 835,863 770,784 769,783 710,716 594,584 L 774,223 C 774,196 753,168 711,139 L 727,119 C 717,90 699,76 672,76 641,76 570,178 457,381 L 164,-76 C 142,-110 111,-127 72,-127 30,-127 9,-110 8,-76 1,-67 -2,-52 -2,-32 -2,-23 -1,-13 0,-2 Z"/>
  </g>
  <g id="bullet-char-template-10004" transform="scale(0.00048828125,-0.00048828125)">
   <path d="M 285,-33 C 182,-33 111,30 74,156 52,228 41,333 41,471 41,549 55,616 82,672 116,743 169,778 240,778 293,778 328,747 346,684 L 369,508 C 377,444 397,411 428,410 L 1163,1116 C 1174,1127 1196,1133 1229,1133 1271,1133 1292,1118 1292,1087 L 1292,965 C 1292,929 1282,901 1262,881 L 442,47 C 390,-6 338,-33 285,-33 Z"/>
  </g>
  <g id="bullet-char-template-9679" transform="scale(0.00048828125,-0.00048828125)">
   <path d="M 813,0 C 632,0 489,54 383,161 276,268 223,411 223,592 223,773 276,916 383,1023 489,1130 632,1184 813,1184 992,1184 1136,1130 1245,1023 1353,916 1407,772 1407,592 1407,412 1353,268 1245,161 1136,54 992,0 813,0 Z"/>
  </g>
  <g id="bullet-char-template-8226" transform="scale(0.00048828125,-0.00048828125)">
   <path d="M 346,457 C 273,457 209,483 155,535 101,586 74,649 74,723 74,796 101,859 155,911 209,963 273,989 346,989 419,989 480,963 531,910 582,859 608,796 608,723 608,648 583,586 532,535 482,483 420,457 346,457 Z"/>
  </g>
  <g id="bullet-char-template-8211" transform="scale(0.00048828125,-0.00048828125)">
   <path d="M -4,459 L 1135,459 1135,606 -4,606 -4,459 Z"/>
  </g>
  <g id="bullet-char-template-61548" transform="scale(0.00048828125,-0.00048828125)">
   <path d="M 173,740 C 173,903 231,1043 346,1159 462,1274 601,1332 765,1332 928,1332 1067,1274 1183,1159 1299,1043 1357,903 1357,740 1357,577 1299,437 1183,322 1067,206 928,148 765,148 601,148 462,206 346,322 231,437 173,577 173,740 Z"/>
  </g>
 </defs>
 <g>
  <g id="id2" class="Master_Slide">
   <g id="bg-id2" class="Background"/>
   <g id="bo-id2" class="BackgroundObjects"/>
  </g>
 </g>
 <g class="SlideGroup">
  <g>
   <g id="container-id1">
    <g id="id1" class="Slide" clip-path="url(#presentation_clip_path)">
     <g class="Page">
      <g class="com.sun.star.drawing.CustomShape">
       <g id="id3">
        <rect class="BoundingBox" stroke="none" fill="none" x="0" y="0" width="10801" height="10801"/>
       </g>
      </g>
      <g class="com.sun.star.drawing.ClosedBezierShape">
       <g id="id4">
        <rect class="BoundingBox" stroke="none" fill="none" x="2218" y="1030" width="6365" height="8840"/>
        <path fill="rgb(0,0,0)" stroke="none" d="M 7497,3910 C 7644,4160 7803,4589 7803,4589 7803,4590 7794,4577 7804,4592 7814,4607 7839,4691 7839,4691 7840,4692 7840,4692 7840,4693 L 7873,4793 7873,4796 7903,4898 7903,4900 7929,5003 C 7930,5004 7930,5005 7930,5006 L 7952,5111 C 7953,5111 7953,5112 7953,5113 L 7972,5219 7972,5222 7987,5330 7987,5332 7998,5442 7998,5445 8005,5555 8005,5558 8007,5668 8007,5671 8007,5672 8007,5673 8007,5710 8007,5711 8005,5805 8005,5808 7999,5904 7999,5906 7990,6002 C 7989,6003 7989,6004 7989,6005 L 7976,6102 7976,6104 7959,6202 7959,6204 7939,6302 7939,6305 7890,6501 C 7890,6502 7889,6504 7889,6505 L 7829,6698 C 7828,6699 7828,6700 7828,6701 L 7758,6892 C 7757,6893 7757,6895 7756,6896 L 7677,7084 C 7677,7085 7676,7086 7676,7087 L 7588,7270 C 7588,7271 7587,7272 7587,7273 L 7492,7450 C 7491,7451 7491,7451 7491,7452 L 7490,7453 7389,7623 C 7388,7624 7388,7625 7387,7626 L 7281,7787 7279,7789 7238,7845 7425,7867 7428,7867 7580,7892 7583,7892 7617,7900 7619,7900 7654,7909 C 7655,7909 7656,7909 7657,7910 L 7729,7932 C 7730,7932 7731,7932 7732,7933 L 7806,7960 C 7807,7961 7808,7961 7809,7961 L 7883,7995 C 7884,7995 7885,7995 7886,7996 L 7923,8014 C 7924,8015 7924,8015 7925,8015 L 7962,8035 C 7962,8036 7963,8036 7963,8036 L 7964,8036 8001,8058 C 8001,8059 8002,8059 8002,8059 L 8039,8083 C 8039,8083 8040,8083 8040,8084 L 8077,8109 C 8077,8109 8078,8109 8078,8110 L 8114,8136 C 8114,8137 8115,8137 8115,8138 L 8150,8166 C 8151,8166 8151,8167 8152,8167 L 8186,8197 C 8186,8198 8187,8198 8187,8199 L 8221,8230 C 8221,8231 8222,8231 8222,8232 L 8255,8265 C 8255,8266 8256,8266 8256,8267 L 8287,8302 C 8288,8302 8288,8303 8289,8303 L 8319,8340 C 8319,8341 8320,8341 8320,8342 L 8349,8380 C 8349,8381 8350,8381 8350,8382 L 8377,8422 C 8378,8423 8378,8424 8379,8424 L 8404,8466 8404,8467 8405,8468 8429,8512 C 8429,8513 8429,8513 8430,8514 L 8451,8559 C 8452,8560 8452,8561 8452,8562 L 8472,8608 C 8472,8609 8473,8610 8473,8611 L 8490,8660 C 8491,8660 8491,8661 8491,8662 L 8506,8712 C 8507,8713 8507,8714 8507,8715 L 8520,8767 C 8520,8768 8520,8769 8521,8770 L 8531,8824 C 8531,8825 8531,8825 8532,8826 L 8539,8882 C 8539,8883 8540,8884 8540,8885 L 8544,8935 C 8544,8936 8545,8937 8545,8939 8545,8940 8546,8942 8546,8943 L 8546,8947 8546,8949 8546,8954 8560,9120 8560,9122 8572,9302 8572,9303 8579,9484 8579,9485 8582,9661 8582,9662 8582,9709 8582,9711 8582,9718 C 8582,9719 8582,9720 8581,9721 L 8581,9728 C 8581,9729 8581,9730 8580,9731 L 8579,9738 8579,9741 8577,9748 C 8577,9749 8576,9750 8576,9751 L 8574,9758 C 8574,9759 8573,9760 8573,9761 L 8571,9767 C 8570,9768 8570,9769 8569,9770 L 8567,9777 C 8566,9778 8566,9779 8565,9779 L 8562,9786 C 8562,9787 8561,9787 8561,9788 8560,9788 8560,9789 8559,9790 L 8555,9796 C 8555,9797 8554,9797 8554,9798 L 8550,9804 C 8549,9805 8548,9805 8548,9806 L 8543,9812 8541,9814 8537,9819 C 8536,9820 8535,9821 8534,9821 L 8529,9826 C 8529,9827 8528,9828 8527,9829 L 8521,9833 C 8521,9834 8520,9835 8519,9835 L 8513,9839 8510,9842 8504,9845 C 8503,9845 8503,9846 8503,9846 8502,9846 8501,9847 8500,9847 L 8494,9850 C 8493,9851 8492,9851 8491,9852 L 8485,9855 C 8484,9855 8483,9855 8482,9856 L 8475,9858 C 8474,9859 8473,9859 8472,9859 L 8465,9861 C 8464,9861 8463,9862 8462,9862 L 8455,9864 8452,9864 8445,9865 C 8444,9866 8443,9866 8442,9866 L 8435,9867 8432,9867 8425,9867 8423,9867 8422,9867 5400,9867 5400,9869 2378,9869 2377,9869 2375,9869 2368,9869 2365,9869 2358,9868 C 2357,9868 2356,9868 2355,9867 L 2348,9866 2345,9866 2338,9864 C 2337,9864 2336,9863 2335,9863 L 2328,9861 C 2327,9861 2326,9861 2325,9860 L 2318,9858 C 2317,9857 2316,9857 2315,9857 L 2309,9854 C 2308,9853 2307,9853 2306,9852 L 2300,9849 C 2299,9849 2298,9848 2297,9848 2297,9848 2297,9847 2296,9847 L 2290,9844 2287,9841 2281,9837 C 2280,9837 2279,9836 2279,9835 L 2273,9831 C 2272,9830 2271,9829 2271,9828 L 2266,9823 C 2265,9823 2264,9822 2263,9821 L 2259,9816 2257,9814 2252,9808 C 2252,9807 2251,9807 2250,9806 L 2246,9800 C 2246,9799 2245,9799 2245,9798 L 2241,9792 C 2240,9791 2240,9790 2239,9790 2239,9789 2238,9789 2238,9788 L 2235,9781 C 2234,9781 2234,9780 2233,9779 L 2231,9772 C 2230,9771 2230,9770 2229,9769 L 2227,9763 C 2227,9762 2226,9761 2226,9760 L 2224,9753 C 2224,9752 2223,9751 2223,9750 L 2221,9743 2221,9740 2220,9733 C 2219,9732 2219,9731 2219,9730 L 2219,9723 C 2218,9722 2218,9721 2218,9720 L 2218,9713 2218,9711 2218,9664 2218,9663 2221,9487 2221,9486 2228,9305 2228,9304 2240,9124 2240,9122 2254,8956 2254,8951 2254,8949 2254,8945 C 2254,8944 2255,8942 2255,8941 2255,8939 2256,8938 2256,8937 L 2260,8887 C 2260,8886 2261,8885 2261,8884 L 2268,8828 C 2269,8827 2269,8827 2269,8826 L 2279,8772 C 2280,8771 2280,8770 2280,8769 L 2293,8717 C 2293,8716 2293,8715 2294,8714 L 2309,8664 C 2309,8663 2309,8662 2310,8662 L 2327,8613 C 2327,8612 2328,8611 2328,8610 L 2348,8564 C 2348,8563 2348,8562 2349,8561 L 2370,8516 C 2371,8515 2371,8515 2371,8514 L 2395,8470 2396,8469 2396,8468 2421,8426 C 2422,8426 2422,8425 2423,8424 L 2450,8384 C 2450,8383 2451,8383 2451,8382 L 2480,8344 C 2480,8343 2481,8343 2481,8342 L 2511,8305 C 2512,8305 2512,8304 2513,8304 L 2544,8269 C 2544,8268 2545,8268 2545,8267 L 2578,8234 C 2578,8233 2579,8233 2579,8232 L 2613,8201 C 2613,8200 2614,8200 2614,8199 L 2648,8169 C 2649,8169 2649,8168 2650,8168 L 2685,8140 C 2685,8139 2686,8139 2686,8138 L 2722,8112 C 2722,8111 2723,8111 2723,8111 L 2760,8086 C 2760,8085 2761,8085 2761,8085 L 2798,8061 C 2798,8061 2799,8061 2799,8060 L 2836,8038 2837,8038 C 2837,8038 2838,8038 2838,8037 L 2875,8017 C 2876,8017 2876,8017 2877,8016 L 2914,7998 C 2915,7997 2916,7997 2917,7997 L 2991,7963 C 2992,7963 2993,7963 2994,7962 L 3068,7935 C 3069,7934 3070,7934 3071,7934 L 3143,7912 C 3144,7911 3145,7911 3146,7911 L 3181,7902 3183,7902 3217,7894 3220,7894 3372,7869 3375,7869 3562,7847 3521,7791 3519,7789 3413,7628 C 3412,7627 3412,7626 3411,7625 L 3310,7455 3309,7454 C 3309,7453 3309,7453 3308,7452 L 3213,7275 C 3213,7274 3212,7273 3212,7272 L 3124,7089 C 3124,7088 3123,7087 3123,7086 L 3044,6898 C 3043,6897 3043,6895 3042,6894 L 2972,6703 C 2972,6702 2972,6701 2971,6700 L 2911,6507 C 2911,6506 2910,6504 2910,6503 L 2861,6307 2861,6304 2841,6206 2841,6204 2824,6106 2824,6104 2811,6007 C 2811,6006 2811,6005 2810,6004 L 2801,5908 2801,5906 2795,5810 2795,5807 2793,5713 2793,5712 2793,5675 2793,5674 2793,5673 2793,5670 2795,5560 2795,5557 2802,5447 2802,5444 2813,5334 2813,5332 2828,5224 2828,5221 2847,5115 C 2847,5114 2847,5113 2848,5113 L 2870,5008 C 2870,5007 2870,5006 2871,5005 L 2897,4902 2897,4900 2927,4798 2927,4795 2960,4695 C 2960,4694 2960,4694 2961,4693 L 2996,4594 C 2997,4593 2997,4592 2997,4591 L 3078,4398 C 3078,4396 3079,4395 3080,4394 L 3171,4206 C 3172,4204 3172,4203 3173,4202 L 3275,4019 3275,4018 C 3276,4017 3276,4017 3276,4016 L 3385,3840 3387,3838 3504,3667 C 3504,3666 3505,3665 3505,3664 L 3628,3497 C 3629,3497 3629,3496 3630,3496 L 3759,3333 C 3759,3332 3760,3331 3761,3331 L 4031,3017 4033,3015 4313,2716 4315,2714 4387,2643 4389,2641 4462,2574 C 4463,2574 4464,2573 4464,2572 L 4538,2510 C 4539,2510 4539,2509 4540,2509 L 4563,2490 C 4563,2489 4562,2488 4561,2487 4561,2486 4560,2486 4560,2485 L 4532,2432 C 4532,2431 4531,2430 4531,2429 L 4519,2402 C 4518,2402 4518,2401 4518,2400 L 4506,2373 C 4506,2372 4505,2372 4505,2371 L 4494,2344 4494,2342 4484,2314 C 4484,2313 4483,2313 4483,2312 L 4474,2284 4474,2282 4466,2254 C 4465,2253 4465,2252 4465,2251 L 4452,2193 C 4451,2192 4451,2191 4451,2190 L 4446,2161 C 4445,2161 4445,2160 4445,2159 L 4441,2130 C 4441,2129 4441,2129 4440,2128 L 4437,2099 4437,2096 4434,2067 4434,2065 4433,2035 4433,2033 4432,2003 4432,2002 4432,2001 4433,1971 4433,1969 4434,1939 4434,1937 4437,1908 4437,1905 4440,1876 C 4441,1875 4441,1875 4441,1874 L 4445,1845 C 4445,1844 4445,1844 4446,1843 L 4451,1814 C 4451,1813 4451,1812 4452,1811 L 4465,1754 C 4465,1753 4465,1752 4466,1751 L 4474,1723 4474,1720 4483,1692 C 4483,1691 4484,1691 4484,1690 L 4494,1662 C 4494,1661 4494,1661 4495,1660 L 4505,1633 C 4506,1632 4506,1632 4506,1631 L 4518,1603 C 4518,1602 4519,1602 4519,1601 L 4532,1575 C 4532,1574 4532,1573 4533,1572 L 4546,1546 C 4547,1545 4547,1545 4547,1544 L 4562,1518 4562,1517 C 4562,1517 4563,1517 4563,1516 L 4578,1491 C 4578,1490 4579,1490 4579,1489 L 4595,1464 C 4595,1463 4596,1463 4596,1462 L 4613,1438 C 4613,1437 4614,1437 4614,1436 L 4632,1412 C 4632,1411 4633,1411 4633,1410 L 4652,1387 C 4652,1386 4653,1386 4653,1385 L 4672,1363 4674,1361 4694,1339 4695,1338 4716,1316 4717,1315 4738,1294 C 4739,1294 4739,1293 4740,1293 L 4762,1273 4763,1272 4786,1253 C 4786,1252 4787,1252 4788,1251 L 4811,1233 4813,1231 4861,1197 C 4862,1196 4863,1195 4865,1194 L 4915,1163 C 4915,1162 4916,1162 4917,1161 4918,1161 4919,1161 4919,1160 L 4972,1132 C 4973,1132 4974,1131 4976,1131 L 5029,1106 C 5030,1106 5032,1105 5033,1105 L 5060,1094 C 5061,1094 5061,1093 5062,1093 L 5090,1083 C 5091,1083 5091,1083 5092,1082 L 5120,1073 5123,1073 5151,1065 C 5152,1064 5152,1064 5153,1064 L 5181,1057 5184,1057 5212,1050 5215,1050 5243,1045 C 5244,1045 5245,1045 5246,1044 L 5275,1040 5277,1040 5306,1037 C 5307,1037 5308,1037 5309,1036 L 5338,1034 5340,1034 5369,1033 C 5370,1033 5371,1032 5372,1032 L 5400,1032 5400,1030 5428,1030 C 5429,1030 5430,1031 5431,1031 L 5460,1032 5462,1032 5491,1034 C 5492,1035 5493,1035 5494,1035 L 5523,1038 5525,1038 5554,1042 C 5555,1043 5556,1043 5557,1043 L 5585,1048 5588,1048 5616,1055 5619,1055 5647,1062 C 5648,1062 5648,1062 5649,1063 L 5677,1071 5680,1071 5708,1080 C 5709,1081 5709,1081 5710,1081 L 5738,1091 C 5739,1091 5739,1092 5740,1092 L 5767,1103 C 5768,1103 5770,1104 5771,1104 L 5824,1129 C 5826,1129 5827,1130 5828,1130 L 5881,1158 C 5881,1159 5882,1159 5883,1159 5884,1160 5885,1160 5885,1161 L 5935,1192 C 5937,1193 5938,1194 5939,1195 L 5987,1229 5989,1231 6012,1249 C 6013,1250 6014,1250 6014,1251 L 6037,1270 6038,1271 6060,1291 C 6061,1291 6061,1292 6062,1292 L 6083,1313 6084,1314 6105,1336 6106,1337 6126,1359 6128,1361 6147,1383 C 6147,1384 6148,1384 6148,1385 L 6167,1408 C 6167,1409 6168,1409 6168,1410 L 6186,1434 C 6186,1435 6187,1435 6187,1436 L 6204,1460 C 6204,1461 6205,1461 6205,1462 L 6221,1487 C 6221,1488 6222,1488 6222,1489 L 6237,1514 C 6237,1515 6238,1515 6238,1515 L 6238,1516 6253,1542 C 6253,1543 6253,1543 6254,1544 L 6267,1570 C 6268,1571 6268,1572 6268,1573 L 6281,1599 C 6281,1600 6282,1600 6282,1601 L 6294,1629 C 6294,1630 6294,1630 6295,1631 L 6305,1658 C 6306,1659 6306,1659 6306,1660 L 6316,1688 C 6316,1689 6317,1689 6317,1690 L 6326,1718 6326,1721 6334,1749 C 6335,1750 6335,1751 6335,1752 L 6348,1809 C 6349,1810 6349,1811 6349,1812 L 6354,1841 C 6355,1842 6355,1842 6355,1843 L 6359,1872 C 6359,1873 6359,1873 6360,1874 L 6363,1903 6363,1906 6366,1935 6366,1937 6367,1967 6367,1969 6368,1999 6368,2000 6368,2001 6367,2031 6367,2033 6366,2063 6366,2065 6363,2094 6363,2097 6360,2126 C 6359,2127 6359,2127 6359,2128 L 6355,2157 C 6355,2158 6355,2159 6354,2159 L 6349,2188 C 6349,2189 6349,2190 6348,2191 L 6335,2249 C 6335,2250 6335,2251 6334,2252 L 6326,2280 6326,2282 6317,2310 C 6317,2311 6316,2311 6316,2312 L 6306,2340 6306,2342 6295,2369 C 6295,2370 6294,2370 6294,2371 L 6282,2398 C 6282,2399 6282,2400 6281,2400 L 6269,2427 C 6269,2428 6268,2429 6268,2430 L 6240,2483 C 6240,2484 6239,2484 6239,2485 6238,2486 6237,2487 6237,2488 L 6260,2507 C 6261,2507 6261,2508 6262,2508 L 6336,2570 C 6336,2571 6337,2572 6338,2572 L 6411,2639 6413,2641 6485,2712 6487,2714 6512,2740 C 6512,2741 6671,2906 6671,2906 6671,2906 5965,3902 5484,4588 5391,4720 5749,4937 5851,4865 6115,4697 7056,3248 7056,3248 7056,3248 7350,3660 7497,3910 Z"/>
       </g>
      </g>
      <g class="com.sun.star.drawing.ClosedBezierShape">
       <g id="id5">
        <rect class="BoundingBox" stroke="none" fill="none" x="3145" y="1388" width="4513" height="6432"/>
        <path fill="rgb(128,128,128)" stroke="none" d="M 5150,4507 C 5146,4512 5104,4599 5104,4649 5104,4810 5232,4969 5424,5086 5616,5203 5859,5342 6086,5115 6542,4659 6806,4204 7085,3807 7379,4307 7489,4666 7600,5115 7711,5564 7640,6119 7551,6416 7462,6713 7495,6596 7495,6596 L 7429,6774 7355,6949 7273,7120 7184,7286 7090,7445 6991,7595 6888,7736 6823,7818 3977,7816 3912,7734 3809,7593 3710,7443 3616,7284 3527,7118 3445,6947 3371,6772 3305,6594 3249,6414 3205,6237 3173,6059 3161,5972 3152,5886 3147,5800 3145,5715 3145,5681 3145,5680 3147,5577 3153,5477 3163,5378 3176,5281 3193,5185 3213,5090 3236,4996 3263,4904 3293,4812 3326,4722 3400,4543 3485,4370 3579,4200 3683,4033 3795,3869 3913,3709 4037,3553 4297,3252 4566,2965 4650,2882 4735,2808 4821,2739 4909,2676 C 4909,2675 4910,2675 4910,2675 L 4914,2672 C 4916,2671 4917,2670 4918,2669 L 4922,2665 4925,2662 4930,2658 C 4931,2658 4932,2657 4932,2656 L 4936,2651 C 4937,2651 4938,2650 4939,2649 L 4943,2644 C 4943,2643 4944,2643 4945,2642 L 4948,2637 4950,2635 4953,2630 C 4954,2629 4954,2628 4955,2628 L 4958,2623 C 4959,2622 4959,2621 4960,2620 4960,2619 4961,2618 4961,2617 L 4964,2611 C 4965,2610 4966,2609 4966,2607 L 4969,2601 C 4969,2600 4970,2598 4971,2597 L 4973,2591 C 4973,2589 4974,2588 4974,2586 L 4976,2580 C 4977,2578 4977,2577 4978,2576 L 4979,2569 C 4979,2567 4980,2566 4980,2564 L 4981,2557 C 4981,2556 4982,2554 4982,2553 L 4982,2546 C 4983,2544 4983,2543 4983,2541 L 4983,2534 4983,2532 4983,2530 4983,2523 C 4983,2521 4983,2520 4982,2518 L 4982,2511 C 4982,2510 4981,2508 4981,2507 L 4980,2500 C 4980,2498 4979,2497 4979,2495 L 4978,2488 C 4977,2487 4977,2486 4976,2484 L 4974,2478 C 4974,2476 4973,2475 4973,2473 L 4971,2467 C 4970,2466 4969,2464 4969,2463 L 4966,2457 C 4966,2455 4965,2454 4964,2453 L 4961,2447 4960,2444 C 4960,2443 4959,2443 4959,2442 L 4957,2440 C 4957,2439 4957,2438 4956,2438 L 4955,2436 C 4954,2435 4954,2434 4953,2433 L 4952,2431 4950,2429 4949,2427 C 4948,2426 4948,2425 4947,2425 L 4945,2422 4943,2420 4942,2418 4941,2417 4915,2439 4940,2416 4939,2416 4920,2392 4901,2367 4883,2341 4866,2314 4857,2297 4848,2279 4839,2261 4831,2243 4824,2224 4817,2205 4811,2186 4806,2166 4800,2146 4796,2126 4792,2106 4789,2086 4787,2066 4785,2046 4784,2026 4784,2006 4784,1986 4785,1966 4787,1946 4789,1926 4792,1906 4796,1886 4800,1866 4806,1846 4811,1826 4817,1807 4824,1788 4831,1769 4839,1751 4848,1733 4857,1715 4867,1697 4877,1680 4888,1663 4900,1646 4912,1630 4924,1614 4937,1598 4951,1583 4965,1569 4980,1555 4995,1541 5010,1528 5026,1516 5042,1503 5059,1492 5076,1481 5093,1471 5111,1460 5129,1451 5147,1443 5166,1435 5204,1420 5242,1409 5281,1400 5322,1393 5341,1391 5362,1389 5382,1388 5400,1388 5400,1390 5418,1390 5438,1391 5459,1393 5478,1395 5519,1402 5558,1411 5596,1422 5634,1437 5653,1445 5671,1453 5689,1462 5707,1473 5724,1483 5741,1494 5758,1505 5774,1518 5790,1530 5805,1543 5820,1557 5835,1571 5849,1585 5863,1600 5876,1616 5888,1632 5900,1648 5912,1665 5923,1682 5933,1699 5943,1717 5952,1735 5961,1753 5969,1771 5976,1790 5983,1809 5989,1828 5994,1848 6000,1868 6004,1888 6008,1908 6011,1928 6013,1948 6015,1968 6016,1988 6016,2008 6016,2028 6015,2048 6013,2068 6011,2088 6008,2108 6004,2128 6000,2148 5994,2168 5989,2188 5983,2207 5976,2226 5969,2245 5961,2263 5952,2281 5943,2299 5934,2316 5917,2343 5899,2369 5880,2394 5861,2418 5860,2418 5885,2441 5859,2419 5858,2420 5857,2422 5855,2424 5853,2427 C 5852,2427 5852,2428 5851,2429 L 5850,2431 5848,2433 5847,2435 C 5846,2436 5846,2437 5845,2438 L 5844,2440 C 5843,2440 5843,2441 5843,2442 L 5841,2444 C 5841,2445 5840,2445 5840,2446 L 5839,2449 5836,2455 C 5835,2456 5834,2457 5834,2459 L 5831,2465 C 5831,2466 5830,2468 5829,2469 L 5827,2475 C 5827,2477 5826,2478 5826,2480 L 5824,2486 C 5823,2488 5823,2489 5822,2490 L 5821,2497 C 5821,2499 5820,2500 5820,2502 L 5819,2509 C 5819,2510 5818,2512 5818,2513 L 5818,2520 C 5817,2522 5817,2523 5817,2525 L 5817,2532 5817,2534 5817,2536 5817,2543 C 5817,2545 5817,2546 5818,2548 L 5818,2555 C 5818,2556 5819,2558 5819,2559 L 5820,2566 C 5820,2568 5821,2569 5821,2571 L 5822,2578 C 5823,2579 5823,2580 5824,2582 L 5826,2588 C 5826,2590 5827,2591 5827,2593 L 5829,2599 C 5830,2600 5831,2602 5831,2603 L 5834,2609 C 5834,2611 5835,2612 5836,2613 L 5839,2619 C 5839,2620 5840,2621 5840,2622 5841,2623 5841,2624 5842,2625 L 5845,2630 C 5846,2630 5846,2631 5847,2632 L 5850,2637 5852,2639 5855,2644 C 5856,2645 5857,2645 5857,2646 L 5861,2651 C 5862,2652 5863,2653 5864,2653 L 5868,2658 C 5868,2659 5869,2660 5870,2660 L 5875,2664 5878,2667 5882,2671 C 5883,2672 5884,2673 5886,2674 L 5890,2677 C 5890,2677 5891,2677 5891,2678 L 5979,2741 6065,2810 6150,2884 6234,2967 C 6234,2967 5503,3981 5150,4507 Z"/>
       </g>
      </g>
      <g class="com.sun.star.drawing.ClosedBezierShape">
       <g id="id6">
        <rect class="BoundingBox" stroke="none" fill="none" x="2531" y="8163" width="5727" height="1394"/>
        <path fill="rgb(128,128,128)" stroke="none" d="M 8257,9555 C 8254,9366 8242,9169 8224,8983 8223,8979 8186,8752 8140,8663 8095,8575 8035,8500 7968,8439 7898,8376 7820,8326 7741,8288 7663,8250 7585,8224 7514,8210 7197,8147 3592,8147 3275,8210 3204,8224 3126,8250 3047,8288 2970,8326 2892,8376 2822,8439 L 2821,8440 C 2753,8500 2693,8575 2648,8663 2604,8752 2574,8853 2566,8971 2566,8971 2535,9364 2531,9555 L 8257,9555 Z"/>
       </g>
      </g>
     </g>
    </g>
   </g>
  </g>
 </g>
</svg>