<?xml version="1.0" encoding="UTF-8"?>
<!DOCTYPE svg PUBLIC "-//W3C//DTD SVG 1.1//EN" "http://www.w3.org/Graphics/SVG/1.1/DTD/svg11.dtd">
<svg version="1.2" width="108mm" height="108mm" viewBox="0 0 10800 10800" preserveAspectRatio="xMidYMid" fill-rule="evenodd" stroke-width="28.222" stroke-linejoin="round" xmlns="http://www.w3.org/2000/svg" xmlns:ooo="http://xml.openoffice.org/svg/export" xmlns:xlink="http://www.w3.org/1999/xlink" xmlns:presentation="http://sun.com/xmlns/staroffice/presentation" xmlns:smil="http://www.w3.org/2001/SMIL20/" xmlns:anim="urn:oasis:names:tc:opendocument:xmlns:animation:1.0" xmlns:svg="urn:oasis:names:tc:opendocument:xmlns:svg-compatible:1.0" xml:space="preserve">
 <defs class="ClipPathGroup">
  <clipPath id="presentation_clip_path" clipPathUnits="userSpaceOnUse">
   <rect x="0" y="0" width="10800" height="10800"/>
  </clipPath>
  <clipPath id="presentation_clip_path_shrink" clipPathUnits="userSpaceOnUse">
   <rect x="10" y="10" width="10779" height="10779"/>
  </clipPath>
 </defs>
 <defs class="EmbeddedBulletChars">
  <g id="bullet-char-template-57356" transform="scale(0.00048828125,-0.00048828125)">
   <path d="M 580,1141 L 1163,571 580,0 -4,571 580,1141 Z"/>
  </g>
  <g id="bullet-char-template-57354" transform="scale(0.00048828125,-0.00048828125)">
   <path d="M 8,1128 L 1137,1128 1137,0 8,0 8,1128 Z"/>
  </g>
  <g id="bullet-char-template-10146" transform="scale(0.00048828125,-0.00048828125)">
   <path d="M 174,0 L 602,739 174,1481 1456,739 174,0 Z M 1358,739 L 309,1346 659,739 1358,739 Z"/>
  </g>
  <g id="bullet-char-template-10132" transform="scale(0.00048828125,-0.00048828125)">
   <path d="M 2015,739 L 1276,0 717,0 1260,543 174,543 174,936 1260,936 717,1481 1274,1481 2015,739 Z"/>
  </g>
  <g id="bullet-char-template-10007" transform="scale(0.00048828125,-0.00048828125)">
   <path d="M 0,-2 C -7,14 -16,27 -25,37 L 356,567 C 262,823 215,952 215,954 215,979 228,992 255,992 264,992 276,990 289,987 310,991 331,999 354,1012 L 381,999 492,748 772,1049 836,1024 860,1049 C 881,1039 901,1025 922,1006 886,937 835,863 770,784 769,783 710,716 594,584 L 774,223 C 774,196 753,168 711,139 L 727,119 C 717,90 699,76 672,76 641,76 570,178 457,381 L 164,-76 C 142,-110 111,-127 72,-127 30,-127 9,-110 8,-76 1,-67 -2,-52 -2,-32 -2,-23 -1,-13 0,-2 Z"/>
  </g>
  <g id="bullet-char-template-10004" transform="scale(0.00048828125,-0.00048828125)">
   <path d="M 285,-33 C 182,-33 111,30 74,156 52,228 41,333 41,471 41,549 55,616 82,672 116,743 169,778 240,778 293,778 328,747 346,684 L 369,508 C 377,444 397,411 428,410 L 1163,1116 C 1174,1127 1196,1133 1229,1133 1271,1133 1292,1118 1292,1087 L 1292,965 C 1292,929 1282,901 1262,881 L 442,47 C 390,-6 338,-33 285,-33 Z"/>
  </g>
  <g id="bullet-char-template-9679" transform="scale(0.00048828125,-0.00048828125)">
   <path d="M 813,0 C 632,0 489,54 383,161 276,268 223,411 223,592 223,773 276,916 383,1023 489,1130 632,1184 813,1184 992,1184 1136,1130 1245,1023 1353,916 1407,772 1407,592 1407,412 1353,268 1245,161 1136,54 992,0 813,0 Z"/>
  </g>
  <g id="bullet-char-template-8226" transform="scale(0.00048828125,-0.00048828125)">
   <path d="M 346,457 C 273,457 209,483 155,535 101,586 74,649 74,723 74,796 101,859 155,911 209,963 273,989 346,989 419,989 480,963 531,910 582,859 608,796 608,723 608,648 583,586 532,535 482,483 420,457 346,457 Z"/>
  </g>
  <g id="bullet-char-template-8211" transform="scale(0.00048828125,-0.00048828125)">
   <path d="M -4,459 L 1135,459 1135,606 -4,606 -4,459 Z"/>
  </g>
  <g id="bullet-char-template-61548" transform="scale(0.00048828125,-0.00048828125)">
   <path d="M 173,740 C 173,903 231,1043 346,1159 462,1274 601,1332 765,1332 928,1332 1067,1274 1183,1159 1299,1043 1357,903 1357,740 1357,577 1299,437 1183,322 1067,206 928,148 765,148 601,148 462,206 346,322 231,437 173,577 173,740 Z"/>
  </g>
 </defs>
 <g>
  <g id="id2" class="Master_Slide">
   <g id="bg-id2" class="Background"/>
   <g id="bo-id2" class="BackgroundObjects"/>
  </g>
 </g>
 <g class="SlideGroup">
  <g>
   <g id="container-id1">
    <g id="id1" class="Slide" clip-path="url(#presentation_clip_path)">
     <g class="Page">
      <g class="com.sun.star.drawing.ClosedBezierShape">
       <g id="id3">
        <rect class="BoundingBox" stroke="none" fill="none" x="2218" y="1858" width="6365" height="8016"/>
        <path fill="rgb(0,0,0)" stroke="none" d="M 2378,9873 L 2377,9873 C 2364,9873 2350,9871 2336,9868 2323,9864 2310,9859 2298,9852 2286,9845 2274,9836 2264,9826 2255,9817 2247,9806 2240,9795 L 2239,9794 2239,9793 C 2232,9781 2227,9769 2223,9756 2220,9742 2218,9729 2218,9715 L 2218,9668 C 2218,9439 2232,9192 2254,8959 L 2254,8955 C 2254,8951 2255,8946 2256,8942 2267,8781 2309,8641 2371,8519 2434,8395 2519,8290 2613,8204 2707,8118 2811,8051 2915,8001 2980,7970 3046,7944 3109,7925 L 3462,4779 3422,4763 C 3421,4763 3421,4762 3420,4762 L 3381,4745 C 3380,4744 3380,4744 3379,4744 L 3341,4725 C 3340,4724 3339,4724 3338,4723 L 3301,4702 3300,4702 C 3299,4701 3298,4701 3297,4700 L 3261,4677 C 3260,4677 3259,4676 3258,4675 L 3239,4662 C 3238,4661 3238,4661 3237,4661 L 3218,4646 C 3217,4646 3217,4645 3216,4645 L 3197,4630 3195,4628 3176,4612 C 3176,4611 3175,4611 3175,4610 L 3156,4593 3155,4592 3136,4574 C 3136,4573 3135,4573 3135,4572 L 3117,4553 C 3116,4553 3116,4552 3115,4551 L 3098,4531 C 3097,4531 3097,4531 3097,4530 L 3080,4510 C 3079,4510 3079,4509 3078,4508 L 3061,4487 C 3061,4486 3060,4486 3060,4485 L 3043,4463 C 3043,4462 3042,4462 3042,4461 L 3026,4437 3024,4435 3008,4410 C 3008,4409 3007,4409 3007,4408 L 2991,4382 2991,4381 C 2991,4380 2990,4380 2990,4379 L 2959,4322 C 2959,4321 2958,4320 2958,4319 L 2930,4259 C 2929,4258 2929,4257 2928,4256 L 2901,4190 C 2901,4189 2901,4188 2900,4188 L 2875,4116 C 2874,4115 2874,4114 2874,4113 L 2849,4035 C 2849,4034 2849,4033 2848,4032 L 2826,3949 2826,3947 2805,3858 C 2805,3857 2804,3857 2804,3856 L 2785,3759 C 2784,3758 2784,3758 2784,3757 L 2766,3652 2766,3650 2749,3539 2749,3538 2734,3419 C 2733,3418 2733,3418 2733,3417 L 2707,3152 2707,3149 2673,2509 2673,2505 2673,2502 2673,2500 2673,2493 C 2673,2491 2673,2490 2674,2488 L 2674,2481 C 2674,2480 2675,2478 2675,2477 L 2676,2470 C 2676,2468 2677,2467 2677,2465 L 2678,2458 C 2679,2457 2679,2456 2680,2454 L 2682,2448 C 2682,2446 2683,2445 2683,2443 L 2685,2437 C 2686,2436 2687,2434 2687,2433 L 2690,2427 C 2690,2425 2691,2424 2692,2423 L 2695,2417 C 2695,2416 2696,2415 2696,2414 2697,2413 2697,2412 2698,2411 L 2701,2406 2704,2403 2707,2397 2710,2394 2714,2389 C 2715,2388 2716,2387 2716,2386 L 2721,2381 2724,2378 2728,2374 C 2729,2373 2731,2372 2732,2371 L 2737,2366 C 2738,2365 2739,2364 2740,2364 L 2745,2360 C 2747,2359 2748,2358 2749,2357 L 2755,2353 C 2756,2353 2756,2352 2757,2352 L 2843,2301 C 2844,2300 2845,2300 2846,2300 L 2929,2256 C 2930,2255 2931,2255 2932,2254 L 3014,2216 C 3015,2216 3016,2215 3017,2215 L 3097,2182 C 3098,2182 3099,2181 3100,2181 L 3177,2154 C 3178,2153 3180,2153 3181,2153 L 3256,2130 C 3257,2129 3258,2129 3259,2129 L 3332,2110 3335,2110 3405,2095 C 3406,2094 3407,2094 3408,2094 L 3475,2082 3478,2082 3543,2072 3545,2072 3608,2065 3610,2065 3669,2060 3671,2060 3870,2048 3874,2048 3880,2048 3882,2048 3889,2048 C 3891,2048 3892,2048 3894,2049 L 3901,2049 C 3902,2049 3904,2050 3905,2050 L 3912,2051 C 3914,2051 3915,2052 3917,2052 L 3924,2053 C 3925,2054 3926,2054 3928,2055 L 3934,2057 C 3936,2057 3937,2058 3939,2058 L 3945,2060 C 3946,2061 3948,2062 3949,2062 L 3955,2065 C 3957,2065 3958,2066 3959,2067 L 3965,2070 C 3966,2070 3967,2071 3968,2071 3969,2072 3971,2073 3972,2074 L 3978,2078 C 3979,2078 3980,2079 3981,2080 L 3986,2084 C 3987,2085 3988,2086 3989,2086 L 3995,2091 3998,2094 4003,2098 4006,2101 4010,2106 4013,2109 4018,2115 C 4018,2116 4019,2117 4020,2118 L 4024,2123 C 4025,2124 4026,2125 4026,2126 L 4030,2132 C 4031,2133 4032,2135 4033,2136 4033,2138 4034,2139 4035,2141 L 4038,2147 C 4038,2148 4039,2148 4039,2149 L 4042,2156 C 4042,2157 4043,2158 4043,2159 L 4044,2162 C 4045,2163 4045,2163 4045,2164 L 4046,2168 C 4047,2168 4047,2169 4047,2170 L 4048,2174 C 4049,2175 4049,2176 4049,2177 L 4050,2179 4276,3024 4454,3025 4545,2119 C 4545,2118 4546,2116 4546,2115 L 4547,2109 4547,2106 4548,2101 C 4549,2100 4549,2099 4549,2097 L 4551,2092 4551,2089 4553,2083 C 4553,2082 4554,2082 4554,2081 L 4556,2075 C 4556,2074 4557,2073 4557,2072 L 4559,2067 C 4560,2066 4560,2065 4560,2064 L 4563,2059 C 4563,2058 4564,2057 4564,2056 L 4567,2051 C 4567,2050 4568,2049 4568,2048 4569,2047 4570,2045 4571,2044 L 4575,2038 C 4575,2037 4576,2036 4577,2035 L 4581,2030 C 4582,2029 4583,2028 4583,2027 L 4588,2021 4591,2018 4595,2013 4598,2010 4603,2006 4606,2003 4612,1998 C 4613,1998 4614,1997 4615,1996 L 4620,1992 C 4621,1991 4622,1990 4623,1990 L 4629,1986 C 4630,1985 4632,1984 4633,1983 4635,1982 4636,1982 4638,1981 L 4646,1977 C 4647,1977 4647,1976 4648,1976 L 4656,1973 C 4657,1972 4658,1972 4659,1971 L 4667,1969 C 4668,1968 4670,1968 4671,1967 L 4679,1965 C 4681,1964 4683,1964 4685,1963 L 4905,1918 4907,1918 5086,1886 5088,1886 5169,1874 5171,1874 5246,1865 5249,1865 5319,1860 5323,1860 5391,1858 5393,1858 5401,1858 5405,1858 5406,1858 5410,1858 5413,1858 5417,1859 5421,1859 5483,1861 5487,1861 5555,1866 5558,1866 5631,1875 5633,1875 5712,1887 5714,1887 5893,1919 5895,1919 6115,1964 C 6117,1965 6119,1965 6121,1966 L 6129,1968 C 6130,1969 6132,1969 6133,1970 L 6141,1972 C 6142,1973 6143,1973 6144,1974 L 6152,1977 C 6153,1977 6153,1978 6154,1978 L 6162,1982 C 6164,1983 6165,1983 6167,1984 6168,1985 6170,1986 6171,1987 L 6177,1991 C 6178,1991 6179,1992 6180,1993 L 6185,1997 C 6186,1998 6187,1999 6188,1999 L 6194,2004 6197,2007 6202,2011 6205,2014 6209,2019 6212,2022 6217,2028 C 6217,2029 6218,2030 6219,2031 L 6223,2036 C 6224,2037 6225,2038 6225,2039 L 6229,2045 C 6230,2046 6231,2048 6232,2049 6232,2050 6233,2051 6233,2052 L 6236,2057 C 6236,2058 6237,2059 6237,2060 L 6240,2065 C 6240,2066 6240,2067 6241,2068 L 6243,2073 C 6243,2074 6244,2075 6244,2076 L 6246,2082 C 6246,2083 6247,2083 6247,2084 L 6249,2090 6249,2093 6251,2098 C 6251,2100 6251,2101 6252,2102 L 6253,2107 6253,2110 6254,2116 C 6254,2117 6255,2119 6255,2120 L 6346,3026 6524,3025 6750,2180 6751,2178 C 6751,2177 6751,2176 6752,2175 L 6753,2171 C 6753,2170 6753,2169 6754,2169 L 6755,2165 C 6755,2164 6755,2164 6756,2163 L 6757,2160 C 6757,2159 6758,2158 6758,2157 L 6761,2150 C 6761,2149 6762,2149 6762,2148 L 6765,2142 C 6766,2140 6767,2139 6767,2137 6768,2136 6769,2134 6770,2133 L 6774,2127 C 6774,2126 6775,2125 6776,2124 L 6780,2119 C 6781,2118 6782,2117 6782,2116 L 6787,2110 6790,2107 6794,2102 6797,2099 6802,2095 6805,2092 6811,2087 C 6812,2087 6813,2086 6814,2085 L 6819,2081 C 6820,2080 6821,2079 6822,2079 L 6828,2075 C 6829,2074 6831,2073 6832,2072 6833,2072 6834,2071 6835,2071 L 6841,2068 C 6842,2067 6843,2066 6845,2066 L 6851,2063 C 6852,2063 6854,2062 6855,2061 L 6861,2059 C 6863,2059 6864,2058 6866,2058 L 6872,2056 C 6874,2055 6875,2055 6876,2054 L 6883,2053 C 6885,2053 6886,2052 6888,2052 L 6895,2051 C 6896,2051 6898,2050 6899,2050 L 6906,2050 C 6908,2049 6909,2049 6911,2049 L 6918,2049 6920,2049 6926,2049 6930,2049 7169,2063 7172,2063 7293,2076 7296,2076 7357,2085 C 7358,2085 7359,2085 7360,2086 L 7423,2097 C 7424,2097 7424,2097 7425,2098 L 7492,2112 C 7493,2113 7495,2113 7496,2113 L 7565,2132 C 7566,2132 7567,2132 7568,2133 L 7639,2156 C 7640,2156 7641,2157 7642,2157 L 7715,2185 C 7716,2185 7717,2185 7717,2186 L 7792,2218 C 7793,2218 7794,2218 7795,2219 L 7873,2256 C 7874,2257 7875,2257 7876,2258 L 7956,2301 C 7957,2302 7957,2302 7958,2302 7958,2303 7959,2303 7959,2303 L 8043,2353 C 8044,2353 8044,2354 8045,2354 L 8051,2358 C 8052,2359 8053,2360 8055,2361 L 8060,2365 C 8061,2365 8062,2366 8063,2367 L 8068,2372 C 8069,2373 8071,2374 8072,2375 L 8076,2379 8079,2382 8084,2387 C 8084,2388 8085,2389 8086,2390 L 8090,2395 8093,2398 8096,2404 8099,2407 8102,2412 C 8103,2413 8103,2414 8104,2415 8104,2416 8105,2417 8105,2418 L 8108,2424 C 8109,2425 8110,2426 8110,2428 L 8113,2434 C 8113,2435 8114,2437 8115,2438 L 8117,2444 C 8117,2446 8118,2447 8118,2449 L 8120,2455 C 8121,2457 8121,2458 8122,2459 L 8123,2466 C 8123,2468 8124,2469 8124,2471 L 8125,2478 C 8125,2479 8126,2481 8126,2482 L 8126,2489 C 8127,2491 8127,2492 8127,2494 L 8127,2501 8127,2503 8127,2506 8127,2510 8093,3150 8093,3153 8067,3418 C 8067,3419 8067,3419 8066,3420 L 8051,3539 8051,3540 8034,3651 8034,3653 8016,3758 C 8016,3759 8016,3759 8015,3760 L 7996,3857 C 7996,3858 7995,3858 7995,3859 L 7974,3948 7974,3950 7952,4033 C 7951,4034 7951,4035 7951,4036 L 7926,4114 C 7926,4115 7926,4116 7925,4117 L 7900,4189 C 7899,4189 7899,4190 7899,4191 L 7872,4257 C 7871,4258 7871,4259 7870,4260 L 7842,4320 C 7842,4321 7841,4322 7841,4323 L 7810,4380 C 7810,4381 7809,4381 7809,4382 L 7809,4383 7793,4409 C 7793,4410 7792,4410 7792,4411 L 7776,4436 7774,4438 7758,4462 C 7758,4463 7757,4463 7757,4464 L 7740,4486 C 7740,4487 7739,4487 7739,4488 L 7722,4509 C 7721,4510 7721,4511 7720,4511 L 7703,4531 C 7703,4532 7703,4532 7702,4532 L 7685,4552 C 7684,4553 7684,4554 7683,4554 L 7665,4573 C 7665,4574 7664,4574 7664,4575 L 7645,4593 7644,4594 7625,4611 C 7625,4612 7624,4612 7624,4613 L 7605,4629 7603,4631 7584,4646 C 7583,4646 7583,4647 7582,4647 L 7563,4662 C 7562,4662 7562,4662 7561,4663 L 7542,4676 C 7541,4677 7540,4678 7539,4678 L 7503,4701 C 7502,4702 7501,4702 7500,4703 L 7499,4703 7462,4724 C 7461,4725 7460,4725 7459,4726 L 7421,4745 C 7420,4745 7420,4745 7419,4746 L 7380,4763 C 7379,4763 7379,4764 7378,4764 L 7341,4779 7689,7925 C 7753,7944 7820,7969 7886,8001 7989,8051 8094,8118 8187,8204 8282,8290 8366,8395 8429,8519 8492,8642 8535,8783 8546,8946 L 8546,8950 C 8569,9185 8582,9436 8582,9668 L 8582,9715 C 8582,9729 8580,9742 8577,9756 8573,9769 8568,9781 8561,9793 8554,9805 8546,9817 8536,9827 8526,9837 8514,9845 8502,9852 8490,9859 8477,9864 8464,9868 8451,9871 8437,9873 8423,9873 L 2378,9873 Z"/>
       </g>
      </g>
      <g class="com.sun.star.drawing.ClosedBezierShape">
       <g id="id4">
        <rect class="BoundingBox" stroke="none" fill="none" x="8151" y="8204" width="37" height="41"/>
        <path fill="rgb(0,0,0)" stroke="none" d="M 8187,8204 L 8151,8243 8186,8204 C 8187,8204 8187,8204 8187,8204 Z"/>
       </g>
      </g>
      <g class="com.sun.star.drawing.ClosedBezierShape">
       <g id="id5">
        <rect class="BoundingBox" stroke="none" fill="none" x="3029" y="2210" width="4742" height="2270"/>
        <path fill="rgb(128,128,128)" stroke="none" d="M 3695,2411 L 3643,2415 3589,2421 3533,2429 3474,2440 3414,2452 3352,2468 3288,2487 3223,2510 3167,2533 3110,2559 3051,2588 3029,2601 3058,3121 3113,3595 3130,3690 3148,3779 3167,3861 3187,3935 3207,4001 3229,4060 3251,4114 3273,4163 3295,4203 3318,4240 3329,4257 3340,4273 3351,4287 3362,4301 3386,4326 3397,4337 3408,4347 3420,4357 3431,4366 3443,4375 3455,4383 3481,4400 3506,4414 3533,4427 3559,4439 3617,4462 3660,4478 7139,4479 7183,4463 7240,4440 7267,4428 7293,4415 7319,4401 7344,4384 7356,4376 7368,4367 7380,4358 7391,4348 7403,4338 7414,4327 7437,4302 7448,4288 7459,4274 7471,4258 7482,4241 7504,4204 7526,4164 7549,4115 7571,4061 7592,4002 7612,3936 7632,3862 7652,3780 7670,3691 7742,3122 7770,2601 7748,2589 7692,2559 7638,2533 7585,2511 7524,2489 7466,2470 7409,2454 7354,2441 7309,2433 7264,2426 7175,2417 7053,2409 6830,3245 6829,3248 C 6829,3249 6828,3250 6828,3251 L 6827,3255 C 6827,3256 6826,3256 6826,3257 L 6825,3261 C 6825,3261 6824,3262 6824,3263 L 6823,3266 C 6823,3267 6822,3268 6822,3269 L 6819,3275 C 6819,3276 6818,3277 6818,3278 L 6815,3284 C 6814,3286 6813,3287 6812,3289 6812,3290 6811,3291 6810,3292 L 6806,3298 C 6806,3299 6805,3300 6804,3301 L 6800,3307 C 6799,3308 6799,3309 6798,3310 L 6793,3315 C 6792,3316 6792,3317 6791,3318 L 6786,3323 C 6785,3325 6784,3326 6783,3327 L 6778,3331 C 6777,3332 6776,3333 6774,3334 L 6769,3339 C 6768,3340 6767,3341 6765,3342 L 6760,3346 C 6758,3347 6757,3348 6755,3349 L 6749,3352 C 6749,3353 6748,3353 6748,3353 6747,3354 6746,3354 6745,3355 L 6739,3358 C 6738,3359 6736,3359 6735,3360 L 6729,3363 C 6728,3363 6726,3364 6725,3364 L 6718,3367 C 6717,3367 6716,3368 6714,3368 L 6708,3370 C 6706,3371 6705,3371 6703,3371 L 6697,3373 C 6695,3373 6694,3374 6692,3374 L 6685,3375 C 6684,3375 6682,3375 6681,3376 L 6674,3376 C 6672,3376 6671,3377 6669,3377 L 6662,3377 C 6661,3377 6661,3377 6660,3377 L 6187,3378 C 6186,3378 6185,3378 6184,3378 L 6177,3378 C 6176,3378 6174,3377 6173,3377 L 6166,3377 C 6164,3376 6163,3376 6161,3376 L 6154,3375 C 6153,3375 6151,3374 6150,3374 L 6143,3372 C 6142,3372 6140,3372 6139,3371 L 6132,3369 C 6131,3369 6129,3368 6128,3368 L 6122,3365 C 6120,3365 6119,3364 6118,3364 L 6111,3361 C 6110,3360 6109,3360 6107,3359 L 6101,3356 C 6100,3355 6100,3355 6099,3354 6098,3354 6098,3354 6097,3353 L 6091,3350 C 6090,3349 6088,3348 6087,3347 L 6081,3343 C 6080,3342 6079,3341 6077,3340 L 6072,3335 C 6071,3334 6070,3333 6069,3332 L 6064,3328 C 6063,3327 6062,3326 6061,3324 L 6056,3319 C 6055,3318 6054,3317 6053,3316 L 6049,3311 C 6048,3310 6047,3309 6046,3308 L 6042,3302 C 6041,3301 6041,3300 6040,3299 L 6036,3293 C 6036,3292 6035,3291 6034,3290 6034,3289 6033,3288 6032,3287 L 6030,3282 C 6029,3281 6029,3280 6029,3279 L 6026,3274 C 6026,3273 6025,3272 6025,3271 L 6023,3266 C 6023,3265 6022,3264 6022,3263 L 6020,3258 C 6019,3257 6019,3255 6019,3254 L 6017,3249 C 6017,3248 6017,3246 6016,3245 L 6015,3240 C 6015,3238 6014,3237 6014,3235 L 6013,3230 C 6013,3228 6013,3227 6013,3225 L 6012,3220 5916,2283 5826,2265 5656,2234 5588,2224 5524,2217 5464,2212 5406,2211 5401,2211 5400,2211 5399,2211 5396,2211 C 5395,2211 5395,2211 5394,2211 L 5390,2211 C 5389,2211 5388,2211 5387,2211 L 5383,2210 C 5382,2210 5381,2210 5381,2210 L 5330,2211 5272,2216 5210,2223 5143,2233 4973,2264 4883,2282 4787,3219 4787,3224 C 4787,3226 4786,3227 4786,3229 L 4785,3234 C 4785,3236 4785,3237 4784,3239 L 4783,3244 C 4783,3245 4783,3247 4782,3248 L 4781,3253 C 4780,3254 4780,3256 4780,3257 L 4778,3262 C 4777,3263 4777,3264 4776,3265 L 4774,3270 C 4774,3271 4774,3272 4773,3273 L 4771,3278 C 4770,3279 4770,3280 4770,3281 L 4767,3286 C 4766,3287 4766,3288 4765,3289 4765,3290 4764,3291 4763,3292 L 4759,3298 C 4759,3299 4758,3300 4757,3301 L 4753,3307 C 4752,3308 4752,3309 4751,3310 L 4746,3315 C 4745,3316 4745,3317 4744,3318 L 4739,3323 C 4738,3325 4737,3326 4736,3327 L 4731,3331 C 4730,3332 4729,3333 4727,3334 L 4722,3339 C 4721,3340 4720,3341 4718,3342 L 4713,3346 C 4711,3347 4710,3348 4708,3349 L 4702,3352 C 4702,3353 4701,3353 4701,3353 4700,3354 4699,3354 4698,3355 L 4692,3358 C 4691,3359 4689,3359 4688,3360 L 4682,3363 C 4681,3363 4679,3364 4678,3364 L 4671,3367 C 4670,3367 4669,3368 4667,3368 L 4661,3370 C 4659,3371 4658,3371 4656,3371 L 4650,3373 C 4648,3373 4647,3374 4645,3374 L 4638,3375 C 4637,3375 4635,3375 4634,3376 L 4627,3376 C 4625,3376 4624,3377 4622,3377 L 4615,3377 C 4614,3377 4613,3377 4613,3377 L 4140,3376 C 4139,3376 4138,3376 4137,3376 L 4130,3376 C 4129,3376 4127,3375 4126,3375 L 4119,3375 C 4117,3374 4116,3374 4114,3374 L 4107,3373 C 4106,3373 4104,3372 4103,3372 L 4096,3370 C 4095,3370 4093,3370 4092,3369 L 4085,3367 C 4084,3367 4082,3366 4081,3366 L 4075,3363 C 4073,3363 4072,3362 4071,3362 L 4064,3359 C 4063,3358 4062,3358 4060,3357 L 4054,3354 C 4053,3353 4053,3353 4052,3352 4051,3352 4051,3352 4050,3351 L 4044,3348 C 4043,3347 4041,3346 4040,3345 L 4034,3341 C 4033,3340 4032,3339 4030,3338 L 4025,3333 C 4024,3332 4023,3331 4022,3330 L 4017,3326 C 4016,3325 4015,3324 4014,3322 L 4009,3317 C 4008,3316 4007,3315 4006,3314 L 4002,3309 C 4001,3308 4000,3307 3999,3306 L 3995,3300 C 3994,3299 3994,3298 3993,3297 L 3989,3291 C 3989,3290 3988,3289 3987,3288 3986,3286 3985,3285 3985,3283 L 3982,3277 C 3981,3276 3981,3275 3980,3274 L 3978,3268 C 3977,3267 3977,3266 3977,3265 L 3975,3262 C 3975,3261 3975,3260 3974,3260 L 3973,3256 C 3973,3255 3973,3255 3972,3254 L 3971,3250 C 3971,3249 3971,3248 3971,3247 L 3970,3244 3747,2407 3695,2411 Z"/>
       </g>
      </g>
      <g class="com.sun.star.drawing.PolyPolygonShape">
       <g id="id6">
        <rect class="BoundingBox" stroke="none" fill="none" x="3471" y="4814" width="3857" height="3048"/>
        <path fill="rgb(128,128,128)" stroke="none" d="M 6990,4815 L 7327,7861 3471,7861 3812,4814 6990,4815 Z"/>
       </g>
      </g>
      <g class="com.sun.star.drawing.CustomShape">
       <g id="id7">
        <rect class="BoundingBox" stroke="none" fill="none" x="0" y="0" width="10801" height="10801"/>
       </g>
      </g>
      <g class="com.sun.star.drawing.ClosedBezierShape">
       <g id="id8">
        <rect class="BoundingBox" stroke="none" fill="none" x="2531" y="8163" width="5727" height="1394"/>
        <path fill="rgb(128,128,128)" stroke="none" d="M 8257,9555 C 8254,9366 8242,9169 8224,8983 8223,8979 8186,8752 8140,8663 8095,8575 8035,8500 7968,8439 7898,8376 7820,8326 7741,8288 7663,8250 7585,8224 7514,8210 7197,8147 3592,8147 3275,8210 3204,8224 3126,8250 3047,8288 2970,8326 2892,8376 2822,8439 L 2821,8440 C 2753,8500 2693,8575 2648,8663 2604,8752 2574,8853 2566,8971 2566,8971 2535,9364 2531,9555 L 8257,9555 Z"/>
       </g>
      </g>
     </g>
    </g>
   </g>
  </g>
 </g>
</svg>