<?xml version="1.0" encoding="UTF-8" standalone="no"?>
<svg
   xmlns:dc="http://purl.org/dc/elements/1.1/"
   xmlns:cc="http://creativecommons.org/ns#"
   xmlns:rdf="http://www.w3.org/1999/02/22-rdf-syntax-ns#"
   xmlns:svg="http://www.w3.org/2000/svg"
   xmlns="http://www.w3.org/2000/svg"
   xmlns:xlink="http://www.w3.org/1999/xlink"
   xmlns:sodipodi="http://sodipodi.sourceforge.net/DTD/sodipodi-0.dtd"
   xmlns:inkscape="http://www.inkscape.org/namespaces/inkscape"
   width="52.916664mm"
   height="52.916664mm"
   viewBox="0 0 52.916664 52.916664"
   version="1.1"
   id="svg1114"
   inkscape:version="1.0.1 (3bc2e813f5, 2020-09-07)"
   sodipodi:docname="bb.svg">
  <defs
     id="defs1108">
    <linearGradient
       id="linearGradientBlackPieces">
      <stop
         id="stop2268"
         offset="0"
         style="stop-color:#000e1c;stop-opacity:1;" />
      <stop
         id="stop2270"
         offset="1"
         style="stop-color:#50506f;stop-opacity:1;" />
    </linearGradient>
    <linearGradient
       id="linearGradientBlackPiecesBorder">
      <stop
         style="stop-color:#808080;stop-opacity:1;"
         offset="0"
         id="stop7192" />
      <stop
         style="stop-color:#808080;stop-opacity:1;"
         offset="1"
         id="stop7194" />
    </linearGradient>
    <linearGradient
       inkscape:collect="always"
       xlink:href="#linearGradientBlackPieces"
       id="linearGradient3468"
       gradientUnits="userSpaceOnUse"
       gradientTransform="matrix(1.3414767,0,0,1.5265609,-250.52328,-52.498659)"
       x1="683"
       y1="74"
       x2="739.5"
       y2="69" />
    <linearGradient
       inkscape:collect="always"
       xlink:href="#linearGradientBlackPiecesBorder"
       id="linearGradient3465"
       gradientUnits="userSpaceOnUse"
       gradientTransform="matrix(1.0703804,0,0,1.0703804,-478.18164,-2.0871841)"
       x1="1075.8267"
       y1="163.4315"
       x2="1122.5205"
       y2="163.4315" />
    <linearGradient
       inkscape:collect="always"
       xlink:href="#linearGradientBlackPiecesBorder"
       id="linearGradient3462"
       gradientUnits="userSpaceOnUse"
       gradientTransform="matrix(1.0703804,0,0,1.0703804,-478.18164,-19.213271)"
       x1="1075.8267"
       y1="163.4315"
       x2="1122.5205"
       y2="163.4315" />
    <linearGradient
       inkscape:collect="always"
       xlink:href="#linearGradientBlackPiecesBorder"
       id="linearGradient3459"
       gradientUnits="userSpaceOnUse"
       gradientTransform="matrix(1.0703804,0,0,1.0703804,-478.18164,-62.169236)"
       x1="1075.8267"
       y1="163.4315"
       x2="1122.5205"
       y2="163.4315" />
    <linearGradient
       inkscape:collect="always"
       xlink:href="#linearGradientBlackPiecesBorder"
       id="linearGradient3456"
       gradientUnits="userSpaceOnUse"
       gradientTransform="matrix(1.0703804,0,0,1.0703804,-484.54564,-84.267504)"
       x1="1075.8267"
       y1="163.4315"
       x2="1122.5205"
       y2="163.4315" />
    <linearGradient
       inkscape:collect="always"
       xlink:href="#linearGradientBlackPiecesBorder"
       id="linearGradient3453"
       gradientUnits="userSpaceOnUse"
       gradientTransform="matrix(1.3414767,0,0,1.5265609,-256.18016,-55.327104)"
       x1="683"
       y1="74"
       x2="739.5"
       y2="69" />
  </defs>
  <sodipodi:namedview
     id="base"
     pagecolor="#ffffff"
     bordercolor="#666666"
     borderopacity="1.0"
     inkscape:pageopacity="0.0"
     inkscape:pageshadow="2"
     inkscape:zoom="0.42880795"
     inkscape:cx="257.46718"
     inkscape:cy="303.19691"
     inkscape:document-units="mm"
     inkscape:current-layer="layer1"
     inkscape:document-rotation="0"
     showgrid="false"
     fit-margin-top="0"
     fit-margin-left="0"
     fit-margin-right="0"
     fit-margin-bottom="0"
     inkscape:window-width="1920"
     inkscape:window-height="1137"
     inkscape:window-x="-8"
     inkscape:window-y="-8"
     inkscape:window-maximized="1" />
  <metadata
     id="metadata1111">
    <rdf:RDF>
      <cc:Work
         rdf:about="">
        <dc:format>image/svg+xml</dc:format>
        <dc:type
           rdf:resource="http://purl.org/dc/dcmitype/StillImage" />
        <dc:title></dc:title>
      </cc:Work>
    </rdf:RDF>
  </metadata>
  <g
     inkscape:label="Capa 1"
     inkscape:groupmode="layer"
     id="layer1"
     transform="translate(-37.711809,-67.945818)">
    <g
       id="BlackBishop"
       transform="matrix(0.26458333,0,0,0.26458333,-121.03819,67.945817)">
      <rect
         y="0"
         x="600"
         height="200"
         width="200"
         id="rect3532"
         style="fill:none;stroke:none" />
      <path
         sodipodi:nodetypes="cscccccsssscccsccscccsc"
         id="path4041"
         d="m 699.91657,14.275362 c -7.37192,0 -13.35493,4.985847 -13.35493,11.129121 0,1.777106 0.50101,3.447826 1.39112,4.938548 -15.24897,4.282287 -26.25775,16.91218 -26.25777,35.161068 0.60456,16.636146 9.02233,32.053715 22.53648,41.629871 -13.48885,5.29181 -0.6609,11.20031 -0.66079,25.30566 -9.80706,17.69122 -13.18247,19.37042 -29.87474,31.78756 -1.30079,0.91951 -11.3221,1.98751 -12.24204,3.16483 -6.88667,8.81354 -3.18293,23.53411 9.73798,24.37974 9.07579,0.59399 89.32679,0.75636 98.7014,-0.27823 14.3847,-1.58751 16.61929,-16.62937 9.98143,-24.93618 -1.01667,-1.27228 -11.1333,-2.38539 -12.55503,-3.26918 -13.13062,-7.17075 -29.77021,-17.66836 -34.29161,-30.84854 -2e-5,-14.1032 15.05042,-20.01258 1.56503,-25.30566 13.94102,-9.613557 21.97261,-23.601759 23.54505,-41.629871 0.85943,-9.853453 -4.58528,-19.717846 -13.00715,-26.744669 l -13.7723,31.196318 c -1.40461,3.18646 -5.09082,4.639014 -8.27728,3.234401 -3.18646,-1.404611 -4.63902,-5.125605 -3.2344,-8.312063 l 14.46785,-32.796129 c -0.94179,-0.408673 -1.88369,-0.773352 -2.85183,-1.112913 1.14505,-1.641306 1.80848,-3.530518 1.80848,-5.564561 0,-6.143274 -5.98301,-11.129121 -13.35495,-11.129121 z"
         style="fill:url(#linearGradient3468);fill-opacity:1;stroke:url(#linearGradient3468);stroke-width:5.00003;stroke-linecap:round;stroke-linejoin:round;stroke-miterlimit:4;stroke-dasharray:none"
         inkscape:connector-curvature="0" />
      <path
         sodipodi:nodetypes="cc"
         id="path4061"
         d="m 662.47857,172.8467 h 76.0289"
         style="opacity:0.5;fill:none;stroke:url(#linearGradient3465);stroke-width:5.00003;stroke-linecap:round;stroke-linejoin:round;stroke-miterlimit:4;stroke-dasharray:none;stroke-opacity:1"
         inkscape:connector-curvature="0" />
      <path
         style="opacity:0.5;fill:none;stroke:url(#linearGradient3462);stroke-width:5.00003;stroke-linecap:round;stroke-linejoin:round;stroke-miterlimit:4;stroke-dasharray:none;stroke-opacity:1"
         d="M 683.88618,155.72061 H 714.9591"
         id="path4063"
         sodipodi:nodetypes="cc"
         inkscape:connector-curvature="0" />
      <path
         sodipodi:nodetypes="cc"
         id="path4065"
         d="m 688.1677,112.76465 h 22.50989"
         style="opacity:0.5;fill:none;stroke:url(#linearGradient3459);stroke-width:5.00003;stroke-linecap:round;stroke-linejoin:round;stroke-miterlimit:4;stroke-dasharray:none;stroke-opacity:1"
         inkscape:connector-curvature="0" />
      <path
         sodipodi:nodetypes="cc"
         id="path4213"
         d="m 674.69373,91.373485 c 8.59576,10.396035 50.64385,7.60574 61.47871,-27.577337"
         style="opacity:0.5;fill:none;stroke:url(#linearGradient3456);stroke-width:5.00003;stroke-linecap:round;stroke-linejoin:round;stroke-miterlimit:4;stroke-dasharray:none;stroke-opacity:1"
         inkscape:connector-curvature="0" />
      <path
         style="opacity:0.5;fill:none;stroke:url(#linearGradient3453);stroke-width:5.00003;stroke-linecap:round;stroke-linejoin:round;stroke-miterlimit:4;stroke-dasharray:none"
         d="m 744.2364,188.66508 c 14.3847,-1.58751 16.61928,-10.62933 9.98143,-18.93614 -1.01668,-1.27228 -11.1333,-2.38539 -12.55504,-3.26918 -13.13061,-7.17075 -29.77021,-19.66838 -34.2916,-32.84855 -2e-5,-14.1032 15.05041,-24.01261 1.56503,-29.30568 13.94101,-9.613561 21.9726,-23.601764 23.54504,-41.629876 0.85944,-9.853453 -1.04972,-11.232512 -9.4716,-18.259335"
         id="path4225"
         sodipodi:nodetypes="cscccsc"
         inkscape:connector-curvature="0" />
    </g>
  </g>
</svg>
