<?xml version="1.0" encoding="UTF-8" standalone="no"?>
<svg
   xmlns:dc="http://purl.org/dc/elements/1.1/"
   xmlns:cc="http://creativecommons.org/ns#"
   xmlns:rdf="http://www.w3.org/1999/02/22-rdf-syntax-ns#"
   xmlns:svg="http://www.w3.org/2000/svg"
   xmlns="http://www.w3.org/2000/svg"
   xmlns:xlink="http://www.w3.org/1999/xlink"
   xmlns:sodipodi="http://sodipodi.sourceforge.net/DTD/sodipodi-0.dtd"
   xmlns:inkscape="http://www.inkscape.org/namespaces/inkscape"
   width="52.916664mm"
   height="52.916664mm"
   viewBox="0 0 52.916664 52.916664"
   version="1.1"
   id="svg1114"
   inkscape:version="1.0.1 (3bc2e813f5, 2020-09-07)"
   sodipodi:docname="bn.svg">
  <defs
     id="defs1108">
    <linearGradient
       id="linearGradientBlackPieces">
      <stop
         id="stop2268"
         offset="0"
         style="stop-color:#000e1c;stop-opacity:1;" />
      <stop
         id="stop2270"
         offset="1"
         style="stop-color:#50506f;stop-opacity:1;" />
    </linearGradient>
    <linearGradient
       id="linearGradientBlackPiecesBorder">
      <stop
         style="stop-color:#808080;stop-opacity:1;"
         offset="0"
         id="stop7192" />
      <stop
         style="stop-color:#808080;stop-opacity:1;"
         offset="1"
         id="stop7194" />
    </linearGradient>
    <linearGradient
       inkscape:collect="always"
       xlink:href="#linearGradientBlackPieces"
       id="linearGradient3384"
       gradientUnits="userSpaceOnUse"
       gradientTransform="matrix(0.92208958,0,0,0.92208958,70.367286,-4.292257)"
       x1="824.63312"
       y1="119.49339"
       x2="992.65851"
       y2="168.48677" />
    <linearGradient
       inkscape:collect="always"
       xlink:href="#linearGradientBlackPiecesBorder"
       id="linearGradient3381"
       gradientUnits="userSpaceOnUse"
       gradientTransform="matrix(0.89304794,-0.22959621,0.22959621,0.89304794,79.478155,204.12957)"
       x1="859.85815"
       y1="69.920006"
       x2="880.83844"
       y2="69.920006" />
    <linearGradient
       inkscape:collect="always"
       xlink:href="#linearGradientBlackPiecesBorder"
       id="linearGradient3378"
       gradientUnits="userSpaceOnUse"
       gradientTransform="matrix(0.89304794,-0.22959621,0.22959621,0.89304794,81.552855,202.74644)"
       x1="866.44159"
       y1="74.656578"
       x2="876.04205"
       y2="74.656578" />
    <linearGradient
       inkscape:collect="always"
       xlink:href="#linearGradientBlackPiecesBorder"
       id="linearGradient3375"
       gradientUnits="userSpaceOnUse"
       gradientTransform="matrix(0.92208958,0,0,0.92208958,70.828332,0.77923533)"
       x1="828.48737"
       y1="120.72367"
       x2="836.35858"
       y2="120.72367" />
    <linearGradient
       inkscape:collect="always"
       xlink:href="#linearGradientBlackPiecesBorder"
       id="linearGradient3372"
       gradientUnits="userSpaceOnUse"
       gradientTransform="matrix(0.92208958,0,0,0.92208958,70.367286,-6.1364362)"
       x1="916.03479"
       y1="100.62866"
       x2="923.01733"
       y2="100.62866" />
    <linearGradient
       inkscape:collect="always"
       xlink:href="#linearGradientBlackPiecesBorder"
       id="linearGradient3369"
       gradientUnits="userSpaceOnUse"
       gradientTransform="matrix(0.92208958,0,0,0.92208958,68.523871,5.1720371)"
       x1="906.48578"
       y1="78.619972"
       x2="986.08551"
       y2="78.619972" />
    <linearGradient
       inkscape:collect="always"
       xlink:href="#linearGradientBlackPiecesBorder"
       id="linearGradient3366"
       gradientUnits="userSpaceOnUse"
       gradientTransform="matrix(0.92208958,0,0,0.92208958,70.520128,-8.801762)"
       x1="906.48578"
       y1="78.619972"
       x2="986.08551"
       y2="78.619972" />
    <linearGradient
       inkscape:collect="always"
       xlink:href="#linearGradientBlackPiecesBorder"
       id="linearGradient3363"
       gradientUnits="userSpaceOnUse"
       gradientTransform="matrix(0.92208958,0,0,0.92208958,64.378515,-4.292257)"
       x1="824.63312"
       y1="119.49339"
       x2="992.65851"
       y2="168.48677" />
  </defs>
  <sodipodi:namedview
     id="base"
     pagecolor="#ffffff"
     bordercolor="#666666"
     borderopacity="1.0"
     inkscape:pageopacity="0.0"
     inkscape:pageshadow="2"
     inkscape:zoom="0.42880795"
     inkscape:cx="257.46718"
     inkscape:cy="303.19691"
     inkscape:document-units="mm"
     inkscape:current-layer="layer1"
     inkscape:document-rotation="0"
     showgrid="false"
     fit-margin-top="0"
     fit-margin-left="0"
     fit-margin-right="0"
     fit-margin-bottom="0"
     inkscape:window-width="1920"
     inkscape:window-height="1137"
     inkscape:window-x="-8"
     inkscape:window-y="-8"
     inkscape:window-maximized="1" />
  <metadata
     id="metadata1111">
    <rdf:RDF>
      <cc:Work
         rdf:about="">
        <dc:format>image/svg+xml</dc:format>
        <dc:type
           rdf:resource="http://purl.org/dc/dcmitype/StillImage" />
        <dc:title></dc:title>
      </cc:Work>
    </rdf:RDF>
  </metadata>
  <g
     inkscape:label="Capa 1"
     inkscape:groupmode="layer"
     id="layer1"
     transform="translate(-37.711809,-67.945818)">
    <g
       id="BlackKnight"
       transform="matrix(0.26458333,0,0,0.26458333,-173.95486,67.945817)">
      <rect
         y="0"
         x="800"
         height="200"
         width="200"
         id="rect5867"
         style="fill:none;stroke:none" />
      <path
         sodipodi:nodetypes="ccccsscccccssccscscsssscc"
         id="path8413"
         d="m 892.41016,10.613254 -5.07149,17.980747 -12.90925,-14.753433 c 0,0 -0.45932,10.505274 -0.92209,19.306251 -19.79844,19.995787 -8.32851,24.339506 -37.56604,69.066131 -1.89937,2.90558 -5.46819,5.3376 -6.23322,9.21704 -3.44061,17.44714 19.11956,13.02985 23.12456,15.0235 15.44149,-12.45388 21.79646,-12.59053 29.89559,-21.47813 9.20253,3.40789 23.45613,-0.55956 32.0426,-9.681933 -5.58124,16.851473 -29.64352,28.815843 -36.8061,58.135773 8.3811,8.24857 0.0128,16.18775 -10.43757,15.62708 -11.22039,2.60832 -7.35691,23.74886 4.2574,23.69182 l 98.58555,-0.48422 c 13.77123,-0.0677 15.71398,-20.17938 6.58993,-23.64547 -8.65736,-0.0237 -12.72537,-9.06779 -5.58795,-15.08662 0.80395,-16.15731 0.64412,-31.32178 -2.78027,-46.65553 -0.35197,-1.57606 0.50923,-4.90062 2.33157,-5.23386 -1.37823,-5.145491 -6.64174,-9.824235 -8.88976,-15.077865 -1.08063,-2.525417 -3.91506,-3.727903 4.30193,-4.064703 -2.48602,-4.653446 -13.28824,-12.575184 -16.70248,-16.906272 -1.17198,-1.486697 5.51772,-2.863364 4.19055,-4.272623 -7.53952,-8.005842 -18.49187,-10.846633 -23.76085,-14.822009 -1.79722,-1.355982 5.02895,-3.153722 3.073,-4.443172 -7.20322,-4.748676 -22.20902,-10.554351 -31.76405,-14.268583 z"
         style="fill:url(#linearGradient3384);fill-opacity:1;fill-rule:evenodd;stroke:url(#linearGradient3384);stroke-width:4.99064;stroke-linecap:round;stroke-linejoin:round;stroke-miterlimit:4;stroke-dasharray:none;stroke-opacity:1"
         inkscape:connector-curvature="0" />
      <path
         sodipodi:nodetypes="cs"
         id="path31294"
         d="m 879.93611,62.45862 c -6.2277,0.431326 -10.99705,3.498383 -14.20078,8.890264"
         style="fill:none;stroke:url(#linearGradient3381);stroke-width:4.99064;stroke-linecap:round;stroke-linejoin:round;stroke-miterlimit:4;stroke-dasharray:none;stroke-opacity:1"
         inkscape:connector-curvature="0" />
      <path
         sodipodi:nodetypes="cs"
         id="path31298"
         d="m 874.09278,70.023415 c 2.69511,1.626995 5.43653,1.018938 4.93368,-2.793859"
         style="fill:none;stroke:url(#linearGradient3378);stroke-width:4.99064;stroke-linecap:round;stroke-linejoin:round;stroke-miterlimit:4;stroke-dasharray:none;stroke-opacity:1"
         inkscape:connector-curvature="0" />
      <path
         sodipodi:nodetypes="cs"
         id="path31300"
         d="m 840.33662,110.22049 c -2.92555,-1.01045 -5.04209,3.70309 -3.17546,3.89538"
         style="fill:none;stroke:url(#linearGradient3375);stroke-width:4.99064;stroke-linecap:round;stroke-linejoin:round;stroke-miterlimit:4;stroke-dasharray:none;stroke-opacity:1"
         inkscape:connector-curvature="0" />
      <path
         sodipodi:nodetypes="cc"
         id="path3191"
         d="m 917.45808,89.301013 c 2.03857,-2.762761 1.8305,-4.117057 2.3228,-5.745878"
         style="fill:none;stroke:url(#linearGradient3372);stroke-width:4.99064;stroke-linecap:round;stroke-linejoin:round;stroke-miterlimit:4;stroke-dasharray:none;stroke-opacity:1"
         inkscape:connector-curvature="0" />
      <path
         sodipodi:nodetypes="cc"
         id="path3971"
         d="m 885.1841,167.41456 75.80877,-0.007"
         style="opacity:0.5;fill:none;stroke:url(#linearGradient3369);stroke-width:4.99064;stroke-linecap:round;stroke-linejoin:round;stroke-miterlimit:4;stroke-dasharray:none;stroke-opacity:1"
         inkscape:connector-curvature="0" />
      <path
         style="opacity:0.5;fill:none;stroke:url(#linearGradient3366);stroke-width:4.99064;stroke-linecap:round;stroke-linejoin:round;stroke-miterlimit:4;stroke-dasharray:none;stroke-opacity:1"
         d="m 887.18036,153.44076 59.83871,-0.007"
         id="path3416"
         sodipodi:nodetypes="cc"
         inkscape:connector-curvature="0" />
      <path
         style="opacity:0.5;fill:none;stroke:url(#linearGradient3363);stroke-width:4.99064;stroke-linecap:round;stroke-linejoin:round;stroke-miterlimit:4;stroke-dasharray:none;stroke-opacity:1"
         d="m 964.38133,192.26388 c 13.77123,-0.0677 15.71398,-16.18686 6.58993,-19.65296 -8.65736,-0.0237 -12.72537,-13.0603 -5.58795,-19.07913 0.80395,-16.15731 0.64412,-31.32178 -2.78027,-46.65553 -0.35197,-1.57606 0.50922,-4.90062 2.33157,-5.23386 -1.37823,-5.145491 -6.64174,-7.827978 -8.88976,-13.081607 -1.08063,-2.525418 -3.91506,-3.727904 4.30193,-4.064704 -2.48602,-4.653446 -13.28824,-12.575184 -16.70248,-16.906272 -1.17199,-1.486697 5.51772,-2.863364 4.19055,-4.272623 -7.53952,-8.005842 -18.49187,-10.846633 -23.76085,-14.822009 -1.79722,-1.355982 5.02895,-3.153722 3.073,-4.443172 -7.20322,-4.748676 -16.22025,-12.550608 -25.77528,-16.26484"
         id="path3446"
         sodipodi:nodetypes="cccscscssssc"
         inkscape:connector-curvature="0" />
    </g>
  </g>
</svg>
