<?xml version="1.0" encoding="UTF-8" standalone="no"?>
<svg
   xmlns:dc="http://purl.org/dc/elements/1.1/"
   xmlns:cc="http://creativecommons.org/ns#"
   xmlns:rdf="http://www.w3.org/1999/02/22-rdf-syntax-ns#"
   xmlns:svg="http://www.w3.org/2000/svg"
   xmlns="http://www.w3.org/2000/svg"
   xmlns:xlink="http://www.w3.org/1999/xlink"
   xmlns:sodipodi="http://sodipodi.sourceforge.net/DTD/sodipodi-0.dtd"
   xmlns:inkscape="http://www.inkscape.org/namespaces/inkscape"
   width="200"
   height="200"
   id="svg2722"
   sodipodi:version="0.32"
   inkscape:version="1.0.1 (3bc2e813f5, 2020-09-07)"
   version="1.0"
   sodipodi:docname="wb.svg"
   inkscape:output_extension="org.inkscape.output.svg.inkscape">
  <defs
     id="defs2724">
    <linearGradient
       id="linearGradientWhitePiecesBorder">
      <stop
         style="stop-color:#000000;stop-opacity:1;"
         offset="0"
         id="stop7935" />
      <stop
         style="stop-color:#000000;stop-opacity:1;"
         offset="1"
         id="stop7937" />
    </linearGradient>
    <linearGradient
       id="linearGradientWhitePieces">
      <stop
         id="stop7929"
         offset="0"
         style="stop-color:#ede3de;stop-opacity:1;" />
      <stop
         id="stop7931"
         offset="1"
         style="stop-color:#8a6737;stop-opacity:1;" />
    </linearGradient>
    <linearGradient
       id="linearGradientBlackPiecesBorder">
      <stop
         style="stop-color:#808080;stop-opacity:1;"
         offset="0"
         id="stop7192" />
      <stop
         style="stop-color:#808080;stop-opacity:1;"
         offset="1"
         id="stop7194" />
    </linearGradient>
    <linearGradient
       id="linearGradientBlackPieces">
      <stop
         id="stop2268"
         offset="0"
         style="stop-color:#000e1c;stop-opacity:1;" />
      <stop
         id="stop2270"
         offset="1"
         style="stop-color:#50506f;stop-opacity:1;" />
    </linearGradient>
    <linearGradient
       inkscape:collect="always"
       xlink:href="#linearGradientWhitePiecesBorder"
       id="linearGradient3316"
       gradientUnits="userSpaceOnUse"
       gradientTransform="matrix(1.3414767,0,0,1.5265609,-256.18016,144.6729)"
       x1="683"
       y1="74"
       x2="739.5"
       y2="69" />
    <linearGradient
       inkscape:collect="always"
       xlink:href="#linearGradientWhitePiecesBorder"
       id="linearGradient3319"
       gradientUnits="userSpaceOnUse"
       gradientTransform="matrix(1.0703804,0,0,1.0703804,-484.54564,115.73251)"
       x1="1075.8267"
       y1="163.4315"
       x2="1122.5205"
       y2="163.4315" />
    <linearGradient
       inkscape:collect="always"
       xlink:href="#linearGradientWhitePiecesBorder"
       id="linearGradient3322"
       gradientUnits="userSpaceOnUse"
       gradientTransform="matrix(1.0703804,0,0,1.0703804,-478.18164,137.83077)"
       x1="1075.8267"
       y1="163.4315"
       x2="1122.5205"
       y2="163.4315" />
    <linearGradient
       inkscape:collect="always"
       xlink:href="#linearGradientWhitePiecesBorder"
       id="linearGradient3325"
       gradientUnits="userSpaceOnUse"
       gradientTransform="matrix(1.0703804,0,0,1.0703804,-478.18164,180.78674)"
       x1="1075.8267"
       y1="163.4315"
       x2="1122.5205"
       y2="163.4315" />
    <linearGradient
       inkscape:collect="always"
       xlink:href="#linearGradientWhitePiecesBorder"
       id="linearGradient3328"
       gradientUnits="userSpaceOnUse"
       gradientTransform="matrix(1.0703804,0,0,1.0703804,-478.18164,197.91283)"
       x1="1075.8267"
       y1="163.4315"
       x2="1122.5205"
       y2="163.4315" />
    <linearGradient
       inkscape:collect="always"
       xlink:href="#linearGradientWhitePieces"
       id="linearGradient3331"
       gradientUnits="userSpaceOnUse"
       gradientTransform="matrix(1.3414767,0,0,1.5265609,-250.52328,147.50135)"
       x1="683"
       y1="74"
       x2="739.5"
       y2="69" />
    <linearGradient
       inkscape:collect="always"
       xlink:href="#linearGradientWhitePiecesBorder"
       id="linearGradient3333"
       gradientUnits="userSpaceOnUse"
       gradientTransform="matrix(1.3414767,0,0,1.5265609,-250.52328,147.50135)"
       x1="683"
       y1="74"
       x2="739.5"
       y2="69" />
    <linearGradient
       inkscape:collect="always"
       xlink:href="#linearGradientWhitePieces"
       id="linearGradient2757"
       gradientUnits="userSpaceOnUse"
       gradientTransform="matrix(1.3389577,0,0,1.5265609,-651.66536,150.24227)"
       x1="660.51819"
       y1="90.376785"
       x2="757.72223"
       y2="103.71878" />
    <linearGradient
       inkscape:collect="always"
       xlink:href="#linearGradientWhitePiecesBorder"
       id="linearGradient2759"
       gradientUnits="userSpaceOnUse"
       gradientTransform="matrix(1.3389577,0,0,1.5265609,-651.66536,150.24227)"
       x1="660.51819"
       y1="90.376785"
       x2="757.72223"
       y2="103.71878" />
    <linearGradient
       inkscape:collect="always"
       xlink:href="#linearGradientWhitePiecesBorder"
       id="linearGradient2761"
       gradientUnits="userSpaceOnUse"
       gradientTransform="matrix(1.0683705,0,0,1.0703804,-878.89623,200.65375)"
       x1="1075.8267"
       y1="163.4315"
       x2="1122.5205"
       y2="163.4315" />
    <linearGradient
       inkscape:collect="always"
       xlink:href="#linearGradientWhitePiecesBorder"
       id="linearGradient2763"
       gradientUnits="userSpaceOnUse"
       gradientTransform="matrix(1.0683705,0,0,1.0703804,-878.89623,184.65365)"
       x1="1075.8267"
       y1="163.4315"
       x2="1122.5205"
       y2="163.4315" />
    <linearGradient
       inkscape:collect="always"
       xlink:href="#linearGradientWhitePiecesBorder"
       id="linearGradient2765"
       gradientUnits="userSpaceOnUse"
       gradientTransform="matrix(1.0683705,0,0,1.0703804,-881.59827,154.83975)"
       x1="1075.8267"
       y1="163.4315"
       x2="1122.5205"
       y2="163.4315" />
    <linearGradient
       inkscape:collect="always"
       xlink:href="#linearGradientWhitePiecesBorder"
       id="linearGradient2767"
       gradientUnits="userSpaceOnUse"
       gradientTransform="matrix(1.3389577,0,0,1.5265609,-657.65413,150.24227)"
       x1="660.51819"
       y1="90.376785"
       x2="757.72223"
       y2="103.71878" />
  </defs>
  <sodipodi:namedview
     id="base"
     pagecolor="#ffffff"
     bordercolor="#666666"
     borderopacity="1.0"
     gridtolerance="10000"
     guidetolerance="10"
     objecttolerance="10"
     inkscape:pageopacity="0.0"
     inkscape:pageshadow="2"
     inkscape:zoom="0.3100031"
     inkscape:cx="547.16163"
     inkscape:cy="-499.04113"
     inkscape:document-units="px"
     inkscape:current-layer="WhitePieces"
     showgrid="false"
     inkscape:window-width="1602"
     inkscape:window-height="874"
     inkscape:window-x="99"
     inkscape:window-y="19"
     showguides="true"
     inkscape:guide-bbox="true"
     inkscape:window-maximized="0"
     inkscape:document-rotation="0"
     fit-margin-top="0"
     fit-margin-left="0"
     fit-margin-right="0"
     fit-margin-bottom="0">
    <inkscape:grid
       type="xygrid"
       id="grid5039"
       originx="-4416.1108"
       originy="-3838.6792" />
    <sodipodi:guide
       orientation="1,0"
       position="-568.51986,1804.876"
       id="guide8313" />
  </sodipodi:namedview>
  <metadata
     id="metadata2727">
    <rdf:RDF>
      <cc:Work
         rdf:about="">
        <dc:format>image/svg+xml</dc:format>
        <dc:type
           rdf:resource="http://purl.org/dc/dcmitype/StillImage" />
        <dc:title></dc:title>
      </cc:Work>
    </rdf:RDF>
  </metadata>
  <g
     inkscape:label="BlackPieces"
     inkscape:groupmode="layer"
     id="BlackPieces"
     transform="translate(-0.00601,-1196.7642)" />
  <g
     inkscape:groupmode="layer"
     id="WhitePieces"
     inkscape:label="WhitePieces"
     transform="translate(-0.00601,-1196.7642)">
    <g
       id="WhiteBishop"
       transform="translate(-599.99399,996.76421)">
      <path
         sodipodi:nodetypes="cscccccsssscccsccscccsc"
         id="path6213"
         d="m 699.91657,214.27536 c -7.37192,0 -13.35493,4.98585 -13.35493,11.12912 0,1.77711 0.50101,3.44783 1.39112,4.93855 -15.24897,4.28229 -26.25775,16.91218 -26.25777,35.16107 0.60456,16.63615 9.02233,32.05371 22.53648,41.62987 -13.48885,5.29181 -0.6609,11.20031 -0.66079,25.30566 -9.80706,17.69122 -13.18247,19.37042 -29.87474,31.78756 -1.30079,0.91951 -11.3221,1.98751 -12.24204,3.16483 -6.88667,8.81354 -3.18293,23.53411 9.73798,24.37974 9.07579,0.59399 89.32679,0.75636 98.7014,-0.27823 14.3847,-1.58751 16.61929,-16.62937 9.98143,-24.93618 -1.01667,-1.27228 -11.1333,-2.38539 -12.55503,-3.26918 -13.13062,-7.17075 -29.77021,-17.66836 -34.29161,-30.84854 -2e-5,-14.1032 15.05042,-20.01258 1.56503,-25.30566 13.94102,-9.61356 21.97261,-23.60175 23.54505,-41.62987 0.85943,-9.85345 -4.58528,-19.71784 -13.00715,-26.74466 l -13.7723,31.19631 c -1.40461,3.18646 -5.09082,4.63901 -8.27728,3.2344 -3.18646,-1.40461 -4.63902,-5.1256 -3.2344,-8.31206 l 14.46785,-32.79612 c -0.94179,-0.40868 -1.88369,-0.77336 -2.85183,-1.11292 1.14505,-1.64131 1.80848,-3.53052 1.80848,-5.56457 0,-6.14327 -5.98301,-11.12912 -13.35495,-11.12912 z"
         style="fill:url(#linearGradient3331);fill-opacity:1;stroke:url(#linearGradient3333);stroke-width:5.00003;stroke-linecap:round;stroke-linejoin:round;stroke-miterlimit:4;stroke-dasharray:none"
         inkscape:connector-curvature="0" />
      <path
         sodipodi:nodetypes="cc"
         id="path6215"
         d="m 662.47857,372.8467 h 76.0289"
         style="opacity:0.5;fill:none;stroke:url(#linearGradient3328);stroke-width:5.00003;stroke-linecap:round;stroke-linejoin:round;stroke-miterlimit:4;stroke-dasharray:none;stroke-opacity:1"
         inkscape:connector-curvature="0" />
      <path
         style="opacity:0.5;fill:none;stroke:url(#linearGradient3325);stroke-width:5.00003;stroke-linecap:round;stroke-linejoin:round;stroke-miterlimit:4;stroke-dasharray:none;stroke-opacity:1"
         d="M 683.88618,355.72061 H 714.9591"
         id="path6217"
         sodipodi:nodetypes="cc"
         inkscape:connector-curvature="0" />
      <path
         sodipodi:nodetypes="cc"
         id="path6219"
         d="m 688.1677,312.76465 h 22.50989"
         style="opacity:0.5;fill:none;stroke:url(#linearGradient3322);stroke-width:5.00003;stroke-linecap:round;stroke-linejoin:round;stroke-miterlimit:4;stroke-dasharray:none;stroke-opacity:1"
         inkscape:connector-curvature="0" />
      <path
         sodipodi:nodetypes="cc"
         id="path6221"
         d="m 674.69373,291.37349 c 8.59576,10.39603 50.64385,7.60574 61.47871,-27.57734"
         style="opacity:0.5;fill:none;stroke:url(#linearGradient3319);stroke-width:5.00003;stroke-linecap:round;stroke-linejoin:round;stroke-miterlimit:4;stroke-dasharray:none;stroke-opacity:1"
         inkscape:connector-curvature="0" />
      <path
         style="opacity:0.5;fill:none;stroke:url(#linearGradient3316);stroke-width:5.00003;stroke-linecap:round;stroke-linejoin:round;stroke-miterlimit:4;stroke-dasharray:none"
         d="m 744.2364,388.66508 c 14.3847,-1.58751 16.61928,-10.62933 9.98143,-18.93614 -1.01668,-1.27228 -11.1333,-2.38539 -12.55504,-3.26918 -13.13061,-7.17075 -29.77021,-19.66838 -34.2916,-32.84855 -2e-5,-14.1032 15.05041,-24.01261 1.56503,-29.30568 13.94101,-9.61355 21.9726,-23.60176 23.54504,-41.62987 0.85944,-9.85346 -1.04972,-11.23251 -9.4716,-18.25934"
         id="path6223"
         sodipodi:nodetypes="cscccsc"
         inkscape:connector-curvature="0" />
      <rect
         y="200"
         x="600"
         height="200"
         width="200"
         id="rect6211"
         style="fill:none;stroke:none" />
    </g>
    <g
       id="WhiteQueen-4"
       inkscape:transform-center-x="138.70829"
       inkscape:transform-center-y="-251.61038"
       transform="translate(816.11785,4980.5923)">
      <rect
         style="fill:none;stroke:none"
         id="rect6259-4"
         width="200"
         height="200"
         x="200"
         y="200" />
      <path
         sodipodi:nodetypes="cscccssscccsssscsssssssssscsssscccsc"
         id="path6261-9"
         d="m 328.38428,219.21887 c -6.23348,0 -11.29133,4.59035 -11.29133,10.25007 0,3.66767 2.14185,6.87532 5.33375,8.68755 -9.10196,22.47647 -17.72308,43.14827 -24.95321,66.03167 -6.98357,-20.58248 -13.61499,-42.27092 -22.0524,-65.12541 3.39605,-1.76855 5.67684,-5.06784 5.67685,-8.87506 0,-5.65971 -5.05785,-10.28131 -11.29133,-10.28131 -6.23348,0 -11.29132,4.6216 -11.29133,10.28131 0,4.97153 3.90254,9.0959 9.07673,10.03132 0.007,23.9814 4.90599,36.60805 -3.68059,70.21919 -13.00581,-24.93081 -20.58154,-35.57255 -36.58765,-59.00037 1.75767,-1.80779 2.83843,-4.18213 2.83843,-6.7813 0,-5.65971 -5.05785,-10.25006 -11.29133,-10.25006 -6.23349,0 -11.29133,4.59035 -11.29133,10.25006 0,5.65972 5.05785,10.25007 11.29133,10.25007 0.021,0 0.0414,1e-4 0.0624,0 10.70134,27.26193 15.248,40.40517 24.53411,65.59726 2.94988,8.00264 9.70549,8.28207 13.43024,17.42778 1.62484,3.98963 2.40474,19.78583 -6.05543,25.03813 -1.28193,0.79586 -17.26644,3.97897 -18.18465,5.15629 -6.87373,8.81353 -3.19609,23.52951 9.70056,24.37515 9.05875,0.59398 103.15079,0.75333 112.5078,-0.28125 14.35768,-1.58751 16.57548,-16.5996 9.95009,-24.90641 -1.0148,-1.27228 -15.34728,-2.92846 -18.52776,-5.28128 -5.80845,-4.29694 -8.66079,-18.75215 -7.29941,-24.19438 2.06758,-8.26534 9.77218,-7.60953 11.8565,-14.51865 9.08608,-30.11878 16.66945,-41.46565 29.66,-68.47514 0.30955,0.0232 0.61965,0.0625 0.93575,0.0625 6.23348,0 11.29134,-4.59035 11.29133,-10.25007 0,-5.65971 -5.05787,-10.25006 -11.29133,-10.25006 -6.23348,0 -11.29133,4.59035 -11.29133,10.25006 0,2.64531 1.11829,5.05576 2.932,6.87505 -21.02753,25.2809 -27.72722,34.56355 -43.04429,59.84412 -5.4889,-26.83387 -0.0742,-46.29673 1.27885,-72.0317 4.81429,-1.17268 8.35933,-5.13549 8.35933,-9.87506 0,-5.65972 -5.05787,-10.25007 -11.29133,-10.25007 z"
         style="fill:url(#linearGradient2757);fill-opacity:1;stroke:url(#linearGradient2759);stroke-width:4.99533;stroke-linecap:round;stroke-linejoin:round;stroke-miterlimit:4;stroke-dasharray:none"
         inkscape:connector-curvature="0" />
      <path
         style="opacity:0.5;fill:none;stroke:url(#linearGradient2761);stroke-width:4.99533;stroke-linecap:round;stroke-linejoin:round;stroke-miterlimit:4;stroke-dasharray:none;stroke-opacity:1"
         d="m 251.63707,375.58761 h 91.8562"
         id="path6263-4"
         sodipodi:nodetypes="cc"
         inkscape:connector-curvature="0" />
      <path
         sodipodi:nodetypes="cc"
         id="path6265-5"
         d="m 263.61461,359.58751 h 51.93106"
         style="opacity:0.5;fill:none;stroke:url(#linearGradient2763);stroke-width:4.99533;stroke-linecap:round;stroke-linejoin:round;stroke-miterlimit:4;stroke-dasharray:none;stroke-opacity:1"
         inkscape:connector-curvature="0" />
      <path
         style="opacity:0.5;fill:none;stroke:url(#linearGradient2765);stroke-width:4.99533;stroke-linecap:round;stroke-linejoin:round;stroke-miterlimit:4;stroke-dasharray:none;stroke-opacity:1"
         d="m 260.91257,329.77362 h 67.90111"
         id="path6267-8"
         sodipodi:nodetypes="cc"
         inkscape:connector-curvature="0" />
      <path
         style="opacity:0.5;fill:none;stroke:url(#linearGradient2767);stroke-width:4.99533;stroke-linecap:round;stroke-linejoin:round;stroke-miterlimit:4;stroke-dasharray:none"
         d="m 324.04866,311.3757 c -5.4889,-26.83387 -0.0742,-46.29673 1.27885,-72.0317 4.81428,-1.17268 8.35933,-5.13549 8.35933,-9.87506 0,-5.65972 -5.05787,-8.25005 -11.29133,-8.25005 m 26.4816,171.00107 c 14.35767,-1.58751 16.57548,-14.59958 9.95009,-22.9064 -1.0148,-1.27227 -15.34728,-2.92845 -18.52776,-5.28128 -5.80845,-4.29694 -8.66079,-22.75217 -7.29942,-28.19441 2.06759,-8.26534 9.77219,-7.60952 11.8565,-14.51865 9.08609,-30.11878 16.66946,-39.46563 29.66001,-66.47512 0.30955,0.0232 0.61965,0.0625 0.93575,0.0625 6.23348,0 11.29134,-4.59035 11.29133,-10.25007 0,-5.65971 -5.05787,-8.25005 -11.29133,-8.25005"
         id="path6269-2"
         sodipodi:nodetypes="ccsccsssscsss"
         inkscape:connector-curvature="0" />
    </g>
  </g>
</svg>
