<?xml version="1.0" encoding="UTF-8" standalone="no"?>
<svg
   xmlns:dc="http://purl.org/dc/elements/1.1/"
   xmlns:cc="http://creativecommons.org/ns#"
   xmlns:rdf="http://www.w3.org/1999/02/22-rdf-syntax-ns#"
   xmlns:svg="http://www.w3.org/2000/svg"
   xmlns="http://www.w3.org/2000/svg"
   xmlns:xlink="http://www.w3.org/1999/xlink"
   xmlns:sodipodi="http://sodipodi.sourceforge.net/DTD/sodipodi-0.dtd"
   xmlns:inkscape="http://www.inkscape.org/namespaces/inkscape"
   version="1.0"
   width="300.000000pt"
   height="300.000000pt"
   viewBox="0 0 300.000000 300.000000"
   preserveAspectRatio="xMidYMid meet"
   id="svg2"
   inkscape:version="0.92.5 (2060ec1f9f, 2020-04-08)"
   sodipodi:docname="bk.svg">
  <defs
     id="defs12">
    <linearGradient
       inkscape:collect="always"
       id="linearGradient848">
      <stop
         style="stop-color:#fffdf4;stop-opacity:1"
         offset="0"
         id="stop844" />
      <stop
         style="stop-color:#d6d0c2;stop-opacity:1"
         offset="1"
         id="stop846" />
    </linearGradient>
    <filter
       style="color-interpolation-filters:sRGB;"
       inkscape:label="Drawing"
       id="filter18775">
      <feGaussianBlur
         in="SourceGraphic"
         stdDeviation="5.99659"
         result="blur1"
         id="feGaussianBlur18721" />
      <feConvolveMatrix
         in="blur1"
         targetX="1"
         targetY="1"
         order="3 3"
         kernelMatrix="0 250 0 250 -1010 250 0 250 0 "
         result="convolve1"
         id="feConvolveMatrix18723" />
      <feComposite
         in="convolve1"
         in2="convolve1"
         k1="1"
         k2="1"
         k4="0.04"
         operator="arithmetic"
         result="composite1"
         id="feComposite18725" />
      <feColorMatrix
         in="composite1"
         values="0 0 0 0 0 0 0 0 0 0 0 0 0 0 0 -0.2125 -0.7154 -0.0721 1 0 "
         result="color1"
         id="feColorMatrix18727" />
      <feGaussianBlur
         stdDeviation="0.61"
         result="blur2"
         id="feGaussianBlur18729" />
      <feColorMatrix
         values="1 0 0 0 0 0 1 0 0 0 0 0 1 0 0 0 0 0 2.7 -1 "
         result="color2"
         id="feColorMatrix18731" />
      <feFlood
         flood-color="rgb(255,255,255)"
         result="flood1"
         id="feFlood18733" />
      <feBlend
         in2="color2"
         mode="multiply"
         result="blend1"
         id="feBlend18735" />
      <feComponentTransfer
         in="blend1"
         result="component1"
         id="feComponentTransfer18743">
        <feFuncR
           type="discrete"
           tableValues="0 1 1 1"
           id="feFuncR18737" />
        <feFuncG
           type="discrete"
           tableValues="0 1 1 1"
           id="feFuncG18739" />
        <feFuncB
           type="discrete"
           tableValues="0 1 1 1"
           id="feFuncB18741" />
      </feComponentTransfer>
      <feGaussianBlur
         stdDeviation="0.61"
         result="blur3"
         id="feGaussianBlur18745" />
      <feColorMatrix
         in="blur3"
         values="0 0 0 0 0 0 0 0 0 0 0 0 0 0 0 -0.2125 -0.7154 -0.0721 1 0 "
         result="color3"
         id="feColorMatrix18747" />
      <feColorMatrix
         values="1 0 0 0 0 0 1 0 0 0 0 0 1 0 0 0 0 0 1.9 -0.5 "
         result="color4"
         id="feColorMatrix18749" />
      <feFlood
         flood-color="rgb(0,0,0)"
         result="flood2"
         id="feFlood18751" />
      <feComposite
         in="flood2"
         in2="color4"
         operator="in"
         result="composite2"
         id="feComposite18753" />
      <feComposite
         in="composite2"
         in2="composite2"
         operator="arithmetic"
         k2="1"
         result="composite3"
         id="feComposite18755" />
      <feOffset
         dx="0"
         dy="0"
         result="offset1"
         id="feOffset18757" />
      <feFlood
         in="color4"
         flood-color="rgb(66,66,66)"
         result="flood3"
         id="feFlood18759" />
      <feComposite
         in="flood3"
         in2="color4"
         operator="out"
         result="composite4"
         id="feComposite18761" />
      <feComposite
         in="composite4"
         in2="composite4"
         operator="arithmetic"
         k2="1"
         result="composite5"
         id="feComposite18763" />
      <feMerge
         result="merge1"
         id="feMerge18769">
        <feMergeNode
           in="composite5"
           id="feMergeNode18765" />
        <feMergeNode
           in="offset1"
           id="feMergeNode18767" />
      </feMerge>
      <feColorMatrix
         values="1 0 0 0 0 0 1 0 0 0 0 0 1 0 0 0 0 0 1.3 0 "
         result="color5"
         flood-opacity="0.56"
         id="feColorMatrix18771" />
      <feComposite
         in="color5"
         in2="SourceGraphic"
         operator="in"
         result="composite8"
         id="feComposite18773" />
    </filter>
    <linearGradient
       inkscape:collect="always"
       xlink:href="#linearGradient848"
       id="linearGradient850"
       x1="18.993399"
       y1="150.77428"
       x2="277.71214"
       y2="150.77428"
       gradientUnits="userSpaceOnUse" />
  </defs>
  <sodipodi:namedview
     pagecolor="#ffffff"
     bordercolor="#666666"
     borderopacity="1"
     objecttolerance="10"
     gridtolerance="10"
     guidetolerance="10"
     inkscape:pageopacity="0"
     inkscape:pageshadow="2"
     inkscape:window-width="1520"
     inkscape:window-height="1002"
     id="namedview10"
     showgrid="false"
     inkscape:zoom="1.9332521"
     inkscape:cx="129.05974"
     inkscape:cy="155.42145"
     inkscape:window-x="4"
     inkscape:window-y="0"
     inkscape:window-maximized="0"
     inkscape:current-layer="svg2"
     inkscape:pagecheckerboard="true"
     showguides="false">
    <inkscape:grid
       type="xygrid"
       id="grid22745" />
  </sodipodi:namedview>
  <metadata
     id="metadata4">
Created by potrace 1.12, written by Peter Selinger 2001-2015
<rdf:RDF>
  <cc:Work
     rdf:about="">
    <dc:format>image/svg+xml</dc:format>
    <dc:type
       rdf:resource="http://purl.org/dc/dcmitype/StillImage" />
    <dc:title />
  </cc:Work>
</rdf:RDF>
</metadata>
  <path
     style="display:inline;fill:url(#linearGradient850);fill-opacity:1;stroke-width:2.98611474"
     d="m 106.68047,281.98375 c -9.166374,-1.27835 -22.012485,-4.15255 -32.717164,-11.06041 -3.980478,-3.40177 -2.929056,-3.25047 -2.751848,-23.42728 0.111084,-12.64787 5.57679,-25.88467 -3.707474,-30.81409 -13.217663,-7.01783 -21.868062,-7.71069 -19.761819,-15.74716 1.019705,-3.89071 3.785434,-9.95836 7.15191,-10.80141 C 67.365343,183.28875 59.60873,175.34081 44.642023,162.17942 26.846676,146.53061 19.476684,130.9247 19.009036,110.5798 18.190564,74.972391 49.642013,54.421128 80.733557,62.367516 96.304779,66.347215 106.26392,72.842889 116.53513,89.311109 l 7.07315,11.580931 0.0115,-41.006163 0.28899,-43.102233 h 24.88542 24.32996 v 41.411588 41.411581 l 9.25542,-13.653746 c 11.13922,-16.432747 27.14564,-24.842917 46.3761,-24.92787 22.68734,-0.100223 35.3787,10.583714 43.16314,23.862617 4.84367,8.262437 6.58659,20.332596 5.46636,31.792606 -2.06317,21.10629 -19.60152,40.56093 -27.59642,47.48812 -11.66842,10.93977 -21.08224,15.73028 -7.88739,23.49598 2.586,1.20086 6.33095,4.74722 6.19263,11.97645 -0.26247,7.19917 -6.41858,9.98489 -15.02784,14.96231 -6.19246,3.58015 -7.59114,7.44784 -9.25569,17.40145 -0.5503,3.29068 1.57431,9.66735 1.42452,14.23771 -0.10786,18.80904 6.779,22.85423 -15.56547,31.29165 -18.36712,6.14291 -46.56936,7.24497 -62.01761,7.23068 -15.44826,-0.0143 -31.80506,-1.50266 -40.97143,-2.78102 z"
     id="path872"
     inkscape:connector-curvature="0"
     sodipodi:nodetypes="zcssscsssscccccccsssscccsscczz" />
  <path
     sodipodi:nodetypes="ccccsssccssscsccccscccscsccccccsccscccccsssccsccccsccssccsssssssssssscsscsccsccscccscsccccccccccccsscccsccscscscsscssccscsccccscsccccsccccccccccccccczzzzcccccccsccccccccsccccccccccccccccscccccccscccccccccccc"
     inkscape:connector-curvature="0"
     id="path875"
     d="m 123.90877,16.783552 -0.28858,43.101562 -0.0117,41.006836 -7.07227,-11.581055 C 106.26498,72.842677 96.30518,66.346258 80.73396,62.36656 49.64242,54.420172 18.19137,74.971555 19.00984,110.57896 c 0.46765,20.3449 7.83795,35.95031 25.6333,51.59912 14.96671,13.16139 19.87181,17.076 7.70173,24.74893 -5.4748,3.25256 -8.83734,9.0072 -9.17936,10.63898 -0.97679,5.85285 2.25818,12.96135 15.84106,18.31352 4.91289,1.93587 8.37609,4.0574 9.11558,6.22252 1.54446,4.5219 0.68593,17.9547 0.6206,25.39294 -0.17721,20.17681 1.24022,20.02548 5.2207,23.42725 10.70468,6.90786 23.55091,9.78268 32.71729,11.06104 9.16637,1.27836 25.52342,2.76597 40.97168,2.78027 15.44825,0.0143 43.64997,-1.08756 62.01708,-7.23047 22.34448,-8.43742 18.20123,-12.48149 18.30909,-31.29053 -0.15141,-3.66679 -0.25884,-9.7529 -0.16032,-14.85072 0.1586,-6.79111 -2.84474,-10.46266 9.66934,-15.33702 11.11513,-4.32945 16.21825,-11.20485 16.33012,-15.69331 0.28892,-4.51851 -4.06136,-10.09096 -8.99007,-13.20858 -13.19485,-7.7657 -6.70743,-12.04579 4.96099,-22.98557 7.9949,-6.92719 25.53448,-26.38101 27.59766,-47.4873 1.12023,-11.46 -0.62313,-23.530526 -5.46681,-31.792965 -7.78443,-13.278897 -20.47574,-23.962525 -43.16308,-23.862302 -19.23046,0.08495 -35.23773,8.494496 -46.37695,24.92725 l -9.25489,13.653799 V 58.194685 16.783552 H 148.795 Z m 38.1665,9.213867 c 2.81087,-0.06182 4.13203,2.049055 2.74219,5.034668 -0.51301,1.766728 -3.5294,5.547753 -6.14649,7.812012 -4.64608,3.625933 -4.36535,4.531678 1.87793,9.574219 7.57594,6.118914 5.00294,15.625207 -6.16406,6.773437 -5.47034,-5.895142 -7.11925,-5.894542 -12.73096,0.383789 -9.35012,7.635484 -13.65805,0.809775 -6.66943,-6.575684 4.60553,-4.294533 10.54312,-5.363722 1.28174,-12.117187 -8.17108,-6.728254 -3.25584,-14.036817 3.10254,-9.18164 4.58562,3.501549 4.87491,4.013104 6.52881,5.749511 1.65937,1.742162 3.15161,1.889362 6.09521,-1.325683 3.96157,-4.326891 7.60234,-6.072893 10.08252,-6.127442 z m -13.14258,43.141054 c 9.19488,0.155523 17.21326,6.435356 15.7032,19.221369 -0.82895,6.946348 -8.51315,11.942828 -14.66615,12.042158 -8.51434,0.13745 -13.77674,-3.401575 -15.82101,-8.256565 -2.1102,-4.44443 -1.84818,-10.229438 0.027,-14.515561 2.60901,-4.951816 8.13644,-8.218686 14.75696,-8.491401 z m -6.5032,20.793197 c 5.82395,6.277257 16.63934,1.055782 13.76645,-7.901559 -2.14749,-5.345213 -9.20365,-5.940609 -12.76039,-2.823482 -3.34707,3.136057 -3.44099,7.911906 -1.00606,10.725041 z m 98.87209,-20.163584 c 1.08992,-0.01333 2.18889,0.166975 3.25049,0.563965 6.25769,2.333329 8.95448,8.909035 3.86572,15.770509 -4.27899,5.380687 -14.75762,2.289727 -16.34765,-3.027834 -2.25216,-7.531957 3.34588,-13.234677 9.23144,-13.30664 z m -185.37031,0.08584 c 6.36624,0.02757 11.15965,7.19181 8.25586,13.989256 -2.5829,6.046268 -14.09244,6.500175 -17.27783,0.35946 -3.45544,-6.661306 0.3708,-14.386176 9.02197,-14.348716 z m 151.25858,4.155541 c 4.06858,0 7.6696,3.002842 7.6696,6.899092 0,3.896243 -3.42409,7.940918 -7.49268,7.940918 -4.06857,0 -7.53336,-3.73323 -7.53336,-7.629481 0,-3.896242 3.28785,-7.210529 7.35644,-7.210529 z M 88.70891,73.695109 c 5.21128,-0.150596 8.82559,3.992982 8.09968,8.8655 -1.00944,6.775651 -10.42892,8.018438 -13.62935,3.059386 -3.12104,-4.836009 -0.7395,-11.74372 5.52967,-11.924886 z m 131.05337,19.066953 c 6.91933,-0.07913 13.63128,1.65366 19.42383,5.375978 8.41385,5.40677 13.85682,14.3506 14.02881,23.82568 0.19374,10.67412 -5.7405,24.43652 -20.54736,44.48877 -10.62173,11.58504 -11.71206,10.11114 -18.43214,8.15039 -2.51745,-1.36516 -13.4071,-2.8402 -24.44677,-5.27783 -6.44397,-1.42287 -20.83376,-2.16601 -22.22315,-3.9624 -2.33022,-3.01284 -4.18892,-11.9431 6.94043,-39.39112 8.53333,-20.96458 27.57363,-33.007231 45.25635,-33.209468 z M 75.82966,92.893905 c 20.03172,2.4e-4 32.81053,10.734595 42.81739,25.773925 7.49909,11.27042 17.92474,45.42477 8.34814,47.79052 -2.21756,0.54782 -11.99812,1.06165 -23.58252,3.50977 -12.58122,2.65878 -22.21891,4.42018 -24.79248,5.41406 -5.30947,2.05041 -10.68228,-3.88173 -19.73438,-17.3833 -16.36173,-24.40422 -19.45372,-36.51186 -10.23193,-50.86816 4.51945,-7.03581 13.11927,-13.790813 25.21436,-14.203125 0.66143,-0.02258 1.31524,-0.03368 1.96142,-0.03368 z m -42.32086,4.79706 c 3.74676,1.5e-5 8.37139,3.365395 7.18282,9.129725 -1.72019,8.43383 -14.89209,7.99413 -15.31804,-1.25708 0.0501,-4.99397 2.86754,-7.71291 8.13522,-7.872645 z m 237.27022,10.649685 c -1.93483,5.35501 -9.7944,5.28592 -12.76149,2.44453 -3.67101,-3.28782 -3.11317,-12.85888 5.34492,-13.027803 8.13443,-0.07395 8.68997,7.502253 7.41657,10.583273 z M 76.86385,105.45054 c -4.18803,0.0548 -8.21817,1.18739 -11.80225,3.6665 -11.75519,8.13107 -5.83187,29.2262 4.84863,44.64404 8.73151,12.23708 5.89874,12.81706 19.00049,8.52393 0.94891,-0.44164 2.3819,-1.73762 1.2832,-4.11328 -0.98539,-2.13068 -4.30158,-5.33618 -6.94043,-6.14795 -4.63034,-1.42439 -11.06308,-4.29924 -11.82861,-7.29052 -0.93171,-3.64068 2.88831,-4.27892 8.10498,-4.11622 6.88757,0.21482 4.37687,-3.47172 1.26123,-5.38916 -8.40343,-5.17555 -6.81393,-14.56445 -3.33105,-16.93652 3.96567,-2.78165 12.7636,2.96865 12.73388,9.24317 -0.065,13.72795 3.25119,8.0527 6.5171,4.16161 2.59941,-3.09702 4.90372,-4.19581 6.26367,-3.09081 2.34912,1.90872 2.18409,8.57909 -0.1084,15.4292 -1.55169,4.63653 -1.55189,9.21528 -1.01368,11.16796 1.22139,4.43129 2.10705,4.74434 11.10059,3.92725 6.40431,-0.15059 4.35673,-5.73769 1.28467,-20.77148 -1.83584,-8.98409 -10.81224,-20.89574 -13.68897,-23.28077 -7.12166,-5.90441 -15.68977,-9.7316 -23.68505,-9.62695 z m 142.979,0 c -7.9953,-0.10465 -16.5634,3.72254 -23.68506,9.62695 -2.87673,2.38503 -11.85313,14.29668 -13.68896,23.28077 -3.07206,15.03379 -5.11965,20.62089 1.28466,20.77148 8.99354,0.81709 9.8792,0.50404 11.10059,-3.92725 0.53821,-1.95267 0.53803,-6.53143 -1.01368,-11.16796 -2.29248,-6.85011 -2.45752,-13.52048 -0.1084,-15.4292 1.35995,-1.105 3.66427,-0.006 6.26368,3.09081 3.2659,3.89109 6.58209,9.56634 6.51709,-4.16161 -0.0297,-6.27452 8.76821,-12.02482 12.73388,-9.24317 3.48287,2.37207 5.07238,11.76097 -3.33105,16.93652 -3.11564,1.91744 -5.62634,5.60398 1.26123,5.38916 5.21667,-0.1627 9.03669,0.47554 8.10498,4.11622 -0.76553,2.99128 -7.19827,5.86613 -11.82861,7.29052 -2.63885,0.81177 -5.95504,4.01727 -6.94043,6.14795 -1.0987,2.37566 0.33428,3.67165 1.28321,4.11328 13.10175,4.29313 10.26897,3.71315 19.00048,-8.52393 10.6805,-15.41784 16.60382,-36.51297 4.84864,-44.64404 -3.5841,-2.47911 -7.61423,-3.61168 -11.80225,-3.6665 z m -71.57137,5.48043 c 2.18123,0.0118 5.32526,0.15906 7.75053,2.27887 3.49245,2.89041 6.55475,11.07371 0.38261,17.11173 -3.49689,3.56446 -12.01305,3.96278 -16.06865,-1.02822 -6.6216,-7.64055 0.14538,-18.40459 7.93551,-18.36238 z m -0.27893,32.50354 c 4.28022,-0.0414 10.32696,3.87645 8.32507,11.26034 -1.9698,7.2114 -12.29483,7.34948 -15.20855,1.45425 -2.71311,-5.60502 0.49405,-12.41112 6.88348,-12.71459 z m 9.10574,39.01091 c -2.31607,6.47004 -10.76437,6.42831 -14.54335,3.3339 -4.25232,-3.2786 -3.36278,-12.56466 4.11538,-14.54796 7.02638,-1.68211 12.41795,4.13296 10.42797,11.21406 z m 37.43446,4.85724 c -2.72456,6.18254 -12.83554,4.62213 -14.72366,0.096 -1.88811,-4.52614 0.34145,-12.15963 7.43127,-11.79301 7.08981,0.36662 10.01695,5.51446 7.29239,11.69701 z m -76.56427,-3.57262 c 0,6.48355 -6.91824,10.00338 -13.5326,6.3703 -5.41529,-3.95943 -3.80746,-13.20126 3.93426,-14.38394 3.94278,-0.20846 8.73977,0.22312 9.59834,8.01364 z m 104.9638,-0.39237 c 1.97234,0.0348 4.70756,1.07511 6.09164,2.40055 1.55504,1.48919 3.42098,5.67669 1.71744,9.50628 -4.37495,9.83496 -17.90728,3.91362 -16.05012,-4.88965 0.83457,-4.14992 3.90188,-7.09373 8.24104,-7.01718 z m -149.15713,0 c 6.86678,0.2833 10.23521,6.93207 7.53768,12.01567 -1.67232,2.99239 -4.23358,5.7361 -9.96823,4.72735 -5.49097,-1.01652 -7.82066,-7.70207 -4.85388,-12.82002 2.31221,-3.22011 4.48953,-3.91047 7.28443,-3.923 z m 75.09016,11.36729 c 1.07631,-0.006 2.13991,-0.005 3.19042,0.006 27.9126,0.28349 45.9422,4.74468 58.40333,8.88135 11.2956,4.85507 12.98021,7.14224 11.04199,11.53271 -1.56162,3.75906 -11.37372,1.2667 -33.1333,-2.84179 -27.19892,-5.1355 -53.87369,-4.00991 -74.1416,-0.77636 -23.20737,3.70251 -36.82258,9.68029 -39.33985,2.25732 -4.17195,-10.71948 40.61325,-18.87051 73.97901,-19.05909 z m 0.27685,23.48877 c 2.19739,-0.0335 9.60886,3.62548 14.79786,6.24317 l 8.73925,4.40918 -10.50292,5.22363 c -6.72405,3.10308 -10.82584,5.71036 -13.34327,5.71435 -2.67809,0.28614 -19.27137,-7.83744 -24.14795,-10.83105 0,0 19.78016,-10.68788 24.45703,-10.75928 z m -62.95312,8.58985 c 0.27426,-0.004 0.55508,-2.6e-4 0.84229,0.009 3.57404,0.11257 8.12527,1.19491 13.02685,2.89747 0,0 6.22626,1.97065 6.38818,3.20947 0.16191,1.23884 -7.39453,6.28711 -7.39453,6.28711 -14.29339,10.80675 -19.78524,8.35182 -19.6333,-7.27441 0.0346,-3.56738 2.65658,-5.07343 6.77051,-5.12842 z m 124.54981,0.19775 c 5.38539,-0.11441 6.57397,1.65671 6.55956,5.69971 -0.0118,3.28941 -0.51825,6.22155 -1.5747,8.76709 -1.05648,2.54556 -2.066,4.60578 -5.21924,4.44141 -3.0424,0.16737 -22.35712,-11.34724 -20.21191,-13.25245 0.90912,-0.80745 7.82685,-4.11474 13.55127,-4.92627 2.83864,-0.44309 5.09989,-0.69135 6.89502,-0.72949 z m -59.76563,21.23877 c 29.72374,-0.0739 45.06875,3.10191 57.31055,5.86963 5.7091,1.29076 5.17413,7.14109 4.14844,9.6958 -1.55673,3.87741 -7.06608,3.29209 -19.125,0.97705 -17.49648,-2.18435 -30.80397,-2.58345 -45.04835,-2.58545 -14.24434,-10e-4 -29.10085,1.41445 -41.67334,2.53564 -12.47381,1.11245 -18.438,3.57599 -21.1831,0.34571 -2.86087,-3.36649 -2.01252,-9.71293 5.89599,-11.66748 12.87489,-3.18194 23.68914,-5.0815 59.67481,-5.1709 z"
     style="display:inline;opacity:1;fill:#000000;fill-opacity:1;stroke-width:2.98611474" />
</svg>
