<?xml version="1.0" encoding="UTF-8" standalone="no"?>
<svg
   xmlns:dc="http://purl.org/dc/elements/1.1/"
   xmlns:cc="http://creativecommons.org/ns#"
   xmlns:rdf="http://www.w3.org/1999/02/22-rdf-syntax-ns#"
   xmlns:svg="http://www.w3.org/2000/svg"
   xmlns="http://www.w3.org/2000/svg"
   xmlns:xlink="http://www.w3.org/1999/xlink"
   xmlns:sodipodi="http://sodipodi.sourceforge.net/DTD/sodipodi-0.dtd"
   xmlns:inkscape="http://www.inkscape.org/namespaces/inkscape"
   version="1.0"
   width="300.000000pt"
   height="300.000000pt"
   viewBox="0 0 300.000000 300.000000"
   preserveAspectRatio="xMidYMid meet"
   id="svg2"
   inkscape:version="0.92.5 (2060ec1f9f, 2020-04-08)"
   sodipodi:docname="bn.svg">
  <defs
     id="defs12">
    <linearGradient
       inkscape:collect="always"
       id="linearGradient848">
      <stop
         style="stop-color:#fffdf4;stop-opacity:1"
         offset="0"
         id="stop844" />
      <stop
         style="stop-color:#d6d0c2;stop-opacity:1"
         offset="1"
         id="stop846" />
    </linearGradient>
    <filter
       style="color-interpolation-filters:sRGB;"
       inkscape:label="Drawing"
       id="filter18775">
      <feGaussianBlur
         in="SourceGraphic"
         stdDeviation="5.99659"
         result="blur1"
         id="feGaussianBlur18721" />
      <feConvolveMatrix
         in="blur1"
         targetX="1"
         targetY="1"
         order="3 3"
         kernelMatrix="0 250 0 250 -1010 250 0 250 0 "
         result="convolve1"
         id="feConvolveMatrix18723" />
      <feComposite
         in="convolve1"
         in2="convolve1"
         k1="1"
         k2="1"
         k4="0.04"
         operator="arithmetic"
         result="composite1"
         id="feComposite18725" />
      <feColorMatrix
         in="composite1"
         values="0 0 0 0 0 0 0 0 0 0 0 0 0 0 0 -0.2125 -0.7154 -0.0721 1 0 "
         result="color1"
         id="feColorMatrix18727" />
      <feGaussianBlur
         stdDeviation="0.61"
         result="blur2"
         id="feGaussianBlur18729" />
      <feColorMatrix
         values="1 0 0 0 0 0 1 0 0 0 0 0 1 0 0 0 0 0 2.7 -1 "
         result="color2"
         id="feColorMatrix18731" />
      <feFlood
         flood-color="rgb(255,255,255)"
         result="flood1"
         id="feFlood18733" />
      <feBlend
         in2="color2"
         mode="multiply"
         result="blend1"
         id="feBlend18735" />
      <feComponentTransfer
         in="blend1"
         result="component1"
         id="feComponentTransfer18743">
        <feFuncR
           type="discrete"
           tableValues="0 1 1 1"
           id="feFuncR18737" />
        <feFuncG
           type="discrete"
           tableValues="0 1 1 1"
           id="feFuncG18739" />
        <feFuncB
           type="discrete"
           tableValues="0 1 1 1"
           id="feFuncB18741" />
      </feComponentTransfer>
      <feGaussianBlur
         stdDeviation="0.61"
         result="blur3"
         id="feGaussianBlur18745" />
      <feColorMatrix
         in="blur3"
         values="0 0 0 0 0 0 0 0 0 0 0 0 0 0 0 -0.2125 -0.7154 -0.0721 1 0 "
         result="color3"
         id="feColorMatrix18747" />
      <feColorMatrix
         values="1 0 0 0 0 0 1 0 0 0 0 0 1 0 0 0 0 0 1.9 -0.5 "
         result="color4"
         id="feColorMatrix18749" />
      <feFlood
         flood-color="rgb(0,0,0)"
         result="flood2"
         id="feFlood18751" />
      <feComposite
         in="flood2"
         in2="color4"
         operator="in"
         result="composite2"
         id="feComposite18753" />
      <feComposite
         in="composite2"
         in2="composite2"
         operator="arithmetic"
         k2="1"
         result="composite3"
         id="feComposite18755" />
      <feOffset
         dx="0"
         dy="0"
         result="offset1"
         id="feOffset18757" />
      <feFlood
         in="color4"
         flood-color="rgb(66,66,66)"
         result="flood3"
         id="feFlood18759" />
      <feComposite
         in="flood3"
         in2="color4"
         operator="out"
         result="composite4"
         id="feComposite18761" />
      <feComposite
         in="composite4"
         in2="composite4"
         operator="arithmetic"
         k2="1"
         result="composite5"
         id="feComposite18763" />
      <feMerge
         result="merge1"
         id="feMerge18769">
        <feMergeNode
           in="composite5"
           id="feMergeNode18765" />
        <feMergeNode
           in="offset1"
           id="feMergeNode18767" />
      </feMerge>
      <feColorMatrix
         values="1 0 0 0 0 0 1 0 0 0 0 0 1 0 0 0 0 0 1.3 0 "
         result="color5"
         flood-opacity="0.56"
         id="feColorMatrix18771" />
      <feComposite
         in="color5"
         in2="SourceGraphic"
         operator="in"
         result="composite8"
         id="feComposite18773" />
    </filter>
    <linearGradient
       inkscape:collect="always"
       xlink:href="#linearGradient848"
       id="linearGradient850"
       x1="30.870264"
       y1="148.42477"
       x2="272.96577"
       y2="148.42477"
       gradientUnits="userSpaceOnUse" />
  </defs>
  <sodipodi:namedview
     pagecolor="#ffffff"
     bordercolor="#666666"
     borderopacity="1"
     objecttolerance="10"
     gridtolerance="10"
     guidetolerance="10"
     inkscape:pageopacity="0"
     inkscape:pageshadow="2"
     inkscape:window-width="1720"
     inkscape:window-height="1002"
     id="namedview10"
     showgrid="false"
     inkscape:zoom="1.4006529"
     inkscape:cx="6.9142894"
     inkscape:cy="113.35628"
     inkscape:window-x="64"
     inkscape:window-y="106"
     inkscape:window-maximized="0"
     inkscape:current-layer="svg2"
     inkscape:pagecheckerboard="true"
     showguides="false">
    <inkscape:grid
       type="xygrid"
       id="grid22745" />
  </sodipodi:namedview>
  <metadata
     id="metadata4">
Created by potrace 1.12, written by Peter Selinger 2001-2015
<rdf:RDF>
  <cc:Work
     rdf:about="">
    <dc:format>image/svg+xml</dc:format>
    <dc:type
       rdf:resource="http://purl.org/dc/dcmitype/StillImage" />
    <dc:title />
  </cc:Work>
</rdf:RDF>
</metadata>
  <path
     style="display:inline;fill:url(#linearGradient850);fill-opacity:1;stroke-width:2.70247507"
     d="m 71.832282,276.42943 c -1.82275,-11.50059 5.347444,-22.26141 9.897301,-27.69332 9.519436,-11.36491 21.680447,-22.9364 37.517637,-36.15401 23.92878,-19.9708 35.97496,-31.00699 39.80374,-43.03721 4.93353,-15.50142 -0.29674,-22.70796 -10.21328,-9.99536 -2.81105,4.43083 -15.33194,6.88943 -24.36972,7.37611 -13.6878,0.73709 -12.69114,2.24814 -15.89118,5.29563 -2.90657,2.76797 -6.17607,5.81792 -9.792845,7.21814 -3.961422,1.53368 -11.563047,3.89983 -12.728961,14.43354 -1.746446,15.77867 -4.927888,17.10601 -15.094994,17.46676 -4.057503,-1.25808 -10.763963,-3.32128 -9.317665,-5.0876 26.849889,-32.79098 10.179588,-57.18824 -14.992583,-3.67524 -3.508596,0 -15.555282,-15.74457 -15.776785,-24.38864 -0.145581,-5.68124 5.614018,-20.18077 22.017593,-42.22194 7.065895,-9.49429 14.696477,-19.94007 16.809578,-23.30732 12.572906,-20.035067 25.957489,-37.996607 32.910472,-43.178138 9.74806,-7.264481 11.49171,-13.602501 2.78498,-22.162976 -4.85761,-4.776007 -5.840542,-7.382142 -3.76936,-9.99399 3.66227,-4.618272 9.70994,-2.213863 20.10169,7.991945 l 6.97817,5.63513 1.31825,-5.840216 c -0.87824,-5.483199 0.76497,-4.866496 -2.59895,-12.352235 -6.90674,-9.776905 -5.83344,-15.30014 0.18867,-13.119928 6.50938,2.356619 16.81117,11.140203 23.97001,20.35866 3.08019,6.524475 11.56631,18.237823 50.14469,32.648792 81.68627,83.841646 59.67613,203.271176 58.82005,203.901406 -0.85608,0.63023 -13.48408,-0.72046 -24.50995,-0.79983 -7.46257,0.35792 -161.040474,2.73523 -164.206558,0.68184 z"
     id="path22811"
     inkscape:connector-curvature="0"
     sodipodi:nodetypes="cssscsccscscssssssscccscczcc" />
  <path
     style="display:inline;opacity:1;fill:#000000;stroke-width:2.70247507"
     d="m 71.83228,276.42941 c -1.82275,-11.50059 5.34745,-22.26141 9.8973,-27.69332 9.51944,-11.36491 21.68045,-22.93638 37.51764,-36.154 23.92877,-19.97079 35.97495,-31.00698 39.80373,-43.03722 4.93353,-15.50142 -0.29672,-22.70795 -10.21328,-9.99534 -2.81105,4.43083 -15.33192,6.88941 -24.36972,7.37611 -13.68779,0.73709 -12.69113,2.24814 -15.89117,5.29563 -2.90657,2.76797 -6.17607,5.81792 -9.79285,7.21815 -3.96142,1.53366 -11.56304,3.89982 -12.72896,14.43353 -1.74644,15.77866 -4.92788,17.10601 -15.09499,17.46676 -14.17154,-3.20593 -8.99804,-8.09415 -6.53311,-15.11286 1.1816,-3.36456 6.67819,-8.26566 9.3166,-12.74553 4.36782,-7.4163 -8.75039,-17.01387 -13.77128,-0.90678 -4.01176,12.86982 -9.61413,20.00232 -13.32246,20.00232 -3.50859,0 -15.55528,-15.74457 -15.77678,-24.38862 -0.14558,-5.68125 5.61402,-20.18079 22.01759,-42.22195 7.0659,-9.4943 14.69648,-19.94007 16.80958,-23.30733 12.5729,-20.035065 25.95748,-37.996604 32.91047,-43.178134 9.74806,-7.264481 11.49171,-13.602501 2.78498,-22.162976 -4.85761,-4.776005 -5.84054,-7.382141 -3.76936,-9.993989 3.66227,-4.61827 9.70994,-2.213861 20.10169,7.991947 l 6.97817,5.635127 1.31824,-5.840216 c -0.87823,-5.483197 0.76497,-4.866493 -2.59894,-12.352232 -6.90674,-9.776905 -5.83344,-15.30014 0.18867,-13.119928 6.50938,2.356619 16.81117,11.140202 23.97001,20.358659 4.71624,6.073123 7.42083,12.034251 18.78414,13.388118 12.48794,1.487858 13.41434,0.0953 16.24979,7.469226 1.04403,2.715108 4.27599,3.247188 8.25091,3.589517 12.02253,1.0354 10.89744,1.107091 11.80449,6.227062 0.90707,5.119968 4.90706,6.537963 8.71116,7.025823 11.25503,0.80082 12.72871,2.47356 9.52184,7.216736 -2.36946,3.332619 0.83166,9.001486 10.58298,11.882493 9.18389,1.962652 9.21941,5.479627 5.75435,8.259187 -3.46506,2.77956 -4.19152,8.58901 5.40327,11.64941 14.08768,4.72035 10.63485,7.67158 6.17195,9.91614 -4.276,2.15056 -4.90248,8.05743 6.13389,14.04247 11.55341,6.3486 7.01441,10.14264 1.35542,9.76821 -4.6043,-0.0321 -2.32843,8.09277 3.87635,13.08503 13.29813,10.69945 6.64681,12.50503 1.20634,11.18236 -3.91551,-0.70486 -3.85902,7.66493 2.05455,13.0277 13.57413,13.11102 3.84197,12.69946 0.97434,11.76316 -5.50551,-1.79757 -6.23614,8.17074 -2.17014,11.85961 15.09488,16.44581 7.60188,17.40724 2.66411,15.12897 -3.72242,-1.71751 -7.14785,3.95819 -2.38835,11.36596 12.35279,15.44937 8.27376,18.07266 3.62406,16.31931 -7.0941,-2.17309 -9.49071,3.74791 0.82139,14.68632 4.20361,4.45891 0.82465,7.75239 -8.44758,7.79778 -13.77201,0.34755 -12.51582,2.51436 -10.83539,-23.00555 1.07322,-16.29852 1.75659,-30.06783 0.81465,-46.8511 -0.29522,-12.87519 -0.913,-24.89669 -2.44536,-35.63508 -1.62079,-11.35827 -10.0467,-44.35886 -31.45226,-71.341624 -10.276,-12.953393 -33.63714,-28.735473 -43.87197,-27.06332 -5.13437,0.838844 -4.33461,1.876025 5.71083,7.406375 24.49833,13.487114 44.36658,40.726799 55.76052,84.627079 6.4769,24.95515 2.99501,107.63911 -0.1655,110.96298 -5.85618,2.09818 -161.04046,2.73523 -164.20655,0.68184 z m 127.10311,-99.34209 c 7.85757,-3.7308 10.80868,-6.45948 9.01558,-8.33607 -1.79311,-1.87662 -4.05925,-3.14 -9.87195,0.0776 -3.96347,1.57707 -7.63175,3.402 -12.97808,4.19856 -7.70777,0.0565 -13.48382,2.85018 -11.23764,6.6538 2.70826,4.58612 11.96748,3.62816 25.07209,-2.59393 z M 51.88025,168.66935 c 5.61721,-10.32876 -1.17484,-9.86763 -8.21879,-3.19607 -4.83989,4.58402 -2.45571,11.77073 1.60326,11.73491 1.08969,-0.009 4.06668,-3.85209 6.61553,-8.53884 z m 143.95932,-8.11368 c 9.38209,-5.63115 12.86591,-10.22667 13.86874,-13.79747 3.10164,-11.04414 -4.57961,-9.84013 -11.59287,0.13287 -5.09569,5.22126 -7.64383,6.60392 -13.81872,9.46911 -10.94202,5.07717 -13.40995,6.96132 -9.8106,10.72829 2.0551,2.89618 8.53433,-0.36794 21.35345,-6.5328 z m -8.87514,-13.99698 c 9.29457,-7.65159 15.26589,-20.97974 11.87242,-29.15814 -2.86587,-6.90691 -8.21316,-5.82781 -9.52745,7.81489 -0.78146,8.11196 -4.96959,13.49141 -10.01816,18.06323 -14.08075,12.03138 -4.09981,12.97194 7.67319,3.28002 z m -56.98272,-49.0343 c 0.92292,-6.564255 -2.86075,-8.571435 -10.76479,-4.144325 -6.35623,3.56018 -6.81355,8.902715 -0.73732,10.541925 7.28473,1.96524 10.59398,0.0613 11.50211,-6.3976 z m -17.30707,-6.003995 c 2.48804,-3.04116 7.43707,-5.529375 10.99783,-5.529375 7.72827,0 11.10403,-4.264515 5.24,-6.619551 -6.6974,-2.689723 -16.3476,1.105371 -20.76918,8.167816 -6.80421,10.868141 -3.48728,13.782295 4.53135,3.98111 z"
     id="path22811-5"
     inkscape:connector-curvature="0"
     sodipodi:nodetypes="cssscsccscssssssssssscccssssszccczcsccsccscsccscscssssscccsccccccccccscsccssscssssssssss" />
</svg>
