<?xml version="1.0" encoding="UTF-8" standalone="no"?>
<svg
   xmlns:dc="http://purl.org/dc/elements/1.1/"
   xmlns:cc="http://creativecommons.org/ns#"
   xmlns:rdf="http://www.w3.org/1999/02/22-rdf-syntax-ns#"
   xmlns:svg="http://www.w3.org/2000/svg"
   xmlns="http://www.w3.org/2000/svg"
   xmlns:xlink="http://www.w3.org/1999/xlink"
   xmlns:sodipodi="http://sodipodi.sourceforge.net/DTD/sodipodi-0.dtd"
   xmlns:inkscape="http://www.inkscape.org/namespaces/inkscape"
   version="1.0"
   width="300.000000pt"
   height="300.000000pt"
   viewBox="0 0 300.000000 300.000000"
   preserveAspectRatio="xMidYMid meet"
   id="svg2"
   inkscape:version="0.92.5 (2060ec1f9f, 2020-04-08)"
   sodipodi:docname="wb.svg">
  <defs
     id="defs12">
    <linearGradient
       inkscape:collect="always"
       id="linearGradient849">
      <stop
         style="stop-color:#fffdf4;stop-opacity:1"
         offset="0"
         id="stop845" />
      <stop
         style="stop-color:#d6d0c2;stop-opacity:1"
         offset="1"
         id="stop847" />
    </linearGradient>
    <filter
       style="color-interpolation-filters:sRGB;"
       inkscape:label="Drawing"
       id="filter18775">
      <feGaussianBlur
         in="SourceGraphic"
         stdDeviation="5.99659"
         result="blur1"
         id="feGaussianBlur18721" />
      <feConvolveMatrix
         in="blur1"
         targetX="1"
         targetY="1"
         order="3 3"
         kernelMatrix="0 250 0 250 -1010 250 0 250 0 "
         result="convolve1"
         id="feConvolveMatrix18723" />
      <feComposite
         in="convolve1"
         in2="convolve1"
         k1="1"
         k2="1"
         k4="0.04"
         operator="arithmetic"
         result="composite1"
         id="feComposite18725" />
      <feColorMatrix
         in="composite1"
         values="0 0 0 0 0 0 0 0 0 0 0 0 0 0 0 -0.2125 -0.7154 -0.0721 1 0 "
         result="color1"
         id="feColorMatrix18727" />
      <feGaussianBlur
         stdDeviation="0.61"
         result="blur2"
         id="feGaussianBlur18729" />
      <feColorMatrix
         values="1 0 0 0 0 0 1 0 0 0 0 0 1 0 0 0 0 0 2.7 -1 "
         result="color2"
         id="feColorMatrix18731" />
      <feFlood
         flood-color="rgb(255,255,255)"
         result="flood1"
         id="feFlood18733" />
      <feBlend
         in2="color2"
         mode="multiply"
         result="blend1"
         id="feBlend18735" />
      <feComponentTransfer
         in="blend1"
         result="component1"
         id="feComponentTransfer18743">
        <feFuncR
           type="discrete"
           tableValues="0 1 1 1"
           id="feFuncR18737" />
        <feFuncG
           type="discrete"
           tableValues="0 1 1 1"
           id="feFuncG18739" />
        <feFuncB
           type="discrete"
           tableValues="0 1 1 1"
           id="feFuncB18741" />
      </feComponentTransfer>
      <feGaussianBlur
         stdDeviation="0.61"
         result="blur3"
         id="feGaussianBlur18745" />
      <feColorMatrix
         in="blur3"
         values="0 0 0 0 0 0 0 0 0 0 0 0 0 0 0 -0.2125 -0.7154 -0.0721 1 0 "
         result="color3"
         id="feColorMatrix18747" />
      <feColorMatrix
         values="1 0 0 0 0 0 1 0 0 0 0 0 1 0 0 0 0 0 1.9 -0.5 "
         result="color4"
         id="feColorMatrix18749" />
      <feFlood
         flood-color="rgb(0,0,0)"
         result="flood2"
         id="feFlood18751" />
      <feComposite
         in="flood2"
         in2="color4"
         operator="in"
         result="composite2"
         id="feComposite18753" />
      <feComposite
         in="composite2"
         in2="composite2"
         operator="arithmetic"
         k2="1"
         result="composite3"
         id="feComposite18755" />
      <feOffset
         dx="0"
         dy="0"
         result="offset1"
         id="feOffset18757" />
      <feFlood
         in="color4"
         flood-color="rgb(66,66,66)"
         result="flood3"
         id="feFlood18759" />
      <feComposite
         in="flood3"
         in2="color4"
         operator="out"
         result="composite4"
         id="feComposite18761" />
      <feComposite
         in="composite4"
         in2="composite4"
         operator="arithmetic"
         k2="1"
         result="composite5"
         id="feComposite18763" />
      <feMerge
         result="merge1"
         id="feMerge18769">
        <feMergeNode
           in="composite5"
           id="feMergeNode18765" />
        <feMergeNode
           in="offset1"
           id="feMergeNode18767" />
      </feMerge>
      <feColorMatrix
         values="1 0 0 0 0 0 1 0 0 0 0 0 1 0 0 0 0 0 1.3 0 "
         result="color5"
         flood-opacity="0.56"
         id="feColorMatrix18771" />
      <feComposite
         in="color5"
         in2="SourceGraphic"
         operator="in"
         result="composite8"
         id="feComposite18773" />
    </filter>
    <linearGradient
       inkscape:collect="always"
       xlink:href="#linearGradient849"
       id="linearGradient851"
       x1="15.7799"
       y1="144.26015"
       x2="285.16377"
       y2="144.26015"
       gradientUnits="userSpaceOnUse" />
  </defs>
  <sodipodi:namedview
     pagecolor="#ffffff"
     bordercolor="#666666"
     borderopacity="1"
     objecttolerance="10"
     gridtolerance="10"
     guidetolerance="10"
     inkscape:pageopacity="0"
     inkscape:pageshadow="2"
     inkscape:window-width="1652"
     inkscape:window-height="982"
     id="namedview10"
     showgrid="false"
     inkscape:zoom="1.3528106"
     inkscape:cx="-20.122551"
     inkscape:cy="324.8112"
     inkscape:window-x="-2"
     inkscape:window-y="21"
     inkscape:window-maximized="0"
     inkscape:current-layer="svg2"
     inkscape:pagecheckerboard="true">
    <inkscape:grid
       type="xygrid"
       id="grid842" />
  </sodipodi:namedview>
  <metadata
     id="metadata4">
Created by potrace 1.12, written by Peter Selinger 2001-2015
<rdf:RDF>
  <cc:Work
     rdf:about="">
    <dc:format>image/svg+xml</dc:format>
    <dc:type
       rdf:resource="http://purl.org/dc/dcmitype/StillImage" />
    <dc:title />
  </cc:Work>
</rdf:RDF>
</metadata>
  <path
     style="fill:url(#linearGradient851);fill-opacity:1;stroke-width:2.6499927"
     d="m 88.819755,277.25913 c -28.776284,-6.918 -35.60418,-11.09558 -51.575869,-6.0843 -3.229911,0.91164 -11.490797,6.00182 -12.970176,5.17113 -1.631047,-1.06846 -0.677037,-5.66516 2.389591,-10.63526 4.558566,-5.11627 4.322686,-8.2262 -2.482402,-9.07636 C 10.232739,254.89178 16.54633,250.06081 22.5,247.5 c 5.95367,-2.56082 11.99135,-4.47674 18.944465,-4.86951 12.905739,-0.72902 23.721781,-0.13689 57.110626,10.75266 19.837579,6.4699 36.587609,-1.40751 39.715329,-11.54319 1.99936,-4.11963 -4.6563,-5.05165 -14.00396,-7.19909 -22.79841,-5.23748 -27.973613,-16.368 -13.2118,-28.41519 6.4153,-5.23556 6.51907,-5.77926 2.50481,-13.125 -2.30326,-4.21475 -6.78648,-15.3413 -9.96273,-24.72568 -3.17625,-9.38437 -9.616606,-25.56616 -12.617767,-36.48988 -4.814665,-17.52457 -4.472249,-19.98839 -3.782731,-32.8125 1.190602,-22.143581 14.728288,-39.50613 26.081448,-47.674951 22.20472,-15.976742 22.00537,-15.751115 17.62042,-24.785047 -1.82884,-3.767801 -0.9178,-8.310202 1.53985,-12.480835 4.30917,-7.312651 18.08483,-7.7544084 23.12344,-1.861094 5.15449,7.577487 5.16736,14.368218 0.11723,22.296418 -12.74849,5.003739 2.94652,5.339939 6.57626,5.18289 4.42297,0.677526 8.87553,-0.750532 6.19438,-15.268882 -2.11935,-11.476264 6.54543,-15.9731729 12.40006,-16.1901755 10.68003,-0.3958561 20.21308,10.7985725 12.42158,22.4640775 -4.37856,6.555622 -4.25687,6.990199 5.05843,18.144866 11.73479,14.051919 19.49229,31.316856 21.82534,48.574042 1.93483,14.311651 -3.67251,32.802681 -18.22754,60.107981 -5.59435,10.49502 -7.78688,14.84668 -6.60426,21.03224 1.12153,5.86605 -0.73702,9.99628 -2.62343,13.21936 -3.97069,6.78422 -4.57151,9.4116 3.12923,14.3626 6.61641,4.25385 8.24821,10.26015 5.02599,18.4995 -1.95683,5.00366 -17.59743,11.92939 -26.94055,11.92939 -5.24074,0 -6.3768,1.1656 -5.69254,5.84054 3.78862,12.29309 25.56138,17.29765 46.33367,8.94141 19.45557,-7.82655 37.03501,-12.2617 57.52454,-6.00901 17.10835,5.22087 15.7696,9.3791 5.54747,11.89654 -7.07467,1.89822 -3.3084,5.60938 -0.35858,8.87975 2.94982,3.27037 3.77393,9.35183 2.0634,10.2549 -1.71052,0.90307 -6.47167,-1.59416 -9.87892,-3.39069 -9.98831,-5.63188 -21.18874,-4.36725 -25.32466,-3.85859 -4.13593,0.50867 -16.34384,4.17311 -22.96502,5.84571 -26.23128,6.97269 -41.96687,7.16281 -57.77424,-0.85651 -5.03464,-2.55415 -8.58297,-7.84025 -10.77451,-7.5655 -2.19154,0.27475 -5.40465,4.20613 -10.1965,7.23938 -9.84683,7.14342 -32.46393,8.49701 -53.598475,3.41614 z"
     id="path18867"
     inkscape:connector-curvature="0"
     sodipodi:nodetypes="ccccszsscsscsssssscccssssssssscscssczzczcssccc" />
  <path
     sodipodi:nodetypes="ccccszsscsscsssssscsssscccssssssssssssscscssczzczcsscccssssscsscsccccssccccscsscczsccczsssssscsccssssccscccsssscccccsssssssssssc"
     inkscape:connector-curvature="0"
     id="path843"
     d="m 88.819755,277.25913 c -28.776284,-6.918 -35.60418,-11.09558 -51.575869,-6.0843 -3.229911,0.91164 -11.490797,6.00182 -12.970176,5.17113 -1.631047,-1.06846 -0.677037,-5.66516 2.389591,-10.63526 4.558566,-5.11627 4.322686,-8.2262 -2.482402,-9.07636 C 10.232739,254.89178 16.54633,250.06081 22.5,247.5 c 5.95367,-2.56082 11.99135,-4.47674 18.944465,-4.86951 12.905739,-0.72902 23.721781,-0.13689 57.110626,10.75266 19.837579,6.4699 36.587609,-1.40751 39.715329,-11.54319 1.99936,-4.11963 -4.6563,-5.05165 -14.00396,-7.19909 -22.79841,-5.23748 -27.973613,-16.368 -13.2118,-28.41519 6.4153,-5.23556 6.51907,-5.77926 2.50481,-13.125 -2.30326,-4.21475 -6.78648,-15.3413 -9.96273,-24.72568 -3.17625,-9.38437 -9.616606,-25.56616 -12.617767,-36.48988 -4.814665,-17.52457 -4.472249,-19.98839 -3.782731,-32.8125 1.190602,-22.143581 14.728288,-39.50613 26.081448,-47.674951 22.20472,-15.976742 22.00537,-15.751115 17.62042,-24.785047 -1.82884,-3.767801 -0.9178,-8.310202 1.53985,-12.480835 4.30917,-7.312651 18.08483,-7.7544084 23.12344,-1.861094 5.15449,7.577487 5.16736,14.368218 0.11723,22.296418 -1.81495,2.849291 -8.55131,6.423099 -11.90455,8.418636 -9.59083,5.707571 -25.6448,13.552197 -37.44018,30.679898 -15.168027,22.025007 -9.763881,53.234455 3.6045,80.863545 l 5.92836,12.60368 32.71281,-0.39866 31.09964,-0.73855 4.52337,-12.59158 c 2.9832,-8.30426 4.63777,-21.26797 6.05654,-38.15732 1.56136,-18.586847 -0.48624,-38.050676 -19.07553,-58.730184 -14.94117,-16.621187 -17.89187,-18.139586 -8.9287,-16.766575 4.42297,0.677526 8.87553,-0.750532 6.19438,-15.268882 -2.11935,-11.476264 6.54543,-15.9731729 12.40006,-16.1901755 10.68003,-0.3958561 20.21308,10.7985725 12.42158,22.4640775 -4.37856,6.555622 -4.25687,6.990199 5.05843,18.144866 11.73479,14.051919 19.49229,31.316856 21.82534,48.574042 1.93483,14.311651 -3.67251,32.802681 -18.22754,60.107981 -5.59435,10.49502 -7.78688,14.84668 -6.60426,21.03224 1.12153,5.86605 -0.73702,9.99628 -2.62343,13.21936 -3.97069,6.78422 -4.57151,9.4116 3.12923,14.3626 6.61641,4.25385 8.24821,10.26015 5.02599,18.4995 -1.95683,5.00366 -17.59743,11.92939 -26.94055,11.92939 -5.24074,0 -6.3768,1.1656 -5.69254,5.84054 3.78862,12.29309 25.56138,17.29765 46.33367,8.94141 19.45557,-7.82655 37.03501,-12.2617 57.52454,-6.00901 17.10835,5.22087 15.7696,9.3791 5.54747,11.89654 -7.07467,1.89822 -3.3084,5.60938 -0.35858,8.87975 2.94982,3.27037 3.77393,9.35183 2.0634,10.2549 -1.71052,0.90307 -6.47167,-1.59416 -9.87892,-3.39069 -9.98831,-5.63188 -21.18874,-4.36725 -25.32466,-3.85859 -4.13593,0.50867 -16.34384,4.17311 -22.96502,5.84571 -26.23128,6.97269 -41.96687,7.16281 -57.77424,-0.85651 -5.03464,-2.55415 -8.58297,-7.84025 -10.77451,-7.5655 -2.19154,0.27475 -5.40465,4.20613 -10.1965,7.23938 -9.84683,7.14342 -32.46393,8.49701 -53.598475,3.41614 z M 231.80555,263.30557 c 9.3198,-3.1693 18.3123,-2.4219 17.62246,-7.86547 -0.63022,-4.97309 -5.91836,-3.23446 -11.56372,-2.14787 -8.05758,1.55088 -25.2009,7.0408 -31.76878,8.90814 -18.59707,5.28741 -40.86759,-1.42658 -47.22138,-17.48291 -3.66736,-9.26761 -9.308,-7.64211 -11.75456,-1.06121 -2.51844,7.32721 -7.31081,12.78893 -11.65591,15.33555 -6.60141,3.86903 -16.39651,8.09366 -38.618235,2.52026 -28.203452,-7.07367 -38.333816,-13.29568 -41.718298,-5.72033 -1.414055,4.78012 6.736962,5.48621 10.184477,6.24241 18.858546,4.13655 31.018533,9.50428 48.793046,9.57807 17.67139,0.0732 23.92501,-3.74523 30.18784,-9.34744 7.18447,-7.62145 10.71738,-7.36571 15.19689,-2.29226 2.95597,4.63203 12.60078,8.93248 20.3387,10.53896 10.84623,1.52395 19.27606,3.91457 51.97747,-7.2059 z m -42.12222,-41.96065 c 3.32411,-2.34478 2.47574,-5.55566 -1.92365,-9.18971 -2.90489,-2.91269 -14.77732,-4.79439 -33.02452,-4.36937 -14.18288,0.0197 -30.43123,1.00126 -33.69309,2.91285 -7.47548,2.18143 -9.95687,9.31237 -3.66507,12.09917 21.82005,9.15383 59.94055,7.2697 72.30633,-1.45294 z m -28.4497,-29.78883 c -4.68878,-4.39181 -9.5701,-4.94109 -15.16671,-0.30137 -4.13258,3.42601 -3.50573,5.97529 0.98967,9.76319 3.47513,2.9282 8.75609,2.96093 12.33863,0.29914 5.1038,-4.65274 5.78896,-5.98351 1.83841,-9.76096 z m 21.35506,-8.16745 c 2.05136,-1.51427 2.73017,-6.97741 -5.62632,-7.74789 -20.82197,-1.91982 -35.20533,-1.32766 -55.6045,1.2409 -4.33868,2.19908 -1.16184,9.25706 3.43228,7.97183 14.02396,-2.40873 38.71211,-3.33686 54.16808,-0.37985 0,0 1.5791,0.42928 3.63046,-1.08499 z m 24.94946,-60.75642 c 5.80299,-14.99237 3.7875,-26.994198 -0.76366,-41.832653 -4.4428,-14.485165 -22.53826,-38.896379 -28.05403,-37.845568 -7.14145,1.360522 -3.37707,7.253046 4.69137,17.27034 12.04831,14.958465 17.76818,27.073781 16.42969,54.823111 -1.27641,26.46241 -1.65856,31.75447 7.69663,7.58477 z M 149.25027,26.667605 c 2.68288,-3.171979 0.96007,-7.844114 -2.68896,-9.218092 -5.27088,-1.984656 -9.52352,4.156375 -6.9238,8.283852 1.54684,4.1828 6.62008,4.903949 9.61276,0.93424 z m 38.11953,-1.195884 c 2.30863,-3.665322 -1.02153,-9.34672 -5.20345,-9.34672 -2.19158,0 -5.58278,2.172848 -5.58278,6.03217 0,6.448098 7.62649,8.331143 10.78623,3.31455 z m -51.73364,101.220199 -0.26517,-16.94324 -10.27231,0.17129 c -9.68645,0.16152 -8.49728,-0.53954 -8.37394,-11.763719 0.25724,-11.187092 -0.58215,-9.587837 7.89207,-9.964886 13.20369,-0.6176 9.50281,0.896379 10.28079,-11.108461 -0.15369,-13.820575 -3.29362,-16.056517 15.70148,-15.193598 8.20812,0.372882 6.43889,3.188096 6.43889,12.000479 0,13.79661 -1.38196,13.828369 9.36328,13.595083 10.9595,-0.237938 8.962,-0.898363 9.36328,12.339872 0.29857,9.84969 0.97628,8.20358 -8.69448,8.6652 -12.28941,0.67888 -10.90304,-1.44442 -10.69499,15.90965 -0.71359,18.16505 3.33005,14.57254 -10.54801,15.16347 -11.83683,0.60287 -9.45145,2.43564 -10.19089,-12.87114 z m 12.15539,-7.86656 c -0.41814,-19.303001 -0.58526,-16.33177 13.06543,-17.0976 3.68115,-0.20652 4.53814,0.40079 4.486,-4.031215 -0.0485,-4.120703 0.59972,-4.879542 -5.88853,-4.767214 -12.70593,0.219972 -11.34066,1.744199 -11.55427,-8.722101 -0.33447,-16.388275 1.49224,-16.884259 -5.20016,-16.50728 -3.92647,0.221176 -2.69363,1.580022 -2.77552,16.746681 -0.0571,10.577112 -0.95186,8.757624 -7.6436,9.110525 -8.47625,0.44701 -9.9213,-0.688034 -9.86116,4.576358 0.0695,6.086306 0.69032,4.330386 9.62346,4.268066 9.63244,-0.0672 7.88988,0.68102 8.28495,13.51609 0.21915,7.11948 -0.39903,15.8535 1.61011,15.73398 6.5625,-0.39041 6.11851,2.34627 5.85329,-12.82629 z"
     style="display:inline;fill:#000000;stroke-width:2.6499927" />
</svg>
