<?xml version="1.0" encoding="UTF-8" standalone="no"?>
<svg
   xmlns:dc="http://purl.org/dc/elements/1.1/"
   xmlns:cc="http://creativecommons.org/ns#"
   xmlns:rdf="http://www.w3.org/1999/02/22-rdf-syntax-ns#"
   xmlns:svg="http://www.w3.org/2000/svg"
   xmlns="http://www.w3.org/2000/svg"
   xmlns:xlink="http://www.w3.org/1999/xlink"
   xmlns:sodipodi="http://sodipodi.sourceforge.net/DTD/sodipodi-0.dtd"
   xmlns:inkscape="http://www.inkscape.org/namespaces/inkscape"
   version="1.0"
   width="300.000000pt"
   height="300.000000pt"
   viewBox="0 0 300.000000 300.000000"
   preserveAspectRatio="xMidYMid meet"
   id="svg2"
   inkscape:version="0.92.5 (2060ec1f9f, 2020-04-08)"
   sodipodi:docname="wb.svg">
  <defs
     id="defs12">
    <linearGradient
       inkscape:collect="always"
       id="linearGradient849">
      <stop
         style="stop-color:#fffdf4;stop-opacity:1"
         offset="0"
         id="stop845" />
      <stop
         style="stop-color:#d6d0c2;stop-opacity:1"
         offset="1"
         id="stop847" />
    </linearGradient>
    <filter
       style="color-interpolation-filters:sRGB;"
       inkscape:label="Drawing"
       id="filter18775">
      <feGaussianBlur
         in="SourceGraphic"
         stdDeviation="5.99659"
         result="blur1"
         id="feGaussianBlur18721" />
      <feConvolveMatrix
         in="blur1"
         targetX="1"
         targetY="1"
         order="3 3"
         kernelMatrix="0 250 0 250 -1010 250 0 250 0 "
         result="convolve1"
         id="feConvolveMatrix18723" />
      <feComposite
         in="convolve1"
         in2="convolve1"
         k1="1"
         k2="1"
         k4="0.04"
         operator="arithmetic"
         result="composite1"
         id="feComposite18725" />
      <feColorMatrix
         in="composite1"
         values="0 0 0 0 0 0 0 0 0 0 0 0 0 0 0 -0.2125 -0.7154 -0.0721 1 0 "
         result="color1"
         id="feColorMatrix18727" />
      <feGaussianBlur
         stdDeviation="0.61"
         result="blur2"
         id="feGaussianBlur18729" />
      <feColorMatrix
         values="1 0 0 0 0 0 1 0 0 0 0 0 1 0 0 0 0 0 2.7 -1 "
         result="color2"
         id="feColorMatrix18731" />
      <feFlood
         flood-color="rgb(255,255,255)"
         result="flood1"
         id="feFlood18733" />
      <feBlend
         in2="color2"
         mode="multiply"
         result="blend1"
         id="feBlend18735" />
      <feComponentTransfer
         in="blend1"
         result="component1"
         id="feComponentTransfer18743">
        <feFuncR
           type="discrete"
           tableValues="0 1 1 1"
           id="feFuncR18737" />
        <feFuncG
           type="discrete"
           tableValues="0 1 1 1"
           id="feFuncG18739" />
        <feFuncB
           type="discrete"
           tableValues="0 1 1 1"
           id="feFuncB18741" />
      </feComponentTransfer>
      <feGaussianBlur
         stdDeviation="0.61"
         result="blur3"
         id="feGaussianBlur18745" />
      <feColorMatrix
         in="blur3"
         values="0 0 0 0 0 0 0 0 0 0 0 0 0 0 0 -0.2125 -0.7154 -0.0721 1 0 "
         result="color3"
         id="feColorMatrix18747" />
      <feColorMatrix
         values="1 0 0 0 0 0 1 0 0 0 0 0 1 0 0 0 0 0 1.9 -0.5 "
         result="color4"
         id="feColorMatrix18749" />
      <feFlood
         flood-color="rgb(0,0,0)"
         result="flood2"
         id="feFlood18751" />
      <feComposite
         in="flood2"
         in2="color4"
         operator="in"
         result="composite2"
         id="feComposite18753" />
      <feComposite
         in="composite2"
         in2="composite2"
         operator="arithmetic"
         k2="1"
         result="composite3"
         id="feComposite18755" />
      <feOffset
         dx="0"
         dy="0"
         result="offset1"
         id="feOffset18757" />
      <feFlood
         in="color4"
         flood-color="rgb(66,66,66)"
         result="flood3"
         id="feFlood18759" />
      <feComposite
         in="flood3"
         in2="color4"
         operator="out"
         result="composite4"
         id="feComposite18761" />
      <feComposite
         in="composite4"
         in2="composite4"
         operator="arithmetic"
         k2="1"
         result="composite5"
         id="feComposite18763" />
      <feMerge
         result="merge1"
         id="feMerge18769">
        <feMergeNode
           in="composite5"
           id="feMergeNode18765" />
        <feMergeNode
           in="offset1"
           id="feMergeNode18767" />
      </feMerge>
      <feColorMatrix
         values="1 0 0 0 0 0 1 0 0 0 0 0 1 0 0 0 0 0 1.3 0 "
         result="color5"
         flood-opacity="0.56"
         id="feColorMatrix18771" />
      <feComposite
         in="color5"
         in2="SourceGraphic"
         operator="in"
         result="composite8"
         id="feComposite18773" />
    </filter>
    <linearGradient
       inkscape:collect="always"
       xlink:href="#linearGradient849"
       id="linearGradient851"
       x1="15.7799"
       y1="144.26015"
       x2="285.16377"
       y2="144.26015"
       gradientUnits="userSpaceOnUse" />
  </defs>
  <sodipodi:namedview
     pagecolor="#ffffff"
     bordercolor="#666666"
     borderopacity="1"
     objecttolerance="10"
     gridtolerance="10"
     guidetolerance="10"
     inkscape:pageopacity="0"
     inkscape:pageshadow="2"
     inkscape:window-width="1652"
     inkscape:window-height="982"
     id="namedview10"
     showgrid="false"
     inkscape:zoom="1.9131631"
     inkscape:cx="266.82212"
     inkscape:cy="172.43266"
     inkscape:window-x="-2"
     inkscape:window-y="21"
     inkscape:window-maximized="0"
     inkscape:current-layer="svg2"
     inkscape:pagecheckerboard="true">
    <inkscape:grid
       type="xygrid"
       id="grid842" />
  </sodipodi:namedview>
  <metadata
     id="metadata4">
Created by potrace 1.12, written by Peter Selinger 2001-2015
<rdf:RDF>
  <cc:Work
     rdf:about="">
    <dc:format>image/svg+xml</dc:format>
    <dc:type
       rdf:resource="http://purl.org/dc/dcmitype/StillImage" />
    <dc:title />
  </cc:Work>
</rdf:RDF>
</metadata>
  <path
     style="fill:url(#linearGradient851);fill-opacity:1;stroke-width:2.6499927"
     d="m 88.819755,277.25913 c -28.776284,-6.918 -35.60418,-11.09558 -51.575869,-6.0843 -3.229911,0.91164 -11.490797,6.00182 -12.970176,5.17113 -1.631047,-1.06846 -0.677037,-5.66516 2.389591,-10.63526 4.558566,-5.11627 4.322686,-8.2262 -2.482402,-9.07636 C 10.232739,254.89178 16.54633,250.06081 22.5,247.5 c 5.95367,-2.56082 11.99135,-4.47674 18.944465,-4.86951 12.905739,-0.72902 23.721781,-0.13689 57.110626,10.75266 19.837579,6.4699 36.587609,-1.40751 39.715329,-11.54319 1.99936,-4.11963 -4.6563,-5.05165 -14.00396,-7.19909 -22.79841,-5.23748 -27.973613,-16.368 -13.2118,-28.41519 6.4153,-5.23556 6.51907,-5.77926 2.50481,-13.125 -2.30326,-4.21475 -6.78648,-15.3413 -9.96273,-24.72568 -3.17625,-9.38437 -9.616606,-25.56616 -12.617767,-36.48988 -4.814665,-17.52457 -4.472249,-19.98839 -3.782731,-32.8125 1.190602,-22.143581 14.728288,-39.50613 26.081448,-47.674951 22.20472,-15.976742 22.00537,-15.751115 17.62042,-24.785047 -1.82884,-3.767801 -0.9178,-8.310202 1.53985,-12.480835 4.30917,-7.312651 18.08483,-7.7544084 23.12344,-1.861094 5.15449,7.577487 5.16736,14.368218 0.11723,22.296418 -5.88812,2.455603 1.67245,6.614007 6.57626,5.18289 4.42297,0.677526 8.87553,-0.750532 6.19438,-15.268882 -2.11935,-11.476264 6.54543,-15.9731729 12.40006,-16.1901755 10.68003,-0.3958561 20.21308,10.7985725 12.42158,22.4640775 -4.37856,6.555622 -4.25687,6.990199 5.05843,18.144866 11.73479,14.051919 19.49229,31.316856 21.82534,48.574042 1.93483,14.311651 -3.67251,32.802681 -18.22754,60.107981 -5.59435,10.49502 -7.78688,14.84668 -6.60426,21.03224 1.12153,5.86605 -0.73702,9.99628 -2.62343,13.21936 -3.97069,6.78422 -4.57151,9.4116 3.12923,14.3626 6.61641,4.25385 8.24821,10.26015 5.02599,18.4995 -1.95683,5.00366 -17.59743,11.92939 -26.94055,11.92939 -5.24074,0 -6.3768,1.1656 -5.69254,5.84054 3.78862,12.29309 25.56138,17.29765 46.33367,8.94141 19.45557,-7.82655 37.03501,-12.2617 57.52454,-6.00901 17.10835,5.22087 15.7696,9.3791 5.54747,11.89654 -7.07467,1.89822 -3.3084,5.60938 -0.35858,8.87975 2.94982,3.27037 3.77393,9.35183 2.0634,10.2549 -1.71052,0.90307 -6.47167,-1.59416 -9.87892,-3.39069 -9.98831,-5.63188 -21.18874,-4.36725 -25.32466,-3.85859 -4.13593,0.50867 -16.34384,4.17311 -22.96502,5.84571 -26.23128,6.97269 -41.96687,7.16281 -57.77424,-0.85651 -5.03464,-2.55415 -8.58297,-7.84025 -10.77451,-7.5655 -2.19154,0.27475 -5.40465,4.20613 -10.1965,7.23938 -9.84683,7.14342 -32.46393,8.49701 -53.598475,3.41614 z"
     id="path18867"
     inkscape:connector-curvature="0"
     sodipodi:nodetypes="ccccszsscsscsssssscccssssssssscscssczzczcssccc" />
  <path
     sodipodi:nodetypes="ccccszsscsscsssssscssssczcssssssssssssscscssczzczcsscccssssscsscsccccssccccscsscczsccczsssssscsccssssczscccsssscccccsssssssssssc"
     inkscape:connector-curvature="0"
     id="path843-5"
     d="m 88.819747,277.25913 c -28.776283,-6.91801 -35.604179,-11.09559 -51.575868,-6.0843 -3.229911,0.91163 -11.490796,6.00181 -12.970174,5.17112 -1.631048,-1.06846 -0.677037,-5.66516 2.389591,-10.63526 4.558566,-5.11626 4.322685,-8.2262 -2.482402,-9.07636 -13.94816,-1.74256 -7.63457,-6.57353 -1.6809,-9.13434 5.95367,-2.56082 11.991349,-4.47674 18.944465,-4.86951 12.905738,-0.72902 23.72178,-0.13689 57.110626,10.75266 19.837575,6.4699 36.587615,-1.40751 39.715335,-11.54319 1.99935,-4.11963 -4.6563,-5.05165 -14.00397,-7.19909 -22.79841,-5.23748 -27.973612,-16.368 -13.2118,-28.41519 6.4153,-5.23555 6.51907,-5.77926 2.50482,-13.125 -2.30328,-4.21474 -6.78648,-15.34129 -9.96274,-24.72568 -3.17624,-9.38436 -9.6166,-25.56615 -12.617763,-36.48987 C 86.1643,114.36054 86.506715,111.89672 87.196234,99.07261 88.386835,76.929034 101.92452,59.566484 113.27768,51.397664 135.4824,35.420925 135.28305,35.646555 130.8981,26.612615 c -1.82883,-3.7678 -0.91779,-8.3102 1.53986,-12.480829 4.30917,-7.31265 18.08482,-7.75441 23.12344,-1.86109 5.15448,7.577479 5.16735,14.368209 0.11723,22.296409 -1.81496,2.849289 -8.55131,6.423099 -11.90456,8.418639 -9.59082,5.70757 -25.64479,13.5522 -37.44019,30.679899 -15.168013,22.024999 -9.763865,53.234447 3.6045,80.863537 l 5.92837,12.60369 c 0,0 22.06782,-1.74519 32.71281,-1.92327 10.64499,-0.17808 31.09965,0.78606 31.09965,0.78606 l 4.52335,-12.59159 c 2.9832,-8.30425 4.63776,-21.26797 6.05654,-38.15731 1.56136,-18.586848 -0.48624,-38.050676 -19.07552,-58.730186 -14.94116,-16.62119 -17.89186,-18.13959 -8.9287,-16.76658 4.42296,0.67753 8.87553,-0.75053 6.19437,-15.268879 -2.11934,-11.476259 6.55944,-15.828989 12.59608,-16.288179 11.27027,-0.85729 21.68315,11.092589 12.61758,22.758089 -4.83742,6.224748 -4.64889,6.794189 4.66641,17.948859 11.73479,14.05192 19.49229,31.31685 21.82533,48.574041 1.93484,14.311645 -3.67251,32.802685 -18.22753,60.107975 -5.59436,10.49502 -7.78688,14.84669 -6.60426,21.03224 1.12153,5.86605 -0.73703,9.99628 -2.62343,13.21936 -3.97069,6.78422 -4.57152,9.4116 3.12923,14.36261 6.61641,4.25384 8.24821,10.26014 5.02599,18.49948 -1.95681,5.00367 -17.59743,11.9294 -26.94054,11.9294 -5.24073,0 -6.3768,1.1656 -5.69253,5.84054 3.78861,12.29309 25.56138,17.29765 46.33365,8.94141 19.45557,-7.82655 37.03503,-12.2617 57.52456,-6.00901 17.10834,5.22087 15.76957,9.3791 5.54745,11.89654 -7.07466,1.89822 -3.3084,5.60938 -0.35856,8.87975 2.94981,3.27037 3.77391,9.35184 2.06338,10.2549 -1.71052,0.90307 -6.47167,-1.59416 -9.87892,-3.39069 -9.98832,-5.63187 -21.18873,-4.36725 -25.32465,-3.85859 -4.13592,0.50867 -16.34383,4.17311 -22.96501,5.84571 -26.23128,6.97269 -41.96688,7.16281 -57.77424,-0.85651 -5.03464,-2.55414 -8.58297,-7.84025 -10.77451,-7.56549 -2.19155,0.27474 -5.40465,4.20612 -10.1965,7.23937 -9.84683,7.14342 -32.46394,8.49701 -53.598483,3.41614 z M 231.80553,263.30556 c 9.3198,-3.1693 18.3123,-2.4219 17.62246,-7.86546 -0.63022,-4.9731 -5.91835,-3.23448 -11.56372,-2.14788 -8.05758,1.55088 -25.2009,7.04079 -31.76877,8.90814 -18.59708,5.28741 -40.86759,-1.42658 -47.22137,-17.48291 -3.66736,-9.26761 -9.308,-7.64211 -11.75456,-1.0612 -2.51844,7.3272 -7.31081,12.78892 -11.65591,15.33555 -6.60141,3.86902 -16.39651,8.09365 -38.618245,2.52025 -28.203449,-7.07367 -38.333812,-13.29568 -41.718295,-5.72032 -1.414054,4.78011 6.736962,5.4862 10.184477,6.2424 18.858546,4.13655 31.018531,9.50427 48.793033,9.57807 17.67141,0.0732 23.92503,-3.74523 30.18786,-9.34743 7.18447,-7.62147 10.71738,-7.36572 15.19689,-2.29227 2.95597,4.63203 12.60076,8.93248 20.3387,10.53897 10.8462,1.52394 19.27604,3.91456 51.97745,-7.20591 z m -42.12222,-41.96065 c 3.32412,-2.34479 2.47575,-5.55566 -1.92365,-9.18971 -2.90488,-2.9127 -14.77732,-4.79439 -33.0245,-4.36936 -14.18288,0.0197 -30.43123,1.00125 -33.69309,2.91283 -7.47549,2.18144 -9.95688,9.31238 -3.66507,12.09918 21.82005,9.15383 59.94055,7.26969 72.30631,-1.45294 z m -28.44969,-29.78883 c -4.68877,-4.39181 -9.57009,-4.94109 -15.16671,-0.30137 -4.13257,3.42602 -3.50572,5.9753 0.98967,9.7632 3.47514,2.9282 8.7561,2.96093 12.33864,0.29913 5.10378,-4.65274 5.78895,-5.98351 1.8384,-9.76096 z m 21.35505,-8.16744 c 2.05135,-1.51427 2.73016,-6.97742 -5.62631,-7.74789 -20.82196,-1.91982 -35.20532,-1.32767 -55.60449,1.24089 -4.33868,2.19909 -1.16184,9.25707 3.43228,7.97184 14.02396,-2.40873 38.7121,-3.33687 54.16807,-0.37986 0,0 1.57911,0.42928 3.63045,-1.08498 z m 24.94945,-60.75642 c 5.80299,-14.99238 3.7875,-26.994205 -0.76365,-41.832656 -4.44279,-14.48517 -22.53825,-38.89638 -28.05402,-37.84557 -7.14145,1.36052 -3.37708,7.25305 4.69136,17.27034 12.04831,14.958469 17.76819,27.073778 16.42971,54.823116 -1.27641,26.4624 -1.65858,31.75446 7.6966,7.58477 z M 149.25027,26.667605 c 2.68287,-3.17198 0.96006,-7.84412 -2.68896,-9.218091 -5.27088,-1.984659 -9.71953,4.45039 -7.11981,8.577861 2.33088,3.594769 7.11011,4.21792 9.80877,0.64023 z m 38.21752,-1.19589 c 3.29951,-5.12465 -1.11954,-9.34672 -5.30146,-9.34672 -2.19156,0 -5.68077,2.07485 -5.68077,5.93417 0,6.4481 7.88884,8.21706 10.98223,3.41255 z M 135.63615,126.69191 c 0,0 0.0813,-14.92293 -0.78492,-15.80081 -0.86625,-0.87786 -9.75255,-0.3831 -9.75255,-0.3831 -9.68647,0.16152 -8.49729,-1.12758 -8.37394,-12.351755 0.25724,-11.18709 -0.58215,-9.587843 7.89207,-9.964883 13.20369,-0.61761 9.50281,0.89637 10.28079,-11.108458 -0.15369,-13.82058 -3.29363,-16.05652 15.70147,-15.1936 8.20812,0.37288 6.4389,3.18809 6.4389,12.00048 0,13.796611 -1.38196,13.828358 9.36328,13.595078 10.9595,-0.237937 8.96198,-0.898357 9.36327,12.33987 0.29858,9.849688 0.97628,8.203578 -8.69448,8.665208 -12.2894,0.67888 -10.90303,-1.44443 -10.69498,15.90965 -0.71359,18.16505 3.33005,14.57253 -10.54801,15.16347 -11.83683,0.60287 -9.45145,2.43564 -10.1909,-12.87115 z m 12.1554,-7.86656 c -0.41814,-19.302996 -0.58527,-16.33177 13.06542,-17.09761 3.68115,-0.20652 4.53813,0.4008 4.48599,-4.031208 -0.0485,-4.120703 0.59973,-4.87953 -5.88852,-4.76721 -12.70593,0.219967 -11.34066,1.7442 -11.55426,-8.722095 -0.33447,-16.388273 1.49223,-16.884263 -5.20017,-16.507283 -3.92646,0.22118 -2.69362,1.580019 -2.77551,16.746683 -0.0571,10.577115 -0.95187,8.757615 -7.64361,9.110528 -8.47624,0.447007 -9.9213,-0.688043 -9.86115,4.576357 0.0695,6.086298 0.69032,4.330368 9.62346,4.268058 9.63243,-0.0672 7.88988,0.68102 8.28495,13.51609 0.21915,7.11948 -0.39903,15.8535 1.6101,15.73398 6.5625,-0.3904 6.11852,2.34627 5.8533,-12.82629 z"
     style="display:inline;fill:#000000;stroke-width:2.6499927" />
</svg>
