<?xml version="1.0" encoding="UTF-8" standalone="no"?>
<svg
   xmlns:dc="http://purl.org/dc/elements/1.1/"
   xmlns:cc="http://creativecommons.org/ns#"
   xmlns:rdf="http://www.w3.org/1999/02/22-rdf-syntax-ns#"
   xmlns:svg="http://www.w3.org/2000/svg"
   xmlns="http://www.w3.org/2000/svg"
   xmlns:xlink="http://www.w3.org/1999/xlink"
   xmlns:sodipodi="http://sodipodi.sourceforge.net/DTD/sodipodi-0.dtd"
   xmlns:inkscape="http://www.inkscape.org/namespaces/inkscape"
   version="1.0"
   width="300.000000pt"
   height="300.000000pt"
   viewBox="0 0 300.000000 300.000000"
   preserveAspectRatio="xMidYMid meet"
   id="svg2"
   inkscape:version="0.92.5 (2060ec1f9f, 2020-04-08)"
   sodipodi:docname="wk.svg">
  <defs
     id="defs12">
    <linearGradient
       inkscape:collect="always"
       id="linearGradient858">
      <stop
         style="stop-color:#fffdf4;stop-opacity:1"
         offset="0"
         id="stop854" />
      <stop
         style="stop-color:#d6d0c2;stop-opacity:1"
         offset="1"
         id="stop856" />
    </linearGradient>
    <filter
       style="color-interpolation-filters:sRGB;"
       inkscape:label="Drawing"
       id="filter18775">
      <feGaussianBlur
         in="SourceGraphic"
         stdDeviation="5.99659"
         result="blur1"
         id="feGaussianBlur18721" />
      <feConvolveMatrix
         in="blur1"
         targetX="1"
         targetY="1"
         order="3 3"
         kernelMatrix="0 250 0 250 -1010 250 0 250 0 "
         result="convolve1"
         id="feConvolveMatrix18723" />
      <feComposite
         in="convolve1"
         in2="convolve1"
         k1="1"
         k2="1"
         k4="0.04"
         operator="arithmetic"
         result="composite1"
         id="feComposite18725" />
      <feColorMatrix
         in="composite1"
         values="0 0 0 0 0 0 0 0 0 0 0 0 0 0 0 -0.2125 -0.7154 -0.0721 1 0 "
         result="color1"
         id="feColorMatrix18727" />
      <feGaussianBlur
         stdDeviation="0.61"
         result="blur2"
         id="feGaussianBlur18729" />
      <feColorMatrix
         values="1 0 0 0 0 0 1 0 0 0 0 0 1 0 0 0 0 0 2.7 -1 "
         result="color2"
         id="feColorMatrix18731" />
      <feFlood
         flood-color="rgb(255,255,255)"
         result="flood1"
         id="feFlood18733" />
      <feBlend
         in2="color2"
         mode="multiply"
         result="blend1"
         id="feBlend18735" />
      <feComponentTransfer
         in="blend1"
         result="component1"
         id="feComponentTransfer18743">
        <feFuncR
           type="discrete"
           tableValues="0 1 1 1"
           id="feFuncR18737" />
        <feFuncG
           type="discrete"
           tableValues="0 1 1 1"
           id="feFuncG18739" />
        <feFuncB
           type="discrete"
           tableValues="0 1 1 1"
           id="feFuncB18741" />
      </feComponentTransfer>
      <feGaussianBlur
         stdDeviation="0.61"
         result="blur3"
         id="feGaussianBlur18745" />
      <feColorMatrix
         in="blur3"
         values="0 0 0 0 0 0 0 0 0 0 0 0 0 0 0 -0.2125 -0.7154 -0.0721 1 0 "
         result="color3"
         id="feColorMatrix18747" />
      <feColorMatrix
         values="1 0 0 0 0 0 1 0 0 0 0 0 1 0 0 0 0 0 1.9 -0.5 "
         result="color4"
         id="feColorMatrix18749" />
      <feFlood
         flood-color="rgb(0,0,0)"
         result="flood2"
         id="feFlood18751" />
      <feComposite
         in="flood2"
         in2="color4"
         operator="in"
         result="composite2"
         id="feComposite18753" />
      <feComposite
         in="composite2"
         in2="composite2"
         operator="arithmetic"
         k2="1"
         result="composite3"
         id="feComposite18755" />
      <feOffset
         dx="0"
         dy="0"
         result="offset1"
         id="feOffset18757" />
      <feFlood
         in="color4"
         flood-color="rgb(66,66,66)"
         result="flood3"
         id="feFlood18759" />
      <feComposite
         in="flood3"
         in2="color4"
         operator="out"
         result="composite4"
         id="feComposite18761" />
      <feComposite
         in="composite4"
         in2="composite4"
         operator="arithmetic"
         k2="1"
         result="composite5"
         id="feComposite18763" />
      <feMerge
         result="merge1"
         id="feMerge18769">
        <feMergeNode
           in="composite5"
           id="feMergeNode18765" />
        <feMergeNode
           in="offset1"
           id="feMergeNode18767" />
      </feMerge>
      <feColorMatrix
         values="1 0 0 0 0 0 1 0 0 0 0 0 1 0 0 0 0 0 1.3 0 "
         result="color5"
         flood-opacity="0.56"
         id="feColorMatrix18771" />
      <feComposite
         in="color5"
         in2="SourceGraphic"
         operator="in"
         result="composite8"
         id="feComposite18773" />
    </filter>
    <linearGradient
       inkscape:collect="always"
       xlink:href="#linearGradient858"
       id="linearGradient860"
       x1="24.301071"
       y1="150.24275"
       x2="280.7275"
       y2="150.24275"
       gradientUnits="userSpaceOnUse" />
  </defs>
  <sodipodi:namedview
     pagecolor="#ffffff"
     bordercolor="#666666"
     borderopacity="1"
     objecttolerance="10"
     gridtolerance="10"
     guidetolerance="10"
     inkscape:pageopacity="0"
     inkscape:pageshadow="2"
     inkscape:window-width="1588"
     inkscape:window-height="962"
     id="namedview10"
     showgrid="false"
     inkscape:zoom="1.2349701"
     inkscape:cx="269.75483"
     inkscape:cy="385.51408"
     inkscape:window-x="62"
     inkscape:window-y="42"
     inkscape:window-maximized="0"
     inkscape:current-layer="svg2"
     inkscape:pagecheckerboard="true"
     showguides="false">
    <inkscape:grid
       type="xygrid"
       id="grid842" />
  </sodipodi:namedview>
  <metadata
     id="metadata4">
Created by potrace 1.12, written by Peter Selinger 2001-2015
<rdf:RDF>
  <cc:Work
     rdf:about="">
    <dc:format>image/svg+xml</dc:format>
    <dc:type
       rdf:resource="http://purl.org/dc/dcmitype/StillImage" />
    <dc:title />
  </cc:Work>
</rdf:RDF>
</metadata>
  <path
     style="display:inline;fill:url(#linearGradient860);fill-opacity:1;stroke-width:2.79716015"
     d="m 130.91016,28.796875 c -0.71504,13.125785 1.49678,26.596045 -1.36719,39.521484 -1.01462,4.292193 -6.10378,3.28067 -8.49609,0.84961 C 110.9154,63.206069 100.88149,56.735503 88.978516,54.910156 70.808655,51.170544 49.852022,54.671995 37.359375,69.595703 28.352938,79.878243 26.628974,94.604097 26.841797,107.70508 c 2.128882,19.81073 12.163258,37.80779 22.275391,54.55664 3.954927,7.62678 12.866996,13.43527 11.966796,23.03906 -1.009658,16.18635 14.073132,27.77929 13.677735,43.9082 1.106048,5.80074 -1.627835,11.20297 -5.728516,15.11719 -5.834952,8.54885 1.507879,19.05389 9.121094,23.47461 23.448323,12.87957 51.010383,13.13249 77.041013,14.09579 23.73781,-0.45941 48.86604,-1.13596 70.43164,-12.34579 8.88462,-4.66921 17.15984,-16.82828 11.01367,-26.49219 -7.88633,-5.51717 -6.76163,-16.2327 -3.90237,-24.19125 3.12803,-11.91566 12.26634,-22.27831 10.78128,-35.09195 0.50308,-11.0375 10.91265,-17.68527 15.52173,-26.96055 11.54654,-18.95802 21.94845,-40.89021 19.76538,-63.744528 -2.52517,-14.549228 -10.2403,-29.586997 -24.65625,-35.349609 -22.37227,-10.925994 -49.12388,-3.008466 -69.02734,10.273438 -2.67463,2.079587 -8.43905,4.711499 -9.86914,-0.107422 -2.10946,-13.532527 -0.21962,-27.432878 -0.89581,-41.089821 2.27138,-8.480199 -2.58637,-9.817713 -10.0163,-8.578148 -11.20834,0 -22.41667,0 -33.625,0 0.0644,3.526042 0.1289,7.052083 0.19336,10.578125 z"
     id="path852"
     inkscape:connector-curvature="0" />
  <path
     style="display:inline;fill:#000000;stroke-width:0.95907485"
     d="m 129.18863,16.718951 -0.0747,12.115722 c -0.25928,5.845891 0.0379,15.561538 -0.11719,23.907715 -0.15506,8.346177 0.68123,18.7343 -3.97851,16.226074 -4.65975,-2.508225 -5.41335,-2.949664 -11.01124,-6.287109 C 90.09575,48.425547 58.83874,45.99961 40.28139,62.827837 35.49754,67.165948 31.85369,70.870763 28.69155,78.226274 23.12188,92.491713 22.81611,108.86924 27.74673,123.55 c 6.01489,17.90915 17.67728,37.52482 27.6372,50.12256 3.69409,4.78298 4.05069,4.78831 4.30518,15.09229 0.15136,6.12856 2.77489,11.48494 5.24121,16.42529 1.51738,3.3982 6.20037,12.49984 7.35937,19.57617 1.85247,11.31032 0.0523,11.77681 -3.9917,16.24658 -8.65664,9.26437 -0.50512,25.50318 14.05958,31.76075 6.16803,2.65002 20.71172,7.47076 34.83252,8.92236 20.03342,1.96891 37.60602,2.72404 61.87793,0.78954 30.93449,-2.46551 48.83943,-9.79439 55.82666,-18.67968 6.66628,-8.47719 7.27631,-18.33851 1.43408,-23.18847 -5.63754,-4.68005 -6.21994,-12.86025 1.39893,-30.77344 2.52454,-5.93559 5.09757,-9.97934 7.30518,-18.71485 0.72048,-2.85095 -1.27216,-11.21041 5.083,-18.33545 21.40158,-28.88807 35.23082,-56.36099 28.99512,-85.397456 -3.85058,-17.930207 -13.18373,-26.072033 -25.52051,-31.589353 -19.69296,-8.807189 -43.21148,-4.693602 -64.3169,7.92334 -15.11304,9.034666 -13.32809,10.401118 -13.39159,-23.931152 l -0.0425,-23.080078 H 153.7101 Z m 33.88183,6.884765 c 1.40895,-0.0057 2.22419,-0.115042 2.63526,0.404297 0.82213,1.038702 -3.37939,5.47009 -6.32959,8.559082 -3.72289,3.898017 -5.9792,6.957279 -6.84999,6.928912 -1.01125,-0.07391 -3.00009,-2.507672 -6.06959,-5.857337 -3.32016,-3.623204 -8.04881,-8.558219 -7.20364,-9.689279 0.50845,-0.680431 3.54331,-0.242954 5.5004,-0.257066 6.57515,0.156413 12.08547,-0.04356 18.31715,-0.08861 z m -20.26369,16.450886 c 2.03031,2.378178 4.5897,4.911093 4.58581,5.799316 0.043,1.356974 -9.69224,11.602101 -10.47566,11.06968 -1.03498,-0.703379 -0.54176,-6.373178 -0.5198,-9.860409 0.022,-3.487231 -0.18373,-11.929825 0.59382,-12.354606 1.05086,-0.535579 4.30847,3.651304 5.81583,5.346019 z m 24.68166,-5.624225 c 1.25236,-0.633397 1.05698,8.454672 1.05469,11.978031 -0.0129,3.86324 0.30143,11.02573 -0.86279,10.532226 -1.21111,-0.352879 -10.14792,-9.546648 -10.16309,-11.140137 0.0303,-1.011219 2.46716,-3.311349 5.07569,-6.279785 1.70597,-1.671616 3.07528,-3.581691 4.8955,-5.090335 z m -14.18554,28.075195 c 5.16316,0.0089 8.98655,1.285937 14.32031,6.952148 4.74562,5.041431 7.27127,15.786979 0.0249,23.586909 -3.40569,4.063417 -8.35649,6.456165 -14.61914,6.851077 -7.76301,-0.309975 -11.04511,-1.944788 -14.80664,-6.061522 -8.03802,-8.797025 -6.55946,-18.918376 1.74756,-26.724608 3.7391,-3.513687 8.77728,-4.611877 13.33301,-4.604004 z m 73.18798,1.21875 c 2.0927,0.03109 8.64924,0.415327 9.52881,0.558105 17.01309,3.269024 25.29535,12.802654 30.39698,26.310057 6.3532,16.821186 0.98021,35.914036 -16.15137,66.541986 -14.68605,21.86638 -12.97056,20.45683 -19.91748,18.1875 -7.377,-2.40982 -2.50419,-4.56349 2.60595,-11.9121 9.86454,-14.18565 18.56578,-30.45867 20.12842,-41.21925 3.01895,-20.78891 -2.91654,-28.215399 -7.20117,-32.991201 -6.36438,-7.09398 -12.25614,-9.85548 -26.58838,-9.60498 -5.50305,0.09618 -20.16819,3.715462 -25.69043,6.023437 -13.07621,5.332568 -14.42118,5.823975 -12.89648,-1.32861 1.98874,-13.91923 42.86801,-20.316616 45.78515,-20.564944 z M 76.4103,63.755092 c 16.44869,0.463298 46.35228,11.227902 47.9839,18.840822 1.35784,5.003295 2.3601,9.086385 -3.60352,6.301763 -11.10735,-3.870943 -21.86872,-7.746808 -33.17725,-9.033703 -3.30792,-0.358223 -16.82731,-1.327823 -25.0459,5.841802 -9.06644,7.90925 -11.76017,18.137924 -11.46973,26.592774 0.62965,18.32907 7.50545,30.9217 17.78613,46.17041 3.28928,4.87878 7.25922,10.51162 9.15089,12.71923 2.58149,3.01267 -8.28335,6.49437 -9.74415,4.86328 C 56.32568,161.55918 46.24759,144.85883 39.05825,122.87178 28.93276,91.905154 46.59992,63.654871 76.4103,63.755083 Z m 84.72803,10.857419 c -1.90112,0.770205 -2.69793,3.578783 -2.78906,5.481443 -0.12096,2.52549 -0.64181,4.01457 -3.18603,5.1753 -1.98173,1.254472 -7.06807,-0.980528 -8.73633,1.986322 -1.12528,1.646821 -0.59776,3.475913 2.40381,4.954093 5.66503,3.043717 16.99803,-2.50745 16.99804,-9.326652 0.20954,-4.126013 -1.74615,-9.218558 -4.69043,-8.270506 z M 85.64468,88.428914 c 2.85503,0.01358 8.05492,0.584317 11.33056,1.390132 5.41492,1.534515 14.93033,4.130428 20.69825,6.218262 6.78228,2.455005 10.23047,6.710442 10.23047,6.710442 0,0 3.28777,15.15097 4.02539,22.88673 0.4866,6.46152 1.60961,16.497 3.32373,23.86669 3.08399,13.66599 2.072,12.4021 -5.04451,13.55809 -1.43949,0.23227 -0.54945,-7.33435 -0.33439,-10.416 0.46018,-7.34821 -0.47503,-11.7491 -1.24073,-13.05468 -2.4273,-4.13873 -7.40614,-5.14611 -11.27637,-3.61963 -1.57715,0.62205 -1.49927,0.23226 -2.57519,-2.73633 -4.55376,-11.01637 -24.05629,-8.27629 -24.27101,4.66846 -0.0514,3.10263 -0.43221,2.90728 -3.99169,3.38525 -3.01985,0.44767 -5.76637,3.08957 -6.51416,6.10986 -1.13454,4.58229 1.82527,8.89098 8.72314,17.33643 2.73401,3.34741 5.36386,5.64857 3.65186,6.02929 -3.29078,0.71865 -5.07344,0.64301 -6.89649,-1.81933 C 77.49143,158.1479 65.69993,137.38574 62.88247,125.16865 58.45119,105.95376 65.65939,88.333949 85.64468,88.428914 Z m 133.70508,0 c 13.10923,0.411142 19.16395,6.239494 22.49707,16.341796 3.75887,11.39271 1.20227,24.07419 -8.74219,42.38818 -8.37611,13.96224 -12.28765,20.90688 -14.80956,22.94824 -1.71547,1.38858 -3.06836,1.4492 -6.15577,0.64419 -1.48827,-0.33507 1.31632,-2.71557 4.01416,-6.0187 6.89786,-8.44545 9.85767,-12.75414 8.72315,-17.33643 -0.74781,-3.0203 -3.49286,-5.66072 -6.5127,-6.1084 -3.55948,-0.47797 -3.94024,-0.28262 -3.9917,-3.38525 -0.21472,-12.94475 -19.71871,-15.6863 -24.27246,-4.66992 -1.07592,2.96859 -0.99805,3.35838 -2.5752,2.73633 -3.87022,-1.52648 -8.84906,-0.5191 -11.27636,3.61963 -0.76571,1.30558 -1.69944,5.70794 -1.23926,13.05615 0.375,6.89173 1.90658,10.87563 -0.42522,10.51797 -6.79249,-1.13346 -7.17463,-1.82097 -5.70222,-9.02237 0.72932,-2.50233 3.13655,-14.9991 4.36083,-30.27392 0.88885,-27.315997 5.11163,-25.070872 30.23877,-32.935549 6.98901,-1.805347 9.10422,-2.309962 15.86866,-2.501947 z M 158.0812,106.70869 c 3.46764,0.009 7.12053,0.20015 7.86036,0.93018 1.47963,1.46006 0.40722,15.40723 0.40722,15.40723 -0.28912,8.713 -3.73681,27.20946 -3.73681,27.20946 -2.00629,8.87914 -5.83423,11.53076 -10.14991,11.09327 -8.00214,0 -10.65693,-5.84407 -13.84569,-37.22021 0,0 -1.22781,-14.63879 0.16552,-16.11475 1.39333,-1.47595 12.54932,-1.13965 12.54932,-1.13965 0,0 3.28236,-0.17418 6.74999,-0.16553 z m -55.0166,26.23243 c 0.85314,-0.0174 1.81621,0.14638 2.91504,0.58007 3.42332,1.35115 4.81334,3.08245 6.60352,19.38135 0.28936,2.63467 0.88294,6.6601 1.10595,8.3833 0.55516,4.09303 0.19838,4.06687 -0.71191,4.64209 -4.23036,1.1185 -3.59684,1.18614 -8.07569,-7.45752 -1.63809,-3.16132 -4.11969,-8.61022 -5.4873,-11.19141 -2.34849,-5.38975 -3.30285,-9.92197 -0.65918,-12.55957 1.08851,-0.82706 2.43266,-1.74003 4.30957,-1.77831 z m 98.75244,10e-4 c 1.87691,0.0383 3.22253,0.94979 4.31104,1.77685 2.64367,2.6376 1.68784,7.17128 -0.66065,12.56104 -1.36761,2.58118 -3.84921,8.02862 -5.4873,11.18994 -4.47884,8.64366 -3.84532,8.57748 -8.07568,7.45898 -0.91029,-0.57522 -1.26708,-0.54906 -0.71192,-4.64209 0.22301,-1.7232 0.81659,-5.74863 1.10596,-8.3833 1.79017,-16.2989 3.1802,-18.03166 6.60351,-19.38281 1.09884,-0.43369 2.0619,-0.59602 2.91504,-0.57861 z m -81.5288,9.43941 c 3.55908,-0.13258 4.24106,2.91236 3.78808,12.21387 -0.42062,8.63697 -0.44014,9.55238 -3.01025,10.06495 -2.95265,0.35238 -2.17324,-1.02088 -3.16407,-11.95167 -0.64679,-7.13528 -0.93017,-10.2036 2.38624,-10.32715 z m 64.30517,0.002 c 3.3164,0.12354 3.03302,3.1904 2.38623,10.32568 -0.83323,9.19214 -0.86812,11.89811 -2.18848,11.85498 -0.82067,-0.0777 -1.8438,-0.15311 -2.33496,-0.38965 -1.23234,-0.81811 -1.32358,-2.8565 -1.65087,-9.57715 -0.45298,-9.30151 0.22899,-12.34644 3.78808,-12.21386 z m -94.72705,4.75195 c 1.12944,0.0131 2.57632,0.64895 3.78808,2.92382 2.2728,3.49556 6.21942,10.48535 8.7085,14.53272 2.00077,3.25335 1.22161,3.45918 -0.41895,3.94775 -2.96812,0.76407 -2.96126,0.30552 -8.43896,-7.20849 -5.58837,-7.6658 -9.11875,-11.61858 -5.20899,-13.76661 0.32928,-0.22029 0.89265,-0.43709 1.57032,-0.42919 z m 125.15039,0.001 c 0.67767,-0.008 1.23956,0.20744 1.56885,0.42773 3.90976,2.14803 0.38085,6.10227 -5.20752,13.76808 -5.47771,7.514 -5.47231,7.97256 -8.44043,7.20848 -1.64056,-0.48856 -2.41971,-0.6944 -0.41895,-3.94775 2.48908,-4.04736 6.4357,-11.03716 8.7085,-14.53271 1.21176,-2.27488 2.6601,-2.91067 3.78955,-2.92383 z m -61.02978,23.41992 c 29.14414,1.24307 70.33087,8.93694 78.04687,16.00489 2.48455,2.27586 1.4804,4.57285 -0.0703,8.19433 -2.42465,3.95142 -3.37633,4.19571 -12.67383,0.47754 -5.45283,-2.19337 -20.03957,-6.85817 -35.86963,-9.46289 -25.27732,-4.1592 -35.35646,-2.40544 -52.51025,-0.79981 -12.72304,1.19091 -29.80597,4.64386 -37.49708,7.51758 -7.69112,2.8737 -14.967,5.50704 -16.16894,5.50782 -3.4567,0.002 -8.43393,-7.39119 -4.20557,-11.53125 5.65574,-5.47272 36.80954,-12.07101 58.6377,-14.60596 6.47883,-0.86312 13.48023,-1.24078 19.32422,-1.29932 0.98617,-0.01 1.98253,-0.0106 2.98682,-0.003 z m -10.28467,21.71924 c 7.6013,0.0441 -0.60858,4.68056 -6.35303,8.60449 -10.04188,7.08461 -7.45192,8.18861 2.45362,13.40333 3.84373,1.80948 7.33879,3.46288 7.09277,4.93945 -0.52253,3.13611 -20.45641,-0.0406 -46.67139,7.40039 -0.2477,0.0703 -4.16031,1.15569 -3.83497,-0.43067 0.47905,-2.33582 7.0536,-5.75482 11.62061,-12.83056 4.11066,-6.27118 -5.86095,-10.8794 -15.76319,-9.97413 12.12418,-6.1708 19.76778,-7.22683 43.61574,-10.4414 3.53249,-0.47616 6.0857,-0.68108 7.83984,-0.6709 z m 20.58105,0.19922 c 2.53575,-0.005 5.85901,0.19812 10.06055,0.67237 16.03871,1.81036 29.50168,4.96883 38.13281,9.86571 -1.5077,-0.32047 -3.65486,-0.29267 -6.43066,0.29444 -12.88272,3.03724 -13.33934,6.9439 -3.27832,16.85596 5.38609,4.05114 7.80687,7.46244 2.79639,6.2622 -3.35028,-0.80255 -15.51948,-3.85443 -25.63331,-4.60546 -16.14181,-1.25429 -26.7702,-1.41674 -19.96142,-4.98633 3.23832,-1.86312 8.46708,-5.26221 10.8794,-6.94775 3.95098,-3.40442 4.23977,-5.00096 -10.48975,-13.40625 -4.19369,-2.09347 -3.68291,-3.9884 3.92431,-4.00489 z m -11.62646,7.15723 c 2.31002,-0.043 7.4375,2.50217 10.92481,6.03222 1.8937,1.68666 -5.8319,5.49959 -7.50587,6.5874 -3.87208,1.96634 -7.17801,0.16117 -10.2041,-1.52343 -6.04386,-3.34236 -5.51617,-4.16301 -2.96191,-6.05567 3.24837,-2.08555 6.65994,-4.98302 9.74707,-5.04052 z m 63.06006,5.40527 c 3.54098,2.44328 5.24549,4.79887 6.36621,8.05225 1.96087,5.69232 1.47131,8.53403 -2.08301,12.08935 -4.33088,4.3321 -5.18655,2.574 -4.82666,0.1626 0.37814,-2.53367 -0.49741,-2.21729 -5.64991,-7.56152 -5.04064,-5.22821 -5.04745,-7.23253 -0.90673,-8.18555 4.98893,-1.14824 7.80271,-2.95783 7.1001,-4.55713 z m -126.71046,0.375 c -0.74542,1.3623 2.208,3.04447 3.2915,3.43213 3.30855,1.13504 6.77711,1.34284 6.76612,3.43653 -0.0101,1.92331 -2.10681,4.05077 -5.46094,7.44286 -0.51282,0.52804 -3.48868,3.36449 -3.98145,4.17041 -0.6159,1.00732 0.7659,3.59279 -0.73388,4.21289 -1.51765,0.62751 -5.46181,-3.12739 -6.98437,-6.71924 -1.16562,-2.74978 0.50904,-7.53333 1.01367,-8.74951 0.90773,-2.18768 2.93833,-5.37664 6.08935,-7.22607 z m 62.66309,24.65185 c 27.04112,-0.0512 55.8544,3.6507 69.43213,12.51123 10.78076,7.03529 10.35618,13.02375 2.02002,18.86427 -8.9723,6.2862 -13.3623,5.37236 -13.3623,-2.78175 0,-11.45133 -13.86101,-15.4829 -54.0791,-15.72948 -39.9096,-0.2447 -58.70593,3.20121 -60.2212,13.29492 -0.2462,4.4749 -0.12205,8.85871 -4.07373,9.30762 -3.95169,0.4489 -15.3209,-6.6726 -15.73975,-12.13038 -0.31984,-8.18562 13.19729,-13.92846 23.35107,-17.26611 11.01823,-3.38904 31.64089,-6.03047 52.67286,-6.07032 z m -0.36035,23.63819 c 43.82784,0.15123 66.34408,6.3843 50.75977,14.41992 -6.81699,3.51468 -45.88657,5.63268 -75.91846,3.71191 -10.3822,-0.66402 -26.86613,-2.36634 -28.02393,-7.78857 -0.89852,-3.70368 5.92184,-5.56375 8.89014,-6.31933 14.44821,-3.57092 30.45897,-4.00775 44.29248,-4.02393 z"
     id="path5121-1"
     inkscape:connector-curvature="0"
     sodipodi:nodetypes="cccssscscscscscscscccsssccccccscssccccsccccccccccccssccccssssscccccccsssccscccccccccccccccccccscssccsccscccscccccscccccccsccccscccccccscccscccccccscscccsccsccccssscsscscscscccssscccccccccscsccsccscccccccccccccccccsccccccccsccccssssccsccsccscccsccc" />
</svg>
