<?xml version="1.0" encoding="UTF-8" standalone="no"?>
<svg
   xmlns:dc="http://purl.org/dc/elements/1.1/"
   xmlns:cc="http://creativecommons.org/ns#"
   xmlns:rdf="http://www.w3.org/1999/02/22-rdf-syntax-ns#"
   xmlns:svg="http://www.w3.org/2000/svg"
   xmlns="http://www.w3.org/2000/svg"
   xmlns:xlink="http://www.w3.org/1999/xlink"
   xmlns:sodipodi="http://sodipodi.sourceforge.net/DTD/sodipodi-0.dtd"
   xmlns:inkscape="http://www.inkscape.org/namespaces/inkscape"
   version="1.0"
   width="300.000000pt"
   height="300.000000pt"
   viewBox="0 0 300.000000 300.000000"
   preserveAspectRatio="xMidYMid meet"
   id="svg2"
   inkscape:version="0.92.5 (2060ec1f9f, 2020-04-08)"
   sodipodi:docname="wn.svg">
  <defs
     id="defs12">
    <linearGradient
       inkscape:collect="always"
       id="linearGradient847">
      <stop
         style="stop-color:#fffdf4;stop-opacity:1"
         offset="0"
         id="stop843" />
      <stop
         style="stop-color:#d6d0c2;stop-opacity:1"
         offset="1"
         id="stop845" />
    </linearGradient>
    <filter
       style="color-interpolation-filters:sRGB;"
       inkscape:label="Drawing"
       id="filter18775">
      <feGaussianBlur
         in="SourceGraphic"
         stdDeviation="5.99659"
         result="blur1"
         id="feGaussianBlur18721" />
      <feConvolveMatrix
         in="blur1"
         targetX="1"
         targetY="1"
         order="3 3"
         kernelMatrix="0 250 0 250 -1010 250 0 250 0 "
         result="convolve1"
         id="feConvolveMatrix18723" />
      <feComposite
         in="convolve1"
         in2="convolve1"
         k1="1"
         k2="1"
         k4="0.04"
         operator="arithmetic"
         result="composite1"
         id="feComposite18725" />
      <feColorMatrix
         in="composite1"
         values="0 0 0 0 0 0 0 0 0 0 0 0 0 0 0 -0.2125 -0.7154 -0.0721 1 0 "
         result="color1"
         id="feColorMatrix18727" />
      <feGaussianBlur
         stdDeviation="0.61"
         result="blur2"
         id="feGaussianBlur18729" />
      <feColorMatrix
         values="1 0 0 0 0 0 1 0 0 0 0 0 1 0 0 0 0 0 2.7 -1 "
         result="color2"
         id="feColorMatrix18731" />
      <feFlood
         flood-color="rgb(255,255,255)"
         result="flood1"
         id="feFlood18733" />
      <feBlend
         in2="color2"
         mode="multiply"
         result="blend1"
         id="feBlend18735" />
      <feComponentTransfer
         in="blend1"
         result="component1"
         id="feComponentTransfer18743">
        <feFuncR
           type="discrete"
           tableValues="0 1 1 1"
           id="feFuncR18737" />
        <feFuncG
           type="discrete"
           tableValues="0 1 1 1"
           id="feFuncG18739" />
        <feFuncB
           type="discrete"
           tableValues="0 1 1 1"
           id="feFuncB18741" />
      </feComponentTransfer>
      <feGaussianBlur
         stdDeviation="0.61"
         result="blur3"
         id="feGaussianBlur18745" />
      <feColorMatrix
         in="blur3"
         values="0 0 0 0 0 0 0 0 0 0 0 0 0 0 0 -0.2125 -0.7154 -0.0721 1 0 "
         result="color3"
         id="feColorMatrix18747" />
      <feColorMatrix
         values="1 0 0 0 0 0 1 0 0 0 0 0 1 0 0 0 0 0 1.9 -0.5 "
         result="color4"
         id="feColorMatrix18749" />
      <feFlood
         flood-color="rgb(0,0,0)"
         result="flood2"
         id="feFlood18751" />
      <feComposite
         in="flood2"
         in2="color4"
         operator="in"
         result="composite2"
         id="feComposite18753" />
      <feComposite
         in="composite2"
         in2="composite2"
         operator="arithmetic"
         k2="1"
         result="composite3"
         id="feComposite18755" />
      <feOffset
         dx="0"
         dy="0"
         result="offset1"
         id="feOffset18757" />
      <feFlood
         in="color4"
         flood-color="rgb(66,66,66)"
         result="flood3"
         id="feFlood18759" />
      <feComposite
         in="flood3"
         in2="color4"
         operator="out"
         result="composite4"
         id="feComposite18761" />
      <feComposite
         in="composite4"
         in2="composite4"
         operator="arithmetic"
         k2="1"
         result="composite5"
         id="feComposite18763" />
      <feMerge
         result="merge1"
         id="feMerge18769">
        <feMergeNode
           in="composite5"
           id="feMergeNode18765" />
        <feMergeNode
           in="offset1"
           id="feMergeNode18767" />
      </feMerge>
      <feColorMatrix
         values="1 0 0 0 0 0 1 0 0 0 0 0 1 0 0 0 0 0 1.3 0 "
         result="color5"
         flood-opacity="0.56"
         id="feColorMatrix18771" />
      <feComposite
         in="color5"
         in2="SourceGraphic"
         operator="in"
         result="composite8"
         id="feComposite18773" />
    </filter>
    <linearGradient
       inkscape:collect="always"
       xlink:href="#linearGradient847"
       id="linearGradient849"
       x1="30.952102"
       y1="149.59921"
       x2="272.88529"
       y2="149.59921"
       gradientUnits="userSpaceOnUse" />
  </defs>
  <sodipodi:namedview
     pagecolor="#ffffff"
     bordercolor="#666666"
     borderopacity="1"
     objecttolerance="10"
     gridtolerance="10"
     guidetolerance="10"
     inkscape:pageopacity="0"
     inkscape:pageshadow="2"
     inkscape:window-width="1416"
     inkscape:window-height="1002"
     id="namedview10"
     showgrid="false"
     inkscape:zoom="2.5883924"
     inkscape:cx="176.71502"
     inkscape:cy="194.32833"
     inkscape:window-x="157"
     inkscape:window-y="18"
     inkscape:window-maximized="0"
     inkscape:current-layer="svg2"
     inkscape:pagecheckerboard="true"
     showguides="false" />
  <metadata
     id="metadata4">
Created by potrace 1.12, written by Peter Selinger 2001-2015
<rdf:RDF>
  <cc:Work
     rdf:about="">
    <dc:format>image/svg+xml</dc:format>
    <dc:type
       rdf:resource="http://purl.org/dc/dcmitype/StillImage" />
    <dc:title />
  </cc:Work>
</rdf:RDF>
</metadata>
  <path
     style="display:inline;fill:url(#linearGradient849);fill-opacity:1;stroke-width:2.68883371"
     d="m 74.504612,274.95221 c -0.805424,-1.35117 -0.694509,-6.58736 0.246481,-11.63595 1.317336,-7.06776 5.917406,-20.85542 36.452697,-44.77156 17.03142,-15.09761 31.04633,-28.73107 38.79152,-39.77827 8.4351,-12.03123 9.31013,-21.88853 -0.45008,-15.66503 -4.43365,2.59495 -14.90243,3.49535 -20.10259,3.0904 -10.78463,-0.83983 -29.58569,10.49807 -40.093093,16.19939 -3.336072,1.81015 -3.333762,8.91255 -3.109684,11.47932 0.818413,9.37478 -6.706028,11.63891 -16.070714,10.84068 -10.666316,-0.90918 -11.602882,-2.12733 -7.43823,-15.22582 1.932112,-6.0768 3.503281,-13.21459 3.525149,-13.89663 0.02192,-0.68209 -6.837177,5.59095 -12.66232,11.53281 -8.068887,8.23056 -14.102453,6.68935 -18.805321,-7.17547 -2.403369,-7.08552 -4.928449,-13.51282 -0.453855,-23.31828 4.642357,-10.1731 27.133788,-34.99251 36.372734,-49.87395 8.257865,-13.301181 12.136311,-20.48921 30.232934,-39.689499 5.5515,-5.890073 7.40171,-9.078721 2.69884,-18.132837 -6.756012,-13.006899 -4.363079,-15.112519 8.28132,-9.704471 17.90947,7.659934 20.04321,4.345569 15.20881,-8.825771 0,0 -4.4111,-7.219937 -2.77519,-8.434121 1.60222,-1.189177 8.77288,2.683623 8.77288,2.683623 4.56974,2.963481 13.9608,10.195894 18.51607,15.247813 7.72179,8.563664 4.26761,13.540413 21.25343,18.300171 23.67741,11.543716 41.78628,22.585602 57.07381,41.085121 15.87415,28.210421 19.346,36.712471 27.86319,66.647251 0.88995,26.81062 4.12065,70.77612 3.53802,96.12109 -1.36983,6.23062 -0.0448,10.75225 -0.68766,14.8136 l -88.27597,0.54307 c -54.08393,0.33272 -97.081808,-1.07893 -97.90308,-2.45668 z"
     id="path853"
     inkscape:connector-curvature="0"
     sodipodi:nodetypes="sscscssssscssssssssssscccccscs" />
  <path
     style="display:inline;opacity:1;fill:#000000;fill-opacity:1;stroke-width:2.68883371"
     d="m 125.19099,21.740532 c -0.34942,0.0079 -0.63762,0.07694 -0.8379,0.225586 -1.63591,1.214184 2.77589,8.434569 2.77589,8.434569 4.83439,13.171339 2.7,16.485616 -15.20948,8.82568 -12.6444,-5.408045 -15.03677,-3.302307 -8.28076,9.70459 4.70287,9.054115 2.85325,12.243226 -2.69824,18.1333 -18.09663,19.200292 -21.97505,26.38729 -30.23291,39.688463 -9.23895,14.88144 -31.73117,39.70189 -36.37353,49.87498 -4.47459,9.80548 -3.97807,16.81195 -1.5747,23.89748 4.70287,13.86481 13.63423,16.20223 21.70312,7.97167 5.82513,-5.94186 11.67035,-12.24137 11.64843,-11.55926 -0.0219,0.68203 -3.5605,7.64952 -5.55322,13.70672 -3.21024,9.75805 -2.82234,14.65165 7.84396,15.56083 9.36469,0.79823 20.0877,-3.27861 19.26929,-12.65339 -0.22408,-2.56677 -1.65782,-9.35168 1.67825,-11.16181 10.5074,-5.70133 29.30815,-17.03809 40.09277,-16.19827 5.20016,0.40498 15.66987,-0.49586 20.10351,-3.0908 9.76022,-6.2235 8.88482,3.63381 0.44972,15.66503 -7.74519,11.0472 -21.76058,24.68022 -38.792,39.77782 -30.53529,23.91614 -35.13529,37.70373 -36.45263,44.77148 -0.94099,5.04859 -1.05152,10.28556 -0.2461,11.63673 0.82127,1.37775 43.81805,2.58807 97.90281,2.45655 l 84.56397,-0.12219 c 2.62789,0.007 5.06138,-0.0587 7.11767,-0.0463 9.27225,-0.0454 12.86946,-3.78735 8.67188,-8.24853 -10.08471,-10.71798 -7.91039,-16.96977 -0.66981,-14.55716 4.19379,1.28399 8.74941,-0.33376 -3.48926,-16.23958 -5.32599,-7.56101 -1.20465,-13.08003 1.5315,-11.73705 4.79073,2.35141 13.4676,2.11461 -1.65579,-14.44533 -4.96503,-5.91233 -3.30216,-13.97421 1.73307,-12.38124 2.80623,1.10679 12.6,1.17717 -0.97413,-11.76267 -6.18501,-5.406 -5.61046,-13.8571 -2.05516,-13.02832 5.27908,1.16127 12.37576,-0.33831 -1.03448,-10.8969 -6.37187,-4.76978 -8.1785,-13.66344 -4.04854,-13.36971 5.65897,0.37444 10.19844,-3.42044 -1.35496,-9.76904 -11.03637,-5.98503 -10.47711,-11.79244 -6.08955,-14.12256 4.40181,-2.05381 7.87106,-5.11461 -6.2166,-9.83496 -9.59481,-3.06039 -9.0435,-8.6556 -5.57844,-11.43517 3.46506,-2.77956 4.05285,-6.418369 -5.57826,-8.473872 -9.44508,-2.613118 -12.54867,-8.241673 -10.7751,-11.57428 3.32215,-4.962735 2.38203,-6.553485 -9.32943,-7.525455 -3.80409,-0.48786 -7.80435,-1.905432 -8.71143,-7.025397 -0.90705,-5.11997 0.21735,-5.191649 -11.80518,-6.227049 -3.97491,-0.342329 -7.20597,-0.873759 -8.25,-3.588867 -2.83545,-7.373926 -3.76302,-5.98138 -16.25097,-7.469237 -4.88526,-0.463661 -10.41153,-1.047875 -11.99769,-2.781273 -1.58614,-1.733399 -4.0947,-5.944134 -8.51745,-10.849068 -4.55526,-5.051918 -13.94734,-12.284074 -18.51708,-15.247555 0,0 -5.48919,-2.964557 -7.93506,-2.90918 z m 12.67676,17.501951 c 1.34228,0.04589 3.96246,2.723055 9.08788,8.184081 5.00124,5.328697 11.21429,17.179607 16.09503,17.645399 12.47958,1.190981 32.4246,8.517409 52.14594,29.257657 30.57867,32.54799 38.78235,66.92444 39.89427,132.17018 -0.71385,25.07937 -0.98796,38.00374 -1.71294,38.68399 -0.72498,0.68027 -94.22161,-1.68694 -94.22161,-1.68694 -58.78114,-0.0576 -72.50731,2.26381 -72.13184,-1.47656 0.96434,-9.60672 18.27432,-24.60171 46.53663,-48.56397 14.23014,-13.7589 27.14814,-27.39361 31.43406,-41.14012 4.85964,-15.58656 4.28835,-17.94533 11.37453,-22.60547 9.24237,-6.07814 17.0871,-15.92754 21.64305,-25.31688 5.64084,-11.62515 3.8898,-29.607762 -1.85889,-29.575203 -2.56647,0.0145 -1.00716,10.526973 -3.94188,19.220203 -3.38712,10.03341 -11.74407,24.44631 -31.87647,34.09571 -18.54823,8.8901 -31.4427,8.96135 -34.48827,5.59424 -3.57406,-3.95141 -6.29313,-9.11131 -8.69239,-15.05567 -2.39606,-6.13121 -5.40132,-9.13086 -7.27295,-6.79395 -2.35761,2.94375 -1.25911,4.11937 1.68018,10.94092 6.65808,15.45218 0.36816,15.30183 -10.3667,21.44971 -7.44549,4.26404 -15.99443,7.46384 -19.79883,11.46387 -4.63961,4.87818 -3.03957,11.63985 -2.87036,14.68637 0.43167,7.77199 -6.73004,6.85005 -9.10337,6.50687 -4.55646,-0.65886 -0.87864,-6.0897 6.19785,-22.12195 5.92774,-13.42968 7.08223,-14.68653 1.92188,-14.68653 -0.96397,0 -8.61968,4.50612 -16.86621,11.61182 -8.72647,7.51924 -11.08101,11.84858 -12.85107,11.60009 -3.279,-0.46035 -7.04035,-8.86486 -6.90673,-14.16211 0.0909,-3.60375 0.6684,-5.97343 4.85449,-12.36181 5.81412,-9.35498 17.25176,-22.63145 27.041,-35.18994 6.13452,-7.8699 13.03923,-20.13985 16.95264,-25.656724 3.00365,-4.234359 11.84961,-15.260379 18.36328,-21.77051 10.04709,-10.041631 8.22174,-11.863238 7.54687,-17.043456 -2.70769,-10.197018 -7.95127,-12.512655 9.89795,-3.771972 4.8729,2.386236 10.82503,3.828284 10.86183,-4.366699 0.0291,-6.488331 -0.0901,-9.816663 1.43115,-9.764646 z m -1.18945,44.396475 c -1.78379,-0.0209 -4.06245,0.200109 -6.81593,0.745611 -8.52668,1.68924 -22.38615,4.114737 -21.97119,8.869629 0.064,1.674348 3.33913,3.72443 3.24024,6.56396 1.89243,6.476272 8.45827,6.334022 15.14647,1.270012 9.41748,-7.130493 5.11066,-7.719042 12.51857,-13.063464 4.12737,-2.094018 3.23319,-4.322988 -2.11816,-4.385748 z M 89.85602,105.25418 c -1.45237,0 -2.63917,1.55496 -3.63574,3.19629 -4.12987,6.80181 -7.13098,11.85603 -15.84521,22.03418 -8.71424,10.17816 -15.84374,20.39721 -15.84374,22.70946 0,7.43631 4.66449,1.9131 21.63427,-19.8618 16.59717,-21.2968 19.26112,-28.07813 13.69042,-28.07813 z m 120.85547,3.23586 c -1.85628,-0.0265 -3.29898,4.1122 -4.56006,9.59472 -1.22143,13.07475 -3.87423,21.77796 -15.26074,33.30761 -4.58072,4.38171 -10.99458,6.9945 -11.96484,10.14258 -1.2312,3.99468 0.9216,4.88473 0.60351,8.28222 -0.88491,9.45162 17.72868,2.64528 27.09522,-3.71778 10.161,-6.90276 16.14603,-12.87969 19.09275,-24.58007 0,0 0.92746,-7.51994 -1.26708,-7.95118 -2.19453,-0.43122 -5.85057,6.92873 -5.85057,6.92873 -3.96999,7.61647 -7.22463,11.4263 -16.09131,17.96777 -19.67181,13.18295 -15.07877,5.62328 -6.98439,-0.46729 5.31396,-3.99846 10.21323,-10.84961 12.26514,-15.70313 6.31014,-13.08634 8.16381,-26.89712 5.30565,-31.69188 -0.86715,-1.45475 -1.65693,-2.10195 -2.38328,-2.1123 z"
     id="path853-0-3-1-0"
     inkscape:connector-curvature="0"
     sodipodi:nodetypes="sccssssssscssssscscsscccsccscccccccccsccccscczscssssscczscsssssscccsssscssscscssscscsssccscssssssssccsssccccsccsc" />
</svg>
