<?xml version="1.0" encoding="UTF-8" standalone="no"?>
<svg
   xmlns:dc="http://purl.org/dc/elements/1.1/"
   xmlns:cc="http://creativecommons.org/ns#"
   xmlns:rdf="http://www.w3.org/1999/02/22-rdf-syntax-ns#"
   xmlns:svg="http://www.w3.org/2000/svg"
   xmlns="http://www.w3.org/2000/svg"
   xmlns:xlink="http://www.w3.org/1999/xlink"
   xmlns:sodipodi="http://sodipodi.sourceforge.net/DTD/sodipodi-0.dtd"
   xmlns:inkscape="http://www.inkscape.org/namespaces/inkscape"
   version="1.0"
   width="300.000000pt"
   height="300.000000pt"
   viewBox="0 0 300.000000 300.000000"
   preserveAspectRatio="xMidYMid meet"
   id="svg2"
   inkscape:version="0.92.5 (2060ec1f9f, 2020-04-08)"
   sodipodi:docname="wq.svg">
  <defs
     id="defs12">
    <linearGradient
       inkscape:collect="always"
       id="linearGradient849">
      <stop
         style="stop-color:#fffdf4;stop-opacity:1"
         offset="0"
         id="stop845" />
      <stop
         style="stop-color:#d6d0c2;stop-opacity:1"
         offset="1"
         id="stop847" />
    </linearGradient>
    <filter
       style="color-interpolation-filters:sRGB;"
       inkscape:label="Drawing"
       id="filter18775">
      <feGaussianBlur
         in="SourceGraphic"
         stdDeviation="5.99659"
         result="blur1"
         id="feGaussianBlur18721" />
      <feConvolveMatrix
         in="blur1"
         targetX="1"
         targetY="1"
         order="3 3"
         kernelMatrix="0 250 0 250 -1010 250 0 250 0 "
         result="convolve1"
         id="feConvolveMatrix18723" />
      <feComposite
         in="convolve1"
         in2="convolve1"
         k1="1"
         k2="1"
         k4="0.04"
         operator="arithmetic"
         result="composite1"
         id="feComposite18725" />
      <feColorMatrix
         in="composite1"
         values="0 0 0 0 0 0 0 0 0 0 0 0 0 0 0 -0.2125 -0.7154 -0.0721 1 0 "
         result="color1"
         id="feColorMatrix18727" />
      <feGaussianBlur
         stdDeviation="0.61"
         result="blur2"
         id="feGaussianBlur18729" />
      <feColorMatrix
         values="1 0 0 0 0 0 1 0 0 0 0 0 1 0 0 0 0 0 2.7 -1 "
         result="color2"
         id="feColorMatrix18731" />
      <feFlood
         flood-color="rgb(255,255,255)"
         result="flood1"
         id="feFlood18733" />
      <feBlend
         in2="color2"
         mode="multiply"
         result="blend1"
         id="feBlend18735" />
      <feComponentTransfer
         in="blend1"
         result="component1"
         id="feComponentTransfer18743">
        <feFuncR
           type="discrete"
           tableValues="0 1 1 1"
           id="feFuncR18737" />
        <feFuncG
           type="discrete"
           tableValues="0 1 1 1"
           id="feFuncG18739" />
        <feFuncB
           type="discrete"
           tableValues="0 1 1 1"
           id="feFuncB18741" />
      </feComponentTransfer>
      <feGaussianBlur
         stdDeviation="0.61"
         result="blur3"
         id="feGaussianBlur18745" />
      <feColorMatrix
         in="blur3"
         values="0 0 0 0 0 0 0 0 0 0 0 0 0 0 0 -0.2125 -0.7154 -0.0721 1 0 "
         result="color3"
         id="feColorMatrix18747" />
      <feColorMatrix
         values="1 0 0 0 0 0 1 0 0 0 0 0 1 0 0 0 0 0 1.9 -0.5 "
         result="color4"
         id="feColorMatrix18749" />
      <feFlood
         flood-color="rgb(0,0,0)"
         result="flood2"
         id="feFlood18751" />
      <feComposite
         in="flood2"
         in2="color4"
         operator="in"
         result="composite2"
         id="feComposite18753" />
      <feComposite
         in="composite2"
         in2="composite2"
         operator="arithmetic"
         k2="1"
         result="composite3"
         id="feComposite18755" />
      <feOffset
         dx="0"
         dy="0"
         result="offset1"
         id="feOffset18757" />
      <feFlood
         in="color4"
         flood-color="rgb(66,66,66)"
         result="flood3"
         id="feFlood18759" />
      <feComposite
         in="flood3"
         in2="color4"
         operator="out"
         result="composite4"
         id="feComposite18761" />
      <feComposite
         in="composite4"
         in2="composite4"
         operator="arithmetic"
         k2="1"
         result="composite5"
         id="feComposite18763" />
      <feMerge
         result="merge1"
         id="feMerge18769">
        <feMergeNode
           in="composite5"
           id="feMergeNode18765" />
        <feMergeNode
           in="offset1"
           id="feMergeNode18767" />
      </feMerge>
      <feColorMatrix
         values="1 0 0 0 0 0 1 0 0 0 0 0 1 0 0 0 0 0 1.3 0 "
         result="color5"
         flood-opacity="0.56"
         id="feColorMatrix18771" />
      <feComposite
         in="color5"
         in2="SourceGraphic"
         operator="in"
         result="composite8"
         id="feComposite18773" />
    </filter>
    <linearGradient
       inkscape:collect="always"
       xlink:href="#linearGradient849"
       id="linearGradient851"
       x1="14.68037"
       y1="148.1311"
       x2="285.69077"
       y2="148.1311"
       gradientUnits="userSpaceOnUse" />
  </defs>
  <sodipodi:namedview
     pagecolor="#ffffff"
     bordercolor="#666666"
     borderopacity="1"
     objecttolerance="10"
     gridtolerance="10"
     guidetolerance="10"
     inkscape:pageopacity="0"
     inkscape:pageshadow="2"
     inkscape:window-width="1379"
     inkscape:window-height="953"
     id="namedview10"
     showgrid="false"
     inkscape:zoom="1.0940972"
     inkscape:cx="414.71318"
     inkscape:cy="103.92804"
     inkscape:window-x="360"
     inkscape:window-y="116"
     inkscape:window-maximized="0"
     inkscape:current-layer="svg2"
     inkscape:pagecheckerboard="true">
    <inkscape:grid
       type="xygrid"
       id="grid842" />
  </sodipodi:namedview>
  <metadata
     id="metadata4">
Created by potrace 1.12, written by Peter Selinger 2001-2015
<rdf:RDF>
  <cc:Work
     rdf:about="">
    <dc:format>image/svg+xml</dc:format>
    <dc:type
       rdf:resource="http://purl.org/dc/dcmitype/StillImage" />
    <dc:title />
  </cc:Work>
</rdf:RDF>
</metadata>
  <path
     sodipodi:nodetypes="zsssssscsssccssssssscscsssscscssccssccssssccssscz"
     inkscape:connector-curvature="0"
     id="path842"
     d="m 129.30181,282.59877 c -16.93434,-1.16141 -49.85044,-6.86227 -57.186415,-18.58358 -2.015099,-3.21969 1.163255,-7.46658 2.953567,-14.12823 4.150121,-15.44237 8.271989,-20.45168 -3.793269,-44.15219 -4.966824,-9.75663 -10.620703,-10.85241 -8.212661,-25.97447 0.728139,-4.57258 8.009155,-6.56221 -4.260331,-24.52982 C 53.74882,147.8295 49.504639,135.2281 47.68572,129.50625 45.087767,121.33375 43.315092,110.91254 30.191975,109.48873 18.359184,106.82593 16.682537,102.10231 16.27442,96.928443 15.837964,91.395315 16.471745,83.635832 27.106368,80.503101 c 8.633825,-2.543337 18.741522,3.009159 17.430961,16.616065 -1.171198,12.159964 4.258501,17.146294 25.184968,38.277864 15.878594,13.05068 25.114511,26.14421 22.15477,5.79774 C 90.974034,133.384 88.987423,115.90921 88.245517,103.19635 86.783229,78.139415 86.417917,80.159302 78.050918,76.371884 71.383458,73.353783 69.242081,70.422411 68.581087,63.408441 67.093995,47.628606 82.175006,39.20201 94.087448,46.86065 c 4.295742,2.761777 6.884002,10.132891 6.627902,15.987051 -0.47737,10.911662 -7.863929,4.840567 3.65784,29.142851 1.56624,3.303588 7.98782,19.056708 13.80309,34.409438 5.81527,15.35273 9.13027,26.32013 12.80247,25.0268 1.61946,-1.13908 2.63559,-15.26248 3.39878,-28.95526 2.29462,-41.168633 4.70646,-51.382382 6.06435,-56.19539 4.28079,-23.809444 3.48556,-16.222875 -1.67238,-21.863644 -13.52476,-14.790828 -1.40957,-35.9520626 17.47347,-30.709023 5.73563,1.592545 11.48114,8.755648 11.49252,16.009219 0.0142,8.992395 -3.05637,12.386358 -5.55182,14.611358 -4.94388,4.408074 -6.8807,-0.955732 -1.65043,20.734026 1.88133,8.802415 3.41555,13.2997 5.96703,50.183884 1.23988,17.92381 1.50423,34.32323 4.68219,35.39572 1.79292,0.43019 4.85987,-4.96332 7.85199,-13.70646 1.47141,-4.29951 14.14866,-37.744762 22.36302,-54.193134 1.26513,-2.533299 3.21672,-9.835935 1.93587,-11.208026 -4.75546,-7.94553 -4.01726,-13.508082 -2.42244,-17.159779 2.58351,-5.33993 8.50507,-10.239078 15.45544,-10.239078 17.39545,0 22.48368,23.676379 8.81218,31.653494 -11.09415,6.473272 -9.55816,-0.893056 -12.35638,30.062133 -8.22222,56.41547 -7.99518,55.76712 20.39102,27.08629 17.55987,-17.75699 23.51904,-24.27164 22.59164,-33.042624 -1.58653,-15.004746 3.91282,-17.758337 13.44293,-17.619446 10.9146,0.159069 14.40888,5.01058 13.8328,15.800681 -0.38746,7.257279 -3.14895,9.871299 -10.36363,11.561589 -9.07762,2.12675 -15.09145,2.86616 -20.0742,25.86725 -2.28592,8.41698 -9.77897,21.42574 -12.48599,26.28951 -3.70002,6.64788 -3.64408,13.25673 -2.5291,17.75037 3.06553,12.35486 -0.42642,14.86412 -7.12141,25.82799 -10.80636,17.69685 -11.50354,27.95946 -2.69381,51.95028 1.52849,4.16243 2.60298,8.21523 -7.58214,13.70983 -32.88162,14.61846 -73.9941,12.73163 -90.92844,11.57022 z"
     style="display:inline;fill:url(#linearGradient851);fill-opacity:1;stroke-width:2.80216026" />
  <path
     sodipodi:nodetypes="zsssssscsssccssssssscscsssscscssccsssssssssccsssczssssscccsccsssczccccccsscczcsscsscscssscssscssssccsscsszcsssssscssccsscccccc"
     inkscape:connector-curvature="0"
     id="path842-33"
     d="m 129.30182,282.59876 c -16.93434,-1.16141 -49.85044,-6.86227 -57.18642,-18.58358 -2.0151,-3.21968 1.50701,-7.38358 2.95357,-14.12823 3.15133,-14.69328 6.38425,-25.97762 -7.53943,-44.72354 -6.40584,-8.6244 -14.10346,-19.79844 -6.82608,-30.43884 1.68497,-2.46363 4.39171,-3.50392 -5.65542,-20.18998 C 50.85392,147.5691 47.21032,140.07305 44.1959,130.54488 42.21004,124.26782 40.78607,113.71167 28.98717,112.81755 17.15438,111.47897 15.14018,102.61643 14.73206,97.442567 14.2956,91.909441 15.9241,83.423935 26.4884,80.061696 c 10.48774,-3.33787 22.1742,4.33338 20.86364,17.940288 -1.1712,12.159956 2.2851,13.890176 23.21157,35.021746 15.52546,14.11005 24.2732,28.51751 21.31346,8.17104 C 90.97404,133.38399 88.98743,115.9092 88.24552,103.19635 86.78323,78.139417 86.41792,80.159304 78.05092,76.371886 71.38346,73.353785 69.24209,70.422413 68.58109,63.408443 67.094,47.628609 82.17501,39.202012 94.08745,46.860653 c 4.29574,2.761776 6.884,10.13289 6.62791,15.98705 -0.47738,10.911662 -7.86393,4.840567 3.65784,29.142851 1.56624,3.303585 7.98781,19.056706 13.80309,34.409436 5.81527,15.35273 9.13026,26.32012 12.80247,25.02679 1.61946,-1.13907 2.63559,-15.26247 3.39877,-28.95525 2.29463,-41.168631 4.70646,-51.38238 6.06435,-56.195388 4.28079,-23.809443 3.48557,-16.222875 -1.67238,-21.863643 -13.52475,-14.790828 -1.40956,-35.952062 17.47347,-30.709022 5.73564,1.592545 11.48114,8.755647 11.49252,16.009218 0.0142,8.992395 -3.05637,12.386357 -5.55182,14.611358 -4.94388,4.408074 -6.88069,-0.955732 -1.65043,20.734025 1.88133,8.802415 3.41555,13.2997 5.96703,50.183882 1.23988,17.92381 1.50423,34.32323 4.68219,35.39572 1.79292,0.43018 4.85987,-4.96332 7.85199,-13.70646 1.47141,-4.29951 14.14866,-37.744761 22.36302,-54.193133 1.26513,-2.533298 3.21672,-9.835934 1.93587,-11.208025 -4.75545,-7.94553 -4.01726,-13.508081 -2.42244,-17.159779 2.58351,-5.339929 8.50507,-10.239077 15.45544,-10.239077 17.39546,0 22.48368,23.676378 8.81219,31.653493 -11.09415,6.473272 -9.55817,-0.893056 -12.35639,30.062131 -3.6537,40.41886 -4.80911,44.81555 -2.17486,44.81555 1.44927,0 12.16719,-10.6394 22.73725,-21.32812 17.55987,-17.75699 20.77706,-20.50141 19.84966,-29.27239 -1.58653,-15.004744 6.82618,-20.671696 16.35629,-20.532805 10.9146,0.159069 16.63674,7.752567 16.06066,18.542669 -0.38746,7.257276 -5.20544,12.613286 -12.42012,14.303576 -9.07762,2.12674 -12.87396,0.48767 -19.26921,23.13564 -2.28592,8.41698 -9.04159,20.90123 -11.74861,25.765 -3.70002,6.64788 -6.24541,9.61795 -3.27652,13.31706 7.96776,9.92748 2.6961,20.14386 -5.76452,30.04834 -13.46782,15.76622 -12.42162,29.43563 -5.35977,52.67736 1.28911,4.24268 2.60298,8.21523 -7.58214,13.70983 -32.88162,14.61846 -73.99409,12.73163 -90.92843,11.57022 z m 50.3334,-10.91959 c 29.76407,-3.94198 37.31851,-9.20214 35.34529,-12.82512 -3.13046,-5.74778 -24.47904,-13.43254 -63.29792,-13.70125 -43.03346,-0.29789 -64.93928,8.45373 -66.69194,14.71444 -2.04782,7.31504 47.51877,18.0533 94.64457,11.81193 z m -55.81551,-35.42133 c 18.41263,-1.56211 58.0493,-2.22751 79.78307,4.47624 10.3205,3.50489 10.66599,3.58529 9.43125,-3.4024 -0.11025,-0.94353 -2.03969,-6.1326 -9.12216,-11.44854 -13.26076,-9.95319 -27.96589,-9.96252 -38.84075,-5.9873 -4.21912,1.85537 -8.26047,4.66455 -9.48567,6.89897 -4.25579,9.05323 -7.15056,8.04552 -11.36631,0.20154 -4.76748,-8.87061 -21.56811,-10.20504 -28.19642,-9.07209 -13.719,2.34496 -27.78814,11.75764 -28.57033,19.12953 -0.67971,6.40615 0.50144,6.84399 5.86308,5.14185 3.42114,-1.08609 15.95004,-3.91359 20.36988,-4.55376 4.41982,-0.64016 10.13436,-1.38404 10.13436,-1.38404 z m 15.44997,-32.05798 c 2.2584,-1.99356 4.70782,-4.1001 6.9627,-7.99896 1.50096,-4.85412 4.98091,-8.58245 8.58759,0.72759 6.16888,8.27824 8.3195,14.27701 32.8582,16.45368 11.13431,0.84342 30.13023,1.03965 34.67139,-11.1771 -3.66753,-3.76797 -45.56813,-13.10382 -71.56672,-12.62057 -26.44092,0.0929 -68.6563,8.45211 -72.09128,11.98118 -0.85105,0.87438 1.47575,3.33915 4.23625,6.47302 6.29162,6.1436 37.17292,10.08507 53.86037,-2.07778 0,0 0.22313,0.23253 2.4815,-1.76102 z M 106.34937,183.9129 c 23.47194,-4.20038 58.11949,-5.31356 84.57198,-0.85595 10.44447,2.10038 24.52357,5.51162 30.52326,7.2534 6.1066,1.27001 6.86967,2.63628 9.81467,-1.94268 2.49409,-3.87787 1.00716,-6.74019 -1.55344,-10.30647 -4.22622,-5.88607 -3.99367,-8.46154 5.81685,-24.54636 5.30789,-9.88139 8.6042,-17.06721 7.76165,-17.93284 -0.84255,-0.86564 -7.69211,4.89193 -18.13355,15.24844 -19.16488,19.00898 -24.12062,22.68435 -26.21885,16.16357 -2.55808,-7.94988 2.27932,-42.23689 3.64846,-56.26565 0.73899,-7.572 1.27041,-12.941566 -3.61466,1.29386 -2.24338,6.53735 -6.89075,16.60251 -10.81482,27.38338 -8.71898,23.51567 -14.22103,26.67891 -20.23666,24.5538 -5.64397,-1.99383 -9.9048,-13.53904 -11.39679,-42.58179 -2.00189,-38.967973 -4.54637,-55.220893 -7.96125,-46.078031 -2.15316,8.362324 -2.69887,25.070201 -4.12959,45.692541 -2.84877,41.06263 -6.5919,42.26752 -13.18131,43.58741 -4.40746,0.88284 -10.99035,-5.376 -20.01441,-28.6427 l -13.03945,-33.61963 3.18657,35.83146 c 3.35602,37.73678 1.71358,40.27217 -23.0414,15.61227 -24.34555,-24.25203 -28.44254,-26.22607 -9.12327,7.26983 6.84961,11.37144 2.94085,14.90524 0.18339,18.63391 -2.08306,2.81675 -1.8301,6.20783 0.007,9.20169 2.88639,4.7031 4.08364,2.14302 15.22367,-0.36531 5.91504,-1.62159 12.28455,-2.89933 21.72165,-4.58814 z M 36.6819,94.555486 c -0.92046,-2.464357 -3.57867,-3.665287 -5.90714,-3.665287 -4.462,0 -6.63966,5.664735 -4.46971,9.208411 2.33783,3.8178 7.37919,2.89779 8.78822,1.67033 1.40902,-1.22748 3.05266,-3.390126 1.58863,-7.213454 z m 238.67349,3.926438 c 0.92213,-4.401428 -1.58958,-7.827398 -5.34021,-7.863518 -4.6242,-0.04455 -9.12516,4.407878 -4.87949,11.052474 2.36865,2.56861 9.09608,2.17414 10.2197,-3.188956 z M 221.0957,64.251906 c 3.14098,-4.216571 0.18026,-9.938977 -5.05352,-9.938977 -3.47156,0 -6.24611,4.463601 -5.67157,7.154149 1.27607,5.975657 7.04743,7.721887 10.72509,2.784828 z M 90.07062,59.541182 c -0.48587,-3.514846 -3.29363,-4.831084 -5.57439,-4.831084 -2.28075,0 -5.05442,2.174386 -5.49423,5.69521 -0.42381,3.392698 2.38029,6.850632 5.63826,6.798016 3.5388,-0.05715 6.11027,-2.743638 5.43036,-7.662142 z m 66.62262,-29.901775 c -0.105,-4.47731 -3.73606,-6.427769 -6.38157,-6.427769 -5.77318,0 -8.59204,7.241482 -4.41706,11.531543 4.3789,4.499622 10.33594,0.993475 10.79863,-5.103774 z"
     style="display:inline;fill:#000000;fill-opacity:1;stroke-width:2.80216026" />
</svg>
