<?xml version="1.0" encoding="UTF-8" standalone="no"?>
<svg
   xmlns:dc="http://purl.org/dc/elements/1.1/"
   xmlns:cc="http://creativecommons.org/ns#"
   xmlns:rdf="http://www.w3.org/1999/02/22-rdf-syntax-ns#"
   xmlns:svg="http://www.w3.org/2000/svg"
   xmlns="http://www.w3.org/2000/svg"
   xmlns:xlink="http://www.w3.org/1999/xlink"
   xmlns:sodipodi="http://sodipodi.sourceforge.net/DTD/sodipodi-0.dtd"
   xmlns:inkscape="http://www.inkscape.org/namespaces/inkscape"
   version="1.0"
   width="300.000000pt"
   height="300.000000pt"
   viewBox="0 0 300.000000 300.000000"
   preserveAspectRatio="xMidYMid meet"
   id="svg2"
   inkscape:version="0.92.5 (2060ec1f9f, 2020-04-08)"
   sodipodi:docname="wr.svg">
  <defs
     id="defs12">
    <linearGradient
       inkscape:collect="always"
       id="linearGradient848">
      <stop
         style="stop-color:#fffdf4;stop-opacity:1"
         offset="0"
         id="stop844" />
      <stop
         style="stop-color:#d6d0c2;stop-opacity:1"
         offset="1"
         id="stop846" />
    </linearGradient>
    <filter
       style="color-interpolation-filters:sRGB;"
       inkscape:label="Drawing"
       id="filter18775">
      <feGaussianBlur
         in="SourceGraphic"
         stdDeviation="5.99659"
         result="blur1"
         id="feGaussianBlur18721" />
      <feConvolveMatrix
         in="blur1"
         targetX="1"
         targetY="1"
         order="3 3"
         kernelMatrix="0 250 0 250 -1010 250 0 250 0 "
         result="convolve1"
         id="feConvolveMatrix18723" />
      <feComposite
         in="convolve1"
         in2="convolve1"
         k1="1"
         k2="1"
         k4="0.04"
         operator="arithmetic"
         result="composite1"
         id="feComposite18725" />
      <feColorMatrix
         in="composite1"
         values="0 0 0 0 0 0 0 0 0 0 0 0 0 0 0 -0.2125 -0.7154 -0.0721 1 0 "
         result="color1"
         id="feColorMatrix18727" />
      <feGaussianBlur
         stdDeviation="0.61"
         result="blur2"
         id="feGaussianBlur18729" />
      <feColorMatrix
         values="1 0 0 0 0 0 1 0 0 0 0 0 1 0 0 0 0 0 2.7 -1 "
         result="color2"
         id="feColorMatrix18731" />
      <feFlood
         flood-color="rgb(255,255,255)"
         result="flood1"
         id="feFlood18733" />
      <feBlend
         in2="color2"
         mode="multiply"
         result="blend1"
         id="feBlend18735" />
      <feComponentTransfer
         in="blend1"
         result="component1"
         id="feComponentTransfer18743">
        <feFuncR
           type="discrete"
           tableValues="0 1 1 1"
           id="feFuncR18737" />
        <feFuncG
           type="discrete"
           tableValues="0 1 1 1"
           id="feFuncG18739" />
        <feFuncB
           type="discrete"
           tableValues="0 1 1 1"
           id="feFuncB18741" />
      </feComponentTransfer>
      <feGaussianBlur
         stdDeviation="0.61"
         result="blur3"
         id="feGaussianBlur18745" />
      <feColorMatrix
         in="blur3"
         values="0 0 0 0 0 0 0 0 0 0 0 0 0 0 0 -0.2125 -0.7154 -0.0721 1 0 "
         result="color3"
         id="feColorMatrix18747" />
      <feColorMatrix
         values="1 0 0 0 0 0 1 0 0 0 0 0 1 0 0 0 0 0 1.9 -0.5 "
         result="color4"
         id="feColorMatrix18749" />
      <feFlood
         flood-color="rgb(0,0,0)"
         result="flood2"
         id="feFlood18751" />
      <feComposite
         in="flood2"
         in2="color4"
         operator="in"
         result="composite2"
         id="feComposite18753" />
      <feComposite
         in="composite2"
         in2="composite2"
         operator="arithmetic"
         k2="1"
         result="composite3"
         id="feComposite18755" />
      <feOffset
         dx="0"
         dy="0"
         result="offset1"
         id="feOffset18757" />
      <feFlood
         in="color4"
         flood-color="rgb(66,66,66)"
         result="flood3"
         id="feFlood18759" />
      <feComposite
         in="flood3"
         in2="color4"
         operator="out"
         result="composite4"
         id="feComposite18761" />
      <feComposite
         in="composite4"
         in2="composite4"
         operator="arithmetic"
         k2="1"
         result="composite5"
         id="feComposite18763" />
      <feMerge
         result="merge1"
         id="feMerge18769">
        <feMergeNode
           in="composite5"
           id="feMergeNode18765" />
        <feMergeNode
           in="offset1"
           id="feMergeNode18767" />
      </feMerge>
      <feColorMatrix
         values="1 0 0 0 0 0 1 0 0 0 0 0 1 0 0 0 0 0 1.3 0 "
         result="color5"
         flood-opacity="0.56"
         id="feColorMatrix18771" />
      <feComposite
         in="color5"
         in2="SourceGraphic"
         operator="in"
         result="composite8"
         id="feComposite18773" />
    </filter>
    <linearGradient
       inkscape:collect="always"
       xlink:href="#linearGradient848"
       id="linearGradient850"
       x1="41.603199"
       y1="150.35694"
       x2="262.08603"
       y2="150.35694"
       gradientUnits="userSpaceOnUse" />
  </defs>
  <sodipodi:namedview
     pagecolor="#ffffff"
     bordercolor="#666666"
     borderopacity="1"
     objecttolerance="10"
     gridtolerance="10"
     guidetolerance="10"
     inkscape:pageopacity="0"
     inkscape:pageshadow="2"
     inkscape:window-width="1397"
     inkscape:window-height="900"
     id="namedview10"
     showgrid="false"
     inkscape:zoom="1.3862267"
     inkscape:cx="53.341612"
     inkscape:cy="218.55808"
     inkscape:window-x="36"
     inkscape:window-y="53"
     inkscape:window-maximized="0"
     inkscape:current-layer="svg2"
     inkscape:pagecheckerboard="true">
    <inkscape:grid
       type="xygrid"
       id="grid842" />
  </sodipodi:namedview>
  <metadata
     id="metadata4">
Created by potrace 1.12, written by Peter Selinger 2001-2015
<rdf:RDF>
  <cc:Work
     rdf:about="">
    <dc:format>image/svg+xml</dc:format>
    <dc:type
       rdf:resource="http://purl.org/dc/dcmitype/StillImage" />
    <dc:title />
  </cc:Work>
</rdf:RDF>
</metadata>
  <path
     style="display:inline;fill:url(#linearGradient850);fill-opacity:1;stroke-width:2.65008211"
     d="m 45.077742,275.46414 c -2.505584,-0.28985 -3.000375,-3.1659 -3.006112,-18.19233 -0.08564,-13.86683 -3.558505,-18.66231 9.788215,-19.89051 8.965271,-1.29928 9.748039,-0.77299 9.748039,-12.46658 0,-11.60451 0.04624,-10.63983 8.452285,-12.56514 l 10.724532,-2.45634 0.08188,-59.48146 C 80.906431,121.46122 80.93822,105.36175 80.611638,96.459537 80.117914,83.001102 77.783817,85.117099 65.320002,77.203978 60.61403,74.216215 58.178394,71.821426 58.321331,53.472767 58.51127,29.090479 52.074962,31.945228 90.644142,26.371045 c 6.810748,-0.984319 5.897891,0.651045 6.603524,11.892336 0.744739,11.864296 -0.610032,11.176491 6.389764,10.149837 3.09034,-0.453258 8.22116,-1.189399 12.99359,-1.716611 7.03613,-0.976542 7.61322,-0.01223 7.45752,-11.631795 0.21334,-14.17779 -2.44027,-12.743371 27.9108,-12.743371 29.63245,-0.05599 27.76452,-1.366757 27.53521,12.201286 0.14716,13.793367 0.37375,11.236535 13.18277,12.933239 15.40029,1.294034 13.53286,3.99807 13.85308,-10.096043 0.0292,-12.470243 1.02212,-11.236188 7.98746,-10.651342 4.71812,1.029475 14.69902,2.678413 20.50745,3.465579 10.23143,2.630678 11.32613,-1.673668 10.37753,19.749987 -0.69855,22.006818 0.78858,22.952132 -12.75691,30.666055 -12.22264,7.250898 -9.03321,1.059189 -9.97165,66.735208 0.24475,31.47171 -0.37429,60.05636 0.32075,61.8938 0.35392,1.18007 4.29749,1.67527 9.39204,2.93526 7.6589,1.8942 9.44419,0.71431 9.58517,11.75248 0.16104,12.60923 0.8756,12.68481 10.78505,13.51411 10.52876,0.85427 9.27796,4.28894 9.2089,18.68432 -0.49206,21.43191 2.19953,19.10368 -16.75356,20.15097 -8.89094,0.77963 -34.59944,1.27703 -49.472,1.70296 C 151.15648,278.95138 131.32224,278.25595 93.75,277.5 90.425834,277.24364 58.236862,277.16179 45.077742,275.46414 Z"
     id="path844"
     inkscape:connector-curvature="0"
     sodipodi:nodetypes="cccsscsssssssccccccccccccsscccccc" />
  <path
     sodipodi:nodetypes="cccsscsssssssccccccccccccssccccccssssssssssssssssscscscssscsssssssscsscsscscccscscccscccsscscscsssssssssscssccccccczcsss"
     inkscape:connector-curvature="0"
     id="path842"
     d="m 45.077742,275.46414 c -2.505584,-0.28985 -3.000375,-3.1659 -3.006112,-18.19233 -0.08564,-13.86683 -3.558505,-18.66231 9.788215,-19.89051 8.965271,-1.29928 9.748039,-0.77299 9.748039,-12.46658 0,-11.60451 0.04624,-10.63983 8.452285,-12.56514 l 10.724532,-2.45634 0.08188,-59.48146 C 80.906431,121.46122 80.93822,105.36175 80.611638,96.459537 80.117914,83.001102 77.783817,85.117099 65.320002,77.203978 60.61403,74.216215 58.178394,71.821426 58.321331,53.472767 58.51127,29.090479 52.074962,31.945228 90.644142,26.371045 c 6.810748,-0.984319 5.897891,0.651045 6.603524,11.892336 0.744739,11.864296 -0.610032,11.176491 6.389764,10.149837 3.09034,-0.453258 8.22116,-1.189399 12.99359,-1.716611 7.03613,-0.976542 7.61322,-0.01223 7.45752,-11.631795 0.21334,-14.17779 -2.44027,-12.743371 27.9108,-12.743371 29.63245,-0.05599 27.76452,-1.366757 27.53521,12.201286 0.14716,13.793367 0.37375,11.236535 13.18277,12.933239 15.40029,1.294034 13.53286,3.99807 13.85308,-10.096043 0.0292,-12.470243 1.02212,-11.236188 7.98746,-10.651342 4.71812,1.029475 14.69902,2.678413 20.50745,3.465579 10.23143,2.630678 11.32613,-1.673668 10.37753,19.749987 -0.69855,22.006818 0.78858,22.952132 -12.75691,30.666055 -12.22264,7.250898 -9.03321,1.059189 -9.97165,66.735208 0.24475,31.47171 -0.37429,60.05636 0.32075,61.8938 0.35392,1.18007 4.29749,1.67527 9.39204,2.93526 7.6589,1.8942 9.44419,0.71431 9.58517,11.75248 0.16104,12.60923 0.8756,12.68481 10.78505,13.51411 10.52876,0.85427 9.27796,4.28894 9.2089,18.68432 -0.49206,21.43191 2.19953,19.10368 -16.75356,20.15097 -8.89094,0.77963 -34.59944,1.27703 -49.472,1.70296 C 151.15648,278.95138 131.32224,278.25595 93.75,277.5 90.425834,277.24364 58.236862,277.16179 45.077742,275.46414 Z M 235.4864,264.32436 c 17.39534,-0.3573 14.81673,-1.77756 15.22112,-9.06569 0.4155,-7.48822 -2.71514,-8.33437 -13.86198,-9.13005 -21.78917,-1.55535 -150.857781,-1.30152 -170.973681,0.962 -13.0343,1.46667 -13.428004,1.54057 -13.428004,9.66509 0,5.39918 2.485247,7.02264 5.733807,7.1607 59.519408,2.5296 144.901218,1.07359 177.308738,0.40795 z m -78.56143,-30.59545 c 31.83646,0 57.44191,1.13461 61.84031,1.33459 10.68365,0.48574 12.36837,0.43727 12.36837,-6.97715 0,-6.35752 -10.52323,-9.05963 -13.31504,-9.31992 -41.75057,-3.89257 -116.26737,-2.34212 -131.276854,0 -12.181901,1.90089 -16.013329,6.61389 -13.279343,13.84165 1.347443,3.56219 1.601149,2.92864 13.85948,2.40913 11.680766,-0.49504 37.966607,-1.2883 69.803077,-1.2883 z m 55.27172,-30.50816 c 1e-4,-10.99316 1.57429,-114.586322 -0.81753,-117.254827 -1.35527,-1.512052 -15.08806,-3.943292 -33.22602,-5.49725 -15.60901,-1.041034 -34.02875,-0.780627 -36.86373,-0.744465 -16.91545,0.215765 -46.549577,3.789224 -48.894096,6.167671 -2.663618,3.302745 -1.260172,118.006611 -0.775876,119.872871 1.057351,4.07456 11.202072,0.40278 60.895702,0.52229 55.23458,-0.0838 59.68148,4.6176 59.68154,-1.98008 z m -64.25804,-8.98892 c 0,-3.69114 1.26278,-7.50289 2.80617,-8.47056 2.73371,-1.55177 4.432,1.92449 4.92312,8.74339 0.31223,4.33516 -0.76653,8.52928 -2.93734,9.18572 -3.41848,0.72195 -4.79195,-4.47598 -4.79195,-9.45855 z M 98.9579,180.80407 c -1.01602,-5.022 12.21396,-8.0087 53.78966,-8.02011 44.90294,-0.0123 52.83366,4.11619 52.21593,8.36936 -0.28633,1.97138 -26.34794,0.92768 -51.95634,0.88071 -28.21762,-0.0518 -53.529035,1.34139 -54.04925,-1.22996 z m 19.32118,-14.25875 c -1.31088,-6.0912 -1.20975,-15.34655 3.32801,-15.17019 2.51591,0.0978 3.54753,4.7734 3.46675,8.844 -0.1875,9.44845 -4.28231,13.86458 -6.79476,6.32619 z m 60.45185,-2.35135 c -0.79578,-6.64093 -0.0658,-12.03701 3.60011,-12.57564 3.82838,-0.5625 4.35387,8.71446 3.4315,13.94149 -1.29081,7.46014 -6.14466,6.03593 -7.03161,-1.36585 z M 98.95832,145.39935 c 0.80959,-3.76226 -0.517504,-5.04054 24.7498,-7.44328 25.2595,-2.07178 52.93933,-0.63429 60.25183,0.35912 17.625,2.2451 20.96526,2.47674 20.7726,7.68084 -0.0856,2.31239 -26.03671,0.32247 -52.15784,0.37752 -8.20015,-0.0107 -27.54978,0.33938 -40.86676,0.67589 -7.33691,0.1854 -13.364028,-0.0234 -12.74963,-1.65009 z m 49.30133,-21.22233 c 0,-8.36182 6.55408,-12.3216 7.41856,1.0988 0.25004,3.88176 -1.06928,8.83852 -3.81179,8.83852 -2.68643,0 -3.60677,-5.45174 -3.60677,-9.93732 z M 99.24099,111.686 c -1.390763,-5.24637 18.88656,-8.92572 52.80596,-8.78386 26.94751,-0.2026 46.25793,2.77336 49.98359,5.00519 2.83569,1.02211 2.82501,1.48776 2.21113,4.67082 -0.55629,2.88443 -19.41554,-0.32448 -51.45242,-0.61366 -17.74522,0.1399 -39.05881,1.50974 -49.5065,2.00025 -4.083673,0.19172 -3.696666,0.11765 -4.04176,-2.27874 z m 19.17927,-19.488107 c 0,-4.507962 1.70349,-8.532123 3.85603,-8.083337 2.93389,0.61169 3.17695,2.935183 3.17695,8.057781 0,2.691431 -1.52027,7.958503 -3.43545,8.283543 -1.99939,0.33934 -3.59753,-3.750024 -3.59753,-8.257987 z m 60.49796,4.111368 c -1.19056,-3.185342 -1.20548,-12.669215 2.76293,-12.176104 4.83224,0.60045 4.72231,14.911981 0.0265,16.353173 0,0 -1.94778,-0.70625 -2.78943,-4.177069 z M 106.5631,72.055367 c 22.86311,-3.661759 69.51085,-4.143039 92.6777,0.318623 17.74302,3.417096 18.47271,4.507895 26.48803,-0.131338 8.77973,-5.08167 9.99499,-4.886774 9.91318,-18.775446 -0.0955,-16.219964 3.10242,-11.745533 -12.68257,-15.103858 -7.05667,-1.138572 -6.68576,-2.582162 -7.1671,10.973915 -0.27167,7.57054 0.12305,10.377641 -3.28889,10.173781 -3.56611,-0.213072 -12.23807,-1.651198 -22.36892,-2.928487 -6.18886,-0.887535 -16.035,-1.866262 -20.18252,-2.252602 0.0485,-4.653946 0.0612,-6.854149 0.0728,-12.359991 0.006,-11.430968 -1.01371,-10.101984 -18.22409,-9.9518 -22.19539,0.809286 -17.07823,-4.0778 -18.0635,22.311791 -5.47858,0.739285 -11.30937,0.875346 -30.68699,3.467707 C 86.849485,60.473653 88.475541,62.165881 87.937668,49.86866 87.824302,45.238851 87.715156,42.703524 87.50188,39.485795 87.288604,36.268066 82.332648,38.070674 68.162785,40.737851 68.304194,67.15161 64.926849,66.310243 83.66864,74.98764 c 3.155543,1.461007 12.076448,-1.199659 22.89446,-2.932273 z"
     style="display:inline;fill:#000000;stroke-width:2.65008211" />
</svg>
